<svg version="1.2" baseProfile="tiny" xmlns="http://www.w3.org/2000/svg" viewBox="0 0 594.6 532.1"><path fill="#FDEABB" d="M134.3 224.6c.1.3.3.6.4.9 3.4-1.7 6.9-3.2 10.4-4.5-1-.4-1.9-1-2.6-1.8-2.6-2.9-10.9-9.8-19.4-15.6-.3.2-.7.4-1.1.6 3.2 5.9 8.7 12.1 12.3 20.4zm80.2 126.2c4.8-1.8 9.7-3.4 14-4.8-5.5-6.7-10.7-14.6-14.1-22.5-9 4-18.7 7.3-28.1 9.7 4.5 8.8 8.4 18 12.5 25.8 4.5-3.7 10.2-6.1 15.7-8.2z"/><path fill="#F9B200" d="M136.3 195.1c.3.2.6.5.9.7 0-.4 0-.7.1-1.1-.3.2-.6.3-1 .4z"/><path fill="#FDEABB" d="M260.8 409.5c20.5-10 54.1-24.4 80.7-24.8-7.3-2.5-16.5-3.8-26.1-3.8h-1c-14.7 0-29.8 2.6-38.4 5.6-21.9 7.4-40.4 18.8-58.4 34.2-6.7 5.5-12.6 15.1-19.2 24.4.5.8.8 1.6.7 2 1 1.2 1.6 2.7 1.6 4.3 0 .3 0 .5-.1.7 1.9 4.1 3.1 7.9 4.4 11l.3.6c0-.1.1-.1.1-.2-.1-.3-.1-.5-.1-.9v-.3c.2-2.4 1.7-4.3 3-4.7 2.7-5.3 5.5-10.8 9-14.8 11.8-13.2 28.1-25.7 43.5-33.3zm81.5-24.5v1.1-1.1z"/><path fill="#FDEABB" d="M516.5 319.6c-22.3 0-47.6 9.3-68.2 18-10.3 4.4-31.4 14.5-49.4 26.7-12.5 8.2-23.1 17.8-28.2 26 .5.1 1.2.3 1.9.7 1.8.9 2.9 2.9 3 4.1.9 1.1 1.5 2.5 1.5 3.9v.3c-.1 2.5-1.2 3.8-1.4 4.1-.4.5-.8 1-1.2 1.4-1.2 1.3-2.8 2.1-4.6 2.2-24.5 1.1-55.2 17.8-78.5 30.7-21.6 11.9-38.8 28.7-47.5 43.3.1.4.1.9.1 1.3 0 1-.2 2.1-.8 3.2-1.2 2.1-3.5 3.4-5.8 3.4h-.1c-1.1 0-2.1-.3-3.1-.8-5.5-3.1-9.9-7.5-13.9-11.1-1.1-1.1-2.3-2-3.3-2.8-1 1.8-1.9 3.6-2.9 5.2-1.7 2.5-3.1 5.3-7.1 7.3-.8.4-1.7.6-2.6.5-2.6 0-5-1.5-6.2-4.1-.1-.4-.2-.8-.1-.8-.4-.4-.7-1-1-1.5-.4-.9-.5-1.7-.5-2.5 0-.9.2-1.8.6-2.7-2.1-2.7-3.6-5.6-4.8-8.3-1.8-3.7-3.1-7.3-4.2-10.4-2.5 2.5-5.1 4.8-8 6.7-.6.4-1.2.6-1.7.7-1 1.8-2.9 3.1-5.2 3.3h-.5c-3.3 0-5.9-2.4-6.2-4.9-.8-.9-1.5-2.1-1.6-3.6-1.1-14.8-13.3-40.1-20-56.7-8.3-20.9-13.4-41.1-21.8-59.8-2.7-5.9-5.8-11.6-9.4-17.2-4.8-7.3-8.6-14.5-11.9-21.6-9.6-19.9-14.6-39.3-22.8-59.6-4.7-12-12.7-28-15.2-40.7-.6-.8-1.2-1.8-1-2.3-.9-1.2-1.5-2.6-1.5-4.2 0-.6.1-1.3.3-1.9.5-1.6 1.1-3.2 1.7-4.8 11.4-29.7 38.5-48.6 68.3-60.2 31.5-12.2 66.8-16.7 93.5-16.7 5.2 0 10.2.2 14.7.5 15.5-24.8 42.3-48.1 66.1-61.3 16.4-9.1 37.2-13.1 53.7-17.5 15.1-3.8 30.6-2.1 40.8-7.1l.5-.1c.3-.1.8-.2 1.3-.3.1-.1.3-.1.3-.1h.2c.6 0 1 .1 1 .1.3 0 .7 0 1.3.2.6.2 1 .5 1.3.7 0 0 .4.1 1 .6l.1.1h.1c9.5 8.8 15.5 26.2 22.2 35.4 3 4.4 7 8.6 10.9 13.2 3.8-5.6 7.7-11.2 11.8-16.4-5.8-14.7-10.9-29.5-15-44.4-25.2-1.3-49.2-.4-72.4 2.5-3.6 2-7.9 3.1-11.9 3.1h-.1c-1.7 0-3.4-.2-5.1-.6-54.4 9.3-104.5 30.4-155.6 63-19.9 13-149.8 67.5-171.7 101.6-3.9 6.1-4.2 11.5 0 15.9 2.4 2.5 6 4.7 11.6 6.5 15.6 53.8 51.6 105.8 66.6 161.3 11.7 43.3 11.7 96.1 48.9 128.8 67.3 59 173.1-49.6 233-86.9 50.5-31.4 125.9-47.4 153.3-90.5-5.4-1.3-11.2-2-17.6-2.1z"/><path fill="#FDEABB" d="M92.6 242c8.2 20.4 13.2 38.6 21.4 56.4 2.9 5.9 6.1 11.8 9.9 17.7 4.6 7.1 8.3 14.3 11.6 21.5 9.7 20.8 14.8 42.1 23.1 62.7 4.8 12.4 13.5 30.1 18 46.5 9.6-8.9 18.2-27 31.3-38.6 18.9-16.2 39-28.7 62.8-36.7 10.5-3.5 26.5-6.2 42.8-6.2 10 .1 20.3 1 29.4 3.8-1.6-4.1-3-8.6-4.5-13.1-3.6-12.2-6.9-25.1-9.6-31-.9-1.9-1.8-3.9-2.7-5.9-3.7-7.9-7.7-15.9-11.5-24.2-5.4-11.8-10.4-24-13.6-37.1-2.5-10.7-6.1-20-10.4-29.4-4.3-9.1-9.1-18.3-14.2-28.9-5.5-11.3-11.3-21.3-17.6-33.1-1.8-3.3-7-10.7-11.7-18.1-2.8-4.6-5.6-8.9-7.4-13.2-.6-1.3-1.2-2.6-1.2-3.3-.8-.6-1.5-1.5-1.9-2.4-3.2-.2-6.6-.3-10.5-.3-25.2 0-59.2 4.4-88.5 15.8-28 10.9-51.2 27.9-60.6 52.1l-.1.7h.1v.1c0 8.7 9.6 29.6 15.6 44.2zm67.6 64.1c-5.6-2.9-8.5-7.7-10.6-12.6-1.5-3-2.6-6.1-3.9-9.2-1.2-3.3-2.4-6.6-3.6-9.3-1.1-2.2-2.2-3.9-3-4.6-1.1-1-1.6-2.3-1.5-2.9-1.1-1.2-1.6-2.8-1.6-4.3 0-1.6.6-3.3 1.9-4.5 1.3-1.3 2.9-2 3.8-1.7 4.7-3.4 11.1-5.6 18.5-8.2 8.5-2.8 17.3-5 22.8-5.6.5-.2.9-.1 1-.1 1.6 0 3.1.6 4.3 1.6 1.2 1.1 1.9 2.5 1.8 3.3.8 1 1.5 2.3 1.6 3.9 0 1.3.6 3.1 1.3 4.8 1.1 2.2 2.6 4.6 4.3 7.1 3 4.5 6.5 9.4 8.8 15.1 1.2 2.3 2.2 4.8 2.9 7.6.1.4.2.9.2 1.4 0 1.3-.4 2.5-1.1 3.7-1 1.6-2.6 2.6-4.4 2.9l-.2-1.4.2 1.4c-1.8.2-9.5 3.3-16.7 6.4-7.6 2.9-14.9 6.1-21.7 6.3-1.5-.1-3.2-.2-5.1-1.1zm88.4 45.4c-.3 2.2-1.7 4.1-3.6 5.1-7 3.5-16.5 5.8-24.7 8.9l-.5-1.3.5 1.3c-8.3 2.9-14.5 7.3-15.2 10-1 2.3-3.1 3.9-5.6 4.1h-.5c-2.2 0-4.4-1.1-5.6-3-8.2-12.9-14.2-29.3-20.6-41-1.6-.8-3-2.7-3.2-4.3-.6-.8-1.1-1.6-1.1-2.2-.2-.3-.3-.5-.5-.7-.6-.9-.9-1.8-.9-2.1l-.2-.3c-.9-1.2-1.3-2.6-1.3-3.9 0-2.1 1-4.1 2.7-5.4 1.2-.9 2.6-1.3 3.9-1.3 2 0 4.1 1 5.4 2.8.1.2.3.4.4.5 12-2.7 25-7.2 35.8-12.7 1-.6 2.1-.8 3.1-.8.9 0 1.8.2 2.6.6 1.8.8 3.2 2.3 3.8 4.2.1.2.3.6.3.8.2.3.6.8.9 1.6.4 1.3.9 2.7 1.5 4.1 4.5 9.7 12.6 20.8 19.5 26.6 1.2 1 1.9 2.4 1.9 3.2.9 1.2 1.5 2.7 1.5 4.3-.3.3-.2.6-.3.9zm43.2-51.5c2.9 0 5.5 1.9 6.4 5l-.2-.2c.5.6 1 1.4 1.3 2.4.2.6.2 1.2.2 1.9 0 2.9-1.8 5.5-4.7 6.4-13.3 3.8-29.2 13.8-47 14.1h-.1c-3.2 0-5.8-2.3-6.1-4.7-.9-1.1-1.6-2.4-1.7-4 0 0 0-.1-.1-.1v-.2c0-3.5 2.8-6.4 6.3-6.6h.3c12.4.1 27.7-8.8 43.1-13.5 1-.5 1.7-.5 2.3-.5zm-14.2-18.8c.7-.3 1.5-.4 2.1-.4 2.8 0 5.4 1.8 6.4 4.9l-.3-.2c.6.7 1 1.4 1.3 2.4.2.6.3 1.3.3 2 0 2.8-1.8 5.4-4.6 6.3-14.4 4.5-29.5 8.4-42.9 13.7-.8.3-1.6.5-2.4.5h-.1c-2.6 0-5.1-1.6-6.1-4.2-.1-.4-.2-.7-.1-.7-.4-.5-.7-1-1-1.6-.4-.8-.5-1.7-.5-2.4 0-2.7 1.6-5.2 4.2-6.2 14.5-5.8 30-9.7 43.7-14.1zm-20.7-44.3c1.9 0 4.1.2 6.3 1.1 2.2.9 3.5 2.9 3.6 4.2 1 1.2 1.6 2.7 1.6 4.3 0 .8-.1 1.7-.5 2.6-1.1 2.4-3.5 4-6.1 4-.9 0-1.7-.2-2.5-.5 0 0-.1 0-.2-.1-.2 0-.4-.1-.8-.1v-.7l-.5.7h-.1c-9.1-.1-36.6 11-41.4 13.7-1 .5-2 .8-3.1.8-2.4 0-4.7-1.3-5.9-3.6-.3-.7-.4-1.3-.2-1.2-.2-.3-.6-.7-.8-1.2-.6-1-.8-2.1-.8-3.1 0-2.4 1.3-4.7 3.6-5.9 7-3.3 32.7-14.6 47.8-15zm-83.1-47c20-12.3 39.7-12.8 58.2-19.4.8-.4 1.6-.5 2.3-.5 1.2 0 2.5.4 3.5 1.1 1.6 1 2.7 2.7 2.6 3.9.8.9 1.4 2 1.5 3.4.2 2 .5 4.7.5 7.6 0 1.4-.1 2.9-.3 4.4-.6 3.2-3.4 5.5-6.5 5.5-.3 0-.7 0-1.1-.1-2.9-.5-4.9-2.8-5.1-4.8-.7-.8-1.2-1.7-1.4-2.8-17.3 4.8-32.4 6.6-46.2 15.3-1.1.7-2.3 1-3.5 1-2.2 0-4.4-1.1-5.7-3.1-.4-.7-.7-1.4-.8-2.1l-.3-.3c-.7-1.1-1-2.4-1-3.5.2-2.2 1.3-4.3 3.3-5.6zM97.5 177c1.1-.3 2.2-.4 3.1-.4 6.4.3 13.1 3.6 20.1 7.9 6.5-3.2 13.3-5.8 19.6-7.8 1.4-6.5 2.8-12.5 2.8-18.1v-.4c0-1.2-.1-2.5-.1-3.4-.1-.4-.1-.8-.1-.9 0-3.4 2.5-6.3 5.6-6.5.4-.1.7-.1.8-.1h.2c3.3 0 6 2.4 6.2 5 .7.9 1.4 2 1.5 3.5.1 1.7.2 3.3.2 5-.1 8.7-2 16.7-3.7 23.3 2.3 6.8 5.1 15.7 8.2 22.8 2.1 4.5 4.6 7.9 6.4 8.7 1.7 1 2.8 2.7 2.8 3.9.9 1.2 1.5 2.6 1.5 4.2v.8c-.3 2.6-2.1 4.8-4.6 5.6-11.6 3.6-23.6 7.5-32.6 13.3-1.1.7-2.3 1.1-3.6 1.1-.9 0-1.9-.2-2.7-.6-2-.9-3.4-2.8-3.5-4.2-.8-.9-1.3-2-1.5-3.3-.2-1.9-.8-3.7-1.6-5.4-3.3-6.3-9.3-12.9-12.9-22.1-1.2-2.5-2.3-5.2-3-8.2-.2-.6-.2-1.1-.2-1.5 0-.7.1-1.4.3-2v-.3c-.2-.5-.1-.9-.1-.9 0-.6.1-1.2.4-1.7-2.4-1.1-4.4-1.8-5-1.8h-.1c-.5.1-1.1.2-1.6.2-2.9 0-5.6-1.9-6.5-5.2-.4-.6-.8-1.3-1-2.1-.2-.6-.3-1.3-.3-1.8.1-3.1 2.1-5.8 5-6.6zm144 143.6v-.1zm269.6-58c-6.3-14.9-12.1-31.3-15-38.5-5.5-14-11.7-28-17.5-42.3-14.9 14.5-30.2 27.4-47.8 38.5-.7 1-1.5 2-2.2 3-3.5 4.9-7 9.8-10.4 14.8-.4.6-.9 1.1-1.5 1.6l-.1.1c-.7.5-1.4.8-2.2 1.1-15.8 4.2-33.2 14-48.2 25.1-.3.2-.6.5-.9.7v4.9c-2.7.9-5.8 1.5-8.8 2-.8.6-1.6 1.2-2.3 1.9h-.1c-1.1.9-2.6 1.4-4.1 1.4-.9 0-1.8-.2-2.8-.6-.6-.3-1-.7-1.5-1.2-7.5.7-15 .8-21.8.8 22.1-51.3 61.2-96.3 86.9-146.2 6.4-12.4 13.6-26 21.7-39.3-.1-.1-.2-.3-.3-.4-3.8-4.5-8.3-9.4-12.5-15.2-6.5-9.6-12.7-23.9-17.7-30.4-13.6 4.5-27.8 3.1-38.1 6.1-17 4.4-36.9 8.6-50.6 16.3-21.5 11.8-47 34.2-60.8 56.1 0 .3.1.6.1.9v.7c-.1 1.4-.7 2.5-1.5 3.5.2.4.3.9.6 1.5 1.4 2.8 3.4 6.3 5.6 9.6 4.5 7.1 9.6 14 12.2 18.9 6.2 11.4 12.1 21.6 17.9 33.6 5.3 11.1 10.6 21 15.3 31.4 5 10.7 9.3 21.6 12.4 34.4 2.6 10.9 6.8 21.5 11.6 32.2 4.6 10 9.7 20 14.2 30.2l.1.2c.3.7.7 1.4 1 2.2 3.6 8.1 6.5 20.7 10.2 32.6 1.2 4.4 2.7 8.7 4.2 12.4 2.9-5.3 6.7-10.4 10.7-15.2l1.1.9-1.1-.9c8.3-9.7 18.1-18.2 24.5-23.7 17.6-15.1 37.7-22.7 57.3-31 18.4-7.7 41.7-17 64-17.1 2.1 0 4.2.1 6.3.3-1-2-2-4.1-3.1-6.3-1.7-3.9-3.4-7.7-5-11.6zM346.4 99.3c11.4-5 23-12.5 38-14.3.5-.1.8-.1 1-.1 3.2 0 6.1 2.4 6.2 5 .7.8 1.3 1.9 1.5 3.4v.6c0 3.3-2.4 6.2-5.8 6.6-11.6 1.4-21.9 7.7-34.5 13.4-.9.4-1.8.6-2.7.6-2.6 0-5-1.5-6.1-3.9-.2-.4-.3-.8-.3-1-.3-.4-.6-.8-.8-1.4-.4-.9-.6-1.9-.6-2.7.1-2.7 1.6-5.1 4.1-6.2zm-34.5 78.6h-.4c-2-.1-3.7-1.2-4.9-2.8-4.1-5.7-6.9-11.7-9.5-17.3-1.5-3.2-2.9-6.4-4.3-9.5-2.1-4.5-4.2-8.7-7-12.4-.5-.8-.9-1.7-.8-2l-.3-.5c-.7-1-1.1-2.1-1-2.7-.6-1-1-2.2-1-3.9.5-5.2 4-6.4 4.6-7 1.4-.8 2.8-1.4 4.3-2 2.9-1.2 6.2-2.3 8.1-3 3.3-1.3 5.7-1.9 6.8-2.5 1.2-.6 1.7-.8 3.6-2.6 1.3-1.4 3.1-2.1 4.8-2.1 1.4 0 2.8.4 3.9 1.3 7.8 5.9 11.2 14.7 14.7 21.8 3.4 7.3 7.1 12.2 10.1 12.9 2.1.7 3.7 2.4 4.3 4.8.6.7 1 1.6 1.2 2.5l-1.4.3 1.4-.3c.1.4.1.9.1 1.4 0 1.8-.7 3.6-2.1 4.9-11.3 10-24.1 11.8-30.5 18.7-1.2 1.3-2.8 2-4.7 2z"/><path fill="#FDEABB" d="M305.7 129.5c-1.8.7-4.3 1.6-6.4 2.4 2.1 3.6 3.8 7.2 5.4 10.8 1.8 3.7 3.4 7.4 5 10.9.9 1.9 1.8 3.8 2.8 5.6 5.9-3.9 11.9-6.3 16.9-8.9-2.8-3.6-4.8-7.6-6.7-11.3-2.5-5.2-4.8-10-7.3-13.4-.9.6-1.8 1-2.8 1.4-2.4 1-4.3 1.4-6.9 2.5zM489.2 172c6.5 16.5 13.7 32.9 20.4 49.5 2.8 7.2 8 21.8 13.7 35.5 1.2 3.1 2.5 6.1 3.8 8.9 4.1 8.8 8.5 16.2 9.9 17l.1.1c2.3.8 3.9 2.8 4 4.6.9 1.1 1.4 2.5 1.4 4v.7c.6.8 1.1 1.6 1.6 2.3 1.8-13.9-.2-30-7.6-49.2-10.7-27.7-24.1-55.6-37.9-83.7-3.4 3.5-6.6 6.7-9.4 9.6-.1.3-.1.5 0 .7zM283.9 423.9c12.6-6.9 27.5-15.2 43.1-21.7-20.2 4-44 14-59.2 21.6-13.6 6.7-29 18.5-39.3 30.1-1.2 1.4-2.9 4.1-4.7 7.4 1.5 1.2 2.8 2.4 4.3 3.6 1.7 1.5 3.4 3.1 5 4.5 10.6-16.3 28.4-33.1 50.8-45.5zm243.7-126.5c-4.1-1.2-8.6-1.8-13.8-1.9-18.5 0-40.7 8.5-58.6 16.1-20 8.3-38.5 15.6-53.8 28.8-3.7 3.2-8.4 7.3-13.2 11.9.7-.5 1.4-1 2.2-1.5C409.5 338 431 327.7 442 323c21.2-8.9 47.7-19 73.5-19v1.4-1.4c6.6 0 13.1.7 19.5 2.3-1.9-3.4-4.2-6.4-5.9-7-1.1-.7-1.8-1.6-1.5-1.9z"/><path fill="#F9B200" d="M361.5 249.1c-.1.3-.2.5-.3.8 1.8-1.3 3.7-2.6 5.6-3.9v-.3c-1.6.7-3.2 1.3-4.7 2.1-.2.4-.4.9-.6 1.3z"/><path fill="#CE141E" d="M564.4 58.8h-.1c-3 2.2-6.4 3.5-9.3 3.4-2.9 1.8-6.2 4.1-9.7 7.2-8.2 7.1-17.3 17-26.1 27.6-15.8 19.1-30.6 40.5-38.2 52.2 2.4 7.4 5.2 14.8 8.1 22.2 2.8-2.9 6-6.1 9.4-9.6 27.1-27.8 68.7-73.4 72-105.5-1.2 1.5-3.1 2.5-5.1 2.5-.4.1-.6 0-1 0zm-28.9-1.9c.5-.4.9-.8 1.4-1.1-1.6-1.1-3.2-2.4-4.7-3.6-4.2-3.4-8.3-7-11.4-9.2-13.7 11.2-38.6 35.1-53.4 50.6l-1-1 1 1c-27.4 28.7-44.8 68.2-71.6 101.2.8.6 1.6 1.2 2.3 2 1.3 1.5 2.2 3.1 2.8 4.7 1.2 2 1.8 4.3 2.1 6.6 4.9.8 8.3 4.3 10.2 7.8l.6 1.2c17.5-24.7 36.3-47.8 51.9-72.6.2-2 1.4-3.7 2.6-4.3 12-18.7 41.7-61.2 67.2-83.3zm22.8-24c-2.9-1.6-7.7-2.7-12.7-2.7l-.3-1.4-.2 1.4h-.4c-4.8 0-9.7 1.1-13.3 2.8 2.7 2.2 5.4 4.4 8 6.6 4.2 3.5 8.4 6.1 11.2 6.9 2.3-1.1 4.5-2 6.2-2.1.6-.8 1.3-1.7 2.1-3 1.6-2.8 2-4.7 2-5.9 0-.3-.1-.6.1-.4-.5-.8-1.4-1.5-2.7-2.2zm-234.2 243c6.8 0 14.4-.1 21.8-.8-1.1-.9-1.9-2.1-1.9-3.1-.9-1-1.5-2.3-1.6-3.8-.1-.4-.1-.8-.1-.9.1-11.6 4.2-22.9 8.9-33.3v-.4c0-2.2 1.1-4.3 2.5-4.9 4.6-9.4 9.3-18 11.6-25 .8-2.3 2.9-3.9 5.1-4.3 27.5-26.8 44.9-64.4 69.4-97.3 0-.1 0-.1-.1-.2-.2-.8-.5-1.6-.9-2.4-1.6-3.1-3.8-6.1-6.4-9.2-8.1 13.3-15.3 26.9-21.7 39.3-25.4 50-64.5 95-86.6 146.3zM440.8 78.3c3.1 3.6 6.1 7.5 8.5 12.1 2.4-2.8 4.8-5.6 7.4-8.3 15.8-16.7 41.6-41.4 56.1-53 .2-.7.5-1.4 1-2.1 2.2-2.9 5-5.1 8.1-6.8-27.8.3-50.6 17.9-69.4 41.6-4.1 5.2-8 10.7-11.8 16.4l.1.1zm37.6 102.9c-2.3-5.8-4.6-11.6-6.8-17.5-13.1 19.7-27.3 38-40.8 56.6 17.6-11.1 32.9-24 47.8-38.5-.1-.3-.1-.5-.2-.6zm-113 85.4c-3 2.2-5.9 4.6-8.8 7 3-.6 6-1.1 8.8-2v-5z"/><path fill="#CE141E" d="M388.3 207.9c-1.5 0-6.2 2-10 7.7-.7 1-1.6 1.6-1.8 1.4-1.6 3.7-3.4 7.4-5.3 11.3 4.4 2.2 7.4 5.9 8.8 9.7 0 0 0 .1.1.1 7.5-4.2 15.3-7.7 23.1-10.4-.1-1.2-.4-2.3-.6-3.1-.2-.4-.4-.6-.6-.8-.1 0-.1.1-.2.1-.6.4-1.6 1.3-2.9 3.2-1.3 1.8-3.4 2.9-5.5 2.9-1.1 0-2.2-.3-3.2-.8-1.7-.9-2.7-2.5-3.1-4.2-.9-1.2-1.4-2.6-1.4-4.1 0-.9.2-1.8.6-2.6 1.9-4.4 2.6-7.8 2.6-9.7 0-.2 0-.4-.1-.6-.2-.1-.3-.1-.5-.1zm-21.5 37.8c0-.3 0-.6.1-.9.1-.5.2-1.1.5-1.6-.9-.8-1.7-1.3-2.7-1.4-.9 2-1.8 4-2.6 6 1.5-.7 3.1-1.4 4.7-2.1z"/><path fill="#FDEABB" d="M195 283.5c.4-.1.7-.4.9-.9.1-.4.1-.8-.1-1.2-1.7-3.1-3.8-6.3-6-9.6-2.3-3.5-4.7-7.2-6.4-11.2-.5-1.1-1-2.1-1.4-3.2-.3-.7-1-1.1-1.6-.9-4.5 1-10.4 2.5-15.9 4.3-5.2 1.6-10.4 3.8-13.4 5.4-.7.4-1 1.2-.6 1.9.4.8.8 1.6 1.1 2.4 1.9 3.9 3.4 8.3 5 12.4.5 1.6 1.2 3.2 1.8 4.6 1.8 3.4 2.9 5.6 4.7 6.5.2.1.5.1.7.1h.3l.1-.1c3.3-.1 10.5-2.6 17.6-5.5 4.9-1.7 9.4-3.6 13.2-5z"/><path fill="#511A2D" d="M575.3 37.8v-.2c0-3.1-.9-6-2.2-8.4-1.7-4.5-5.4-8.2-9.6-10.4-5.7-3.1-12.4-4.3-19.2-4.3-6.9.1-14 1.2-20.1 4.2-.8.4-1.6 1-2.4 1.4-3.1 1.8-5.9 3.9-8.1 6.8-.5.7-.8 1.4-1 2.1-14.5 11.5-40.3 36.3-56.1 53-2.5 2.7-5 5.5-7.4 8.3-2.4-4.5-5.4-8.5-8.5-12.1-.1-.1-.1-.2-.2-.3-3.9-4.6-7.9-8.8-10.9-13.2-6.7-9.2-12.7-26.6-22.2-35.4h-.1l-.1-.1c-.6-.5-1-.6-1-.6-.2-.2-.7-.5-1.3-.7-.6-.2-1.1-.2-1.3-.2-.1 0-.4-.1-1-.1h-.2c-.1 0-.2 0-.3.1-.6.1-1 .2-1.3.3l-.5.1c-10.2 5-25.7 3.3-40.8 7.1-16.5 4.4-37.2 8.4-53.7 17.5-23.6 13.3-50.5 36.5-66 61.3-4.5-.3-9.4-.5-14.7-.5-26.7 0-61.9 4.5-93.5 16.7-29.8 11.6-56.8 30.5-68.3 60.2-.6 1.6-1.2 3.2-1.7 4.8-.2.6-.3 1.3-.3 1.9 0 1.6.6 3 1.5 4.2-.1.5.4 1.5 1 2.3 2.5 12.8 10.5 28.7 15.2 40.7 8.2 20.3 13.3 39.7 22.8 59.6 3.3 7.1 7.1 14.3 11.9 21.6 3.6 5.6 6.7 11.3 9.4 17.2 8.4 18.7 13.5 38.9 21.8 59.8 6.7 16.6 18.9 41.9 20 56.7.1 1.5.8 2.7 1.6 3.6.2 2.5 2.9 4.9 6.2 4.9h.5c2.3-.2 4.1-1.5 5.2-3.3.6-.1 1.2-.4 1.7-.7 3-1.9 5.6-4.2 8-6.7 1.2 3.1 2.4 6.8 4.2 10.4 1.2 2.7 2.7 5.6 4.8 8.3-.4.8-.6 1.7-.6 2.7 0 .8.1 1.6.5 2.5.3.6.6 1.1 1 1.5-.1 0 0 .4.1.8 1.1 2.6 3.6 4.1 6.2 4.1.9 0 1.8-.2 2.6-.5 4-2 5.4-4.7 7.1-7.3 1-1.6 1.9-3.3 2.9-5.2 1 .8 2.1 1.7 3.3 2.8 4 3.5 8.4 8 13.9 11.1 1 .5 2 .8 3.1.8h.1c2.3 0 4.5-1.2 5.8-3.4.6-1.1.8-2.2.8-3.2 0-.5-.1-.9-.1-1.3 8.7-14.6 25.9-31.4 47.5-43.3 23.3-13 54.1-29.6 78.5-30.7 1.7-.1 3.4-.9 4.6-2.2.4-.5.8-.9 1.2-1.4.2-.3 1.3-1.6 1.4-4.1v-.3c0-1.5-.7-2.8-1.5-3.9-.1-1.3-1.2-3.2-3-4.1-.7-.4-1.3-.6-1.9-.7 5.1-8.2 15.7-17.9 28.2-26 18-12.2 39.1-22.3 49.4-26.7 20.6-8.8 45.9-18.1 68.2-18v-.1c6.5.1 12.2.8 17.7 2.3.2 0 .3.1.5.1 1.9.6 3.8 1.2 5.7 1.9.8.3 1.6.5 2.4.5 1.7 0 3.3-.7 4.5-1.8.2 0 .4-.1.7-.1 3-.8 5-3.5 4.9-6.5 0-.6-.1-1.1-.2-1.7-.8-2.5-2.1-6.8-4.3-11.3-.9-2.2-2.1-4.5-3.4-6.8-.3-.5-.7-1-1-1.5-.5-.8-1-1.6-1.6-2.3v-.7c0-1.5-.6-2.9-1.4-4-.1-1.7-1.6-3.7-4-4.6l-.1-.1c-1.4-.7-5.8-8.1-9.9-17-1.3-2.9-2.6-5.9-3.8-8.9-5.7-13.8-10.9-28.3-13.7-35.5-6.6-16.6-13.9-33.1-20.4-49.5-.1-.2-.1-.4-.2-.6-2.9-7.4-5.6-14.8-8.1-22.2 7.6-11.8 22.4-33.2 38.2-52.2 8.8-10.6 17.9-20.6 26.1-27.6 3.4-3 6.7-5.4 9.7-7.2 2.9.1 6.3-1.2 9.3-3.4h.1c.3 0 .6.1.9.1 2.1 0 3.9-1 5.1-2.5.7-.9 1.3-1.9 1.5-3.1 0-.3.1-.5 0-.8 0-.8-.2-1.5-.4-2.2l.2-.4c2.6-4.2 3.9-8.2 3.9-12.2zm-14.4-2.4c0 1.2-.4 3.1-2 5.9-.8 1.3-1.5 2.2-2.1 3-1.6.1-3.9.9-6.2 2.1-2.8-.8-7-3.4-11.2-6.9-2.7-2.1-5.3-4.4-8-6.6 3.6-1.6 8.5-2.8 13.3-2.8h.4l.2-1.4.3 1.4c5 0 9.8 1.1 12.7 2.7 1.3.8 2.2 1.5 2.7 2.2-.2-.2-.1.2-.1.4zm-25.8 270.9c-6.4-1.6-13-2.3-19.5-2.3v1.4-1.4c-25.9.1-52.4 10.2-73.5 19-11 4.7-32.5 15-51.7 27.9-.7.5-1.4 1-2.2 1.5 4.8-4.6 9.5-8.8 13.2-11.9 15.3-13.3 33.8-20.5 53.8-28.8 18-7.6 40.2-16.1 58.6-16.1 5.2.1 9.7.7 13.8 1.9-.3.3.4 1.2 1.6 1.8 1.7.5 4 3.5 5.9 7zm-302 163.1c-1.6-1.4-3.3-3-5-4.5-1.4-1.2-2.8-2.4-4.3-3.6 1.8-3.3 3.4-6.1 4.7-7.4 10.3-11.7 25.7-23.5 39.3-30.1 15.2-7.6 39-17.5 59.2-21.6-15.6 6.5-30.5 14.8-43.1 21.7-22.4 12.4-40.2 29.2-50.8 45.5zm-27.7-7.2v.3c0 .3 0 .6.1.9 0 .1-.1.1-.1.2l-.3-.6c-1.3-3-2.6-6.9-4.4-11 0-.2.1-.5.1-.7 0-1.6-.6-3.1-1.6-4.3.1-.4-.2-1.2-.7-2 6.7-9.3 12.5-18.9 19.2-24.4 18-15.4 36.5-26.8 58.4-34.2 8.6-2.9 23.6-5.6 38.4-5.6h1c9.5 0 18.8 1.3 26.1 3.8-26.6.4-60.2 14.7-80.7 24.8-15.4 7.6-31.7 20.1-43.3 33.3-3.4 4-6.3 9.5-9 14.8-1.4.4-3 2.3-3.2 4.7zM76.9 197.8l.1-.7c9.4-24.3 32.6-41.3 60.6-52.1 29.3-11.5 63.3-15.8 88.5-15.8 3.9.1 7.3.1 10.5.3.4 1 1.1 1.8 1.9 2.4.1.7.6 2 1.2 3.3 1.8 4.3 4.6 8.6 7.4 13.2 4.7 7.3 9.9 14.8 11.7 18.1 6.3 11.7 12.1 21.7 17.6 33.1 5.1 10.5 9.9 19.7 14.2 28.9 4.2 9.4 7.8 18.7 10.4 29.4 3.1 13.1 8.2 25.3 13.6 37.1 3.7 8.3 7.7 16.3 11.5 24.2.9 2 1.8 3.9 2.7 5.9 2.7 5.9 5.9 18.8 9.6 31 1.5 4.5 2.9 9 4.5 13.1-9.1-2.8-19.4-3.8-29.4-3.8-16.3 0-32.3 2.7-42.8 6.2-23.7 8-43.9 20.4-62.8 36.7-13 11.6-21.7 29.7-31.3 38.6-4.5-16.4-13.2-34.1-18-46.5-8.3-20.6-13.4-41.9-23.1-62.7-3.3-7.2-7-14.4-11.6-21.5-3.9-5.9-7.1-11.8-9.9-17.7-8.2-17.8-13.2-36-21.4-56.4-6-14.5-15.6-35.5-15.6-44 0-.3-.1-.3-.1-.3zM342.3 385v1.1-1.1zm170.6-105.1c-22.3.1-45.7 9.4-64 17.1-19.6 8.3-39.7 15.8-57.3 31-6.4 5.5-16.1 14-24.5 23.7l1.1.9-1.1-.9c-4.1 4.8-7.8 9.8-10.7 15.2-1.5-3.7-3-8-4.2-12.4-3.6-11.8-6.6-24.5-10.2-32.6-.3-.8-.7-1.6-1-2.2l-.1-.2c-4.5-10.2-9.6-20.2-14.2-30.2-4.8-10.7-9-21.3-11.6-32.2-3.1-12.8-7.4-23.7-12.4-34.4-4.7-10.3-10-20.3-15.3-31.4-5.8-12-11.7-22.1-17.9-33.6-2.6-4.8-7.7-11.8-12.2-18.9-2.2-3.3-4.1-6.8-5.6-9.6l-.6-1.5c.8-.9 1.4-2.1 1.5-3.5v-.7c0-.3 0-.6-.1-.9 13.8-21.9 39.3-44.2 60.8-56.1 13.7-7.7 33.7-11.9 50.6-16.3 10.3-3 24.5-1.6 38.1-6.1 4.9 6.5 11.2 20.8 17.7 30.4 4.2 5.8 8.7 10.7 12.5 15.2.1.1.2.3.3.4 2.5 3.1 4.8 6.1 6.4 9.2l.9 2.4c0 .1.1.1.1.2-24.5 32.9-41.9 70.5-69.4 97.3-2.3.4-4.3 2-5.1 4.3-2.3 7-7.1 15.6-11.6 25-1.4.6-2.5 2.7-2.5 4.9v.4c-4.7 10.4-8.7 21.7-8.9 33.3 0 .1 0 .4.1.9.1 1.4.7 2.8 1.6 3.8 0 1 .8 2.1 1.9 3.1.5.4.9.9 1.5 1.2 1 .4 1.8.6 2.8.6 1.5 0 2.9-.5 4.1-1.4h.1c.8-.6 1.6-1.2 2.3-1.9 2.9-2.4 5.7-4.7 8.8-7 .3-.2.6-.5.9-.7 14.9-11.1 32.3-20.9 48.2-25.1.8-.3 1.5-.6 2.2-1.1l.1-.1c.6-.5 1.1-.9 1.5-1.6 3.4-5 6.9-9.9 10.4-14.8.7-1 1.5-2 2.2-3 13.5-18.6 27.7-36.9 40.8-56.6 2.2 5.9 4.5 11.8 6.8 17.5.1.2.2.4.2.5 5.8 14.3 11.9 28.4 17.5 42.3 2.9 7.2 8.7 23.6 15 38.5 1.6 3.9 3.4 7.8 5 11.3 1 2.2 2.1 4.3 3.1 6.3-2.4.2-4.5.1-6.6.1zm-145.5-36.7c-.2.5-.4 1.1-.5 1.6 0 .3-.1.6-.1.9v.3c-1.9 1.3-3.8 2.6-5.6 3.9.1-.3.2-.5.3-.8.2-.4.4-.9.6-1.3.8-2 1.6-4 2.6-6 .9.2 1.8.6 2.7 1.4zm18.8-24.9c-.4.8-.6 1.7-.6 2.6 0 1.5.5 2.9 1.4 4.1.4 1.6 1.4 3.2 3.1 4.2 1 .6 2.1.8 3.2.8 2.1 0 4.2-1.1 5.5-2.9 1.3-1.9 2.3-2.8 2.9-3.2.1-.1.2-.1.2-.1.1.1.3.4.6.8.2.8.5 1.9.6 3.1-7.8 2.6-15.6 6.2-23.1 10.4 0 0 0-.1-.1-.1-1.3-3.9-4.4-7.5-8.8-9.7 1.9-3.8 3.7-7.6 5.3-11.3.2.2 1.1-.4 1.8-1.4 3.8-5.7 8.5-7.7 10-7.7.2 0 .3.1.5.1 0 .2 0 .4.1.6 0 1.9-.6 5.3-2.6 9.7zm82.1-78.1c-1.2.7-2.4 2.3-2.6 4.3-15.7 24.8-34.4 47.9-51.9 72.6l-.6-1.2c-1.9-3.5-5.3-7-10.2-7.8-.3-2.4-1-4.6-2.1-6.6-.5-1.6-1.5-3.2-2.8-4.7-.7-.8-1.5-1.4-2.3-2 26.7-33 44.2-72.6 71.6-101.2l-1-1 1 1C482.2 78 507.1 54.1 520.8 43c3.2 2.3 7.2 5.8 11.4 9.2 1.5 1.2 3.1 2.4 4.7 3.6-.5.4-.9.8-1.4 1.1-25.5 22.1-55.2 64.6-67.2 83.3z"/><path fill="#511A2D" d="M93.9 187.3c.9 3.2 3.5 5.2 6.5 5.2.5 0 1.1-.1 1.6-.2h.1c.6.1 2.6.7 5 1.8-.2.5-.3 1.1-.4 1.7 0 0 0 .4.1.9v.3c-.2.6-.3 1.3-.3 2 0 .4 0 .9.2 1.5.8 3 1.9 5.7 3 8.2 3.7 9.2 9.6 15.8 12.9 22.1.8 1.8 1.4 3.6 1.6 5.4.2 1.3.7 2.4 1.5 3.3 0 1.5 1.5 3.3 3.5 4.2.9.4 1.8.6 2.7.6 1.3 0 2.5-.4 3.6-1.1 9-5.8 21-9.7 32.6-13.3 2.5-.8 4.3-3 4.6-5.6v-.8c0-1.6-.6-3-1.5-4.2 0-1.2-1.1-2.9-2.8-3.9-1.9-.9-4.3-4.2-6.4-8.7-3.1-7.1-5.9-16-8.2-22.8 1.7-6.6 3.7-14.6 3.7-23.3 0-1.7-.1-3.3-.2-5-.2-1.4-.8-2.6-1.5-3.5-.2-2.5-2.9-5-6.2-5h-.2c-.2 0-.4 0-.8.1-3.1.2-5.7 3.1-5.6 6.5 0 .1 0 .5.1.9.1.9.1 2.2.1 3.4v.4c0 5.6-1.4 11.7-2.8 18.1-6.3 2-13.1 4.6-19.6 7.8-7-4.3-13.7-7.6-20.1-7.9-1 0-2 .1-3.1.4-2.9.8-4.9 3.5-4.9 6.4 0 .5.1 1.2.3 1.8.1 1 .5 1.7.9 2.3zm29.2 16.2c8.5 5.8 16.8 12.7 19.4 15.6.7.8 1.6 1.4 2.6 1.8-3.5 1.4-7 2.8-10.4 4.5-.1-.3-.3-.6-.4-.9-3.7-8.3-9.1-14.5-12.3-20.5.4-.1.7-.3 1.1-.5zm13.2-8.4c.3-.1.7-.3 1-.4 0 .4 0 .7-.1 1.1-.3-.2-.6-.5-.9-.7zm67.3 99.4l-.2-1.4.2 1.4c1.8-.3 3.4-1.4 4.4-2.9.7-1.1 1.1-2.4 1.1-3.7 0-.5-.1-1-.2-1.4-.7-2.8-1.7-5.3-2.9-7.6-2.3-5.7-5.8-10.6-8.8-15.1-1.7-2.5-3.2-4.9-4.3-7.1-.8-1.8-1.3-3.5-1.3-4.8-.1-1.6-.8-2.9-1.6-3.9.1-.8-.6-2.2-1.8-3.3-1.2-1-2.7-1.6-4.3-1.6-.1 0-.5-.1-1 .1-5.5.6-14.3 2.8-22.8 5.6-7.4 2.6-13.8 4.8-18.5 8.2-.9-.2-2.5.4-3.8 1.7-1.2 1.2-1.9 2.9-1.9 4.5 0 1.5.5 3.1 1.6 4.3-.1.6.4 1.9 1.5 2.9.8.7 1.9 2.4 3 4.6 1.2 2.7 2.5 6 3.6 9.3 1.3 3.1 2.4 6.2 3.9 9.2 2.1 4.9 4.9 9.8 10.6 12.6 1.9.8 3.6.9 5 .9 6.8-.2 14.2-3.3 21.7-6.3 7.3-2.9 15-6 16.8-6.2zm-39.4-.2h-.4c-.2 0-.5 0-.7-.1-1.7-.9-2.9-3.1-4.7-6.5-.6-1.4-1.3-3-1.8-4.6-1.6-4.1-3.1-8.4-5-12.4-.4-.8-.8-1.6-1.1-2.4-.3-.7-.1-1.5.6-1.9 3-1.6 8.2-3.8 13.4-5.4 5.5-1.8 11.4-3.4 15.9-4.3.7-.2 1.4.2 1.6.9.4 1 .8 2.1 1.4 3.2 1.6 3.9 4 7.6 6.4 11.2 2.2 3.3 4.3 6.5 6 9.6.2.4.3.8.1 1.2-.2.4-.5.7-.9.9-3.9 1.4-8.4 3.4-13.1 5.3-7.1 2.7-14.4 5.2-17.7 5.3zm185.1-141.9c0-.5-.1-1-.1-1.4l-1.4.3 1.4-.3c-.2-1-.6-1.8-1.2-2.5-.6-2.3-2.2-4-4.3-4.8-3.1-.7-6.7-5.7-10.1-12.9-3.5-7-6.9-15.9-14.7-21.8-1.2-.9-2.6-1.3-3.9-1.3-1.7 0-3.5.7-4.8 2.1-1.9 1.9-2.3 2.1-3.6 2.6-1.1.5-3.5 1.1-6.8 2.5-1.8.7-5.2 1.8-8.1 3-1.5.6-2.9 1.2-4.3 2-.7.6-4.2 1.9-4.6 7 .1 1.7.5 3 1 3.9-.1.6.3 1.7 1 2.7l.3.5c0 .3.3 1.2.8 2 2.8 3.8 4.9 8 7 12.4 1.4 3.1 2.8 6.3 4.3 9.5 2.6 5.7 5.5 11.6 9.5 17.3 1.1 1.6 2.9 2.6 4.9 2.8h.4c1.9 0 3.5-.7 4.8-1.9 6.4-6.9 19.2-8.8 30.5-18.7 1.3-1.4 2-3.2 2-5zM322.7 139c1.9 3.7 3.9 7.7 6.7 11.3-5 2.6-11 4.9-16.9 8.9-1-1.8-1.9-3.6-2.8-5.6-1.6-3.5-3.2-7.2-5-10.9-1.6-3.5-3.3-7.2-5.4-10.8 2.1-.8 4.6-1.7 6.4-2.4 2.6-1.1 4.5-1.5 7-2.5.9-.4 1.8-.9 2.8-1.4 2.4 3.3 4.8 8.2 7.2 13.4zm-77.4 204.3c-6.9-5.8-15-16.9-19.5-26.6-.6-1.4-1.1-2.8-1.5-4.1-.3-.8-.7-1.3-.9-1.6 0-.2-.2-.6-.3-.8-.6-1.9-2-3.4-3.8-4.2-.8-.4-1.7-.6-2.6-.6-1 0-2.1.2-3.1.8-10.8 5.6-23.8 10-35.8 12.7-.1-.2-.3-.4-.4-.5-1.3-1.8-3.4-2.8-5.4-2.8-1.3 0-2.7.4-3.9 1.3-1.7 1.3-2.7 3.3-2.7 5.4 0 1.3.4 2.7 1.3 3.9l.2.3c-.1.3.2 1.2.9 2.1.2.2.3.5.5.7.1.5.5 1.4 1.1 2.2.2 1.6 1.6 3.4 3.2 4.3 6.4 11.7 12.4 28.1 20.6 41 1.2 1.9 3.4 3 5.6 3h.5c2.5-.2 4.7-1.8 5.6-4.1.7-2.7 6.9-7.1 15.2-10l-.5-1.3.5 1.3c8.2-3.1 17.6-5.5 24.7-8.9 2-1 3.3-2.9 3.6-5.1.1-.3 0-.6 0-.8 0-1.6-.6-3.1-1.5-4.3.3-.9-.4-2.3-1.6-3.3zm-31-19.8c3.5 7.9 8.6 15.7 14.1 22.5-4.3 1.4-9.2 3-14 4.8-5.5 2.2-11.1 4.5-15.7 8.3-4.1-7.9-8-17-12.5-25.8 9.4-2.4 19.1-5.7 28.1-9.8zM172 199.4c.1.7.4 1.4.8 2.1 1.3 2 3.5 3.1 5.7 3.1 1.2 0 2.4-.3 3.5-1 13.8-8.7 28.9-10.5 46.2-15.3.2 1 .7 2 1.4 2.8.1 2.1 2.2 4.3 5.1 4.8.4.1.8.1 1.1.1 3.2 0 6-2.3 6.5-5.5.3-1.5.3-3 .3-4.4 0-2.9-.3-5.5-.5-7.6-.1-1.4-.8-2.5-1.5-3.4 0-1.2-1-2.9-2.6-3.9-1.1-.7-2.3-1.1-3.5-1.1-.7 0-1.5.1-2.3.5-18.5 6.7-38.2 7.1-58.2 19.4-2 1.2-3.1 3.4-3.1 5.7 0 1.1.3 2.4 1 3.5l.1.2zm33.4 58.6c0 1 .2 2.1.8 3.1.3.6.6.9.8 1.2-.2-.2-.1.5.2 1.2 1.2 2.3 3.5 3.6 5.9 3.6 1 0 2.1-.2 3.1-.8 4.8-2.7 32.3-13.8 41.4-13.7h.1l.5-.7v.7c.4 0 .6 0 .8.1.1 0 .2.1.2.1.8.3 1.7.5 2.5.5 2.6 0 5-1.6 6.1-4 .4-.9.6-1.8.5-2.6 0-1.6-.6-3.2-1.6-4.3-.1-1.4-1.4-3.3-3.6-4.2-2.2-.9-4.4-1.1-6.3-1.1-15.1.3-40.7 11.7-47.9 15.2-2.2 1-3.5 3.3-3.5 5.7zm24.3 43.4c0 .7.1 1.6.5 2.4.3.6.6 1.2 1 1.6 0 .1 0 .4.1.7 1.1 2.6 3.5 4.2 6.1 4.2h.1c.8 0 1.6-.1 2.4-.5 13.5-5.3 28.6-9.2 42.9-13.7 2.8-1 4.6-3.6 4.6-6.3 0-.7-.1-1.3-.3-2-.3-.9-.8-1.7-1.3-2.4l.3.2c-1-3.1-3.6-4.9-6.4-4.9-.6 0-1.4.1-2.1.4-13.7 4.3-29.1 8.2-43.7 14-2.6 1.2-4.2 3.7-4.2 6.3zm17 12.4h-.3c-3.5.2-6.3 3.1-6.3 6.6v.2c0 .1 0 .1.1.1.1 1.6.7 2.9 1.7 4 .2 2.4 2.8 4.7 6.1 4.7h.1c17.7-.4 33.7-10.3 47-14.1 2.9-.9 4.7-3.5 4.7-6.4 0-.7-.1-1.3-.2-1.9-.3-1-.8-1.8-1.3-2.4l.2.2c-.9-3.1-3.5-5-6.4-5-.6 0-1.3.1-2 .4-15.6 4.9-30.9 13.7-43.4 13.6zm-5.2 6.8zm102.4-211.2c0 .3.1.6.3 1 1.1 2.5 3.5 3.9 6.1 3.9.9 0 1.8-.2 2.7-.6 12.6-5.7 23-12 34.5-13.4 3.4-.4 5.8-3.3 5.8-6.6v-.6c-.2-1.5-.8-2.6-1.5-3.4-.2-2.6-3-5-6.2-5-.2 0-.5 0-1 .1-15 1.9-26.6 9.4-38 14.3-2.5 1.1-4 3.5-4 6.1 0 .9.2 1.8.6 2.7.1.7.4 1.1.7 1.5z"/></svg>