<svg version="1.2" baseProfile="tiny" xmlns="http://www.w3.org/2000/svg" viewBox="0 0 98.7 187.3"><path fill="#CE9B6C" d="M81.9 177.4c-.1 0-.1.1-.2.1.5-.3.9-.6 1-1.1.2-.5.1-1.1 0-1.6v.2c.1 1.2-.2 2-.8 2.4zm-34.3.3c-.2 0-.4.1-.6.1.4.2.7.5 1.1.6 1.4.5 2.8.2 4.4-.1 1-.2 2.1-.4 3.2-.7-2.2-.1-4.5-.6-6.4-1.1-.4.6-1 1.1-1.7 1.2zm30.7.2h-.9c-.6 0-1.2 0-1.8.1 1 .1 1.9.1 2.9.2.8 0 1.8 0 2.6-.3-.4.1-.8.1-1.3.1s-1 0-1.5-.1zm.8-9c-.1-.1-.2-.2-.4-.2-.1.1-.3.2-.5.1-.3-.1-.5-.2-.8-.2-.4 0-.8.1-1.2.3 0 .3-.1.5-.1.7v.1c0 .2 0 .3-.2.4-.1.1-.3.1-.5 0-.6-.4-1.9-.9-2.9-.9s-1.6.3-1.8 1.2c0 .2-.1.3-.3.3-.2 0-.3 0-.4-.1-.5-.5-.9-.7-1.2-.7-.7 0-1.6.8-2.4 1.9-.5.7-1 1.5-1.4 2.2.2.6.3 1.3.4 1.9.4.2.9.4 1.5.6 1.2.4 2.5.7 3.7.9h.4c.2-.7.3-1.5.3-2.4 0-1.2-.2-2.4-.8-3.3-.1-.2-.1-.4.1-.6.2-.1.4-.1.6.1.7 1.1.9 2.4.9 3.7 0 .8-.1 1.6-.3 2.3 1.8 0 3.6-.2 5.4-.2h.5c.1-.6.2-1.1.2-1.6 0-1.2-.4-2.3-1-3.7-.1-.2 0-.4.2-.5.2-.1.4 0 .5.2.6 1.4 1 2.6 1 4 0 .5-.1 1.1-.2 1.6h1.1c.8 0 1.4-.1 1.7-.4.3-.2.5-.7.5-1.8v-.4c0-.8-.2-1.5-.4-2.1-.1-.3-.2-.5-.3-.8-.2-.8-.9-1.8-1.9-2.6zm-9.6-32.6c-.2.2-.4.4-.6.5l.9-.3c.2-.1.4-.3.6-.6-.3.2-.6.3-.9.4zm-32-21.6l-.1-.1s0 .1.1.1c-.1 0 0 0 0 0zm37.7-22.6c.4 2 .2 4.1.4 6 .1 2 .7 3.7 1.5 5.6.4 1 .7 2.1 1.2 3 .1.1.2.3.3.5-.5-1.9-1-3.9-1.5-5.9-1.1-4.9-1.8-8.9-1.9-13.3-.3.2-.6.4-.9.5.2 1.1.6 2.3.9 3.6zM38 114.7z"/><path fill="#CE9B6C" d="M78.7 108.9c-.1-.4-.8-1.1-1.2-1.9-.5-1-.8-2.1-1.2-3.1-.8-1.9-1.4-3.7-1.6-5.9-.1-2 0-4-.3-5.9-.2-1.1-.6-2.3-1-3.4l-1.2.6v.3h-.6c-.8.3-1.6.7-2.4 1-.6 1-.8 2.3-.8 3.8 0 2.7.8 5.9 1.5 8.4.1.4.2.7.3 1.1.7 1.2 1.8 2.5 2.1 3.7.3 1.1.4 2.3.5 3.5.2.4.5.8.8 1.1.7.9 1.5 1.9 1.7 3.1 0 .2-.1.4-.3.5h-.1c-.2 0-.4-.1-.4-.3-.2-.9-.8-1.8-1.5-2.7.1.4.1.7.2 1.1 1.1 3.6 2.5 6.9 2 10.7-.4 3-.4 5.7-2 8.3v.4c0 1.2.4 2.4.4 3.7v.3c0 .2-.2.4-.4.4s-.4-.2-.4-.4v-.2c0-1-.3-2-.4-3-.1.1-.2.3-.4.4-.1.1-.2.3-.2.4v.3c-.1.3-.3.5-.5.7-.1.1-.1.1-.2.1-.4.5-.8.9-1.2 1.2-.7.4-1.5.5-2.4.5-1.9 0-4.1-.6-6-1v2c0 .2-.2.4-.4.4s-.4-.2-.4-.4v-2.1c-.3-.1-.7-.1-1-.1l-3.6-.3c-.1 1-.3 1.9-.5 2.9-.3 1.4 0 3.3-1 4.9-.1.2-.2.5-.3.7-.1.1-.2.2-.4.2-.1 0-.1 0-.2-.1-.2-.1-.3-.4-.1-.6.5-.9.6-2 .6-3.1v-1.8c0-.2.2-.4.4-.4.1 0 .2 0 .2.1v-.2c.2-1 .4-1.8.5-2.7h-.4v.1c0 1.3-.2 2.6-1.1 3.3-.1.1-.2.1-.2.1-.1 0-.3-.1-.3-.2-.1-.2-.1-.4.1-.6.5-.4.8-1.4.8-2.6v-.2c-.6 0-1.3-.1-2-.2 0 1.2-.2 2.4-.9 3.5-.1.1-.2.2-.3.2-.1 0-.2 0-.2-.1-.2-.1-.2-.4-.1-.6.6-.9.8-1.9.8-3v-.1c-.8-.1-1.6-.1-2.4-.2.2 1 .4 2 .6 2.7.1.2-.1.4-.3.5h-.1c-.2 0-.3-.1-.4-.3-.2-.8-.5-1.8-.7-3-.8-.1-1.7-.2-2.5-.3.2 1.2.8 2.5 1.3 3.8.1.2 0 .4-.2.5h-.2c-.2 0-.3-.1-.4-.3-.5-1.3-1.1-2.7-1.4-4.2-4.2-.5-8.4-1.3-12.2-2.5-.2.6-.4 1.6-.4 2.4 0 .3.1.6.1.6.2.1.2.4 0 .6-.1.1-.2.1-.3.1-.1 0-.2 0-.3-.1-.3-.4-.3-.7-.3-1.2 0-.8.2-1.9.4-2.6-.2-.1-.5-.2-.7-.2l-.2-.1v-.3c0-.1 0-.2.1-.3-.3-.1-.5-.2-.7-.3 1.4-2.4 3.5-4.5 5.1-7-.1 0-.2-.1-.2-.2-.1-.2-.1-.4-.1-.6 0-.8.6-1.5 1.3-2v-.1s-.1-.1-.1-.2h.1c0-1.2.2-2.4.4-3.6 0-1.3-.1-2.6-.1-3.8v-.1l-.1-.1c0-.1.1-.1.1-.1 0-1.5-.1-3-.1-4.5h-.2l.2-.6c0-.6 0-1.3.1-1.9-.3-1.5-.3-3 .3-4.5.3-.7.8-1.4 1.4-2h-.2l.1-.7c.1 0 .2 0 .3.1.1-.1.1-.3.2-.4.9-2 2.2-3.7 4-4.1l.1-.1c-4.4-.2-8.8-.8-13-1.8-1.8-.4-3.4-1.2-5-2.1-.1.8-.2 1.5-.2 2.1-.1.9-.2 1.7-.2 2.6.6 3.1 1.1 6.4.5 9.3v.1c-.1.9-.2 1.6-.6 2.5-.4.8-1.1 1.6-1.1 2.2 0 .1 0 .3-.2.4-.1.1-.2.1-.2.1-.3.2-.6.4-1 .5.2-.1.4-.1.6-.2.2 0 .4.1.5.3 0 .2-.1.4-.3.5-.9.2-2.4 1-3.5 1.6 0 .2-.1.4-.3.4h-.3c-.1 0-.1.1-.2.1s-.2 0-.3-.1c-.4.9-.6 1.9-.7 3 1.4-.7 2.9-1.3 4.3-2 .2-.1.4 0 .6.2.1.2 0 .4-.2.6-1.3.7-2.6 1.2-3.9 1.8 0 .2-.2.4-.4.4s-.3.1-.5.1v1.6c.9-.6 1.8-1.3 2.5-2.1.2-.2.4-.2.6 0 .2.2.2.4 0 .6-.6.6-1.3 1.2-1.9 1.7.9-.7 1.9-1.4 2.8-1.7.2-.1.4 0 .5.3.1.2-.1.4-.3.5-.8.2-1.8.9-2.7 1.6.1.2 0 .4-.2.5-.4.2-.7.4-1 .6-.1 0-.1.1-.2.1v.2c.3-.3.8-.6 1.2-.8.9-.6 2-1 2.5-1.2.2-.1.4 0 .5.2.1.2 0 .4-.2.5-.6.3-1.6.7-2.5 1.2-.7.4-1.3.9-1.4 1.2.1.7.2 1.5.4 2.2.1-.2.3-.4.4-.6-.1 0-.2-.1-.2-.2-.1-.1-.1-.2-.1-.3v-.1c0-.1 0-.1.1-.2.7-1 1.7-1.6 2.7-2.2.2-.1.4 0 .6.2.1.2 0 .4-.2.6-.8.4-1.5.9-2.1 1.5.5-.3 1-.6 1.5-.8.2-.1.4 0 .5.2.1.2 0 .4-.2.5-.7.2-1.5.7-2 1.3 0 0 .1.1.1.2.1.2-.1.4-.3.5h-.2c-.2 0-.3-.1-.5-.2l.3.6c.5-.3 1-.6 1.4-.9.2-.1.4-.1.6.1.1.2.1.4-.1.6-.1 0-.1.1-.2.1.1.1.1.2.1.3.1 0 .2.1.3.1.1.2.1.4-.1.6-.2.1-.4.3-.5.5.2-.1.5-.3.7-.4.2-.1.4 0 .5.2.1.2 0 .4-.2.5-.4.2-.7.4-1.1.7l.3.6c.2-.2.5-.5.8-.7.2-.1.4-.1.6.1.1.2.1.4-.1.6-.3.3-.6.6-1 .9.1.4.2.8.1 1.2-.5 3.1-2.4 5.9-3.6 9 .2.5.4 1 .4 1.7v.2c-.1 2.4-1.3 4.6-1.5 6.7.1 1.9.2 3.7.4 5.6.3.4.6.8.7 1.6v.7c0 .5-.1 1-.1 1.4v.2c.1 1.7.7 2.8 1.6 3.8.9 1 2.1 1.9 3.3 3.2 1.2 1.3 2.3 2.7 3.2 4.3.6 1 1 2.1 1.7 2.9.3.3.5.5.8.7.4.3.7.5 1.1.8.5.3 1 .5 1.6.7.1 0 .3.1.4.1.4-1.5 1.5-2.8 2.1-3.8.5-.8.6-1.9.6-3.1 0-1.3-.2-2.7-.2-3.9v-.5c0-.8.1-1.7.1-2.5 0-2.1-.2-4.2-.7-6.2-.9-3.4-2.6-6.5-3.8-9.9-1.7-4.9-3.8-10-6.2-14.6-.1-.2 0-.4.2-.6.2-.1.4 0 .6.2 2.5 4.6 4.5 9.8 6.3 14.7 1.2 3.3 2.9 6.4 3.8 10 .6 2.2.7 4.3.7 6.4 0 .8 0 1.7-.1 2.5v.5c0 1.1.2 2.5.2 3.9 0 .8-.1 1.6-.2 2.3.5-.3 1.1-.6 1.7-.6.4 0 .9.2 1.2.5.9-.7 2.2-1.1 3.4-1.1 1.3 0 2.7.5 3.3 1.7h1c1.5 0 2.5.4 3.3 1.2.6.6 1 1.3 1.4 2.3v-.1c0-.6 0-1.2-.1-1.6-.2-2.8-1.7-5.7-1.9-8.8-.2-2.5-.3-5.1-.3-7.6v-6.7c0-2.8-.6-5.6-.6-8.5 0-.2.2-.4.4-.4s.4.2.4.4c0 2.8.6 5.5.6 8.5v6.7c0 2.6.1 5.1.3 7.6.2 2.9 1.6 5.7 1.9 8.8 0 .5.1 1.1.1 1.7 0 .9-.1 1.8-.3 2.6 2 .5 4.4 1 6.6 1 .9 0 1.7-.1 2.5-.3.7-.2 3.4-1.4 5.2-1.4.2 0 .5 0 .7.1 0-.1-.1-.3-.1-.4h-.1c-.1 0-.2 0-.3-.1-.2-.1-.2-.4-.1-.6.1-.1.1-.2.2-.3-.3-1-.5-2-.7-3.1-.5-3.2-1.8-6.2-2.5-9.5-.4-1.9-1.3-3.8-1.6-5.7-.4-1.9-.5-3.7-.9-5.6-.6-2.3-1.2-4.5-1.8-6.8-.3-1.1-.8-2.8-.8-4.1 0-.3 0-.7.1-.9.1-.2.3-.3.5-.3.2.1.3.3.3.5-.1.2-.1.4-.1.7 0 1.1.4 2.9.7 3.9.7 2.3 1.3 4.5 1.9 6.8.5 1.9.6 3.8 1 5.6.3 1.8 1.2 3.7 1.6 5.7.7 3.2 2 6.2 2.5 9.5.1.7.3 1.5.5 2.2.3-.5.6-1 1-1.5.8-1.1 1.7-2.2 3-2.2.5 0 .9.2 1.4.5.4-.9 1.4-1.2 2.4-1.2s2 .3 2.8.7v-.4c0-.2.1-.3.2-.4.4-.2.9-.4 1.4-.5-.2-.1-.5-.3-.7-.5-.7-.6-.9-1.5-.8-2.3 0-.6.1-1.2.1-1.7 0-3.9.2-7.7.4-11.5.2-3.6.2-7.1.2-10.7v-10.5c0-2.3.9-5.4.9-8 0-1.2-.2-2.3-.7-3.1-.1-.2-.1-.4.1-.6.2-.1.4-.1.6.1.6 1 .8 2.2.8 3.5 0 2.8-.9 6-.9 8v10.5c0 3.6 0 7.2-.2 10.7-.2 3.8-.4 7.6-.4 11.4 0 .6-.1 1.2-.1 1.7 0 .7.1 1.2.6 1.6.6.6 1.9.8 2.8 1.5.6.5 1.2 1 1.6 1.6v-.2c-.6-.6-1.3-1.3-1.7-1.9-.1-.2 0-.4.2-.6.2-.1.4 0 .6.2.2.4.7.9 1.2 1.4.1-.3.2-.5.3-.8-.3-.3-.6-.5-.9-1-.1-.2-.1-.4.1-.6.2-.1.4-.1.6.1.2.2.4.5.6.7.2-.3.4-.6.6-1-.1-.3-.1-.6-.1-.9v-.3c0-.2.2-.4.5-.3.2 0 .4.2.3.5v.2c.3-.3.6-.7.9-1v-.1c0-.2.1-.4.3-.5h.3l.4-.4v-.7c0-.2.2-.4.4-.4s.4.1.4.3l.3-.3c-.2-.5-.5-.9-.6-1.6v-.3c.1-.2.3-.4.5-.4h.2c.2.1.3.3.3.5 0 .1-.1.2-.2.2.1.2.2.5.3.8l.3-.3c-.2-.1-.3-.2-.3-.4v-3.8c0-.1.1-.2.1-.3 0-.1-.1-.2-.1-.4-.1-.2.1-.4.3-.5.1-.6.2-1.1.2-1.7v-.2c0-.3-.1-.6-.1-.9-.3-.9-.8-2.5-.8-3.3 0-.1 0-.2.1-.3.1-.2.3-.3.5-.2.2.1.3.3.2.5 0 .3.2 1.1.4 1.9h.2c.2.1.3.3.2.5-.1.1-.1.3-.1.5v.2c0 .1.1.2.1.3v1c0 1-.3 1.8-.3 2.6v.3c0 .2-.1.3-.3.4v3.1c.5-.7 1-1.3 1.3-2 2-4 1.6-10-.6-13.8-1.8-3.1-5.5-5.5-7.5-8.5 0 0-.1 0-.1.1.6 1 1 1.8 1.6 2.9.4.9 1.9 1.7 2.2 3.2 0 .2-.1.4-.3.5h-.1c-.2 0-.4-.1-.4-.3-.1-1-1.5-1.7-2.1-3-.6-1.1-1-2-1.6-3-.1-.2-.1-.4.1-.5-.4-.5-.7-1.1-.7-1.8v-.1c0-.1 0-.1.1-.2-.3-.4-.4-.9-.4-1.4v-.2c0-.2.1-.3.3-.3-.2-.5-.5-.9-.8-1.3-.1-.2-.1-.4.1-.6.2-.1.4-.1.6.1.1.1.1.2.2.3 0-1.1.1-2.2.2-3.3-.4-.8-.7-1.7-.7-2.5v-.4c.1-.2.3-.4.5-.3.2.1.4.3.3.5v.2c0 .2 0 .4.1.7.1-.5.1-1 .2-1.5-.1-.2-.2-.5-.3-.7-.3-.9-.8-1.6-1.1-1.7-.2-.1-.3-.3-.2-.5.1-.2.3-.3.5-.2.2.1.4.3.5.4-.1-1-1-2.1-1.8-2.8-.2-.2-.2-.4 0-.6.2-.2.4-.2.6 0l.5.5c-.6-1-1.8-2.3-2.2-3.5-.1-.2.1-.4.3-.5.2-.1.4.1.5.3.3 1 1.6 2.4 2.3 3.6.1.2 0 .4-.2.6-.1 0-.1.1-.2.1h-.2c.5.7 1 1.5 1.2 2.3 0-.7.1-1.3 0-2-.2-3.6-.9-6.9-1.7-10.2 0 .4-.1.3-.1.1zm-56.6 3.8c-1.1.7-2.3 1.3-3.5 1.7h-.1c-.2 0-.3-.1-.4-.3-.1-.2 0-.4.2-.5 1.1-.4 2.4-1 3.4-1.6.2-.1.4-.1.6.1.1.2 0 .5-.2.6zm9.3 6.5c-.5.9-1.4 1.9-1.9 2.9-.1.1-.2.2-.4.2-.1 0-.1 0-.2-.1-.2-.1-.3-.4-.2-.6.6-1 1.4-2 1.9-2.9.1-.2.4-.3.6-.1.3.2.3.4.2.6zm2.9.8c-.5.9-1.3 1.7-1.7 2.5-.1.1-.2.2-.4.2-.1 0-.1 0-.2-.1-.2-.1-.3-.4-.1-.6.5-.9 1.2-1.7 1.7-2.5.1-.2.4-.3.6-.1.1.1.2.4.1.6zm1.1-12.7c.2 0 .4.1.4.4v.3c0 1.4-1 2.2-1 3.1v.2c0 .2-.1.4-.3.5h-.1c-.2 0-.4-.1-.4-.3v-.4c.1-1.4 1-2.2 1-3.1v-.2c0-.2.2-.4.4-.5zm-1.3-2c.2.1.3.3.2.5-.5 1.3-1.5 2.8-2.1 4-.1.1-.2.2-.4.2h-.2c-.2-.1-.3-.3-.2-.5.7-1.3 1.6-2.8 2.1-4 .1-.2.4-.3.6-.2zm-5.7 1.5c.5-.3.8-.9 1.1-1.6.3-.7.7-1.5 1.3-2.2.2-.2.4-.2.6 0 .2.2.2.4 0 .6-.4.5-.8 1.2-1.1 1.9-.4.7-.7 1.5-1.4 1.9-.1 0-.1.1-.2.1s-.3-.1-.3-.2c-.3-.1-.2-.4 0-.5zm-4.6 14.9c-.1.1-.2.2-.3.2-.1 0-.2 0-.2-.1-.2-.1-.2-.4-.1-.6.6-.8 1.6-1.5 2.4-2.2.9-.7 1.5-1.4 1.5-2.2v-.1c0-.2.2-.4.4-.4s.4.2.4.4v.2c0 1.2-.9 2.1-1.8 2.8-.9.7-1.9 1.4-2.3 2zm1.9.3c-.1.2-.2.3-.4.3h-.1c-.2-.1-.3-.3-.3-.5.1-.2.2-.3.3-.5l.5-.5c.4-.4.9-.8 1.4-1.3 1.1-.9 2.2-1.8 2.8-2 .2-.1.4 0 .5.2.1.2 0 .4-.2.5-.3.1-1.4.9-2.3 1.7-1 .9-2 1.8-2.2 2.1zm3.1 10.9c0 .2-.2.4-.4.4s-.4-.2-.4-.4c0-1.7 1.2-2.9 1.1-4.2v-.1c0-.2.2-.4.4-.4s.4.2.4.4v.2c0 1.6-1.1 2.9-1.1 4.1zm6.6 18c-.1.1-.2.2-.4.2-.1 0-.1 0-.2-.1-1-.6-1.5-1.8-1.5-2.9v-.1c0-.2.2-.4.4-.4s.4.2.4.4v.1c0 .8.5 1.8 1.1 2.2.3.1.3.4.2.6zm.1-16.9c-.3 1.1-.6 2-.6 3v.4c0 .2-.1.4-.4.4-.2 0-.4-.2-.4-.4v-.5c0-1.2.3-2.2.6-3.3.1-.2.3-.3.5-.3.2.3.3.5.3.7zm.9 4.9h-.2c-.2-.1-.3-.3-.2-.5.3-.8.6-1.5.7-2.2 0-.2.2-.4.5-.3.2 0 .4.2.3.5-.1.9-.5 1.7-.8 2.4 0 0-.1.1-.3.1zm2.5 10.4c-.1.1-.2.2-.4.2h-.2c-.7-.3-.9-1-.9-1.6 0-.2 0-.5.1-.7 0-.2.2-.4.5-.3.2 0 .4.2.3.5 0 .2-.1.4-.1.6 0 .5.1.7.4.9.3 0 .4.2.3.4zm.7-8.7h-.1c-.2 0-.3-.1-.4-.3-.2-.5-.2-1-.2-1.5v-.7c0-.2.2-.4.4-.4s.4.2.4.4v.7c0 .5 0 .9.2 1.2 0 .2-.1.5-.3.6zm1.4.2v-.6c0-.2.2-.4.4-.4s.4.2.4.4v.6c0 .2-.2.4-.4.4s-.4-.2-.4-.4zm1.1 8.7H42c-.2 0-.3-.1-.4-.3-.2-.5-.2-1-.2-1.5v-.7c0-.2.2-.4.4-.4s.4.2.4.4v.7c0 .5 0 .9.2 1.3 0 .2-.1.5-.3.5zm7 .8c-.2.2-.4.5-.6.6-.1.1-.2.1-.2.1h-.2c-.1-.1-.2-.2-.2-.3-.2-3.9-.3-8.5-.3-12.1 0-.2.2-.4.4-.4s.4.2.4.4c0 3.3.1 7.5.2 11.2h.3c.3 0 .3.3.2.5zm.7-.9c-.1.1-.2.1-.3.1-.1 0-.2 0-.3-.1-.1-.1-.1-.2-.1-.3v-.4c0-3.1.4-6.1.4-9.1 0-.2.2-.4.4-.4s.4.2.4.4c0 3.2-.4 6.4-.4 9.5 0 .1 0 .2-.1.3zm1.1-2.1c0 .2-.2.3-.4.3h-.1c-.2 0-.4-.2-.3-.5.4-2.6 1.1-4.9 1.1-7.4 0-.2.2-.4.4-.4s.4.2.4.4c.1 2.7-.7 5.1-1.1 7.6zm1.8-1.6c-.3 0-.4-.3-.4-.5.3-1.5.7-2.7.7-4.1 0-.3 0-.7-.1-1 0-.2.1-.4.3-.5.2 0 .4.1.5.3.1.4.1.8.1 1.1 0 1.5-.5 2.8-.7 4.2 0 .4-.2.5-.4.5zm35.7 3c0 .1 0 .1 0 0 .6.5 1.1 1 1.3 1.7.1.2 0 .4-.3.5h-.1c-.2 0-.3-.1-.4-.3-.1-.4-.6-.9-1.1-1.3-.5-.4-1.1-.7-1.3-.7-.2 0-.4-.3-.3-.5 0-.1 0-.1.1-.2-.2-.1-.5-.2-.7-.3-.2-.1-.3-.3-.3-.5.1-.2.3-.3.5-.3.9.2 1.7.8 2.4 1.2.3.3.3.5.2.7zm-6-5.7c.2-.1.4-.1.6.1.4.5 1.1.8 1.8 1.2.7.3 1.5.7 2 1.5 0 .1.1.1.1.2.2.2.5.3.7.5.2.1.2.4.1.6-.1.1-.2.2-.3.2-.1 0-.2 0-.2-.1-1.3-.8-2.6-1.7-3.8-2.5-.1-.1-.1-.2-.2-.3-.3-.2-.6-.4-.8-.7-.2-.3-.2-.6 0-.7zM79 115.3h-.2c-.1 0-.3-.1-.4-.2-.6-1.2-2.4-2.5-3-4.3-.1-.2.1-.4.3-.5.2-.1.4.1.5.3.4 1.4 2.1 2.6 2.9 4.1.2.2.1.5-.1.6zm-.3-3.8h-.1c-.2 0-.3-.1-.4-.3-.3-.9-1.7-2.8-2.3-4.2-.1-.2 0-.4.2-.5.2-.1.4 0 .5.2.6 1.3 1.9 3.1 2.3 4.2.1.3 0 .5-.2.6z"/><path fill="#CE9B6C" d="M21.1 165c-1-1.2-2.2-2.1-3.2-3.2-.6-.6-1.1-1.3-1.4-2.1-.1 1.6-.1 3.1.8 4.8 1.6 2.9 5 4.3 7.6 6.1-.2-.5-.5-.9-.7-1.4-.8-1.5-1.9-2.9-3.1-4.2zm27.7 9.7c-.7-1.4-1.2-2.5-1.8-3.1-.6-.6-1.3-.9-2.7-.9-.4 0-.8 0-1.2.1-.2 0-.4-.1-.4-.3-.3-1-1.3-1.4-2.6-1.4s-2.6.5-3.2 1.2c-.1.1-.2.2-.4.2-.1 0-.3-.1-.3-.2-.2-.5-.5-.5-.8-.5-.7 0-1.7.8-2.3 1.3H33c-.6.9-1.4 2.1-1.8 3.2h.6c0 .6 0 1 .2 1.4-.1-.3-.2-.7-.1-1.1 0-.8.3-1.7.8-2.4.1-.2.4-.2.6-.1.2.1.2.4.1.6-.4.6-.6 1.2-.6 1.9 0 1.3.8 2.5 2.3 2.8h.3c.6 0 1.2 0 1.7-.1-1.4-.6-2.3-2-2.3-3.5 0-1 .4-2 1.4-2.8.2-.1.4-.1.6.1.1.2.1.4-.1.6-.8.6-1.1 1.4-1.1 2.2 0 1.5 1.3 3 3 3 .2 0 .3.1.4.3.6-.1 1.2-.1 1.9-.1 1.3 0 2.6.1 3.8.1.9 0 1.8 0 2.7-.2.6-.1 1-.5 1.3-1.2.1-.2.2-.5.2-.8 0-.2 0-.2-.1-.3zm31.5-52.6c.1.2.2.3.2.5 0-.2 0-.5.1-.7 0 .1-.1.2-.3.2zM19.8 73.4c.1 0 .2-.1.2-.1 0-.1.1-.2.1-.2 0-.2.1-.3.2-.4.6-1.3 1.3-2.6 2.1-3.7h-.1c-.5-.3-.7-.7-.8-1.3v-.4l.1-.1c.6-.4 1.4-.9 1.9-1.4-.1 0-.1 0-.2-.1l-.1-.1c-.4.2-.7.5-.9.6-.1.1-.2.1-.3.1-.1 0-.1 0-.2-.1-.2.5-.5 1-.6 1.5-.6 1.8-1.2 3.8-1.6 5.8.1 0 .1-.1.2-.1zm5.3-10.5c-.1 0-.1 0 0 0-.1 0-.1 0 0 0-.4 0-.8-.1-1.2-.2h-.1l-.1-.1v-.2c-.2.9-.7 1.8-1.2 2.8.4-.3.8-.5 1.3-.7.3-.6.8-1.1 1.3-1.6zm12.2 46.2v1.4c.1-.3.1-.5.2-.7-.1-.3-.1-.5-.2-.7zM19.6 73.8z"/><path fill="#CE9B6C" d="M23.8 62c.3-.3.7-.5 1.2-.5h.1c.2 0 .4.2.3.5v.1c.2 0 .4-.1.6-.2h.2c1-.8 2.1-1.5 3.1-2.1 2.1-1.1 4.8-3.3 7.5-3.3.2 0 .4.2.4.4s-.2.4-.4.4c-2.3 0-4.9 2-7.1 3.2-1.7.9-3.4 2.1-4.7 3.6.1 0 .2 0 .3.1.2.1.3.3.2.5-.1.3-.3.4-.5.3h-.1c-.1 0-.4.1-.6.2l-.2.2c.1 0 .2 0 .3.1.2.1.2.4.1.6-.6.7-1.5 1.2-2.1 1.6 0 .1.1.2.2.3.4-.3.8-.5 1.2-.7l.9-.9.5.5c-.1 0-.2.1-.2.1l.1.1h.1c.2.1.3.2.5.4 3.1 2 6.7 3 10.6 3.6v-.2c0-.4 0-.8.2-1.2.1-.2.3-.3.5-.3.2.1.3.3.3.5-.1.2-.1.6-.1.9v.3c2.6.4 5.4.6 8.1.8.2 0 .5 0 .7.1 0-.2.1-.4 0-.6V71c0-.2.1-.4.4-.5.2 0 .4.1.5.4v.5c0 .2 0 .4-.1.7 1.5.1 3.1.2 4.7.3-.1-.8-.2-1.5-.5-2.2-.1-.2 0-.4.2-.5.2-.1.4 0 .5.2.3.9.5 1.7.5 2.6.4 0 .7 0 1.1.1-.1-.7-.2-1.4-.3-2 0-.2.1-.4.3-.5.2 0 .4.1.5.3.1.7.2 1.4.3 2.2.8 0 1.5.1 2.3.1-.1-.5-.1-.9-.2-1.4 0-.2.2-.4.4-.4s.4.2.4.4c0 .5.1 1 .2 1.5 1.5 0 2.9.1 4.4.1h.1c2.3 0 4.4-.3 6.5-.6-.7-2.3-.4-4.5-2-6.4-1-1.3-3.7-3.7-5.4-3.7-.3 0-.5 0-.7.2-.2.1-.4 0-.5-.1.2.4 0 .9-.9 1.8-.4.4-1 .8-1.6 1.1h.5c1.1 0 2.2.2 3.3.9.2.1.3.4.1.6-.1.2-.4.3-.6.1-1-.6-1.9-.8-2.9-.8-2.1 0-4.3 1.1-6.5 1.9-.5.2-1 .3-1.5.5-.7.2-1.5.3-2.2.3-.4 0-.7 0-1.1-.1-1.2-.2-2.1-.7-2.8-1.2-1.8-.8-3.5-1.9-5-3-.9-.7-1.6-1.1-2-1.9-.9-.4-1.9-.6-2.6-.6-.4 0-.7.1-.9.2-.2.1-.4 0-.5-.2-.1-.2 0-.4.2-.5.4-.2.8-.3 1.2-.3.7 0 1.5.2 2.2.4v-.2c-.1-.8-.1-1.3.1-1.6 0 0 0-.1-.1-.1 0-.3 0-.6.2-.7.2-.1.4-.1.6.1.4-.2 1-.2 1.8-.3 1.5-.2 6.5-1.5 6.7-3.6-.2-.1-.3-.3-.3-.5-.2-.1-.4-.2-.6-.5-.5-.6-.6-1.2-.6-1.9 0-.5.1-1.1.2-1.6l-.3.3c-2 1.9-3.8 2.7-6.1 2.7h-.3l.6.3c.2.1.2.4.1.6-.1.2-.4.2-.6.1-.6-.4-1.9-.6-3.3-.6-1.7 0-3.6.2-4.8.3-1.3.1-2.7.1-4.2.1h.1c.2.1.3.3.2.5-.1.2-.3.3-.5.2-.2-.1-.5-.2-.9-.2-.3 0-.6.1-.9.2.2.3.6.4 1 .5.1 0 .3 0 .5-.1.2 0 .4.1.5.3 0 .2-.1.4-.3.5-.2 0-.4.1-.6.1-.8 0-1.5-.4-1.9-1.3v-.5l.1-.1c.1 0 .1-.1.2-.1-.5 0-1.1.1-1.6.1.3.8.8 1.6 1.3 2.4 2.1-.5 4.3-.9 6.2-1.1 3-.3 6-1 9.1-1h.7c.2 0 .4.2.4.4s-.2.4-.4.4h-.7c-3 0-6 .6-9 1-1.3.1-2.8.4-4.3.7.2.1.5.3.6.6.1.2.1.4-.1.6-.1 0-.1.1-.2.1s-.3-.1-.4-.2c-.2-.3-.4-.4-.8-.4-.1 0-.3 0-.4.1.2.2.3.5.4.7h.2c.3 0 .5.3.6.4.1.1.1.2.2.2.2.1.2.4.1.6h.3c.3 0 .6 0 .9.1.2.1.3.3.2.5-.1.2-.3.3-.5.2-.2-.1-.4-.1-.6-.1-.2 0-.5 0-.8.1-.2.5-.2.9-.2 1.2-.1 0-.1 0 0 0-.1 0-.1 0 0 0zm13.3-3.7c-1.6.4-3.8 1.8-5.1 3-1.5 1.2-4.3 3.3-4.7 4.9 0 .2-.2.3-.4.3h-.1c-.2-.1-.4-.3-.3-.5.6-2.1 3.5-4.1 5-5.4 1.4-1.2 3.6-2.7 5.5-3.1.2-.1.4.1.5.3-.1.2-.2.5-.4.5zm5.8-2c-.1.2-.3.3-.5.3h-.1c-.1.1-.2.2-.4.2h-.1c-.2-.1-.3-.3-.2-.5.1-.3.5-.5.7-.5.1 0 .2 0 .4.1.2 0 .3.2.2.4zm-1.9-2h1c.2 0 .4.2.4.4s-.2.4-.4.4h-1c-.2 0-.4-.2-.4-.4 0-.3.2-.4.4-.4zm-.6 2.6h.8c.2 0 .4.2.4.4s-.2.4-.4.4h-.8c-.2 0-.4-.2-.4-.4s.2-.4.4-.4zm-2.8-.7h1.1c.2 0 .4.2.4.4s-.2.4-.4.4h-1.1c-.2 0-.4-.2-.4-.4s.1-.4.4-.4z"/><path fill="#CE9B6C" d="M24.3 53.5c-.4 0-.8.1-1.1.2H23c-.2 0-.3-.1-.4-.2-.1-.2 0-.4.2-.5.4-.2.9-.2 1.4-.3.5 0 1 .1 1.4.3.2.1.3.3.2.5 0 0 0 .1-.1.1 1.2 0 2.3-.1 3.4-.1 1 0 2.8-.2 4.4-.3-2.7-.4-5-1-6.9-3.3-1.4-1.6-1.6-3.6-1.8-5.5-.4.5-.8 1-1.2 1.6.1-.1.2-.1.3-.2.2-.1.4-.1.6.1.1.2.1.4-.1.6-.6.5-1.4.8-1.6 1.3-.1.1-.2.2-.3.2-.1 0-.2 0-.2-.1-.2-.1-.2-.4-.1-.6.2-.3.5-.5.8-.7 0 0-.1 0-.1-.1-.2-.1-.2-.4-.1-.6.7-.8 1.3-1.7 2-2.6-.1-.5-.2-.9-.3-1.4h-.2c-2.2 1.5-4 2.8-4.3 6.3-.2 2.3 0 4.1.5 5.8 1.5-.2 3.1-.3 4.6-.3-.1-.1-.5-.2-.8-.2zm2-2.3c0 .2-.2.4-.4.4h-.8c-.6 0-1.2.1-1.7.3-.1 0-.1.1-.2.1s-.3-.1-.4-.2c-.1-.2 0-.4.2-.6.7-.4 1.4-.5 2.1-.5h.8c.3.1.4.3.4.5zM22.1 49v-.4c.5-.5 1.2-.9 1.8-1.2.2-.1.4-.1.6.1.1.2.1.4-.1.6-.5.3-1.1.6-1.5.9 0 .1.1.1.1.1.6-.3 1.2-.6 1.9-.7.2 0 .4.1.5.3 0 .2-.1.4-.3.5-.6.1-1.2.3-1.7.6-.1 0-.1.1-.2.1h-.1c-.6.1-1-.4-1-.9zm7.2-21.7h-.1v.1c.1 0 .1 0 .1-.1zM16.4 141.1v-.4c-.2.8-.4 1.6-.5 2.5 0 .4-.1.8-.1 1.1.3-1.1.6-2.1.7-3.1-.1 0-.1 0-.1-.1zm6.8-51.4c.1.2.1.4.1.6.1.7.3 1.5.5 2.3.1-.7.2-1.5.3-2.4-.3-.1-.6-.3-.9-.5zm.5-29.6zm12.6 61.3zm-.1 1.1c-.3.3-.4.6-.4.8.1-.2.2-.3.3-.5 0-.1 0-.2.1-.3zm-13.9-13.4c.1-.3.2-.6.4-.9-.9.6-1.8 1.2-2.6 1.9.8-.3 1.6-.5 2.2-1zm-3.5 17.3c0 .1.1.1.1.2.1-.1.2-.3.4-.4-.2 0-.4.1-.5.2zm-1.3-7h-.2v.4l.6-.6c-.1.1-.3.2-.4.2zm1.6-8.1h-.2c-.2.2-.3.5-.4.7.8-.5 1.8-1.1 2.7-1.5-.9.4-1.6.5-2.1.8zm49-13.1c-.2-1.3-.4-2.6-.4-3.8 0-1.3.2-2.4.6-3.5-.1 0-.2.1-.3.1-.2.4-.4.9-.4 1.4 0 1.9.1 3.9.5 5.8zm-27.3-.8c.2-.6.6-1 1-1.5-.7.5-1.4 1.4-2 2.5.3-.3.6-.7 1-1zm-5-4.1c0-.1 0-.2.1-.3-1.4-.1-2.8-.3-4.1-.4 1.3.2 2.7.5 4 .7zM46.6 42c0 .3.1.7.1 1.1.4.1.8.1 1.1.1 1.5 0 2.9-.7 4.5-1.3-1.9.1-3.8.1-5.7.1zm26.5 20.3c-.2 0-.3-.1-.4-.3-4.6-2.1-10-3.4-14.5-3.4-.2 0-.4-.2-.4-.4s.2-.4.4-.4c3.5 0 7.5.7 11.2 2-.2-1.2-1-2.3-1.3-3.8-.1-.3-.1-.7-.2-1-.9.8-2 1.3-3.6 1.3-.7 0-1.2.1-1.8.1-2.7 0-4.3-.4-7.1-1.3-1.4-.4-2.5-1.4-3.4-2.5 0 .7-.1 1.4-.2 2 0 .2-.2.3-.4.3-1.4.1-1.7 0-2.6.6.9 1.3 1.3 2.6 2.6 3.8 1.6 1.5 3.4 2 5.5 2.1.4 0 .8 0 1.1.1.3-.1.5-.1.7-.1.1 0 .2 0 .3.1.2.1.2.2.2.4.1 0 .1.1.2.2-.1-.2 0-.4.2-.5.3-.2.7-.2 1.1-.2-.4-.1-.7-.1-1.1-.1-.2 0-.4-.2-.4-.4s.2-.4.4-.4c2.2 0 5 1.5 7.4 3.3 2.4 1.8 4.5 4 5.4 5.7.1.2 0 .4-.2.5H72c-.2 0-.3-.1-.4-.2-.7-1.4-2.8-3.6-5.1-5.4-.8-.6-1.6-1.1-2.4-1.6 1.1.8 2.1 1.9 2.7 2.6 1.8 2.3 1.4 4.7 2.1 6.8.9-.2 1.9-.3 2.9-.5.6-.1 1-.2 1.4-.2h.4c.1-.1.2-.2.4-.2.4.1.7.2 1 .4 0-.4-.1-.8-.1-1.3-.4-.3-.7-.6-1.1-.9-.1-.1-.2-.2-.2-.3 0-.6.3-1.2.8-1.5h.2v-.1c-.7-.4-1.3-.7-1.6-.8-.2-.1-.3-.3-.3-.5.1-.2.3-.3.5-.3.4.1.9.4 1.4.6v-.3c-.3-.2-.6-.4-.9-.5h-.1c-.1 0-.2 0-.2-.1-.2-.1-.3-.2-.5-.3-.1 0-.1-.1-.2-.1-4-2.7-9.1-5-13.9-5h-.3c-.2 0-.4-.2-.4-.4s.2-.4.4-.4h.4c5.1 0 10.3 2.4 14.4 5.2.5.2.9.4 1.3.7v-.1c-1-.9-2.2-1.9-2.8-2.4-.2-.1-.2-.4 0-.6.1-.2.4-.2.6 0 .5.4 1.4 1.2 2.3 2v-1.1c-.5-.3-1.1-.5-1.6-.8.1-.1 0-.1 0-.1zm-21-4.2H51c-.2 0-.4-.2-.4-.4s.2-.4.4-.4h1.1c.2 0 .4.2.4.4s-.2.4-.4.4zm0-1.8c0-.2.1-.4.3-.5h.4c.4 0 .7.1 1 .3.2.1.2.4 0 .6-.1.1-.2.1-.3.1-.1 0-.2 0-.3-.1-.1-.1-.3-.1-.5-.1h-.3c-.1 0-.3-.1-.3-.3zm2.6 3.6c-.1.1-.2.1-.3.1-.1 0-.2 0-.3-.1-.1-.1-.3-.1-.5-.1h-.3c-.2 0-.4-.1-.5-.3 0-.2.1-.4.3-.5h.5c.4 0 .7.1 1 .3.2.2.2.4.1.6zm.4-1.7c-.1.1-.2.1-.3.1-.1 0-.2 0-.3-.1-.1-.1-.3-.1-.5-.1h-.3c-.2 0-.4-.1-.5-.3 0-.2.1-.4.3-.5h.5c.4 0 .7.1 1 .3.2.1.2.4.1.6zm1.6 1.9c-.1.2-.3.3-.5.3h-.1c-.1.1-.2.2-.4.2h-.1c-.2-.1-.3-.3-.2-.5.1-.3.5-.5.7-.5.1 0 .2 0 .4.1.1 0 .2.2.2.4zm13.4-24.3c.2.5.4.9.6 1v.2c.1-.2.2-.3.3-.5l-.7-.7s-.1-.1-.2 0c0-.1 0 0 0 0zm4.6 26.3c-.3-1.6-1.1-2.8-1.9-4.2.3 1.1.6 2.3.6 3.6.5.2.9.4 1.3.6zM51.5 73.2l-3.9-.3c0 .1 0 .1.1.2 1.3.2 2.6.4 3.9.5-.1-.1-.1-.3-.1-.4zM40.1 93.4c-1 0-1.9 0-2.9-.1.1-.1.1-.2.2-.2-.3 0-.6-.1-.8-.1 0 .1 0 .2-.1.4 2.1.3 4.3.5 6.5.6v-.1c-.9-.2-1.9-.4-2.9-.5z"/><path fill="#CE9B6C" d="M43 49.5c-.2.1-.5.2-.7.4h-.2c-.1 0-.3-.1-.4-.2-.1-.2 0-.4.2-.6.5-.3.9-.5 1.3-.7v-.1c-1.8 1-4.2.9-5.9-.3-.8-.6-2.7-3.2-2.6-4.8-2.9 1.3-4.2 3.4-6.5 6 .7.9 1.6 1.6 3.1 2 1.8.6 3.7 1 5.5 1 1.8 0 3.6-.5 5.1-1.7.4-.3.8-.6 1.1-1zm26.7-.9v-1.7c-.1-.7-.2-1.5-.2-2.3-.2-.2-.4-.4-.6-.5-.1-.1-.3-.2-.4-.2-.2 0-.4.1-.6.2-.9.3-1.6.7-1.8 1-.1.1-.2.2-.3.2-.1 0-.2 0-.2-.1-.2-.1-.2-.4-.1-.6.4-.5 1-.9 1.8-1.1-.7-.2-1.5-.3-2.3-.4-.1.1-.2.3-.3.4-.1.1-.2.2-.4.2h-.2c-.2-.1-.3-.3-.2-.5 0 0 0-.1.1-.1-.8-.1-1.6-.1-2.3-.2-.7-.1-1.3-.2-2-.2h-.2c-.1.1-.1.2-.2.3-.1.2-.2.2-.4.2h-.2c-.2-.1-.3-.2-.2-.4-1.3.2-2.5.6-3.8 1.3-1.6.9-2.5 2.9-2.5 4.9v.3c.2.2.3.4.5.7v-.6c0-.6.1-1.1.4-1.6 1-4.2 8-6.3 10.4-2.2.3.6.4 1.2.3 1.8 2 .9 3.3 2.9 4.1 4.8 0 .1 0 .1.1.2.1-.1.2-.3.3-.4.4-1.3 1-2.4 1.4-3.4zM72 88.3c0 .1 0 .3.1.4.1-.1.3-.1.4-.2l-.3-.3s-.1 0-.2.1zm-.5.7c0-.1 0-.3-.1-.4-.9.4-1.8.9-2.5 1.5.9-.4 1.7-.7 2.6-1.1zm3.4-19.7c0-.2 0-.5-.1-.7-.1.1-.2.3-.2.5.1 0 .2.1.3.2zm-30-27c.3.2.7.4 1 .5 0-.3 0-.6-.1-.9-.6 0-1.1-.1-1.7-.1.3.2.5.4.8.5zm8.5 31.4v-.4c-.4 0-.7 0-1.1-.1v.4h.2c.3.1.6.1.9.1zm-5.1-26.3c-1.2 0-1.8.3-2.4.9-.4.4-.7.8-1.2 1.4.1.1.2.2.2.4-.2.8-.3 1.5-.3 2.1v.3c1.6 0 5.6.1 6.7 1.3.1-.6.1-1.1.1-1.7v-.7c-.7-1.3-1.2-2.6-1.4-3.8-.8-.1-1.3-.2-1.7-.2zm-4.2.4s0 .1 0 0c0 .1 0 .1 0 0 .1 0 .1-.1.2-.2-.1.1-.2.1-.2.2zm10.6 25.6l1.8.1c-.6-.1-1.2-.1-1.8-.1z"/><path fill="#CE9B6C" d="M27.8 48.5c2.5-2.9 4.1-5.3 8.1-6.6h-.3c.8-.5 1.9-.8 3-.9-1.5-.3-3-.7-4.5-1.2-.1 0-.1 0-.2-.1h-.1c.1.1.1.3.1.5s-.2.4-.4.4-.4-.2-.4-.4v-.1c0-.1-.1-.3-.3-.5h-.3c-1.6 0-3.1.3-4.1.9-1 .6-1.6 1.5-1.6 2.7v.4l-.3-.2c.3 2 .5 3.7 1.3 5.1zm39.3 4.2c-.1-.2-.1-.3-.2-.5-.8-1.8-2-3.6-3.7-4.4-1.5 2.6-7.4 4.4-9.9 2.6l.1.1c.2.2.2.4 0 .6-.1.1-.2.1-.3.1-.1 0-.2 0-.3-.1l-.6-.6c1.1 3.1 6 4 9.6 4 .9 0 1.6 0 2.3-.1 1 0 2.1-.7 3-1.7zM47 73l.3-.1h-.4v.1h.1zm-9.2 38.6c-.1.5-.2.9-.2 1.3 0 .2 0 .4.1.6.1 0 .2.1.3.1 0-.6-.1-1.2-.1-1.8 0 0 0-.1-.1-.2zM70 51.7c-.4 1-.8 1.9-1.5 2.7.1.5.3 1 .4 1.6.2 1.3 1 2.3 1.3 3.8 0 .2 0 .3-.1.4.9.3 1.7.6 2.5 1-.2-3.1-1.6-5.5-2.4-8.7-.1-.3-.1-.5-.2-.8z"/><path fill="#F5E1D5" d="M35.8 41.9c.2-.1.4-.1.6-.2.1 0 .2 0 .3.1.9-.2 1.9-.5 3-.5l-.5-.1v-.1c-.2 0-.5-.1-.7-.1-1.2.1-2.3.4-3 .9h.3zm5.6.7c.2 0 .4.2.4.4.2 0 .4 0 .6.1-.1-.1-.1-.2-.2-.3-.3-.4-.7-.6-1.2-.7l.4.3v.2zm-4 5.4c1.7 1.2 4.1 1.3 5.9.3v-.6c-.4.2-.9.4-1.4.5-.7.5-1.6.7-2.6.4-2.8-.8-3.3-4.5-1.7-6.2-.4.1-.7.2-1.1.3h-.3l-1.5.6c0 1.5 1.9 4.1 2.7 4.7zm6.8-2.7c0 .3-.1.5-.1.8 0 .6.1 1.2.1 1.7.1 0 .1-.1.2-.1.2-.4.2-.9.2-1.3 0-.5-.1-1-.3-1.5-.1.1-.1.3-.1.4zm10 1.8c.1 0 .1.1.2.1 0-.2.1-.4.2-.5-.2.1-.3.2-.4.4zm9 .7c-.4-.2-.9-.3-1.4-.4-.4.8-1.2 1.6-1.8 2-.5.7-1.3 1.3-2.3 1.4h-.3c-1.8 0-3.3-1.4-3.7-3-.2.4-.3.8-.3 1.2v.5c0 .2-.1.4-.3.5H53l.3.3c2.6 1.9 8.4.1 9.9-2.5z"/><path fill="#F5E1D5" d="M63.3 45.3c-2.4-4.1-9.4-2-10.4 2.2.3-.7.9-1.3 1.6-1.8.9-.6 1.9-1 2.9-1.1 1.3-.4 4.1-.3 4.6.9.2.4.2.8.1 1.2.5.1 1 .2 1.5.4.1-.6 0-1.2-.3-1.8z"/><path fill="#924B3C" d="M45.2 54.9c-.1-.1-.1-.2-.2-.2.1.2.2.4.2.5v-.3zm-.2-1.3c.1.2.5.3.9.8l.3.6 2.1.2.1-.1c1-.8 1.7-.8 2.8-.8 0-.1 0-.3.1-.4-1.1-1.1-5.1-1.3-6.7-1.3 0 .4.1.7.4 1z"/><path fill="#F5E1D5" d="M51.5 59.4c-1.3-1.1-1.7-2.5-2.6-3.8 0 0-.1 0-.1.1-.2.2-.4.4-.7.6-.2.2-.5.4-.8.4-.1.4-.1.9-.1 1.5v.3c0 .5 0 1.1-.1 1.6.4.1.9.2 1.3.5.9.6 1.6 1.3 2.3 1.8.7.5 1.4.8 2.5.8h.2c.5 0 1.7-.4 2.8-.9.8-.3 1.4-.6 2-.7-.3 0-.7-.1-1.1-.1-2.2-.1-4-.6-5.6-2.1zm1 2h-1c-.2 0-.4-.2-.4-.4s.2-.4.4-.4h1c.2 0 .4.2.4.4s-.2.4-.4.4zm-16.1 1c.4.8 1.2 1.2 2 1.9 1.5 1.1 3.2 2.2 5 3-1.2-.8-2-1.9-3.3-2.8-.8-.7-2.2-1.6-3.7-2.1zm14.7 5.3c-.5.2-1 .3-1.5.5.5-.1 1-.3 1.5-.5z"/><path fill="#F5E1D5" d="M36 61.2v.2c1.8.6 3.5 1.7 4.5 2.4 2.3 1.7 3.2 3.5 5.8 3.9.3.1.6.1.9.1 3.1 0 6.3-2.3 9.7-2.6.6-.3 1.2-.7 1.6-1.1.9-.9 1.1-1.5.9-1.8l-.2-.2v.1c-.1.2-.3.3-.5.2-.2 0-1.3.4-2.3.8-1.1.4-2.2.9-3 .9h-.2c-1.3 0-2.2-.4-2.9-1-.8-.5-1.4-1.2-2.3-1.7-.5-.3-.9-.4-1.4-.4-1.3 0-2.7 1-4.4 1.2h-.7c-2.2 0-4.2-1-5.3-2.6-.2.3-.3.8-.2 1.6zm10.2-5.8c.1.3.1.4.4.5h.1c.1-.2.3-.3.5-.2.1 0 .1.1.2.1s.1-.1.2-.1c.2-.1.3-.4.6-.6l-2.1-.1c.1.1.1.3.1.4z"/><path fill="#F5E1D5" d="M45.2 55.1c-.2 2.1-5.1 3.3-6.7 3.6-.7.1-1.3.2-1.8.3.9 1.4 2.7 2.3 4.7 2.3h.6c1.4-.1 2.7-1.1 4.2-1.2.1-.4.1-.9.1-1.5v-.3c0-.5 0-1.1.1-1.6-.1 0-.1-.1-.2-.1-.5-.2-.7-.7-.8-1-.1-.3-.1-.6-.3-.8.1.2.1.2.1.3zm-2 3.7c-.2.2-.5.3-.8.3h-.3c-.2-.1-.4-.3-.3-.5.1-.2.3-.4.5-.3h.1c.1 0 .2 0 .3-.1.2-.2.4-.1.6 0 .1.2.1.4-.1.6z"/><path fill="#907149" d="M38.2 45c0 .7.2 1.2.9 1.7.6.5 1.2.7 1.8.7-.3-.1-.6-.3-.9-.6-.4-.4-.5-1-.5-1.5 0-.6.2-1.3.5-1.8s.7-1 1.4-1h.1v-.2l-.5-.1c-.3-.1-.6-.1-1-.1s-.9.1-1.4.1c.1.1.1.2.1.4-.2.8-.5 1.7-.5 2.4z"/><path fill="#907149" d="M39.3 48.6c1.1.3 1.9.1 2.6-.4-.3.1-.6.1-.9.1-.8 0-1.7-.3-2.4-.9-.9-.7-1.2-1.5-1.2-2.4 0-.9.3-1.8.5-2.7-.1 0-.2.1-.4.1-1.6 1.7-1 5.3 1.8 6.2z"/><path fill="#907149" d="M41.4 46.8c-.2-.1-.5-.2-.7-.3.2.1.4.2.7.3zm1.4-1s-.1 0-.1.1c0 0 0-.1.1-.1zm-2.1-1.4l.1.1v.1c.1.5.4.7.9.7.4 0 1-.2 1.3-.6 0-.1-.1-.2-.1-.4-.3-.2-.8-.4-1.2-.4-.5 0-.8.2-1 .5zM62 45.5c-.5-1.2-3.3-1.3-4.6-.9.3 0 .6-.1.8-.1.9 0 1.7.2 2.3.6.5.3.9.8 1 1.5h.5c.2-.3.2-.7 0-1.1zm-5.8 2.2v.2h.1c.1.1.3.1.5.1h.3c.2-.1.4-.3.5-.5 0-.1.1-.3.1-.4 0-.2.2-.4.5-.3-.1-.4-.4-.6-1-.6H57c-.1.1-.2.2-.4.2h-.2c-.1 0-.1.1-.1.1-.1.1-.2.3-.2.4.2.1.3.3.3.5-.2 0-.2.2-.2.3zm-1.8-.3c0 .3.2.7.3 1v-.5c0-.5 0-1.1.3-1.5-.1.1-.3.2-.4.3-.1.2-.2.3-.2.5v.2zm1.1 1.3s0 .1 0 0c0 .1.1.1.1.1s0-.1-.1-.1zm6.3-1.2h-.2c-.1.1-.2.2-.3.2-.1 0-.2 0-.3-.1-.3.6-.6 1.3-1 1.8v.1c.6-.5 1.4-1.2 1.8-2z"/><path fill="#907149" d="M60.7 46.5c-.1-.3-.3-.5-.6-.6-.5-.3-1.1-.5-1.9-.5h-.5c.3.1.5.2.7.4.3.3.5.8.5 1.3 0 1.2-1 2.6-2.7 2.6H56c.4.2.8.3 1.3.3h.2c.8-.1 1.3-.5 1.8-1.2.5-.6.8-1.5 1.2-2.2 0 0 .1-.1.2-.1z"/><path fill="#511B2A" d="M29.4 27.3s-.1 0 0 0c-.1 0-.1 0 0 0-.1 0 0 0 0 0zM23.1 50c.1 0 .2 0 .2-.1.5-.3 1.1-.5 1.7-.6.2 0 .4-.2.3-.5 0-.2-.2-.4-.5-.3-.6.1-1.3.3-1.9.7 0 0-.1 0-.1-.1.4-.3.9-.6 1.5-.9.2-.1.3-.4.1-.6-.1-.2-.4-.3-.6-.1-.6.3-1.2.7-1.8 1.2v.4c.1.4.5.9 1.1.9zm-.1 1.3c-.2.1-.3.4-.2.6.1.1.2.2.4.2.1 0 .1 0 .2-.1.5-.3 1.1-.3 1.7-.3h.8c.2 0 .4-.2.4-.4s-.2-.4-.4-.4h-.8c-.6-.1-1.4 0-2.1.4zm2.2 9.7c.2.1.4 0 .5-.2.1-.2 0-.4-.2-.5-.3-.1-.6-.1-.9-.1h-.3c.1-.2.1-.4-.1-.6l-.2-.2c-.1-.1-.2-.4-.6-.4h-.3c-.2-.2-.4-.4-.5-.7.1 0 .2-.1.2-.1.1 0 .3-.1.4-.1.3 0 .6.1.8.4.1.1.2.2.4.2.1 0 .1 0 .2-.1.2-.1.3-.4.1-.6-.2-.3-.4-.5-.6-.6 1.5-.3 3-.6 4.3-.7 3-.3 6.1-1 9-1h.7c.2 0 .4-.2.4-.4s-.2-.4-.4-.4h-.7c-3.1 0-6.2.6-9.1 1-1.9.2-4 .6-6.2 1.1-2.6.7-5.1 1.5-7.1 2.5-.2.1-.3.3-.2.5.1.1.2.2.4.2h.2c1.7-.9 3.9-1.7 6.3-2.3v.1c.2.7.6 1.2 1.2 1.5.1.1.3.1.4 0h.1c.1.1.2.3.3.4h-.3c-.2 0-.4.2-.3.5 0 .2.2.3.4.3h.4c.3 0 .6-.1.8-.1.1.3.3.3.5.4zM72 62.2c-.1.2-.1.4 0 .6.6.5 1.8 1.6 2.8 2.4.1.1.2.2.4.3-.1-.1-.2-.2-.4-.2-.4-.3-.8-.5-1.3-.7-4.1-2.8-9.3-5.2-14.4-5.2h-.4c-.2 0-.4.2-.4.4s.2.4.4.4h.3c4.8 0 9.9 2.3 13.9 5 0 0 .1.1.2.1.2.1.3.2.5.3.1.1.2.1.2.1h.1c.3.2.6.3.9.5.3.2.6.4 1 .6h.2c.1 0 .3-.1.4-.2.1-.2 0-.4-.2-.6-.2-.1-.4-.3-.7-.4h.1c.1 0 .2 0 .3-.1.1-.2.1-.4 0-.6-.3-.3-.6-.6-1-.9-.9-.8-1.8-1.6-2.3-2-.2 0-.5.1-.6.2z"/><path fill="#511B2A" d="M72.9 66.2c-.1.2.1.4.3.5.3.1.9.4 1.6.8h.1c.2.1.3.2.5.2-.1-.1-.3-.1-.4-.1h-.3c-.5.4-.8.9-.8 1.5 0 .1.1.3.2.3.4.2.7.5 1.1.9.4.3.7.7 1.1 1 .1.1.2.1.3.1.1 0 .2 0 .3-.1.1-.2.1-.4 0-.6-.5-.5-1.1-1-1.7-1.5-.1-.1-.2-.2-.3-.2 0-.2.1-.3.2-.5l.1-.1c.4.2.9.4 1.4.8-.1.1-.2.2-.1.4 0 .2.3.4.5.3h.2c.2 0 .5-.2.6-.4.1-.2 0-.4-.1-.5-.4-.2-.7-.5-1.1-.8.1.1.3.1.4.2h.1c.2 0 .3-.1.4-.3.1-.2 0-.4-.3-.5-.2-.1-.9-.5-1.6-.8-.2-.1-.3-.2-.5-.3-.5-.3-1-.5-1.4-.6-.6 0-.8.1-.8.3zm.8 5.2h-.4c-.4 0-.9.1-1.4.2-1 .2-1.9.4-2.9.5-.7-2-.3-4.5-2.1-6.8-.6-.7-1.6-1.7-2.7-2.6.8.5 1.7 1 2.4 1.6 2.4 1.8 4.4 3.9 5.1 5.4.1.1.2.2.4.2h.2c.2-.1.3-.3.2-.5-.8-1.7-2.9-3.8-5.4-5.7-2.4-1.8-5.2-3.3-7.4-3.3-.2 0-.4.2-.4.4s.2.4.4.4c.3 0 .7 0 1.1.1-.4 0-.7.1-1.1.2-.2.1-.3.3-.2.5.1.1.3.2.5.1s.5-.2.7-.2c1.7 0 4.5 2.4 5.4 3.7 1.6 1.9 1.2 4.1 2 6.4-2.1.4-4.2.6-6.5.6h-.1c-1.4 0-2.9 0-4.4-.1-.1-.5-.2-1-.2-1.5 0-.2-.2-.4-.4-.4s-.4.2-.4.4c0 .5.1 1 .2 1.4-.8 0-1.5-.1-2.3-.1-.1-.8-.2-1.5-.3-2.2 0-.2-.2-.4-.5-.3-.2 0-.4.2-.3.5.1.7.2 1.4.3 2-.4 0-.7 0-1.1-.1-.1-.8-.2-1.7-.5-2.6-.1-.2-.3-.3-.5-.2-.2.1-.3.3-.2.5.3.8.4 1.5.5 2.2-1.6-.1-3.1-.2-4.7-.3 0-.2.1-.4.1-.7v-.5c0-.2-.2-.4-.5-.4-.2 0-.4.2-.4.5v1c-.2 0-.5 0-.7-.1-2.7-.2-5.5-.4-8.1-.8v-.3c0-.3 0-.6.1-.9.1-.2 0-.4-.3-.5-.2-.1-.4 0-.5.3-.1.4-.2.8-.2 1.2v.2c-3.9-.6-7.5-1.6-10.6-3.6-.2-.1-.3-.2-.5-.4H25s-.1 0-.1-.1l.2-.2-.5-.5-.9.9c-.4.2-.8.4-1.2.7-.1-.1-.1-.2-.2-.3.7-.4 1.5-.9 2.1-1.6.1-.2.1-.4-.1-.6-.1-.1-.2-.1-.3-.1 0-.1.1-.2.2-.2.3-.1.5-.2.6-.2h.1c.2.1.4 0 .5-.2.1-.2 0-.4-.2-.5-.1 0-.2-.1-.3-.1 1.3-1.5 3-2.7 4.7-3.6 2.2-1.2 4.8-3.2 7.1-3.2.2 0 .4-.2.4-.4s-.2-.4-.4-.4c-2.7 0-5.4 2.2-7.5 3.3-1.1.6-2.1 1.3-3.1 2.1h-.2c-.2.1-.4.1-.6.2v-.1c0-.2-.1-.4-.3-.5h-.1c-.4 0-.9.2-1.2.5v.5l.1.1h.1c.4.2.7.2 1.1.2h.1c-.5.5-.9 1-1.3 1.5-.5.2-.9.5-1.3.7-.2.2-.4.3-.6.5-.2.1-.2.4 0 .6l.1.1c.1 0 .1.1.2.1s.2 0 .3-.1c.2-.2.5-.4.9-.6l.1.1c.1 0 .1.1.2.1-.5.5-1.3.9-1.9 1.4l-.1.1v.4c.1.5.4 1 .8 1.3h.1c-.8 1.2-1.5 2.4-2.1 3.7-.1.1-.2.2-.2.4 0 .1-.1.2-.1.2-.1 0-.2.1-.2.1-.1 0-.1.1-.2.2 0 .1-.1.2-.1.3.1-.2.3-.3.4-.5-.1.2-.1.3-.2.5-.1.1-.1.2-.2.3-.1.3-.2.5-.4.8-1.3 2.5-3.6 4.9-3.6 7.4 0 1.3.7 2.6 2.4 3.9 1.5 1.1 3.1 2.3 4.8 3.4.1 0 .1.1.2.1l.9.6c-.1.8-.2 1.7-.3 2.4v.1c-.2 2-.4 4.1-.4 6.2 0 1.9.7 3.5.7 5.2v.6c-.1.9-.2 1.4-.6 2.2-.2.4-.5.8-.8 1.3-.2.3-.3.6-.4.9-.6.5-1.4.7-2.3 1-.5.2-.9.3-1.4.5-.2.1-.3.4-.2.6.1.1.2.2.4.2h.2c.5-.3 1.3-.5 2.1-.7-.9.4-1.9.9-2.7 1.5-.2.1-.4.2-.5.4-.2.1-.2.4-.1.6 0 0 .1 0 .1.1.1.1.2.1.3.1.1 0 .2 0 .2-.1h.3c.2 0 .3-.2.3-.4 1-.7 2.6-1.5 3.5-1.6.2 0 .4-.3.3-.5 0-.2-.3-.4-.5-.3-.2 0-.4.1-.6.2.3-.1.7-.3 1-.5.1 0 .2 0 .2-.1.1-.1.2-.2.2-.4 0-.6.7-1.4 1.1-2.2.4-.9.6-1.6.6-2.5v-.6c0-1.9-.7-3.5-.7-5.2 0-1.2.1-2.4.2-3.5.1-.8.1-1.7.2-2.6.1-.6.2-1.3.2-2.1 1.6.9 3.3 1.6 5 2.1 4.2 1 8.5 1.7 13 1.8 1 0 2 .1 3 .1h2.5c6-.2 13.3-1.4 19.7-3.6.1 0 .2-.1.3-.1-.4 1-.6 2.2-.6 3.5 0 1.2.1 2.5.4 3.8.3 1.5.6 3 1 4.4-1.7-.6-4.5-1.3-6.1-1.4h-.7c-2.6 0-5.1.9-7.7.9h-.5c-3.1 0-6.9-.1-9.7-.8-1.8-.4-3.4-1.4-5.3-2 0-.1.1-.2.1-.3.1-.2.2-.5.3-.7.6-1.1 1.3-2 2-2.5-.4.4-.7.9-1 1.5.6-.6 1.1-1.2 1.5-1.8.2-.1.4-.1.5-.2l-.1-.6c0-.1 0-.1.1-.2l-.1.1c-1.8.3-3 2.1-4 4.1-.1.1-.1.3-.2.4-.1 0-.2-.1-.3-.1l-.1.7h.2c-.7 1.7-1.1 3.4-1.4 4.4l-.3 2.1c-.1.6-.1 1.3-.1 1.9l-.2.6h.2c0 1.5.1 3 .1 4.5-.1 0-.1.1-.1.1l.1.1v.1c0 1.3.1 2.6.1 3.8v.1c0 1.2 0 2.3-.2 3.4l-.2.1h-.1c0 .1.1.1.1.2 0 0 .1 0 .1.1h.1v.1h-.1v.2-.2c-.7.4-1.3 1.1-1.3 2 0 .2 0 .4.1.6 0 .1.1.2.2.2.2-.3.3-.5.5-.8 0-.2.1-.5.4-.8 0 .1-.1.2-.1.3 0 .2-.1.3-.2.5-.3.9-.6 1.8-1 2.7h-.1v.2c-.3.6-.5 1.2-.9 1.7-.8 1.2-2.6 1.9-3 3.5 0 .1 0 .2-.1.3v.3l.2.1c.2.1.5.2.7.2-.3.7-.4 1.8-.4 2.6 0 .5 0 .9.3 1.2.1.1.2.1.3.1.1 0 .2 0 .3-.1.1-.2.1-.4 0-.6 0 0-.1-.3-.1-.6 0-.7.2-1.8.4-2.4 3.8 1.3 8 2 12.2 2.5.2 1.5.8 2.9 1.4 4.2.1.2.2.3.4.3h.2c.2-.1.3-.3.2-.5-.5-1.2-1-2.5-1.3-3.8.8.1 1.7.2 2.5.3.2 1.2.5 2.2.7 3 .1.2.2.3.4.3h.1c.2-.1.3-.3.3-.5-.2-.7-.4-1.6-.6-2.7.8.1 1.6.1 2.4.2v.1c0 1.1-.2 2.2-.8 3-.1.2-.1.4.1.6.1 0 .2.1.2.1.1 0 .3-.1.3-.2.7-1.1.9-2.3.9-3.5.7.1 1.3.1 2 .2v.2c0 1.2-.3 2.3-.8 2.6-.2.1-.2.4-.1.6.1.1.2.2.3.2.1 0 .2 0 .2-.1.9-.7 1.1-2 1.1-3.3v-.1h.4c-.1.9-.3 1.8-.5 2.7v.2c-.1 0-.1-.1-.2-.1-.2 0-.4.2-.4.4v1.8c0 1.1-.1 2.2-.6 3.1-.1.2 0 .4.1.6.1 0 .1.1.2.1s.3-.1.4-.2c.1-.2.2-.5.3-.7 1-1.5.6-3.5 1-4.9.2-1 .4-1.9.5-2.9l3.6.3c.3 0 .6.1 1 .1v2.1c0 .2.2.4.4.4s.4-.2.4-.4v-2c1.9.4 4.1 1 6 1 .9 0 1.7-.1 2.4-.5.4-.2.8-.6 1.2-1.2.1 0 .2 0 .2-.1.2-.2.4-.4.5-.7v-.3c.1-.1.2-.3.2-.4.1-.1.1-.3.2-.4.5-1.1 1-2.2 1.2-3 0-.1.1-.3.1-.4.5-2 .8-4 .8-6.1v-.4c0-2.2-.3-4.5-.8-6.7l.2-.6c-.1 0-.3-.1-.4-.1-.8-4-2.1-7.9-3-11.5-.1-.4-.2-.8-.4-1.3-.1-.4-.2-.7-.3-1.1-.7-2.6-1.5-5.8-1.5-8.4 0-1.5.2-2.8.8-3.8.8-.3 1.6-.6 2.4-1h.6v-.3l1.2-.6c.4 1.1.7 2.3 1 3.4.4 1.9.2 3.9.3 5.9.1 2.2.8 4 1.6 5.9.4 1 .7 2.1 1.2 3.1.4.7 1.1 1.5 1.2 1.9 0 .2.2.3.3.3h.2c.2-.1.3-.3.3-.5-.2-.5-.6-1.1-1-1.5-.1-.2-.2-.3-.3-.5-.5-.9-.8-2-1.2-3-.8-1.9-1.4-3.6-1.5-5.6-.1-1.9 0-4-.4-6-.2-1.2-.6-2.4-1-3.6.3-.2.6-.4.9-.5 1.4-.8 2.6-1.7 3.6-2.6l.6-.9-.2-.2c0-.8.2-1.5.2-2.4v-1.8c-.2-2.4-1.1-5-2.3-7.1-.2-.3-.4-.6-.5-.9.2.1.3.2.4.4.1-.2.1-.4 0-.5-.3-.3-.6-.6-.9-.8-.3-.2-.6-.4-1-.4-.2-.1-.3 0-.4.1zm-31.9 29.7c.8.4 1.7.7 2.6.9 2.9.7 6.7.8 9.8.8h.5c1.7 0 3.3-.4 4.9-.6.9-.2 1.8-.3 2.7-.3h.6c1.6.1 4.8.9 6.4 1.5.1.4.2.7.3 1.1.1.4.2.7.3 1 .5 1.8 1 3.7 1.6 5.6-2.2-.4-5.2-.5-7.6-.9-2-.4-4.1-.5-6.2-.5-.7 0-1.4 0-2 .1-2.1.1-3.9.4-5.9.4-.7 0-1.4 0-2.1-.1-1.8-.2-3.6-.4-5.3-.6-1.8-.2-3.5-.5-5.2-1v-.5c0-1.2.1-2.3.3-3.4.2-.9.5-2.3 1.1-3.7.1-.3.2-.5.3-.8 1.1.2 2 .6 2.9 1zm28 35.4c-.3.1-.5.2-.9.3-.4.1-.8.1-1.2.1-2.4 0-5.6-1-7.7-1.2-8.8-.8-19.1-1.1-27.3-3.9v-.1c-.1 0-.3 0-.4-.1-.2-.1-.4-.1-.6-.2.3-1.1 1.9-1.9 2.9-3.2.3-.5.6-1 .8-1.5h.1c1 .7 3 1.4 5.1 1.9 2.1.6 4.2 1 5 1.2 3.8.9 7.9 1.3 11.9 1.3h10.4c.7 0 1.6-.1 2.4-.1.6 0 1.3 0 1.7.1.4.1.6.1.8.2-.2.6-.6 1.4-1 2.2-.4.8-.9 1.7-1.4 2.2-.3.5-.5.7-.6.8zm3.3-6c0 .1-.1.3-.1.4-.7-.3-1.7-.3-2.8-.4-1.4 0-2.8.1-3.6.1h-9.2c-3.8 0-7.7-.4-11.3-1.2-.1 0-.3-.1-.4-.1-.9-.2-3.5-.8-5.8-1.5-1.2-.3-2.3-.7-3.1-1.1 0 0-.1 0-.1-.1-.3-.2-.6-.3-.8-.5-.1 0-.1-.1-.1-.1.4-.9.7-1.8 1-2.6.2-.6.4-1.3.5-1.9.5.2 1.1.4 1.7.6 1.1.4 2.2.7 2.7.9 1.8.5 3.8.9 5.7 1.2 2.4.4 4.9.7 7.4.7 1.2 0 2.3-.1 3.5-.2 3-.3 5.7-.8 8.8-.8h.2c1.6 0 4.4.2 6.1.6.2 0 .3.1.5.1h.2c-.3 2.1-.5 4.1-1 5.9zm.6-6.5c-1.8-.4-4.8-.7-6.6-.7h-.2c-3.1 0-5.9.5-8.9.8-1.1.1-2.3.2-3.4.2-2.5 0-4.9-.2-7.3-.6-1.9-.3-3.8-.6-5.6-1.2-.5-.1-1.7-.5-2.9-.9-.6-.2-1.1-.4-1.5-.5h-.1c.2-1.1.2-2.3.2-3.4v-3l.1.1h.5v-.3c.4.1.8.3 1.3.4l1.8.6c2.2.7 4.4 1.4 5.2 1.6 3 .5 5.9.9 9.1.9H57c3.2-.2 6.1-1 9.3-1h.2c1.3 0 2.2.3 3.5.5.5.1 1 .1 1.6.1H73c.4 2 .7 4 .8 6 0 0 0 .2-.1.4.1 0 0 0 0 0zm-1.5-7.3h-.6c-.5 0-1 0-1.5-.1-1.2-.2-2.2-.5-3.6-.5h-.2c-3.3 0-6.3.9-9.3 1h-1.6c-3.1 0-5.9-.4-9-.9-.7-.1-3-.9-5.2-1.6-1.1-.4-2.1-.7-2.9-1-.1 0-.2-.1-.3-.1-.1 0-.2-.1-.3-.1-.1-.2-.1-.4-.1-.6 0-.4.1-.9.2-1.3-.1-.6-.2-1.2-.4-1.9-.1.2-.1.5-.2.7v-1.4h.1c3.4.9 6.8 1.2 10.3 1.6.8.1 1.5.1 2.2.1 2 0 3.8-.3 5.9-.4.7 0 1.3-.1 2-.1 2.1 0 4.1.2 6.1.5 2.5.4 5.8.6 7.9 1 .4 1.6.8 3.2 1.2 4.9-.3.2-.5.2-.7.2zM56.9 73.4c1.1 0 2.2.1 3.2.1h3v.1c0 1-1 2.8-1.1 4.5v.5c.3 1.9 1.4 4.4 2.1 6.7.3 1.1.5 2.2.5 3.1 0 1.1-.3 2.1-1 3 0 0 0 .1-.1.1l.2.1c-3.3.9-6.7 1.5-9.9 1.9 0-1.9.9-4.1 1.5-6.2.2-.6.3-1.2.4-1.9.1-1.1.3-2.3.3-3.5V81c-.2-2.7-1.1-5-1.2-7.7.6 0 1.2 0 1.8.1h.3zm-20.3 5.1c.4 2.7 1.8 5.4 1.8 7.9v.4c-.1 2.1-2 3.9-2.5 6.1 0 .1 0 .2-.1.3-1.4-.2-2.7-.5-4.1-.8-.6-.1-1.2-.3-1.7-.4-1-.3-2-.6-3-1 .2-.5.5-.9.8-1.5 0 0 0-.1.1-.1.2-.5.3-.9.3-1.3 0-.3.1-.6.1-.8v-.8c-.1-1.9-.5-3.8-1.2-5.6 0-.1-.1-.2-.1-.3-.4-1.2-.7-2.5-.7-3.9 0-1.1.2-2.3.5-3.4s.7-2.1 1.3-3l-.6-.4c-.1.1-.2.3-.2.4-1.1 2-1.6 4.2-1.6 6.4 0 1.4.2 2.8.7 4.1.7 1.8 1.1 3.7 1.3 5.7v.8c0 .7-.1 1.3-.3 1.9-.3.7-.6 1.1-.8 1.6-.6-.3-1.2-.6-1.8-1-2.2-1.3-4.2-2.8-6.1-4.2 0-.1.1-.2.1-.3.8-1.7 1.6-3.4 1.6-5.6 0-.7-.2-2.4-.2-3.8 0-.5 0-1 .1-1.4 0-.1 0-.2.1-.2 0-.1.1-.2.1-.3l.1-.1c1.1-2.2 2-4.2 3.5-5.9h.1v-.1c.1-.1.2-.2.3-.4 3.9 2.8 8.7 3.9 13.8 4.6-1.4 1-1.7 3.2-1.7 5-.1.5-.1 1 0 1.4zM24 67.2zm-7.6 15c0-1.9 1.7-4 3.1-6.3 0 1.5.2 3.2.2 3.8 0 .9-.2 1.8-.4 2.7-.1.5-.3.9-.5 1.4-.2.5-.4 1-.7 1.5-1.3-1.1-1.7-2.1-1.7-3.1zM43 93.9c-2.2-.1-4.4-.3-6.5-.6 0-.1 0-.2.1-.4.4-1.9 2.3-3.8 2.5-6.2v-.4c0-.8-.1-1.5-.3-2.2-.4-2-1.3-3.9-1.5-5.8 0-.4-.1-.8-.1-1.3 0-.9.1-1.9.4-2.8.3-.8.7-1.5 1.3-1.8l-.2-.4c.2 0 .3 0 .5.1 2 .2 4 .4 6 .5.6 0 1.2.1 1.7.1h.4l-.3.3h-.2c.1.2.1.3.2.5.5 1.6.7 3.4.7 5.2 0 1.1-.1 2.1-.1 3.1 0 .5-.1 1.1-.2 1.6-.1.6-.3 1.3-.4 1.9 0 .2-.1.4-.1.6-.4 2.2-2.4 4.1-3.1 6.4-.1.3-.2.6-.2.9 0 .2 0 .4-.1.6-.2.2-.3.2-.5.1zm5.3.1h-4.2c0-2.6 2.7-4.9 3.4-7.9.3-1.3.6-2.7.8-4.2.1-1 .1-2.1.1-3.2 0-1.9-.2-3.9-.8-5.6 0-.1 0-.1-.1-.2l3.9.3v.4c.3 0 .5.1.8.1v-.4c.4 0 .7 0 1.1.1v.4h.7c.1 1.6.5 3 .8 4.5.2 1 .4 1.9.5 2.9v1.6c0 .9-.1 1.8-.3 2.7-.3 2.6-1.9 5.4-1.9 8.2-1.6.1-3.3.2-4.8.3zm28.2-18.1c.8 1.9 1.3 3.9 1.3 5.8v.7c-.1.9-.2 1.7-.3 2.7h.4c-1.5 1.3-3.3 2.4-5.4 3.4-.1.1-.3.1-.4.2 0-.1 0-.3-.1-.4-.2-.9-.4-1.8-.5-2.6 0-.3-.1-.6-.1-.9 0-.8.1-1.6.1-2.5 0-.3 0-.6-.1-.9-.1-.9-.3-1.8-.6-2.7l-.9-2.4c-.3-.8-1-1.6-1.7-2.3l-.4.4-.1.1c.6.7 1.3 1.5 1.5 2.1.7 1.6 1.3 3.3 1.5 4.9v.8c0 .8-.1 1.6-.1 2.5 0 .3 0 .6.1 1 .1 1 .4 1.9.6 2.8 0 .1 0 .3.1.4-.8.4-1.7.7-2.5 1-1.4.5-2.9 1-4.4 1.4.1-.1.2-.3.3-.5.4-.8.6-1.7.6-2.6v-.8c-.3-3.3-2.3-6.9-2.6-9.2v-.4c0-1.4 1-3.1 1.1-4.5v-.2c1.2-.1 2.3-.2 3.4-.4 1.6-.2 3.2-.5 4.8-.8.5-.1 1-.2 1.3-.2.4 0 .7.1 1 .2.1 0 .1.1.2.2.3.3.6.7 1 1.4.3.9.6 1.6.9 2.3z"/><path fill="#511B2A" d="M46.4 67.6c-2.6-.4-3.5-2.2-5.8-3.9-1-.7-2.8-1.8-4.5-2.4-.8-.3-1.5-.4-2.2-.4-.4 0-.9.1-1.2.3-.2.1-.3.3-.2.5.1.2.3.3.5.2.2-.1.5-.2.9-.2.7 0 1.7.3 2.6.6 1.4.6 2.9 1.4 3.7 2 1.3.9 2.2 2 3.3 2.8.8.6 1.6 1 2.8 1.2.4.1.7.1 1.1.1.8 0 1.5-.1 2.2-.3.5-.1 1-.3 1.5-.5 2.2-.8 4.4-1.9 6.5-1.9 1 0 1.9.2 2.9.8.2.1.4 0 .6-.1.1-.2 0-.4-.1-.6-1.1-.6-2.2-.9-3.3-.9h-.5c-3.4.3-6.6 2.6-9.7 2.6-.5.2-.8.2-1.1.1zm-10.3-8.1zM21.7 112c-1 .6-2.2 1.2-3.4 1.6-.2.1-.3.3-.2.5.1.2.2.3.4.3h.1c1.2-.4 2.5-1 3.5-1.7.2-.1.2-.4.1-.6-.1-.1-.3-.2-.5-.1zm-3.7 4.6c1.3-.6 2.6-1.1 3.9-1.8.2-.1.3-.4.2-.6-.1-.2-.4-.3-.6-.2-1.3.7-2.8 1.3-4.3 2-.5.2-1 .5-1.5.8-.2.1-.2.4-.1.5.1.1.2.2.4.2h.2c.3-.2.7-.3 1-.5.2-.1.3-.1.5-.1.1.1.3-.1.3-.3zm.6 3.5c.2-.1.2-.3.2-.5.9-.7 1.9-1.4 2.7-1.6.2-.1.3-.3.3-.5-.1-.2-.3-.3-.5-.3-.9.3-1.9 1-2.8 1.7.7-.5 1.4-1.1 1.9-1.7.2-.2.1-.4 0-.6-.2-.2-.4-.1-.6 0-.7.8-1.7 1.6-2.5 2.1-.2.1-.2.3-.1.5.1.1.1.2.2.2h.2c.2-.1.3-.1.4-.2l-.6.6-.2.2c-.1.1-.2.4 0 .5.1.1.2.2.3.2.1 0 .1 0 .2-.1s.5-.3.9-.5zm.4.7c.9-.5 1.9-1 2.5-1.2.2-.1.3-.3.2-.5-.1-.2-.3-.3-.5-.2-.5.3-1.6.7-2.5 1.2-.4.3-.9.5-1.2.8-.4.4-.7.8-.7 1.3v.1c0 .2.2.4.4.4s.4-.2.4-.4v-.2c.1-.4.6-.9 1.4-1.3zm-.5 4.2h.2c.2-.1.4-.3.3-.5 0-.1 0-.1-.1-.2.5-.5 1.3-1 2-1.3.2-.1.3-.3.2-.5-.1-.2-.3-.3-.5-.2-.5.2-1 .4-1.5.8.6-.6 1.3-1.1 2.1-1.5.2-.1.3-.4.2-.6-.1-.2-.4-.3-.6-.2-1 .5-2 1.2-2.7 2.2 0 .1-.1.1-.1.2v.1c0 .1 0 .2.1.3.1.1.2.1.2.2-.2.2-.3.4-.4.6v.3s0 .1.1.1c.1.1.3.2.5.2zm2.5 1.6c-.1-.2-.3-.3-.5-.2-.3.1-.5.3-.7.4l.5-.5c.2-.1.2-.4.1-.6-.1-.1-.2-.1-.3-.1 0-.1-.1-.2-.1-.3.1 0 .1-.1.2-.1.2-.1.2-.4.1-.6-.1-.2-.4-.2-.6-.1-.4.3-.9.6-1.4.9-.5.4-1 .8-1.4 1.2-.1.1-.1.4 0 .5.1.1.2.2.3.2h.2c.5-.3 1-.6 1.4-.9.2-.1.3-.2.5-.2-.1.1-.2.3-.4.4-.3.4-.6.8-.8 1.2-.1.1 0 .3.1.4.1.1.2.1.3.1h.1c.4-.1.7-.3 1.1-.5.4-.2.8-.5 1.1-.7.2-.1.3-.3.2-.5zm55.1-20.1c-.2.1-.3.3-.2.5.6 1.4 2 3.3 2.3 4.2.1.2.2.3.4.3h.1c.2-.1.3-.3.2-.5-.4-1.1-1.7-2.9-2.3-4.2-.1-.3-.3-.4-.5-.3zm-.3 3.8c-.2.1-.3.3-.3.5.6 1.8 2.3 3 3 4.3.1.1.2.2.4.2h.2c.2-.1.3-.4.2-.6-.8-1.5-2.5-2.7-2.9-4.1-.2-.2-.4-.3-.6-.3zm3.9 8.7c.1 0 .1 0 .2-.1.2-.1.3-.4.2-.6-.7-1.2-2-2.6-2.3-3.6-.1-.2-.3-.3-.5-.3-.2.1-.3.3-.3.5.4 1.3 1.5 2.5 2.2 3.5-.2-.2-.3-.4-.5-.5-.2-.2-.4-.2-.6 0-.2.2-.2.4 0 .6.8.7 1.6 1.8 1.8 2.8-.2-.2-.3-.3-.5-.4-.2-.1-.4 0-.5.2-.1.2 0 .4.2.5.2.1.7.8 1.1 1.7.1.2.2.5.3.7.2.6.4 1.2.6 1.7.1.2.2.3.4.3h.1c.2-.1.3-.3.3-.5-.2-.6-.5-1.6-.9-2.5l-.3-.6c-.1-.2-.2-.3-.3-.5.1 0 .2-.1.3-.2.1-.1.1-.2.1-.3v-.3c-.1-.9-.6-1.7-1.2-2.3 0 .2 0 .2.1.2zm.4 5.8c.1-.2-.1-.4-.3-.5-.2-.1-.4.1-.5.3v.4c0 .7.3 1.6.7 2.5l.3.6c-.1.1-.2.2-.2.3v.4c0 .7.2 1.4.4 2.1.1.2.2.3.4.3h.2c.2-.1.3-.3.2-.5-.2-.4-.3-.7-.3-1.1.1.1.2.2.3.2h.2c.2-.1.3-.3.2-.5-.3-.6-1.1-2.2-1.4-3.3-.1-.3-.1-.5-.1-.7-.1-.4-.1-.4-.1-.5zm-1.2 5.6c-.2.1-.2.4-.1.6.3.4.6.8.8 1.3l-.3.3v.2c0 .5.2 1 .4 1.4 0 .1-.1.1-.1.2v.1c0 .7.3 1.3.7 1.8-.2.1-.2.4-.1.5.6 1 1.1 1.9 1.6 3 .7 1.2 2 2 2.1 3 0 .2.2.3.4.3h.1c.2 0 .4-.2.3-.5-.3-1.5-1.8-2.3-2.2-3.2-.5-1-1-1.9-1.6-2.9 0 0 .1 0 .1-.1.2-.2.2-.4 0-.6-.2-.2-.4-.5-.5-.9h.1c.1 0 .3-.1.4-.2.1-.2 0-.4-.1-.6-.2-.1-.3-.3-.5-.5h.1c.2-.1.3-.3.3-.5-.3-1-.8-1.8-1.3-2.5-.1-.1-.1-.2-.2-.3.1 0-.2-.1-.4.1zm4.2 13.9c0 .1.1.2.2.3 1.3.9 2.6 1.7 3.8 2.5.1 0 .1.1.2.1s.3-.1.3-.2c.1-.2.1-.4-.1-.6-.2-.2-.5-.3-.7-.5 0-.1 0-.1-.1-.2-.5-.8-1.3-1.2-2-1.5-.7-.3-1.4-.7-1.8-1.2-.1-.2-.4-.2-.6-.1-.2.1-.2.4-.1.6.3.4.6.6.9.8zm2.3 3c-.1.2.1.4.3.5.2.1.4.2.7.3 0 0-.1.1-.1.2 0 .2.1.4.3.5.2 0 .8.3 1.3.7.5.4.9.9 1.1 1.3.1.2.2.3.4.3h.1c.2-.1.3-.3.3-.5-.2-.6-.8-1.2-1.3-1.7.1-.2.1-.4-.1-.6-.7-.4-1.5-.9-2.4-1.2-.3-.2-.5-.1-.6.2z"/><path fill="#511B2A" d="M88.2 157.2v-.3c0-.8.3-1.6.3-2.6v-.7c0-.1.1-.2 0-.3 0-.1-.1-.2-.1-.3v-.2c0-.2 0-.3.1-.5s0-.4-.2-.5h-.2c-.2-.8-.4-1.6-.4-1.9.1-.2 0-.4-.2-.5-.2-.1-.4 0-.5.2-.1.1-.1.2-.1.3 0 .8.5 2.4.8 3.3 0 .3.1.6.1.9v.2c0 .5-.1 1.1-.2 1.7-.2.1-.3.3-.3.5 0 .1.1.2.1.4-.1.1-.1.2-.1.3v3.8c0 .2.1.3.3.4h.1c.2 0 .4-.2.4-.4v-3.3c0-.2.2-.3.1-.5zm-1.3 3.5c.1-.2-.1-.4-.3-.5h-.2c-.2 0-.5.2-.5.4 0 .1-.1.2 0 .3.2.6.4 1.1.6 1.6.1.2.1.3.2.5 0 .2.2.3.4.3h.1c.2 0 .4-.3.3-.5-.1-.4-.2-.7-.3-1-.1-.3-.3-.5-.3-.8v-.3zm-1.1 1.7c-.2 0-.4.2-.4.4v1.9c-.1-.2-.2-.3-.2-.5 0-.1-.1-.2-.2-.3-.1 0-.2-.1-.3 0-.2 0-.4.2-.3.5v.1c.2.8 1 1.5 1.3 2 .1.1.2.2.4.2.1 0 .1 0 .2-.1.2-.1.3-.4.1-.6.1 0 .2-.1.3-.2.1-.2.1-.4-.1-.6-.3-.1-.4-.7-.4-1.4v-1.3c-.1 0-.2-.1-.4-.1zm-2.3 2.8c0-.2-.1-.4-.3-.5-.2 0-.4.1-.5.3v.3c0 .3.1.6.1.9.2.8.7 1.6 1.3 2.1.1.1.2.1.3.1.1 0 .2 0 .3-.1.2-.2.1-.4 0-.6-.6-.5-1.1-1.6-1.2-2.3v-.2zm-1.9 1.4c-.1-.2-.4-.2-.6-.1-.2.1-.2.4-.1.6.3.4.6.7.9 1 .1.1.2.1.2.2.3.3.5.6.6 1.2 0 .2.2.4.4.4s.4-.2.4-.4c0-.8-.4-1.3-.8-1.7l-.4-.4c-.3-.3-.5-.5-.6-.8zm-1.3.8c-.1-.2-.4-.3-.6-.2-.2.1-.3.4-.2.6.3.7 1 1.3 1.7 1.9.3.2.5.4.7.6.1.1.2.1.3.1.1 0 .2-.1.3-.1.1-.2.1-.4-.1-.6-.3-.2-.7-.6-1-.9-.4-.5-.9-1-1.1-1.4z"/><path fill="#511B2A" d="M79.6 168.3c-1-.7-2.2-1-2.8-1.5-.5-.4-.6-.9-.6-1.6 0-.5.1-1.1.1-1.7 0-3.8.2-7.6.4-11.4.2-3.6.2-7.2.2-10.7v-10.5c0-2.1.9-5.3.9-8 0-1.3-.2-2.5-.8-3.5-.1-.2-.4-.2-.6-.1-.2.1-.2.4-.1.6.5.8.7 1.9.7 3.1 0 2.6-.9 5.8-.9 8v10.5c0 3.6 0 7.1-.2 10.7-.2 3.8-.4 7.6-.4 11.5 0 .5-.1 1.1-.1 1.7 0 .8.1 1.6.8 2.3.2.2.5.3.7.5-.5.1-.9.2-1.4.5-.1.1-.2.2-.2.4v.4c-.8-.4-1.8-.7-2.8-.7-.9 0-1.9.3-2.4 1.2-.4-.3-.9-.5-1.4-.5-1.3 0-2.2 1.1-3 2.2-.4.5-.7 1.1-1 1.5-.2-.8-.4-1.5-.5-2.2-.5-3.3-1.8-6.4-2.5-9.5-.5-2-1.3-3.9-1.6-5.7-.3-1.9-.5-3.7-1-5.6-.6-2.3-1.2-4.5-1.9-6.8-.3-1-.7-2.7-.7-3.9 0-.3 0-.5.1-.7.1-.2-.1-.4-.3-.5-.2-.1-.4.1-.5.3-.1.3-.1.6-.1.9 0 1.3.5 3 .8 4.1.7 2.2 1.3 4.5 1.8 6.8.5 1.8.6 3.7.9 5.6.4 2 1.2 3.9 1.6 5.7.7 3.2 2.1 6.3 2.5 9.5.2 1.1.4 2.1.7 3.1-.1.1-.2.2-.2.3-.1.2-.1.4.1.6.1.1.2.1.3.1h.1c0 .1.1.3.1.4-.2-.1-.5-.1-.7-.1-1.8 0-4.5 1.3-5.2 1.4-.8.2-1.6.3-2.5.3-2.2 0-4.6-.5-6.6-1 .3-.8.3-1.7.3-2.6 0-.6 0-1.2-.1-1.7-.3-3-1.7-5.9-1.9-8.8-.2-2.5-.3-5-.3-7.6v-6.7c0-3-.6-5.7-.6-8.5 0-.2-.2-.4-.4-.4s-.4.2-.4.4c0 2.9.6 5.7.6 8.5v6.7c0 2.6.1 5.1.3 7.6.3 3.1 1.7 6 1.9 8.8 0 .5.1 1 .1 1.6v.1c-.5-.9-.9-1.7-1.4-2.3-.7-.8-1.8-1.2-3.3-1.2h-1c-.6-1.2-1.9-1.7-3.3-1.7-1.3 0-2.6.4-3.4 1.1-.3-.4-.8-.5-1.2-.5-.6 0-1.2.3-1.7.6.2-.7.2-1.5.2-2.3 0-1.4-.2-2.8-.2-3.9v-.5c0-.8.1-1.7.1-2.5 0-2.2-.2-4.3-.7-6.4-.9-3.5-2.7-6.6-3.8-10-1.7-4.9-3.8-10.1-6.3-14.7-.1-.2-.4-.3-.6-.2-.2.1-.3.4-.2.6 2.4 4.5 4.5 9.7 6.2 14.6 1.2 3.4 2.9 6.5 3.8 9.9.5 2.1.7 4.1.7 6.2 0 .8 0 1.6-.1 2.5v.5c0 1.2.2 2.6.2 3.9 0 1.2-.1 2.4-.6 3.1-.6 1-1.7 2.3-2.1 3.8-.1-.1-.3-.1-.4-.2-.6-.2-1.1-.5-1.6-.7-.4-.2-.8-.5-1.1-.8-.3-.2-.5-.5-.8-.7-.7-.8-1.2-1.8-1.7-2.9-.9-1.6-2-3-3.2-4.3-1.1-1.3-2.3-2.2-3.3-3.2-.9-1-1.6-2.1-1.6-3.8v-.2c0-.4.1-.9.1-1.4v-.7c-.1-.8-.4-1.2-.7-1.6-.1-.2-.3-.4-.4-.6-.2-.5-.3-1.2-.3-2 0-1 .1-2.1.2-2.9v-.1c.2-2.1 1.4-4.3 1.5-6.7v-.2c0-.7-.2-1.2-.4-1.7-.1-.1-.1-.2-.2-.4-.3-.6-.5-1.1-.5-1.8 0-1.3.6-2.2 1.4-3.2.8-1 1.7-2 2-3.4 0-.2-.1-.4-.2-.5.1-.1.1-.1.1-.2.3-.3.5-.6.8-.8.3-.3.6-.6 1-.9.2-.1.2-.4.1-.6-.1-.2-.4-.2-.6-.1-.3.2-.5.5-.8.7-.6.6-1.1 1.2-1.7 1.7-.2.1-.2.4 0 .6.1.1.2.1.3.1h.2c-.3 1.1-1 1.9-1.8 2.9s-1.6 2.1-1.6 3.7c0 .9.3 1.5.5 2.1.2.5.4.9.4 1.3v.5c0 1-.3 2.1-.7 3.1-.4 1.2-.7 2.4-.9 3.6-.1.8-.2 1.9-.2 3 0 .8.1 1.6.4 2.3.4.9.9 1.1 1 2v.6c0 .4-.1.9-.1 1.4v.3c0 .8.2 1.5.5 2.2.3.8.8 1.5 1.4 2.1 1 1.1 2.2 2 3.2 3.2 1.2 1.3 2.3 2.7 3.1 4.2.2.4.5.9.7 1.4.3.6.7 1.2 1.1 1.7 1.4 1.5 2.8 2 4.4 2.6v.2c0 .3 0 .6.1.9.3.9 1.1 1.5 1.9 1.8.8.3 1.7.4 2.6.4h.6c1.3 0 2.5-.2 3.3-.3.7-.1 1.3-.1 2-.1 1.2 0 2.5.1 3.8.1.7 0 1.5 0 2.2-.1.2 0 .4-.1.6-.1.7-.1 1.3-.6 1.6-1.1 1.9.4 4.2 1 6.4 1.1h.5c.9 0 1.8-.1 2.7-.3.8-.2 3.5-1.4 5-1.4.3 0 .5 0 .6.1.1.1.2.1.2.2v.2c0 .1.1.2.2.3 1.8 1.2 4 1.4 6.1 1.5 0 .1.1.2.2.2h.1c.2 0 .3-.1.4-.2 1.3 0 2.6-.1 3.8-.2.6 0 1.2-.1 1.8-.1h.9c.5 0 1 .1 1.5.1s.9 0 1.3-.1c.3-.1.5-.2.7-.3.1 0 .1-.1.2-.1.6-.5.8-1.3.8-2.4v-.5c-.1-1.7-.6-3.3-1.6-4.6.5-.9-.1-1.4-.7-1.9zm-30.9 7.4c-.3.7-.6 1.1-1.3 1.2-.9.2-1.8.2-2.7.2-1.2 0-2.5-.1-3.8-.1-.6 0-1.2 0-1.9.1-.1-.2-.2-.3-.4-.3-1.7 0-3-1.5-3-3 0-.8.3-1.5 1.1-2.2.2-.1.2-.4.1-.6-.1-.2-.4-.2-.6-.1-1 .8-1.4 1.8-1.4 2.8 0 1.5.9 2.9 2.3 3.5-.6 0-1.1.1-1.7.1h-.3c-1.5-.2-2.3-1.5-2.3-2.8 0-.6.2-1.3.6-1.9.1-.2.1-.4-.1-.6-.2-.1-.4-.1-.6.1-.5.7-.8 1.5-.8 2.4 0 .4 0 .7.1 1.1.2.5.4 1 .8 1.5-.1 0-.2 0-.2-.1-.8-.3-1.2-.6-1.4-1.2-.1-.2-.1-.5-.1-.7 0-.3.1-.6.1-.9.3-1.1 1.2-2.3 1.8-3.2h.1c.6-.5 1.6-1.3 2.3-1.3.3 0 .5.1.8.5.1.1.2.2.3.2.1 0 .3 0 .4-.2.5-.7 1.9-1.2 3.2-1.2 1.3 0 2.3.5 2.6 1.4.1.2.2.3.4.3.4 0 .8-.1 1.2-.1 1.4 0 2.1.3 2.7.9.6.6 1.1 1.7 1.8 3.1 0 .1.1.1.1.1 0 .4-.1.7-.2 1zm33.2-1.1v.4c0 1-.2 1.5-.5 1.8-.3.3-.9.4-1.7.4h-1.1c.1-.6.2-1.1.2-1.6 0-1.4-.4-2.6-1-4-.1-.2-.3-.3-.5-.2-.2.1-.3.3-.2.5.6 1.4 1 2.4 1 3.7 0 .5-.1 1-.2 1.6h-.5c-1.7 0-3.6.2-5.4.2.2-.7.3-1.5.3-2.3 0-1.3-.3-2.7-.9-3.7-.1-.2-.4-.2-.6-.1-.2.1-.2.4-.1.6.5.9.8 2.1.8 3.3 0 .8-.1 1.6-.3 2.4h-.4c-1.9 0-3.7-.3-5.2-1.2v-.3c-.1-.7-.2-1.3-.4-1.9.4-.6.8-1.4 1.4-2.2.8-1.1 1.6-1.9 2.4-1.9.4 0 .8.2 1.2.7.1.1.3.2.4.1.2 0 .3-.2.3-.3.2-.9.8-1.2 1.8-1.2 1.1 0 2.4.5 2.9.9.1.1.3.1.5 0 .1-.1.2-.3.2-.4v-.1c0-.2.1-.4.1-.7.4-.2.8-.3 1.2-.3.3 0 .6.1.8.2.2.1.4 0 .5-.1.1.1.3.2.4.2 1 .8 1.7 1.7 2.2 2.8.1.2.2.5.3.8 0 .5.1 1.2.1 1.9z"/><path fill="#511B2A" d="M49 149.7c-.1-.1-.2-.1-.3 0-.2-3.7-.2-7.9-.2-11.2 0-.2-.2-.4-.4-.4s-.4.2-.4.4c0 3.6.1 8.2.3 12.1 0 .1.1.3.2.3h.2c.1 0 .2 0 .2-.1l.6-.6c0-.1 0-.4-.2-.5z"/><path fill="#511B2A" d="M50.3 139.6c0-.2-.2-.4-.4-.4s-.4.2-.4.4c0 3-.4 6-.4 9.1v.4c0 .1 0 .2.1.3.1.1.2.1.3.1.1 0 .2 0 .3-.1.1-.1.1-.2.1-.3 0-3.1.4-6.3.4-9.5zm1.4-.3c-.2 0-.4.2-.4.4 0 2.5-.7 4.9-1.1 7.4 0 .2.1.4.3.5h.1c.2 0 .4-.1.4-.3.4-2.5 1.1-4.9 1.2-7.6-.1-.2-.3-.4-.5-.4zm1.2.9zm.8-.1c0-.2-.2-.4-.5-.3-.2 0-.4.2-.3.5.1.4.1.7.1 1 0 1.3-.4 2.5-.7 4.1 0 .2.1.4.3.5h.1c.2 0 .4-.1.4-.3.2-1.4.7-2.7.7-4.2 0-.6 0-.9-.1-1.3zM41 55.1h1c.2 0 .4-.2.4-.4s-.2-.4-.4-.4h-1c-.2 0-.4.2-.4.4s.2.4.4.4zm.6 1.1c-.1.2 0 .4.2.5h.1c.2 0 .3-.1.4-.2h.1c.2.1.4-.1.5-.3.1-.2-.1-.4-.3-.5-.1 0-.2-.1-.4-.1-.2.1-.5.3-.6.6zm-1.2 1.6h.8c.2 0 .4-.2.4-.4s-.2-.4-.4-.4h-.8c-.2 0-.4.2-.4.4s.2.4.4.4zm2.2.4c-.1.1-.2.1-.3.1h-.1c-.2-.1-.4.1-.5.3-.1.2.1.4.3.5h.3c.3 0 .6-.1.8-.3.2-.2.2-.4 0-.6 0-.2-.3-.2-.5 0zm9.5-.9H51c-.2 0-.4.2-.4.4s.2.4.4.4h1.1c.2 0 .4-.2.4-.4s-.2-.4-.4-.4zm1.2-.6c.1.1.2.1.3.1.1 0 .2 0 .3-.1.1-.2.1-.4 0-.6-.3-.2-.7-.3-1-.3h-.4c-.2 0-.4.3-.3.5 0 .2.3.4.5.3h.3c.1 0 .3 0 .3.1zm.7.6h-.5c-.2 0-.4.3-.3.5 0 .2.3.4.5.3h.3c.2 0 .4.1.5.1.1.1.2.1.3.1.1 0 .2 0 .3-.1.1-.2.1-.4 0-.6-.4-.2-.8-.3-1.1-.3zm-.4 1.7h-.5c-.2 0-.4.3-.3.5 0 .2.3.4.5.3h.3c.2 0 .4.1.5.1.1.1.2.1.3.1.1 0 .2 0 .3-.1.1-.2.1-.4 0-.6-.4-.2-.7-.3-1.1-.3zm-1.1 1.6h-1c-.2 0-.4.2-.4.4s.2.4.4.4h1c.2 0 .4-.2.4-.4 0-.3-.2-.4-.4-.4zm3.9-1c-.1 0-.2-.1-.4-.1-.3 0-.6.2-.7.5-.1.2 0 .4.2.5h.1c.2 0 .3-.1.4-.2h.1c.2.1.4-.1.5-.3.1-.1 0-.3-.2-.4zM37.6 57h1.1c.2 0 .4-.2.4-.4s-.2-.4-.4-.4h-1.1c-.2 0-.4.2-.4.4s.1.4.4.4zm-.7.5c-1.9.4-4 2-5.5 3.1-1.5 1.2-4.4 3.2-5 5.4-.1.2.1.4.3.5h.1c.2 0 .3-.1.4-.3.4-1.6 3.2-3.7 4.7-4.9 1.4-1.1 3.5-2.6 5.1-3 .2 0 .4-.3.3-.5 0-.2-.2-.3-.4-.3zm-8.3 50.1c.1 0 .1 0 .2-.1.7-.5 1.1-1.2 1.4-1.9.3-.7.7-1.5 1.1-1.9.2-.2.1-.4 0-.6-.2-.2-.4-.1-.6 0-.6.6-.9 1.4-1.3 2.2-.3.7-.7 1.3-1.1 1.6-.2.1-.2.4-.1.6.1 0 .3.1.4.1zm3.1 2.4h.2c.2 0 .3-.1.4-.2.6-1.3 1.6-2.7 2.1-4 .1-.2 0-.4-.2-.5-.2-.1-.4 0-.5.2-.5 1.2-1.4 2.6-2.1 4-.2.2-.1.4.1.5zm2.4 1.1v.4c0 .2.2.3.4.3h.1c.2 0 .4-.2.3-.5v-.2c-.1-.9.9-1.7 1-3.1v-.3c0-.2-.2-.4-.4-.4s-.4.2-.4.4v.2c0 1-1 1.8-1 3.2zm40.5 4.5c0 .2.2.3.4.3h.1c.2 0 .4-.3.3-.5-.2-1.2-1-2.2-1.7-3.1-.3-.4-.6-.8-.8-1.1 0 .6.1 1.1.2 1.7.6.9 1.3 1.8 1.5 2.7zM27 116.7zm.9.1v-.2c0-.2-.2-.4-.4-.4s-.4.2-.4.4v.1c0 .8-.6 1.5-1.5 2.2-.9.7-1.9 1.4-2.4 2.2-.1.2-.1.4.1.6.1 0 .1.1.2.1s.3-.1.3-.2c.4-.6 1.4-1.3 2.3-2 .9-.7 1.7-1.5 1.8-2.8zm2.6.9c-.1-.2-.3-.3-.5-.2-.6.2-1.7 1.1-2.8 2-.5.5-1.1.9-1.4 1.3l-.5.5c-.1.2-.2.2-.3.5-.1.2.1.4.3.5h.1c.2 0 .3-.1.4-.3.2-.3 1.2-1.2 2.2-2 1-.8 2.1-1.6 2.3-1.7.2-.1.3-.4.2-.6zm.8.9c-.2-.1-.4-.1-.6.1-.5.8-1.4 1.9-1.9 2.9-.1.2 0 .4.2.6.1 0 .1.1.2.1s.3-.1.4-.2c.5-.9 1.4-1.9 1.9-2.9 0-.2 0-.4-.2-.6zm2.8.8c-.2-.1-.4-.1-.6.1-.5.8-1.2 1.6-1.7 2.5-.1.2-.1.4.1.6.1 0 .1.1.2.1s.3-.1.4-.2c.5-.8 1.2-1.6 1.7-2.5.2-.2.1-.5-.1-.6zm-4.6 8.7c-.2 0-.4.2-.4.4v.1c0 1.3-1.1 2.6-1.1 4.2 0 .2.2.4.4.4s.4-.2.4-.4c0-1.3 1.1-2.5 1.1-4.3v-.2s-.1-.2-.4-.2zm5.7 5.4c-.2-.1-.4.1-.5.3-.3 1.1-.6 2.1-.6 3.3v.5c0 .2.2.4.4.4s.4-.2.4-.4v-.4c0-1 .3-2 .6-3 0-.4-.1-.6-.3-.7zm2 2.3c-.2 0-.4.1-.5.3-.1.7-.4 1.4-.7 2.2-.1.2 0 .4.2.5h.2c.2 0 .3-.1.4-.3.3-.7.7-1.5.8-2.4 0-.1-.1-.3-.4-.3zm2.5 3v-.7c0-.2-.2-.4-.4-.4s-.4.2-.4.4v.7c0 .5 0 1 .2 1.5.1.2.2.3.4.3h.1c.2-.1.3-.3.2-.5-.1-.4-.1-.8-.1-1.3zm2.1 2v-.6c0-.2-.2-.4-.4-.4s-.4.2-.4.4v.6c0 .2.2.4.4.4s.4-.2.4-.4zm31.1-3.7v.2c0 .2.2.4.4.4s.4-.2.4-.4v-.3c0-1.3-.4-2.6-.4-3.7v-.4c-.2.4-.5.8-.8 1.1.1 1.1.4 2.1.4 3.1zm-37.6 13.2c-.7-.4-1.1-1.3-1.1-2.2v-.1c0-.2-.2-.4-.4-.4s-.4.2-.4.4v.1c0 1.1.5 2.3 1.5 2.9.1 0 .1.1.2.1s.3-.1.4-.2c0-.2 0-.5-.2-.6zm3.4-1.5c-.3-.1-.4-.4-.4-.9 0-.2 0-.4.1-.6 0-.2-.1-.4-.3-.5-.2 0-.4.1-.5.3 0 .2-.1.5-.1.7 0 .6.2 1.3.9 1.6h.2c.2 0 .3-.1.4-.2 0-.1-.1-.3-.3-.4zm3.5-1v-.7c0-.2-.2-.4-.4-.4s-.4.2-.4.4v.7c0 .5 0 1 .2 1.5.1.2.2.3.4.3h.1c.2-.1.3-.3.2-.5-.1-.5-.1-.9-.1-1.3zm3.7-76.7z"/><path fill="#FAB300" d="M26.8 33.8h-.2c-.2.6-.2 1.3-.1 2 .1-.7.2-1.3.3-2zm-.5 1.3c-.1.4 0 .7.2 1V36l-.2-.9zM51.5 17c-2.1-.2-4.2-.3-6.3-.4-.7.1-1.4.1-2.1.2-1.7.2-3.7.3-4.8 1.1-.4.3-.8.9-1.3 1.5 0 .1-.1.3-.2.4 1.2-.5 2.5-1 4-1h.5l-.1.8h-.4c-1.9 0-3.5 1.1-5.5 1.5-1.4 1.1-2.5 2.2-3.4 3.5-.9 1.3-1.7 2.6-2.3 4 2.1-1.2 4.4-2.5 7-2.8l.1.8c-2.7.4-5.3 1.9-7.6 3.2-.4 1.2-.7 2.4-.8 3.6.6-.1 1.2-.2 1.4-.2.9 0 1.8-.1 2.7-.1H35c1.1 0 2.2 0 3.3.1 3.6.3 6.8 1.5 10.2 1.8 7.2.6 13.9 1.2 21 1.8-.1-.1-.2-.3-.3-.5-.2-.5-.4-1.1-.6-1.7 0-.1 0-.2-.1-.3v-.2c0-.2-.1-.4-.1-.5l-.1.1c-2.2-1.9-4.6-2-8-2.2v-.8c3 .1 5.5.2 7.8 1.9-.2-.9-.3-1.8-.3-2.3-.2-2.5-1.7-4.2-2.7-6.7v-.1c-1.8-1.1-5.3-1.5-7.6-2.1-2.9-.7-5.2-1.4-8.2-1.4H48v-.8h1.4c3 0 5.4.6 8.4 1.4 1.9.5 4.9.8 7 1.8-.3-1.4-.5-2.8-1.6-3.6-.1-.1-.2-.2-.3-.2-.7-.2-1.5-.4-2-.5-2.9-.8-6.1-.8-9.4-1.1zM27.9 36.9c.1-.9.4-1.8.6-2.6-.4 0-.7.1-1 .1-.1.6-.2 1.1-.2 1.5.1.4.1.6.6 1zm41.8.8v.2c0 1.1.5 2.2.8 3l-.7.3c.5-.1.9-.2 1.3-.3.2-.3.3-.7.3-1.2-.1-.5-.4-1.1-.5-1.6l-.2-.2-.2-.2c-.2.1-.5 0-.8 0zm-12.2-1V40c0 .3 0 .5.1.6h.9c.1-.8.2-1.6.2-2.3 0-.6-.1-1.2-.3-1.7-.3 0-.6-.1-.9-.1v.2z"/><path fill="#FAB300" d="M36.6 38.7h.2c1 .1 1.8.3 2.6.5v-5h.1c-.3 0-.6-.1-.9-.1-.3 0-.6 0-1-.1-.5 1.6-.8 3.1-1 4.7zm7.5 3.2c.5 0 1.1.1 1.7.1h.8c1.9 0 3.8 0 5.7-.1.2-.1.4-.2.6-.2-1.7 0-3.4.1-5.1.1h-.7l-.1.2c-.1-.1-.2-.1-.2-.2h-1.3v.1h-.3c-.4 0-.7-.1-1-.1h-.6c.3-.1.4 0 .5.1zm10.7-2.6c0 .7.1 1.3.2 1.5h1.7v-.3c-.1-.5-.1-1.2-.1-1.9v-2c-.5 0-1.1-.1-1.6-.1 0 .6-.2 1.8-.2 2.8zm13.3-1.7c-.1.7-.4 1.6-.4 2.3 0 .6.2 1.1.6 1.4l-.1.1c.5 0 1-.1 1.5-.1-.3-.8-.9-2-.9-3.3v-.3c-.2-.1-.5-.1-.7-.1zM50 40.9l.1-.1-.1.1zM29.5 27.2c-.1 0-.1.1 0 0l-.1.1-.1.1c-.1.1-.2.3-.3.4-.1.2-.1.5-.2.8.2-.4.4-.9.7-1.4zm37.2 14.2h.5c-.3-.5-.4-1-.4-1.5 0-.8.2-1.7.4-2.4-.3 0-.6-.1-.9-.1.1 1.2.1 2.8.4 4zm-7.2-3c0 .8-.1 1.6-.2 2.3.6 0 1.2 0 1.7.1v-3.7h.8v3.8c.5 0 .9.1 1.4.2 0-.3-.1-.6-.1-.9 0-.9.1-1.9.1-2.6v-.3c-1.3-.1-2.7-.2-4-.4.3.4.3.9.3 1.5zm-7.2-2.2c.1.5.1 1 .1 1.4 0 1.1-.1 2.2-.2 3.2h2c-.1-.5-.2-1-.2-1.5 0-1.1.2-2.3.2-2.9-.6-.1-1.2-.2-1.9-.2zm-21-2.1c-.1.5-.1 1-.1 1.5 0 .9.1 1.7.3 2.6.1 0 .2.1.3.1.4 0 .8.1 1.3.1 0-1.5.1-2.9.2-4.3h-.7c-.4-.1-.8 0-1.3 0zm8.9.2v5.2c.6.3 1.2.6 1.8 1-.1-.5-.1-1.1-.1-1.7 0-1.4.2-3 .3-4.1-.7-.1-1.3-.3-2-.4zm-6-.3c-.1 1.5-.2 3-.2 4.4.6.1 1.2.1 1.8.2.2-1.6.5-3.1.9-4.6h-2.5zm13.6 1.8c-.1.9-.5 3-.5 4.4 0 .3 0 .6.1.8H49c.7-1.3.7-3.3.8-4.9-.4 0-.7-.1-1.1-.1-.3-.2-.6-.2-.9-.2zm-5.1 3c0 .7.1 1.4.2 1.9.3 0 .6.1 1 .1v-1.2c0-1.5.1-3.1.7-4.4-.5-.1-1.1-.2-1.6-.3-.1 1.1-.3 2.6-.3 3.9zm21.5-1.3c0 .8-.1 1.7-.1 2.6 0 .4 0 .7.1 1 .5.1 1.1.2 1.6.3h.1c-.4-1.4-.3-3-.4-4-.5 0-.9-.1-1.4-.1.1 0 .1.1.1.2zm-14.3 3.2c.1 0 .1.1.1.1v.1h1.3c.1-1.1.2-2.2.2-3.2 0-.5 0-1-.1-1.5-.3 0-.6 0-.9-.1 0 1.4 0 3.2-.6 4.6zm-20.4-6.5c-.3 1-.7 2.1-.7 3v.1c.6.2 1.2.4 1.9.6-.2-.8-.2-1.6-.2-2.4 0-.5 0-1 .1-1.5H30c-.1.1-.3.1-.5.2zm16 1.2c-.6 1-.7 2.7-.7 4.2v1.3c.6 0 1.2 0 1.8.1v-.7c0-1.5.4-3.7.5-4.4h.4c-.8-.3-1.4-.4-2-.5z"/><path fill="#511B2A" d="M35.2 20.3l-.1.1h-.3v.2c-1.4 1.1-2.5 2.2-3.5 3.6-.7 1-1.3 2-1.9 3-.2.5-.5 1-.7 1.5-.6 1.6-1 3.2-1.2 4.9h-.3v-.1c-.1 0-.1 0-.1.1h-.3v.2c-.1.8-.2 1.4-.3 2v.4c.1.7.6 1.4 1.7 1.9-2.1-.1-4.1-.2-6.2-.3h-.2v.3c0 .2.1.3.2.4-.2.7-.3 1.7-.3 2.4v.2l.1.1c.8.3 1.6.7 2.4.9h.2c.1.4.2.9.3 1.4-.6.9-1.3 1.7-2 2.6-.1.2-.1.4.1.6l.1.1c-.3.2-.6.4-.8.7-.1.2-.1.4.1.6.1.1.2.1.2.1.1 0 .3-.1.3-.2.3-.4 1.1-.8 1.6-1.3.2-.1.2-.4.1-.6-.1-.2-.4-.2-.6-.1-.1.1-.2.1-.3.2.4-.5.8-1 1.2-1.6.2 1.9.4 3.9 1.8 5.5 2 2.3 4.2 2.9 6.9 3.3-1.7 0-3.4.2-4.4.3-1 0-2.2.1-3.4.1l.1-.1c.1-.2 0-.4-.2-.5-.4-.2-.9-.2-1.4-.3-.5 0-1 .1-1.4.3-.2.1-.3.3-.2.5.1.2.2.2.4.2h.2c.2-.1.7-.2 1.1-.2.3 0 .7 0 .9.1-1.5.1-3.1.1-4.6.3-2.2.3-4.2.7-5.9 1.5-.2.1-.3.3-.2.5.1.1.2.2.4.2h.2c1.6-.8 3.6-1.2 5.8-1.4.5-.1 1.1-.1 1.6-.1-.1 0-.1.1-.2.1l-.1.1v.5c.4.8 1.1 1.3 1.9 1.3.2 0 .4 0 .6-.1.2 0 .4-.3.3-.5 0-.2-.3-.4-.5-.3-.2 0-.3.1-.5.1-.4 0-.7-.1-1-.5.2-.1.6-.2.9-.2.3 0 .7.1.9.2.2.1.4 0 .5-.2.1-.2 0-.4-.2-.5h-.1c1.5-.1 2.9-.1 4.2-.1 1.2-.1 3-.3 4.8-.3 1.4 0 2.8.2 3.3.6.2.1.4.1.6-.1.1-.2.1-.4-.1-.6l-.6-.3h.3c2.3 0 4.2-.7 6.1-2.7l.3-.3c-.1.6-.2 1.1-.2 1.6 0 .6.2 1.3.6 1.9.3.3.5.4.6.5.1.1.2.1.2.2.1.2.2.4.3.8.1.3.3.8.8 1 .1 0 .1.1.2.1-.1.5-.1 1-.1 1.6v.3c0 .6 0 1.1-.1 1.5-1.5.1-2.8 1.1-4.2 1.2h-.6c-2 0-3.8-.9-4.7-2.3-.1-.2-.4-.2-.6-.1 0-.3 0 0 .1.2 0 0 0 .1.1.1 1.1 1.6 3.1 2.6 5.3 2.6h.7C44 62 45.4 61 46.6 61c.4 0 .9.1 1.4.4.8.5 1.5 1.2 2.3 1.7.8.5 1.7 1 2.9 1h.2c.8 0 1.9-.5 3-.9 1-.4 2.1-.8 2.3-.8.2.1.4 0 .5-.2v-.1c0-.2-.1-.3-.2-.4-.1-.1-.2-.1-.3-.1-.2 0-.4.1-.7.1-.5.2-1.2.5-2 .7-1.1.4-2.2.9-2.8.9H53c-1.1 0-1.8-.3-2.5-.8s-1.4-1.2-2.3-1.8c-.4-.3-.9-.4-1.3-.5.1-.5.1-1 .1-1.6v-.3c0-.5 0-1.1.1-1.5.3-.1.6-.3.8-.4.3-.2.5-.5.7-.6 0 0 .1 0 .1-.1.9-.7 1.2-.5 2.6-.6.2 0 .3-.1.4-.3.2-.7.2-1.4.2-2 .9 1.2 2 2.1 3.4 2.5 2.8.8 4.4 1.3 7.1 1.3.5 0 1.1 0 1.8-.1 1.6-.1 2.7-.6 3.6-1.3.1.3.2.7.2 1 .3 1.5 1.1 2.6 1.3 3.8-3.8-1.3-7.7-2-11.2-2-.2 0-.4.2-.4.4s.2.4.4.4c4.5 0 9.9 1.3 14.5 3.4.1.2.2.3.4.3h.2c.6.3 1.1.5 1.6.8.2.1.4.2.5.3.1 0 .1.1.2.1h.2s.1 0 .1-.1c0 0 .2-.1.2-.4 0-.2-.1-.3-.2-.4-.2-.1-.2-.1-.3-.1-.1 0-.1 0-.2-.1-.2-.1-.4-.2-.7-.3-.4-.2-.8-.4-1.3-.6-.1-1.3-.3-2.5-.6-3.6-.6-1.9-1.4-3.7-1.9-5.6-.2-.7-.3-1.4-.4-2.1.5-1.2 1.1-2.2 2.1-3.1.6-.5 2.1-1.1 2.2-2.6 0-.3-.1-.5-.2-.8v-.6h-.2c-1.2-.2-2.5-.4-3.8-.7v-.4c.4-.1.9-.2 1.3-.4l.2-.1.1-.2c.1-.2.1-.4.1-.6 0-1-.5-2-.8-2.8 0-.2.1-.3.1-.5l-.6-.6c0 .1-.1.3-.1.4h-.3v-.2c-.1-.1-.4-.4-.6-1 .1 0 .1 0 .2.1l-.3-.3c-.6-1.6-1-4.3-1-5.2-.2-2.7-1.8-4.6-2.7-6.8l.2-.2c-.1-.1-.2-.2-.4-.3-.5-1.5-.4-3.5-2.1-4.8-2.2-1.6-5.8-1.5-8.3-1.9-2.3-.4-4.6-.6-7-.6-1.9 0-3.8.1-5.7.4-1.6.2-3.7.2-5.2 1.3-.9.3-1.5 1.7-2.4 2.4zm-4.7 13.8c-.1.5-.1 1-.1 1.5 0 .8.1 1.6.2 2.4-.7-.2-1.3-.4-1.9-.6v-.1c0-1 .4-2 .7-3 .2 0 .4 0 .5-.1.2-.1.4-.1.6-.1zm8 0c.3 0 .6.1.9.1h-.1v5c-.7-.2-1.6-.4-2.6-.5h-.2c.2-1.6.5-3.1.9-4.6h1.1zm24.8 3v.3c0 .7-.1 1.7-.1 2.6 0 .3 0 .6.1.9-.5-.1-.9-.1-1.4-.2v-3.8l-.9.1v3.7c-.6 0-1.2-.1-1.7-.1.1-.7.2-1.5.2-2.3 0-.5-.1-1.1-.2-1.6 1.3.2 2.7.3 4 .4zm6.5 4.1c-.5.1-1 .1-1.5.1l.1-.1c-.5-.3-.6-.8-.6-1.4 0-.7.2-1.6.4-2.3.3 0 .6 0 .8.1v.3c-.1 1.4.5 2.5.8 3.3zm4.5 2.2v.5c.1.2.1.5.1.6 0 1-1.3 1.6-2 2.2-1.2 1-1.9 2.3-2.4 3.7-1.1 3-2.1 5.4-5.7 5.6-.7 0-1.2.1-1.8.1-2.7 0-4.1-.4-7-1.3-2.9-.9-4.8-4.6-5.3-7.5v-.2H50c-.7-.1-1.3-.2-1.9-.2-1.3 0-2 .4-2.7 1-.6.7-1.2 1.5-2.3 2.6-1.9 1.9-3.6 2.5-5.8 2.5-.8 0-1.6-.1-2.6-.2-3.2-.5-5.7-.8-7.8-3.3-1.9-2.2-1.4-5.2-2.2-8v-.1h-.1c-.8-.2-1.6-.5-2.4-.8 0-.8.1-1.8.3-2.3l.1-.2c4.7.2 9.5.5 14.1 1 3.6.4 5 1.8 7.9 3.6 1.1.7 2.2 1 3.2 1 1.9 0 3.6-1 5.7-1.7 1.7-.6 3.6-.8 5.5-.8 5.1-.1 10.7 1.5 15.3 2.2zm-30.4-1.8h.4c.3 0 .6.1 1 .1h.3v-.1h1.3c.1.1.1.2.2.2l.1-.2h.7c1.7 0 3.4 0 5.1-.1-.2.1-.4.2-.6.2-1.7.7-3.1 1.3-4.5 1.3-.4 0-.7 0-1.1-.1 0-.4 0-.7-.1-1.1h-.8c0 .3.1.6.1.9-.3-.1-.6-.3-1-.5-.3-.2-.5-.3-.8-.5-.1-.1-.3-.2-.4-.2 0 .1.1.1.1.1zm21.6-4.5zm0 .2c.1 1 0 2.6.4 4h-.1c-.5-.1-1.1-.2-1.6-.3-.1-.3-.1-.6-.1-1 0-.8.1-1.8.1-2.6v-.3c.4.2.8.2 1.3.2zm1.4 2.6c0 .5.1 1.1.4 1.5h-.5c-.4-1.2-.4-2.8-.4-4 .3 0 .6.1.9.1-.2.6-.4 1.5-.4 2.4zm-8.6-3.2c.2.5.3 1 .3 1.7s-.1 1.6-.2 2.3h-.9c0-.2-.1-.4-.1-.6v-3.4h.9zm-1.7-.1v2c0 .7 0 1.4.1 1.9v.3H55c-.1-.3-.3-.8-.2-1.5 0-1 .2-2.2.2-2.9.6.1 1.1.1 1.6.2zm-2.4-.3c0 .7-.2 1.9-.2 2.9 0 .5 0 1.1.2 1.5h-2c.1-1 .2-2.1.2-3.2 0-.5 0-1-.1-1.4.7.1 1.3.2 1.9.2zm-2.7-.2c.1.5.1 1 .1 1.5 0 1.1-.1 2.2-.2 3.2h-1.3v-.1l-.1.2.1-.1-.1-.1c.5-1.4.6-3.2.7-4.7.2.1.5.1.8.1zM49 40.9h-1.6c0-.2-.1-.5-.1-.8 0-1.4.4-3.4.5-4.4.3 0 .6.1.9.1.4 0 .7.1 1.1.1-.1 1.7-.2 3.7-.8 5zm-2-5.2c0 .8-.5 2.9-.5 4.4v.7c-.6 0-1.2 0-1.8-.1v-1.3c0-1.5.1-3.2.7-4.2.6.1 1.2.2 1.9.3l-.3.2zm-3.1 3.9v1.2c-.3 0-.6 0-1-.1-.2-.5-.2-1.2-.2-1.9 0-1.3.2-2.8.3-3.9.5.1 1.1.2 1.6.3-.6 1.3-.7 2.9-.7 4.4zm-1.9.9c-.6-.4-1.2-.7-1.8-1v-5.2c.7.1 1.3.2 2 .4-.1 1.1-.3 2.7-.3 4.1 0 .6 0 1.2.1 1.7zm-6.2-1.9c-.6-.1-1.2-.1-1.8-.2 0-1.5.1-2.9.2-4.4h2.6c-.5 1.5-.8 3-1 4.6zm-2.7-.2c-.4 0-.8-.1-1.3-.1-.1 0-.2-.1-.3-.1-.2-.9-.3-1.7-.3-2.6 0-.5 0-1 .1-1.5h2c0 1.3-.1 2.8-.2 4.3zm-5.5-4c.3 0 .6-.1 1-.1-.3.8-.6 1.7-.6 2.6-.5-.3-.5-.6-.6-1 0-.4.1-.9.2-1.5zm23.7 17.7c0 .6 0 1.2-.1 1.7 0 .1 0 .3-.1.4-1.1 0-1.8 0-2.8.8-.1 0-.1.1-.1.1l-.6.6c-.1.1-.1.1-.2.1 0-.1-.1-.1-.2-.1-.2-.1-.4 0-.5.2h-.1c-.3-.1-.3-.2-.4-.5 0-.1-.1-.3-.1-.4-.1-.2-.1-.4-.3-.6-.4-.5-.8-.6-.9-.8-.3-.3-.4-.6-.4-1v-.3c0-.6.2-1.3.3-2.1 0-.2 0-.3-.2-.4.5-.6.8-1.1 1.2-1.4.6-.6 1.1-.9 2.4-.9.4 0 1 0 1.6.1.2 1.2.7 2.6 1.4 3.8.1.3.1.5.1.7zm18.8 8c.1-.1.2-.2.1-.4-.3-1.4-1.1-2.5-1.3-3.8-.1-.5-.2-1-.4-1.6.6-.8 1.1-1.7 1.5-2.7.1.3.1.5.2.8.8 3.2 2.2 5.5 2.4 8.7-.8-.3-1.7-.7-2.5-1zm-.1-18c-.1 0-.2 0-.3-.1h.3v.1zm.9-4c.2.5.4 1.1.5 1.6.1.3.1.6.1.9v.2c-.1.1-.3.1-.4.2-.4.1-.9.2-1.3.3l.7-.3c-.3-.8-.8-1.9-.8-3v-.2c.3 0 .6 0 .8.1h.2v.1c.1 0 .2.1.2.1zm-15.3-21c2.4.4 5.7.5 7.6 1.6.1.1.2.1.3.2 1.1.8 1.3 2.1 1.6 3.6-2.1-1-5.1-1.3-7-1.8-2.9-.7-5.3-1.4-8.4-1.4h-1.4v.8h1.3c2.9 0 5.2.6 8.2 1.4 2.2.6 5.8.9 7.6 2.1v.1c1 2.4 2.5 4.2 2.7 6.7 0 .5.1 1.3.3 2.3-2.3-1.6-4.8-1.7-7.8-1.9v.8c3.4.2 5.7.3 8 2.2l.1-.1c0 .2.1.4.1.5v.2c0 .1 0 .2.1.3.2.6.3 1.2.6 1.7.1.2.2.3.3.5-7-.6-13.8-1.2-21-1.8-3.4-.3-6.6-1.4-10.2-1.8-1.1-.1-2.2-.1-3.3-.1h-2.6c-.8 0-1.8 0-2.7.1-.3 0-.9.1-1.4.2.1-1.2.4-2.4.8-3.6 2.3-1.3 4.9-2.9 7.6-3.2l-.1-.8c-2.5.3-4.9 1.6-7 2.8.6-1.4 1.4-2.7 2.3-4 .9-1.3 2.1-2.4 3.4-3.5 2-.4 3.5-1.5 5.5-1.5h.4l.1-.8h-.5c-1.6 0-2.8.6-4 1-.1 0-.1.1-.2.1.1-.2.3-.3.4-.5.4-.6.8-1.2 1.3-1.5 1.1-.9 3.2-.9 4.8-1.1.7-.1 1.4-.2 2.1-.2 1.2-.1 2.3-.1 3.5-.1 2-.1 4.3.1 6.6.5z"/><path fill="#FAB300" d="M18.7 83.8c.1-.4.3-.9.5-1.4.3-.8.4-1.7.4-2.7 0-.6-.2-2.3-.2-3.8-1.3 2.3-3.1 4.4-3.1 6.3 0 1 .4 1.9 1.7 3 .3-.5.5-.9.7-1.4z"/><path fill="#FAB300" d="M15.7 82.2c0-2.5 2.3-4.9 3.6-7.4.1-.3.3-.5.4-.8 0-.1.1-.2.2-.3.1-.2.1-.3.2-.5-.1.2-.3.3-.4.5-1.4 1.6-3.3 3.4-4.2 5.2-1.6 3 .2 6.1 3.3 7.9 1.5.9 2.9 1.8 4.3 2.7-1.7-1.1-3.4-2.3-4.8-3.4-1.9-1.2-2.6-2.5-2.6-3.9zm58.8-9.7l-.2-.2c.6.9 1.2 2.3 1.9 3.1.1.1.2.3.3.4-.3-.7-.6-1.4-1-2-.4-.6-.7-1.1-1-1.3zM38.8 84.3v-.1c.2.7.3 1.5.3 2.2v.4c-.2 2.4-2 4.2-2.5 6.2.3 0 .6.1.8.1 2.1-2.5 2-5.9 1.4-8.8z"/><path fill="#FAB300" d="M18.7 85.4c0 .1-.1.2-.1.3 1.8 1.4 3.9 2.9 6.1 4.2l-6-4.5zm18 21c.1-.7.1-1.4.3-2.1.2-1.1.7-2.7 1.4-4.4-.6.7-1.1 1.3-1.4 2-.7 1.5-.6 3-.3 4.5zm32.9-2c-.1-.3-.2-.7-.3-1.1-1.6-.6-4.7-1.4-6.4-1.5h-.6c-.9 0-1.8.1-2.7.3.8 0 1.5-.1 2.3-.1 2.8.1 6.8.7 7.7 2.4zm-34.2 22.5c0-.1 0-.1 0 0-.1-.1-.1-.1 0 0-.3.4-.6.9-.9 1.4-1 1.3-2.6 2.1-2.9 3.2.2.1.4.1.6.2.1 0 .3 0 .4.1l2.8-4.9zm27.5-53.3h-.1c-.2.2-.1 1.4-.3 2.1-.3.9-.8 1.4-.9 2.4-.2 2 1.2 4.1 2 5.9.1.4.4.8.7 1.3-.7-2.4-1.9-4.8-2.1-6.7v-.5c0-1.7 1.1-3.5 1.1-4.5v-.1h-3l2.7.1c-.2-.1-.2-.1-.1 0zm-16-.5c.1-.1 0-.1 0 0 0-.1 0 0 0 0zM55 85.4l.3-2.7c-.1-1.5-.3-3-.5-4.5-.3-1.4-.7-2.9-.8-4.5h-.7c-.3 0-.6 0-.9-.1h-.2c-.3 0-.5 0-.8-.1-1.3-.1-2.6-.3-3.9-.5.6 1.7.8 3.7.8 5.6 0 1.1-.1 2.1-.1 3.2-.1 1.4-.5 2.9-.8 4.2-.6 3-3.4 5.3-3.4 7.9h4.2c1.5-.1 3.2-.2 4.9-.4.1-2.7 1.6-5.5 1.9-8.1zM38.6 72.1l.2.4c-.6.3-1 1-1.3 1.8.4-.7 1-1.4 1.6-2.1-.1 0-.3 0-.5-.1zm33.3 9.5c-.1-1-.6-1.9-1-2.9.3.9.5 1.8.6 2.7 0 .3.1.6.1.9 0 .9-.1 1.7-.1 2.5 0 .3 0 .6.1.9.1.9.4 1.7.5 2.6.1 0 .2-.1.2-.1-1.2-1.8-.1-4.8-.4-6.6zm-8.1 29.2c-2-.3-4-.5-6.1-.5-.7 0-1.3 0-2 .1-2.1.1-3.9.4-5.9.4-.7 0-1.4 0-2.2-.1-3.5-.4-6.9-.6-10.3-1.6.1.2.1.4.2.7.2.6.3 1.2.4 1.9v.2c.1.6.1 1.2.1 1.8.1 0 .2.1.3.1.8.3 1.8.6 2.9 1 2.2.7 4.5 1.5 5.2 1.6 3 .5 5.9.9 9 .9h.6c2.4-.3 4.7-.8 7.1-.9 2.2-.1 7-.4 9.1.5h.7c-.3-1.6-.8-3.3-1.2-4.9-2.1-.6-5.4-.7-7.9-1.2zm9.9 13.9v.2c-.1-.1-.3-.2-.5-.4-1.7-.4-4.5-.6-6.1-.6h-.2c-3 0-5.8.5-8.8.8-1.1.1-2.3.2-3.5.2-2.5 0-5-.2-7.4-.7-1.9-.3-3.9-.7-5.7-1.2-.5-.1-1.6-.5-2.7-.9-.7-.2-1.3-.4-1.7-.6-.1.6-.3 1.3-.5 1.9-.3.8-.6 1.7-1 2.6l.1.1c.2.1.5.3.8.5 3.1.8 6.3 1.9 9.4 2.7 3.7.8 7.5 1.2 11.3 1.2h9.2c.8 0 2.2-.1 3.6-.1 1.1 0 2.1 0 2.8.4.1-.2.1-.3.1-.4.5-1.9.7-3.8.8-5.8.1.1 0 .1 0 .1zM31 131.4c.4-1.6 2.2-2.3 3-3.5.4-.5.6-1.1.9-1.7v-.2h.1c.4-.9.7-1.8 1-2.7.1-.1.1-.3.2-.5-.1.2-.2.3-.3.5-.2.3-.3.5-.5.8-1.6 2.4-3.7 4.6-5.1 7 .2.1.4.2.7.3zm22.9-37.9c.4-2.1 1.2-4.1 1.4-6.2-.5 2.2-1.4 4.3-1.4 6.2 3.2-.4 6.6-1 9.9-1.9l-.2-.1s0-.1.1-.1c-.8.2-1.8.2-2.6.4-2.5.5-4.9 1.1-7.2 1.7zm-14.5 21.3c-.5-.2-.9-.3-1.3-.4v.3c.4 0 .8.1 1.3.1zm2.4-13.7c-.9-.4-1.9-.8-2.9-1.1-.1.3-.2.5-.3.8.7 0 1.9.1 3.2.3zm30.1 30.3c-.5-.1-1.1-.1-1.7-.1-.8 0-1.7 0-2.4.1 1.3 0 2.8.1 4.1 0z"/><path fill="#FAB300" d="M38.3 72.1c-5.1-.6-9.9-1.7-13.8-4.6-.1.1-.2.2-.3.4v.1c.7 1 2.4 1.2 3 1.9.1.1.1.2.2.3.1-.1.1-.3.2-.4l.6.4c-.6.9-1 2-1.3 3-.3 2-.4 4.2 0 6.1l.3 1.5c.7 1.8 1.1 3.7 1.2 5.6v.8c0 .3 0 .6-.1.8 0 .3 0 .6-.1.9l-.3.6c-.3.6-.5 1-.8 1.5 1 .4 1.9.8 3 1 .6.1 1.2.3 1.7.4 1.4.2 2.7.3 4.1.4.5-2.3 2.4-4.1 2.5-6.1v-.4c0-2.6-1.4-5.2-1.8-7.9-.1-.4-.1-.9-.1-1.4 0-1.7.4-3.9 1.8-4.9zm25.4 1.3v.2c0 1.3-1.1 3-1.1 4.5v.4c.3 2.4 2.3 5.9 2.6 9.2.4 1 .6 2.1 0 2.8-.2.2-.4.4-.6.5-.1.2-.2.3-.3.5 1.5-.4 3-.9 4.4-1.4.7-.6 1.5-1 2.5-1.5-.1-.9-.4-1.8-.6-2.8 0-.3-.1-.7-.1-1 0-.9.1-1.7.1-2.5v-.8c-.2-1.6-.8-3.3-1.5-4.9-.3-.7-.9-1.4-1.5-2.1l.1-.1c-.4-.6-.7-1-.7-1.3-1 .1-2.1.3-3.3.3zM25 67c0 .1 0 .1 0 0 0 .1 0 .1 0 0zm.6.5c-.2-.1-.3-.2-.5-.4.2.2.4.3.5.4zm50.5 6.1c1.2 2.1 2.1 4.6 2.3 7.1.1.4.1.8.2 1.3.1-2-.4-4.2-.9-5.6-.3-1.2-.7-2.4-1.7-3.3-.1-.1-.3-.2-.4-.4.2.3.3.5.5.9zm-28.9 4.1c.2 1.8.2 3.8.2 5.6v.2c.1-.5.2-1.1.2-1.6.1-1 .1-2 .1-3.1 0-1.8-.2-3.6-.7-5.2.2 1.3 0 2.9.2 4.1zm-8.9 30.5c-.5-.2-.8-.3-1.1-.4v.5c1.7.5 3.4.8 5.2 1-1.4-.2-2.8-.6-4.1-1.1zm35.5 15.2c0 .2 0 .4-.1.6h.1v-.6z"/><path fill="#FAB300" d="M73.3 132.9c1.5-2.6 1.6-5.3 2-8.3.5-3.8-.9-7.1-2-10.7-.1-.3-.2-.7-.2-1.1-.1-.6-.2-1.1-.2-1.7-.1-1.2-.2-2.3-.5-3.5-.4-1.3-1.4-2.5-2.1-3.7.1.5.2.9.4 1.3 1 3.6 2.2 7.5 3 11.5.1 0 .3.1.4.1l-.2.6c.4 2.2.7 4.5.8 6.7v.4c0 2-.2 4.1-.8 6.1 0 .1-.1.3-.1.4-.2.7-.7 1.9-1.2 3-.1.1-.1.3-.2.4.1-.1.2-.3.4-.4 0-.3.3-.7.5-1.1z"/><path fill="#FAB300" d="M69.5 136.3l.9-.3c.4-.5.9-1.3 1.4-2.2.4-.8.7-1.6 1-2.2-1.5 1-2 3.3-3.3 4.7zm-26-43c-1.1 0-2.3.1-3.4.1 1 .1 2 .3 2.9.5v.1h.4c.1-.2.1-.5.1-.7zm-.8 1.5l.1.6c-.2 0-.4.1-.5.2-.4.6-.9 1.2-1.5 1.8-.3.3-.7.7-1.1 1-.1.2-.2.4-.3.7 0 .1-.1.2-.1.3 1.9.5 3.5 1.5 5.3 2 2.8.7 6.6.8 9.7.8h.5c2.5 0 5.1-.9 7.7-.9h.7c1.6.1 4.4.8 6.1 1.4-.4-1.4-.7-2.9-1-4.4-.4-1.9-.6-3.9-.5-5.7 0-.5.2-1 .4-1.4-6.4 2.2-13.7 3.4-19.7 3.6H46c-1 0-2 0-3-.1-.2 0-.2 0-.3.1zm1-2.4c.7-2.3 2.7-4.3 3.1-6.4 0-.2.1-.4.1-.6-.8 2.4-2.9 4.5-3.2 7z"/><path fill="#CF141E" d="M37.6 104.4c-.2 1.1-.3 2.3-.3 3.4.2.1.6.2 1.1.4 1.3.5 2.7.8 4.1 1.1 1.7.2 3.5.4 5.3.6.7.1 1.4.1 2.1.1 1.9 0 3.7-.3 5.9-.4.7 0 1.4-.1 2-.1 2.1 0 4.2.2 6.2.5 2.4.4 5.4.5 7.6.9-.5-1.9-1.1-3.8-1.6-5.6-.1-.3-.2-.7-.3-1-1-1.8-4.9-2.4-7.7-2.4-.8 0-1.5 0-2.3.1-1.6.3-3.2.6-4.9.6h-.5c-3.1 0-6.9-.1-9.8-.8-.9-.2-1.7-.6-2.6-.9-1.3-.2-2.5-.3-3.2-.3-.5 1.6-.9 2.9-1.1 3.8zm-1.3 17h.1v-.1l-.1.1v-.1.1zm.2-.4c.2-1.1.2-2.3.2-3.4v-.1c-.2 1.2-.4 2.4-.4 3.6l.2-.1zm-.2.4zm37.4 3.3c-.1 0-.3-.1-.5-.1.2.1.3.2.5.4-.1-.1 0-.2 0-.3zm-10.6-8.5c-2.5.1-4.8.6-7.1.9h1c3.1-.1 6.1-1 9.3-1h.2c1.4 0 2.4.3 3.6.5.4.1.9.1 1.5.1h.6c-2.1-.9-6.9-.6-9.1-.5z"/><path fill="#CF141E" d="M73.8 123.4c-.1-2-.4-4-.8-6h-1.4c-.5 0-1.1 0-1.6-.1-1.3-.2-2.2-.5-3.5-.5h-.2c-3.1 0-6.1.9-9.3 1h-1.6c-3.2 0-6-.4-9.1-.9-.8-.1-3-.9-5.2-1.6l-1.8-.6c-.4 0-.9-.1-1.3-.1h-.6v2.8c0 1.1 0 2.3-.2 3.4h.1c.4.2.9.3 1.5.5 1.1.4 2.4.8 2.9.9 1.8.5 3.7.9 5.6 1.2 2.3.4 4.8.6 7.3.6 1.2 0 2.3-.1 3.4-.2 3-.3 5.7-.8 8.9-.8h.2c1.8 0 4.8.2 6.6.7 0 .1.1-.1.1-.3zm-4.3 12.9c1.4-1.4 1.9-3.8 3.2-4.8-.2-.1-.4-.1-.8-.2-1.3.1-2.8.1-4.2 0H57.3c-4 0-8.1-.4-11.9-1.3-.8-.2-2.9-.7-5-1.2-2-.6-4.1-1.2-5.1-1.9l-2.8 4.9v.1c8.3 2.8 18.5 3.1 27.3 3.9 2.2.2 5.4 1.2 7.7 1.2.4 0 .9 0 1.2-.1.4-.2.6-.4.8-.6z"/><path fill="#CF141E" d="M36.6 126.7s.1 0 .1.1c.8.4 1.9.7 3.1 1.1 2.3.7 4.9 1.3 5.8 1.5.1 0 .3.1.4.1-3.2-.9-6.3-1.9-9.4-2.8zm37 4.4zM19.2 82.4c-.2.5-.4.9-.5 1.4.2-.5.4-.9.5-1.4z"/><path fill="#CF141E" d="M24.1 68H24c-1.5 1.8-2.5 3.7-3.5 5.9l-.1.1c0 .1-.1.2-.1.3 0 .1 0 .1-.1.2-.1.4-.1.8-.1 1.4 0 1.4.2 3.1.2 3.8 0 2.1-.8 3.9-1.6 5.6l5.9 4.5c.6.3 1.2.7 1.8 1 .3-.6.6-1 .8-1.6.3-.7.3-1.3.3-1.9v-.8c-.1-2-.6-3.9-1.3-5.7-.5-1.3-.7-2.7-.7-4.1 0-2.2.6-4.4 1.6-6.4 0-.1-.1-.2-.2-.3-.4-.9-2.1-1.1-2.8-2zm4.2 20.1c-.1.4-.2.9-.3 1.3 0 .1 0 .1-.1.1.1-.2.3-.4.3-.6.1-.2.1-.5.1-.8z"/><path fill="#CF141E" d="M26.8 73.3c-.3 1.1-.5 2.3-.5 3.4 0 1.4.2 2.7.7 3.9 0 .1.1.2.1.3l-.3-1.5c-.4-2-.3-4.2 0-6.1zm10.6 19.8c-.1.1-.1.2-.2.2.9 0 1.9.1 2.9.1 1.2 0 2.3 0 3.4-.1 0-.3.1-.6.2-.9.3-2.5 2.3-4.6 3.2-7 .1-.6.3-1.3.4-1.9v-.2c0-1.9 0-3.8-.2-5.6-.1-1.2 0-2.8-.1-4.1-.1-.2-.1-.3-.2-.5h.1v-.2c-.6 0-1.2-.1-1.7-.1-2-.2-4-.3-6-.5-.6.8-1.1 1.5-1.6 2.1-.3.9-.4 1.9-.4 2.8 0 .5 0 .9.1 1.3.2 1.9 1.1 3.8 1.5 5.8v.1c.6 2.8.7 6.2-1.4 8.7zm18.6-12v.9c0 1.2-.1 2.4-.3 3.5-.1.6-.2 1.2-.4 1.9-.3 2.1-1 4.1-1.4 6.2 2.3-.7 4.7-1.2 7.1-1.7.8-.2 1.8-.2 2.6-.4.7-.9 1-1.9 1-3 0-1-.2-2.1-.5-3.1-.3-.5-.5-.9-.7-1.3-.7-1.8-2.2-3.9-2-5.9.1-1 .6-1.5.9-2.4.2-.6.1-1.9.3-2.1l-2.7-.1c-1.1 0-2.2 0-3.2-.1h-2.1c.2 2.6 1.2 4.8 1.4 7.6z"/><path fill="#CF141E" d="M55.3 82v-.9c-.1-1-.2-2-.5-2.9.2 1.5.3 3 .5 4.5V82zm10.1 8.5c.5-.8.4-1.8 0-2.8v.8c0 .9-.2 1.8-.6 2.6l.6-.6zm-2.6-17h.1-.1zm11.5-1.2c-.3-.2-.5-.2-1-.2-.3 0-.8.1-1.3.2-1.6.3-3.2.6-4.8.8 0 .3.3.7.7 1.3l.4-.4c.7.7 1.3 1.5 1.7 2.3l.9 2.4c.4.9.9 1.9 1 2.9.3 1.9-.8 4.8.4 6.6l.3.3c2-1 3.9-2.1 5.4-3.4h-.4c0-1 .2-1.7.3-2.7v-.7c0-1.9-.5-4-1.3-5.8-.1-.1-.2-.3-.3-.4-.8-.9-1.4-2.3-2-3.2zm4.2 9.4v.8c-.1.9-.2 1.6-.2 2.4l.2.2c.4-.7.4-1.9.2-3.1-.1-.4-.1-.9-.2-1.3-.1.3 0 .6 0 1z"/><path fill="#511B2A" d="M38.1 99.8zm-1.7 9z"/><path fill="#CF141E" d="M59.1 41.1c-2 0-3.8.2-5.5.8-2.1.7-3.8 1.7-5.7 1.7-1 0-2-.3-3.2-1-2.9-1.8-4.3-3.2-7.9-3.6-4.7-.5-9.4-.8-14.1-1l-.1.2c-.3.6-.3 1.5-.3 2.3.8.3 1.6.7 2.4.8h.1v.1c.8 2.8.3 5.8 2.2 8 2.1 2.5 4.6 2.8 7.8 3.3.9.1 1.8.2 2.6.2 2.2 0 3.9-.7 5.8-2.5 1.1-1.1 1.7-2 2.3-2.6.6-.7 1.4-1 2.7-1 .5 0 1.1.1 1.9.2h.2v.2c.5 2.8 2.4 6.6 5.3 7.5 2.8.8 4.3 1.3 7 1.3.5 0 1.1 0 1.8-.1 3.7-.2 4.6-2.6 5.7-5.6.5-1.4 1.2-2.7 2.4-3.7.7-.6 2-1.2 2-2.2 0-.2 0-.4-.1-.6v-.5c-4.7-.6-10.3-2.2-15.3-2.2zm-16.9 9.8c-1.6 1.3-3.5 1.8-5.4 1.8-1.9 0-3.8-.5-5.6-1-4.3-1.4-4.6-4.8-5.1-8.6l-.1-.5.4.3c.1-1.2.8-2.2 1.8-2.8 1.1-.6 2.6-.9 4.3-.9 2.7 0 5.7.7 8.1 2 2.4 1.2 4.2 3 4.2 5.2.1 1.4-.7 2.9-2.6 4.5zm28.3-4.3c0 1.7-.9 3.7-2.1 5.3-1.2 1.6-2.7 2.9-4.1 3.1-.7.1-1.5.1-2.3.1-3.8 0-9.1-.9-10.1-4.7-.1-.5-.2-1.1-.2-1.7 0-2.1.9-4.3 2.8-5.3 1.7-.9 3.4-1.4 5.1-1.4.7 0 1.3.1 2 .2 2.3.4 5.2.1 7.4 1.4 1.1.7 1.5 1.8 1.5 3z"/><path fill="#511B2A" d="M69 43.7c-2.2-1.3-5.2-1-7.4-1.4-.7-.1-1.4-.2-2-.2-1.8 0-3.4.4-5.1 1.4-1.8 1-2.8 3.2-2.8 5.3 0 .6.1 1.1.2 1.7 1 3.7 6.3 4.6 10.1 4.7.9 0 1.7 0 2.3-.1 1.4-.2 2.9-1.4 4.1-3.1 1.2-1.6 2.1-3.6 2.1-5.3 0-1.3-.4-2.4-1.5-3zm-7 10.9c-3.7 0-8.6-.9-9.6-4l.6.6c.1.1.2.1.3.1.1 0 .2 0 .3-.1.2-.2.1-.4 0-.6l-.1-.1-.3-.3h.1c.2 0 .4-.2.3-.5v-.5c0-.5.1-.9.3-1.2.4 1.6 1.9 3 3.7 3h.3c1.1-.1 1.8-.7 2.3-1.4v-.1c.4-.6.7-1.2 1-1.8.1.1.2.1.3.1.1 0 .3-.1.3-.2h.2c.5 0 1 .2 1.4.4 1.7.8 2.9 2.6 3.7 4.4.1.2.1.3.2.5-1 1-2 1.7-2.9 1.8-.8-.1-1.5-.1-2.4-.1zm-6-7.7c0-.1 0-.1 0 0 0-.2.1-.3.2-.4l.1-.1h.2c.1 0 .3-.1.4-.2h.2c.6 0 .9.2 1 .6-.2 0-.4.1-.5.3 0 .1-.1.3-.1.4-.1.2-.3.4-.5.5h-.3c-.2 0-.4-.1-.5-.1h-.1v-.5c.2-.3.1-.5-.1-.5zm-.5 1.8l.1.1-.1-.1c0 .1 0 0 0 0zm3.8.2c-.5.7-1 1.1-1.8 1.2h-.2c-.4 0-.9-.1-1.3-.3h.2c1.7 0 2.6-1.4 2.7-2.6 0-.5-.1-.9-.5-1.3-.2-.2-.4-.4-.7-.4h.5c.8 0 1.4.2 1.9.5.3.2.4.4.6.6-.1 0-.1.1-.2.2-.4.6-.7 1.5-1.2 2.1zM55 46.4c-.2.5-.3 1-.3 1.5v.5c-.2-.3-.3-.7-.3-1 0-.1 0-.1-.1-.2 0-.1-.1-.1-.2-.1.1-.1.2-.3.4-.4.2-.1.3-.2.5-.3zm12.7 5.5c-.8-1.9-2.1-3.9-4.1-4.8-.4-.2-.9-.3-1.5-.4h-.5c-.1-.6-.5-1.1-1-1.5-.6-.4-1.5-.6-2.3-.6-.3 0-.5 0-.8.1-1 .1-2.1.5-2.9 1.1-.7.4-1.2 1.1-1.6 1.8-.2.5-.4 1-.4 1.6v.6c-.2-.2-.4-.4-.5-.7v-.3c0-2 .9-4 2.5-4.9 1.3-.7 2.5-1.1 3.8-1.3 0 .2.1.4.2.4h.2c.2 0 .3-.1.4-.2 0-.1.1-.2.2-.3h.2c.6 0 1.3.1 2 .2s1.5.2 2.3.2c0 0 0 .1-.1.1-.1.2 0 .4.2.5h.2c.2 0 .3-.1.4-.2 0-.1.1-.2.3-.4.8.1 1.6.2 2.3.4-.7.3-1.4.6-1.8 1.1-.1.2-.1.4.1.6.1 0 .1.1.2.1s.3-.1.3-.2c.2-.3 1-.7 1.8-1 .2-.1.4-.1.6-.2.1.1.3.1.4.2.3.2.5.3.6.5.1.1.2.3.3.5 0 .7-.1 1.3-.1 2v1.5c-.4 1-.9 2.1-1.6 3-.1.1-.2.3-.3.4v.1zm-22.8-5.5c0-2.1-1.8-3.9-4.2-5.2-2.4-1.3-5.4-2-8.1-2-1.7 0-3.2.3-4.3.9-1 .6-1.7 1.5-1.8 2.8l-.5-.3.1.5c.4 3.8.7 7.2 5.1 8.6 1.8.6 3.7 1 5.6 1 1.9 0 3.8-.5 5.4-1.8 1.9-1.6 2.7-3.1 2.7-4.5zm-13.6 4.9c-1.4-.5-2.4-1.2-3.1-2 2.3-2.7 3.7-4.7 6.5-6 .4-.2.9-.4 1.5-.6.1 0 .2.1.3 0 .3-.1.7-.2 1.1-.3.1 0 .2-.1.4-.1-.2.8-.5 1.7-.5 2.7 0 .8.3 1.7 1.2 2.4.8.6 1.6.9 2.4.9.3 0 .6 0 .9-.1.5-.1.9-.3 1.4-.5v.7c-.4.2-.9.5-1.3.7-.2.1-.3.4-.2.6.1.1.2.2.4.2h.2c.2-.1.5-.2.7-.4l-1.1 1.1c-1.5 1.3-3.3 1.7-5.1 1.7-2.1 0-3.9-.5-5.7-1zm-4.4-8c0-1.3.6-2.2 1.6-2.8 1-.6 2.5-.9 4.1-.9h.3c.2.2.3.4.3.5v.1c0 .2.2.4.4.4s.4-.2.4-.4 0-.3-.1-.5h.1c.1 0 .1 0 .2.1 1.4.5 2.9.9 4.5 1.2.2 0 .5.1.7.1v.1l.5.1c-1 0-2.1.3-3 .5-.1-.1-.2-.1-.3-.1-.2.1-.4.1-.6.2-4 1.4-5.6 3.8-8.1 6.6-.7-1.4-1-3.1-1.2-5.1l.3.2-.1-.3zm17.3 4.3c0 .1-.1.2-.1.2l-.1.1v-.2c0-.5 0-1.1-.1-1.7.1-.2.1-.5.1-.8v-.4c.2.5.3 1 .3 1.5.2.5.1.9-.1 1.3zm-1.3-3.3c0 .1.1.2.1.4-.3.3-.9.6-1.3.6s-.7-.2-.9-.7v-.1c0-.1 0-.1-.1-.1.2-.3.5-.4 1-.5.4 0 .9.2 1.2.4zm-.1 1.5s-.1 0-.1.1c0 0 0-.1.1-.1zm-1.4 1c-.3 0-.5-.1-.7-.3.2.1.5.2.7.3zm-2.8-4.6c.5-.1.9-.1 1.4-.1.4 0 .7 0 1 .1.5.1.9.4 1.2.7.1.1.1.2.2.3-.2 0-.4-.1-.6-.1 0-.2-.1-.4-.4-.4h-.1c-.6 0-1.1.5-1.4 1-.3.5-.5 1.2-.5 1.8 0 .5.1 1.1.5 1.5.2.3.6.5.9.6-.6 0-1.2-.2-1.8-.7-.7-.5-.9-1.1-.9-1.7 0-.7.3-1.6.5-2.5.2-.3.1-.4 0-.5z"/></svg>