<svg version="1.2" baseProfile="tiny" xmlns="http://www.w3.org/2000/svg" viewBox="0 0 149.1 142.4"><path fill="#EEE9EA" d="M115 42.2v.4l.3-.3c-.1-.3-.2-.6-.3-1v.9zm-34.7 64.4c.1-.1.3-.1.4-.2 0-.1 0-.1.1-.2-.2.1-.4.3-.5.4zM66.5 81.9c-.1-.2-.1-.3.1-.5l.7-.7.2-.5c-.1 0-.2.1-.3.1-.1 0-.3 0-.4-.1-.1-.1-.1-.2-.1-.3-.4 1.4-.8 2.8-1.3 4.1h.7l.7-1.9c-.1 0-.2-.1-.3-.2zm13.7 21.3c-.9.6-1.8 1.3-2.7 1.9 1.5-.6 2.9-1.4 4.4-2.2 0-.2.1-.3.1-.5 0-.1 0-.3.1-.4-.7.4-1.3.8-1.9 1.2zm27.1-59.6c0-.8-.3-1.5-.8-2.2.2.9.3 1.7.3 2.6 0 .6 0 1.2-.1 1.8.4-.8.6-1.6.6-2.2zm-54.9 78.2c-.2-.5-.4-.9-.6-1.4-.2-.4-.4-.9-.7-1.4 0 .4 0 .8.1 1.3.3.5.7 1 1.2 1.5zm53-78.2c-.1 0-.1 0 0 0 .3.3.5.7.6 1.1V44c0-1.2-.2-2.4-.6-3.5v-.1c-.2-.1-.4-.3-.6-.4.2 1.1.3 2.3.4 3.4l.2.2zm.3 3.2c-.1.3-.3.6-.4.9v.3l.3-.3c-.1-.4 0-.6.1-.9zM90.9 72.3c-.2-.8-.4-1.6-.7-2.5-.1-.3-.2-.5-.3-.8v.1c.4 1.1.3 2.2 1 3.2zm13.5-39.1c0 .3-.1.5-.1.8 0 1.4.5 2.9 1.1 4.4.4.2.9.3 1.3.5.8.3 1.4.4 2 .4 1.8 0 3.1-1 4.8-2.1-.2-2.1-.9-4.3-2.6-5.3-1-.6-2.4-1-3.6-1.8-.5-.3-1.2-.9-1.8-1.6l-.1-.1c0 .3.1.6.1.9 0 .3 0 .5-.1.8-.1 1.1-.8 2-1 3.1zm-22.5 75.3c-.3.2-.7.5-.9.7v.7c.4 0 .7 0 1.1-.1v-1.5l-.2.2zm22.5-70.6zm29 31c0 1.8-.1 3.7-.2 5.4-.2 2.5-.4 5-.5 7.4v.3c0 1.8.9 3.6 2 5.3.1.1.1.2.2.3-1-3.5-.6-7-.8-10.9-.3-5.6 1-12.1-1.4-17.4.2 1.1.3 2.2.5 3.3.1 2.1.2 4.2.2 6.3zm-.6 42.5l.1.1c-.5-.5-.9-1.1-1.2-1.9 0 .2.1.5.1.6.1.4.5.8 1 1.2zm-22.5-62.5c.3 0 .5-.1.7-.1l-.7.1c0-.1 0 0 0 0zm-6.5-16.7c.3-.9.8-1.6.9-2.4 0-.2.1-.4.1-.6 0-.4-.1-.8-.2-1.2-.2.1-.5.1-.7.2-.1 1.4-.1 2.7-.1 4zm-23.2 9.2s0 .1 0 0c0 .1 0 .1 0 0zm14.2 41.5c-.3-1.3-.7-2.6-1.2-3.8.3 1 .6 2 1 3.1 0 .2.1.5.2.7zM80.6 39.7v.2l.1-.1-.1-.1zm30.5 94.5s-.1 0 0 0c-1 0-1.9.2-2.9.2h-.3c-.1 0-.2.1-.3.1 3.3.5 6.6.8 10 .3-.9 0-1.9-.2-2.8-.2-1.3-.2-2.5-.4-3.7-.4zm-50.6-1.5c3.1.5 6.7.4 10.3.1-3.4-.1-6.8-.3-10.3-.3.1.1.1.1 0 .2zm11.3-71c1.2-3 2.5-6.1 4.1-9 1.2-2.2 2.9-4.6 3.5-6.9.3-.9.5-1.9.8-2.8-.8 2.7-2.5 5.6-3.5 7.7-1.7 3.5-3.8 6.3-5.4 9.9-1.1 2.7-2.6 6-3.3 8.8-.3 1-.4 2.1-.5 3.2.3-.7.5-1.4.8-2.1 1-2.9 2.4-5.8 3.5-8.8zm36.8-16.2c-.3.6-.5 1.1-.7 1.6 1.3-.8 3.8-.6 5.4-.5 0-.1 0-.2-.1-.4-.2-.7-.6-1-1.1-1.4-.5-.3-1.2-.7-1.5-1.6-.3.1-.6.2-.8.4-.3.4-.8 1.1-1.2 1.9zm-25.7 56c-.1 0-.1 0 0 0-.1.3-.1.7-.2 1 .1 0 .1-.1.2-.1v-.9zm-1.1 11.8c-.2 0-.3-.2-.4-.3 0-.2 0-.3.2-.4.1-.1.3-.2.4-.2v-1.6c-.4 0-.7.1-1.1.1v4.6c0 1.1-.6 2.5-.6 3.6 0 .2 0 .4.1.6.1-.2.1-.4.1-.5l.7.1c0 .2-.1.3-.1.5.1 0 .2-.1.2-.1.4-2.1.6-4.2.6-6.3.1-.1 0-.1-.1-.1zm.6-9.7c0 .1-.1.3-.1.4.2-.1.3-.3.4-.4v-.1c-.1-.1-.2 0-.3.1zm9.1 13.1c.6-.3 1.2-.5 1.9-.7v-1.6c-.3.9-1 1.7-1.9 2.3zm4.2-15c.2 1.1.1 2-.1 2.8.4-1.1.6-2.3.6-3.4 0-1.9-.4-3.8-.7-5.8-.1-.6-.1-1.1-.2-1.7-.1.8-.2 1.5-.3 2.3-.2 2 .3 3.9.7 5.8zM77 80.3zm13.9-20.9c0-.1 0-.2.1-.2h-.3c.1 0 .2.1.2.2zm-9.5 3.2c-.1.9-.2 1.5-.2 1.9.1-.6.2-1.2.2-1.8v-.1zm.4 42.8c-.1.2-.2.5-.2.7.2-.1.5-.1.7-.2 0-.3.1-.7.2-1-.3.2-.5.4-.7.5zm-.5 1.7c-.1.3-.2.7-.2 1 .1-.1.2-.2.4-.3.3-.2.5-.4.8-.5v-.5c-.4.1-.7.2-1 .3zm8.1-47.9h.4c-.2-.2-.3-.4-.4-.6-.1-.1-.1-.2-.2-.2l-.1-.1c0 .8.3 1.5 1.1 2.3.3.3.7.6 1 1 .1 0 .1.1.2.1h.5c-.7-.7-1.3-1.5-1.9-2.3l-.6-.2zm11.8 44.4c-.7 1.6-1.8 3-2.1 4.6.9-1.6 2-3.1 2.3-5-.1.1-.2.3-.2.4zm19.1 19.5c0-.1-.1-.3-.1-.4v.5c.2.3.3.6.5.9-.2-.3-.3-.6-.4-1zm-17.8-28.8v.7c.2-1.1.3-2.2.4-3.3-.2.8-.3 1.7-.4 2.6zm-3.9 22.9c-.3 2.1-.7 4.2-.7 6.5h.6c.4-2.2.3-4.4.1-6.5zm10.3-44.4c-.2.1-.7 1.2-1 2.4-.2.7-.3 1.3-.4 1.9.5-1.5.7-2.9 1.5-4.4 0 .1-.1.1-.1.1zm7.2 56.8c0 .1 0 .1 0 0v.9c0 1.1 0 2.3-.7 3.2 1 .1 2.1.2 3.1.2h.5v-.1c0-.9.1-1.5.1-2.1 0-.6-.1-1-.4-1.7-.5-.1-1-.2-1.4-.3-.3.1-.7 0-1.2-.1zm3.8 2.2c0 .7-.1 1.3-.1 2.1.4-.1.9-.1 1.3-.3.7-.4 1.2-.9 1.8-1.4 0-.4.1-.8.1-1.2v-.3c-1.1 0-2.2-.2-3.3-.4.2.5.2 1 .2 1.5z"/><path fill="#EEE9EA" d="M85.4 132c.4 0 .9-.1 1.3-.1s.8-.1 1.2-.2c-.2-.9-.1-1.8-.3-2.4-.1-.4-.2-.8-.2-1.2 0-1.3.5-2.2.7-3.6 0-.3.1-.5.1-.8 0-1.2-.4-1.7-1.5-2.7-.6-.5-1-1-1.5-1.5-.3.1-.7.1-1 .2-1.1.3-2.1.6-3.1.9v-.1c-.1.1-.2.1-.3.2l-.1.5-.5-.4c-.5-.5-.7-1.1-.7-1.8 0-1.3.6-2.7.6-3.6v-4.6h-.3c-.2 0-.4-.2-.4-.4 0-.6.3-1.1.7-1.5 0-.5.1-1 .2-1.4-1.4.6-2.9 1.3-4.2 1.7-.2.1-.4 0-.5-.2-.1-.2 0-.4.1-.5 1.4-1.1 3-1.8 4.3-2.8.3-.2.6-.5 1-.7.1-.3.2-.5.3-.8-2.1 1.1-4.3 2.2-6.7 2.9-.2.1-.4 0-.5-.2-.1-.2 0-.4.1-.5 1.7-1.2 3.5-2.5 5.2-3.7.8-.5 1.6-1.1 2.4-1.6 0-.2 0-.4.1-.6-.7.4-1.3.7-2 1-1.2.5-2.5 1-3.7 1.5.1.2-.1.4-.3.5-1.2.3-2.4.7-3.6.8-.2 0-.4-.1-.4-.3 0-.2.1-.4.3-.5 2.5-.8 5-1.6 7.5-2.7.8-.3 1.6-.8 2.4-1.3V99c-.3-1.1-.4-2.3-.2-3.5.1-.5.2-.9.4-1.4 0-.7 0-1.4.1-2.1.2-3.5 1.1-6.8 1.7-10.1v-.2c0-.9.1-1.8.2-2.6.3-1.6.6-2.8.2-4.2-1-1-1.9-2.1-2.4-2.9-1.3-2.1-1.8-4.8-1.9-7.2v-.1c0-1.6.7-7 2-10.3-.3 0-.7-.1-1-.1h-.7c-.1 0-.2-.1-.2-.2-.2 0-.4-.1-.7-.2.4-.8.8-1.5 1.2-2.3h-.1c-.2.1-.4 0-.5-.2-.1-.2-.1-.4.1-.5.5-.4.9-.7 1.4-1 .1-.2.2-.5.3-.7-.1 0-.1-.1-.2-.1-.1-.1-.1-.3 0-.4.2-.4.4-.7.7-1.1.1-.6.1-1.3.1-2-.1-1.1-.4-1.8-.8-2.3h-1c-.3.9-.5 2-.8 2.9-.7 2.5-2.4 4.9-3.6 7-1.5 2.8-2.9 5.9-4 8.9-1.2 3-2.5 5.9-3.6 8.8-.6 1.6-1.1 3.1-1.7 4.6-.1 1.4-.2 2.7-.5 4 0 .1 0 .2-.1.3.4-.9 1.1-1.7 1.8-2.4L69 76c-.2.1-.5.2-.7.2-.1 0-.3 0-.4-.1-.1-.1-.1-.3-.1-.4.2-.6.6-1.2 1.1-1.6v-.2c.3-.5.7-.9 1.3-1.3l.4-1.1c-.3.3-.6.5-.7.8-.1.2-.2.3-.4.3h-.1c-.2-.1-.3-.3-.3-.5.2-.6.8-1.1 1.4-1.5h-.1c-.1 0-.2 0-.3-.1-.2-.2-.2-.4 0-.6.6-.6 1.2-1.3 1.8-1.9l4.4-11.8c.2 3-.8 6.1-1.5 9.2.1-.1.3-.1.4 0 .1.1.2.2.2.4s-.1.4-.2.6c-.1.1-.3.2-.5.1l-.2.2c-.1.5-.2.9-.2 1.4.5-.4 1.1-.8 1.6-1.2.2-.1.4-.1.6 0 .1.2.1.4 0 .6-.7.6-1.5 1.2-2.2 1.7-.1.6-.1 1.2-.1 1.9l.9-.3c.2-.1.4 0 .5.2.1.2.1.4-.1.5-.3.4-.8.6-1.2.9 0 .2.1.4.1.6.3-.1.7-.1 1.1-.1h.5c.1 0 .2.1.3.2.1.1.1.2 0 .4-.3.6-.8 1.1-1.4 1.5.1.4.2.8.4 1.2.3-.1.6-.1.9-.2.2 0 .4 0 .4.2.1.2.1.4-.1.5-.3.3-.5.5-.8.7.1.3.2.5.3.8h.6c.1 0 .3.1.3.2.1.1.1.3 0 .4-.1.2-.3.4-.4.6.1.1.1.3.2.4h.4c.3 0 .6 0 .8.2.1.1.2.1.2.3v.3c-.2.3-.5.6-.8.9.5 1.3 1 2.7 1.4 4 1.4 5 .3 6.9-5.7 5.7-3.5-.7-6-3.5-7.9-6.2-.3.8-.7 1.6-1.1 2.3-.2.8-.5 1.6-.9 2.4-2.3 4.6-5.7 8.1-8.5 12.2-.9 1.3-1.7 2.9-2.4 4.4-1.1 3.1-1.3 6.1-1.3 9.3.1.1.1.2.1.3 0 .1 0 .1-.1.1v1.1c.5 1 1.1 2.2 1.5 3.1.5 1.3 1.2 2.5 1.8 3.7 1.9 1.9 3.9 3.7 4.8 5.6.5.6.8 1.1.8 1.6 0 .3-.1.5-.2.7 5.8 0 11.5.3 17.3.6 3.2-.4 6.1-.6 8.5-.4zm34-10c0-.2 0-.4.1-.6-.5-.8-1-1.5-1.5-2.3.2.4.3.8.5 1.2.2.4.5 1 .9 1.7zm-6.2 6.6l-.1-.1c-.4-.9.7-2.5.1-3.3-.2-.3-.4-.5-.7-.6l-3 .3c-.6.3-1.3.6-2 .8 0 .4-.1.8-.1 1.1v.4c.1 1.2.6 1.7 1.4 2.9.4.6.6 1.3.6 1.9 0 .6-.2 1.1-.5 1.6.6-.1 1.3-.2 2-.2h.1c1.2 0 2.3.2 3.4.3 0 0 0-.1.1-.1.7-.7.8-1.8.8-3v-.8c0-.1 0-.2.1-.2-1-.3-1.9-.6-2.2-1zm10.6 2.1v.6c.1 0 .1-.1.2-.1.2-.2.4-.4.7-.5h-.9zm-.7-78c-1-1.2-1.8-2.3-2.7-3.4h-.5c-3.3-.3-5.9-3.6-7-6.3-.5 0-1 .1-1.4.1.2.5.7.7 1.2 1.1.6.4 1.3.9 1.5 1.9.1.3.1.5.1.8 0 .8-.3 1.4-.8 1.7-.3.2-.6.4-1 .5-.1.1-.2.2-.3.2h-.1c-.2.1-.3.1-.5.2 0 .5.1 1 .1 1.6v1.4s0 .1.1.1c1.2 0 2.1 1 3.1 2.1.3.4 1.7 1.3 3.4 2.1s3.6 1.4 5 1.4c.6 0 1-.1 1.2-.3.2-.2.4-.5.4-1v-.2c0-.2.2-.4.4-.4s.4.2.4.4v.2c0 .7-.3 1.3-.7 1.7-.5.4-1.1.5-1.7.5-1.6 0-3.6-.7-5.3-1.5-1.8-.8-3.2-1.7-3.7-2.3-.9-1.1-1.7-1.9-2.4-1.8-.5 0-1.1.3-1.7 1.3-1.3 1.9-2.1 4-4.3 5.5-.9.6-3.3 1.4-5.3 1.4-.6 0-1.2-.1-1.6-.3-.5-.2-.8-.7-.8-1.3 0-.3.1-.7.2-1 .1-.2.3-.3.5-.2.2.1.3.3.2.5-.1.3-.2.5-.2.7 0 .3.1.4.4.6.3.1.7.2 1.2.2 1.7 0 4.3-.8 4.8-1.2 1.9-1.4 2.7-3.3 4.1-5.3.5-.8 1-1.3 1.6-1.5-.1-.2-.1-.4-.1-.6v-.9c0-.5-.1-.9-.1-1.5-.3.1-.6.1-1 .1-.6 0-1.2-.1-1.7-.4-.3 0-.6 0-.9-.1 0-.4 0-.7.1-1v-.3c-.4.6-.8 1.1-1.3 1.5-.5 1.2-1.1 2.4-1.8 3.5-1.1 2-2.7 3.4-4.7 4.4-.5.3-.9.5-1.4.7-1 .5-2.1.8-3.2 1.1-.8.2-1.6.3-2.3.5-.2.1-.4.1-.5.1 0 .1-.1.2-.1.2h-.3c.5.6 1.1 1.3 1.7 1.9.6.1 1.3.2 1.7.3 1.3.3 2.5.7 3.7.8 2.8.5 5.8.5 8.7.5h.6c4.8 0 9.9-.2 13.8-2.3 2.4-1.3 4.2-3 6-4.7l.6-.6c-2-.4-3.8-1.4-5.4-3.4zm-10.2 12.2c1.3 0 2.5-.2 3.5-.5-.6.1-1.1.1-1.7.2-1.8.2-3.7.3-5.5.4 1.3-.1 2.5-.1 3.7-.1zm-23.9.2v.3c1.9 1.5 4.1 3.3 6.4 4.7 3.4 2 6 2.2 10.3 2.2h.5c-3.6-.5-6.9-1.7-10.3-2.9-2-.7-5.4-2.8-6.9-4.3z"/><path fill="#EEE9EA" d="M122 61.7c-1.5.8-3.1 1.4-4.8 1.7.9-.1 1.9-.3 2.8-.4.9-.5 1.6-1 2.4-1.5-.1.1-.3.1-.4.2zm-13.4 2.4h-1.4c-3 0-6 0-8.8-.5-1.3-.2-2.5-.6-3.7-.9-.2 0-.4-.1-.6-.1l.3.3c3.2 1 6.6 1.6 10 1.8 1.3-.3 2.8-.5 4.2-.6zm14.7 1c-.1.1-.2.3-.3.4l.1-.1c.1-.1.2-.1.3 0 1.2-.9 2.4-1.9 3.5-2.9-1.2.8-2.6 1.4-3.6 2.6zm-7.8 41.9c.1-1.6.2-3.2.2-4.8V101c-.1-1.8-.2-3.7-.2-5.6v-.6c-.6 4.1-.7 8.2 0 12.2zm15-47.9l.2-.2.9-.9v-.3s0-.1-.1-.1c-.3.4-.6 1-1 1.5zM75.3 73.5c-.2 0-.4 0-.6.1 0 .1.1.2.1.4.1-.2.3-.4.5-.5zm41.2 14.6c.5-1.3 1.1-2.5 1.3-3.9.2-1.1.3-2.1.4-3.1-.1.3-.2.7-.3 1-.5 2-.9 4-1.4 6z"/><path fill="#EEE9EA" d="M131.9 81.7c.1-2.5.3-5 .5-7.5.1-1.8.2-3.6.2-5.4 0-2.1-.1-4.1-.3-6.1-.2-1.3-.4-2.6-.5-3.9l-.5.5c-2.5 2.9-5.9 5.4-9 7.9h-.1c0 .1 0 .2-.1.2v.3c0 .7-.2 1.6-.4 2.5 0 .2 0 .5-.1.7-.2 2.2-1 4.2-1.9 6.2-.1.2-.1.5-.2.7-.6 2.1-.7 4.1-1.1 6.4-.4 2.6-1.9 4.6-2.2 7-.2 1.3-.2 2.6-.2 4 0 1.9.1 3.7.2 5.6v1.2c0 2-.2 4-.2 5.9 0 1 .1 2 .2 3 .4 2 .5 4 1.3 5.8.4 1.2 1.2 2.2 1.9 3.3v-1c0-1.8-.2-3.5-.3-5.3 0-.6-.2-2-.2-3.1 0-.4 0-.8.1-1.1-.1-.1 0-.3.1-.4 1-1.2 2.7-2.9 4.5-3.1.2 0 .4.1.4.4 0 .2-.1.4-.4.4-1.2.1-2.8 1.4-3.7 2.5v.2c-.1.1-.2.6-.2 1.1 0 1 .2 2.3.2 3.1 0 1.8.3 3.5.3 5.4 0 .7-.1 1.4-.2 2.1.3.5.5 1 .7 1.5.6 1.9 1.3 3.5 2.4 5.3.6.7 1.1 1.2 1.6 1.6h.2v.1c.1.1.2.1.3.2 2.8-1.9 5.1-2.2 7.4-5.2 2.1-2.8 2.8-4.4 2.8-8 0-.5 0-1-.1-1.5-.5-.8-1.2-1.5-1.8-2.2-.3-.3-.8-.7-1.3-1.1-.5-.4-1-.9-1.2-1.4-.1-.4-.2-.8-.2-1.2 0-.9.2-1.9.4-2.7.2-2.9 1.9-5.3 3.3-7.9.3-.8.5-1.8 1-2.7.2-.3.3-.6.5-.9.3-1.4.3-2.9-.2-4.6-.6-.9-1.3-1.8-2-2.8-1.1-1.7-2.1-3.6-2.1-5.7.1-.1.1-.2.2-.3zm-25.8 44.2c-.3.1-.6.1-1 .1-.2 0-.4 0-.7-.1-.4-.1-.8-.2-1.1-.4-1.3-.3-2.6-.9-3.9-1.2-.9 0-1.8.1-2.6.1v-.7h.4c0-3.3.7-6.1 1-9.1-.1-.5-.2-1-.3-1.4-.2-1.2-.1-2.3.3-3.2v-.3c0-.5 0-.9.1-1.4.3-1.9 1.5-3.4 2.2-5 1.2-2.6 1.1-6 1.3-9 .2-2.4.7-4.4 1.5-6.5.3-1.6.7-3.2 1.2-4.9.3-.9.8-1.8 1.4-2.6.2-.8.5-1.6.7-2.4.2-.5.4-1.7.7-3 .2-.8.4-1.6.7-2.1-.7.1-1.4.1-2.1.1-4.3 0-7.1-.2-10.7-2.3-2.1-1.3-4.1-2.9-5.9-4.3v.2c.5.9 1.2 1.9 1.6 2.9.6 1.7.9 3.3 1.6 4.9 1.3 3.2 2.9 6.5 3.4 10.1.2 1.3.2 2.7.2 4v2.7c0 1.3 0 2.6.2 3.9.3 2 .7 3.9.7 5.9 0 1.5-.3 3-1 4.5-1.6 3.1-1.8 6.6-1.8 10.2h.1c.2 0 .4.1.4.3 0 .2-.1.4-.3.4-2.3.5-4.2 1.7-6.5 2.5-.4.1-1 .3-1.6.4.3.4.7.7 1.1 1 1.2 1 1.8 1.8 1.8 3.3 0 .3 0 .6-.1.9-.2 1.5-.7 2.4-.7 3.5 0 .3 0 .6.1 1 .2.7.2 1.6.3 2.3.1-.2.3-.3.5-.2.2.1.3.3.2.5-.1.2-.3.3-.5.4.1.2.3.3.5.5 1.9.5 3.7 1 5.9 1.2.2-.3.5-.7.7-1.1.4-.7.6-1.5.6-1.9v-.2c-.1 0-.2 0-.3-.1h-.1c-.1 0-.3-.1-.4-.3-.1-.1-.1-.3 0-.4.1-.1.2-.2.3-.2h.1c.3 0 .7.1.9.4.2.2.3.5.3.8 0 .7-.3 1.6-.7 2.3-.2.3-.3.5-.5.8 2-.1 4-.3 6-.3v-.1c.5-.8 1.1-.9 1.2-1.6.1-.2.1-.6.1-1.1 0-.7-.1-1.5-.2-1.7-.1-.2 0-.4.2-.5.2-.1.4 0 .5.2.2.5.3 1.2.3 2 0 .5 0 1-.1 1.3-.2.8-.7 1.1-1 1.4 1 0 2 .3 2.9.3h.7c0-.2.2-.4.5-.3h.4c.7-.3 1-.9 1-1.6 0-.5-.1-1-.5-1.5-.6-1.1-1.4-1.7-1.5-3.2v-1.4c-.2 0-.3.1-.5.1 0 .2-.1.2-.2.2zM70.9 70.4c.1-.1.2-.1.3-.2l.1-.2c-.1.1-.3.2-.4.4zm-1.7 4.7c.1 0 .2-.1.3-.1l.1-.2c-.2.1-.3.2-.4.3z"/><path fill="#9B908E" d="M136.2 44.5c-.1-.1-.1-.3-.2-.4-.4.2-.9.3-1.3.4h1.5z"/><path fill="#9B908E" d="M134.3 43.5c-.3 0-.6 0-.9-.1l.1-.5v-.2h-.2c-.5 2.7-1.2 5.1-4.6 6-2.3.6-3.8.8-5.5.8h-1.1c1.1 1.2 2.1 2.6 3.3 3.6 1.3 1.1 2.5 1.3 3.9 1.5.4-.5.9-.9 1.3-1.4.7-.7 2-1.7 2.8-1.2h.2c-.5-.3-.9-.5-1-.6l-.1-.1c0-.1-.1-.1-.1-.2V51c0-.1 0-.2.1-.3.1-.1.1-.1.2-.1.6-.1 1.1-.1 1.7-.1h.5c-.4-.2-.8-.3-1.2-.3h-.2c-.2 0-.4-.1-.4-.3 0-.2.1-.4.3-.5.6-.2 1.3-.2 2-.4.1 0 .2 0 .2-.1-.5-.1-1-.2-1.4-.3-.2-.1-.3-.2-.3-.4s.2-.3.4-.4c.5-.1 1.2-.2 1.7-.5l-2.1-.3c-.2 0-.3-.2-.4-.4 0-.2.1-.4.3-.4.6-.2 1.5-.4 2.3-.6.1 0 .2-.1.3-.1 0-.1 0-.2-.1-.3h-3.2c-.2 0-.3-.1-.4-.3-.1-.2 0-.3.1-.4.7-.7 1.7-1 2.7-1.3 0 0 0-.1-.1-.1-.2.3-.7.4-1.1.4zm.8-1h-.2c-.1 0-.1.1-.2.1.2 0 .3 0 .4-.1zm-50.3-7.4c-.1 0-.1 0 0 0-.1.2-.2.5-.4.9l.6-.3c-.1-.1-.2-.4-.2-.6zm38.1-8.8c-.5-.3-1.1-.5-1.7-.7-.1.1-.2.2-.2.3.8.2 1.7.5 2.5.8-.1-.1-.2-.1-.3-.2-.1-.1-.2-.1-.3-.2zm5.9 9c.2.2.5.4.7.6-.1-.2-.2-.3-.3-.5-.1-.1-.2-.1-.4-.1z"/><path fill="#9B908E" d="M134.5 51.3h-.3c.1 0 .1.1.2.1l.6.3c.1-.1.2-.3.3-.4h-.8zM83.3 39.2c-.4.2-.7.4-1.1.6.4-.2.7-.3 1.1-.5v-.1zm3-2.3c.2-.1.4.1.5.3.1.2 0 .4-.3.5-.9.3-1.8.8-2.7 1.2.3 0 .6-.1.9-.1 1.7-.7 3.4-1.5 5.1-2.1.2-.1.4 0 .5.2.1.2.1.4-.1.5-.3.2-.6.5-.9.7 2.9-.4 5.9-.8 8.8-1.1.5-.1 1-.1 1.4-.1 1.9 0 3.3.5 4.9 1.1-.5-1.3-.9-2.6-.9-3.9 0-.3 0-.6.1-.9 0-.3.1-.6.2-.8-.1-1.3 0-2.6.2-4-1.6.5-3.2 1.1-4.8 1.7-.5.2-1 .4-1.4.7l-.6.3.1.1c-.4.3-.8.6-1.2.8v.1c-.1 0-.3.1-.4.2.1.1.2.1.3.2.2.1.2.4.1.6-.1.2-.4.2-.6.1-.2-.1-.4-.3-.6-.4-.3.2-.6.4-.9.5l-.4-.5c-.6.2-1.2.4-1.8.4-.6 0-1.2-.2-1.7-.7-.5-.5-.7-1.2-.6-1.8 0-.5.1-1 .2-1.5-.5-.2-.9-.3-1.4-.3-1.9.6-2.3 1-2.7 2.7-.1.6-.2 1.4-.1 2.3 0 .5 0 1 .1 1.3.1.2.1.4.2.5 1.2-.5 2.4-1.1 3.4-1.8.2-.1.4-.1.6.1.1.2.1.4-.1.6-1.1.7-2.4 1.3-3.6 1.9-.1.1-.1.1-.2.1-.8.4-1.6.7-2.3 1.1-.2.1-.3.3-.5.4.9-.6 2.1-.9 3.2-1.2zm46.5 14.6c.1 0 .1 0 0 0 .1 0 .1 0 0 0zm-23.2-25.6c2.1-.4 4.2-.7 6.3-.7 1.4 0 2.8.1 4.2.4l.3-.3c-3.3-.8-7.1-.4-10.8.6zm22.8 13.8v-.2l-.6.3c.2-.1.4-.1.6-.1zM81 39.3s0 .1-.1.1c-.1.2-.1.3-.2.4.5-.3 1-.7 1.6-1-.4.2-.8.3-1.3.5zm52.5 2.5zm2.9 6.4c0-.1-.1 0-.1 0h.1zm-1 1.6c.1.1.2.2.4.2 0 0 0-.1.1-.1 0-.1.1-.1.1-.2-.1 0-.2.1-.3.1h-.3z"/><path fill="#9B908E" d="M90.3 31c.1.3.2.6.4.8.3.3.7.5 1.1.5.2 0 .5 0 .8-.1-.7 0-1.3-.2-1.8-.6-.2-.2-.3-.4-.5-.6zm-6.6 9.9c-.2 0-.5.1-.7.3.2-.1.4-.2.7-.3zm35.8-14.5c-1.2-.2-2.4-.3-3.7-.3-3.2 0-6.6.6-9.8 1.6.1.1.2.2.2.3.6.6 1.2 1.2 1.7 1.5 1 .7 2.3 1 3.5 1.8 1.9 1.2 2.6 3.5 2.9 5.5.2-.1.4-.2.5-.3 4.3-2.5 10.2-2.7 15.6-2.8.2-.1.3-.1.5-.2-.1-.1-.2-.3-.3-.4-.5 0-1 .1-1.4.1-.2 0-.4-.1-.4-.3 0-.2.1-.4.3-.5.3-.1.5-.2.8-.2-.6-.7-1.2-1.3-2-1.9-2.3-1.9-4.8-3-7.4-3.5-.6.8-1.2 1.5-1.3 2.1 0 .2-.2.3-.4.3h-.1c-.2-.1-.4-.3-.3-.5.1-.9.6-1.7 1.1-2.3zm16.7 20.2h.4v-.2h-.1c-.1.1-.2.2-.3.2zm-53.4.9c.8-1.2 1.9-2.5 3.3-3.3.2-.1.4 0 .6.2.1.2 0 .4-.2.6-1.3.7-2.4 2-3.2 3.3 1.5-.4 3.1-1.4 4.9-1.6-.5-1.3-.9-2.6-1.5-3.9-.4 0-.7.1-.9.1-1 0-2.4.3-3.7.4.4.5.7 1.2.8 2.3.1.6 0 1.2-.1 1.9zm45.5-.8c1.2-.4 2.5-2.1 3.3-4.1h-.1c-.2 0-.3-.1-.3-.2-.1-.1 0-.3.1-.4.2-.3.5-.5.8-.6.1-.3.1-.6.2-.8-.7.2-1.5.4-2.2.4-.3 0-.6 0-.8-.1-.2-.1-.3-.2-.3-.4s.1-.3.2-.4c.9-.4 1.9-.8 2.8-1.2-.4-.4-.7-.8-1-1.2-.3-.1-.5-.2-.7-.3-1.1-.6-1.8-1.5-2.8-1.9 0 0-.1 0-.1-.1-1.4.1-2.9.4-4.2.4-2.6.1-4.5.9-6.5 2.6-.9.7-1.4 1.8-1.5 3 .1.3.2.7.3 1l.3-.3c.5-.7 1.2-1.1 2.1-.9.3 0 .5-.1.8-.1 1.3 0 2.7.7 3.2 2.5.1.2.1.4.1.6 0 .9-.6 1.7-1.3 2.1-.5.3-1.2.5-1.8.6l1.2.6c.1.1.2.1.3.2.6.1 1.2.1 1.8.1 2 0 4.5-.5 6.1-1.1zm-45 2.3c-.2 0-.5.1-.7.1h-.2c-.1.2-.2.5-.3.7.3-.3.7-.5 1.2-.8zm-2.1-7.8c-.2.1-.4.1-.6.2v.1l.6-.3zM89 58.1s0 .1 0 0c0 .1.1.1.1.2 0 0-.1-.1-.1-.2zm39.2-2.3l.5-.5c-1.2-.2-2.5-.6-3.7-1.6-1.6-1.4-2.7-3-4-4.3h-.6c.9 1.1 1.7 2.1 2.7 3.4 1.6 1.9 3.4 2.9 5.1 3zM99.3 45.5c-.1.2-.1.5-.1.7 0 .3.1.7.2 1-.2-.9.1-2 .7-2.8-.4.2-.6.6-.8 1.1zm-16.6 8.3c-.4.2-.8.3-1.2.4.3.1.7.1 1 .1.1-.2.2-.4.2-.5zm5-1.7zm.8 2.8v-.5.5z"/><path fill="#9B908E" d="M104.4 48.5c-.7.5-1.6.6-2.5.6-.7 0-1.3-.1-1.9-.3-1.2-.4-1.6-1.6-1.6-2.7 0-.3 0-.6.1-.9.4-1.5 1.8-2.1 3.1-2.2.5-.2 1.1-.3 1.8-.1.6 0 1.2.1 1.7.4-.1-1.1-.2-2.3-.4-3.4-.1-.1-.3-.2-.4-.2-1.8-.9-4.2-1.3-6.6-1.3-1.8 0-3.5.2-4.9.7 0 0 0 .1.1.1 0 .2-.1.3-.2.4-.8.4-1.7.8-2.5 1.1-.3.3-.5.6-.6 1h.5c.9 0 1.7 0 2.2.5.1.2.1.4-.1.6-.2.1-.4.1-.6-.1l-.4-.2c-.3-.1-.7-.1-1.1-.1h-.6v.2c0 .2 0 .5.1.7l.1.4-.4-.1c1.2 3.5 2.1 6.2 6.2 6.7.9.1 1.7.1 2.6.1 2.7 0 5.4-.6 7.3-2.6v-.3c-.4.5-.7.8-1 1zm-23.9 5.4c-.1-.1-.1-.2-.1-.3.3-1.6 1.9-2.5 3.5-3.3.4-.2.8-.3 1.1-.5-1.4.5-2.7 1.1-4 1.7-.4.7-.8 1.4-1.2 2.3.3 0 .5.1.7.1zm9.4 5.4c0-.1-.1-.1-.1-.2h-.4l.5.2zm31-15c-.1.3-.3.6-.5.9-.1.1-.2.2-.2.3.4-.4.6-.8.7-1.2zM91.6 59.9z"/><path fill="#9B908E" d="M104.4 50.5c-1.4.8-3 1.2-5.2 1.3-.9.1-1.8.1-2.7.1-2.1 0-4-.3-5.9-1.9-1-.7-1.6-1.7-2-2.7-1.1.8-2.6 1.2-3.7 1.8 1.2-.4 2.4-.7 3.7-.8.2 0 .3.1.4.3.1.2 0 .4-.1.5-1.1.8-2.8 1.3-4.4 2-1.4.6-2.5 1.3-2.9 2.2.6-.1 1.3-.4 2-.7.3-.4.6-.7 1.1-.9h.1c.6-.3 1.3-.6 2-.6h.2c.6 0 1.1.2 1.4.4.3.2.5.6.6.9.1.6.1 1.3.3 1.9v.8c0 .6-.1 1.1-.1 1.7.3.5.7.9.9 1.3.2.4.5.7.8 1.1h.3l.2-.2c.1 0 .2-.1.3-.1.2 0 .4 0 .5-.1.8-.2 1.6-.3 2.4-.5 1.1-.2 2-.5 3-1 1.5-.7 2.9-1.5 4.1-2.7 1-1.2 1.9-2.6 2.7-4.1z"/><path fill="#9B908E" d="M83.6 53.7c0 .1-.1.1-.1.2s-.1.2-.1.3c0-.2.1-.4.2-.5zm20.3-.7c-.5.8-1.1 1.5-1.7 2.2-.9.9-1.9 1.6-3 2.2 2-1 3.6-2.4 4.7-4.4zM74.3 70.9c0-.6 0-1.2.1-1.9-.6.4-1.3.8-1.9 1.3-.5.3-1.2.7-1.7 1.2l-.4 1.1c.5-.3 1-.6 1.6-.8.7-.3 1.6-.6 2.3-.9zm.6-5.5c.8-3.1 1.7-6.2 1.5-9.2L72 68c.9-1 1.9-1.8 2.9-2.6zm-4 11.3c-1 .6-2.2 1.4-2.9 2.4 1-.6 2.1-1.5 3.3-2 1.3-.5 2.7-.9 4-1.3-.1-.4-.2-.8-.4-1.2-.4.2-.7.4-1.1.6-1.1.7-2.3 1.1-2.9 1.5zm5.1 1.2c-.1-.3-.2-.5-.3-.8-.7.5-1.4.9-2.2 1.3.8-.3 1.7-.5 2.5-.5zm-4.7-8l-.1.2c.3-.2.5-.3.8-.5.8-.6 1.7-1.1 2.5-1.7.1-.5.1-.9.2-1.4-1.2 1.1-2.3 2.3-3.4 3.4zm-1.8 4.9l-.1.2c1.6-.7 3.2-1.9 5-2.2 0-.2-.1-.4-.1-.6-.8.5-1.8.9-2.7 1.3-.8.3-1.5.7-2.1 1.3zM73 90.9c6.1 1.2 7.2-.7 5.7-5.7-.4-1.3-.9-2.7-1.4-4-1.4 1.1-3.5 1.7-4.8 2.2 0 0-.1 0-.2.1 1.3-.5 2.7-.9 4.1-.9h.4c.1 0 .2.1.3.2.1.1.1.2 0 .4-.3.8-1.1 1.3-1.9 1.7-.8.4-1.7.7-2.2.9-.9.4-1.8.9-2.6 1.4 2.1-.5 4.2-2 6.6-2.1.2 0 .5 0 .8.1.2 0 .4.2.3.4-.1 1.1-1 1.9-1.9 2.5.2 0 .4.1.4.3.1.2-.1.4-.3.5-1.1.3-2.4.8-3.7.9-.2 0-.3-.1-.4-.3-.1-.2 0-.4.2-.5.7-.4 2-.8 3-1.4.9-.5 1.5-1.1 1.8-1.6H77c-2.4 0-4.9 2.2-7.7 2.2h-.5c-.2 0-.3-.1-.4-.3 0-.2 0-.3.2-.4 1.3-.9 2.7-1.6 4-2.3.6-.3 1.4-.6 2.2-.9.4-.2.8-.4 1.1-.7-2.3.2-4.7 1.7-7.4 1.8h-.7c-.2 0-.3-.2-.4-.3 0-.2.1-.4.2-.4 1.4-.7 3-1.1 4.3-1.7 1.4-.6 3.7-1.2 4.8-2.2-.8 0-2 .6-2.7.8-1.7.5-3.4 1.2-5.2 1.5-.2 0-.4-.1-.4-.2-.1-.2 0-.4.1-.5 1.1-.9 2.7-1.2 4.2-1.7 1.2-.4 2.2-.8 2.9-1.4-3 .2-5.6 2.9-8.8 3.4h-.2l-.5 1.3h-.7c-.2 0-.5 0-.7.1.1.2.3.4.4.6 1.9 2.6 4.3 5.5 7.9 6.2z"/><path fill="#9B908E" d="M75.8 79.7c.3-.1.6-.1.9-.2-.1-.1-.1-.3-.2-.4-.2.2-.4.4-.7.6zm-2.3-5.1c.5-.2.9-.5 1.3-.7 0-.1-.1-.2-.1-.4-1.9.4-3.7 1.8-5.7 2.5l-.5 1.4c.6-.5 1.3-1 1.9-1.4.8-.5 2-.9 3.1-1.4zm1.1 2.3c-1 .3-2.1.6-3 1-1.2.5-2.6 1.8-4.1 2.3l-.2.5c2.2-1.8 5.1-2.4 7.3-3.8zm-2.9 2.3c-1.1.5-2.2 1-3.2 1.6 1.1-.4 2.1-1 3.2-1.6zm-37.9 37.4c-.1-.1-.2-.2-.2-.3-.4.2-.9.5-1.3.7.6-.1 1.1-.2 1.7-.4 0 .1-.1.1-.2 0zm-4.7 2.1s-.1 0 0 0zm9.7-3.8c-.2-.2-.4-.5-.5-.8-.6.2-1.2.5-1.9.8.5 0 .9 0 1.4-.1.4.1.7.1 1 .1zm-26.6 12.8h-.1c-.2 0-.4-.1-.4-.3 0-.2.1-.4.3-.5 2.2-.9 4.6-1.2 6.8-2.1-.5-.1-1-.1-1.6-.1-1 0-2.1.1-3.1.1h-.2c-1.5 1-2.7 2.2-3.1 3.5 1.8-.4 3.5-.6 5.3-.9-1.3.2-2.5.3-3.9.3zm3.7 4.4c-.9 0-1.7-.1-2.4-.4-.2-.1-.3-.2-.2-.4 0-.2.1-.3.3-.4 1.2-.4 2.5-.7 3.8-1-1 .1-1.9.2-2.9.2-1.2 0-2.5-.1-3.7-.6 0 .2 0 .5.1.7.3 1.2 1.2 2.1 2.7 2.7.9-.3 1.8-.5 2.6-.8h-.3zm42.4 1.4c-2 .4-4.7.7-6.3.8h-1.4c-2.6 0-5.1-.4-7.6-.6-.7-.1-1.4-.1-2.1-.1-2.6 0-5.2.4-7.9.5h-1.9c-1.7 0-3.5-.1-5.2-.2-.8-.1-1.7-.2-2.5-.2-.1.1-.2.2-.4.2h-.8c-1.2 0-2.5.1-3.8.2 7 .7 16.7-.3 20.4.5 3.5.8 17.8 4 20.3-1.2-.3.1-.5.1-.8.2.1-.2 0-.1 0-.1z"/><path fill="#9B908E" d="M58.4 132c0-.2.1-.3.3-.3l.1-.1c.2-.3.3-.5.3-.6 0-.2-.1-.5-.7-1.1-1.4-1.5-2.9-2.4-4.1-4.4-.7-1.2-1.3-2.3-1.9-3.6-.5-.5-.9-1-1.3-1.5-.9-1.3-1.5-2.6-1.3-3.9 0-.1-.1-.2-.1-.3-3.2.1-5.2-2.9-8.5-2.7-.7.1-1.4.2-2.2.5.3.4.8.9 1 1.1.1.1.2.3.2.4 0 .2-.2.3-.4.3h-2c-1.1 0-2.3.1-3 .5.4.1.8.1 1.1.1h.4c.2 0 .4.1.5.3 0 .2-.1.4-.3.5-1.8.5-3.9.7-5.5 1.3h.2c.2 0 .4.2.4.4s-.1.4-.3.4c-2.9.6-6.1 1.1-9 2 .4 0 .9 0 1.3.1.2 0 .4.2.4.4s-.1.4-.3.4c-2.5.5-5.6.9-8.1 1.8-.1 0-.1.1-.2.1.6 0 1.2-.1 1.8-.1 1 0 2 .1 2.9.5.1.1.2.2.2.4s-.1.3-.2.4c-1.3.7-2.7 1.1-4.1 1.4 1.5-.2 3-.4 4.6-.4h.2c.2 0 .4.1.4.3 0 .2-.1.4-.2.5-3 1.2-6.2 1.4-9.2 2 .9.2 1.8.3 2.7.3 2.6 0 5.2-.6 7.9-.8.2 0 .4.1.4.3 0 .2-.1.4-.3.5-2.4.9-4.9 1.4-7.3 2h.7c2.3 0 5.1-1 6.9-1.5.2-.1.4 0 .5.3.1.2 0 .4-.2.5-2.7 1.2-5.5 2-8.3 2.8.2 0 .4.1.5.1 2-.2 4-.4 6-.4.5-.2 1.1-.2 1.6-.2 1.1 0 2.1.2 3.1.3 1.7.1 3.4.2 5.1.2h1.8c2.6-.1 5.2-.5 7.9-.5.7 0 1.4 0 2.1.1 2.5.2 5 .6 7.5.6h1.4c1.5-.1 4.1-.3 6.1-.7l.5-1z"/><path fill="#9B908E" d="M54.3 123.8c.2.4.5.8.7 1.2 1.1 1.8 2.5 2.7 4 4.3l.1.1c-.9-1.9-2.9-3.8-4.8-5.6z"/><path fill="#F39200" d="M105.1 43.8l.2-.2zm-5.7 3.4c.2.4.5.8.9.9.4.1.9.2 1.3.2-.4-.1-.7-.3-1-.5-.6-.4-1-1.1-1.1-1.8 0-.2.1-.4.3-.4v-.1c0-.7.5-1.4 1.5-1.6-.5.1-.9.2-1.3.5-.5.8-.8 1.9-.6 2.8zm2.7-3.4c-.2 0-.5 0-.7.1.2 0 .3 0 .4.2.6 0 1.1.1 1.5.4.4.3.6.9.7 1.5v.4c0 .2 0 .4-.1.6 0 .3-.1.6-.3.8.1 0 .1-.1.2-.1.6-.4 1.3-1.7 1.2-2.6 0-.5-.1-.8-.4-1.1-.2-.3-.9-.4-1.5-.4-.2.2-.7.2-1 .2zm-.5-.8h.4c.3 0 .8-.1 1.2-.1h.1c-.5-.1-1.1-.1-1.7.1z"/><path fill="#F39200" d="M102.1 46.9c.3 0 .6-.1.9-.2 0-.1.1-.1.1-.2-.3.2-.6.3-.9.3-.2 0-.4 0-.6-.1.1.1.2.2.3.2h.2zm.4-1.1c.1-.1.1-.2.1-.3 0-.1 0-.1-.2-.2s-.4-.2-.6-.2c-.2 0-.3 0-.4.1-.1.1-.2.1-.3.2.1.3.5.5 1 .5.2 0 .4 0 .4-.1zm13.8-.1c-.5-.6-.8-1.3-.8-2v-.2c-.1.2-.2.5-.2.7.1.3.2.7.4 1 .1.1.1.2.2.3.2.2.4.3.7.5-.1-.2-.2-.2-.3-.3zm1.1-.6l-.3-.3c0 .1.1.2.3.3zm3.5-.8v-.1c0-.1 0-.3-.1-.4-.4-1.4-1.3-1.8-2.4-1.8h-.2c.6 0 1.1.3 1.4.6.1 0 .2.1.2.3.3.4.4.9.4 1.3 0 .3-.1.6-.2.9-.1.2-.2.3-.3.5.1 0 .1-.1.2-.1.1-.1.2-.2.2-.3.5-.3.7-.6.8-.9z"/><path fill="#F39200" d="M118.6 42.8c-.1 0-.2-.1-.4-.1s-.4 0-.6.1c-.2.1-.3.2-.3.2v.2s.1.1.2.1c.2.1.4.2.6.2.2 0 .3 0 .3-.1.1-.1.1-.1.1-.3.1-.1.1-.2.1-.3zm-.4 1.5c-.2 0-.4 0-.5-.1.2.2.4.3.7.3.2 0 .4 0 .7-.2V44c-.4.3-.6.3-.9.3zm-1.7-1.3c.1 0 .1 0 0 0zm-.9-.9c.6-.5 1.3-.8 2.1-.9-.9-.2-1.6.2-2.1.9z"/><path fill="#E3A9BB" d="M107 49.2c.3.1.6.1.9.1-.4-.2-.7-.6-.8-1.1-.1.3-.1.6-.1 1zm.9-2.1c-.1.2-.1.4-.1.6 0 .5.2.7.5.9.1.1.3.1.5.2-.1-.1-.1-.2-.1-.4 0-.3.2-.6.4-.7.2-.1.4-.1.6.1.1.1.1.2.1.3h.1c.2 0 .4.2.4.4v.3l.7-.1c-.1-.1-.1-.3-.1-.4 0-.2.1-.4.2-.6.1-.2.4-.2.6-.1l.1.1c.1-.1.3-.1.5-.2.2 0 .4.1.4.4v.1h.1c.3-.3.5-.6.5-1.1v-.2c-1.6-.2-4-.4-5.4.4z"/><path fill="#511B2A" d="M74.3 69.1c.8-.5 1.5-1.1 2.2-1.7.2-.1.2-.4 0-.6-.1-.2-.4-.2-.6 0-.5.4-1 .8-1.6 1.2-.8.6-1.6 1.1-2.5 1.7-.2.2-.5.3-.8.5-.1.1-.2.1-.3.2l.4-.4c1.1-1.1 2.2-2.3 3.4-3.3l.2-.2c.2.1.4 0 .5-.1.1-.2.2-.4.2-.6 0-.2-.1-.3-.2-.4-.1-.1-.3-.1-.4 0h-.1c-1 .8-2 1.7-2.9 2.6-.6.6-1.2 1.3-1.8 1.9-.2.2-.1.4 0 .6.1.1.2.1.3.1h.1c-.6.4-1.1.9-1.4 1.5-.1.2 0 .4.3.5h.1c.2 0 .3-.1.4-.3.1-.3.3-.5.7-.8.5-.4 1.2-.8 1.7-1.2.8-.4 1.5-.8 2.1-1.2zm-7.6 10.8c0 .1 0 .2.1.3.1.1.3.2.4.1.1 0 .2-.1.3-.1 1.5-.5 2.9-1.8 4.1-2.3 1-.4 2-.7 3-1-2.2 1.4-5.1 2-7.3 3.9-.2.2-.5.4-.7.7-.1.1-.1.3-.1.5.1.1.2.2.3.2h.2c3.2-.5 5.8-3.2 8.8-3.4-.6.6-1.7 1.1-2.9 1.4-1.5.5-3.1.9-4.2 1.7-.1.1-.2.3-.1.5s.3.3.4.2c1.8-.3 3.5-1 5.2-1.5.7-.2 1.9-.7 2.7-.8-1.1 1-3.4 1.7-4.8 2.2-1.4.6-2.9.9-4.3 1.7-.2.1-.2.3-.2.4 0 .2.2.3.4.3h.7c2.6 0 5.1-1.6 7.4-1.8-.3.2-.7.5-1.1.7-.8.4-1.6.6-2.2.9-1.4.7-2.7 1.4-4 2.3-.1.1-.2.3-.2.4 0 .2.2.3.4.3h.5c2.9 0 5.3-2.3 7.7-2.2h.2c-.2.6-.9 1.1-1.8 1.6-1.1.6-2.3 1.1-3 1.4-.2.1-.3.3-.2.5 0 .2.2.3.4.3 1.3-.1 2.5-.6 3.7-.9.2-.1.4-.3.3-.5 0-.2-.2-.3-.4-.3 1-.6 1.9-1.4 1.9-2.5 0-.2-.1-.4-.3-.4-.3 0-.5-.1-.8-.1-2.4 0-4.5 1.6-6.6 2.1.8-.5 1.7-1 2.6-1.4.5-.2 1.4-.5 2.2-.9.8-.4 1.6-.9 1.9-1.7v-.4c-.1-.1-.2-.2-.3-.2h-.4c-1.4 0-2.8.5-4.1.9.1 0 .1 0 .2-.1 1.3-.5 3.4-1 4.8-2.2.3-.3.6-.6.8-.9.1-.1.1-.2 0-.3 0-.1-.1-.2-.2-.3-.3-.1-.5-.2-.8-.2h-.4c-.3 0-.6.1-.9.2.3-.2.5-.4.7-.6.2-.2.3-.4.4-.6.1-.1.1-.3 0-.4-.1-.1-.2-.2-.3-.2h-.6c-.9 0-1.7.2-2.5.5.8-.4 1.5-.8 2.2-1.3.3-.2.6-.4.8-.7.1-.1.2-.3.1-.5s-.3-.2-.4-.2c-.3.1-.6.1-.9.2-1.4.3-2.7.7-4 1.3-1.1.5-2.2 1.4-3.3 2 .7-1 1.9-1.8 2.9-2.4.7-.4 1.8-.8 2.9-1.4.4-.2.8-.4 1.1-.6.6-.4 1.2-.9 1.4-1.5v-.4c-.1-.1-.2-.2-.3-.2h-.5c-.4 0-.7 0-1.1.1-1.9.4-3.5 1.5-5 2.2-.1 0-.2.1-.3.1l.3-.3c.6-.5 1.3-.9 2.1-1.3.9-.4 1.9-.8 2.7-1.3.4-.3.8-.5 1.2-.9.1-.1.2-.3.1-.5s-.3-.2-.5-.2c-.2.1-.5.2-.9.3-.7.2-1.6.5-2.4.9-.6.2-1.1.5-1.6.8-.6.4-1 .8-1.3 1.3v.2c-.5.4-.9.9-1.1 1.6-.1.1 0 .3.1.4.1.1.3.2.4.1.2-.1.5-.1.7-.2 2-.7 3.7-2.1 5.6-2.5.2 0 .4-.1.6-.1-.1.1-.3.3-.5.4-.4.3-.8.5-1.3.7-1.1.5-2.2.9-3 1.4-.6.4-1.3.8-1.9 1.4-.8.7-1.4 1.4-1.8 2.4-.1.6-.1.6-.1.7 0-.1 0 0 0 0zm1.8.9c.9-.6 2-1.1 3.2-1.6-1.1.6-2.1 1.2-3.2 1.6zm13 32.1c0 .2.2.3.4.3h.2v-1c-.1.1-.2.2-.4.2-.2.2-.3.4-.2.5z"/><path fill="#FAB300" d="M133.3 40.3c-.3-2.4-.9-4.5-2-6.4-5.6.1-11.8.2-16.2 2.7-2.2 1.3-3.8 3-6.3 3-.7 0-1.4-.1-2.2-.4-2.8-1-4.4-2-7.1-2-.4 0-.9 0-1.4.1-4.7.5-9.4 1.2-14 1.9v.2c0 .2-.1.4-.1.6 0 .5.1 1.2.2 1.8.8.2 1.6.3 2.4.3h.2l.1.1c1.4 2.6 1.5 5.6 3.8 7.4 1.9 1.4 3.6 1.8 5.7 1.8.8 0 1.7-.1 2.7-.1 3.7-.2 5.7-1 7.7-4 1-1.5 1.3-2.6 2-3.5.7-.8 1.7-1.3 4-1.4h.2l.1.1c1.1 2.7 3.7 6 6.7 6.2 1.4.1 2.4.2 3.4.2 1.6 0 3-.2 5.3-.8 3.5-1 4-3.5 4.5-6.6l.3-1.2zm-27.4 7.5c-2 2.5-5 3.2-7.9 3.2-.9 0-1.8-.1-2.7-.1-4.5-.5-5.5-3.8-6.7-7.4l-.2-.5.5.2v-.4c0-1.6 1.1-2.9 2.8-3.6 1.6-.8 3.8-1.2 6-1.2 2.4 0 4.9.5 6.8 1.4 1.9.9 3.2 2.3 3.2 4.2 0 1.2-.6 2.6-1.8 4.2zm22.5-.7c-1.6.5-4.1 1.1-6.5 1.1-2.8 0-5.5-.7-6.6-2.9-.5-.9-.7-2-.7-3.1 0-1.6.5-3.2 1.8-4.2 2.1-1.8 4.1-2.6 6.7-2.7 1.6-.1 3.4-.5 5.2-.5.8 0 1.6.1 2.4.3 1.6.5 2.2 2 2.2 3.7-.1 3.4-2.2 7.5-4.5 8.3z"/><path fill="#511B2A" d="M104.5 39.3c-1.9-.9-4.4-1.4-6.8-1.4-2.2 0-4.4.4-6 1.2-1.6.8-2.8 2-2.8 3.6v.4l-.5-.1.1.4c1.2 3.6 2.2 6.9 6.7 7.4.9.1 1.8.1 2.7.1 3 0 5.9-.7 7.9-3.2 1.3-1.6 1.8-3 1.8-4.2.1-1.8-1.2-3.3-3.1-4.2zm-6.6 11.2c-.9 0-1.8-.1-2.6-.1-4.1-.4-5-3.2-6.2-6.7l.4.1-.1-.4c-.1-.3-.1-.5-.1-.7v-.2h.6c.4 0 .8 0 1.1.1.3 0 .4.1.4.2.1.2.4.2.6.1.2-.1.2-.4.1-.6-.5-.5-1.3-.5-2.2-.5h-.5c.1-.4.3-.7.6-1 .9-.3 1.7-.6 2.5-1.1.2-.1.2-.2.2-.4 0-.1 0-.1-.1-.1 1.4-.5 3.1-.7 4.9-.7 2.4 0 4.8.5 6.6 1.3.2.1.3.2.4.2.2.1.4.3.6.4v.1c.4 1.1.6 2.3.6 3.5v.7c-.1-.4-.2-.8-.6-1.1l-.2.2.2-.2c-.1-.1-.2-.1-.2-.2-.5-.3-1.1-.4-1.7-.4h-.1c-.5 0-.9 0-1.2.1h-.4c-1.4.1-2.7.7-3.1 2.2-.1.3-.1.6-.1.9 0 1.1.5 2.3 1.6 2.7.6.2 1.2.3 1.9.3.9 0 1.8-.2 2.5-.6.3-.2.6-.5.8-.9.2-.3.3-.6.4-.9-.1.3-.1.5-.2.8l-.3.3c-1.7 2-4.3 2.6-7.1 2.6zm6.9-6.4c.2.2.4.6.4 1.1 0 1-.6 2.3-1.2 2.6 0 0-.1.1-.2.1.2-.2.3-.5.3-.8.1-.2.1-.4.1-.6v-.4c-.1-.6-.3-1.2-.7-1.5-.4-.3-.9-.4-1.5-.4-.1-.1-.3-.2-.4-.2.2 0 .4-.1.7-.1.4 0 .8-.1 1.2-.1.4 0 1.1.1 1.3.3zm-2.7 2.6c.3 0 .7-.1.9-.3 0 .1 0 .1-.1.2-.3.1-.6.3-.9.2-.1 0-.2 0-.3-.1-.1-.1-.2-.1-.3-.2.3.2.5.2.7.2zm-1-1.3c.1-.1.2-.1.3-.2.1-.1.3-.1.4-.1.2 0 .5.1.6.2.2.1.2.2.2.2s0 .1-.1.3c-.1.1-.2.1-.4.1-.5 0-.9-.2-1-.5zm.3-1.5c-1 .2-1.5.9-1.5 1.6v.1c-.2 0-.3.2-.3.4 0 .8.5 1.4 1.1 1.8.3.2.7.4 1 .5-.5 0-1-.1-1.3-.2-.4-.1-.7-.5-.9-.9-.1-.3-.2-.6-.2-1 0-.3 0-.5.1-.7.1-.5.4-.8.8-1.1.2-.3.7-.4 1.2-.5zm5.1-2.5c.5.6.8 1.4.8 2.2 0 .7-.2 1.4-.6 2.3.1-.6.1-1.2.1-1.8 0-1-.1-1.8-.3-2.7zm26.3-2.5c0-1.7-.6-3.2-2.2-3.7-.8-.3-1.6-.3-2.4-.3-1.8 0-3.6.4-5.2.5-2.6.1-4.7.9-6.7 2.7-1.2 1-1.8 2.6-1.8 4.2 0 1.1.2 2.1.7 3.1 1.1 2.3 3.9 2.9 6.6 2.9 2.4 0 4.9-.5 6.5-1.1 2.4-.9 4.5-5 4.5-8.3zm-17 6.5c-.1-.1-.1-.2-.2-.3-.2-.3-.3-.6-.4-1 0-.2.1-.5.2-.7v.2c0 .7.3 1.4.8 2l.3.3c-.2-.1-.4-.3-.7-.5zm.7-2.4c.1 0 .1 0 0 0zm.5 1.8l.3.3-.3-.3zm2-.4c-.3.1-.5.2-.7.2-.3 0-.4-.1-.7-.3.2 0 .4.1.5.1.3 0 .6-.1.8-.2.1 0 .1.1.1.2zm-.5-1c-.1.1-.2.1-.3.1-.2 0-.5-.1-.6-.2-.1-.1-.1-.1-.2-.1V43s.1-.1.3-.2c.2-.1.4-.1.6-.1.1 0 .3 0 .4.1v.3c-.1.2-.1.3-.2.3zm1.4 2.2c.1-.1.2-.3.2-.5.1-.3.2-.6.2-.9 0-.5-.2-.9-.4-1.3 0-.1-.1-.2-.2-.3-.4-.4-.9-.6-1.4-.6h.2c1.1 0 2 .5 2.4 1.8 0 .1.1.3.1.4v.1c0 .5-.3.8-.7 1.2-.2 0-.3 0-.4.1zm-.2 1.9l-1.2-.6c.7-.1 1.3-.3 1.8-.6.7-.5 1.3-1.2 1.3-2.1 0-.2 0-.4-.1-.6-.4-1.7-1.8-2.5-3.2-2.5-.3 0-.5 0-.8.1-.8.1-1.5.5-2.1.9l-.3.3-.3.3v-.4c0-.3 0-.6.1-.9.2-1.2.7-2.3 1.5-3 2-1.7 3.9-2.4 6.5-2.6 1.3-.1 2.8-.3 4.2-.4 0 0 .1 0 .1.1 1 .4 1.7 1.3 2.8 1.9.2.1.5.2.7.3.4.2.9.3 1.4.4 0 .2.1.4.1.6-.1.1-.3.1-.4.2-.9.4-1.9.8-2.8 1.2-.2.1-.2.2-.2.4s.1.3.3.4c.3.1.5.1.8.1.7 0 1.5-.2 2.2-.4-.1.3-.1.6-.2.8-.3.2-.6.3-.8.6-.1.1-.1.3-.1.4.1.1.2.2.3.2h.1c-.8 2-2.1 3.7-3.3 4.1-1.5.5-4 1.1-6.4 1.1-.6 0-1.3 0-1.8-.1 0-.1-.1-.1-.2-.2zm9.8-11.7c-.2-.2-.5-.4-.7-.6h.4c.5 0 .9.1 1.3.3.8.3 1.3.8 1.6 1.5-.5-.1-1.1-.3-1.5-.5-.4-.1-.7-.4-1.1-.7zm2.9 3.9c-.2 0-.4.1-.6.1l.6-.3v.2z"/><path fill="#CF141E" d="M125.4 130.1c-.1-.1-.2-.1-.3-.2v.1c.1.1.2.2.4.3.1 0 .1-.1.2-.1-.1 0-.2-.1-.3-.1zm-.7.5l-.2-.2c-2.5-.4-5.2-.4-7.7-.9-.9-.2-1.5-.4-1.9-.6-.4-.2-.7-.5-.7-.9 0-.6.5-.9 1-1.4.5-.4 1.1-.9 1.5-1.4.1-.2.2-.3.2-.5 0-.4-.7-1.1-1.8-1.6l-.6-.3c-.4 1.8-.1 3.9-.7 5.8l-.6-.2s0 .1.1.1c.3.4 1.2.6 2.2.8.2.1.5.1.7.1.5.1.9.1 1.2.2.4.1.9.2 1.4.3.3.1.6.1 1 .2 1.1.2 2.2.4 3.3.4h.8c.2.2.5.2.8.1z"/><path fill="#CF141E" d="M107.5 77.1c-.1.5-.2.8-.3 1.1-.7 2.2-1.3 4.5-2.2 6.8-.9 2.5-1.7 4.5-2.2 6.7-.1 1.1-.2 2.2-.4 3.3-.1 2.7-.2 5.7-1.2 8.2-.3 1.9-1.4 3.4-2.3 5v.2c-.1.4-.1.8-.1 1.3 0 .9.1 1.9.1 2.9v.5c-.1 1.4-.3 2.8-.5 4.1.3 2.1.3 4.3-.1 6.5h1.2c.5 0 1 0 1.4.1 1.7.4 2.3 1.4 3.5 1.5h.6c1.1 0 2-.6 3.3-1 1.3-.3 2.5-.4 3.8-.5l-.6-.3c-.7-.3-1.7-.7-2.7-1-2-.6-4.3-1.2-5.1-1.3l-.5-.1.2-.4c.4-.7 1.1-.8 2-.8 2.1 0 5.3 1.1 6.4 1.5.6.2 1.3.4 2.1.7 0 0 0-.1.1-.1l.7.3s0 .1-.1.1c.2.1.5.2.7.3 1.1.6 2.1 1.2 2.2 2.2 0 .3-.1.6-.3.9-.5.6-1.1 1.1-1.6 1.5-.5.4-.8.8-.7.8 0 0 0 .1.3.3.3.2.9.3 1.8.5 2.1.4 4.4.5 6.6.8-.3-.3-.5-.6-.7-.9-1-1.5-1.7-2.9-2.3-4.5-.2-.3-.4-.6-.5-.9-.3-.4-.5-.9-.7-1.3-.4-.7-.7-1.2-.9-1.7-.2-.4-.4-.8-.5-1.2-.4-.6-.7-1.2-1-1.9-.8-2-.9-4-1.3-5.9-.2-1.1-.2-2.1-.2-3.1v-1.1c-.6-4-.5-8.1 0-12.2 0-1.2.1-2.4.2-3.5.1-1.2.5-2.2.9-3.2.4-2 .9-4 1.4-6 .1-.3.2-.7.3-1 .1-1.1.3-2.2.7-3.4.5-1.7 1.1-3.5 1.4-5.1.3-1.2 1.1-3.5 1.1-4.8v-.1h-.2v-.2c-3.6 2.3-7.7 4.5-12.3 5.3-.8 1.2-1 2.7-1.5 4.1zm6.6-4.5c.5-1 .9-1.6 1.5-1.9l.2.7c-.2 0-.7.6-1.1 1.5-.5.9-.9 2.1-1.4 3.4-.9 2.5-1.6 5.3-1.7 6.4-.2 1.6-.8 4.7-1.4 7.6-.6 2.9-1.3 5.6-1.7 6.5-.7 1.5-.6 3-1 4.7-.6 3.3-1.3 6.7-1.9 10-.5 2.8-2.3 5.7-2.3 8.4v.6l-.7.1v-.7c0-2.9 1.9-5.9 2.3-8.5.6-3.3 1.3-6.7 1.9-10 .3-1.6.2-3.1 1-4.8.3-.7 1-3.5 1.6-6.4.6-2.9 1.2-6 1.4-7.6.4-1.9 1.9-7.2 3.3-10zm8-5.3v.2c.1 0 .1-.1 0-.2.1 0 0 0 0 0zm-35-3.9c-1.1-1-1.8-2.5-2.2-4.1-.6-2-.8-4.2-.8-5.7l-.1.1h-.3c-.1.1-.2.3-.3.4-.4.9-.8 2.1-1.1 3.4-.4 1.7-.7 3.6-.9 5v.1c0 .6-.1 1.2-.2 1.8v.1c0 2.3.5 4.9 1.8 6.8.4.7 1.4 1.9 2.4 2.9.1-.7.2-1.3.3-2 .4-2.5 1.1-4.6 1.1-7 0-.6 0-1.2-.1-1.8h.4z"/><path fill="#CF141E" d="M100.9 124.4c-.4-.1-.8-.1-1.3-.1h-.3c1.3.3 2.6.9 3.9 1.2-.7-.3-1.3-.9-2.3-1.1zM86 74.9c.5.5 1 .9 1.4 1.1l-.4.6c-.3-.2-.7-.5-1.1-.9-.3 2-.5 4.1-.9 6.1-.6 3.3-1.5 6.6-1.7 10-.2 3.2-.1 6.3-.5 9.4v1.1c0 .3-.1.7-.1 1v.1c-.1.5-.2.9-.3 1.4-.1.3-.1.7-.2 1 0 .2 0 .4-.1.6v6.7c-.1 2.1-.2 4.2-.6 6.3.7-.2 1.5-.4 2.4-.5 1.4-.2 3-.4 3.8-.7 1.4-.5 2.6-1.1 3.9-1.6.9-.6 1.5-1.4 1.9-2.3.1-3.1.3-6.2 1.8-9.1.1-.3.2-.5.4-.8.2-.9.3-1.8.1-2.8-.4-2-.9-3.8-.6-5.8.1-.8.2-1.5.3-2.3 0-.8-.1-1.5-.1-2.3v-2.7c0-1.3 0-2.6-.2-3.9-.1-.6-.2-1.2-.3-1.7-.1-.3-.2-.5-.3-.8-.4-1-.7-2-1-3.1-.6-1.5-1.2-2.9-1.8-4.3-.3-.8-.6-1.6-.8-2.4v-.1c-.6-1-.6-2.1-1-3.1V69c-.6-1.1-1.5-2.3-1.9-3.6-.1-.1-.3-.2-.4-.3-.1 0-.1-.1-.1-.2v.3c0 2.5-.7 4.7-1.1 7.1-.3.9-.4 1.7-.5 2.6zm-3.6 23.9c.1-1.6.1-3.2.2-4.9-.1.5-.3.9-.4 1.4-.3 1.3-.1 2.4.2 3.5zm2.2-19.9c-.2.9-.2 1.7-.2 2.6.4-2.1.6-4.2.9-6.4-.2-.1-.3-.3-.5-.5.4 1.5.1 2.7-.2 4.3zm37.1-8.6c-.3 1-.6 1.9-.7 2.5-.4 1.5-.8 3-1.3 4.5.9-2 1.7-4.1 1.9-6.2.1-.3.1-.6.1-.8zm1.7 57.8c0 .1.1.1.1.2.3.5.8 1 1.3 1.5h.2c-.5-.4-1-1-1.6-1.7zm-39.2-8.4c-.1 0-.2 0-.3.1-1.1.2-2.2.4-2.7.7v.1c.9-.3 2-.6 3-.9zm19.1-31.9c.4-1 .7-2 1.1-3.1.5-1.4 1-2.9 1.4-4.3-.5.8-1.1 1.6-1.4 2.6-.4 1.6-.8 3.2-1.1 4.8zM91.2 61.6c.1 0 .1 0 0 0 0-.1-.1-.1-.1-.1s.1 0 .1.1zm17.4 63.4c-.8.2-1.5.7-2.4.9h.2c.2 0 .3 0 .5-.1.3-.1.6-.1.8-.2.7-.2 1.3-.5 2-.8-.4 0-.8.1-1.1.2z"/><path fill="#CF141E" d="M113.2 125.1c.5.8-.5 2.5-.1 3.3.5-1.7.2-3.8.7-5.8-.7-.3-1.5-.5-2.1-.7-1.1-.4-4.3-1.5-6.2-1.4-.3 0-.6 0-.8.1.9.2 2.3.5 3.6.9 1.8.5 3.6 1.2 4.5 1.8.2.2.4.4.5.7v.3l-.3.1c-.1 0-.3 0-.4.1.2.1.4.3.6.6zm8.8-57.2zm-24.1 45.3c.1.5.2 1 .3 1.4.1-.5.1-1 .1-1.6v-.5c0-.8-.1-1.7-.1-2.6-.3 1-.5 2.1-.3 3.3zm-8.8-46.9c.1.1.1.2.2.3v-.2c-.1 0-.2 0-.2-.1zm41.5-13.1c-.5.4-.9.9-1.3 1.4-.2.2-.4.5-.7.7l-.5.5-.6.6c1.1-1.1 2.2-2.2 3.5-3.3.8-.7 1.6-1.2 2.4-1.2-.8-.4-2.1.6-2.8 1.3z"/><path fill="#CF141E" d="M134.1 53.1c0-.1-.1-.1-.1-.1-.1-.2-.3-.2-.5-.2-.5 0-1.3.4-2 1-3 2.6-5.4 5.5-9.1 7.8-.7.6-1.5 1.1-2.4 1.5-1.1.6-2.3 1-3.6 1.4-1.1.3-2.3.4-3.5.5-1.2 0-2.4.1-3.7.1-1.6 0-3.2 0-4.9-.2-3.4-.2-6.9-.8-10-1.8h-.2l-.9-.3c-.4-.1-.7-.1-1.1-.2 1.7 1.4 3.5 2.7 5.2 4 2.7 2 5.5 2.8 8.3 2.8 3.8 0 7.8-1.4 11.8-2.8h.2l.4.4h-.2c-4 1.5-8.1 2.9-12.1 2.9-3 0-5.9-.8-8.7-2.9-2.5-1.9-5.2-3.8-7.4-6-1-1-1.3-2.1-1.3-3.1 0-.4 0-.8.1-1.1-.1 0-.2-.1-.2-.3 0-.3.1-.3.2-.3 0 0 .1 0 .1-.1v-1.5c-.2-.6-.2-1.1-.3-1.5 0-.5-.1-.7-.4-.9h-.1c-1.3-.1-2.2.1-3 .6v1.3c.1-.1.2-.1.3-.1.2 0 .4.2.4.4v.2c0 .2-.2.4-.4.4-.1 0-.2 0-.2-.1.1 1.3.3 3 .7 4.5.7 2.5 2 4.6 4.3 4.7.2 0 .3.2.3.4s-.2.3-.4.3c-1-.1-1.8-.4-2.5-1 0 .4.1.8.1 1.1v-.1c.1-.2.3-.2.5-.1.1.1.2.1.2.2h.3v.3c.2.1.4.3.6.4v-.3c1.4 1.5 4.9 3.5 7 4.3 3.4 1.2 6.7 2.4 10.3 2.9 5.6-.2 10.7-2.9 15.1-5.8l.2-.5.1.3c.4-.3.9-.6 1.3-.9.1-.1.2-.3.3-.4.9-1.2 2.3-1.8 3.7-2.6 1.3-1.1 2.5-2.2 3.5-3.4.3-.5.7-1.1 1-1.6 0 0 0-.1.1-.1 0-.1.1-.2.1-.2.1-.2.3-.5.6-.8.7-.9 1.7-2.2 1.9-3v-.4z"/><path fill="#511B2A" d="M108 96.5c-.8 1.7-.7 3.2-1 4.8-.6 3.3-1.3 6.7-1.9 10-.5 2.6-2.3 5.5-2.3 8.5v.7l.7-.1v-.6c0-2.6 1.8-5.6 2.3-8.4.6-3.3 1.3-6.7 1.9-10 .3-1.7.3-3.2 1-4.7.4-.9 1-3.6 1.7-6.5.6-2.9 1.2-6 1.4-7.6.1-1.1.9-3.9 1.7-6.4.4-1.3.9-2.5 1.4-3.4.4-.9.9-1.5 1.1-1.5l-.2-.7c-.6.2-1 .9-1.5 1.9-1.4 2.9-2.9 8.2-3.2 10-.2 1.5-.8 4.6-1.4 7.6-.7 2.9-1.4 5.6-1.7 6.4z"/><path fill="#CF141E" d="M136 17.2c.3.8.4 1.6.7 2.6.4 1.3 1.2 2.3 2.1 3.4-.4-.6-.7-1.3-1-2.1-.4-1.3-.1-3.3-.8-4.5-.6-1.1-2.5-1.7-3.6-2.2-.1-.1-.2-.1-.4-.1.4.2.8.5 1.1.7 1.2.7 1.6 1.4 1.9 2.2z"/><path fill="#CF141E" d="M141.6 30.1c-.1-.7-.2-1.4-.4-2.1-.9-2.9-4.1-4.8-5.3-8.1-.3-1-.5-1.9-.7-2.5-.2-.7-.6-1.2-1.4-1.9-1.4-1.1-3.3-1.7-5.1-2.2-.7-.2-1.4-.4-2.2-.5-1.8-.2-3.6-.3-5.5-.4-1.4-.1-2.8-.3-4.3-.3h-3.2c-5 0-9.5.9-13.9 3.2l-1.2.6c-2.1 1.3-3.8 2.9-5.3 4.8-.9 1.7-1.6 3.7-2.4 5.4v.4c0 1.2-.7 2.8-.7 4v.5c.1.2.3.4.5.5.5.4 1.1.6 1.8.6.8-.2 1.7-.7 2.5-1.1l.2-.3c.2-.1.4-.1.5-.2l-.1-.2c3.3-2.2 6.9-5.3 10.7-6.8 3.1-1.2 6.5-1.8 9.7-2.2 3.4-.4 6.9-1.3 10.5-1.3 1.6 0 3.2.2 4.8.7 3.5 1.1 7.3 3.2 8.5 6.9.4 1.3.7 2.9.7 4.5 0 1.8-.3 3.6-1.1 5-.5.8-1.3 2.1-2.2 3.2-.2.2-.4.4-.6.7 3.4-2.3 5.3-6.8 5.2-10.9z"/><path fill="#CF141E" d="M97.6 29.7c3.8-1.5 7.9-2.9 12-3.7 3.7-1 7.5-1.5 10.8-.6l.9.3c.6.2 1.1.4 1.7.7.1 0 .1.1.2.1.1.1.2.1.3.2 1.7.7 3.3 1.6 4.9 2.8 4.4 3.5 5.5 7.5 5.9 12.5.6-.4 1.4-1.1 2.1-2 .9-1.1 1.7-2.4 2.1-3.1.7-1.2 1-2.9 1-4.6 0-1.5-.2-3.1-.6-4.3-1.1-3.3-4.6-5.4-8-6.4-1.5-.5-3-.6-4.6-.6-3.4 0-6.9.9-10.4 1.3-3.2.4-6.5 1-9.5 2.1-3 1-6 3.3-8.8 5.3z"/><path fill="#CF141E" d="M99.2 29.9c-.7.3-1.4.5-2.1.8l.1.1.6-.3c.4-.2.9-.4 1.4-.6z"/><path fill="#511B2A" d="M138.5 41.1c1.2-1.3 2.1-2.8 2.7-3.9.9-1.7 1.3-3.8 1.3-5.9 0-1.2-.2-2.4-.5-3.5-.6-1.9-1.9-3.3-3.2-4.7-.9-1.1-1.7-2.1-2.1-3.4-.3-1-.4-1.8-.7-2.6-.3-.8-.7-1.5-1.7-2.2-.4-.3-.7-.5-1.1-.7-1.3-.7-2.8-1.2-4.2-1.6-4.3-1.3-9.2-1.4-13.8-1.4h-1.5c-5.1 0-9.7.9-14.2 3.3-1.8 1-4.2 2.2-5.6 3.9-1.7 2-2.6 5.2-3.8 7.4v.6c0 .4-.2 1-.3 1.7-.6-.2-1.2-.4-1.9-.4h-.2c-1 0-1.8.4-2.3 1-.5.6-.7 1.4-.8 2.2 0 .5-.2 1.6-.2 2.6 0 .5 0 1 .1 1.5v.1c.1.2.1.4.2.6l-.6.3c-1.6.8-3.2 1.6-4.5 2.9-.1.1-.2.4 0 .5.1.2.3.2.5.1s.4-.2.7-.3c.4-.2.9-.3 1.3-.5-.5.3-1 .7-1.6 1l-.1.1c-.8.5-1.5 1-2.2 1.5-.2.1-.2.3-.1.5s.3.3.5.2c.6-.2 1.2-.5 1.8-.7.2-.1.4-.1.6-.2-.2.1-.4.2-.5.3 0 0-.1 0-.1.1-.2.1-.4.3-.7.5-.1.1-.2.3-.1.5 0 .1.1.2.2.2 0 .2.1.3.3.3-.1 1-.4 2-.7 2.9-.6 2.3-2.3 4.7-3.5 6.9-1.6 2.9-2.9 6-4.1 9-1.2 2.9-2.5 5.9-3.6 8.9-.2.7-.5 1.4-.8 2.1L64.7 80c-1.1 3.1-1.1 6.5-2.5 9.2-2.2 4.5-5.6 7.9-8.4 12.1-1.7 2.5-3.3 5.8-3.8 8.8-.1.6-.6 2.6-.6 4 0 .4 0 .7.1 1-1.1-.3-2.2-.7-3.1-1.3-.6-.4-1.2-1.1-1.9-1.8s-1.5-1.3-2.4-1.4c-.2 0-.3.1-.4.2-.1.1-.1.3 0 .5v.2c0 .1.1.2.3.3-.2 0-.3 0-.4.2-.1.1-.1.3 0 .4v.1c-.5 0-1.2-.1-1.8-.1-.3 0-.7 0-.9.1-.3.1-.6.1-.7.4-.1.2-.2.4-.2.6 0 .3.1.5.2.7.1.3.3.5.5.8h-1c-.5 0-.9 0-1.4.1-1 .1-2.1.3-2.7 1.1-.1.1-.1.2-.1.3 0 .1.1.2.2.3.1 0 .1.1.2.1-.6.1-1.1.2-1.7.4-1.1.3-2.2.6-3.1 1.1-.2.1-.2.3-.2.5v.1h-.1c-3.1.6-6.4 1.2-9.3 2.5-.2.1-.3.3-.2.5 0 .1.1.2.2.2-2.3.4-4.7 1-6.5 2.1-.2.1-.2.3-.2.4 0 .2.2.3.4.3h.7c1 0 2.1-.1 3.1-.1.5 0 1.1 0 1.6.1-2.1.8-4.5 1.2-6.8 2.1-.2.1-.3.3-.3.5s.2.3.4.3h.1c1.3 0 2.6-.2 3.9-.3-1.7.3-3.5.5-5.3.9-.2.1-.5.1-.7.2-.2 0-.3.2-.3.4s.1.3.3.4c.2.1.4.2.6.2 1.2.4 2.5.6 3.7.6 1 0 1.9-.1 2.9-.2-1.3.3-2.6.6-3.8 1-.2.1-.3.2-.3.4s.1.3.2.4c.7.3 1.6.4 2.4.4h.2c-.9.3-1.8.5-2.6.8-1 .3-2.1.6-3.1 1-.2.1-.3.3-.3.5s.2.3.4.3c2.7-.1 5.5-.4 8.2-.6 1.3-.1 2.5-.2 3.8-.2h.8c.2 0 .3-.1.4-.2.8 0 1.7.2 2.5.2 1.7.1 3.5.2 5.2.2H33c2.6-.1 5.3-.5 7.9-.5.7 0 1.4 0 2.1.1 2.5.2 5 .6 7.6.6H52c1.6-.1 4.2-.3 6.3-.8h.2c.3-.1.6-.1.8-.2.4-.1.8-.2 1.1-.4.1 0 .1-.1.2-.2v-.2c3.4 0 6.8.1 10.3.3 2.5.1 4.9.2 7.4.3h1.8c1.5 0 3-.1 4.5-.3.4-.1 1.5-.1 2.5-.2.4 0 .8-.1 1.2-.2.6 1 1.8 1.6 3.1 1.9 1.3.3 2.6.4 3.7.4.1.1.2.1.3.1.1 0 .1 0 .2-.1l.1-.1h.5c2.4-.1 4.8-.4 7.1-.4.9 0 1.9.3 3 .3h.5c.3 0 .7-.1.9-.2.1 0 .2-.1.3-.1h.3c1 0 1.9-.2 2.8-.2h.1c1.2 0 2.4.3 3.7.4.9.1 1.9.2 2.8.2h.9c1.7 0 3.5-.3 4.9-1.5.1-.1.1-.2.2-.3 0-.2.1-.4.1-.7.2 0 .3-.2.3-.3.1-.1.4-.2.9-.3.3-.1.6-.1 1-.2.6.5 1.2 1.1 1.6 1.7l.6-.4c-.3-.5-.8-1-1.3-1.5.3-.1.7-.1 1-.2 1-.2 1.9-.3 2.3-.5 2.1-.8 4.1-2.5 5.5-4.2 1.4-1.8 2.1-4.1 2.1-6.3 0-1.1-.2-2.2-.5-3.3-.6-1.7-1.8-3.1-2.9-4.3-.3-.3-.8-.7-1.2-1l-.1-.1c-.5-.4-.9-.8-1-1.1-.1-.2-.1-.4-.1-.6v-.3c0-1.1.3-2.5.6-3.4.6-2.4 1.8-4.1 2.9-6.4.5-1.1.7-2.2 1.2-3.1.5-1.1 1.2-1.9 1.2-3.3v-.5c-.3-2.1-1.7-3.5-2.7-5-.1-.1-.2-.2-.2-.3-1.1-1.7-2-3.4-2-5.3v-.3c.1-2.5.3-5 .5-7.4.1-1.8.2-3.6.2-5.4 0-2.1-.1-4.2-.3-6.2-.1-1.1-.3-2.2-.5-3.3-.1-.4-.1-.8-.2-1.2.3-.3.7-.7 1-1.1.8-.8 1.5-1.8 1.5-2.8v-.2c0-.3 0-.5-.1-.7.3-.1.6-.2.9-.4.1-.1.2-.2.1-.4 0-.1-.1-.3-.2-.3s-.4-.2-.8-.5l-.6-.3c-.1 0-.1-.1-.2-.1h1c.3 0 .7 0 1-.1.2 0 .3-.2.3-.3 0-.2 0-.3-.1-.4-.2-.1-.4-.3-.5-.4-.1-.1-.2-.2-.4-.2h.2c.1 0 .2 0 .3-.1.6-.1 1.2-.4 1.6-.9.1-.1.1-.3 0-.4-.1-.1-.2-.2-.4-.2h-.9c.1 0 .1 0 .2-.1.5-.2.9-.4 1.3-.7.1-.1.2-.3.1-.4-.1-.2-.2-.3-.4-.3-.3 0-.6 0-.9-.1h-.4c.1 0 .2-.1.3-.1h.1c.8-.3 1.6-.6 1.9-1.4V45c-.1-.1-.2-.2-.3-.2h-3.5c.4-.2.8-.3 1.3-.4.7-.2 1.4-.5 2-1 .1-.1.1-.2.1-.3 0-.1-.1-.2-.2-.3l-.6-.3c.4-.7.7-1 1.1-1.4zm-55.1-3.7c.8-.4 1.5-.8 2.3-1.1.1 0 .2 0 .2-.1 1.3-.6 2.5-1.1 3.6-1.9.2-.1.2-.4.1-.6-.1-.2-.4-.2-.6-.1-1 .7-2.2 1.2-3.4 1.8-.1-.1-.1-.2-.2-.5-.1-.4-.1-.8-.1-1.3 0-.8.1-1.7.1-2.3V31c.1-.8.3-1.4.6-1.7.3-.4.8-.6 1.7-.7h.4c.5 0 1 .1 1.4.3-.1.5-.2 1-.2 1.5 0 .7.2 1.3.6 1.8.5.5 1.1.7 1.7.7.6 0 1.2-.2 1.8-.4l.4.5c.3-.2.6-.3.9-.5.2.1.4.3.6.4.2.1.4.1.6-.1.1-.2.1-.4-.1-.6-.1-.1-.2-.1-.3-.2.1-.1.3-.1.4-.2v-.1c.4-.2.8-.4 1.2-.8l-.1-.1-.1-.1c.7-.3 1.4-.5 2.1-.8 1.6-.6 3.2-1.2 4.8-1.7.2-.1.5-.1.7-.2.1.4.2.8.2 1.2 0 .2 0 .4-.1.6-.1.8-.6 1.5-.9 2.4-.1.3-.2.5-.2.8 0 .3-.1.6-.1.9 0 1.4.4 2.7.9 3.9-1.6-.6-3-1.1-4.9-1.1-.4 0-.9 0-1.4.1-2.9.3-5.9.7-8.8 1.1.3-.2.6-.4.9-.7.2-.1.2-.3.1-.5s-.3-.3-.5-.2c-1.7.6-3.4 1.3-5.1 2.1-.3 0-.6.1-.9.1.9-.5 1.8-.9 2.7-1.2.2-.1.3-.3.3-.5-.1-.2-.3-.3-.5-.3-1.1.3-2.3.6-3.5 1-.1 0-.3.1-.4.1.4 0 .8-.2 1.1-.4zm23-13.2c3-1.2 6.3-1.8 9.5-2.1 3.5-.4 7-1.3 10.4-1.3 1.5 0 3.1.2 4.6.6 3.4 1 6.9 3.1 8 6.4.4 1.2.6 2.7.6 4.3 0 1.7-.3 3.4-1 4.6-.5.8-1.2 2-2.1 3.1-.7.9-1.5 1.7-2.1 2-.4-5-1.6-9.1-5.9-12.5-1.6-1.2-3.2-2.1-4.9-2.8-.8-.3-1.7-.6-2.5-.8.1-.1.2-.2.2-.3l-.9-.3-.3.3c-1.4-.3-2.8-.4-4.2-.4-2.1 0-4.2.3-6.3.7-4.1.8-8.2 2.3-12 3.7 2.9-1.7 5.9-4 8.9-5.2zm5.7 20.6c.6.4 1 .7 1.1 1.4 0 .1 0 .3.1.4v.2c0 .5-.2.8-.5 1.1h-.1v-.1c0-.2-.2-.4-.4-.4s-.3.1-.5.2l-.1-.1c-.2-.1-.4-.1-.6.1-.1.2-.2.4-.2.6 0 .1 0 .3.1.4-.2.1-.5.1-.7.1v-.3c0-.2-.2-.4-.4-.4h-.1c0-.1 0-.2-.1-.3-.1-.2-.4-.2-.6-.1-.2.2-.4.4-.4.7 0 .1 0 .2.1.4-.2 0-.4-.1-.5-.2-.3-.2-.5-.4-.5-.9 0-.1 0-.3.1-.6.1-.5.4-1 .7-1.6.4-.8.9-1.5 1.2-1.8.2-.1.5-.3.8-.4.3.9 1 1.3 1.5 1.6zM91.6 61.6c-.1-.1-.2-.1-.3 0l-.1-.1c-.3-.3-.7-.6-1-1-.8-.8-1-1.5-1.1-2.3 0 .1.1.1.1.2.1.1.1.2.2.2.1.2.3.4.4.6 0 .1.1.1.1.2.6.8 1.2 1.6 1.9 2.3-.1-.1-.2-.1-.2-.1zm2.9-3.3c-.8.2-1.6.3-2.4.5-.1 0-.3.1-.5.1-.1 0-.2 0-.3.1-.1 0-.2.1-.2.2s-.1.2-.1.2c-.1-.1-.1-.2-.2-.2-.3-.4-.5-.7-.8-1.1-.2-.3-.6-.8-.9-1.3.1-.5.1-1.1.1-1.7v-.8c-.3-.6-.2-1.2-.3-1.9-.1-.3-.2-.7-.6-.9-.3-.2-.8-.4-1.4-.4h-.2c-.7 0-1.4.2-2 .6h-.1c-.4.1-.8.4-1.1.9-.7.3-1.4.6-2 .7.4-.9 1.5-1.6 2.9-2.2 1.6-.7 3.3-1.3 4.4-2 .1-.1.2-.3.1-.5s-.2-.3-.4-.3c-1.3.1-2.5.4-3.7.8 1.2-.6 2.6-1 3.7-1.8.5 1 1.1 1.9 2 2.7 1.9 1.5 3.8 1.9 5.9 1.9.9 0 1.7-.1 2.7-.1 2.1-.1 3.8-.5 5.2-1.3-.7 1.5-1.7 2.9-2.8 4.1-1.2 1.2-2.6 2-4.1 2.7-.9.5-1.9.8-2.9 1zm-7.8 7c0 2.4-.6 4.5-1.1 7-.1.7-.2 1.3-.3 2-1-1-1.9-2.1-2.4-2.9-1.2-2-1.7-4.6-1.8-6.8v-.1c0-.4.1-1.1.2-1.9.2-1.4.5-3.3.9-5 .3-1.3.7-2.5 1.1-3.4 0-.1.1-.2.1-.3 0-.1.1-.1.1-.2h.1c.1 0 .2.1.3 0 0 0 .1 0 .1-.1.1 1.5.3 3.6.8 5.7.4 1.6 1.1 3.1 2.2 4.1l-.5.1c.2.6.2 1.2.2 1.8zm.7-.3c0 .1.1.1.1.2.1.1.3.2.4.3.4 1.2 1.3 2.5 1.9 3.6.1.3.3.5.3.8.3.8.5 1.7.8 2.5.2.8.5 1.6.8 2.4.6 1.5 1.2 2.9 1.8 4.3.5 1.3.9 2.5 1.2 3.8.1.6.2 1.2.3 1.7.2 1.3.2 2.6.2 3.9v2.7c0 .8 0 1.5.1 2.3 0 .6.1 1.1.2 1.7.3 2 .7 3.9.7 5.8 0 1.2-.2 2.3-.6 3.4-.1.3-.2.5-.4.8-1.5 2.9-1.8 6-1.8 9.1v1.6c-.6.2-1.3.4-1.9.7-1.3.6-2.6 1.2-3.9 1.6-.8.3-2.4.5-3.8.7-.9.2-1.7.3-2.4.5-.1 0-.2.1-.2.1 0-.2.1-.3.1-.5l-.7-.1c0 .2-.1.3-.1.5-.1-.2-.1-.4-.1-.6 0-1.1.6-2.5.6-3.6v-4.6c.4 0 .7 0 1.1-.1v-.8c-.4.1-.8.1-1.1.1v-.7c.2-.2.6-.5.9-.7.1-.1.2-.1.2-.2v-1c-.2.2-.5.4-.8.5-.1.1-.2.2-.4.3 0-.3.1-.7.2-1l.9-.3v-.3c0-.2 0-.4.1-.6-.2.1-.5.1-.7.2.1-.2.2-.5.2-.7.2-.2.4-.3.6-.5.1-.5.2-.9.3-1.4l-.4.4c0-.1.1-.3.1-.4.1-.1.2-.1.3-.2.1-.3.1-.7.1-1-.1 0-.1.1-.2.1.1-.3.1-.7.2-1v-.2c.4-3.1.3-6.3.5-9.4.2-3.4 1.1-6.7 1.7-10 .4-2 .6-4.1.9-6.1.4.4.8.7 1.1.9l.4-.6c-.4-.2-.9-.7-1.4-1.1.1-.8.2-1.7.4-2.5.4-2.4 1.1-4.6 1.1-7.1.1 0 .1-.1.1-.2zm-6.7 41.4c-.1.1-.3.1-.4.2.2-.1.3-.2.5-.3 0 0-.1 0-.1.1zm1.2-3.5c-1.4.8-2.9 1.5-4.4 2.2.9-.6 1.8-1.3 2.7-1.9L82 102c0 .1 0 .3-.1.4v.5zm23.7-74.6l.1.1c.6.7 1.3 1.2 1.8 1.6 1.2.8 2.5 1.2 3.6 1.8 1.7 1 2.4 3.2 2.6 5.3-1.6 1.1-3 2.1-4.8 2.1-.6 0-1.3-.1-2-.4-.5-.2-.9-.3-1.3-.5-.6-1.5-1.1-2.9-1.1-4.4 0-.3 0-.5.1-.8.1-1 .9-1.9 1.1-3.2.1-.3.1-.5.1-.8-.2-.2-.2-.5-.2-.8zm13.1.6c.3 0 .4-.1.5-.3.1-.5.7-1.3 1.3-2.1 2.6.6 5.1 1.7 7.4 3.5.8.6 1.5 1.3 2 1.9-.3.1-.5.1-.8.2-.2.1-.3.3-.3.5s.2.3.4.3c.5 0 1 0 1.4-.1.1.1.2.3.3.4 0 0 0 .1.1.1-.1 0-.2 0-.3.1h-.2c-5.4.1-11.3.3-15.6 2.8-.2.1-.4.2-.5.3-.3-2.1-1-4.3-2.9-5.5-1.2-.7-2.5-1-3.5-1.8-.4-.3-1.1-.9-1.7-1.5-.1-.1-.2-.2-.2-.3 3.3-.9 6.6-1.6 9.8-1.6 1.2 0 2.5.1 3.7.3-.5.7-1 1.4-1.1 2.1-.2.4 0 .7.2.7zm9.9 19.3c-2.3.6-3.8.8-5.3.8-1 0-2.1-.1-3.4-.2-3-.2-5.7-3.5-6.7-6.2l-.1-.1h-.2c-2.2.1-3.3.5-4 1.4-.7.8-1 1.9-2 3.5-2 3-4 3.8-7.7 4-.9.1-1.8.1-2.7.1-2 0-3.8-.3-5.7-1.8-2.3-1.8-2.5-4.8-3.8-7.4l-.1-.1h-.2c-.8 0-1.6-.2-2.4-.3-.1-.6-.2-1.2-.2-1.8 0-.2 0-.4.1-.6v-.2c4.7-.8 9.4-1.4 14-1.9.5-.1 1-.1 1.4-.1 2.7 0 4.3 1 7.1 2 .8.3 1.5.4 2.2.4 2.5 0 4.1-1.7 6.3-3 4.4-2.6 10.6-2.7 16.2-2.7 1.1 1.9 1.7 4 2 6.4-.1.4-.2.9-.3 1.3-.5 3-1 5.6-4.5 6.5zm-44.9-7.3c-.2.1-.5.2-.7.3.2-.1.4-.2.7-.3zm49.8.9zm1.4.7h.3c-.1 0-.3.1-.4.1l.1-.1zm-51.6-3.3v.2c-.4.2-.7.3-1.1.5.4-.2.7-.5 1.1-.7zm-31.4 94.2h-1.4c-2.5 0-5-.4-7.5-.6-.7-.1-1.4-.1-2.1-.1-2.7 0-5.3.4-7.9.5h-1.8c-1.7 0-3.4-.1-5.1-.2-.9-.1-2-.3-3.1-.3-.5 0-1.1.1-1.6.2-2 .1-4 .3-6 .4-.5 0-1 .1-1.5.1l.9-.3c2.8-.8 5.6-1.6 8.3-2.8.2-.1.3-.3.2-.5-.1-.2-.3-.3-.5-.3-1.9.6-4.7 1.5-6.9 1.5h-.7c2.4-.7 4.9-1.2 7.3-2 .2-.1.3-.3.3-.5s-.2-.3-.4-.3c-2.7.2-5.3.8-7.9.8-.9 0-1.8-.1-2.7-.3 3-.6 6.2-.8 9.2-2 .2-.1.3-.3.2-.5 0-.2-.2-.3-.4-.3h-.2c-1.6 0-3.1.2-4.6.4 1.4-.4 2.8-.8 4.1-1.4.1-.1.2-.2.2-.4s-.1-.3-.2-.4c-.9-.4-1.9-.5-2.9-.5-.6 0-1.2 0-1.8.1h-.1c.1 0 .2-.1.4-.1 2.5-.9 5.6-1.3 8.1-1.8.2 0 .3-.2.3-.4s-.2-.4-.4-.4c-.4 0-.9-.1-1.3-.1 2.9-.9 6.1-1.4 9-2 .2 0 .3-.2.3-.4s-.2-.4-.4-.4h-.2c1.7-.6 3.8-.8 5.5-1.3.2-.1.3-.3.3-.5s-.3-.4-.5-.3H36c-.3 0-.7 0-1.1-.1.7-.4 1.9-.5 3-.5h2c.2 0 .3-.1.4-.3 0-.2 0-.4-.2-.4-.3-.1-.8-.6-1-1.1-.1-.2-.2-.3-.2-.5v-.2c.1 0 .5-.1 1-.1.9 0 1.9.1 2.4.1.1 0 .3-.1.4-.2v-.1c.1 0 .1.1.2.2.2.2.4.2.6 0 .2-.2.2-.4 0-.6-.3-.3-.7-.6-1.2-.8h.1c.1 0 .2-.1.3-.2.5.2 1 .6 1.4 1.1.7.6 1.3 1.4 2.1 1.9 1 .6 2.4 1.2 3.6 1.4v.2c0 .1.1.2.1.3.3.9.8 1.8 1.2 2.6.3.5.5 1 .7 1.4.2.5.4 1 .6 1.4.6 1.2 1.2 2.4 1.9 3.6 1.2 2 2.7 2.9 4.1 4.4.6.6.7 1 .7 1.1 0 .1-.1.3-.3.6l-.1.1-.3.3c-.1.2-.3.4-.4.6-1.9.9-4.6 1.1-6.1 1.2zm32.5-1.3c-1.5.2-3 .3-4.4.3h-1.8c-.4 0-.8 0-1.3-.1-5.7-.3-11.5-.5-17.3-.6.1-.2.2-.4.2-.7 0-.5-.3-1-.8-1.6l-.1-.1c-1.5-1.6-2.9-2.5-4-4.3-.2-.4-.5-.8-.7-1.2-.7-1.2-1.3-2.4-1.8-3.7-.4-.9-1.1-2-1.5-3.1-.1-.3-.3-.6-.3-.9.1 0 .2-.1.3-.2l.1-.1c0-.1 0-.2-.1-.3l-.1-.1c0-.1-.1-.3-.2-.3l-.2-.2v-.1c-.1-.2-.1-.4-.1-.8 0-1.3.5-3.2.6-3.9.2-1.3.6-2.7 1.2-4 .7-1.6 1.6-3.1 2.4-4.4 2.7-4.1 6.2-7.6 8.5-12.2.4-.8.7-1.6.9-2.4.3-1 .5-2 .6-3 .3-1.3.5-2.7 1-3.9.6-1.6 1.1-3.1 1.7-4.6.6-1.5 1.2-3.1 1.7-4.6 1-3 2.4-5.9 3.6-8.8 1.2-3 2.5-6.1 4-8.9 1.2-2.1 2.9-4.6 3.6-7 .3-.9.5-2 .8-2.9h1c1.3-.1 2.7-.4 3.7-.4.2 0 .5 0 .9-.1.6 1.2 1 2.6 1.5 3.9-1.8.2-3.4 1.2-4.9 1.6.8-1.3 1.9-2.6 3.2-3.3.2-.1.3-.4.2-.6-.1-.2-.4-.3-.6-.2-1.4.8-2.5 2-3.3 3.3-.2.4-.5.7-.7 1.1-.1.1-.1.3 0 .4 0 .1.1.1.2.1h.2c.2 0 .5-.1.7-.1-.4.2-.8.5-1.2.8-.5.3-1 .7-1.4 1-.2.1-.2.4-.1.5.1.2.3.2.5.2h.1c1.3-.5 2.7-1.2 4-1.7-.4.2-.8.3-1.1.5-1.6.7-3.2 1.7-3.5 3.3 0 .1 0 .2.1.3l.2.2h.7c.4-.1.8-.2 1.2-.4-.1.2-.1.3-.2.5-1.3 3.2-2 8.6-2 10.3v.1c0 2.4.5 5.1 1.9 7.2.5.8 1.4 1.9 2.4 2.9l.5.5c-.3 2.2-.5 4.3-.9 6.4v.2c-.6 3.3-1.5 6.6-1.7 10.1 0 .7-.1 1.4-.1 2.1 0 1.6-.1 3.3-.2 4.9v.5c-.8.5-1.6.9-2.4 1.3-2.4 1.1-4.9 1.9-7.5 2.7-.2.1-.3.3-.3.5s.2.3.4.3c1.3-.1 2.5-.5 3.6-.8.2-.1.3-.3.3-.5 1.2-.4 2.5-.9 3.7-1.5.7-.3 1.3-.7 2-1 0 .2 0 .4-.1.6-.8.5-1.6 1-2.4 1.6-1.8 1.2-3.5 2.5-5.2 3.7-.2.1-.2.3-.1.5s.3.3.5.2c2.3-.7 4.5-1.7 6.7-2.9-.1.3-.2.5-.3.8-.4.3-.7.5-1 .7-1.3 1-2.9 1.7-4.3 2.8-.2.1-.2.3-.1.5s.3.3.5.2c1.3-.4 2.8-1.1 4.2-1.7-.1.5-.2.9-.2 1.4-.4.4-.7.9-.7 1.5 0 .2.2.4.4.4h.3v4.6c0 .9-.6 2.3-.6 3.6 0 .6.2 1.3.7 1.8l.5.4.1-.5c0-.1.1-.1.3-.2.5-.2 1.6-.5 2.7-.7.1 0 .2 0 .3-.1.3-.1.7-.1 1-.2.4.5.9 1 1.5 1.5 1.1 1 1.5 1.5 1.5 2.7 0 .2 0 .5-.1.8-.2 1.3-.7 2.2-.7 3.6 0 .4 0 .8.2 1.2.2.6.1 1.6.3 2.4-.3.1-.8.1-1.2.2-.5 0-.9.1-1.3.1s-.7 0-1 .1zm39.9-1.1c-.1 0-.2.1-.3.1-.1 0-.2.1-.2.1v-.6h-.8v.3c0 .4 0 .8-.1 1.2 0 .2 0 .4-.1.6-.5.4-1.1.7-1.7.9-.4.1-.9.2-1.3.3 0-.8.1-1.5.1-2.1 0-.5-.1-1-.2-1.5-.3-.1-.7-.1-1-.2.3.6.4 1.1.4 1.7 0 .6-.1 1.2-.1 2.1v.1h-.5c-1 0-2-.1-3.1-.2.7-1 .7-2.2.7-3.2v-1c-.2 0-.5-.1-.7-.1 0 .1-.1.1-.1.2v.8c0 1.2-.1 2.3-.8 3 0 0 0 .1-.1.1-1.1-.1-2.2-.3-3.4-.3h-.1c-.7 0-1.3.1-2 .2.3-.5.5-1 .5-1.6 0-.6-.2-1.3-.6-1.9-.7-1.2-1.3-1.7-1.4-2.9v-.4c0-.4 0-.8.1-1.1-.3.1-.6.2-.8.2v1.4c.1 1.5.9 2.2 1.5 3.2.3.5.5 1.1.5 1.5 0 .7-.3 1.3-1 1.6h-.4c-.2 0-.4.1-.5.3h-.7c-.9 0-1.8-.2-2.9-.3.3-.3.8-.7 1-1.4.1-.3.1-.8.1-1.3 0-.8-.1-1.6-.3-2-.1-.2-.3-.3-.5-.2-.2.1-.3.3-.2.5.1.1.2 1 .2 1.7 0 .5 0 .9-.1 1.1-.1.7-.7.8-1.2 1.6v.1l-6 .3c.2-.2.3-.5.5-.8.4-.8.7-1.6.7-2.3 0-.3-.1-.6-.3-.8-.2-.2-.5-.4-.9-.4h-.1c-.1 0-.3.1-.3.2-.1.1-.1.3 0 .4.1.2.3.3.4.3h.1c.1.1.2.1.3.1v.2c0 .5-.3 1.3-.6 1.9-.2.4-.5.8-.7 1.1l-.1.1h-.1c-1.1 0-2.4-.1-3.6-.4-.8-.2-1.6-.5-2.1-.9l-.5-.5c.2-.1.3-.2.5-.4.1-.2 0-.4-.2-.5-.2-.1-.4 0-.5.2-.1-.7-.1-1.6-.3-2.3-.1-.4-.1-.7-.1-1 0-1.1.5-1.9.7-3.5 0-.3.1-.6.1-.9 0-1.5-.7-2.4-1.8-3.3-.4-.3-.7-.7-1.1-1 .6-.1 1.2-.2 1.6-.4 2.3-.8 4.2-2 6.5-2.5.2 0 .3-.2.3-.4s-.2-.3-.4-.3h-.1c0-3.6.1-7 1.8-10.2.8-1.5 1-3 1-4.5 0-2-.4-4-.7-5.9-.2-1.3-.2-2.6-.2-3.9v-2.7c0-1.3 0-2.7-.2-4-.5-3.6-2.1-6.8-3.4-10.1-.7-1.6-1-3.2-1.6-4.9-.3-1-1-2-1.6-2.9-.1-.1-.1-.2-.2-.3.1 0 .1.1.2.1 1.8 1.4 3.8 3 5.9 4.3 3.5 2.1 6.4 2.3 10.7 2.3.7 0 1.4-.1 2.1-.1-.3.6-.5 1.3-.7 2.1-.3 1.2-.5 2.5-.7 3-.3.8-.5 1.6-.7 2.4-.4 1.5-.9 2.9-1.4 4.3-.4 1.1-.8 2.1-1.1 3.1-.7 2.1-1.3 4-1.5 6.5-.2 3-.1 6.4-1.3 9-.7 1.6-1.9 3.1-2.2 5-.1.5-.1.9-.1 1.4v.3c0 .9.1 1.8.1 2.6v.5c0 .5-.1 1.1-.1 1.6-.3 3-1 5.8-1 9.1h-.4v.7c.8 0 1.8-.1 2.6-.1h.3c.5 0 .9 0 1.3.1 1 .2 1.6.7 2.4 1.1.3.2.7.3 1.1.4.2 0 .5.1.7.1.4 0 .7-.1 1-.1.9-.2 1.6-.7 2.4-.9.3-.1.7-.2 1-.2.9-.1 1.9-.2 3-.3.1 0 .3 0 .4-.1l.3-.1v-.3c0-.3-.3-.5-.5-.7-.8-.6-2.6-1.2-4.5-1.8-1.4-.4-2.7-.7-3.6-.9.2-.1.5-.1.8-.1 1.9 0 5.1 1.1 6.2 1.4.6.2 1.4.4 2.1.7-.5 1.9-.2 4-.7 5.8v.1h.1l.6.2c.6-1.9.3-4 .7-5.8l.6.3c1.1.5 1.8 1.2 1.8 1.6 0 .1 0 .3-.2.5-.4.5-1 1-1.5 1.4-.5.4-.9.8-1 1.4 0 .4.3.7.7.9.4.2 1 .4 1.9.6 2.5.5 5.2.5 7.7.9l.2.2c.1.1.2.2.3.2-.2-.2-.5-.1-.7-.1zM122 67.9zm-.7-.4v.2h.2v.1c0 1.3-.8 3.6-1.1 4.8-.4 1.7-.9 3.4-1.4 5.1-.3 1.2-.5 2.3-.7 3.4-.1 1-.2 2.1-.4 3.1-.2 1.4-.8 2.6-1.3 3.9-.4 1-.7 2-.9 3.2-.1 1.2-.2 2.3-.2 3.5v.6c0 1.9.1 3.8.2 5.6v1.2c0 1.6-.1 3.2-.2 4.8v1.1c0 1 .1 2.1.2 3.1.3 1.9.5 4 1.3 5.9.3.7.6 1.3 1 1.9.5.8 1 1.5 1.5 2.3 0 .2 0 .4-.1.6.2.4.5.8.7 1.3v-.5c0 .1.1.2.1.4.1.4.2.7.4 1 .6 1.6 1.3 3 2.3 4.5.2.3.5.6.7.9-2.3-.3-4.6-.3-6.6-.8-.9-.2-1.4-.4-1.8-.5-.3-.2-.3-.3-.3-.3s.2-.4.7-.8c.5-.4 1.1-.9 1.6-1.5.2-.3.3-.6.3-.9 0-1-1.1-1.6-2.2-2.2-.2-.1-.5-.2-.7-.3 0 0 0-.1.1-.1l-.7-.3s0 .1-.1.1c-.8-.3-1.5-.5-2.1-.7-1.1-.3-4.3-1.5-6.4-1.5-.8 0-1.6.2-2 .8l-.2.4.5.1c.8.2 3.1.7 5.1 1.3 1 .3 2 .7 2.7 1 .3.1.5.2.6.3-1.2.1-2.5.2-3.8.5-1.3.4-2.1 1-3.3 1h-.6c-1.2-.2-1.8-1.2-3.5-1.5-.4-.1-.9-.1-1.4-.1h-1.8c0-2.3.4-4.4.7-6.5.2-1.3.4-2.7.5-4.1v-.5c0-1-.1-2-.1-2.9 0-.4 0-.9.1-1.3v-.2c.3-1.6 1.4-3 2.1-4.6.1-.1.1-.3.2-.4 1-2.5 1-5.5 1.2-8.2v-.7c.1-.9.2-1.8.4-2.6.5-2.3 1.3-4.3 2.2-6.7.8-2.2 1.5-4.5 2.2-6.8.1-.3.2-.6.3-1.1.1-.6.3-1.2.4-1.9.3-1.2.7-2.3 1-2.4h.1c4.5-.6 8.7-2.8 12.3-5.1zm12.6 20.2c.6 1 1.4 1.9 2 2.8.4.7.7 1.4.8 2.2v.4c0 .8-.3 1.3-.7 2-.1.3-.3.6-.5.9-.4.9-.7 1.8-1 2.7-.1.2-.1.3-.2.5-1 2.2-2.3 4-2.9 6.6-.1.2-.1.5-.2.8-.2.8-.4 1.8-.4 2.7 0 .4 0 .9.2 1.2.2.6.7 1 1.2 1.4.5.4 1 .8 1.3 1.1.7.7 1.3 1.4 1.8 2.2.4.6.7 1.1.9 1.8.3 1 .5 2 .5 3 0 2.1-.7 4.2-1.9 5.8-1.3 1.7-3.2 3.2-5.1 4-.4.2-2 .4-3.5.6-.1 0-.3.1-.4.1-.1-.1-.3-.2-.4-.3-.1-.1-.2-.2-.4-.3v-.2h-.4c-.5-.5-1-.9-1.3-1.5 0-.1-.1-.1-.1-.2-1.1-1.7-1.8-3.3-2.4-5.3-.2-.5-.4-1-.7-1.5.1-.7.2-1.4.2-2.1 0-1.8-.2-3.6-.3-5.4 0-.7-.2-2.1-.2-3.1 0-.5.1-.9.2-1.1v-.2c.9-1.1 2.5-2.4 3.7-2.5.2 0 .4-.2.4-.4s-.2-.4-.4-.4c-1.8.2-3.5 1.9-4.5 3.1-.1.1-.1.3-.1.4-.1.3-.1.7-.1 1.1 0 1.1.2 2.4.2 3.1 0 1.8.3 3.6.3 5.3v1c-.7-1.1-1.5-2.2-1.9-3.3-.7-1.8-.9-3.8-1.3-5.8-.2-1-.2-2-.2-3 0-1.9.2-3.9.2-5.9v-1.2c-.1-1.8-.2-3.7-.2-5.6 0-1.4.1-2.7.2-4 .3-2.4 1.7-4.4 2.2-7 .4-2.3.4-4.3 1.1-6.4.1-.2.1-.5.2-.7.4-1.5.9-3 1.3-4.5.1-.6.4-1.5.7-2.5.2-.9.4-1.8.4-2.5v-.5h.2c3.1-2.5 6.5-5 9-7.9.1-.2.3-.3.5-.5.2 1.3.4 2.6.5 3.9.2 2 .3 4 .3 6.1 0 1.8-.1 3.6-.2 5.4-.2 2.5-.4 5-.5 7.5v.3c-.2 2.2.8 4.1 1.9 5.8zm.4-33.7v.2c0 .7-.6 1.6-1.3 2.4l-.6.6c0-.2 0-.3-.1-.5v-.3c-.2.3-.4.6-.6.8 0 .1-.1.2-.1.2v.5l-.9.9-.2.2c-1 1.2-2.2 2.3-3.5 3.4-1.1 1-2.3 1.9-3.5 2.9h-.3l-.1.1c-.4.3-.8.6-1.3.9l-.1-.3-.2.5c-4.4 2.9-9.5 5.6-15.1 5.8h-.5c-4.3 0-6.9-.2-10.3-2.2-2.3-1.4-4.5-3.2-6.4-4.7-.2-.1-.4-.3-.6-.4v-.3h-.3c-.1-.1-.2-.1-.2-.2-.2-.1-.4-.1-.5.1v.1c0-.4 0-.7-.1-1.1.7.5 1.5.9 2.5 1 .2 0 .3-.1.4-.3 0-.2-.1-.4-.3-.4-2.3-.1-3.6-2.2-4.3-4.7-.4-1.5-.6-3.1-.7-4.5.1 0 .1.1.2.1.2 0 .4-.2.4-.4v-.2c0-.2-.2-.4-.4-.4-.1 0-.2 0-.3.1v-1.3c.7-.5 1.7-.7 3-.6.3.2.3.4.4.9 0 .4.1.9.3 1.5v1.5s-.1 0-.1.1c0 0-.1 0-.2.3 0 .2.1.3.2.3 0 .4-.1.8-.1 1.1 0 1 .3 2.1 1.3 3.1 2.2 2.2 4.9 4.1 7.4 6 2.8 2.1 5.8 2.9 8.7 2.9 4 0 8.1-1.4 12.1-2.9h.2l-.2-.7h-.2c-4 1.5-8 2.8-11.8 2.8-2.9 0-5.6-.7-8.3-2.8-1.7-1.3-3.6-2.6-5.2-4 .3 0 .7.1 1.1.2l.9.3h.2l-.3-.3c.2 0 .5.1.6.1 1.2.3 2.5.7 3.7.9 2.9.5 5.9.5 8.8.5h1.4c-1.5.1-2.9.3-4.3.6 1.6.1 3.3.2 4.9.2 1.9-.1 3.8-.1 5.5-.4.5-.1 1.1-.1 1.7-.2 1.3-.3 2.5-.8 3.6-1.4-.9.2-1.9.3-2.8.4 1.7-.4 3.3-.9 4.8-1.7.2-.1.3-.2.4-.3 3.7-2.2 6.1-5.1 9.1-7.8.7-.6 1.5-1 2-1 .2 0 .4.1.5.2l.1.1v.3h.2c-.3.8-.3 1-.3 1.2zm.3-1.4c.1 0 0 0 0 0zm2.4-9.8c-.4.2-.9.4-1.4.5-.9.3-1.9.6-2.7 1.3-.1.1-.2.3-.1.4.1.2.2.3.4.3h4c-.2.1-.4.2-.7.3-.1 0-.2.1-.3.1-.8.2-1.7.4-2.3.6-.2.1-.3.2-.3.4s.2.3.4.4c.7 0 1.4.2 2.1.3-.6.2-1.2.4-1.7.5-.2 0-.3.2-.4.4 0 .2.1.4.3.4.4.1.9.2 1.4.3-.1 0-.2 0-.2.1-.7.1-1.4.2-2 .4-.2.1-.3.3-.3.5s.2.3.4.3h.2c.5 0 .8.1 1.2.3h-.5c-.5 0-1.1 0-1.7.1-.1 0-.1.1-.2.1-.1.1-.1.2-.1.3v.1c0 .1 0 .1.1.2l.1.1c.1.1.5.3 1 .6h-.2c-.8 0-1.7.5-2.4 1.2-1.2 1.1-2.4 2.2-3.5 3.3-1.8 1.7-3.6 3.3-6 4.7-3.8 2.2-9 2.3-13.8 2.3h-.6c-3 0-5.9 0-8.7-.5-1.2-.2-2.4-.6-3.7-.8-.5-.1-1.1-.2-1.7-.3-.6-.6-1.2-1.2-1.7-1.9h.3c.1-.1.1-.1.1-.2.1 0 .3 0 .5-.1.7-.2 1.5-.3 2.3-.5 1.1-.2 2.1-.6 3.2-1.1.5-.2.9-.5 1.4-.7 1.1-.6 2.1-1.3 3-2.2.6-.7 1.2-1.4 1.7-2.2.7-1.1 1.3-2.3 1.8-3.5.4-.4.9-.9 1.3-1.5v.3c.1.5.4.9.8 1.1.5.3 1.1.4 1.7.4.3 0 .7 0 1-.1 0 .5.1 1 .1 1.5v.9c0 .2 0 .4.1.6-.6.2-1.1.7-1.6 1.5-1.3 2-2.1 4-4.1 5.3-.5.4-3.1 1.2-4.8 1.2-.5 0-1-.1-1.2-.2-.3-.1-.3-.3-.4-.6 0-.2 0-.4.2-.7.1-.2 0-.4-.2-.5-.2-.1-.4 0-.5.2-.2.4-.2.7-.2 1 0 .6.3 1.1.8 1.3.5.2 1 .3 1.6.3 2 0 4.4-.8 5.3-1.4 2.1-1.5 3-3.7 4.3-5.5.7-1 1.3-1.3 1.7-1.3.7 0 1.6.7 2.4 1.8.5.6 1.9 1.5 3.7 2.3 1.7.8 3.7 1.5 5.3 1.5.7 0 1.2-.1 1.7-.5s.7-.9.7-1.7v-.2c0-.2-.2-.4-.4-.4s-.4.2-.4.4v.2c0 .5-.2.8-.4 1-.3.2-.7.3-1.2.3-1.3 0-3.3-.6-5-1.4-1.7-.8-3.1-1.7-3.4-2.1-.9-1.1-1.9-2.1-3.1-2.1 0 0 0-.1-.1-.1V51c0-.6-.1-1.1-.1-1.6.2-.1.3-.1.5-.2h.1c.1 0 .2-.1.3-.2.4-.1.7-.3 1-.5.5-.4.8-1 .8-1.7 0-.2 0-.5-.1-.8-.2-1-.9-1.6-1.5-1.9-.5-.3-.9-.6-1.2-1.1.4-.1.8-.1 1.4-.1 1.1 2.7 3.8 6 7 6.3h1.1c1.4 1.3 2.5 2.9 4 4.3 1.3 1.1 2.5 1.4 3.7 1.6.2-.2.4-.5.7-.7-1.4-.2-2.6-.4-3.9-1.5-1.2-1-2.2-2.4-3.3-3.6h1.1c1.6 0 3.1-.2 5.5-.8 3.4-.9 4.2-3.3 4.6-6h.2v.2l-.1.5c.3.1.6.1.9.1.4 0 .9-.1 1.3-.2s.7-.3 1.1-.5c.3.1.4.2.5.2zm-4.1 8.7zm3.6-9.7c-.2 0-.4-.1-.7-.1l.6-.6c.2-.2.4-.4.6-.7.9-1.2 1.7-2.4 2.2-3.2.8-1.4 1.1-3.2 1.1-5 0-1.6-.3-3.3-.7-4.5-1.3-3.7-5-5.8-8.5-6.9-1.6-.5-3.2-.7-4.8-.7-3.5 0-7.1.9-10.5 1.3-3.3.4-6.6 1-9.7 2.2-3.8 1.5-7.4 4.5-10.7 6.8l.1.2c-.2.1-.4.1-.5.2l.1.3c-.8.4-1.7.9-2.5 1.1-.3.1-.5.1-.8.1-.4 0-.8-.1-1.1-.5-.2-.2-.3-.5-.4-.8v-.5c0-1.2.7-2.9.7-4v-.4c.8-1.7 1.5-3.7 2.4-5.4.3-.6.7-1.2 1.1-1.7 1-1.2 2.6-2.2 4.2-3.1l1.2-.6c4.4-2.4 8.8-3.2 13.9-3.2h3.2c3.3 0 6.6.2 9.7.8.7.1 1.5.3 2.2.5 1.7.5 3.7 1.2 5.1 2.2.8.6 1.2 1.2 1.4 1.9.2.7.4 1.5.7 2.5 1.1 3.3 4.4 5.2 5.3 8.1.2.6.3 1.3.4 2.1 0 .4.1.8.1 1.2 0 1.9-.5 4-1.3 5.5-.6 1.1-1.5 2.6-2.6 3.8-.5.4-1 .8-1.5 1.1z"/></svg>