<svg version="1.2" baseProfile="tiny" xmlns="http://www.w3.org/2000/svg" viewBox="0 0 651.5 595.3"><path fill="#FDCC71" d="M125.1 436.1c-.1-1.3-.2-2.5-.3-3.7-.1.6-.1 1.2-.1 1.9 0 1.4.2 2.6.2 3.7.1-.5.2-1.1.2-1.6v-.3zm13.6-27.6c-.4-.2-.7-.3-1-.5l1 .8v-.3z"/><path fill="#FDCC71" d="M121.8 412c.9 1.6 1.9 2.8 3.8 3.3 0-.1-.1-.1-.1-.2 0-.9-.1-2-.1-3 0-.6 0-1.1.2-1.7.3-1 .9-1.5 1.5-1.8.6-.3 1.3-.4 1.9-.6.1 0 .3 0 .4.1.1.1.2.2.1.4 0 .2-.1.4-.2.7-.1.2-.3.3-.5.2-.2-.1-.3-.2-.2-.4-.4.1-.8.2-1.2.4-.5.2-.8.5-1.1 1.3-.1.4-.2.9-.2 1.4 0 1 .1 2.1.1 3 0 .1-.1.2-.2.3.3.1.7.1 1.1.1h2.4c-.5-.2-1-.4-1.3-.7-.9-.9-.8-3.3-.3-4.6 3.2.1 9.7 4 9.5-2.3 0 0-.1 0-.1-.1-.4 1.8-2.4 2.9-4.4 2.9h-.7c-.5-.1-1-.3-1.4-.6-.3-.1-.6-.3-.8-.6-.2-.2-.3-.5-.4-.8-.2-.4-.3-.8-.4-1.2v.1c0 .2-.2.4-.5.3-.2 0-.4-.2-.3-.5.2-1 1-1.7 1.9-2.1.9-.4 2-.6 2.9-.6.5 0 .9 0 1.2.1 1.1.3 1.7 1.1 2.4 1.6.5.4 1 .7 1.6 1-.2-1.3-1.2-2.3-2.6-3-.3-.1-.5-.2-.8-.3 0 .1-.1.1-.2.2h-.2c-.1 0-.2 0-.3-.1-.1 0-.3-.1-.3-.2s-.1-.1-.1-.2l-.1-.1c-1.2-.3-2.6-.5-4-.5-1.2 0-2.4.1-3.6.3h.1c.2.1.3.4.2.6-.1.2-.4.3-.5.2-.3-.2-.6-.3-.9-.5h-.1c.3.3.6.5.8.8.1.1.2.3.1.5 0 .1-.1.1-.2.2.2.1.2.2.2.4s-.2.3-.4.4h-.3c-.1.2-.2.3-.4.3h-.1c-.1 0-.4 0-.7-.3-.1-.1-.2-.3-.1-.5l-.6-.3c-.3-.1-.6-.3-.8-.5-.7.4-1.3.9-1.7 1.5.7 2 .9 3.8 1 5.7z"/><path fill="#FDCC71" d="M124 404.7c.3.2.7.3 1.1.4-.4-.2-.8-.5-1.2-.7-.1 0-.1 0-.2.1.1.1.2.2.3.2zm7.6 1.2h-.1s0 .1-.1.1h.1s0-.1.1-.1zm-6.5 117.6c-.2-.2-.3-.3-.5-.6-.1-.1-.1-.2-.2-.3 0 .4-.2.9.2 1.2.3.2.6.3 1.1.3-.1-.1-.2-.1-.2-.2-.1 0-.3-.2-.4-.4zm-5.6-29.8c-.5-.5-.9-1.2-1.2-2.1-.6-2 0-3.2.5-4.8 0-.3 0-.6-.1-.8 0-.3-.1-.5-.1-.8-.3 2.4-.9 4.9-.6 7.4.3 3.2 2.2 6.7 4 9.7-.1-.6-.3-1.3-.4-1.9-.3-2.4-1.4-4.3-2.1-6.7zm29.5-92.9c.5 0 1 .2 1.5.3.5 0 .9.1 1.3.1 0 .2 0 .3.1.5 0 0 .1 0 .1.1.7-.3 1.5-.5 2.4-.5 1 0 2 .3 2.8 1.1 1 1.1 2.2 3.1 2.5 4.5.1.2-.1.4-.3.5h-.1c-.2 0-.4-.1-.4-.3-.3-1.2-1.5-3.1-2.4-4.1-.6-.6-1.3-.9-2.2-.9-.7 0-1.5.2-2.2.4h-.3c0 1.6-.6 3.3-2.2 3.7-.2.1-.4.2-.6.2-.4.1-.7.2-1.1.2-.5 0-1-.1-1.5-.3 0 .1 0 .2.1.4 1.4.7 2.9.3 4.5.7 1.5.4 3.4 1.3 4.9 2-.6.7-1.8 1.3-3.1 1.6 2.6 0 5.4-.8 7.1-1.6.2-.1.4-.2.5-.3-.4-3.3-1.4-6.4-2.4-9.6-.1-.4-.2-.9-.4-1.3-1.3.2-2.6.5-3.7.7-1.9.2-3.5.8-4.9 1.9zm-29.9 55.5c-1.4 2.9-2.4 6.3-2.9 9.4 0 .3-.1.6-.1.9.4-1.3.9-2.5 1.4-3.7.5-2.2 1.1-4.4 1.6-6.6zm12.4-62.3c.2-.2.4-.5.6-.7-.4.1-.9.2-1.3.2-1.8.1-3.4-.6-5-1.5-1.5-.8-2.8-1.8-4.2-2.5 1.5 1.1 2.9 2.4 4.4 3.3 1.5 1 3.6.7 5.5 1.2zm7.7-3.1h.7c1.3 0 2.6-.1 3.4-.9 1.4-1.3 1.7-3.8 2.4-5.8.2-.4.3-.9.5-1.3-.7 1.2-1.2 2.4-1.5 3.1-.6 1.7-1.4 4.1-3.4 4.6-1.5.4-3.2-.1-4.8.5h-.1c.5-.1.9-.2 1.2-.3.6.1 1.1.1 1.6.1zm4.5 10.5v.2h.1c-.1-.1-.1-.1-.1-.2zm.9 116.5h-.2c-.2 0-.2 0-.3.1-.1.1-.1.2-.2.4v.1c.2.3.2.8.4 1.7 0-.4.2-.8.4-1.1 0-.3-.1-.8-.1-1.2zm16-106.6s-.1 0-.1.1c-.4.1-.8.3-1.2.4h1.3c.1-.2.1-.4 0-.5zm-39.8-1.5v-.4h-.1v.2c.1 0 .1.1.1.2zm24.5-9.4c0-.2 0-.4.1-.6-.2.3-.3.6-.4.9.1-.2.2-.3.3-.3zM132 435.1v-.1c-.2-.1-.5-.2-.7-.3.2.1.4.2.7.4zm-6.1-9c.2-.8.4-1.6.4-2.5-.3-1-.7-1.9-1.2-2.9.2.4.3.8.4 1.3.4 1.6.4 3.1.2 4.4 0-.1 0-.1.1-.2.1 0 .1 0 .1-.1zm-11.4-35.7c0-.5.1-1 .3-1.4-.1 0-.3 0-.4.1-.2 2.5.7 5.2.9 7.8.1 1.1.8 2.1 1.4 3.1-.4-1.7-.5-3.3-1-4.8-.4-1.3-1.2-3.1-1.2-4.8zm53.9 41.6c.3.6.6 1.3.8 2-.1-.6-.3-1.2-.8-2zm-14 4.3c0-.1 0 0 0 0zm-35.9-32.4v-.5l-.1-.1.1.6zm38 109.8c-.1-.2-.1-.4-.1-.7h-.4c.1.3.3.5.5.7zm4.7-92.5c0-.1-.1-.1-.1-.2s-.1-.1-.1-.2l.3.5c-.1 0-.1 0-.1-.1z"/><path fill="#FDCC71" d="M148.3 430.4c-1.2 2.6-7.4 3.1-9.9 3-2-.1-3.7-.3-5.5-.7.1.1.3.2.4.3.4.3.8.5 1.3.7.9.4 1.8.7 2.7.9 2.3.5 4.7.6 7.1.6 1.4-.2 2.8-.4 4.4-.4.5 0 1 0 1.6.1v.1c1-.3 1.9-.6 3-1.2.6-.4 1.3-.7 1.9-1.1.2-.1.3-.2.5-.3h.1c0-.2.2-.3.3-.3h.1c1-.6 2-1.3 2.7-2.1h-.1c-.1 0-.2 0-.3-.1l.1-.3c-2.1 1-5.9 2.3-7.9.9 3.3-1.8 9.8-5.3 10.3-9.7-.8-.9-2.2-1.5-3.4-2.1-.4-.2-.9-.4-1.4-.6-.4.4-.9.7-1.3 1.1.2.2.4.4.5.6 1.2 1.5 2 3.1 2.2 4.2 0 .2-.1.4-.3.5h-.1c-.2 0-.4-.1-.4-.3-.1-.8-.9-2.4-2-3.8-.2-.2-.4-.5-.6-.7-.8.5-1.6 1-2.5 1.3-1 .4-1.9.6-2.8 1-.9.4-1.4 1-2.3 1.6-.8.5-1.7.7-2.5.7-1.5 0-3-.5-4.2-.6-.8-.1-1.6-.1-2.5-.1-.1.6-.2 1.3-.2 1.9 0 .5 0 1 .1 1.4 0 .3.4 1.2.7 2.1.1.3.2.5.3.8.6.1 1.1.1 1.6.2 2.7.3 5.4.3 8.3.4zm1.2 45.6c-.2.4-.4.7-.7 1.1 0 .1.1.3.1.4.4-.6.8-1.1.9-1.6-.1 0-.2.1-.3.1zm-1.1-40.2h-.5c.1.1.3.1.5 0-.1.1 0 .1 0 0zm.1 42.1h-.2v-.3c-.7.8-1.6 1.6-2.2 2.4-.2.2-.4.5-.7.9l.3.3c.2-.3.5-.6.7-.9.5-.7 1.4-1.5 2.1-2.4zm5.1-41.2c-.4.2-.7.4-1.1.7.4-.3.8-.5 1.1-.7.1 0 0 0 0 0zm-10-29.4c-.1-.1-.1-.2-.1-.3v-.1c-1.6.3-2.3.7-2.7 1.4-.4.5-.6 1.3-1.1 2.3v1.6c.2-.4.5-.6.9-.9.6-.4 1.2-.6 1.7-.6h.6c1 0 1.7.4 2.4.8l-.3-.6c-.3-.6-.7-1.2-.9-1.9-.2-.6-.4-1.1-.5-1.7zm6.5 117.8c-.5 0-1.1-.1-1.5-.2-1.1-.4-1.9-1-2.5-1.9-.5-.3-.9-.6-1.3-1 .5 1 1.3 1.8 2.6 2.4 2 1.1 3.9.7 6.1.6h.1c-.4 0-.9-.1-1.3-.2-.7.2-1.5.3-2.2.3zm6.8-131.5c0 .4-.1.7-.1 1v.3c.1.3.2.4.3.6.1.1.3.3.4.5 0-.8.2-1.6 0-2.6-.1-1-.6-1.7-1.1-2.5.1.8.3 1.6.3 2.5.2.1.2.1.2.2zm-10 51.8c0 .4.1.8.2 1.2.2.4.4.7.6 1.1-.2-.7-.4-1.5-.6-2.2-.1-.1-.2-.1-.2-.1zm-1.9 36c-.7.9-1.4 1.8-1.8 2.8 0 .1.1.1.1.2.4-.7.9-1.3 1.4-1.9 0-.1.1-.2.2-.4.1-.1.2-.2.3-.2l.2-.2c-.2-.1-.3-.2-.4-.3zm.3-68.7c-.2.1-.5.2-.7.4.4-.2.6-.3.7-.4z"/><path fill="#FDCC71" d="M137.4 429.7c0-.1-.1-.2-.1-.4-.3-.9-.7-1.7-.8-2.3-.1-.5-.1-1-.1-1.6 0-.6.1-1.3.2-1.9h-2.7c-.3.4-.5.8-.7 1.2-.4 1-.7 2.3-.8 3.7 1.5.7 3.3 1 5 1.3zm19.6-12.3c-.1.1-.2.1-.2.2.4.2.7.3 1 .5.9.4 2.1.9 3 1.6-.2-1.1-.3-2.2-.3-3.2-.7-.3-1.3-.5-2-.7-.4.5-1 1-1.5 1.6zm-9.5 31.4s0 .1 0 0c.2 1.6.4 3.2.6 4.7 0-1.5-.1-2.9-.3-4.2 0-.2-.1-.3-.3-.5zm13 74.7c-.6.4-1.3.7-2.1.9-1 .5-2 .7-3 .8 1.2.1 2.4.1 3.6-.2 1-.2 1.9-.9 2.9-1.2.1-1.1.1-2 0-2.9-.1 1-.6 2-1.4 2.6zm-11.7.6c.3.1.5.1.9.2-.5-.2-1-.3-1.5-.5.1.1.4.2.6.3zm-14.8-6.6c-.2-.2-.6-.4-1.1-.5-.7-.2-1.5-.2-2.4-.2-.9 0-1.7.1-2.1.1-.1 0-.2 0-.4.1l-.2.5c2.1-.1 4.2-.3 6.2 0z"/><path fill="#FDCC71" d="M138.3 520.4c.5-.1 1 0 1.4.1.3-1.4.2-3 .3-4.4.1-5.1.5-10.4.9-15.4v-.5c-.2-.5-.3-1.1-.5-1.6-.2-.8-.3-1.5-.3-2.4-1-.6-1.8-1.3-2.8-1.8-1.4-.7-3.2-1.3-4.7-1.9-1.9-.7-4-.4-5.4-2.1-.1-.1-.2-.2-.2-.3.4 1.7.8 3.5.9 5.3v1.8l.6.3v-3.8c-.2 2 6.8 1.9 8 3.4-1.8 1-1.9 1.9-4.2 1.7-1.8-.1-3.1-.7-4.4-1.6v.3c0 2 .2 4.1.4 6.1l.4-1.4c2.1 1.2 4.6 2.2 7 1.2.8-.3 3-2.3 2.9.2-.2 2.7-6.2 2.6-10 2.8.3 2.5.6 5.1.6 7.7 0 .6 0 1 .1 1.5.2 0 .4.2.4.3v.2h1.2c.9 0 1.8.1 2.6.3.8.2 1.5.5 1.8 1.3v.3c.9.3 1.7.7 2.5 1.4-.1.1.2.5.5 1zm20.7-3.6c-.7-.6-1.4-1.1-2.1-1.7-1.2-1-1.9-1.9-1.9-3.1 0-.7.2-1.4.6-2.2 1-2 1.4-4.6 1.8-7.1h-.1l-1.8 4.6v-.9c-1.9 0-9.9-2-6.1-3.8 1.3-.6 6.5-1.3 7.8-.3 0-.1.1-.2.2-.2s.2-.1.2-.1c.1-.3.1-.5.2-.8.1-.5.3-1 .4-1.5.1-1.9.2-3.7.4-5.6-2.5-2.7-7.9-2-11.2-1.2v3.5c0 2.3 0 4.5-.5 6.7-.8 3.3-1.2 6.1-1.2 9.5 0 1.1-.1 2.5-.1 3.9 0 .7 0 1.5.1 2.2.2-.1.5-.3.7-.4.3-.4.7-.8 1.3-1.1 1.9-1.2 3.7-1.4 5.8-1.4.2 0 .4.2.4.4v.1c1.2.1 2.4.4 3.6.5.4-.1.9 0 1.5 0zm-3.5-33.5c1.2-.1 2.2-.4 3.3.1.7.3 1 1 1.7 1.3 1.3-2.9 3.8-5 4.3-8.1v-1.4c0-.5-.1-1-.2-1.5-.5 1.4-1.8 1.4-3.6 2.2-2.5 1.2-3.6 3.5-5.7 5.2-1 .9-2.4 1.5-3.7 1.9-1 .3-2.5 0-3 .7l3.2-3.4c1-1.4 2.6-2.3 3.4-4 .9-1.7.9-3.7 2.2-5.2 1.6-1.7 5.2-3.2 7.5-3.6.1.7.1 1.6.1 2.5.2-1 .6-2.1.9-3.1.3-1.5.7-2.9 1.1-4.4-.5 1-1.3 1.7-2.7 1.7-.1-2.6.1-5.4-1.6-7.6-2-2.7-5.4-1-7.5 1.2-.1.2-.2.4-.3.5h-.2l.5-.5c.7-1.4.9-3.4 1.4-4.9.8-2 1.7-4.2 2.8-6.1 1.5-2.4 4.1-5.1 6.9-5.5.7 4.6 2.4 9 1.7 13.7-.2 1.2-.1 2.9-.3 4.6.1-.4.2-.9.3-1.3.2-1 .4-2 .5-3-.1-1.9-.3-3.8-.2-5.7 0-.4 0-.9.1-1.4-.2-1.3-.5-2.6-.6-4v-.6c.1-2.3.8-4.9.8-7.3v-.5c-.1-2.3-1.5-4.6-3-6.5h-.1c-.1.1-.3.2-.4.3.6.9 1.7 1.2 2.2 2.3.9 1.9-.4 3-1.5 4.4-3.5 4.2-6.7 6.9-12.2 8.4-1.8.5-3.8.8-5.8.9.8 2.6 1.1 5.2 1.1 8.2v.1c0 1.1.2 3.1.4 5.5.4 2 .9 3.9 1.3 5.9.4 1.6.2 3.5 0 5.2-.1.6.1 2.1 0 3.4v.4c0 .8 0 1.5-.1 1.9-.4 1.8-2.6 3.5-3.5 4.8-.4.5-.8 1-1.3 1.6v.2c-.3.6-.4 1.5-.5 2.5l.6-1.3c0 2.2 0 4.1.8 6.2l-.1-2.2c-.1-.2-.1-.5-.2-.8v-.2c0-.1-.1-.2-.1-.4v-.2c0-.1.1-.3.3-.3v-.1c2.9-1.5 5.6-2.4 9-2.7zM151 378.2c-1.3 1.1-1.9 4.5-2.2 6.4-.3 1.5-.3 2.8-.3 4.4 0 1.2.3 2.3.6 3.4 0-.1.1-.1.1-.2.6-1.1.9-2.8 2.1-3.9.1-.1.3-.1.5-.1.2.1.2.3.2.4-.2 1.3-.9 2.6-1.5 3.8.7-.5 1.4-1 2.2-1.1.1 0 .3 0 .4.1.1.1.1.3.1.4-.1.3-.3.6-.5.9.3-.1.7-.2 1-.2.1 0 .3 0 .4.1.1 0 .2.1.3.2v.4c-.2.3-.5.6-.8.9.5-.2 1.1-.3 1.7-.3h.4c.1 0 .3.1.3.3.1.1 0 .3-.1.4-.4.5-1 .9-1.5 1.4l-.6.6c.3 0 .5-.1.8-.1h.4c.2 0 .3.2.3.4.6-.1 1.2-.2 1.9-.3-.1-.2-.3-.4-.4-.5-.2-.2-.4-.5-.5-.9 0-.2-.1-.3-.1-.5 0-.4.1-.7.1-1v-.1c-.1-1.4-.4-2.9-.7-4.3-.8-1.6-1.7-3.8-2-5.5-.1-.5 0-1.1 0-1.8l-.6-1.8c-.2-.7-.5-1.4-.8-1.8h-.1c-.5-.1-.8-.1-1.1-.1zm-24.6 107.5l-.2-4.5c-.1 0-.1 0-.2-.1l.2-.3v-.1.1l1.1-1.6c2 1 3.9 1.6 6.1 1.9 1.4.2 3 .9 4.4.4-.1 1.8-3.1 2.2-4.5 2.3-2.8.1-4.4-1.8-6.9-2.6 1 2.5 2.7 4.6 5.7 4.1 3.9-.6 7.2-.1 11 .4.1.6 0 1.4-.3 2.3.3-.5.7-1.1.9-1.6.3-.7.4-1.6.5-2.5-.3.4-.5.7-.7 1.1l-.2.4-.3-.4c-.1-.1-.1-.2-.2-.2 0 .2-.1.4 0 .7-1.3-.5-3.2-2.5-3.9-3.6-.7-1-1.1-2.3-1.6-3.4-.4-.7-1.4-1.5-1.5-2.3v-.4c-1.1 0-2.1.1-3.1.2-2.3.2-6.7 1.2-6.1-2.5h.1c2.1-2.2 7.2-5.7 11.7-6.1v-.4c.1-1.2.2-2.4.3-3.5-.1-.1-.3-.2-.4-.3l.2-.3v-.5c0-.7.1-1.5.2-2.3-3.4 2.6-7.2 6.1-6.5 7.4l-5.2.4c.5 1.7.6 3.3 0 4.8-1.3-1.6-1.2-3.9-2.1-5.7-.7-1.4-1.2-1.7-1.5-3.3-.3-1.5-.8-3-1-4.5-.6-6 1.7-11.2 4.4-16.2l.2.4c-1.7 2-1.9 6.3-1.9 8.8 0 3.1-.8 7-.1 10.1.3 1.4 1.1 3.2 1.7 4.9.3-1.8 2.9-4.7 3.9-5.7 2.5-2.4 5.4-4.4 8.5-5.6 0-.4.1-.8.1-1.2-.1-.2-.3-.3-.4-.5l.4-.3c-3.5 2.1-8.1 3.2-11.2 2-2.3-.9-2.8-2.8-2.9-5.2 0-1.5.2-3.4 1-4.8.6-1.1 2-2 2.2-3.3v-.6c-1.3-.7-2.4-1.5-3.3-2.6-.5 1.2-1.1 2.3-1.5 3.3-.8 2.1-1.4 4.2-1.9 6.4h.9c.2 1.8-.9 3.4-1.1 5.2-.2 1.9-.1 4-.2 5.9-.1 2.6-.2 5.5.5 8.1 1 3.2 2.4 4.7 1.5 8.2-.8 3.1.4 5.8 1.6 8.7 0-.3-.1-.6-.1-1-.1-3.7-.8-7.2-.8-11 0-.2.2-.4.4-.4s.4.2.4.4c0 3.7.6 7.2.8 10.9 0 1.3.3 2.5.6 3.7.2-.6.3-1.3.3-2.1zm7-49.9c-.3-.2-.6-.4-.9-.5 0 .1 0 .1-.1.2.8.5 1.6 1.1 2.4 1.7-.4-.6-.8-1.1-1.4-1.4zm-10.9 58.6c-.8.2-1.4.1-2-.1.7 1.9 1.6 3.8 1.9 5.9.3 1.9.7 3.5 1.5 5.1.9 1.3 1.9 2.5 3 3.7.3.3.7.6 1 1-.1-1.2-.2-2.5-.4-3.7h-.3l-.1.4c-.5 0-1-.2-1.5-.2.3-.1.9-.2 1.6-.3l.2-.7c-.3-2.7-.6-5.4-.6-8.2v-2.4c-.6-.3-1.1-.8-1.7-1-1-.2-1.4.3-2.6.5zm36.4-3.8c.3-1.5.6-3.1 1-4.5-.6 1.2-.9 2.8-1 4.5zm-32.8-.4c.1 1.4.3 2.9.8 4.1-.2-1.4-.5-2.7-.8-4.1zm-9.8-20.6c0-.2 0-.4.1-.5 0 .1-.1.3-.1.5zm20.6-28.6c0-.3.2-.6.4-.8l-.3-.3-.2.1c-2.3-3.3-6.7-5.1-10.4-7.6.6 1.5.5 3.7 2 5.1 2.1 2 5.6 2.8 8.5 3.5zm-9.6-14.4l.4-1.1.3.3c.7-.9 1.4-1.8 2-2.8 1.7-2.7 4.1-3.7 6.3-5.5.1-.1.4-.1.5 0 .2.1.2.3.1.5s-.3.3-.3.4c-.1.1-.2.1-.3.1-2.2 1.7-4.2 2.6-5.6 4.9-.6 1-1.4 2-2.1 2.9.8.7 1.8 1.3 2.9 1.8.1-1.3.4-2.6.9-3.7.1-.3.3-.6.4-.8h-.8c-.2 0-.4-.2-.4-.4s.2-.4.4-.4h1.4c1-1.4 2.5-2.7 3.9-3.4.2-.1.4 0 .5.2.1.2 0 .4-.2.5-1.1.5-2.3 1.5-3.2 2.7h2.3c.2-.7.5-1.4.9-2 .1-.2.4-.2.6-.1.2.1.2.4.1.6-.3.4-.6.9-.7 1.5.8 0 1.6.1 2.4.1 1.4.1 2.8.6 4.2.6.8 0 1.5-.1 2.1-.5.8-.5 1.4-1.2 2.4-1.7 1-.4 1.9-.7 2.8-1 .7-.3 1.4-.6 2.1-1.1-.8-.7-1.7-1.2-2.3-1.2-.2 0-.4 0-.6.1-.2.1-.4 0-.5-.2-.1-.2 0-.4.2-.5.3-.1.6-.2 1-.2 1.1 0 2.1.6 3 1.5.4-.3.7-.5 1.1-.8-1-.4-2.1-.8-3.1-1.1l-.9-.3c-.3-.1-.5-.1-.8-.4-.1-.2 0-.4.1-.6.2-.1.4-.1.5.1.1 0 .2.1.3.1.2.1.6.2.9.3 1.2.4 2.4.8 3.5 1.3.2-.1.3-.3.5-.5.4-.4.9-.9 1.2-1.4-1.8-.6-3.6-.9-5.4-1.1-.2 0-.4-.2-.4-.4s.2-.4.4-.4c1.9.1 3.8.6 5.7 1.2 0-.1.1-.1.1-.2.1-.2.3-.3.5-.2.2.1.3.3.2.5v.1c.6.2 1.1.4 1.6.6 0-.3 0-.5.1-.8.1-.8.1-1.5.1-2.2h-1.5c-.5 0-.9 0-1.3.1-1.9.2-3.8.4-5.8.4-.2 0-.4-.1-.4-.3-.5 0-1-.1-1.5-.2.1.2 0 .4-.1.5-.2.1-.4.1-.5 0-.1.1-.2.1-.3.1-.1 0-.2 0-.3-.1-.2-.1-.2-.4-.1-.6.1-.1.2-.2.3-.2-.6-.3-1.1-.6-1.7-1-.9-.2-1.7-.6-2.2-1.1.1.2.2.3.3.5.3.6.6 1.2.7 1.8 0 .7-.5 1.3-1.5 1.6v.6c0 .5-.1 1.2-.8 1.5h-.1c.1.3.4.7.6 1 .4 0 .6.2 1 .4s.8.4.9.4h.4c.6 0 1.2-.1 1.9-.3.2 0 .4.1.5.3 0 .2-.1.4-.3.5-.6.1-1.3.3-2 .3h-.5c-.4 0-.7-.2-1.1-.4-.3-.2-.7-.3-.8-.3-.1 0-.4.2-.6.5-.2.3-.5.7-.8 1-.8.7-1.7 1.1-2.5 1.5h-.2c-.2 0-.3-.1-.4-.2-.1-.2 0-.4.2-.5.8-.4 1.7-.8 2.3-1.4.2-.2.5-.6.7-.9.1-.2.3-.3.5-.5-.3-.3-.5-.7-.6-1.2-.9.2-1.5-.8-2.2-1.6-.2 0-.3-.1-.5-.1-.5-.1-1-.2-1.4-.8-.2-.4-.3-.8-.3-1.4-.2.3-.3.5-.5.7-.1.2-.2.4-.3.5-.4.5-.9 1-1.5 1.4-.2.1-.3.2-.5.4.3 0 .6-.1.8-.1.2 0 .4.1.5.3.1.2 0 .4-.2.5-.3.1-.5.2-.8.3-.1 0-.2 0-.3-.1-.8.1-1.5.1-2.3.1-.7.2-1.5.3-2.3.4-.9.1-1.7.2-2.5.3-.8.1-1.5.2-2.3.2h-.5c-.2 0-.3-.2-.4-.4-.9-.2-1.8-.5-2.7-1.1.7 1.2 1.6 2.3 2.3 3.5.9 1.4 1.5 2.6 1.9 3.9.1.1.2.2.2.3v.2c0 .2.1.3.1.5s0 .3-.2.4c-.1.7-.2 1.2-.4 1.8.1.2.3.3.4.5.1-.2.2-.3.2-.3zm20.1-13.1c.1-.2.3-.5.7-.5.3 0 .5.2.6.4.1.2.1.4-.1.6-.2.1-.4.1-.5 0-.1.1-.2.2-.4.2h-.2c-.2-.3-.2-.5-.1-.7zm-.6 1.6c-.2 0-.3-.1-.4-.3-.1-.2 0-.4.3-.5.2-.1.3-.1.5-.1s.3 0 .5.2c.2.1.2.4.1.6-.1.2-.4.2-.6.1 0 0-.1 0-.2.1-.1-.1-.1-.1-.2-.1zm1.8 1h-1c-.2 0-.4-.2-.4-.4s.2-.4.4-.4h1c.2 0 .4.2.4.4s-.1.4-.4.4zm.7-1.3c-.2 0-.4-.2-.4-.4s.2-.4.4-.4.5-.1.7-.1c.2-.1.4.1.5.3.1.2-.1.4-.3.5-.3.1-.6.1-.9.1zm-7.7 3.6h-.4c-.2 0-.4-.2-.4-.4s.2-.4.4-.4h.4c.2 0 .4.2.4.4s-.1.4-.4.4zm.5-2.1c.2-.1.4 0 .5.2.1.2 0 .4-.2.5-.3.1-.6.2-.9.2h-.1c-.2 0-.4-.2-.4-.4s.2-.4.4-.4h.1c.3 0 .4 0 .6-.1zm-2-.9c.3-.1.6-.1.9-.1.2 0 .4.2.4.4s-.2.4-.4.4c-.3 0-.5.1-.8.1h-.1c-.2 0-.4-.1-.4-.3.1-.2.2-.4.4-.5zm-.4 2.9h.2c.2-.1.4-.1.6.1.1.2.1.4-.1.6-.2.1-.4.2-.6.2h-.2c-.2 0-.4-.2-.3-.5-.1-.2.1-.4.4-.4zm-10.8.9c.1 0 .1 0 .1-.1.1-.1.2-.1.3-.1 2.1-.9 4.6-2.7 7-2.8.2 0 .4.2.4.4s-.2.4-.4.4c-2.1.1-4.8 2-7.1 2.9h-.3s-.1 0-.1-.1c0 0-.2-.1-.2-.3.1-.1.3-.2.3-.3zm-2.1 97.4c.4-.3 1-.4 1.6-.5h.1c-.3-.7-.3-1.4-.3-2.1v-.8h-.2c-1.7 1.5-4.9 1.8-6.8 3.3-.2.4-.3.9-.4 1.5-.1.6-.3 1.3-.3 1.9 0 .7.2 1.2.6 1.5.4.3 1.2.4 2.1.3h1c-.7-2.3.4-4.6 2.6-5.1z"/><path fill="#FDCC71" d="M134 444.1c-1.8-.5-3.8-1.1-5.5-2.1v.8c1.5 5.1 6.2 6.4 10.8 6.8V447c-.2-.7-.4-1.4-.6-2-1.6-.2-3.2-.5-4.7-.9zm-14.4-40.7c.1.1.2.2.3.4 1.1-.2 2.1-.5 3.2-.7-.2-.1-.3-.3-.5-.4-.1-.1-.2-.4-.1-.5.1-.2.3-.2.5-.2.3.1.7.3 1 .4-.3-.3-.6-.6-.8-.9-.3-.3-.5-.6-.6-.9-.1-.2.1-.4.3-.5.2-.1.4.1.5.3 0 0 0 .1.1.1.1.1.2.2.3.4.3.3.6.7 1 1l.6.6c.1 0 .3-.1.4-.1-.1-.2-.1-.4.1-.5-.1-.1-.2-.2-.3-.2-.6-.5-1.4-.9-1.8-1.6-.1-.2-.1-.4.1-.6.2-.1.4-.1.6.1.3.5 1 .9 1.6 1.4.5.3.9.7 1.3 1.1h.2c-.1 0-.1-.1-.1-.1-.7-.9-1.7-1.9-2.4-2.9-.1-.2-.1-.4.1-.6.2-.1.4-.1.6.1.6.9 1.7 1.9 2.4 2.9.1.2.1.4 0 .5.4-.1.7-.1 1.1-.2.8-.2 1.5-.2 2.2-.2h.9c-.5-.5-.9-1-1.3-1.4-.1-.1-.2-.4 0-.5.1-.2.3-.2.5-.1 1 .6 1.8 1.4 2.5 2.4.2 0 .3.1.5.1 0-.3-.1-.5-.1-.8 0-.3-.1-.5-.2-.8-.3-.4-.8-.8-1-1.4 0-.2 0-.3.1-.4.1-.1.3-.1.5 0 .6.3.9.9 1.1 1.5.5.8.8 1.6 1.2 2.4.1 0 .2.1.3.1.1 0 .1 0 .2.1.2.1.3.1.5.2v-.1c0-.2.2-.4.4-.4s.4.2.4.4v.3c.6.2 1.1.2 1.6.2 1.3 0 2.3-.5 3.3-1.2v-.9c0-.2.2-.3.4-.3.1 0 .2.1.3.1-.1-.3-.1-.6-.2-1-.1-.7-.1-1.5-.2-2 0-.3-.1-.6-.2-.7-.2-.1-.2-.3-.1-.5s.4-.3.6-.2c.4.3.4.6.5 1 .1.4.1.9.2 1.4 0 .4.1.8.1 1.1.4-1.1 1.1-1.9 1.4-2.9.1-.2.3-.3.5-.3s.3.2.3.4c0 .7-.1 1.5-.2 2.2.1 0 .2-.1.2-.1.4-.4.9-.8 1.4-1.1 1.3-.9 2.8-1.6 3.8-1.7.2 0 .4.1.5.4 0 .1 0 .2-.1.3.2 0 .4-.1.6-.1-.1-.1-.1-.2-.1-.3.2-.7.7-1.2 1.2-1.7.2-.2.4-.4.6-.5-1.1.3-2.4 1-3.5 1.4-.2.1-.4 0-.5-.1-.1-.1-.1-.3 0-.5.7-.9 1.7-1.3 2.4-1.9-.4.2-.9.4-1.3.7-.7.5-1.5 1.1-1.9 1.5-.1.1-.4.1-.5 0-.1-.1-.2-.3-.1-.5l.3-.6h-.2c-.1 0-.1 0-.2-.1-.1 0-.1.1-.2.1-.2 0-.4-.2-.4-.4 0-.3.1-.6.2-.9-.3-1.4-.8-2.8-.8-4.4 0-1.6.1-3 .4-4.5.3-1.4.6-3.6 1.4-5.3-1.2 1.7-2 3.5-2.8 5.4-.7 1.8-1 4.4-2.6 6.1-.3.3-.6.5-.9.6.1 1.5.3 3.3-.6 4.4l-.9-.6c.3 2.3 1.2 4.1.1 6.3-2.1-.6-1.7-4.5-1.7-6.2l1.4-.2c-.9-.8-1.8-1.8-2.8-2.5l1.7-.7h-1c-.5 0-1 0-1.4.1-.7.1-2.1.5-3.3 1-.2 1.3.3 3.6-.9 4.6-.6-.6-1.4-1.4-1.8-2.3-.1.1-.2.1-.3.1-.2 0-.4-.2-.3-.5-1.6-.4-3.8-.2-5.5-1.1-1.9-1.1-3.4-2.7-5.1-3.8-.7-.4-1.9-1.1-3-1.3-.4 0-.7 0-1.1.1 3.2 1.2 5.7 3.3 8.2 5.4.9.7 1.9 1.5 2.4 2.8.4 1.3.5 2.5 1.3 3.3.2.2.1.4 0 .6-.1.1-.2.1-.3.1-.1 0-.2 0-.3-.1-1-1.1-1.1-2.5-1.5-3.6-.4-1-1.2-1.7-2.2-2.5-2.7-2.2-5.4-4.4-8.7-5.5-.1.1-.1.2-.1.4-.1.2-.1.5-.1.8 0 1.4.8 3.3 1.2 4.5.7 2.1.7 4.1 1.4 6 .2.7.9 1.5 1.6 2.4zm16.9-7.9l.2-.2c0-.1.1-.2.2-.2l-.2.2c0 .5 1.2 1.9 1.4 2.5.3 1.1.2 2.9.2 4-.4 0-.8 0-1.1-.2-.4-1.4-2.8-5.2-.7-6.1zm17 45.1c3.4-1.3 5.7-3.2 7.8-6.1.5-.7 1.1-2.4 1.9-3.7l-1.6 1.6c-.6.6-1.4 1.2-2.1 1.6-.9.7-1.8 1.4-2.9 1.9-.6.3-1.2.6-1.7.9-.1.1-.1.1-.3.1-.8.4-1.5.9-2.3 1.3-.9.5-1.7.7-2.5.9-.3.1-.6.2-.8.3-.2.4-.5.9-.7 1.4 0 .4-.1.7-.2 1.1 1.7-.2 3.6-.7 5.4-1.3zm-9.1-33.3c0 .1.1.3.1.4v-.2s0-.1-.1-.2z"/><path fill="#FDCC71" d="M151.2 392.8c-.2.2-.5.3-.7.5l.1-.1c.3-.1.5-.2.6-.4zm-9.9 114.7c.7-2.1.6-3.6.3-5.2-.4 4.6-.7 9.3-.8 13.8 0 1.1 0 2.4-.1 3.7.4-.1.8-.1 1.1-.1l.2-.2c.4-.4.8-.6 1.1-.8v-.1c.1-.4.2-.8.5-1.1.2-.2.5-.4.9-.4h.1v-.7c0-1.4.1-2.8.1-3.9 0-2.8.3-5.3.8-7.8-.8 1.4-2.2 2.5-4.2 2.8zm64.4-22c-.9-.6-1.9-1.2-2.9-1.6-2.6-1.2-5.4-1.7-8.2-1.7 2.3 3.1 3.1 13.3-3.5 12.5-.9-3 1-10.4-4-11l2.5-1c-2.3.4-4.6 1.1-6.8 2 1 .7 1.1.8 1.6 2s1.7 3 1.9 4.2c.3 2-3 5.9-5.1 5.5-.9-3.7-.5-6.3-4.6-7.9-.4.2-.7.5-1.1.7-.8.7-1.5 1.4-2.2 2.1 3.4 1.3 5.7 5 3.1 8.2.7-.5 1.4-1 2.2-1.5 5-2.7 10.7-2.9 16.2-2.9h.1c1.5 0 3.1.1 4.5.1 2 0 4-.2 5.8-1 .3-.2.6-.5.9-.7 2.3-2.3 1.3-5.6-.4-8z"/><path fill="#FDCC71" d="M194.9 495.9c-4.6 0-9.1.2-13.3 1.7 3.4-1 7-1.5 10.6-1.5 2.1 0 4.6.1 7-.1-1.5 0-2.9-.1-4.3-.1zm-29.5 12.2c.1-2.6-1.6-5.2-3.9-6.3-1.1.4-2.3.5-3.3.7-.5 2.5-.8 5.3-2 7.7-.3.6-.5 1.1-.5 1.6.1 0 .3 0 .3.1.1.1.1.3.1.4h.2c0-.2.1-.3.1-.5 3.4-.4 6.3-1.7 9-3.7zm.8-9.2c.2.2.5.4.8.6.8.5 2 .7 2.7 1.3.8.7 1.1 1.5.9 2.5 1.3-1.2 2.7-2.3 4.2-3.1.1-.1.3-.1.4-.2-.2-2.3-2.2-4.9-4.5-5.7-1.3 1.8-2.8 3.4-4.5 4.6zm12.7-12l3-1.8c-1.2.5-2.1 1.1-3 1.8zm14.3-5.5c.1 0 .3 0 .4.1h1c2.9 0 5.8.5 8.5 1.8.3.1.5.2.8.4-3.2-2.8-7.4-2.8-11.5-2h.5l.3-.3z"/><path fill="#F1C52C" d="M132.5 409.9h.6c.9 0 1.9-.3 2.5-.8.7-.5 1.1-1.1 1.1-1.8-.1 0-.1-.1-.2-.1-.6-.5-1-.9-1.5-1.2.1.1.1.2.1.2.3.4.4.8.4 1.2 0 .3-.1.7-.3 1v.1c0 .2-.2.3-.3.3-.3.3-.8.5-1.3.5-.2 0-.5 0-.8-.1-1.3-.3-2-1.1-2-1.9 0-.5.2-1 .5-1.3h-.1c0 .1-.1.1-.2.1-.7.3-.9.6-.9 1.1.1 1.1 1.4 2.6 2.4 2.7zm-1.5.2c-.5-.4-.9-.9-1.2-1.4.1.3.2.6.4.8.2.3.5.5.8.6z"/><path fill="#F1C52C" d="M132.8 407.1c0-.1-.1-.2-.1-.4-.1.1 0 .2.1.4zm1.4 0c.3-.1.3-.1.4-.3v-.2c-.2-.2-.4-.4-.7-.5 0 0-.1 0-.1-.1 0 .1-.1.2-.2.3 0 .1.1.3.2.5 0 .3.2.4.4.3zm13.7-1.2c.3 0 .6 0 .9-.1.8-.3 1.2-.8 1.5-1.4.2-.6.3-1.4.3-2.2v-.1c-.5-.2-1-.4-1.5-.4.4.1.6.4.8.7.1.1.1.3.2.4 0 0 .1.1.1.2v.7c0 .2 0 .5-.2.7-.4.6-1.2.8-1.9.8-.6 0-1.3-.1-1.6-.6-.1.3-.1.6-.1 1 0 0 .1 0 .1.1.3.1.8.2 1.4.2z"/><path fill="#F1C52C" d="M148.6 402.5s0 .1 0 0l-.1.1v.1c0 .1.1.3.2.4.1.1.3.2.4.2v-.2c-.1-.3-.2-.6-.4-.7l-.1-.1c.2.1.1.1 0 .2zm1.8-1.4c.5.2.9.4 1.3.6 0-.2 0-.4-.1-.5-.2 0-.7 0-1.2-.1zm-2.1.5h.3-.3zm-.8 2.6c-.1-.1-.2-.3-.3-.5v.2l.3.3zm4.3-1.6c-.1 0-.1-.1-.2-.1h-.4c0 .7 0 1.5-.3 2.2-.2.7-.7 1.3-1.5 1.7 1.8-.5 2.4-2.2 2.4-3.8z"/><path fill="#D95B49" d="M143.2 416.1v-.1c-.3-.1-.5-.4-.7-.6-.2-.3-.4-.5-.5-.6-.4-.2-.7-.3-1-.4.7.9 1.3 1.9 2.2 1.7zm2.3-3.7s-.1 0 0 0c-1.2-.4-1.7-.9-2.7-.9h-.5c-.4.1-.9.2-1.4.5-.5.3-.7.6-.7.9 0 .1 0 .2.1.4v.2c.5.1 1.2.1 2 .6.4.2.5.5.7.8.2.2.3.3.4.3.1 0 .1 0 .2-.1.3-.1.3-.3.3-.7v-1c0-.2.1-.3.3-.4.1 0 .2-.1.3-.1.2-.2.5-.3.7-.4.2.1.3 0 .3-.1z"/><path fill="#E8932E" d="M138.3 520.4c-.2-.5-.5-.9-.9-1.2-.8-.7-1.6-1.1-2.5-1.4 0 .1-.1.2-.2.2-.2.1-.4 0-.5-.2 0-.1-.1-.1-.1-.2-2-.4-4.1-.1-6.1-.1l.2-.5c-1 .2-1.5.7-1.9 1.4-.4.8-.6 1.9-.7 3v.3c0 1 .2 1.6.6 1.9.3.3.8.4 1.5.5-.2-.3-.3-.6-.5-1-.2-.6-.4-1.2-.4-1.7 0-.2 0-.4.1-.6.1-.2.4-.4.6-.4h.1c.2 0 .4.3.3.5 0 .2-.2.3-.3.3v.1c0 .3.1.9.3 1.4.2.5.5 1 .5 1.1.1.1.1.2.1.3h.1c.9 0 1.8-.1 2.7-.1l-.1-.1c-.3-.4-.5-.9-.6-1.3v-.4c0-1.2.8-2 1.1-2.8.1-.2.3-.3.5-.2.2.1.3.3.2.5-.4.9-1 1.7-1 2.5v.2c0 .2.2.6.4 1 .2.3.5.5.5.5.1 0 .1 0 .2.1h.4c.6 0 1.2 0 1.8.1.4 0 .8.1 1.2.1.9 0 1.7-.1 2.3-.7.1-.1.1-.3.2-.5.4-1 .2-1.9-.1-2.6zm-9.6 4.4h-.7c2.2.3 4.8 0 6.5-.1h.1c-.5 0-1-.1-1.5-.1-1.5 0-2.9.1-4.4.2zm-3.6-1.3c-.2-.3-.3-.6-.4-1h-.4c0 .1.1.2.1.2 0 .1.1.2.2.3.2.2.3.4.5.5zm-.4-2.2c0-1.1.2-2.3.8-3.3.3-.6.8-1.1 1.4-1.4-2.2.5-3.3 2.9-2.7 5.1h.6v-.1c-.1-.1-.1-.2-.1-.3zm37.1-1.2c0-.4 0-.9-.1-1.3-.2-.8-.6-1.2-1.1-1.5.6.7 1 1.5 1.2 2.5v.3zm-16.2-.5c.1-.5.3-1 .6-1.4-.3.1-.5.2-.7.4 0 .3.1.7.1 1zm6.4 4.5c.1 0 .1-.1 0 0 .6-.4.7-.7.7-1.2 0-.7-.5-1.7-.8-2.5-.1-.2 0-.4.2-.5.2-.1.4 0 .5.2.3.8.8 1.7.8 2.8 0 .3-.1.7-.3 1 1.1-.1 2.2-.2 3.4-.3.3-.4.6-.7.8-1 .1-.2.1-.4.1-.7v-.5c0-.3 0-.6.1-1 .1-.2.3-.3.5-.2.2.1.3.3.2.5-.1.2-.1.4-.1.7v.5c0 .3 0 .6-.1 1-.1.3-.2.5-.4.7.9-.1 1.6-.3 2.2-.8.6-.5 1-1.1 1-2.1 0-.2 0-.5-.1-.8-.2-1.3-1-2.2-2-3.1-.5-.1-1.1-.1-1.6-.1-1.2-.1-2.4-.4-3.6-.5 0 .2-.2.3-.4.3-2.1 0-3.7.2-5.4 1.2-1.5 1-1.6 1.7-1.6 3.3v.9c.4.8 1 1.4 1.8 1.9.5.2 1 .3 1.5.5h.4c.9 0 1.6-.1 2.2-.2zm-5.9-1.1c-.1-.1-.2-.3-.3-.4-.1-.1-.2-.2-.2-.4v-.1c-.1-.2-.2-.5-.3-.7-.2-.7-.4-1.4-.5-2.2-.2.3-.4.6-.4 1.1v.4c0 .5.2 1 .5 1.3.2.4.7.7 1.2 1zm11.5 1.4h-.5c-.1.1-.2.1-.3.1-.1 0-.2 0-.2-.1-1.1.1-2.3.2-3.4.3-.3 0-.6.1-.9.1.4.1.9.1 1.3.2.6.1 1.2.1 1.8 0 1-.1 2.1-.3 3-.8-.3.2-.6.2-.8.2zm-25.1-32c1.5.6 3.3 1.1 4.7 1.9 1 .5 1.9 1.2 2.8 1.8 0 .8.1 1.6.3 2.4.2.6.4 1.1.5 1.6 0-.6.1-1.2.1-1.8v-2.4c0-1.6.1-3.3.6-5 .3-1.1.9-2 1.4-2.9.2-.8.4-1.7.3-2.3-3.8-.5-7.2-1-11-.4-3 .5-4.8-1.6-5.7-4.1 2.5.8 4.1 2.7 6.9 2.6 1.4-.1 4.4-.5 4.5-2.3-1.4.5-3-.2-4.4-.4-2.2-.3-4.1-1-6.1-1.9l-1.1 1.6v-.1.1l-.2.3c.1 0 .1 0 .2.1l.2 4.5c0 .7-.1 1.4-.1 2.1.2.7.4 1.4.5 2.2.1.1.1.2.2.3 1.4 1.7 3.5 1.4 5.4 2.1z"/><path fill="#E8932E" d="M146.4 489.8c-.8-2-.8-4-.8-6.2l-.6 1.4c-.1.6-.2 1.2-.5 1.8-.8 1.7-1.8 2.8-2.3 4.4-.4 1.6-.5 3.1-.5 4.7v2.4c0 .8 0 1.6-.1 2.4 0 .5-.1 1.1-.1 1.6.4 1.6.4 3.1-.3 5.2 2.1-.3 3.4-1.4 4.2-2.9.1-.6.3-1.2.4-1.9.5-2.1.5-4.3.5-6.5v-2c0-1.1 0-2.3.1-3.4 0-.4.1-.7.1-1 0-.8-.1-1.5-.3-2.2l.2 2.2zm12.1 4.2l.3.3c.1-1.1.1-2.4.2-3.8.1-1.6.4-3.2 1-4.5.2-.5.5-.9.9-1.2-.2 0-.3-.1-.4-.1-.6-.3-1-1-1.7-1.3-1.1-.5-2.1-.3-3.3-.1-3.4.3-6.1 1.2-9.3 2.5v.1h.1c.2 0 .4.1.4.3.4 1.3.7 2.4.7 3.8 0 .3 0 .7-.1 1.1-.1.6-.1 1.2-.1 1.9 3.4-1 8.8-1.7 11.3 1zm-30-52c1.8 1 3.8 1.6 5.5 2.1 1.5.4 3.1.7 4.8.9-.3-.9-.6-1.8-.8-2.7 0-.1-.1-.1-.1-.2-.2-.2-.8-.4-.9-.9v-.3c-2.8-.8-6.4-1.5-8.6-3.6-1.5-1.3-1.3-3.5-2-5.1-.3-.2-.5-.4-.8-.5 0 1.3.2 2.7.3 4.2v.3c0 1.1-.3 2.1-.7 3.1.8 1.2 2 2 3.3 2.7zm37.2-5.9c1.1-1.3 2.4-2.4 1.5-4.4-.5-1-1.6-1.4-2.2-2.3-.6.4-1.2.7-1.8 1.1l-.1.1c-.7 1.4-1.4 3.1-1.9 3.7-2.1 3-4.4 4.9-7.8 6.1-1.8.7-3.6 1.1-5.5 1.3v.1c-.2.6-.4 1-.6 1.3-.1.3-.1.6-.1.8v.1c.2.4.3.8.4 1.2 2-.1 4-.4 5.8-.9 5.6-1.3 8.8-4 12.3-8.2zm-18.8 9.3h.2c-.1-.2-.1-.3-.2-.5 0 .1-.1.3 0 .5-.1 0 0 0 0 0zm-19.2-20l-.4 1.1c.2-.3.4-.5.7-.8l-.3-.3zm0 2c.4.4.7.9 1.1 1.3-.2-.3-.4-.6-.4-.9-.1-.2 0-.3.2-.4.2-.1.3 0 .4.2.1.2.2.5.4.9h.3c0 .2 0 .5.1.7.5.7 1.1 1.5 1.6 2.1v-.8c0-.7 0-1.5.1-2.3-1.1-.5-2.1-1.1-2.9-1.8-.3.3-.6.7-.9 1zm4.4 3c0 .7 0 1.3.1 1.8.2.2.4.4.6.5 1.8.4 3.5.6 5.5.7 2.5.1 8.8-.4 9.9-3-2.8-.2-5.6-.1-8.4-.4-.5-.1-1.1-.1-1.6-.2.2.6.4 1.1.4 1.6 0 .2 0 .3-.2.5-.1.1-.2.1-.3.1-.1 0-.2 0-.3-.1-.1-.1-.1-.3 0-.5 0-.2-.2-.9-.5-1.7-1.7-.2-3.5-.6-5.1-1.2 0 .6-.1 1.3-.1 1.9zm18.5.2c2 1.3 5.8 0 7.9-.9l.1-.2h.1c.2 0 .4-.2.8-.5.1-.3.2-.5.3-.8 0-.2.2-.3.4-.2.1 0 .1 0 .2.1v-.1c.7-.9 1.4-2.2 2.1-3.6-.5-1-.9-2-1.2-3l-.3-.5c-.6 4.4-7.1 7.9-10.4 9.7zm-17-33.2c1.2-1 .7-3.3.9-4.6 0 0-.1 0-.1.1-1.3.6-2.3 1.4-2.4 2 0 .1-.1.2-.1.2.3.9 1.1 1.7 1.7 2.3zm7.7-2.5l-1.4.2c-.1 1.7-.5 5.6 1.7 6.2 1-2.2.1-4-.1-6.3.3.2.6.5.9.6.9-1.1.7-2.9.6-4.4-.8.4-1.8.5-2.7.5l-1.7.7c.9.7 1.8 1.7 2.7 2.5zm-13.2 15.3c-.4 1.3-.6 3.6.3 4.6.3.3.7.5 1.3.7 3-.2 5.8-1 7.6-3.6.8-1.2 1.2-2.2 1.4-3.2l-1-.8h-.1c.2 6.3-6.3 2.4-9.5 2.3zm10 3.3c.1-.1.2-.3.3-.5-.6.8-1.2 1.4-1.8 1.9.5-.5 1.1-.9 1.5-1.4zm17.8-4.1c-1.5-.7-3.4-1.6-4.9-2-1.6-.4-3.1.1-4.5-.7.1.7.4 1.4.7 2 1 1.7 3 2.3 5.3 2.3h.3c1.3-.3 2.5-.8 3.1-1.6zm-11.3-1.9v.2c.1.3.2.7.3 1 .1.4.3.8.6 1.2.6.5 1.3.8 2.2 1.1-1.3-1-2.4-2.2-3.1-3.5zm-17.9 66h-.1c-.7 3.7 3.8 2.7 6.1 2.5 1-.1 2.1-.2 3.1-.2 0-1.4 1.1-3.7 1.6-4.8.4-.9.6-1.6.8-2.3.1-.3.1-.6.2-1v-.5c-4.4.6-9.6 4.2-11.7 6.3zm38.2-6.1c-2.3.4-5.9 1.9-7.5 3.6-1.3 1.5-1.4 3.5-2.2 5.2-.8 1.7-2.5 2.5-3.4 4l-3.2 3.4c.5-.7 2-.4 3-.7 1.3-.4 2.6-1 3.7-1.9 2.1-1.7 3.2-4 5.7-5.2 1.8-.8 3.1-.8 3.6-2.2-.1-.6-.3-1.2-.3-1.8v-.4c0-.2.2-.3.4-.4 0-.1.1-.1.1-.2.1-.1.1-.2.2-.3v-.5c0-.9 0-1.8-.1-2.6zM136.3 497c-1.3-1.5-8.2-1.5-8-3.4v3.8l-.6-.3v.1c1.3.9 2.7 1.4 4.4 1.6 2.3.1 2.5-.8 4.2-1.8zm2.1 6.5c.2-2.5-2.1-.5-2.9-.2-2.4 1-4.9 0-7-1.2l-.4 1.4c.1.9.2 1.8.3 2.6 3.7 0 9.8.1 10-2.6zm-10.9 2.8c0-.2 0-.4-.1-.6l-.2.7c.1-.1.2-.1.3-.1zm-.4.4l.1-.4c-.7 0-1.3.1-1.6.3.6-.1 1 .1 1.5.1zm22.2-4.2c-3.8 1.9 4.2 3.8 6.1 3.8 0 .3.1.6 0 .9l1.8-4.6c-.1 0-.2-.1-.2-.2v-.3c-1.2-.9-6.5-.2-7.7.4zm21.3.9c.2-1-.1-1.8-.9-2.5-.7-.6-1.9-.8-2.7-1.3-.3-.2-.6-.4-.8-.6-.2-.2-.4-.3-.6-.3-.6.7-1.2 1.3-1.9 1.9-.7.6-1.5 1-2.3 1.3 2.3 1.2 4 3.8 3.9 6.3v.5c1.5-1.1 3-2.2 4.4-3.3.3-.4.5-.8.7-1.2.1-.4.2-.6.2-.8zm-7-3.8l-2.5 1.5c.8-.2 1.5-.6 2.1-1.1.1-.2.3-.3.4-.4zm9.7-8.3c-.1-.1-.3-.1-.5-.2-1 .9-1.9 2-2.9 3 .3 0 .5.1.8.2 2.3.8 4.4 3.4 4.5 5.7v.4c.4-.3.7-.7 1.1-1 2.7-3.1.4-6.8-3-8.1zm7.9 5.1c2.1.4 5.4-3.5 5.1-5.5-.2-1.2-1.3-3-1.9-4.2-.5-1.2-.6-1.3-1.6-2-.2.1-.4.1-.5.2-.2.1-.3.1-.5.2l-3 1.8c-.7.5-1.5 1.1-2.2 1.6 4.1 1.6 3.7 4.2 4.6 7.9zm9.9-1.7c6.6.8 5.8-9.4 3.5-12.5-1.7 0-3.3.2-5 .5l-2.5 1c5 .6 3.1 8 4 11zm1.8-13.3h.7c-.1 0-.3-.1-.4-.1l-.3.1zm-77.2-5.6c-.1 1.4-.1 2.7.6 4.1.2.3.3.5.5.8-.4-1-.8-2.1-1-3.3 0-.5 0-1-.1-1.6zm2.8-16.4c.5-2.7 1.4-5.2 1.9-7.8l.6-2.7h-.2c-.2.9-.5 1.7-.7 2.6-.3 1.6-.7 3.1-1.1 4.7-.5 2.2-1.1 4.4-1.6 6.6.6-1 .9-2.2 1.1-3.4zm5 17c.9-3.5-.5-5-1.5-8.2-.8-2.5-.7-5.4-.5-8.1.1-1.9 0-4 .2-5.9.2-1.7 1.3-3.4 1.1-5.2h-.9l-.6 2.7c-.6 2.7-1.4 5.2-1.9 7.8-.5 2.7-1.8 5.2-2.6 7.7-.2.6-.3 1.2-.4 1.8 0 .2 0 .4-.1.5-.1.6-.1 1.3-.1 2 0 2 .3 4 .5 5.8.4 2.9 2.4 5.4 2.8 8.6.3 2.4-.1 4.6.5 6.8.1.6.3 1.1.5 1.6.6.2 1.2.2 2 .1 1.2-.2 1.5-.7 2.7-.4.6.2 1.1.7 1.7 1v-.7c-.5-1.2-.6-2.6-.8-4.1-.4-1.6-.9-3.3-1.1-5.1-1.1-2.9-2.4-5.5-1.5-8.7z"/><path fill="#E8932E" d="M118.3 491.6c.3.9.7 1.6 1.2 2.1-.1-.3-.2-.5-.2-.8-.6-2.1-.3-4.1-.4-6.1-.6 1.6-1.3 2.8-.6 4.8zm18.3-96.3l.2-.2c-.1 0-.2.1-.2.2z"/><path fill="#E8932E" d="M138.2 401.7c.1-1.1.1-2.9-.2-4-.2-.6-1.3-1.9-1.4-2.5l-.2.2c-2.1.9.3 4.7.6 6.1.4.2.8.3 1.2.2zm-7.6 59.6c-1 .9-3.6 3.8-3.9 5.7-.6-1.8-1.3-3.5-1.7-4.9-.7-3 0-6.9.1-10.1 0-2.5.2-6.8 1.9-8.8l-.2-.4c-2.7 5-5 10.2-4.4 16.2.1 1.5.7 3 1 4.5.3 1.6.8 1.9 1.5 3.3.9 1.8.8 4.2 2.1 5.7.6-1.4.5-3.1 0-4.8l5.2-.4c-.7-1.3 3.1-4.8 6.5-7.4.1-1.5.3-2.9.4-3.9v-.5c-3.2 1.5-6 3.5-8.5 5.8zm24.2-3h.2c.1-.2.2-.3.3-.5-.2.1-.3.3-.5.5z"/><path fill="#E8932E" d="M166.4 441.3c-2.8.4-5.4 3.1-6.9 5.5-1.1 1.8-2 4-2.8 6.1-.6 1.4-.8 3.5-1.4 4.9 2.1-2.2 5.5-3.9 7.5-1.2 1.7 2.2 1.4 5 1.6 7.6 1.3-.1 2.2-.7 2.7-1.7.3-1 .5-1.9.8-2.9.2-1.6.2-3.4.3-4.6.7-4.7-1.1-9.1-1.8-13.7zm-37.9 1.5v-.4c-.2 1.3-1.6 2.2-2.2 3.3-.8 1.4-1 3.3-1 4.8 0 2.4.6 4.2 2.9 5.2 3.1 1.3 7.7.1 11.2-2 0-1.4 0-2.7.1-4.1-4.9-.4-9.6-1.7-11-6.8z"/><path fill="#511B2A" d="M147.3 415c.2.1.4.1.6-.1.1-.2.1-.4-.1-.6-.2-.1-.3-.2-.5-.2s-.3 0-.5.1-.3.3-.3.5c.1.2.2.3.4.3h.4c-.1 0-.1 0 0 0zm1.3.3h-1c-.2 0-.4.2-.4.4s.2.4.4.4h1c.2 0 .4-.2.4-.4s-.1-.4-.4-.4zm-1.1-1.3h.2c.1 0 .3-.1.4-.2.1.1.3.1.5 0s.2-.4.1-.6c-.1-.2-.3-.4-.6-.4-.4 0-.6.3-.7.5-.1.4-.1.6.1.7zm1.8.8c.3 0 .6-.1.8-.1.2-.1.3-.3.3-.5-.1-.2-.3-.3-.5-.3-.2.1-.4.1-.7.1-.2 0-.4.2-.4.4.1.3.3.4.5.4zm-9.1 1.4c.1 0 .1 0 0 0 .4-.1.6-.1.9-.1.2 0 .4-.2.4-.4s-.2-.4-.4-.4c-.3 0-.6.1-.9.1-.2 0-.4.3-.3.5 0 .2.1.3.3.3zm.9.6c0 .2.2.4.4.4h.1c.3 0 .6 0 .9-.2.2-.1.3-.3.2-.5-.1-.2-.3-.3-.5-.2-.2.1-.3.1-.6.1h-.1c-.2 0-.4.2-.4.4zm.5.8h-.4c-.2 0-.4.2-.4.4s.2.4.4.4h.4c.2 0 .4-.2.4-.4s-.1-.4-.4-.4zm-2.1 1.6h.2c.2 0 .5-.1.6-.2.2-.1.2-.4.1-.6-.1-.2-.4-.2-.6-.1-.1 0-.1.1-.1.1h-.1c-.2 0-.4.1-.5.3.1.2.2.4.4.5zm-10.6.7c.1 0 .1.1.1.1h.3c2.3-.9 5-2.8 7.1-2.9.2 0 .4-.2.4-.4s-.2-.4-.4-.4c-2.4.1-4.9 2-7 2.8-.1 0-.2 0-.3.1 0 0-.1 0-.1.1 0 0-.2.1-.2.4-.1.1 0 .2.1.2zm1.8 3.5c1.4-2.3 3.5-3.2 5.6-4.9.1 0 .2 0 .3-.1.1-.1.2-.2.3-.4.1-.2 0-.4-.1-.5-.2-.1-.4-.1-.5 0-2.2 1.8-4.6 2.8-6.3 5.5-.6 1-1.3 1.9-2 2.8-.2.3-.4.5-.7.8l-.2.2c.2.2.4.4.5.6.3-.4.6-.7.9-1.1.8-.9 1.5-1.9 2.2-2.9zm37.1 20.2z"/><path fill="#511B2A" d="M208.6 488.1c-.7-2.3-2.7-3.6-4.7-4.6-.3-.1-.5-.3-.8-.4-2.7-1.2-5.6-1.8-8.5-1.8h-2.2c-3.6.3-7.2 1.3-10.5 2.7-2.9 1.2-4.6 3.1-7.1 4.5-2.9 1.6-4.5 4.1-6.8 6.2-1.7 1.5-3 3.3-4.5 4.8-.1.1-.2.2-.4.3-.6.6-1.3.9-2.1 1.1-.9.3-1.8.4-2.7.6 0-.1 0-.2.1-.3.5-2.1 1.3-4.2 1.7-6.4.4-2.1.8-4.1 1.3-6.1.4-1.7 1.1-3.3 1.7-5 .7-1.6 1.8-3.3 2.3-5.2.2-.7.2-1.3.2-2V475c0-1.2-.5-2.2-.5-3.1 0-.1.2-.5.4-.8.2-.4.5-.8.6-1.1.3-.9.4-1.8.5-2.6.6-2.9 1.7-5.9 2.3-9 .4-2.2.7-4.3.7-6.5v-1.7c-.1-2.3-.8-4.4-.9-6.6.1-2.2.8-5 .8-7.6v-.5c0-.6-.1-1.1-.3-1.7-.2-.7-.5-1.4-.8-2-.6-1.1-1.3-2.2-2-3.1-.1 0-.2.1-.4.1l.2-.3c.1-.1.2-.1.3-.2-.1-.2-.1-.4-.2-.6-.2.1-.3.2-.5.4-1.3-.7-2.9-.8-4.2-1l-.1.6c1.2.1 2.6.3 3.7.8-.7.4-1.3.9-2 1.3h-.2c-.4.2-.8.4-1.2.8-.8.4-1.5.8-2.3 1.2-.8.1-1.7.2-2.5.3 1.1-.7 2.2-1.6 2.9-2.9.3-.3.5-.6.8-1 .8-1.2 1.7-2.8 2.6-4.4-.2-.1-.3-.3-.5-.4-.2-.4-.3-.8-.5-1.2.1 0 .1-.1.2-.1.1-.2.1-.4-.1-.6-.2-.1-.3-.4-.5-.7-.4-1.3-.6-2.7-.6-4.1.5.2 1 .5 1.5.7h.2c.1 0 .3-.1.4-.2.1-.2 0-.4-.2-.5-.6-.3-1.2-.6-1.9-.9 0-.3 0-.7.1-1 .1-.8.1-1.5.1-2.3.8 0 1.6-.1 2.4-.3.2-.1.3-.3.3-.5-.1-.2-.3-.3-.5-.3-.7.2-1.4.2-2.2.2v-.8c2.8-1.4 3.1-4.1 3.3-6.9.1-1.4.4-2.8 1.2-4 .4-.6 1.4-1.4 1.4-2.6 0-.4-.1-.8-.4-1.2 0-.1 0-.3-.1-.5l-.1-.2h-.2c-2.6.3-5.6.5-8.7.8 0-.1-.1-.2-.1-.2 0-.1-.1-.1-.1-.2-.2-.2-.3-.4-.4-.5-.1-.2-.2-.3-.3-.6v-.3c0-.3.1-.6.1-1v-.2c-.1-.8-.2-1.7-.3-2.5-.3-1.7-.7-3.3-1-5-.5-2.1-1.3-4.2-2-6.2-.3-.8-.6-1.5-1-2s-.9-.9-1.5-1c-.7 0-1.4.5-2.1 1.5-1.1 1.5-1.9 3-2.6 4.7-.2.4-.4.9-.5 1.3-.7 1.9-1.1 4.5-2.4 5.8-.8.8-2 .9-3.4.9h-.7c-.5 0-1 0-1.5.1-.3 0-.7.1-1.2.3-.8.2-1.7.5-2.5.9-.7.3-1.4.7-1.9 1.2-.2.2-.4.4-.6.7-1.9-.5-4-.2-5.4-1.1-1.6-.9-2.9-2.2-4.4-3.3-.2-.1-.4-.3-.6-.4-.9-.6-2.7-1.5-4.2-1.5-.7 0-1.4.2-1.8.8-.1.1-.2.3-.2.4-.2.4-.3.9-.3 1.4 0 1.7.8 3.6 1.2 4.7.5 1.5.6 3.2 1 4.8.1.4.2.8.3 1.1.3.9.8 1.6 1.4 2.3l.1.1c.1.2.3.3.4.5v.1c-1.4.3-2.9.7-4.3 1l-.2.1v.2c0 .2.2.4.4.4v.1c0 .7.2 1.6.4 2.3v.1h.2c.7.1 1.4.2 2.2.2h.5c1.2 2 1.7 4.4 3.3 6.1.6 1.9 2.1 3.5 3 5 .2.4.5.8.7 1.1.5 1 .9 1.9 1.2 2.9 0 .9-.2 1.7-.4 2.5 0 .1-.1.1-.1.2 1 1.9 2.2 3.6 4.1 4.7.5.7 1.1 1.3 1.7 1.8.2.6.4 1.1.4 1.7 0 .2 0 .4-.1.6v.1c-.2-.1-.5-.3-.7-.4-1-.6-2-1.2-3-1.7l.3-.4c-1.6-1.3-2.7-2.8-3.5-4.5-.1.3-.2.6-.2.9.7 1.3 1.6 2.5 2.8 3.6-1-.6-2-1.3-3-2-.1 0-.1-.1-.2-.1 0 .2-.1.4-.1.7.1.1.2.1.3.2v1.1c.1 1.3.2 2.5.3 3.7v.2c0 .5-.1 1-.2 1.6-.4 1.5-1.3 3.1-1.9 4.5-.9 2.2-1.4 4.3-1.9 6.6l-.6 2.7c-.6 2.6-1.4 5.1-1.9 7.8-.2 1.2-.6 2.3-1 3.5-.5 1.2-1 2.5-1.4 3.7 0 .1-.1.2-.1.3-.5 1.4-.6 3-.6 4.5s.1 2.9.3 4.3c.1.5.1 1.1.2 1.6.2 1.2.5 2.2 1 3.3.6 1.5 1.4 3 1.7 4.5.1.2.1.5.1.8 0 .3.1.6.1.8.1 2-.1 4 .4 6.1.1.3.2.5.2.8.7 2.4 1.8 4.4 2.2 6.7.1.7.2 1.3.4 1.9.4 1.8 1 3.4 2.1 5.1 1 1.5 1.9 3.7 3.9 4.5v.4c-.3-.1-.7-.1-1-.1-1.3 0-2.7.6-3.7 1.1-2.1 1-3.1 2.2-3.5 4.5-.1.6-.3 1.3-.3 2.1s.2 1.6 1 2.2c.7.4 1.6.5 2.5.5h1.7c.1.4.2.7.4 1 .1.2.3.4.5.6l.2.2c.6.4 1.3.5 2.2.5h.7c1.5-.1 3-.2 4.4-.2.5 0 1 0 1.5.1h.2c.4 0 .9.1 1.3.1 1.5 0 3-.5 3.8-2.2.3-.6.4-1.2.6-1.8h.2c.3-.1.7-.1 1.1-.2.5 0 1-.1 1.5-.6.4-.4.5-1 .6-1.4v-.1c.1-.2.1-.4.2-.4.1-.1.1-.1.3-.1h.2c0 .4.1.9.1 1.3.1.7.3 1.5.5 2.2.1.3.2.5.3.7v.1c0 .2.1.3.2.4.1.1.2.3.3.4.6.8 1.4 1.5 2.5 1.9.5.2 1 .2 1.5.2.7 0 1.5-.1 2.2-.2.3 0 .6-.1.9-.1 1.2-.1 2.3-.2 3.4-.3.1 0 .1.1.2.1s.2 0 .3-.1h.5c.3 0 .6 0 .8-.1.8-.1 1.5-.4 2.1-.9.8-.6 1.3-1.5 1.3-2.7v-.7c0-.1 0-.2-.1-.4-.2-1-.6-1.8-1.2-2.5-.9-1.1-2.2-2-3.2-2.8-.3-.3-.6-.5-.8-.7-.2-.2-.4-.4-.5-.7h.5c2.9 0 4.9-.7 7.5-2.5 2.6-1.8 5.1-3.7 7.6-5.6 2.8-2.1 4.6-4.7 7.5-6.2.9-.5 1.7-.8 2.6-1.2 4.2-1.5 8.7-1.7 13.3-1.7 1.4 0 2.8.1 4.3.1h.3c2.4 0 4.8-.3 7-1.6 1.6-1 2.4-2.9 2.4-4.6-.4-.6-.5-1.2-.7-1.7zm-52-55.3c1.2 0 2.3-.3 3.4-.3l-.4.4c-1.1 1-2.1 1.7-3.5 2.5-.3.1-.5.3-.8.4-.3.2-.7.4-1 .5h-.1c-.7-.2-1.6-.6-2.5-.8 1.5-.6 2.8-1.7 4-2.4.1-.1.2-.1.3-.2.3-.1.5-.1.6-.1zm-4.7 4.9c-.9.5-1.8.7-2.7.9l-.4-.3c0 .1-.1.1-.1.2-.3-.2-.6-.3-.9-.5l.2-.4c-.2-.1-.4-.1-.7-.1h-.3c-.9-.5-1.8-1.1-2.6-1.6h4.4c.1.1.1.1.2.1h.2c.4 0 .9-.1 1.3-.2h.2c.6 0 1.8.5 2.8.8h.1c-.4.2-.8.4-1.2.7-.1.1-.3.3-.5.4zm-6.8 44.2c-.1 0-.2.1-.3.2-.1.1-.1.2-.2.4-.5.6-1 1.3-1.4 1.9 0-.1-.1-.1-.1-.2-1.2-1.6-2.3-3.4-3.8-5-.6-.7-1-1.5-1.7-2.3-.6-.7-.8-1-.8-1.1 0-.1.2-.5.5-1.3.2-.7.3-1.4.5-2.1 1.4 1.7 2.9 3.4 4.2 5.1.9 1.2 1.7 2.8 2.9 3.9l.3.3s0 .1-.1.2zm.6-.7l-.3-.3c-1-1.1-1.9-2.5-2.8-3.8-1.4-1.9-3-3.6-4.5-5.5l-.1.1c0-.1.1-.3.1-.4.3-.9 1.1-4.8 1.1-7.3 1.7 1.7 3.4 4.6 4.8 6.5 1.5 1.9 3.9 4.9 4.1 7.2v.3h.2c-.7.8-1.5 1.7-2.1 2.4-.1.2-.3.5-.5.8zm3.1-3.7c0-.1 0-.3-.1-.4-.5-2.5-2.8-5.2-4.2-7-1.5-1.9-3.3-5.3-5.3-7 0-.4-.1-.7-.2-.9.1-1.3.2-2.8.4-4.1.1-.8.2-1.5.3-2.1 0-.3.1-.5.1-.6v-.2c1.3 1.5 2.8 2.9 3.9 4.6.3.5 1.7 2.9 3.1 5.1.7 1.1 1.4 2.2 2 3.1.3.5.6.9.9 1.2.2 1.8.3 3.4.3 4.7 0 .8 0 1.4-.1 1.8v.1c-.3.6-.6 1.1-1.1 1.7zm.5-9.8c-1.8-2.6-4.6-7.4-5.1-8.2-1.3-2-3-3.5-4.4-5.2 0-2.9.1-5.8.1-8.6 1.8 2.6 3.6 5.1 5.3 7.7 0 .1.1.2.2.2.8 1.3 1.9 2.4 2.7 3.6l.3-.2c.3 3.1.8 7.4 1.2 11.1-.1-.1-.2-.2-.3-.4zM138 441.3c1.3-1.8 3.7-4.4 5.7-5.2.8.6 1.7 1.2 2.6 1.7-2.7 1.7-4.6 3.9-6.6 6.2 0-.1-.1-.1-.2-.2-.5-.8-1-1.7-1.5-2.5zm-4.9-16.5c.2-.4.4-.8.7-1.2h2.7c-.1.6-.2 1.3-.2 1.9 0 .5 0 1.1.1 1.6s.4 1.4.8 2.3c0 .1.1.2.1.4.3.7.5 1.5.5 1.7-.1.2-.1.4 0 .5.1.1.2.1.3.1.1 0 .2 0 .3-.1.2-.2.2-.4.2-.5 0-.4-.2-1-.4-1.6-.1-.2-.2-.5-.3-.8-.3-.9-.7-1.8-.7-2.1-.1-.4-.1-.9-.1-1.4 0-.6.1-1.3.2-1.9.8 0 1.7 0 2.5.1 1.2.1 2.7.6 4.2.6.9 0 1.7-.2 2.5-.7.9-.6 1.5-1.2 2.3-1.6.9-.4 1.8-.6 2.8-1 .8-.3 1.7-.8 2.5-1.3.2.2.4.4.6.7 1.1 1.3 1.9 3 2 3.8 0 .2.2.3.4.3h.1c.2 0 .4-.2.3-.5-.2-1.1-1-2.7-2.2-4.2-.2-.2-.4-.4-.5-.6.5-.3.9-.7 1.3-1.1.5.2.9.4 1.4.6 1.2.6 2.6 1.1 3.4 2.1 0 .1.1.1.1.2.1.1.1.1.1.2v.1c.3 1 .7 2 1.2 3-.7 1.3-1.4 2.6-2.1 3.6v.1s-.1-.1-.2-.1c-.2 0-.3.1-.4.2-.1.3-.1.5-.3.8-.4.4-.7.5-.8.5h-.1l-.1.2-.1.3c.1 0 .2.1.3.1h.1c-.7.8-1.7 1.5-2.7 2.1h-.1c-.2 0-.3.1-.3.3h-.1c-.2.1-.3.2-.5.3-1.5 1-3.2 2.2-4.9 2.5v-.3c-.5-.1-1.1-.1-1.6-.1-1.5 0-3 .2-4.4.4-2.4 0-4.8-.2-7.1-.6-.9-.2-1.8-.5-2.7-.9-.4-.2-.9-.4-1.3-.7-.1-.1-.3-.2-.4-.3-.2-.2-.4-.3-.6-.5-.1-.5-.1-1.2-.1-1.8 0-.6 0-1.3.1-2 .5-1.4.7-2.7 1.2-3.7zm27.4-8.4c0 1.1.1 2.2.3 3.2-.9-.7-2-1.2-3-1.6-.3-.2-.7-.3-1-.5.1-.1.2-.1.2-.2.5-.5 1-1.1 1.4-1.7.8.3 1.4.5 2.1.8zm-14.7 36.9zm2.4.2v.1c0 .7.1 1.6.2 2.8-.8-1.1-1.8-2.2-2.5-3.4l-.4-.6v.1c-1.7-2.5-3.4-5-5.1-7.4v-.1c.9-.8 2.2-1.1 3.5-1.1h.8c.9 1.4 1.9 2.9 2.6 4.3l.3.6c.1.2.2.3.4.5.1 1.3.2 2.7.2 4.2zm-1.2-6.9c-.5-.9-1.1-1.7-1.6-2.6.4.1.9.2 1.2.3.1.2.2.4.2.6.1.2.1.3.2.5.2.7.4 1.5.6 2.2-.2-.3-.4-.6-.6-1zm-.3-3.1l-.3.1c-.4-.1-.9-.2-1.4-.3-.4 0-.7-.1-1.1-.1-1.1 0-2.3.2-3.3.8 2-2.3 3.9-4.4 6.5-5.9.4.2.8.5 1.2.7-.1 0-.1 0-.2.1-.2.1-.2.2-.2.4 0 .1.2.2.3.2-.8 1.2-1.3 2.8-1.5 4zm-1.7-32.7l.3.6c-.7-.3-1.4-.8-2.4-.8h-.6c-.5.1-1.1.3-1.7.6-.3.2-.7.5-.9.9v-1.6c.5-1 .7-1.8 1.1-2.3.5-.6 1.1-1.1 2.7-1.4v.1c0 .1 0 .2.1.3.1.6.3 1.1.4 1.7.2.7.6 1.4 1 1.9zm-.7 2.4c-.2 0-.3.2-.3.4v1c0 .4 0 .6-.3.7-.1 0-.2.1-.2.1-.1 0-.3-.1-.4-.3-.2-.2-.4-.5-.7-.8-.8-.5-1.5-.5-2-.6v-.2c-.1-.2-.1-.3-.1-.4 0-.3.3-.6.7-.9.4-.3 1-.5 1.4-.5h.5c.9 0 1.5.5 2.6.9h.1c0 .1-.1.2-.1.3-.1.1-.3.3-.7.4-.3-.2-.4-.2-.5-.1zm-25.9-5.3h-.7c-.6 0-1.3-.1-2-.2-.2-.7-.3-1.4-.3-2v-.5c4.6-1.1 9.2-2.1 13.9-3 .8-.1 1.5-.2 2.1-.2 2.3 0 3.9.8 6.4 1.5.7.2 1.3.3 1.8.3 2.7 0 4.2-1.9 6.5-3.5 5.3-3.7 14-3.6 20.4-4.3v.1c0 .1 0 .2.1.4l.2-.1-.2.1c.3.4.4.7.4 1 0 .9-.9 1.7-1.4 2.3-.9 1.3-1.1 2.7-1.2 4.2-.3 3.2-.5 5.7-4 7-3.2 1.1-4.8 1.3-7.4 1.3h-1.3c-3 0-5.9-3.1-7.2-5.7l-.1-.1h-.2c-2.2.3-3.2.8-3.8 1.7-.6.9-.9 2-1.8 3.6-1.8 3.1-3.7 4.1-7.4 4.6-1.4.2-2.6.3-3.7.3-1.6 0-3.1-.3-4.7-1.4-2.4-1.6-2.8-4.6-4.4-7.1v-.3zm26.9-7.5l-.3.3c.1-.3.3-.6.4-.9 0 .1 0 .3-.1.6zm-1.6 1.2v-.2.2zm16.8 9.7s.1 0 .1-.1v.5h-1.3c.4-.1.8-.2 1.2-.4zm-8.5-33c.3.5.6 1.1.8 1.8l.6 1.8c.5 1.4 1 2.8 1.3 4.3.2 1 .4 2 .7 3 .3 1.4.6 2.9.7 4.3v.1c0 .3-.1.6-.1 1 0 .2 0 .3.1.5.1.4.3.7.5.9.2.2.3.3.4.5-.6.1-1.2.2-1.9.3 0-.2-.1-.4-.3-.4h-.4c-.3 0-.5 0-.8.1l.6-.6c.5-.4 1.1-.8 1.5-1.4.1-.1.1-.3.1-.4l-.3-.3h-.4c-.6 0-1.1.1-1.7.3.3-.2.5-.5.8-.9.1-.1.1-.2 0-.4 0-.1-.2-.2-.3-.2-.1 0-.3-.1-.4-.1-.3 0-.7.1-1 .2.2-.3.4-.5.5-.9.1-.1 0-.3-.1-.4-.1-.1-.2-.2-.4-.1-.8.1-1.6.6-2.2 1.1.6-1.2 1.3-2.5 1.5-3.8 0-.2-.1-.3-.2-.4-.2-.1-.3-.1-.5.1-1.2 1.1-1.5 2.7-2.1 3.9 0 .1-.1.1-.1.2-.3-1.1-.6-2.2-.6-3.4 0-1.6.1-2.9.3-4.4.3-1.8.9-5.2 2.2-6.4.1 0 .1-.1.2-.1.1-.1.2-.3.2-.4.3.1.5.2.8.6zm-.8 14.5c-.2.1-.4.3-.6.4l-.1.1c.3-.1.5-.3.7-.5zm-35.9-2.4c0-.3 0-.6.1-.8 0-.1.1-.2.1-.4 3.3 1.1 5.9 3.3 8.7 5.5.9.7 1.8 1.4 2.2 2.5.4 1.1.5 2.5 1.5 3.6.1.1.2.1.3.1.1 0 .2 0 .3-.1.2-.2.2-.4 0-.6-.8-.8-.9-2-1.3-3.3-.5-1.3-1.5-2.1-2.4-2.8-2.5-2-5.1-4.2-8.2-5.4-.1 0-.2-.1-.2-.1.2 0 .3-.1.6-.1.2 0 .5 0 .8.1 1.1.2 2.3.8 3 1.3 1.7 1.1 3.2 2.7 5.1 3.8 1.8 1 3.9.7 5.5 1.1 0 .2.1.4.3.5.1 0 .2 0 .3-.1.1-.1.1-.1.1-.2 0-.6 1.1-1.4 2.4-2 0 0 .1 0 .1-.1 1.2-.6 2.6-1 3.3-1 .4-.1.9-.1 1.4-.1h1c.9 0 1.8-.1 2.7-.5.3-.2.7-.4.9-.6 1.6-1.6 1.9-4.3 2.6-6.1.8-2 1.6-3.8 2.8-5.4-.8 1.7-1.2 4-1.4 5.3-.3 1.5-.4 2.9-.4 4.5s.5 3 .8 4.4c-.1.3-.2.6-.2.9 0 .2.2.4.4.4.1 0 .2 0 .2-.1.1 0 .1.1.2.1h.2l-.3.6c-.1.2 0 .4.1.5.1.1.4.1.5 0 .5-.4 1.2-1 1.9-1.5.5-.3.9-.6 1.3-.7-.7.6-1.7 1-2.4 1.9-.1.1-.1.3 0 .5.1.1.3.2.5.1 1.1-.4 2.4-1.2 3.5-1.4-.2.2-.4.3-.6.5-.5.5-1.1 1-1.2 1.7 0 .1 0 .2.1.3-.2 0-.4.1-.6.1.1-.1.1-.2.1-.3 0-.2-.2-.4-.5-.4-1 .1-2.5.8-3.8 1.7-.5.4-1 .7-1.4 1.1-.1 0-.2.1-.2.1.1-.7.2-1.4.2-2.2 0-.2-.1-.4-.3-.4-.2 0-.4.1-.5.3-.3.9-1 1.8-1.4 2.9-.1-.4-.1-.7-.1-1.1 0-.5-.1-1-.2-1.4-.1-.4-.1-.7-.5-1-.2-.1-.4 0-.6.2-.1.2 0 .4.1.5 0 .1.1.3.2.7.1.6.1 1.3.2 2 0 .3.1.7.2 1-.1-.1-.2-.1-.3-.1-.2 0-.4.1-.4.3v.9c-1 .7-2 1.2-3.3 1.2-.5 0-1-.1-1.6-.2v-.3c0-.2-.2-.4-.4-.4s-.4.2-.4.4v.1c-.2-.1-.3-.1-.5-.2-.1 0-.1-.1-.2-.1s-.2-.1-.3-.1c-.3-.8-.7-1.6-1.2-2.4-.2-.6-.5-1.2-1.1-1.5-.1-.1-.3-.1-.5 0-.1.1-.2.3-.1.4.2.7.7 1 1 1.4.1.2.1.5.2.8 0 .3.1.5.1.8-.2 0-.3-.1-.5-.1-.7-.9-1.4-1.8-2.5-2.4-.2-.1-.4 0-.5.1-.1.2-.1.4 0 .5.4.4.8.9 1.3 1.4h-.9c-.7 0-1.4.1-2.2.2-.4.1-.7.1-1.1.2.1-.1.1-.3 0-.5-.7-1-1.8-2-2.4-2.9-.1-.2-.4-.2-.6-.1-.2.1-.2.4-.1.6.7 1 1.7 2 2.4 2.9 0 .1.1.1.1.1h-.2c-.4-.5-.8-.8-1.3-1.1-.7-.5-1.3-.9-1.6-1.4-.1-.2-.4-.2-.6-.1-.2.1-.2.4-.1.6.5.7 1.2 1.1 1.8 1.6.1.1.2.2.3.2-.2.1-.2.3-.1.5-.1 0-.3 0-.4.1l-.6-.6-1-1c-.1-.2-.2-.3-.3-.4 0-.1-.1-.1-.1-.1-.1-.2-.3-.3-.5-.3-.2.1-.3.3-.3.5.1.3.3.5.6.9.2.3.5.6.8.9-.3-.1-.7-.3-1-.4-.2-.1-.4 0-.5.2-.1.2-.1.4.1.5.2.2.3.3.5.4-1.1.2-2.1.5-3.2.7-.1-.1-.2-.2-.3-.4-.7-.9-1.4-1.7-1.7-2.6-.7-1.8-.6-3.9-1.4-6-.2-1.1-1-2.9-1-4.3zm10.9 35.2c.2.2.4.4.5.7.2-.6.3-1.2.4-1.8.1-.1.2-.3.2-.4 0-.2-.1-.3-.1-.5v-.2c0-.1-.1-.2-.2-.3-.4-1.3-1-2.5-1.9-3.9-.7-1.1-1.6-2.3-2.3-3.5.9.6 1.8.9 2.7 1.1 0 .2.2.3.4.4h.5c.8 0 1.6-.1 2.3-.2.8-.1 1.6-.2 2.5-.3.9-.1 1.6-.3 2.3-.4.8 0 1.5-.1 2.3-.1.1.1.2.1.3.1.3-.1.6-.1.8-.3.2-.1.3-.3.2-.5-.1-.2-.3-.3-.5-.3-.3.1-.5.1-.8.1.2-.1.4-.2.5-.4.7-.5 1.3-1.1 1.8-1.9.2-.2.3-.5.5-.7 0 .6.1 1.1.3 1.4.3.6.9.7 1.4.8.2 0 .3.1.5.1.3.1.7.2 1 .4.1 0 .3.3.5.6.2.2.4.4.7.6v.1c.1.4.4.8.6 1.2-.2.1-.3.3-.5.5-.3.4-.5.7-.7.9-.6.6-1.4 1-2.3 1.4-.2.1-.3.3-.2.5.1.1.2.2.4.2h.2c.8-.4 1.7-.8 2.5-1.5.3-.3.6-.7.8-1 .2-.3.4-.5.6-.5.1 0 .5.2.8.3.4.2.7.3 1.1.4h.5c.7 0 1.4-.2 2-.3.2 0 .4-.3.3-.5 0-.2-.3-.4-.5-.3-.6.1-1.2.3-1.9.3h-.4c-.1 0-.5-.2-.9-.4s-.7-.3-1-.4c-.2-.2-.5-.6-.6-1h.1c.7-.3.8-1 .8-1.5v-.6c1-.3 1.5-.9 1.5-1.6 0-.6-.3-1.2-.7-1.8-.1-.2-.2-.3-.3-.5-.2-.4-.5-.9-.6-1.2-.1-.3-.2-.7-.3-1 0-.1-.1-.3-.1-.4 0 .1.1.1.1.2.7 1.2 1.8 2.5 3 3.5.5.4 1.1.8 1.7 1-.1.1-.2.1-.3.2-.1.2-.1.4.1.6.1.1.2.1.3.1.1 0 .2 0 .3-.1.1.1.4.1.5 0 .1-.1.2-.3.1-.5.5.1 1 .2 1.5.2 0 .2.2.3.4.3 1.9 0 3.8-.1 5.8-.4.4 0 .9-.1 1.3-.1h1.5c0 .7 0 1.5-.1 2.2 0 .3 0 .5-.1.8-.5-.2-1.1-.4-1.6-.6v-.1c.1-.2 0-.4-.2-.5-.2-.1-.4 0-.5.2 0 .1-.1.1-.1.2-1.9-.6-3.9-1-5.7-1.2-.2 0-.4.2-.4.4s.2.4.4.4c1.7.1 3.6.5 5.4 1.1-.3.5-.8.9-1.2 1.4l-.5.5c-1.2-.5-2.4-.9-3.5-1.3l-.9-.3c-.1 0-.2-.1-.3-.1-.1-.2-.3-.2-.5-.1s-.3.4-.1.6c.2.3.5.3.8.4l.9.3c1 .3 2.1.7 3.1 1.1-.3.3-.7.6-1.1.8-.9-.9-2-1.5-3-1.5-.3 0-.6.1-1 .2-.2.1-.3.3-.2.5.1.2.3.3.5.2.2-.1.4-.1.6-.1.7 0 1.5.5 2.3 1.2-.7.5-1.4.8-2.1 1.1-1 .4-1.9.6-2.8 1-1.1.5-1.6 1.2-2.4 1.7-.6.4-1.3.5-2.1.5-1.3 0-2.8-.5-4.2-.6-.8-.1-1.6-.1-2.4-.1.2-.6.4-1.1.7-1.5.1-.2.1-.4-.1-.6-.2-.1-.4-.1-.6.1-.4.6-.7 1.3-.9 2h-2.3c.9-1.1 2.1-2.1 3.2-2.7.2-.1.3-.3.2-.5-.1-.2-.3-.3-.5-.2-1.4.7-2.9 2-3.9 3.4h-1.4c-.2 0-.4.2-.4.4s.2.4.4.4h.8c-.2.3-.3.6-.4.8-.5 1.1-.8 2.4-.9 3.7-.1.8-.1 1.6-.1 2.3v.8c-.4-.6-1-1.3-1.6-2.1-.1-.2-.1-.5-.1-.7h-.3c-.2-.3-.4-.6-.4-.9-.1-.2-.2-.2-.4-.2-.2.1-.2.2-.2.4.1.3.2.6.4.9.1.2.3.5.5.7 0 .1.1.2.1.3-1.3-.9-2.3-2.3-3.1-4zm6.4 9.7c.1-.3.1-.6.1-.9 0-.4-.1-.7-.2-1.1.2.1.3.2.5.3.4.3.9.5 1.3.7 1 .5 1.9.8 2.7 1.1.2.7.3 1.4.3 2.1 0 .6-.1 1.3-.2 1.9-.6-.9-1.4-1.6-2.3-2.3-.7-.6-1.5-1.2-2.4-1.7.1 0 .1-.1.2-.1zm-8.1 86.4h-1.4c-.9 0-1.7-.1-2.1-.3-.5-.3-.6-.8-.6-1.5 0-.6.1-1.3.3-1.9.1-.6.2-1.1.4-1.5.5-1.1 1.2-1.7 2.7-2.4 1-.5 2.3-1 3.4-1 .3 0 .5 0 .8.1h.2v.8c0 .7 0 1.4.3 2.1h-.1c-.6.1-1.1.2-1.6.5-.6.3-1 .8-1.4 1.4-.5 1-.7 2.2-.8 3.3v.4h-.1zm14.7.4c-.2.5-.5.8-.8 1.1-.6.5-1.3.6-2.3.7-.4 0-.8 0-1.2-.1-.6-.1-1.2-.1-1.8-.1h-.4c-.1 0-.1-.1-.2-.1 0 0-.3-.1-.5-.5-.2-.3-.4-.7-.4-1v-.2c0-.8.6-1.6 1-2.5.1-.2 0-.4-.2-.5-.2-.1-.4 0-.5.2-.3.7-1.1 1.6-1.1 2.8v.4c.1.4.3.9.6 1.3l.1.1c-.9 0-1.8.1-2.7.1h-.1c0-.1 0-.2-.1-.3-.1-.1-.4-.6-.5-1.1-.2-.5-.3-1.1-.3-1.4v-.1c.2 0 .3-.1.3-.3 0-.2-.1-.4-.3-.5h-.1c-.2 0-.5.2-.6.4-.1.2-.1.4-.1.6 0 .5.2 1.1.4 1.7.2.4.3.8.5 1-.7 0-1.2-.2-1.5-.5-.4-.3-.6-.9-.6-1.9v-.3c0-1.1.2-2.2.7-3 .4-.7 1-1.2 1.9-1.4.1 0 .2 0 .4-.1.5-.1 1.3-.1 2.1-.1s1.7.1 2.4.2c.5.1.9.3 1.1.5.1.1.1.1.1.2.1.2.3.3.5.2.1 0 .2-.1.2-.2v-.3c-.3-.7-1-1.1-1.8-1.3-.8-.2-1.7-.3-2.6-.3h-1.2v-.2c0-.2-.2-.3-.4-.3-.1-.5-.1-.9-.1-1.5 0-2.6-.3-5.1-.6-7.7-.1-.9-.2-1.8-.3-2.6-.2-2-.4-4.1-.4-6.1v-2.2c0-1.9-.4-3.6-.9-5.3-.2-.7-.4-1.4-.5-2.2-.3-1.2-.5-2.4-.6-3.7-.1-3.7-.8-7.2-.8-10.9 0-.2-.2-.4-.4-.4s-.4.2-.4.4c0 3.8.6 7.3.8 11 0 .3 0 .6.1 1 .2 1.8.6 3.4 1.1 5.1.3 1.4.7 2.7.8 4.1v3.1c0 2.8.3 5.5.6 8.2 0 .2 0 .4.1.6.1 1.2.3 2.5.4 3.7 0 .3.1.7.1 1-1.4-.7-2.3-2.6-3.2-4.1-.3-.5-.6-1.1-.9-1.6-.8-1.6-1.2-3.2-1.5-5.1-.3-2.2-1.2-4-1.9-5.9-.2-.5-.4-1.1-.5-1.6-.6-2.2-.2-4.4-.5-6.8-.4-3.1-2.4-5.7-2.8-8.6-.2-1.8-.5-3.8-.5-5.8 0-.7 0-1.3.1-2 0-.2 0-.4.1-.5.1-.6.2-1.2.4-1.8.8-2.5 2.1-4.9 2.6-7.7.5-2.6 1.3-5.1 1.9-7.8l.6-2.7c.5-2.2 1-4.3 1.9-6.4.4-1 1-2.1 1.5-3.3.4-1 .7-2.1.7-3.1v-.3c-.1-1.5-.3-2.8-.3-4.2.3.2.5.4.8.5 3.8 2.5 8.1 4.3 10.4 7.6l.2-.1.1-.1.5.1c.2-.8.3-1.6.3-2.4 0-.6-.1-1.2-.2-1.8 1.2.3 2.3.5 3.4.5.4 0 .9 0 1.3-.1-1.8 1.1-3.6 3.1-4.8 4.7l-.5.3c.2.4.5.7.7 1.1 0 .1.1.1.1.2.4.6.7 1.2 1.1 1.7.2.2.3.4.4.6h-.1v5c0 1.4 0 2.7-.1 4.1l-.4.3c.1.2.3.3.4.5v.6c0 .1-.1.5-.1 1-.1 1-.3 2.4-.4 3.9-.1.8-.1 1.6-.2 2.3v.5l-.2.3c.1.1.3.2.4.3v.5c0 1.1-.2 2.6-.4 3.9-.1.3-.1.7-.2 1-.2 1.1-.4 2-.5 2.3-.4 1.1-.4 2.2-.7 3-.3.8-.5 1.1-.5 1.5 0 .5.3.8.9 1.5.6.7 1 1.6 1.7 2.3 1.5 1.7 2.7 3.6 4 5.4.1.1.1.2.2.2l.3.4.2-.4c.2-.4.4-.8.7-1.1-.1.9-.2 1.9-.5 2.5-.3.6-.6 1.1-.9 1.6-.5.9-1.1 1.7-1.4 2.9-.5 1.7-.6 3.3-.6 5v2.4c0 .6 0 1.2-.1 1.8v.5c-.4 5-.8 10.3-.9 15.4 0 1.4 0 3-.3 4.4-.4 1.2-.6 1.7-.8 2.2zm9.6 2c-.2-.1-.5-.2-.7-.3-.8-.4-1.4-1.1-1.8-1.9v-.9c0-1.6.1-2.3 1.6-3.3 1.7-1 3.3-1.2 5.4-1.2.2 0 .4-.2.4-.3v-.1c0-.2-.2-.4-.4-.4-2.1 0-4 .2-5.8 1.4-.6.4-1 .7-1.3 1.1-.3.4-.5.9-.6 1.4-.1-.3-.1-.7-.1-1.1-.1-.7-.1-1.5-.1-2.2 0-1.4.1-2.8.1-3.9 0-3.4.5-6.3 1.2-9.5.5-2.2.5-4.4.5-6.7v-3.5c0-.6 0-1.3.1-1.9 0-.4.1-.7.1-1.1 0-1.4-.3-2.4-.7-3.8-.1-.2-.2-.3-.4-.3h-.1c-.1 0-.3.2-.3.3v.2c0 .2.1.3.1.4v.2c.1.3.1.5.2.8.2.8.3 1.4.3 2.2 0 .3 0 .6-.1 1-.1 1.1-.1 2.3-.1 3.4v2c0 2.2 0 4.4-.5 6.5-.2.6-.3 1.3-.4 1.9-.5 2.6-.8 5-.8 7.8 0 1.1-.1 2.5-.1 3.9v.7h-.1c-.4 0-.7.2-.9.4-.3.3-.4.8-.5 1.1v.1c-.1.3-.2.5-.3.6-.3.3-.5.3-.9.4-.3 0-.7 0-1.1.1.2-1.3.1-2.6.1-3.7 0-4.5.4-9.2.8-13.8 0-.5.1-1.1.1-1.6.1-.8.1-1.6.1-2.4v-2.4c0-1.6.1-3.2.5-4.7.4-1.6 1.5-2.7 2.3-4.4.3-.6.4-1.2.5-1.8.1-1 .2-2 .5-2.5v-.2c.4-.5.9-1 1.3-1.6 1-1.3 3.1-3 3.5-4.8.1-.5.1-1.1.1-1.9v-.4c0-1.1-.1-2.4-.2-3.9l.2-.4c-.1 0-.2-.1-.3-.3-.3-3.2-.7-6.8-1-9.9-.3-2.3-.4-4.3-.4-5.5v-.1c0-2.9-.3-5.5-1.1-8.2-.1-.4-.3-.8-.4-1.2v-.1c0-.2 0-.5.1-.8.2-.7.4-1.6.8-2.4.2-.5.5-1 .7-1.4 0 0 0-.1.1-.1.2-.1.5-.1.8-.2.8-.2 1.7-.4 2.5-.9.8-.4 1.5-.9 2.3-1.3.1 0 .2-.1.3-.1.6-.3 1.1-.6 1.7-.9 1.1-.6 2-1.2 2.9-1.9.2-.2.5-.4.7-.6.6-.6 1.4-1.5 2.1-2.2.3-.2.7-.4 1-.6.6-.3 1.2-.7 1.8-1.1.1-.1.3-.2.4-.3.1-.1.2-.2.3-.2 0 0 .1 0 .1.1-.1 0-.2.1-.3.1 1.5 2 3 4.3 3 6.5v.5c0 2.4-.6 5-.8 7.3v.6c.1 1.4.4 2.7.6 4 .1.7.2 1.5.3 2.2v1.6c0 1.1-.1 2.2-.2 3.2s-.3 2-.5 3c-.1.4-.2.9-.3 1.3-.2 1-.5 1.9-.8 2.9-.4 1.5-.8 2.9-1.1 4.4 0 .1-.1.3-.1.4-.2.9-.3 1.8-.5 2.5-.1.2-.2.4-.4.7-.1.1-.1.2-.2.3 0 .1-.1.1-.1.2-.2 0-.4.2-.4.4v.4c0 .7.2 1.3.3 1.8.1.5.2 1 .2 1.5v1.5c0 .6 0 1.2-.2 1.8-.4 1.7-1.5 3.3-2.2 5.1-.7 1.6-1.4 3.3-1.8 5.1-.5 2-.9 4.1-1.3 6.2-.3 1.6-.8 3.2-1.2 4.8-.1.5-.3 1-.4 1.5-.1.2-.1.5-.2.8-.1 0-.2.1-.2.1-.1 0-.2.1-.2.2v.3c0 .1.1.2.2.2h.1c-.5 2.4-.8 5-1.8 7.1-.4.8-.6 1.5-.6 2.2 0 1.2.7 2.2 1.9 3.1.7.6 1.5 1.1 2.1 1.7 1 .9 1.7 1.8 2 3.1.1.3.1.6.1.8 0 1-.4 1.6-1 2.1-.6.4-1.3.7-2.2.8.2-.2.3-.4.4-.7.1-.3.1-.7.1-1v-.5c0-.3 0-.5.1-.7.1-.2 0-.4-.2-.5-.2-.1-.4 0-.5.2-.1.3-.1.7-.1 1v.5c0 .3 0 .5-.1.7-.1.4-.4.7-.8 1-1.1.1-2.3.2-3.4.3.2-.3.3-.7.3-1 0-1-.6-2-.8-2.8-.1-.2-.3-.3-.5-.2-.2.1-.3.3-.2.5.3.8.8 1.8.8 2.5 0 .4-.1.8-.6 1.1l-.1.1c-.7.1-1.3.2-2 .2h-.4c-.4.3-.6.3-.9.2zm57.3-30.4c-.3.2-.6.3-.8.4-1.8.8-3.8 1-5.8 1-1.5 0-3-.1-4.5-.1h-.1c-5.5 0-11.2.3-16.2 2.9-.8.4-1.5.9-2.2 1.5-.4.3-.8.6-1.1 1-1.4 1.3-2.7 2.7-4.2 3.9-.4.3-.8.6-1.3 1-1.5 1.1-2.9 2.2-4.4 3.3-.6.5-1.3.9-1.9 1.4-2.5 1.7-4.3 2.3-7 2.3h-.2c0-.1 0-.3-.1-.4-.1-.1-.2-.1-.3-.1 0-.4.2-1 .5-1.6 1.2-2.3 1.5-5.1 2-7.7 1-.3 2.1-.4 3.3-.7.8-.3 1.6-.6 2.3-1.3.7-.6 1.3-1.3 1.9-1.9 1-1.1 1.9-2.2 3-3.2.4-.4.9-.8 1.3-1.2 1-1 1.9-2.1 2.9-3 .7-.7 1.5-1.3 2.5-1.8.1 0 .1-.1.2-.1.4-.2.8-.5 1.1-.7.8-.5 1.5-1.1 2.2-1.6.9-.7 1.9-1.3 3-1.8.1-.1.3-.1.5-.2s.3-.1.5-.2c2.2-.9 4.5-1.6 6.8-2 1.6-.3 3.3-.5 5-.5 2.8 0 5.6.5 8.2 1.7 1.1.5 2.1 1 2.9 1.6 1 .7 1.7 1.6 2.1 2.8.1.5.2 1 .2 1.5-.4 1.4-1 3-2.3 3.8z"/><path fill="#CF141E" d="M122.8 415.1c1.6 1.1 3.1 1.4 4.7 1.4 1.2 0 2.4-.2 3.7-.3 3.7-.5 5.6-1.4 7.4-4.6.9-1.6 1.1-2.7 1.8-3.6.6-.9 1.6-1.4 3.8-1.7h.2l.1.1c1.2 2.6 4.1 5.7 7.2 5.7h1.3c2.7 0 4.2-.2 7.4-1.3 3.5-1.2 3.7-3.8 4-7 .1-1.5.4-2.9 1.2-4.2.5-.7 1.4-1.5 1.4-2.3 0-.3-.1-.6-.4-1l.2-.1-.2.1c-.1-.1-.1-.2-.1-.4v-.1c-6.4.8-15 .6-20.4 4.3-2.2 1.6-3.8 3.4-6.5 3.5-.6 0-1.2-.1-1.8-.3-2.6-.7-4.2-1.5-6.4-1.5-.6 0-1.3.1-2.1.2-4.6.9-9.2 1.9-13.9 3v.5c0 .6.2 1.4.3 2 .7.1 1.3.2 2 .2h.7l.1.1c1.5 2.8 1.9 5.7 4.3 7.3zm37-17.5c.6 0 1.1.1 1.7.2 1.8.5 2.5 2.2 2.5 4.1 0 3.2-1.7 7.1-3.8 8-1.8.8-4.8 1.6-7.5 1.6-2.3 0-4.6-.6-5.7-2.5-.6-1-.9-2.3-.9-3.5 0-1.4.4-2.9 1.5-3.9 1.9-1.9 3.9-2.8 6.5-3.2 1.6-.2 3.6-.8 5.7-.8zm-39.9 11l.4.1h.1c0-.2-.1-.5-.1-.7.1-3.5 5.1-5.2 9.9-5.2 2.3 0 4.5.4 6.2 1.2 1.7.8 2.8 2.2 2.8 4 0 1.2-.5 2.5-1.5 4-2.2 3.2-5.9 3.8-9.4 3.8h-.9c-4.5-.1-5.8-3.3-7.3-6.9l-.2-.3z"/><path fill="#511B2A" d="M147.4 401.6c-1 1-1.5 2.4-1.5 3.9 0 1.2.3 2.5.9 3.5 1.1 1.9 3.4 2.5 5.7 2.5 2.8 0 5.7-.8 7.5-1.6 2.1-.9 3.8-4.8 3.8-8 0-1.9-.7-3.6-2.5-4.1-.5-.1-1.1-.2-1.7-.2-2 0-4.1.7-5.9.9-2.4.3-4.4 1.2-6.3 3.1zm12.4-3.6c.5 0 1.1.1 1.6.2 1.5.4 2.1 1.8 2.1 3.7 0 2.3-1 5-2.3 6.6-.5-3.1-1.4-6.2-2.4-9.1l-.3-1.2c.4-.2.8-.2 1.3-.2-.1 0-.1 0 0 0zm-1.8 1.5c1 3.2 2 6.3 2.4 9.6-.2.1-.4.2-.5.3-1.7.7-4.5 1.5-7.1 1.6h-.3c-2.3 0-4.3-.6-5.3-2.3-.3-.6-.6-1.3-.7-2 0-.1 0-.2-.1-.4.5.2 1 .3 1.5.3.4 0 .8-.1 1.1-.2.2-.1.4-.1.6-.2.8-.4 1.2-1 1.5-1.7.3-.7.3-1.5.3-2.2h.4c0 .1.1.1.2.1h.3c.6-.2 1.4-.4 2.2-.4.8 0 1.6.2 2.2.9.9 1 2.1 3 2.4 4.1 0 .2.2.3.4.3h.1c.2-.1.4-.3.3-.5-.3-1.4-1.6-3.4-2.5-4.5-.8-.9-1.8-1.1-2.8-1.1-.9 0-1.7.2-2.4.5 0 0-.1 0-.1-.1-.4-.2-.9-.4-1.3-.6-.5-.2-1-.3-1.5-.3 1.5-1.1 3-1.7 5-1.9 1.2-.1 2.5-.5 3.7-.7-.2.5-.1 1 0 1.4zm-11.7 6c0-.3 0-.7.1-1 .4.5 1 .6 1.6.6.7 0 1.5-.2 1.9-.8.1-.2.2-.4.2-.7v-.7c0-.1 0-.1-.1-.2 0-.1-.1-.3-.2-.4-.2-.3-.4-.6-.8-.7.5.1 1 .2 1.5.4v.1c0 .7 0 1.5-.3 2.2-.2.6-.6 1.1-1.5 1.4-.3.1-.6.1-.9.1-.5.1-1 0-1.5-.3.1 0 .1 0 0 0zm2.6-3c.1.1.3.4.4.7v.2c-.1 0-.3-.1-.4-.2-.1-.1-.2-.3-.2-.4v-.1s0-.1.1-.1l.1-.1c-.1-.1-.1-.1 0 0zm-.5-.8c-.1-.1-.1-.1 0 0 0-.1.1-.1.2-.1-.1 0-.1 0-.2.1zm-.9 2.5c-.1 0-.2-.1-.3-.3v-.2c.1.2.2.3.3.5zm-20.2 11.7h.9c3.5 0 7.2-.6 9.4-3.8 1-1.5 1.5-2.9 1.5-4 0-1.8-1.2-3.2-2.8-4-1.7-.8-3.9-1.2-6.2-1.2-4.8 0-9.8 1.7-9.9 5.2 0 .2 0 .5.1.7h-.1l-.4-.1.2.4c1.5 3.5 2.8 6.7 7.3 6.8zm-4.4-10.9c.2.2.5.3.8.5l.6.3c-.1.2 0 .3.1.5.3.3.6.3.7.3h.1c.2 0 .3-.1.4-.3h.3c.2 0 .4-.2.4-.4s-.1-.3-.2-.4c.1 0 .1-.1.2-.2.1-.2.1-.4-.1-.5-.3-.3-.6-.5-.8-.8h.1c.3.2.6.3.9.5.2.1.4 0 .5-.2.1-.2 0-.4-.2-.6h-.1c1.1-.2 2.4-.3 3.6-.3 1.4 0 2.8.2 4 .5l.1.1c0 .1.1.1.1.2.1.1.2.2.3.2.1.1.2.1.3.1h.2c.1 0 .1-.1.2-.2.3.1.5.2.8.3 1.4.7 2.3 1.7 2.6 3-.6-.3-1.1-.6-1.6-1-.7-.5-1.3-1.3-2.4-1.6-.4-.1-.8-.1-1.2-.1-.9 0-2 .2-2.9.6-.9.4-1.7 1.1-1.9 2.1 0 .2.1.4.3.5.2 0 .4-.1.5-.3v-.1c0 .4.2.8.4 1.2.3.5.7 1 1.2 1.4.4.3.9.5 1.4.6h.7c2 0 4-1.1 4.4-2.9 0 0 .1 0 .1.1h.1c.3.2.7.4 1 .5v.3c-.1.9-.6 2-1.4 3.2-1.8 2.6-4.6 3.4-7.6 3.6h-2.4c-.4 0-.8-.1-1.1-.1.1-.1.2-.2.2-.3 0-.9-.2-2-.1-3 0-.5 0-1 .2-1.4.2-.8.6-1.1 1.1-1.3.3-.2.7-.2 1.2-.4 0 .2.1.3.2.4.2.1.4 0 .5-.2.1-.3.1-.5.2-.7 0-.1 0-.3-.1-.4-.1-.1-.3-.1-.4-.1-.6.2-1.3.3-1.9.6-.6.3-1.2.8-1.5 1.8-.2.5-.2 1.1-.2 1.7 0 1.1.2 2.2.1 3 0 .1 0 .1.1.2-1.8-.5-2.9-1.7-3.8-3.3-.2-1.8-.3-3.6-.6-5.4 0-.9.6-1.4 1.3-1.8zm2.2.1c-.3-.1-.7-.3-1.1-.4-.1-.1-.2-.1-.3-.2.1 0 .1 0 .2-.1.4.3.8.5 1.2.7zm6.1 1.1c.1 0 .1-.1.2-.1l.1-.1h.1l-.1.1c-.3.4-.5.8-.5 1.3 0 .8.7 1.5 2 1.9.3.1.5.1.8.1.5 0 1-.2 1.3-.5.2 0 .3-.1.3-.3v-.1c.2-.3.3-.6.3-1s-.1-.8-.4-1.2c0-.1-.1-.2-.1-.2.5.3.9.7 1.5 1.2.1 0 .1.1.2.1 0 .7-.4 1.3-1.1 1.8-.7.5-1.6.8-2.5.8h-.6c-1.1-.1-2.3-1.6-2.3-2.6-.1-.6 0-1 .8-1.2zm1.6.9c-.2-.2-.2-.3-.2-.4.1.1.1.3.2.4zm.6-.7c.1-.1.2-.1.2-.3 0 0 .1 0 .1.1.3.1.6.3.7.5v.2c0 .2 0 .2-.3.3-.1 0-.3-.1-.5-.3-.1-.2-.2-.4-.2-.5zm-12.6 3v.4c0-.1-.1-.1-.1-.2s-.1-.2-.1-.2h.2z"/><path fill="#CF141E" d="M166 429c.1 0 .2-.1.4-.1.1 0 .1-.1.2-.1 0-.1-.1-.2-.1-.3-.1.1-.2.1-.3.2l-.2.3zm-17.1 10.3s0 .1-.1.1c.3-.1.6-.2.8-.3-.2 0-.4.1-.7.2zm4.7-2.6c-1-.3-2.2-.8-2.8-.8h-.2c-.4.1-.9.2-1.3.2h-.2c-.1 0-.2-.1-.2-.1h-4.5c.7.5 1.6 1.1 2.6 1.6h.3c.3 0 .5 0 .7.1l-.2.4c.3.2.6.3.9.5 0-.1.1-.1.1-.2l.4.3c.9-.2 1.9-.4 2.7-.9l.6-.3c.4-.4.7-.6 1.1-.8zm9.5-6l.1-.1c-.3.2-.7.4-1 .6-.7.7-1.5 1.6-2.1 2.2-.2.2-.5.4-.7.6.8-.4 1.5-1 2.1-1.6.6-.7 1.1-1.3 1.6-1.7zm-11.2 4.7c.9.2 1.8.6 2.5.8.4-.2.7-.4 1.1-.5.3-.1.5-.3.8-.4 1.3-.7 2.3-1.5 3.5-2.5.1-.1.3-.2.4-.4-1.1.1-2.3.3-3.4.3h-.4c-.1.1-.2.1-.3.2-1.4.8-2.8 1.9-4.2 2.5zm-1.7-.4v.2c1.7-.3 3.4-1.5 4.9-2.5-.6.4-1.3.7-1.9 1.1-1 .7-2 .9-3 1.2zm10.6-6.7c-.3.4-.6.8-.8 1-.6 1.2-1.7 2.1-2.9 2.9.8 0 1.6-.2 2.5-.3.7-.4 1.5-.8 2.3-1.2.4-.3.8-.6 1.2-.8h.2c.7-.4 1.4-.8 2-1.3-1.1-.5-2.5-.7-3.7-.8l.1-.6c1.3.1 2.9.3 4.2 1 .2-.1.3-.2.5-.4-.3-.7-.6-1.3-1.1-2-.3-.5-.7-.9-1-1.3-.3 0-.6-.1-.8-.1v-.6h.1l-.1-.1c-1 1.8-1.9 3.4-2.7 4.6zm5.1.7s-.1 0-.1-.1c-.1.1-.2.2-.3.2h.1c.1 0 .2 0 .3-.1zm-31 8.1c.8.7 1.6 1.5 2.3 2.3.1-.7.2-1.3.2-1.9 0-.7-.1-1.4-.3-2.1-.8-.3-1.8-.7-2.7-1.1-.5-.2-.9-.4-1.3-.7-.2-.1-.3-.2-.5-.3.1.3.2.7.2 1.1 0 .3 0 .6-.1.9.3.2.6.3.9.5.4.3.8.8 1.3 1.3zm-6.1-8.4c-.4-.4-.7-.9-1.1-1.3-.2-.2-.4-.4-.5-.6-.1-.2-.3-.3-.4-.5-.2-.2-.4-.4-.5-.7.8 1.7 1.8 3.1 3.2 4.2 0-.1-.1-.2-.1-.3-.3-.3-.5-.5-.6-.8zm-.2 3.8l-.3.4c1 .6 2 1.1 3 1.7.2.1.5.2.7.3 0-.2.1-.4.1-.6 0-.5-.2-1.1-.4-1.7-.7-.5-1.3-1.1-1.7-1.8-1.9-1.1-3.1-2.8-4.1-4.7 0 .1 0 .1-.1.2-.2.5-.4 1.1-.6 1.6.7 1.8 1.8 3.3 3.4 4.6zm-.9.1c-1.2-1.1-2.1-2.3-2.8-3.6-.1.5-.2.9-.3 1.4l.2.2c.9.7 1.9 1.3 2.9 2zm22.1 43.3v-.1c.1-.4.1-1 .1-1.8 0-1.2-.1-2.9-.3-4.7-.2-.3-.5-.7-.9-1.2-.6-.9-1.3-2-2-3.1-1.4-2.2-2.8-4.6-3.1-5.1-1.1-1.7-2.5-3.1-3.9-4.6v.2c0 .1-.1.4-.1.6-.1.5-.2 1.3-.3 2.1-.2 1.3-.3 2.8-.4 4.1.1.3.2.6.2.9 2 1.7 3.8 5 5.3 7 1.4 1.8 3.6 4.5 4.2 7 .3-.4.6-.7.7-1.1.3-.1.4-.2.5-.2zm-10.5-28.8v-2.4h.1c-.1-.2-.2-.3-.4-.6-.4-.6-.7-1.2-1.1-1.7.2.9.5 1.8.8 2.7.3.6.5 1.3.6 2zm6.5 6.2zm2.3 3.9c-.8-1.2-1.8-2.3-2.7-3.6-.1 0-.1-.1-.2-.2-1.7-2.6-3.5-5.2-5.3-7.7 0 2.9-.1 5.8-.1 8.6 1.4 1.7 3.1 3.2 4.4 5.2.5.9 3.3 5.6 5.1 8.2.1.1.2.2.2.3-.4-3.8-.9-8-1.2-11.1l-.2.3zm2.5 13c.2-1.7.3-3.6 0-5.2-.5-1.9-.9-3.9-1.3-5.9.3 3 .8 6.7 1 9.9.1.2.3.3.3.3l-.2.4c.1 1.5.2 2.8.2 3.9 0-1.4-.1-2.8 0-3.4zm-3.1-21.4l-.3-.6c-.7-1.4-1.7-2.9-2.6-4.3h-.8c-1.3 0-2.5.3-3.5 1.1v.1c1.7 2.5 3.4 4.9 5.1 7.4v-.1l.4.6c.7 1.2 1.7 2.3 2.5 3.4-.1-1.2-.2-2.1-.2-2.8v-.2c-.2-1.4-.4-3-.6-4.6 0 .1 0 0 0 0z"/><path fill="#CF141E" d="M136.9 441v.3c.1.5.7.7.9.9-.2-.4-.5-.7-.7-1.1l.5-.3c1.2-1.6 2.9-3.6 4.8-4.7-.4 0-.8.1-1.3.1-1.1 0-2.2-.1-3.4-.5.1.6.2 1.2.2 1.8 0 .8-.1 1.6-.3 2.4l-.5-.1-.1.1.3.3c-.2.3-.4.5-.4.8zm11.4 36.7c-.2-2.3-2.6-5.3-4.1-7.2-1.4-1.8-3.1-4.8-4.8-6.5 0 2.6-.8 6.5-1.1 7.3 0 .1-.1.3-.1.4l.1-.1c1.5 1.8 3.1 3.5 4.5 5.5.9 1.3 1.7 2.7 2.8 3.8.3-.3.5-.6.7-.9.4-.7 1.2-1.5 2-2.3zm-.2-38.2c-.1 0-.2-.1-.3-.2-.1-.2 0-.3.2-.4.1 0 .1 0 .2-.1-.4-.2-.8-.5-1.2-.7-2.6 1.5-4.5 3.6-6.5 5.9 1-.6 2.2-.8 3.3-.8.4 0 .7 0 1.1.1.5.1 1 .1 1.4.3l.3-.1c.3-1.2.8-2.8 1.5-4zm-6 38c-1.3-1.8-2.8-3.4-4.2-5.1-.1.7-.2 1.4-.5 2.1-.3.8-.5 1.1-.5 1.3 0 .1.1.4.8 1.1.6.8 1.1 1.6 1.7 2.3 1.5 1.7 2.6 3.4 3.8 5 .4-.9 1.1-1.9 1.8-2.8-1.1-1.2-2-2.7-2.9-3.9zm-3.7-10.1v.5c.2-1.3.4-2.8.4-3.9v-.5c-.1 1.2-.2 2.4-.3 3.5-.1.1-.1.3-.1.4zm9.5-25.5c.1-.3.2-.7.2-1.1-.3.8-.6 1.7-.8 2.4.2-.3.4-.6.6-1.3zm-1.1 3.4v-.4c-.1-.2-.1-.4-.2-.6l-1.2-.3c.5.8 1.1 1.7 1.6 2.6-.1-.4-.1-.8-.2-1.3.1.1 0 .1 0 0z"/><path fill="#CF141E" d="M139.7 444c2-2.3 3.9-4.5 6.6-6.2-1-.6-1.9-1.1-2.6-1.7-2 .8-4.4 3.4-5.7 5.2.5.8 1 1.7 1.6 2.5 0 .1.1.1.1.2zm-3.9 31.9v.4c.2.8 1.1 1.5 1.5 2.3.6 1.1 1 2.3 1.6 3.4.8 1.1 2.6 3.1 3.9 3.6v-.7c-1.3-1.8-2.5-3.6-4-5.4-.6-.7-1.1-1.6-1.7-2.3-.6-.7-.9-1-.9-1.5 0-.4.2-.7.5-1.5.3-.9.4-2 .7-3 .1-.3.3-1.2.5-2.3-.2.7-.4 1.3-.8 2.3-.2 1-1.3 3.3-1.3 4.7zm3.3-19.7c.1-.6.1-.9.1-1v-.6c0 .4-.1.8-.1 1.2v.4z"/><path fill="#511B2A" d="M138.2 463.2zm8.2-19.6zm12-13.6zm5-5.5c.2 0 .5 0 .8.1-.2-.3-.5-.5-.7-.7h-.1v.6z"/></svg>