<svg version="1.2" baseProfile="tiny" xmlns="http://www.w3.org/2000/svg" viewBox="0 0 768 641.9"><path d="M72.9 212.5c-4.3-8.1-6-16.7-6-26-.1-24.7 12.7-53 19.9-78.5.4-1.6-.1-3.3-1.5-4.4-1.3-1-3.1-1.1-4.6-.3-27.6 16.8-54.1 83.1-54.5 135.4 0 23.7 5.7 45 21.5 56.8.7.6 1.6.8 2.4.8 1.3 0 2.5-.6 3.3-1.7.3-.4.5-.9.6-1.3.1.6.2 1.2.4 1.8l1.6 2.3c38.5 26.1 78.4 41.6 126.5 52.6 2 .5 3.9 1 6 1.4.3.1.6.1.9.1 1.2 0 2.4-.5 3.2-1.5 2.4-2.9 4.3-6.2 5.9-9.7 2.4-5.2 4.1-10.8 4.6-16.7.1-1.6-.7-3.2-2.1-4-11.5-6.4-23.9-9.7-36.2-13.6 5.3-4.8 11.2-10 16.5-15.7h.5c27-.2 39.9-15.8 57.7-26.6-5.2 13.2-9.2 34.7-9.3 55.6.1 20.5 3.9 41 16.8 51.4 2.6 2.1 5.4 3.9 8.8 5.1.4.1.8.2 1.2.2 1.1 0 2.1-.4 2.9-1.2 5.6-5.6 7-13.4 7-21 0-11-2.7-22.9-3.1-32 0-.7-.1-1.6-.1-2.3 0-1.4.1-2.8.2-4.1 2.8-20.4 8.8-32.2 23.1-40.8v.8c.1 13.6-8.1 40.2-8.2 60.3.1 7.2 1 13.8 4.5 19.1 1.7 2.8 4.3 5 7.4 6.5 2.9 1.4 6.3 2.1 10.1 2.1 2.5 0 5.2-.2 8.1-.8 1.6-.3 2.8-1.5 3.2-3 1.1-4.7 1.5-9.2 1.5-13.8 0-6.6-.6-13-.6-19.4 0-3.6.2-7.1.8-10.7 3.9-23.7 14.1-45.6 16.5-71.3.7-8.2 1.1-16.3 1.4-24.3.3-6.5.6-13 1.1-19.4.5-6.4 1.3-12.7 2.5-19 .8-4 1.7-8 2.8-11.9 13.3.8 36.7 6.2 57.1 6.2 8.8.2 17.7-1.2 24.9-4.7 7-3.4 12.4-8.9 14.6-17.3.6.1 1.1.2 1.7.2 2.7 0 5.3-.8 7.8-2.4 4.8-.1 8.5-.9 11.4-2.8 3.1-1.9 4.8-5.4 4.7-8.6-.3-2.8-1.2-5.6-2.5-8.2.4-1.9.6-3.7.6-5.5-.3-16.2-15.1-27.8-28.5-27.9-.7 0-1.3.1-2 .2-5.4.5-10.6 3.4-13.6 8.8-13.2-7.4-32.3-15.7-39.7-24.8-6.9-8.3-8.3-19-8.2-30.9 0-4.2.1-8.6.2-12.9 0-1.9.1-3.8.1-5.7 0-1.7 0-3.5-.1-5.2 0-1.4-.9-2.5-2-3.2-.2-.1-.3-.3-.4-.4-1.4-.6-3.1-.4-4.3.6-12.3 10.8-17.6 26.3-27.5 35.5-4.8 5.4-13.5 5.1-20.6 12.9-3-8.2-5.3-18.1-8.2-27.6-1.9-6.2-4-12.3-6.9-17.6-.6-1.1-1.7-1.8-2.9-2-1.2-.2-2.5.1-3.4 1-.2.2-.3.4-.5.5-11.2 10.5-15.9 26.7-19.3 42-2.5 6.3-3.8 13.6-4.9 21-.1.3-.1.6-.2.8-.1.4-.1.9-.1 1.3-1.1 7.8-2.2 15.3-4.7 21.4-.3.9-.8 1.6-1.2 2.4-.8 1.5-1.5 3.1-2.5 4.3-13.2 17.7-35 24.6-56.8 31.4-4.7 1.4-9.4 2.9-14.1 4.5-6.9 2.3-14.1 4.8-21.5 7.3-33.1 11.2-69.1 25-91.7 48.5.2.1.2-.2 0-.4zm-22.2 55.1c0 6.9 1.1 14.4 2.8 22.2-.2-.3-.5-.6-.8-.9-12.5-9-18.2-27.6-18.2-50.1-.4-42.2 20.2-96.8 40.3-119.7-7 21.3-16.1 44.8-16.2 67.4 0 10.3 1.9 20.4 7 29.9.6 1.1 1.7 1.8 2.8 2-10.7 13.2-17.5 29.2-17.7 49.2zm396.9-131c-2.2 3.5-4.1 5.9-5.8 7.3-1.3-.1-2.7-.2-4.2-.4h-.1c.1-.3.2-.7.3-1 1.2-4.9 2.4-10 3.8-14.9 1.7.9 3.6 2.3 5.2 3.9.8.8 1.5 1.6 2.2 2.4-.4.9-.9 1.8-1.4 2.7zm-17.5-29.3c.9 0 1.8.1 2.8.3 7 1.4 14.9 7.8 17 15.6-2-1.5-4.1-2.8-6.3-3.7.2-1.6-.6-3.2-2.1-4-2.1-1.1-4.4-1.9-6.7-2.7-3.9-1.3-7.9-2.3-12-2.4 1.8-2.2 4.2-2.9 7.3-3.1zm-8.6 11.3c2.9 0 6.2.5 9.3 1.4-.6.4-1.1 1-1.6 1.6-1.9 2.5-2.7 5.8-2.7 9.6 0 2.1.2 4.4.7 7-.5-.8-.9-1.7-1.4-2.6-2.6-5.3-4.5-11.8-5.2-17.1.4.1.7.1.9.1zM189 165.2c25.1-8.6 56-14 74.8-38.7 7-9.9 9-23.9 10.8-36.1 1.6-6.4 3-13.2 4.6-20.1.8-1.6 1.8-2.9 2.9-3.7 1.7-1.5 1.8-4.1.3-5.8-.2-.2-.4-.2-.6-.3 2.5-8.7 5.7-16.7 10.3-22.6 5.7 13.5 8.4 32.7 15.2 46.5.7 1.4 2.1 2.3 3.7 2.3 1.5 0 3-.9 3.7-2.3 4.8-10.7 12.8-7.8 23.5-17.2 8.8-8.6 14-19.4 20.4-27.9-.1 4.3-.3 8.7-.3 13.2 0 12.4 1.3 25.5 10.2 36.2 10.3 12.2 31.6 20.4 43.8 27.7.4 7 2.6 15.6 6.2 23 2.3 4.4 5.1 8.7 8.7 11.7-2.6 13.3-14.3 16.7-31.8 17.1-20.7 0-45.7-6.3-60.1-6.3-1.1 0-2.1.4-2.9 1.2-.6.6-1 1.3-1.1 2.1-8.7 26.2-6.6 53.3-9 78.8-2.2 23.9-12.2 45.7-16.4 70.7-.7 4.1-.9 8.1-.9 12 0 .9 0 1.7.1 2.6.1 5.9.6 11.5.6 16.8 0 3.2-.2 6.3-.7 9.2-1.4.2-2.7.3-3.8.3-2.7-.1-4.8-.5-6.6-1.3-5.4-2.4-6.7-8.2-7.2-18.2 0-18.3 8.1-44.4 8.2-60.3 0-3.1-.3-6-1.3-8.6-.4-1.1-1.3-1.9-2.3-2.4-1.1-.4-2.3-.4-3.3.1-20.4 9.7-29.7 25.9-32.6 49.8-.2 1.7-.3 3.4-.3 5.1 0 10.9 3.2 23.9 3.2 34.3 0 .7-.2 1.2-.2 1.9-.2 4.6-1 8.5-2.8 11.3-1-.5-1.8-1.2-2.7-1.8-10-7.2-14.7-25.4-14.6-45.9 0-16.2 2.7-33.3 6.2-45.4.5-.5.9-1.1 1.1-1.8.7-2.3 1.3-4.7 1.9-6.9.5-1.9-.4-3.8-2.1-4.7.8-.4 1.5-.8 2.3-1.2 2.1-1 3-3.4 2-5.4-1-2-3.4-3-5.4-2-23.3 11-34.4 27.2-56.4 29.7 2.6-3.9 4.7-8.2 6.1-12.8.9-3.3 1.3-6.9 1.3-10.6-.5-15.2-5.6-34-20.2-35.4-.7 0-1.5 0-2.4.2-2.2.5-3.6 2.8-3 5 .5 2.2 2.7 3.6 5 3.1h.5c1.9-.2 5.3 2.4 7.8 7.9 2.5 5.4 4.1 12.8 4.1 19.3 0 3.1-.3 6.1-1 8.4-1.5 5.4-4.6 10.5-8.5 15.4h-.7c-2.3-.2-4.3 1.5-4.4 3.8 0 .6 0 1.2.2 1.7-5.9 6.1-12.6 11.8-18.7 17.4-1.1 1-1.5 2.4-1.2 3.9.3 1.4 1.3 2.5 2.7 3 13.9 4.7 27.4 7.9 39 13.8-1 6.4-3.3 12.3-6.9 17.3-48.4-10.8-87.6-25.8-125.7-51.4-2.2-8.7-3.2-16.6-3.2-23.9-.8-61.6 72.5-83.6 129.9-102.8z"/><path d="M309.5 124.8h1.7c4.3 0 8.2-.2 11.1-3.4 2.6-3.1 3.1-6.4 4.7-11.7.6-2.2-.6-4.4-2.7-5-2-.6-3.6-1-5.2-1-1.6-.1-4.1.7-5.3 2.7-.1.2-.2.4-.3.5-.4-.2-.7-.3-1.1-.3-2.3-.3-4.3 1.3-4.6 3.6-.2 2.5-1.9 5.6-2.4 10.1-.1 1.1.2 2.3 1 3.1.8.9 1.9 1.4 3.1 1.4zm34.7-12.2c.6.3 1.3.5 1.9.5.5 0 1-.1 1.5-.3 9.2-3.2 10.2-4.9 14.7-11.1.9-1.1 1.1-2.7.6-4-.5-1.3-1.7-2.3-3.1-2.6-.8-.2-1.6-.3-2.4-.3-3.1-.1-5.6 1.6-6.9 3.1-1.3 0-2.6.6-3.4 1.6 0 0-.1.1-.3.2-1.3.7-5.1 3.4-5 8.1 0 .4 0 1.2.2 2.1.4 1.2 1.1 2.2 2.2 2.7zm73.6 130.6c-3.9 11.6-7.3 23.7-10 35.6-.1.5-.1.9-.1.9.5 3.7 2.1 3.5 2.5 4 5.5 2.7 28.3 7 39.5 8.6-3.8 11-7.9 23.4-8.4 35.4-.1 2.2 1.6 4.1 3.8 4.2 9.9.8 22.1 2.8 32.3 6.4.4.1.9.2 1.3.2.6 0 1.2-.1 1.8-.4 1-.5 1.7-1.3 2.1-2.4 3.8-11.2 6.7-23 10.2-34 9.6 2.3 19.4 5.3 29.2 7.5 2.1.5 4.2-.7 4.8-2.7 3.6-10.7 6.7-22 9.3-33 .5-2-.6-4.1-2.6-4.8-13.2-4.9-25.6-6.4-37.6-8.8 3-15.4 12.3-29 17.8-44.9.7-2.2-.4-4.4-2.5-5.2-9-3.3-18.7-6-28.1-7.9-1.7-.3-3.5.5-4.4 2-8.5 15.3-12.6 32.8-17.2 49.6-2-.6-3.9-1.4-5.9-2-6.8-2.3-13.6-4.6-20.4-7-4.1-1.4-8.2-2.9-12.4-4.2-2-.4-4.3.8-5 2.9zm45.5 19.6c2.2.6 4.4-.6 5.1-2.8.2-.5.2-.9.2-1.4.2-.4.5-.8.6-1.2 4.6-16.5 8.4-32.9 15.5-46.6 6.7 1.5 13.5 3.4 20.1 5.6-5.5 14.3-15 28.3-17.4 46.4-.3 2.1 1.1 4.1 3.2 4.6 12.7 2.8 24.8 4.1 36.9 8.1-2 8.4-4.4 16.9-7.1 25.1-9.5-2.3-19.4-5.3-29.2-7.5-2.1-.4-4.1.7-4.8 2.7-3.7 11.1-6.6 22.8-10.1 33.7-8.7-2.6-18-4.3-26.3-5.2 1.2-11 5.6-23.2 9.4-34 .4-1.3.2-2.6-.6-3.7s-2-1.7-3.3-1.7h-.2c-1 .1-12.4-1.7-22.4-3.7-5.1-1-10.1-2.1-13.7-3-.9-.2-1.7-.5-2.4-.6 2.2-9.3 4.8-18.7 7.8-27.8 12.4 3.8 24.9 9 38.7 13zm239.9 9.5c-2.5 0-5.1.2-7.5.5 2.5-4.8 4-10.2 4-15.4.2-9.1-5.1-18.4-16.2-22.2-4.2-1.5-7.9-2.3-11.3-2.3-7.3-.2-12.8 4.2-15.2 9.6-2.5 5.5-3.1 11.9-3.1 18.4 0 9.4 1.4 19.2 1.4 24.7v.6c.5 30.1-35 57.3-60.5 75.4-8.4-8.7-23-17.9-36.8-18.1-7.9-.2-16.1 4-19.9 13.2-1.3 2.9-1.9 6-1.9 8.9.5 17 18.3 28.3 33.6 28.5.8 0 1.6 0 2.5-.1-1.5 10-2.5 19.8-5.2 29.1-.3 1-.2 2.1.3 3.1 5.4 9.8 16.5 17.4 27.9 17.6h.3c7.1 0 14.3-3.7 18.5-11.6 1.7-3.1 2.3-6.3 2.2-9.4-.1-9.1-4.5-17.7-4.3-24 0-1.6.2-2.9.7-4.2 9.3-26.3 49.4-40.3 66.9-69.7 8 3.9 19.1 6.3 30.4 6.4 17.6 0 37.8-7.1 37.8-28.8v-1.3c-1.4-20.1-25.1-28.7-44.6-28.9zM581 375.8h-.2c-1.2 0-2.4-.1-3.6-.2 1.1-.9 2.1-1.8 3-2.7l1.8.9c-.3.6-.7 1.3-1 2zm-4.8-15.9c1.2.4 1.3.8 1.3 1v.4c-.5-.4-.9-.9-1.3-1.4zm-19.4 5.8c.1-.4.2-.8.8-1.4.3-.4.8-.8 1.4-1.2 3.2.6 7.8 2.7 12.6 5.1v1.3c-1.7 1.2-3.9 2.4-6 3.3l-2.1-.9c-4.5-2.1-6.6-4.8-6.7-6.1v-.1zm28.9 21.6c.1-.6.3-1.1.5-1.6l1.8-1.5c-.8 1-1.5 2-2.3 3.1zm1.2-20.2c-.7-.4-1.5-.8-2.3-1.2.3-.7.3-1.4.5-2.2 1.1.9 2 1.7 2.9 2.6-.3.4-.8.5-1.1.8zm9 3.5c-.5.6-1.1 1.2-1.7 1.7 0-.2-.1-.4-.1-.5.6-.5 1.2-.9 1.8-1.2zm3.3 34.3c.4-1.7.7-3.6.9-5.6.4-.2.8-.4 1.1-.5.1.4.1 1 .1 1.8.2 5.6-4 17.3-6.1 19.5 1.6-5 2.9-10.1 4-15.2zm4.2-30.7c.7-1.1 1.2-2.2 1.7-3.5 1.5-2.4 5.4-4.5 10.2-6.6-5 6-9.6 12.2-13.7 19 .4-3.4.9-6.4 1.8-8.9zm62.9-95.6c0 .8.2 1.6.7 2.3.2.2.2.5.4.7-1.4.9-2.7 1.8-3.9 2.8 0-1.8-.2-3.7-.3-5.8.5.1 1 .2 1.4.2.5 0 1.1-.1 1.7-.2zm-.4 14.7c.1-.1.1-.1 0 0 .1-.1.1-.1 0 0 .1-.1.1 0 0 0zm17 2.7c-.9.3-1.8.6-2.7 1 2.3-1.5 4.4-2.9 5.8-5-.3.6-.7 1.2-1 1.8-.5.5-.9 1.1-1.3 1.6-.3.2-.6.4-.8.6zm5.1 15.9c1.2 1.7 2.8 3.3 4.9 4.5h-.2c-2.2-.1-3.7-.7-5.4-3.2.2-.4.5-.8.7-1.3zm6.3-29.7c2.7.1 5.1.5 7.3 1-.4.3-.8.6-1.2.8-.4 0-.9-.1-1.3-.1-5.6.2-10 3.3-12.7 7.6.6-1.1 1.1-2.4 1.3-4-.1-1.3-.5-2.4-1.1-3.3.4-.4.9-.6 1.3-.9.7-.3 1.7-.4 2.4-.7 1.2-.1 2.6-.5 4-.4zm-26.5-40.1c.6-.3 1.3-.6 2.1-.7-.8.2-1.5.4-2.1.7zm-1.6 1.2c.3-.3.6-.7 1-1-.4.3-.6.7-1 1zm-5.1 57.7c.4.1.8.2 1.2.2-.3.5-.5 1-.8 1.5-.6.7-1.2 1.4-1.8 2.2.5-1.3 1-2.6 1.4-3.9zm-3.4 37.3c-6 5.4-12.8 10.6-19.5 15.8.8-.8 1.4-1.7 2.2-2.4.1 0 .1-.1.1-.1 6.1-4.7 11.5-9.7 17.2-13.3zm36.2-32.6l-.1-.1c-.1-.4-.1-.9-.2-1.3 0-.3 0-.7.1-1 4.6-2.7 8.8-6.2 10.7-11.5.8-.3 1.7-.6 2.6-.7.7-.1 1.5-.1 2.3-.1.8 0 1.6 0 2.4.1.2.5.4 1 .5 1.6-4 7.2-9.7 15.4-14 14.6-1.2-.1-2.5-.5-4.3-1.6zm-2.5-48.3v-.2.2zm-.3-2.4c-.2-1-.4-1.9-.7-2.9-.3-1-.7-1.9-1.2-2.8 1.1 1.7 1.6 3.6 1.9 5.7zm-11.7-12.5c-1.3.2-2.4.4-3.5 1-1.1-1.1-2.5-1.9-4.8-2.3.3 0 .6-.1.9-.1 2 0 4.5.5 7.4 1.4zm-31.7 83.4c-.2 1.2.1 2.2.7 3.1-1.8 1.8-3.6 3.6-5.4 5.2-5.2 4.9-13.5 10.6-19.7 17.8-1.4.6-2.8 1.1-4.3 1.7 10.2-8.2 20.6-17.4 28.7-27.8zm-103.4 39.6c0-1.2.2-2.4.6-3.6v.3c.4 4 1.8 7.9 4 11.3 1.5 3.3 3.9 6.2 7.1 7.9.8.6 1.6 1.2 2.5 1.7-2.2-1-4.3-2.1-6.1-3.6-5-3.9-8.1-9-8.1-14zm62.6 62.7c-3.2 5.5-7 7.2-11.7 7.3-2.3 0-4.7-.7-7.1-1.6 5.2-1.1 9.8-4.4 13.3-8.2 2-2.6 3.9-6.5 5.4-10.8.8 2.9 1.4 5.6 1.3 8 0 2-.3 3.7-1.2 5.3zm58.5-97.5c0-.1 0-.3-.1-.5-.3-.8-.3-1.6-.4-2.4 2.8-3.2 5.3-6.6 7.3-10.1l.3-.3c.4.4.8.8 1.3 1h.1c-2.2 4.4-5.1 8.4-8.5 12.3zm74.3-28.3c0 15-13 20.3-29.6 20.6-2.9 0-6-.2-8.9-.6 1.6-.8 3.3-1.5 4.9-2.5h2.4c9.7-.7 26.5-4.9 27.7-18.9 0-2.3-.7-4.6-1.8-6.8-3.6-6.1-10-9.3-16.5-10.7-.3-.1-.7-.2-1-.3-.4-.6-1-.9-1.5-1.5 13.2 2.9 24.3 10.5 24.3 19.5v1.2zm-19-8.7c.1-.1.1-.2.2-.4 2.9 1.3 5.3 3 6.2 5 .7 1.2.9 2.1.9 2.8.2 2-2.1 4.8-6.4 7.1-1.8 1-3.9 1.8-6 2.3 3-4.3 5-9.1 5.3-13.7v-.1c0-1.1-.1-2.1-.2-3zM208.8 428.5c-.6-1-1.5-1.7-2.7-2-21.7-5-55-15.1-77.5-15.6-.5-.6-1.2-1.1-2-1.4-2.2-.6-4.4.7-5 2.8-2.8 9.9-5.4 19.9-8.4 29.6-.5 1.5 0 3.1 1.1 4.1 1.1 1.1 2.7 1.4 4.2 1 1.4-.5 3.1-.7 5-.7 2.9 0 6.2.5 9.5 1.3 19.1 7.7 41.1 15.4 61.1 16.3h.2c1.6 0 3.2-1 3.8-2.6 4-9.6 7.7-19.6 11-29.5.3-1.1.2-2.3-.3-3.3zm-61.6-7.4c3.2.5 6.5 1.2 9.8 1.9-3.3-.6-6.5-1.2-9.8-1.9zm-14.8-1.9l3.3.3c-.9.5-1.6 1.3-1.9 2.3v.3c-.5-.9-1.1-1.6-1.6-2.1.1-.3.2-.5.2-.8zm38.5 32.6c0-.1.1-.1.1-.1 6.9 1.8 14 3.2 20.7 3.6 0 .1-.1.2-.1.3-6.6-.6-13.6-2-20.7-3.8zm23.7-4.5c-2.3-.9-4.7-1.7-7.1-2.6.4-.5.6-1.2.7-1.9.1-.7 0-1.4-.2-2 .3.1.7.1 1 .2 2.1.5 4.3-.7 4.9-2.7.3-.9.2-1.8-.1-2.6.1-.3.2-.7.2-1 .1-1.3-.6-2.3-1.5-3.1 2.5.6 4.9 1.2 7.2 1.8-1.5 4.7-3.3 9.3-5.1 13.9zm-4.2 36c-11.8-2.3-58.7-15.6-73.8-15.8-.9.2-2 0-3.1.2.4-1 .7-2 1.1-3 .8-2.1-.3-4.5-2.4-5.3-2.2-.8-4.5.3-5.3 2.4-4 10.7-8.2 21.6-11.7 32.5-.4 1.1-.2 2.3.3 3.3.6 1 1.5 1.7 2.7 2 27.2 6.2 55.3 12.4 82.9 19.4.4.1.7.1 1 .1 1.5 0 2.9-.8 3.6-2.2 5.1-9.6 7.4-19.5 7.9-29.5.2-1.9-1.2-3.7-3.2-4.1zm-16.1 10.9c-.7-.2-1.4-.5-2.2-.7 1 .1 1.9.1 2.8.2-.1.2-.3.4-.4.6-.1 0-.1-.1-.2-.1zm-52.8-18c2.5.3 5.6.8 9 1.5-2.9-.6-5.9-1.1-9-1.5zm-11.1-.2l.6.3c-.6.6-1 1.4-1.2 2.3-.2 1.9.9 3.7 2.6 4.3-.4.8-.5 1.7-.2 2.6.1.5.4 1 .7 1.4-.5.3-1 .8-1.3 1.4-1.9 0-3.8.2-5.7.6 1.4-4.3 2.9-8.6 4.5-12.9zm401.8 10.3c12.7-6.3 25.4-17.3 26-30.5 0-7.9-5.6-15-16.3-19.6-4.8-2.2-9.2-3.2-13.2-3.2-22 1.1-25.7 27.2-36.9 34.1-.8.6-1.8 1.1-2.7 1.7-4.2 2.6-9.6 4.9-15.6 7-1.7-2.5-3.6-4.9-5.9-7.2-9.8-9.5-31.6-13.7-50.2-13.9-10.5.3-20.8 1.2-26.3 6.5-4.1-32.2-39.1-58.7-72.3-58.9-9.7 0-19.3 2.3-27.8 7.6-2.5 1.5-4.8 3.2-6.9 4.9-16.5 13.2-22.9 31.4-22.8 50 .1 27.9 13.3 57.3 26.8 78.6.8 1.3 1.6 2.4 2.4 3.6-.3 0-.5-.1-.8-.1-.2 0-.4.1-.6.1-2.2.3-2.4.8-4.6 1.6-3.9 1.7-10.3 4.7-16 7.2-.1-1-.6-1.9-1.3-2.5-8.2-7.3-16.7-10.6-24.3-10.6-12 0-21.6 8.5-21.6 19.4 0 9.5 7.1 18.9 21.8 24.9-1.3 4.3-1.5 8.5-2.7 10-1 1.7-.7 3.8.7 5.2 8.4 7.7 17 13.1 25.9 13.2h.1c10.6 0 18.4-9.2 20.7-25.6.1-.6 0-1.2-.1-1.7 3.7-.8 7.5-1.7 11-2.6 4-.9 7.5-1.7 10-2.2 3.4 8.9 6.5 17.9 9.6 25.9.6 1.6 2.2 2.6 3.8 2.6.5 0 1-.1 1.5-.3 44.6-17.3 120.9-24 148.2-71.2 2.5-4.4 4.6-9.1 6.2-13.9.5-1.5 0-3.1-1.1-4.2 5.1-1.7 9.8-2.9 13.7-3.4 1.3-.2 2.7-.4 3.8-.4h.6c6.7-.6 25.8 16.8 43.1 17.2 5.3.1 10.8-1.9 15.1-6.6 4-4.3 6.1-9.1 6.1-13.8-.7-14.1-15.2-23.5-27.1-28.9zM413 529.6c-5.7-3.7-10.6-5.2-12.7-10.6-.8-1.8-1.1-3.4-1.1-5 0-3 1.3-6.2 3.3-9.3-.1.8-.2 1.6-.2 2.4 0 1.6.1 3.1.4 4.7-.1.2-.2.4-.3.5-1 1.9-.3 4.3 1.5 5.4h.1c.9 2.8 1.9 5.3 3.1 7.1.8 1.1 2 1.8 3.4 1.8s2.6-.6 3.4-1.7c.4-.7.9-1.3 1.2-2 1.4-.1 2.9-.3 4.3-.5.1.3.3.7.6 1 1.2 1.6 3.3 2.2 5.1 1.3 3.9-1.9 8-3.6 12.1-5.3 4.4-.9 8.6-2.3 12.9-3.5-13.7 4.8-27.8 11.2-37.1 13.7zm4.6-34.3c.3-.1.7-.2 1.1-.3-.3.2-.6.3-.8.5-.1-.1-.3-.1-.3-.2zm77.5 11c1.2-.9 2.2-2.1 3-3.4 4.7 2.9 7.3 6.8 7.1 7.1 0 0 .1.1-.2.2-.3.3-1 .7-2.2 1.1-1.7-.6-3.7-1.7-5.5-3l-1.8-1.2c-.2-.3-.3-.5-.4-.8zm19.8 10.1c2.7-2.5 4.7-5.1 5.3-8 2.9 1.6 5.1 3.3 6.1 4.8 1.2 1.7 1.4 2.8 1.4 3.1 0 .3 0 .8-2.1 1.8-2 .9-5.2 1.4-8.5 1.4-2.1 0-4.2-.2-6.1-.6 1.4-.7 2.7-1.5 3.9-2.5zm-14.9-34c-1.8.5-3 2.1-3 3.9 0 1.8 1.2 3.5 3 4 2 .5 4.6 1.5 7.3 2.7-4.6-1.8-9.5-2.9-13.1-3.7-.1 0-.2-.1-.3-.1-1.7-.6-3.3-1-4.9-1.4 2.9-2.3 6.3-4.5 9.7-6.8.2-.1.4-.3.5-.5 4-1.1 8-3.6 12.3-6.7 2.7-1.5 5.3-3.5 7.4-6 4.3-3.9 8.1-7.5 10.9-11-.4 8.9-17.4 22.6-29.8 25.6zm11 12.4c-1.2-.6-2.4-1.2-3.6-1.7 1.2.5 2.3 1.1 3.6 1.7zm.8-39.6h.2c1.6 0 3.2.2 4.5.4-.1.5-.2.9-.4 1.3-1.4-.5-2.9-.8-4.4-.8-6.3.4-12.8 3.7-18.4 8.1 1.9-5.2 10.3-9 18.5-9zm.3-13.5c-3.2.1-6.5.4-9.8 1.2 1.9-1.1 4-1.8 6.3-1.6 1.1-.1 2.3.1 3.5.4zm-35.6 32.1c1.8-1.5 3.5-3.1 5-4.9.4 1.4 1 2.6 1.8 3.7-3.1.5-6.4 1.6-9.8 2.9 1.1-.6 2.2-1.1 3-1.7zm-249.7 93.5c-2.7-1.2-4.3-2.5-5.1-3.8v-.6c1.5.2 3.1-.5 4-1.9.3-.5.5-1 .6-1.6 2.2.1 4.7.6 6.9 1.1-1.6 2.9-4.4 5.9-6.4 6.8zm25.2 27.4c.3-.6.6-1.3.9-1.9.1-.2.2-.4.2-.6v.3c-.1.9-.3 1.4-.4 1.9-.2 0-.4.2-.7.3zm-9.2-.3c-.2.3-.3.3-.5.5-.1-.5-.2-1.1-.3-1.9.1-3.8 2-7.3 5.2-8.6-.5 1.7-1.1 3.5-1.8 5.2-.9 2-1.8 3.8-2.6 4.8zm39.1-27.7c-.5 0-1 .2-1.5.4-.3-.4-.7-.7-1.1-.9.6-.4 1.2-.9 1.8-1.3l.9 1.8h-.1zm-4.6-9.1c-.4.2-.9.4-1.4.6.2-.5.4-.9.6-1.4.1-.2 0-.4 0-.6.3.4.6.9.8 1.4.1 0 0 0 0 0zm-3.6-5.9zm-64 10.4c0-5.8 5-11.1 13.4-11.2 1.2 0 2.5.1 3.8.4-.6 0-1.2-.1-1.8-.1-2.6 0-5.4.3-7.9 1.9-2.6 1.5-4.4 4.8-4.3 8.3 0 .4 0 1 .1 1.7.2.9.4 1.7.7 2.5.4 2.1 1.2 4.2 2.9 6 2.4 2.7 5.7 4.3 8.9 4.2h.2c1.1.4 2.3.7 3.5 1-.4 1-.7 2.1-1 3.1-14.3-5.3-18.6-12.7-18.5-17.8zm37.4 45c-4.6.1-11.4-3.2-18.2-9.1.2-.6.3-1.1.5-1.6 2.1 2.8 4.8 4.9 8 6.3 1.8 1.9 4.2 3.2 7.4 3.2 1.8 0 3.6-.4 5.4-1.1 1.3-.2 2.6-.5 3.9-1.1-2.1 2.5-4.5 3.3-7 3.4zm26.3-28.9c1-.6 2.1-1.2 3-1.9.1 0 .3.1.5.1.8.2 1.4.4 2 .5-.6.1-1.2.3-1.8.4-1.2.4-2.4.6-3.7.9zm171.4-41.9c-22.4 40.8-93.3 49.8-140 66.2-6.7-18-13.9-40.7-24.9-56.3-14.5-20.5-30.4-53.1-30.3-81.4.1-19.2 6.8-36.1 25.8-47.9 7-4.4 15-6.4 23.4-6.4 30.2-.2 63.7 26.9 64.5 54.7.1 2.2 1.9 3.9 4.1 3.9 0 .3 0 .8.1 1.2.5 2.2 2.7 3.6 4.9 3.1 2.1-.5 3.5-2.6 3.2-4.7.1-.8 1.1-2.1 4.8-3.5 4-1.4 10.1-2.2 16.9-2.2 17-.2 38.6 5.2 44.3 11.5 1.3 1.3 2.3 2.8 3.4 4.2-12.9 4-26.8 7.6-37 11.5-1.5-.6-3.1-.6-4.3.5-5.9 5.7-12.7 13.4-12.8 23.4 0 2.7.5 5.5 1.8 8.3 5.1 11 15 12.1 18.8 16.3.8.8 1.8 1.1 2.8 1.1 1.1 0 2.2-.4 3-1.3.5-.6.6-1.3.8-2 9.1-2.9 20.8-7.9 31.9-12-1.4 4.1-3.1 8-5.2 11.8z"/></svg>