<svg version="1.2" baseProfile="tiny" xmlns="http://www.w3.org/2000/svg" viewBox="0 0 181 194.4"><path fill="#F5F0F1" d="M98.2 178.3c-.8.6-1.6 1.4-2.7 1.5 1.9 1.1 5.6.5 7.4.3-1.6 0-3.3-.2-4.2-1.1-.2-.2-.4-.4-.5-.7zm-44.8-40.2c.2.7.4 1.5 1 2.3.8 1.1 1.9 2.1 3 3-.6-.6-1.2-1.3-1.7-2-.8-1.1-1.6-2.2-2.3-3.3zm8.7 9l.2.2c1.4 1.2 4.8 2.5 6.3 4.2.3-.3.6-.6.9-1-2.6-1-5.1-2-7.4-3.4zm-14.9-18.7c-.1.2-.1.5-.2.7.2.1.3.1.5.2 0-.1-.1-.2-.1-.3-.1-.2-.2-.4-.2-.6zm-28.5 50.7c-.6-.1-1.1-.3-1.6-.5-.1.1-.2.2-.4.2-.4.1-.9.2-1.4.5 0 .2-.1.4-.1.5v.4c0 .2 0 .4-.1.5H15c1 .2 2.2.3 3.5.2-.1-.3-.2-.6-.2-.8.2-.3.2-.7.4-1zm18.2-2.3c-.3 1-.8 2-2 2.7-.7.4-1.7.6-3 .7h-.4c-.5 0-.9 0-1.4-.1v.3c1.4-.1 2.7-.2 4.1-.5 3.7-.7 4.3-2 5.1-5.4.3-1.1.5-2.2.8-3.3-.7.8-1.4 1.5-1.9 2.4-.7 1-1 2.1-1.3 3.2zM23 179.2c-.5.4-1.1 1-1.6 1.6 1.5-.1 2.8-.2 3.5-.3.6 0 1.2-.1 1.8-.1-.1-.3-.2-.6-.2-1-1.2 0-2.3-.2-3.5-.2zm59.2 2.8c-.2.1-.5 0-.7-.3-.1-.1-.1-.2-.2-.3-.4.2-.8.3-1.2.3-.5 0-1.1-.1-1.9-.3-.6-.2-.9-.3-1.1-.3-.2-.1-.3-.1-.7-.1h-.6c-.4 0-.9.1-1.5.2v.1c-.1.3-.3.6-.6.8h.8c2.5 0 5.6.4 8.2-.1 0-.1-.1-.1-.1-.2-.1 0-.2.1-.4.2zM42.6 85c.6-1 1.1-2 1.4-2.9l-.3-.6c-.1-.3 0-.5.2-.7-.2-.3-.4-.5-.5-.8v.4c-.4 2.3-2 4.3-3.2 6.4-1.1 2-3 3.7-3.9 5.8-.5 1.3-.9 2.6-1.3 3.9 1.5-2.5 3.3-4.9 4.7-7.4.9-1 2-2.5 2.9-4.1zm41.5 94.9c-.1 0-.1 0 0 0-.1.2-.1.4-.1.6 0 .4 0 .8-.2 1.1 1.3-.5 2.3-1.6 3.3-2.4-.3.1-.5.2-.9.2-.6.1-1.5.3-2.1.5zm11.2-3.5c-.9.1-1.9.7-3.2 1-.4.1-.8.1-1.1.1-.9 0-1.8-.1-2.5-.1H88c.1.2.2.4.3.7v.4c.5-.3 1.1-.5 1.7-.6 1.6-.2 2.9.7 4.5.8-.1-.9.3-1.7.8-2.3zm-36.8-1.8l.1-.1c-.1-.2-.2-.4-.2-.6 0-.6.4-.9.7-1.3.3-.3.7-.7 1-.9.1 0 .1-.1.2-.1-1.8.5-4 .5-4.4 2.2-.2 1 .2 1.8 1 2.4.1-.2.3-.4.4-.6.5-.3 1-.6 1.2-1zm.9 3c.1 0 .1 0 0 0 .1 0 .1 0 0 0 .1 0 .1 0 0 0zm5.2.7l.2.2v-.2h-.2zm6.3 2.1c-.2-.1-.4-.1-.5-.1-.3 0-.5.1-.8.2-.3.1-.7.3-1.2.2-1 0-1.7-.1-2.4-.5 0 .1.1.1.2.2 1.5 1.4 3.6 1.7 5.7 1.7-.3-.4-.6-1.1-1-1.7zm-6.6-10.3V167c0-1.9.2-4 .5-6 0 .1-.1.2-.1.3-.9 2.7-.9 6.3-1.9 8.7-.1.2-.2.4-.4.6.6-.2 1.2-.4 1.8-.4 0-.1 0-.1.1-.1zm-36.6 9.7c0-.1 0-.1 0 0zm33.1-5.8c.1.3 0 .6-.2.7-.1 0-.1.1-.1.1.2 0 .4.1.5.1h.1c.2 0 .4 0 .6.2.1.2.2.4.1.6-.1.4-.3.8-.4 1.2H63c.5 0 1.1 0 1.6.1v-2c0-.8 0-1.5-.2-2.4-.1-.4-.1-.8-.2-1.3h-.3c-.8 0-2.4.9-3.2 1.4-.3.2-.7.6-1 .9h.3c.5 0 .7.2.8.4zM84 56.5v.2c-.1 3.4-.8 6.6-1.8 9.9-.5 1.8-1.6 3.4-2.5 5 .2.2.2.5.1.7-.3.5-.4 1.1-.5 1.7.9-3.5 3.6-7 5.1-9.9 2.2-4.2 1.5-6.9-.4-9.2.1.5.1 1 0 1.6zM19.7 180.1c0 .2 0 .4.1.5l.3-.3c-.1 0-.2 0-.4-.2.1 0 0 0 0 0zm32.5-142c.1 0 .2.1.3.1 0-.8-.1-1.7-.1-2.5v-1.1c-.1 0-.1 0-.2.1 0 1.1.1 2.2 0 3.4zm44.5 137.2s.1 0 .1-.1c-.1-.4-.2-.8-.2-1.2 0-1.1.5-1.9 1.3-2.5.8-.6 1.7-.9 2.7-1.2 2-.5 4.3-.5 5.6-.5h3.6c2.9 0 5.6-.1 8.5-.6-1-.2-2-.3-2.9-.6-2.6-.9-5.5-2.4-7.7-4.2-1.8-1.4-2.6-3-3.3-4.9-.5-1.2-1.6-2.6-2.1-4.1-.1-.5-.2-.9-.2-1.4 0-1.3.5-2.4 1-3.4.1-.2.1-.3.2-.5 0-.5-.1-.9-.1-1.1-.1.2-.3.4-.5.7-.3.6-.6 1.4-.7 2.2v.1c0 .3-.3.6-.7.6-.3 0-.6-.3-.6-.7v-.4c.2-1.1.4-2.1.6-3-.2.5-.5.9-.7 1.4-.6 1.2-1.3 2.5-2.5 3.4-.2.2-.5.2-.8 0-.2-.2-.3-.5-.2-.7.2-.5.7-2 .7-2.9 0-.3 0-.5-.1-.6-.1-.1-.1-.1-.2-.1h-.1c-.1 0-.3.1-.5.3-.2.2-.5.6-.7 1-.5.9-1 2-1.4 2.9-.3.6-.5 1.2-.8 1.5-.2.2-.4.3-.7.2-.2-.1-.4-.3-.5-.5v-.4.3c0 .3-.3.6-.6.6s-.6-.2-.6-.6v-.7c0-1.3.3-2.6.8-3.8-.1 0-.2.1-.2.2-.3.2-.6.6-.9 1-.7.9-1.4 2-1.9 2.8-.1.2-.2.3-.3.5.1.3 0 .6-.2.8-.1 0-.1.1-.1.2-.1.2-.3.4-.6.4H88s-.1 0-.1-.1c0 .5.1 1 .1 1.6 0 .4 0 .9-.1 1.3-.4 2.2-1.8 4.4-2.8 6.2-1.5 2.5-3 4.4-3 6.1 0 1 .5 2.1 1.9 3.6.1.1.7.5 1.4.9.4.3.9.6 1.3.9.5-.2 1.1-.3 1.6-.3.9 0 1.8.1 2.5.1.3 0 .6 0 .9-.1 1.2-.2 2.4-1 3.8-1 .5.2.9.2 1.2.4zM60.3 72.8c.1-.2.2-.4.3-.5-.1-.1-.1-.2-.1-.3v-.2c-.1.3-.2.7-.2 1zM59.4 176c-.1 0-.2-.1-.2-.2l-.8.8c-.1.1-.2.2-.2.3.3-.1.6-.3.9-.5 0-.2.2-.3.3-.4zm109.2.1c-.9 0-1.9-.1-2.8-.3.5.2.8.5 1.1 1 .1.1.1.3 0 .5.2-.2.3-.4.4-.7 0 0 1.8-.2 1.1-.2 0-.2-.2-.1.2-.3zm-9-1.5c.3 0 .6.1.9.1-.4-.1-.9-.2-1.3-.2-1.8-.3-3.6-.7-5.4-1.3.6.3 1.2.6 1.8.8.7.2 2.3.4 4 .6zm-45.1-58.3c.2.3.3.5.5.7.3.4.6.8.9 1.3.8.9 1.8 1.7 2.4 2.6 1.8 2.3 3.8 3.3 5.8 5.3 2.7 2.7 9.6 7.8 8.5 12.3-.3-.2-.7-.4-1.1-.5 1.1 2.6 1.6 5.5 1.9 8.6.4 4.5-.2 9.2 1.8 12.8 1.2 2.1 2.5 3.8 3.9 5.6 1.3 1.6 2.1 3.6 3.6 4.4 1.6.8 3.7.7 5.7 1.4.8.3 1.5.6 2.2.9h.1c-4.4-1.8-9.9-7.1-11.8-11.4-2.2-4.8-2.2-10.9-2.9-16.3-.7-5.4-.6-11.9-5-15.6-5.7-4.7-13.2-8-17.5-14.3-1.4-2-2-4.1-3.5-6.2-1.4-2-3.1-3.6-4.9-5.2-.7-.6-1.5-1.2-2.3-1.8 4.9 4.5 8 10 11.7 15.4zm-18.9 62.2c.1 0 .2-.1.4-.2-.1 0-.2 0-.3-.1-.1.1-.1.2-.1.3z"/><path fill="#F5F0F1" d="M161.2 176c-2.3-.3-4.7-.4-6-.9-2.5-1-4.7-2.5-7.1-3.3-1.7-.6-3.9-.4-5.9-1.4-2-1.1-2.9-3.3-4-4.7-1.4-1.8-2.8-3.6-4-5.7-2.3-4.1-1.6-9-2-13.3-.3-3.4-.9-6.4-2.2-9.2h-.1c-4.2-1-9 .2-13.1-1.8-2-1-3.4-1.2-4-3.5-.4-1.6.3-3.7.3-5.4 0-4.2-.3-7.7-1.2-11.5-.1-.1-.2-.2-.2-.3-.2-.2-.2-.4-.1-.6-3.5-5.2-6.7-10.2-11.6-14.4-4.5-3.8-10.8-5.3-14.8-10.4-2.2-2.8-3.6-5.8-5.2-8.7-.6-1.1-1.3-2.4-1.6-3.8 0 .1-.1.1-.1.2-.2.3-.4.6-.5.8l-.1.1c0 .1 0 .1-.1.2-.7 1.5-1.2 3.4-2 5.1-.8 1.7-1.9 3.4-3.8 4.3 0 .2-.1.4-.2.5-.7.6-1.3 1.2-2 1.8-.7.6-1.5 1.1-2.7 1.3-.8.1-1.7.2-2.7.2-1.6 0-3.3-.2-4.7-.4-1.3-.2-2.9-.7-4.4-1.2h-.5c-.3 0-.5-.2-.5-.4-1.2-.5-2.2-1-3.1-1.6-.8-.5-2.1-1.3-3.4-2.3-.4 0-.7.1-.8.2-.3.2-.7.1-.9-.2-.2-.3-.1-.7.2-.9.1 0 .1-.1.2-.1-.4-.4-.9-.7-1.2-1.1-.3.8-.8 1.6-1.3 2.4-1 1.6-2 3.1-2.7 4.3-2 3.5-4.6 6.6-6.2 10.1-2.3 4.8-3.4 9.7-3.8 15.1-.2 2.6-.3 5.4-.3 8.2 0 4.8.3 9.6.7 14.2 0 .5.1.9.1 1.4.3.7.6 1.3.9 2 .7 2.3.1 4.6.6 6.9.5 2.8 1.6 5.5 1.9 8.4 1 10.1-8.3 13.5-15.3 17.6-1 .6-1.8 1.2-2.4 1.7-.4.4-.6.7-.7.9v.1c.1 0 .2.1.3.2.1.2.1.3.1.5.2.2.6.3 1 .5.5.2 1 .3 1.5.4 0-.1.1-.1.1-.2.5-.7 1-1.3 1.7-1.6.3-.1.6 0 .8.3.2-.1.4-.1.6 0 .2.1.3.4.3.7-.1.2-.1.5-.2.7.1 0 .3.1.4.1h.2c1.2 0 2.4.1 3.5.3.1-.3.2-.6.3-.8.2-.3.5-.4.8-.3.3.2.4.5.3.8 0 .1-.1.2-.1.4.2 0 .4.1.7.1.2-.3.4-.7.7-1 .2-.2.4-.2.6-.2.2.1.4.3.4.5v.8c.4 0 .9.1 1.3.1h.4c1.2 0 1.9-.2 2.4-.5s.8-.6 1-1.1c.5-1 .7-2.6 1.8-4.3 1.1-1.9 2.8-3.1 3.8-4.7.3-1.2.6-2.4.7-3.7.6-3.6 1.2-7.3 1.9-10.9.4-5.3.6-10.8 1.6-16v-.1c-.2-1.4-.5-2.9-.3-4.3.1-.8.4-1.5.7-2.1v-1c0-.7.3-1.7.7-2.9.2-.7.5-1.4.8-2v-.7c0-.3.3-.6.6-.6.2 0 .3.1.4.2.1 0 .2-.1.4-.1.3 0 .5.1.7.3.2.2.2.6 0 .9-.2.2-.4.2-.7.1-.1.1-.1.2-.2.3v1.1c0 .7.1 1.4.3 2 .5 1.5 2.2 2.8 3.2 4.6 1.4 2.6 3.1 5 4.9 7.4 3.2 4.6 8.5 7 13.7 8.8.7-.8 1.4-1.5 2-2.3 2-2.7 3.4-7.2 3.4-11.1 0-1.5-.2-2.9-.7-4-.1-.3 0-.7.3-.8.3-.1.7 0 .8.3.6 1.3.8 2.9.8 4.5 0 4.1-1.5 8.8-3.6 11.8-1.3 1.7-2.8 3.2-4.1 4.7.4 1.6-.8 1.8-1.8 2.8-.1.2-.2.4-.2.6-1.1 3.2-1.7 7.5-1.7 11v1.9c0 1.2 0 2.4.3 3.5.2.9.2 1.8.2 2.6v2.6c0 .9.2 1.3.5 1.5.2.2.8.4 1.8.4.3 0 .5-.1.8-.2.3-.1.6-.2 1-.2-.2-.4-.4-.7-.6-1-.2-.5-.4-.9-.4-1.4 0-.1 0-.2.1-.4.1-.3.5-.5.8-.3.3.1.4.4.4.7 0 .1.1.4.3.8.2.4.5.9.8 1.5.1.1.2.3.2.4.1 0 .2.1.3.1 0-.1.1-.2.1-.3.1-.7.6-1.5 1.6-1.8.2 0 .4 0 .5.1.1.1.2.3.3.5 0 .4.1.9.1 1.5v.4c.4-.1.8-.1 1.2-.2h.6c.4 0 .7 0 1 .1.3.1.6.2 1.1.3.8.2 1.3.3 1.6.3.2 0 .4 0 .6-.1-.4-.6-.7-1-1.3-1.3-.3-.1-.5-.5-.3-.8.1-.3.5-.5.8-.3.7.3 1.2.7 1.5 1.2 0-.1-.1-.3-.1-.4-.1-.3.1-.6.4-.7.3-.1.6 0 .8.2 0 .1.1.1.1.2.1-.1.2-.2.3-.2.3-.1.6.1.7.3 0 .1.1.2.1.3.2 0 .4-.1.6-.2.7-.2 1.5-.3 2-.5.2 0 .3-.1.4-.1-.1-.2-.4-.4-.7-.6-.6-.4-1.3-.8-1.9-1.2-.4-.2-.7-.4-1-.7-1.6-1.5-2.3-3-2.3-4.5 0-2.4 1.8-4.4 3.2-6.8 1.1-1.8 2.3-3.9 2.6-5.8.1-.4.1-.7.1-1.1 0-.9-.1-2-.1-3 0-.4 0-.8.1-1.3s.2-1 .4-1.4c0-.1.1-.3.2-.3.7-1.5 1.9-2.6 2.9-3.6 1.4-1.5 2.6-2.8 2.6-4.9v-.6c0-.3.2-.7.6-.7.3 0 .6.2.7.6v.7c0 2.6-1.5 4.3-3 5.8-1.1 1.1-2.1 2.1-2.7 3.4 0 .2-.1.3-.2.4-.1.3-.2.6-.2.9-.1.3-.1.7-.1 1.1v.1c.3-.7.8-1.5 1.4-2.4.8-1.2 1.7-2.4 2.4-2.9.2-.2.4-.3.8-.3.2 0 .4.1.6.2.1-.2.2-.4.3-.5.2-.3.6-.4.9-.2.1.1.2.2.2.3.1-.2.3-.4.4-.5.2-.2.4-.3.7-.2.3.1.4.3.4.6v.3c.4-.5 1-1 1.7-1h.3c.5.1.8.4 1 .8.2.4.2.8.2 1.2v.6c.2-.3.3-.6.4-.8.6-1.2 1.2-2.5 2.1-3.5.2-.2.4-.2.7-.2.2.1.4.3.4.5v1.5c.1-.1.3-.1.4-.1.2 0 .5.1.7.3v-.5c0-.3.2-.7.5-.7s.7.2.7.5v.6c0 1-.3 1.8-.7 2.6v.3c0 .2-.2.5-.4.6-.5 1-.8 1.9-.8 2.8 0 .3 0 .7.2 1 .3 1.1 1.5 2.5 2.1 4 .8 1.9 1.4 3.2 3 4.4 2.1 1.7 4.8 3.1 7.3 4 .7.2 1.7.4 2.7.5 1 .2 1.9.3 2.7.8.2.1.3.4.3.6 0 .2-.2.5-.5.5-4 1-7.5 1.1-11.2 1.1h-3.6c-1.9 0-6 .1-7.6 1.4-.5.4-.8.9-.8 1.5 0 .3.1.6.2 1h.1c.2-.1.5-.1.7.1.1.1.1.2.2.3.4.1.8.1 1.3.1h.7c.3 0 .6.2.6.6 0 .3-.2.6-.6.7h-.3c-.2 0-.4.1-.6.2 0 .1 0 .1-.1.2-.1.2-.4.3-.6.3 0 .1-.1.3-.1.4 0 .2.1.3.2.5.1.1.4.3.7.4.7.2 1.7.3 2.8.3 1.9 0 3.9-.3 4.6-.3 5.9 0 12 .1 17.7.9 1.1.1 2.8.3 4.6.3 1.6 0 3.3-.1 4.6-.6 1.1-.3 1.9-.8 2.4-1.5 0-.2.1-.3.3-.4 0 0 0-.1.1-.1.1-.2.1-.4.1-.6 0-.4-.3-.9-.7-1.4-.4-.6-1-1.2-1.2-2.1-.1-.3-.1-.6-.1-.8 0-1.9 1.2-3.4 1.1-4.7v-.2c0-.3.2-.6.6-.7.3 0 .6.2.7.6v.3c0 1.9-1.2 3.4-1.1 4.7 0 .2 0 .4.1.6.1.5.5 1 1 1.6.4.6 1 1.3 1 2.2v.2c.5-.1.9-.1 1.4-.1 1.3 0 2.6.2 3.7.2h.3c1.4 0 2.7-.4 4.3-.5h1.2c2.7 0 5.3.5 7.9.8.9.1 1.8.1 2.8.1 1.6 0 3.3-.1 4.7-.5-.2-.1-.5-.2-.7-.3-1.4-1.1-2.4-1.3-3.6-1.4zm-51.9-.1c-.1.3-.4.5-.7.4h-.8c-.2.3-.4.6-.8.8h-.1c-.4.5-.9 1-1.7 1.2h-.1c-.1 0-.2 0-.3-.1-.1-.1-.2-.2-.3-.4v-.1l-.1-.1c-.1-.2-.1-.5 0-.7 0-.1.1-.1.1-.2.1-.8.4-1.7.8-2.2.2-.2.4-.5.8-.6.3-.1.7.2.7.5.1.3-.1.6-.4.7l-.1.1s-.1.1-.1.2c.1-.1.3-.1.4-.2.4-.5.8-1.2 1.1-1.7.2-.3.5-.4.8-.2.3.2.4.5.3.8-.1.2-.2.5-.3.8.2 0 .4.1.6.2.2.2.3.5.2.8z"/><path fill="#F5F0F1" d="M79 60.3c-1.3.7-2.7 1.1-4.2 1.2h-.1c-1.4 0-2.7-.6-3.8-1.4-2-.7-3.7-2.2-4.7-4.9-.4-1.2-.8-2.4-1.2-3.5-2.2-5-3.3-10.4-4.1-15.6-.6-.7-1.3-1.2-2.1-1.6 0 0-.1 0-.1-.1-.1-.1-.2-.1-.3-.2-.3-.2-.6-.3-.9-.5-.1.2-.2.5-.2.7h-.8c0 .2-.1.3-.3.4-.2.1-.4.1-.6 0-.2-.1-.5-.3-.7-.4-.4 0-.7 0-1.1.1-.1.4-.1.9-.1 1.4 0 1 .1 2 .1 3v.5c0 .2-.1.4-.3.5-.2.1-.4.1-.6.1-.5-.2-.9-.4-1.3-.6 1 2.5 3.2 4.7 4.6 7.3 1.2 2.4 1.9 4.6 1.9 7.2 0 1-.1 2-.3 3.1-.5 2.3-1.3 4.4-2 6.6-.4 1.5-.8 3-1.1 4.6v.6c0 .8-.1 1.8-.2 2.9.2-.7.6-1.4 1-2 .2-.3.6-.3.9-.1.3.2.3.6.1.9-.7 1-1.2 2.8-1.2 4.6 0 .6.1 1.2.2 1.9.1.1.2.1.2.2.3.2.4.6.2.9 0 .1-.1.1-.2.2.1.2.2.5.3.7.1.1.2.3.3.4.1.1.1.2.2.3.1 0 .1-.1.2-.1.2-.1.4-.1.6-.1h.4c.3.1.6.4.5.7v.1c.6.5 1.1.9 1.6 1.3.7.5 1.4.9 2.5.9h.3c1.1-.1 2.3-.4 3.2-.9.2-.2.5-.3.7-.5.1-.2.3-.3.4-.5.2-.4.4-.8.4-1.3v-.2H67c-1.4 0-3.1-.2-4.5-.8-1.4-.6-2.6-1.7-3.1-3.4-.1-.5-.2-1-.2-1.5 0-1.6.7-2.9 1.8-3.7 1.1-.9 2.5-1.3 4-1.3h.7c1.6.1 3.1.5 4.3 1.2 1.2.7 2 2 2 3.7 0 .3 0 .7-.1 1-.1.4-.1.8-.2 1.2v.8c0 .3-.3.6-.6.6H71c-.3.4-.6.8-1 1l-.6.3c.3.1.6.2.8.3.7.3 1.2.5 1.9.5h.2c.4 0 1.2-.4 2-.9.7-.5 1.4-1 1.7-1.2l.2-.2h.3c.1-1.1.4-2.1.8-3.1-.4-3.4-1.2-5.8-3.4-8.5-.2-.3-.2-.7.1-.9.3-.2.7-.2.9.1 2 2.4 3 4.6 3.5 7.3 0-.1.1-.1.1-.2 1-1.8 2.1-3.4 2.6-5.1.7-2.3 1.3-4.6 1.6-6.9-1.1.5-2.3.7-3.7.9zM44.3 78.4c.2.4.3.4.6.7.3.2.7.8.7 1.5v.2c.8.8 1.9 1.6 3.1 2.3 1.4.8 3 1.5 4.3 2 .3.1.5.2.7.2.3.1.5.2.8.3 2.2.6 4.2 1 6.2 1 .8 0 1.7-.1 2.5-.3-1.7-1-3.3-2.3-4.7-3.2h-.1c-.7 0-1.2-.5-1.6-1-.3-.3-.5-.7-.8-1-.5-.5-.9-1.2-1.2-1.9-.7-1-1.3-2-1.8-2.2-2.1-1.5-4.8-2.4-6.8-4.5-1.4-1.5-2.3-3.4-3.1-5.2 0 .5-.1 1-.1 1.4 0 2.5.6 5 .9 7.7.1 1 0 1.3.4 2z"/><path fill="#F5F0F1" d="M66.4 72.4l.1.1.1-.1h-.2zm-5.5 2.7V75v.1zm77.4 103.2c-.7 1.1-1.9 1.8-3.2 2.2-1.5.5-3.3.6-5 .6-1.9 0-3.6-.2-4.8-.3-5.7-.8-11.7-.8-17.6-.8h-.2c2.3 0 4.4.2 7 .5 3.1.4 6.3.4 9.4.9 2.8.4 6.8 1.1 9.4.4 1.9-.5 3.1-1.9 4.9-2.5 1.6-.6 3.5-.8 5.3-1-1.1 0-2.3-.2-3.3-.2-.7-.1-1.4 0-1.9.2zm-74-101.2c.1-.1.2-.1.4-.1 0-.3.2-.5.4-.6.1 0 .2-.1.3-.1.1-.1.1-.3.2-.4-.1-.2-.3-.5-.6-.8-.4-.4-.9-.6-1.2-.6h-.3c-1 0-1.4.5-1.4 1 0 .2.1.5.3.8.1 0 .2 0 .3-.1.3-.1.7.2.7.5v.2c.3.1.6.2.9.2zm3.6 6.6l-.1.1h.3c-.1-.1-.2-.1-.2-.1zM70 71.6c-.2-.2-.5-.3-.9-.5.1.1.1.2.2.2.2.1.4.2.6.4.1.1.3.2.4.3.2.2.3.4.2.6v.4s.1 0 .1.1V73c0-.5-.1-.9-.2-1.2h-.1c-.1-.1-.2-.1-.3-.2zm-1.5 2.1c-.1.1-.1.2-.1.4 0 0 0-.1.1-.1.2-.3.4-.5.7-.7-.5.1-.6.2-.7.4zm-7.8 14.1c-.5 0-1 0-1.5-.1-.1.1-.2.2-.4.2h-.1c.9.1 1.8.2 2.7.2h1.7c.7-.1 1.4-.1 2.2-.2h1c.1 0 .3.1.4.1.1-.1.2-.2.3-.2-.7-.2-1.3-.4-2-.7-1.6.5-2.9.7-4.3.7zm8.7.3h-.9c0 .1 0 .3-.1.4-.3.4-.7.8-1.1 1.1.5-.2.9-.5 1.4-.8.1-.2.4-.4.7-.7z"/><path fill="#F5F0F1" d="M74.3 82.7c.7-1.5 1.2-3.2 1.9-4.7l-.9.6v.1c.1.2.1.3 0 .5s-.2.4-.4.5c-1.1 2.4-3.5 4.5-6 5.1-.5.1-1 .2-1.5.2-1.7 0-3.5-.5-5-.9.9.6 1.8 1.2 2.7 1.6.1 0 .3-.1.4-.2h.4c.1 0 .2 0 .4.2.1.1.2.3.2.5v.2c.9.3 1.7.5 2.5.5.7 0 1.5-.1 2.2-.5 1.4-.7 2.3-2.1 3.1-3.7zM51 86.1c.7.2 1.5.3 2.3.4-.2-.1-.5-.1-.7-.2-.8-.2-1.8-.5-2.8-.7.3.2.6.4.8.6.2-.1.3-.2.4-.1z"/><path fill="#F5F0F1" d="M65.9 83.7c-.3-.2-.3-.6-.1-.8.1-.1.1-.2.2-.3-.5.4-1.1.7-1.8.7h-.1c.6.2 1.2.3 1.8.4zm.8.1s-.1 0 0 0c-.1 0-.1 0 0 0-.1 0-.1 0 0 0zm-18.9.3c0-.1-.1-.1-.3-.2h.1l.2.2zM70.3 75c-.1-.5-.2-.8-.3-.8 0 0-.1 0-.2.1s-.3.2-.4.4c-.3.4-.4.9-.4 1.3 0 .3.1.4.2.5.5-.3.8-.7 1.1-1.5zm7.7.4v-.3c0 .1-.1.2-.1.4 0-.1.1-.1.1-.1zm79.4 103c-2.6-.3-5.2-.8-7.7-.8h-1.1c-1.1.1-2.1.3-3.3.4h5.4c4.6 0 10.3 1.8 14.5.2.4-.2.9-.3 1.2-.5-1.8.6-4 .8-6 .8-1.1.1-2.1 0-3-.1zM46.7 68.1c-.9-.9-1.9-1.7-2.9-2.6.8 2.2 1.7 4.3 3.2 6 1.7 1.8 4.1 2.7 6.3 4.2l-.3-1.8c-2.2-1.2-4.6-4.1-6.3-5.8zm15.8 3.8h.3c-.1 0-.1-.1-.2-.1 0 0 0 .1-.1.1zm-.8 1.6c0 .1 0 .2-.1.5l.1-.1c.5-.4 1.1-.6 1.9-.6h.4c.2 0 .3.1.5.1-.3-.1-.7-.2-1.1-.2-.3 0-.6 0-.8.1-.6 0-.9.1-.9.2z"/><path fill="#B5733C" d="M42.8 39.6c-.6.6-.9 1.3-1 2.4 0 .3-.2.5-.5.5.8 3.1 1.7 6 2.1 9.2v.3c1.4-1.4 2.9-2.7 5.2-2.7.5 0 1.1.1 1.7.2.5.1 1.1.4 1.7.7-.1-.1-.1-.1-.1-.2-.1-.4-.5-.8-1-1.2-.5-.3-1.1-.5-1.4-.5h-.3c-.3.1-.7 0-.8-.4-.1-.3 0-.7.4-.8.2-.1.5-.1.7-.1.3 0 .6 0 .8.1-.1-.2 0-.5.2-.7.2-.2.5-.2.7-.1.3.2.6.3.8.5-.1-.1-.2-.3-.3-.5-.1-.2-.1-.5.1-.7.2-.2.5-.3.7-.1.7.3 1.5.7 2.3 1-1.4-2.6-4-5-4.8-8.4 0-.2 0-.4.2-.6.2-.2.4-.2.6-.2.5.1 1 .3 1.4.5 0-1.2 0-2.3.1-3.5.1 0 .1 0 .2-.1 0-.6.1-1.2.3-1.8.1-.3.4-.5.7-.4.8.1 1.4.5 1.9.8.1-.3.1-.5.1-.7V32c0-.3.2-.6.5-.7h.3c1 0 1.8.6 2.3 1.1v-.1c0-.2.2-.4.4-.5.2-.1.5 0 .6.1.6.6.9 1.2 1.3 1.8.1 0 .2-.1.2-.1.3 0 .7.2.7.5.9 6.6 2.3 13.5 5.5 19.4 1.5 2.7 4.3 6.4 7.2 6.3h.1c3.1 0 5.7-2.2 8-4.4 0-2.7-1.3-5.2-1.9-7.8-.2 0-.3 0-.5-.1-.5-.3-1.5-.8-2.5-1.3-.2 1.4-.6 3.6-2.5 4.5-.6.3-1.2.4-1.8.4-1.3 0-2.7-.4-3.6-1.1l-.3 1.2c-.1.3-.3.4-.6.4h-.2c-.3-.1-.5-.5-.4-.8.3-1 .6-2.2 1.1-3.4-.1-.1 0-.3 0-.5.1-.1.2-.3.3-.3.7-1.4 1.8-2.6 3.7-2.8h.4c.8 0 1.8.3 2.8.6-.5-.5-1-1.2-1.5-1.8-1-1.5-1.9-3-2.2-4-.4-1.1-.5-2.3-.5-3.5 0-1.3.1-2.5.1-3.7 0-.5 0-1-.1-1.5 0-.4-.1-.7-.2-1.1-5.2.3-11.3.2-16.5 1.3-3 .7-7.1 1.5-9.1 3.7-.8.8-.9 2-1.9 3.2-.6 1.4-1.3 2-1.9 2.6zm28.4.7c.2.2.2.6 0 .8-.2.3-.5.5-.7.8.1 0 .1 0 .2.1.3.2.4.5.2.8-.3.6-.6 1.1-.9 1.6.2.2.3.5.1.7-.1.2-.3.3-.6.3h-.3c-.1 0-.3-.1-.5-.2-.2.2-.5.2-.7.1l-.3-.3c-.2.2-.4.3-.7.2-.3-.1-.5-.5-.4-.8.7-1.8 2.1-3.3 3.8-4.3.3-.1.6 0 .8.2z"/><path fill="#B5733C" d="M42.3 52.9c0-.3 0-.7-.1-1-.5-3.5-1.6-6.9-2.4-10.4-.2-.9-.5-2.5-.5-3.9 0-.6.1-1.2.3-1.8.3-.8.7-1.4 1.3-1.7.6-.3 1.2-.4 1.7-.4.6 0 1.2.1 1.7.1h.9c-1.2-1.1-2.3-1.5-3.4-1.5-1.8 0-3.7 1.2-5.6 2.7-1.9 1.5-3.7 3.4-5.4 4.6-1.4.9-3 1.6-4.2 2.6-1.2.9-2 2-2 3.6v.5c.2 2.5 2.4 6.1 4.2 8 1.4 1.5 3.7 3.2 5.9 3.9 1.3 0 2.6 0 3.7.1 2.5-.8 3.9-3 3.9-5.4zm-.7 5.5c0 1.9 1.4 4.7 2.1 6.6.1.2.1.4.2.5 1 .9 2 1.7 2.9 2.6 1.7 1.7 4.1 4.6 6.4 5.8v-1.1c0-1.7.2-3.3.2-4.3.2-4.2 2.4-8.1 3.2-12 .2-1 .3-2 .3-2.9 0-1.8-.4-3.5-1.1-5.2-.1 0-.2 0-.3-.1-.3-.2-.6-.3-.9-.5l.2.2c.2.2.2.5.1.7-.1.2-.4.4-.7.3-.2 0-.5-.1-.7-.2v.2c0 .3-.1.7-.3 1-.1.2-.3.3-.5.3h-.2c.6.3 1.1.7 1.7 1.2 1.2 1 2.3 2.1 2.6 3.4.1.3-.1.7-.5.7h-.1c-.3 0-.5-.2-.6-.5 0-.2-.1-.4-.2-.6-1.3 1.1-2.5 1.8-4.2 1.8-.5 0-1-.1-1.5-.2-.9-.2-2.1-.6-3-1.3-.9-.6-1.6-1.4-1.9-2.4-.1.1-.2.2-.4.3v.3c0 .3-.3.6-.7.6h-.2c-.2 1.5-.9 2.9-1.9 3.9v.9z"/><path fill="#B5733C" d="M43.9 36.7c.4-.5.6-1 .9-1.6h-.5c-.7-.1-1.3-.1-1.8-.1s-.8.1-1.1.2c-.3.2-.5.4-.8 1.1-.1.3-.2.8-.2 1.3 0 .9.2 2 .3 2.9.2-.7.6-1.2 1-1.7.8-.8 1.6-1.3 2.2-2.1zm-16 18.5c-2-2.2-4.2-5.7-4.6-8.8v-.7c0-1.2.4-2.1.9-3l-1.6.6c0 5.3 1.1 11.1 6.2 14.1.8.4 1.8.6 2.9.7-1.5-.8-2.8-1.9-3.8-2.9zM46.2 33c.6-.6 1.3-1 2-1.4-.2 0-.5.1-.7.1-2.1.3-2.9-1.2-4.9-1.4-1.4-.1-2.9.6-4.3 1.7 1.1-.6 2.2-1 3.5-1 1.5 0 2.9.7 4.4 2z"/><path fill="#B5733C" d="M25.8 41.1c1.4-1 3-1.8 4.3-2.6.4-.3.9-.6 1.3-1-2.7 1.4-6.2 2.7-7.7 5.3h.5c.4-.7 1-1.2 1.6-1.7zm14.5 17.8s0-.1 0 0c0-.1 0-.1 0 0zm14.2-5.2c-.3-.4-.7-.8-1.2-1.1 0 .3.1.6.1.8 0 .4 0 .8-.1 1.1.4-.1.8-.4 1.2-.8zm-8.9-1.9c.1.1.1.2.1.3.1.7.7 1.4 1.5 1.9.4.3.8.5 1.3.7-.1-.1-.2-.3-.3-.5-.2-.4-.4-.8-.5-1.3-.2-.4-.3-.7-.3-1.1v-.5l-.1-.1c-.1-.1-.1-.3-.1-.5-.5.3-1 .7-1.6 1.1zm3.5-1.2zM54.7 68c.3-1.5.7-3.1 1.1-4.6-.6 1.5-1 3.1-1.1 4.6zM51 54.5c.3 0 .7 0 1-.1v-.9c-.6.2-1.6.6-2.4.6.4.3.8.4 1.4.4zm6.3-20.2c0-.2.1-.5.2-.7.3.2.6.3.9.5-.6-.4-1.2-.9-1.7-1.1-.1.5-.2.8-.2 1.1v.2h.8zm-2.5 0c-.3-.2-.7-.4-1-.6 0 .2-.1.4-.1.6h1.1zm-4.7 16.5c-.3-.1-.5-.1-.8-.1.2 0 .3.1.4.2.3.4.4.8.5 1.1.1 0 .2.1.3.2.1.2.1.3.1.4v.1c.4-.1.7-.2 1.1-.3v-.5c0-.1 0-.2.1-.3-.7-.4-1.3-.7-1.7-.8zm28.8-26.4c-1.2-.4-2.3-1-3.4-1.5-.1-.1-.3-.1-.4-.2.7.4 1.3.8 2 1.2.7.3 1.3.4 1.8.5zM92 30.5v.8c0 3.5-2.6 7.3-4.3 9.6-.7 1-2 2.3-3.5 3.4-.8.6-1.7 1.2-2.6 1.5.1.1.1.2.1.3.1 1.2.6 2.5 1.1 3.9 0-.2-.1-.4-.1-.5-.2-2.8.9-3.4 3.1-4.7 2.6-1.6 4.7-3.1 6.5-5.6 2-2.8 2.7-5.2 1.8-8.8-.8-3.4-3.9-7-7.7-6.7-1.1.1-2.2.5-3.2.7 1.5.2 3.4.8 5 1.7 1.9 1 3.5 2.5 3.8 4.4zm-26.9-2.4v-1.8c0-1.1.2-2.2 1.1-3.2 1.1-1.2 2.7-1.4 4.2-1.4.7 0 1.4.1 2 .1.4 0 .7.1 1 .2-2.2-.7-3.9-.6-6.9-.2-.8 1.6-1.9 2-2.4 3.8-.4 1.1-.1 2-.7 2.8.6 0 1.2-.1 1.9-.1-.2-.1-.2-.2-.2-.2z"/><path fill="#B5733C" d="M71.8 28c-.7-1.3-1.8-2.4-3.3-3.6-.3-.2-.3-.6-.1-.9.2-.3.6-.3.9-.1 1.6 1.3 3.1 2.7 3.8 4.5.3 0 .6.3.6.6 0 .2-.1.4-.2.5.1.4.2.7.2 1.1.1.6.1 1.1.1 1.7 0 1.3-.1 2.5-.1 3.7 0 1.1.1 2.2.4 3.1.3.8 1.1 2.3 2.1 3.7.9 1.4 2.2 2.5 2.8 2.6.2 0 .4.1.6.1 1.1 0 2.6-.7 4-1.7s2.6-2.3 3.2-3.1c1.7-2.2 4.1-6 4.1-8.9v-.6c-.1-1.2-1.4-2.5-3.2-3.5-1.7-1-3.8-1.6-5.2-1.6h-.1c-.9 0-1.8.1-2.7.1-.9 0-1.9-.1-3-.7-1.8-.9-2.6-1.8-4.4-2-.6-.1-1.2-.1-1.8-.1-1.3 0-2.6.3-3.3 1-.6.7-.7 1.4-.8 2.4v1.9c1.8-.1 3.7-.1 5.4-.2zm2.9 18.3c.1.2.1.5.1.8 0 .6-.2 1.1-.6 1.6.4-.2.7-.9.7-1.6 0-.3 0-.5-.1-.7 0-.1-.1-.1-.1-.1z"/><path fill="#B5733C" d="M76.2 47c0 1.1-.4 2.4-1.6 2.8-.3.2-.5.2-.8.2-.9 0-1.6-.4-2.4-.8-.4-.2-.7-.4-1.1-.6-.1.2-.1.3-.2.5.6.6 2 1.2 3.2 1.2.5 0 1-.1 1.3-.2 1.3-.6 1.7-2.5 1.9-3.9-.2-.1-.4-.2-.7-.2.3.3.4.7.4 1zm4.3-.4c0-.1 0-.3-.1-.4v-.1c-.2 0-.4.1-.7.1.4.1.6.3.8.4zM70.9 60c-2-1.5-3.5-3.8-4.5-5.6-.5-.9-1-1.9-1.4-2.9.4 1.2.8 2.4 1.2 3.5 1 2.8 2.7 4.3 4.7 5zm-10-24.1v-.2c-.1 0-.1-.1-.2-.1-.5-.5-.8-1.1-1.2-1.6-.1.1-.1.2-.3.2-.1.1-.3.1-.5 0 .9.6 1.6 1.1 2.2 1.7zm10.7 11c.4 0 .9.1 1.3.3v-.8c0-.2.1-.4.2-.5-.1-.1-.1-.2-.2-.3-.7.2-1.3.7-1.7 1.3h.4zm12.4 9v.5c.1-.6.1-1.1 0-1.6 0-.3-.1-.5-.1-.8 0 .7.1 1.3.1 1.9zm-1.3 1.6c-1.1 1-2.3 2-3.7 2.7 1.4-.2 2.6-.4 3.5-1.1.1-.4.1-1 .2-1.6zm30.1 74.5c.5 2.3 1.9 2.5 4 3.5 4.1 2.1 8.8.9 13.1 1.8-.1 0-.1-.1-.2-.1-1.3-1.8-3.3-2.1-5.6-2.4-2.3-.3-4.8-.4-6.7-2.3-2.5-2.6-2.3-6.4-2.8-9.2-.2-1-.6-2.9-1.1-4.6-.4-1.5-1-2.9-1.5-3.6.9 3.8 1.2 7.3 1.2 11.5-.1 1.7-.7 3.8-.4 5.4zm1.7-15.7zm9.6 9.7c-2-2-4-3-5.8-5.3-.7-.8-1.6-1.7-2.4-2.6 1.3 1.9 2.5 3.7 3.7 5.5 1.8 2.5 4.1 4.2 6.4 6.3 2.6 2.3 4.3 4.9 5.5 7.8.4.1.7.3 1.1.5 1.1-4.4-5.9-9.5-8.5-12.2z"/><path fill="#B5733C" d="M115.8 123.1c.6 3.1.4 6.5 2.5 8.5 1.5 1.5 3.6 1.7 6 2 1.4.2 2.8.4 4.1.9-.9-1.2-1.9-2.4-3.1-3.5-2.3-2.1-4.7-3.9-6.6-6.5-1.3-1.8-2.5-3.7-3.8-5.5.3 1.5.7 3.1.9 4.1z"/><path fill="#412C28" d="M66.6 44.4c-.1.3 0 .7.4.8.3.1.5 0 .7-.2 0 .1.1.3.3.3.2.1.5.1.7-.1.1.1.4.2.5.2h.3c.2 0 .4-.1.6-.3.1-.3.1-.5-.1-.7.3-.5.7-1 .9-1.6.1-.3 0-.6-.2-.8-.1 0-.1-.1-.2-.1.2-.3.5-.5.7-.8.2-.2.2-.6 0-.8-.2-.2-.5-.3-.8-.2-1.7 1.1-3.1 2.5-3.8 4.3z"/><path fill="#412C28" d="M166.9 176.8c-.3-.4-.6-.8-1.1-1-.3-.2-.7-.3-1.1-.5-1.2-.4-2.7-.5-4.1-.7-.3 0-.6-.1-.9-.1-1.7-.2-3.3-.4-4-.6-.6-.2-1.2-.5-1.8-.8-1-.5-2.1-1.1-3.2-1.6-.7-.3-1.4-.6-2.2-.9-2-.7-4.2-.5-5.7-1.4-1.5-.8-2.4-2.8-3.6-4.4-1.4-1.8-2.8-3.5-3.9-5.6-2-3.6-1.4-8.3-1.8-12.8-.3-3.1-.8-5.9-1.9-8.6-1.1-2.9-2.9-5.5-5.5-7.8-2.4-2.1-4.7-3.8-6.4-6.3-1.3-1.8-2.5-3.6-3.7-5.5-.3-.4-.6-.8-.9-1.3-.1-.2-.3-.4-.4-.6l-.1-.1c-3.7-5.4-6.8-10.9-11.6-15.5-.7-.7-1.4-1.3-2.1-1.9-4.8-4-11-5.6-14.6-10.2C84 85.9 82.7 83 81 80c-.9-1.6-1.8-3.6-1.8-5.4v-.7c.1-.6.2-1.1.5-1.7.1-.2.1-.5-.1-.7.9-1.6 2-3.3 2.5-5 1-3.2 1.7-6.5 1.8-9.9v-.7c0-.6-.1-1.2-.2-1.8-.2-1.5-.7-2.8-1.1-4.1-.5-1.4-.9-2.7-1.1-3.9 0-.1-.1-.2-.1-.3.9-.4 1.8-.9 2.6-1.5 1.5-1.1 2.8-2.4 3.5-3.4 1.7-2.3 4.3-6.2 4.3-9.6v-.8c-.3-1.9-1.9-3.4-3.8-4.5-1.6-.9-3.5-1.5-5-1.7-.3 0-.5 0-.8-.1h-.1c-1 0-1.9.1-2.7.1h-.7c-.6-.1-1.1-.2-1.7-.5-.7-.4-1.4-.8-2-1.2-.5-.3-1.1-.6-1.8-.8-.3-.1-.6-.1-1-.2-.6-.1-1.3-.1-2-.1-1.5 0-3.1.2-4.2 1.4-.9 1-1.1 2.2-1.1 3.2v2c-.6 0-1.2.1-1.9.1-2.6.2-5.3.4-7.7 1-2.1.5-5 1-7.3 2.3-.7.4-1.4.9-2 1.4-1.4-1.4-2.9-2-4.4-2-1.2 0-2.4.4-3.5 1-1 .5-2 1.3-2.9 2-1.4 1.2-2.8 2.4-4 3.5-.5.4-.9.7-1.3 1-1.2.8-2.9 1.6-4.3 2.6-.6.5-1.2 1-1.6 1.6-.6.8-.9 1.8-.9 3v.7c.3 3 2.6 6.6 4.6 8.8 1 1 2.3 2.1 3.8 3 1.6 1 3.4 1.7 5.2 1.7.4 0 .9 0 1.3-.2.8-.2 1.5-.5 2.1-.9h.1v.1c.2 2 1.3 4.3 1.9 6-.4 1.3-.5 2.5-.5 3.7 0 2.7.6 5.2.9 7.8.1.9 0 1.5.5 2.5.1.1.1.3.2.4 0 .1-.1.3 0 .4 0 .1.1.2.2.4.1.3.3.5.5.8-.2.1-.3.4-.2.7l.3.6c-.3.9-.8 1.9-1.4 2.9-.9 1.5-2 3.1-2.7 4.3-1.4 2.5-3.2 4.8-4.7 7.4-.5.9-1.1 1.8-1.5 2.8-2.4 5-3.5 10.1-3.9 15.5-.2 2.7-.3 5.5-.3 8.3 0 4.8.3 9.7.7 14.3.7 7.7 2.5 14.7 2.5 22.4v.4c0 1.6-.7 3-1.8 4.3-1.7 2-4.5 3.7-7.2 5.2-2.8 1.6-5.5 3-7.3 4.6-.6.6-1 1.1-1.1 1.7-1.2.7-1.8 2.2-1.8 3.5 0 .2 0 .5.1.7.1.3.3.5.5.5h.9c.2 0 .3-.1.4-.2h.1c.1-.1.2-.3.1-.5v-.4c0-.2 0-.4.1-.5.4-.2.9-.4 1.4-.5.1 0 .3-.1.4-.2.5.2 1 .3 1.6.5-.1.3-.2.7-.2 1 0 .3 0 .6.2.8.2.4.6.8 1.2 1h.2c.1 0 .3 0 .4-.1.4-.3.7-.6 1-1 .6-.6 1.1-1.2 1.6-1.6 1.1 0 2.3.1 3.4.3 0 .3.1.7.2 1 .2.4.4.7.8.9.1.1.2.1.3.1.2 0 .4-.1.5-.2.2-.2.3-.4.4-.6 0 .1.1.2.2.3.2.1.5.2.7 0 .3-.1.5-.4.6-.7v-.3c.4 0 .9.1 1.4.1h.4c1.3 0 2.2-.2 3-.7 1.1-.6 1.6-1.7 2-2.7.4-1 .6-2.1 1.3-3.3.5-.8 1.2-1.6 1.9-2.4.8-.8 1.5-1.7 2.1-2.8 1.1-2.2 1-4.2 1.5-6.2 1.7-8.1 1.2-16.5 2.8-24.3.4-1.9.4-3.8.4-5.7v-2c0-.2.1-.5.2-1 0-.2.1-.4.2-.7 0 .2.1.4.2.6 0 .1.1.2.1.3.8 1.8 2.5 3.1 3.2 4.5.8 1.5 1.8 2.9 2.7 4.3.7 1.1 1.5 2.2 2.3 3.2.5.7 1.1 1.4 1.7 2 1.4 1.5 3 2.7 4.7 3.7 2.3 1.4 4.9 2.5 7.4 3.4-.3.3-.6.6-.9 1-1 1.2-2 2.5-2.5 4.1-.6 1.7-1 3.5-1.3 5.5-.3 2-.5 4.1-.5 6v3.1h-.2c-.6 0-1.2.2-1.8.4-.8.3-1.5.8-2 1.1-.1 0-.1.1-.2.1-.3.2-.7.5-1 .9-.3.4-.7.7-.7 1.3 0 .2.1.4.2.6l-.1.1-1.1 1.1c-.2.2-.3.4-.4.6-.2.3-.4.7-.4 1.2 0 .3.2.6.5.6.2 0 .4.1.6.1.7 0 1.3-.3 1.8-.7 0 .3.2.5.5.6h3c.6 0 1.1 0 1.5.1.1 0 .1 0 .2.1v.2c.1.6.4 1.1.8 1.5.1.1.2.1.3.2.6.4 1.4.5 2.4.5.5 0 .9-.1 1.2-.2.3-.1.5-.2.8-.2.2 0 .4 0 .5.1.4.7.7 1.3.9 1.7 0 .1.1.2.1.2.1.3.3.5.6.5s.5-.2.6-.4c.2 0 .5-.1.7-.3.3-.2.5-.5.6-.8v-.1c.6-.1 1-.2 1.5-.2h.6c.4 0 .5 0 .7.1.2.1.5.2 1.1.3.8.2 1.4.3 1.9.3.4 0 .8-.1 1.2-.3.1.1.1.2.2.3.1.2.4.3.7.3.2 0 .3-.1.4-.3 0 .1.1.2.1.2.1.1.3.2.4.3h.1c.3 0 .5-.2.6-.4 0-.1 0-.1.1-.2.1-.4.2-.7.2-1.1v-.5h.1c.7-.2 1.5-.3 2.3-.5.3-.1.6-.2.9-.2h.1c.1-.1.3-.1.4-.2l.4-.4v-.4c0-.3-.1-.5-.3-.7h.5c.7 0 1.6.1 2.5.1.4 0 .8 0 1.1-.1 1.3-.3 2.3-.9 3.2-1-.5.6-.9 1.4-.9 2.2v.7c0 .3.3.5.6.5h.6c1.1-.2 1.9-.9 2.7-1.5.1.3.2.6.5.8 1 .9 2.6 1.1 4.2 1.1h.2c1.8 0 3.7-.2 4.4-.3h.2c5.9 0 11.9.1 17.6.8 1.1.2 2.9.3 4.8.3 1.7 0 3.4-.1 5-.6 1.3-.4 2.5-1.1 3.2-2.2.6-.2 1.2-.3 1.9-.3 1.1 0 2.2.2 3.3.2h.7c.4 0 .7 0 1-.1 1.2-.1 2.2-.4 3.3-.4h1.1c2.5 0 5.1.5 7.7.8.9.1 1.9.1 2.9.1 2.1 0 4.2-.2 6-.8.1 0 .1 0 .2-.1.2-.1.3-.2.4-.4-.4-.2-.5-.4-.5-.5zM125.2 131c1.2 1.1 2.3 2.3 3.1 3.5-1.3-.6-2.7-.8-4.1-.9-2.3-.3-4.5-.5-6-2-2.1-2-1.9-5.4-2.5-8.5-.2-1-.5-2.6-1-4.2 1.3 1.9 2.5 3.7 3.8 5.5 2 2.7 4.4 4.5 6.7 6.6zM78 75.4h-.1c0-.1.1-.2.1-.4v.4zM41.6 57.8c1-1.1 1.7-2.4 1.9-3.9h.2c.3 0 .6-.3.7-.6V53c.1-.1.2-.2.4-.3.3 1 1.1 1.8 1.9 2.4 1 .7 2.1 1.1 3 1.3.5.1 1 .2 1.5.2 1.7 0 2.9-.8 4.2-1.8.1.2.2.4.2.6.1.3.3.5.6.5h.1c.3-.1.6-.4.5-.7-.3-1.3-1.4-2.4-2.6-3.4-.5-.4-1.1-.8-1.7-1.2h.2c.2 0 .4-.1.5-.3.2-.3.3-.7.3-1v-.2c.2.1.4.1.7.2.3 0 .5-.1.7-.3.1-.2.1-.5-.1-.7-.1 0-.1-.1-.2-.2.3.2.6.3.9.5.1.1.2.1.3.1.7 1.8 1.1 3.4 1.1 5.2 0 .9-.1 1.9-.3 2.9-.8 3.9-3 7.7-3.2 12 0 1-.2 2.7-.2 4.3v1.1c0 .6.1 1.2.3 1.8-2.2-1.5-4.7-2.3-6.3-4.2-1.5-1.6-2.5-3.8-3.2-6-.1-.2-.1-.4-.2-.5-.7-1.9-2.1-4.8-2.1-6.6v-.4c-.1-.4-.1-.4-.1-.5zm10.5-3.4c-.4.1-.7.1-1 .1-.6 0-1-.1-1.3-.4.9-.1 1.8-.4 2.4-.6-.1.3-.1.6-.1.9zm1.2-1.8c.4.3.8.7 1.2 1.1l-1.2.9c0-.4.1-.7.1-1.1 0-.3 0-.6-.1-.9zm-1.6-.6v.4c-.3.1-.7.2-1.1.3v-.1c0-.1 0-.2-.1-.4s-.3-.2-.3-.2c-.1-.4-.3-.7-.5-1.1-.1-.1-.2-.2-.4-.2.3 0 .5.1.8.1.4.1 1.1.4 1.7.8-.1.1-.1.2-.1.4 0-.1 0-.1 0 0zm-2.6-1.4zm-1.7.7l.1.1v.5c0 .4.1.8.3 1.1.1.5.3.9.5 1.3.1.2.2.3.3.5-.4-.2-.9-.4-1.3-.7-.8-.5-1.4-1.2-1.5-1.9 0-.1-.1-.2-.1-.3.5-.4 1.1-.8 1.7-1-.1.1-.1.3 0 .4zm-4.3 15.8c.7 1.9 1.7 3.7 3.1 5.2 2 2.2 4.7 3.1 6.8 4.5.4.3 1.1 1.2 1.8 2.2.3.7.7 1.3 1.2 1.9.3.4.5.7.8 1 .5.5.9 1 1.6 1h.1c1.4.9 3 2.2 4.7 3.2-.9.2-1.7.3-2.5.3-2 0-4-.4-6.2-1-.3-.1-.5-.2-.8-.3-.2-.1-.5-.1-.7-.2-1.3-.5-2.9-1.1-4.3-2-1.2-.7-2.3-1.5-3.1-2.3v-.2c0-.7-.3-1.3-.7-1.5-.3-.2-.4-.3-.6-.7-.3-.7-.2-1.1-.4-2.1-.3-2.7-.9-5.2-.9-7.7 0-.3 0-.8.1-1.3zm20.2 6c.4 0 .8.1 1.1.2-.2-.1-.3-.1-.5-.1h-.4c-.7 0-1.4.2-1.9.6l-.1.1c.1-.3.1-.4.1-.5.1 0 .3-.1.9-.3h.8zm-.8-1.2c0-.1.1-.1.1-.2 0 0 .1.1.2.1-.1.1-.2.1-.3.1zm1.7 11.4c.7 0 1.3-.3 1.8-.7-.1.1-.1.2-.2.3-.2.3-.1.6.1.8-.6-.1-1.2-.2-1.9-.4h.2zm6.4-10.4v.1s-.1 0-.1-.1v-.4c.1-.2 0-.5-.2-.6-.1-.1-.3-.2-.4-.3-.2-.2-.4-.3-.6-.4-.1-.1-.1-.2-.2-.2.4.1.7.3.9.5.1.1.2.1.4.1h.1c.1.4.1.9.1 1.3zM68.4 74s0 .1-.1.1c0-.1.1-.3.1-.4.1-.2.3-.4.6-.5-.2.3-.4.5-.6.8zm-.5 9.7s.1.1.2.1h-.3s0-.1.1-.1zm1.4-7.2s-.1 0 0 0c-.2-.1-.3-.3-.3-.6 0-.4.2-.9.4-1.3.1-.2.3-.3.4-.4.1-.1.2-.1.2-.1s.2.3.3.8c-.3.9-.6 1.3-1 1.6zm-2.9-4.1h.2l-.1.1c0-.1-.1-.1-.1-.1zm-5.5 2.7V75v.1zm2.5 1.6c-.1-.3-.4-.6-.7-.5-.1 0-.2 0-.3.1-.2-.3-.3-.6-.3-.8 0-.5.4-1 1.4-1h.3c.3 0 .8.3 1.2.6.3.3.5.6.6.8-.1.1-.1.3-.2.4-.1 0-.2.1-.3.1-.3.1-.4.3-.4.6-.2 0-.3.1-.4.1-.3-.1-.6-.2-.9-.2v-.2zm3.3 7.1c-.1 0-.1 0 0 0-.1 0-.1 0 0 0-.1 0 0 0 0 0zm.1 4.1c-.1.1-.2.2-.3.2-.1-.1-.2-.1-.4-.1h-1c-.7 0-1.5.1-2.2.2h-1.7c-.9 0-1.8-.1-2.7-.2h.1c.1 0 .3-.1.4-.2.5 0 1 .1 1.5.1 1.4 0 2.7-.2 4.2-.6.8.1 1.5.4 2.1.6zm-19-3.8c-.1-.1-.2-.1-.3-.2h-.1c.2 0 .3.1.4.2zm4.8 2.1c.2.1.5.2.7.2-.8-.1-1.5-.2-2.3-.4h-.4c-.3-.2-.5-.4-.8-.6 1 .3 2 .6 2.8.8zm15.7 2.3c.1-.1.1-.3.1-.4h.9c-.3.3-.5.5-.8.7-.4.4-.8.6-1.4.8.5-.3.9-.7 1.2-1.1zm2.7-2.1c-.7.3-1.5.5-2.2.5-.8 0-1.7-.2-2.5-.5v-.2c0-.2-.1-.4-.2-.5-.2-.2-.3-.2-.4-.2h-.4c-.1.1-.3.1-.4.2-.9-.5-1.8-1-2.7-1.6 1.5.4 3.3.9 5 .9.5 0 1 0 1.5-.2 2.5-.6 4.8-2.7 6-5.1.1-.2.3-.4.4-.5.1-.2.1-.3 0-.5v-.1c.3-.2.7-.4.9-.6-.7 1.5-1.2 3.2-1.9 4.7-.6 1.6-1.5 3-3.1 3.7zm10-20.3c-.5 1.6-1.6 3.3-2.6 5.1 0 .1-.1.1-.1.2-.5-2.7-1.4-5-3.5-7.3-.2-.3-.6-.3-.9-.1-.3.2-.3.6-.1.9 2.3 2.7 3 5.1 3.4 8.5-.4 1-.7 2-.8 3.1h-.3l-.2.2c-.3.2-1 .7-1.7 1.2s-1.6.9-2 .9H72c-.6 0-1.2-.2-1.9-.5-.3-.1-.5-.2-.8-.3l.6-.3c.4-.3.8-.6 1-1h.1c.3 0 .6-.3.6-.6v-.8c.1-.4.2-.7.2-1.2.1-.4.1-.7.1-1 0-1.7-.8-3-2-3.7-1.2-.8-2.7-1.1-4.3-1.2h-.7c-1.5 0-2.9.4-4 1.3-1.1.8-1.8 2.1-1.8 3.7 0 .5.1 1 .2 1.5.4 1.7 1.7 2.8 3.1 3.4 1.4.6 3 .8 4.5.8h.3v.2c0 .5-.1.9-.4 1.3-.1.2-.3.3-.4.5-.2.2-.4.3-.7.5-.9.6-2.2.9-3.2.9h-.3c-1.1 0-1.8-.3-2.5-.9-.5-.4-1-.8-1.6-1.3V80c.1-.3-.1-.7-.5-.7h-.4c-.2 0-.4 0-.6.1-.1 0-.1.1-.2.1-.1-.1-.1-.2-.2-.3-.1-.1-.2-.3-.3-.4-.1-.2-.2-.5-.3-.7.1 0 .1-.1.2-.2.2-.3.1-.7-.2-.9-.1 0-.2-.1-.2-.2-.1-.6-.2-1.2-.2-1.9 0-1.8.5-3.6 1.2-4.6.2-.3.1-.7-.1-.9-.3-.2-.7-.1-.9.1-.4.6-.7 1.2-1 2 .1-1.1.2-2.1.2-2.9V68c.1-1.5.6-3.1 1.1-4.6.7-2.1 1.6-4.3 2-6.6.2-1.1.3-2.1.3-3.1 0-2.5-.7-4.8-1.9-7.2-1.4-2.6-3.6-4.8-4.6-7.3.4.2.8.4 1.3.6.2.1.4 0 .6-.1.2-.1.3-.3.3-.5v-.5c0-1-.1-2-.1-3 0-.5 0-.9.1-1.4 0-.2.1-.4.1-.6.3.1.6.3 1 .6.2.1.5.3.7.4.2.1.5.1.6 0 .1-.1.2-.2.3-.4v-.2c0-.3.1-.6.2-1.1.5.2 1 .6 1.7 1.1.1.1.2.1.3.2 0 0 .1 0 .1.1h.5c.1-.1.2-.1.3-.2.3.5.7 1.1 1.2 1.6.1.1.1.1.2.1v.2c.8 5.2 1.9 10.6 4.1 15.6.4 1 .9 1.9 1.4 2.9 1 1.8 2.5 4.1 4.5 5.6 1.1.8 2.4 1.4 3.8 1.4h.1c1.5 0 3-.5 4.2-1.2 1.4-.7 2.6-1.7 3.7-2.7 0 .6-.1 1.1-.2 1.7-.3 2.1-.8 4.4-1.5 6.7zm-20.4 6.2c-.1.2-.2.4-.3.5 0-.4.1-.7.2-1v.2c0 .1.1.2.1.3zm19.8-26.1c0 .1 0 .3.1.4-.2-.1-.5-.3-.7-.4h.6c0-.1 0 0 0 0zM74.8 50c-.3.2-.8.2-1.3.2-1.2 0-2.7-.5-3.2-1.2.1-.2.1-.3.2-.5.3.2.7.4 1.1.6.7.4 1.5.8 2.4.8.3 0 .5 0 .8-.1 1.2-.5 1.6-1.7 1.6-2.8 0-.4-.1-.8-.2-1.1.2.1.4.2.7.2-.4 1.4-.8 3.4-2.1 3.9zm-1.9-4.4c0 .1.1.2.2.3-.1.1-.2.3-.2.5v.8c-.4-.2-.9-.3-1.3-.3h-.4c.5-.6 1-1 1.7-1.3zm1.3 3.1c.4-.5.6-1 .6-1.6 0-.3 0-.5-.1-.8h.1c.1.2.1.5.1.7 0 .7-.3 1.4-.7 1.7zm-7.8-20.6v-1.8c0-1 .1-1.7.8-2.4.7-.8 1.9-1 3.3-1 .6 0 1.3.1 1.8.1 1.8.2 2.7 1.1 4.4 2 1 .5 2 .7 3 .7.9 0 1.8-.1 2.7-.1h.1c1.3 0 3.4.6 5.2 1.6 1.7 1 3.1 2.3 3.2 3.5v.6c0 2.8-2.4 6.7-4.1 8.9-.6.8-1.9 2.1-3.2 3.1-1.4 1-2.9 1.8-4 1.7-.2 0-.4 0-.6-.1-.6-.1-1.8-1.3-2.8-2.6-1-1.4-1.8-2.9-2.1-3.7-.3-.9-.4-2-.4-3.1 0-1.2.1-2.4.1-3.7 0-.6 0-1.1-.1-1.7 0-.4-.1-.8-.2-1.1.1-.1.2-.3.2-.5 0-.3-.3-.6-.6-.6-.8-1.8-2.2-3.2-3.8-4.5-.3-.2-.7-.2-.9.1-.2.3-.2.7.1.9 1.4 1.2 2.6 2.3 3.3 3.6-1.7.1-3.6.2-5.4.2v-.1zm-10.6 2.4c5.1-1.2 11.2-1 16.5-1.3.1.3.2.7.2 1.1.1.5.1 1 .1 1.5 0 1.2-.1 2.4-.1 3.7 0 1.2.1 2.4.5 3.5.3 1 1.2 2.6 2.2 4 .5.7 1 1.3 1.5 1.8-1-.3-2-.6-2.8-.6h-.4c-1.9.2-3.1 1.4-3.7 2.8-.1.1-.3.2-.3.3-.1.2-.1.3 0 .5-.5 1.2-.7 2.4-1.1 3.4-.1.3.1.7.4.8h.2c.3 0 .5-.2.6-.4l.3-1.2c1 .7 2.3 1.1 3.6 1.1.6 0 1.3-.1 1.8-.4 2-1 2.4-3.1 2.5-4.5 1 .5 2 .9 2.5 1.3.2.1.3.1.5.1.7 2.5 1.9 5.1 1.9 7.8-2.2 2.2-4.9 4.4-8 4.4h-.1c-2.9.1-5.7-3.6-7.2-6.3-3.3-5.9-4.6-12.8-5.5-19.4 0-.3-.4-.6-.7-.5-.1 0-.2 0-.2.1-.4-.6-.7-1.2-1.3-1.8-.2-.2-.4-.2-.6-.1-.2.1-.4.3-.4.5v.1c-.6-.5-1.3-1-2.3-1.1h-.3c-.3 0-.6.3-.5.7v.1c0 .2 0 .4-.1.7-.5-.3-1.1-.7-1.9-.8-.3 0-.6.1-.7.4-.2.6-.3 1.2-.3 1.8v1.1c0 .9.1 1.7.1 2.5-.1 0-.2-.1-.3-.1-.4-.2-.9-.4-1.4-.5-.2 0-.4 0-.6.2-.2.2-.2.4-.2.6.8 3.4 3.4 5.8 4.8 8.4-.8-.4-1.5-.7-2.3-1-.2-.1-.5-.1-.7.1-.2.2-.2.5-.1.7.1.2.2.3.3.5-.3-.2-.6-.3-.8-.5-.2-.1-.5-.1-.7.1-.2.2-.3.5-.2.7-.3-.1-.6-.1-.8-.1-.2 0-.5 0-.7.1-.3.1-.5.5-.4.8.1.3.5.5.8.4h.3c.4 0 1 .2 1.4.5.5.3.9.8 1 1.2 0 .1.1.1.1.2-.6-.3-1.2-.6-1.7-.7-.6-.1-1.1-.2-1.7-.2-2.3 0-3.8 1.3-5.2 2.7V52c-.5-3.1-1.3-6.1-2.1-9.2.2-.1.4-.3.5-.5.1-1.1.4-1.7 1-2.4.6-.6 1.3-1.3 2.1-2.2 1-1.3 1.1-2.4 1.9-3.2 1.7-2.4 5.8-3.3 8.8-4zm-15 10c-.2-.8-.3-1.9-.3-2.9 0-.6.1-1.1.2-1.3.2-.6.5-.9.8-1.1.3-.2.6-.2 1.1-.2.5 0 1.1.1 1.7.1h.5c-.3.6-.5 1.2-.9 1.6-.6.8-1.4 1.4-2 2.1-.4.4-.8 1-1.1 1.7zm-2.9 18c-.3.1-.7.1-1 .1-.7 0-1.4-.1-2.1-.4-2.2-.7-4.6-2.5-5.9-3.9-1.9-2-4-5.5-4.2-8v-.5c0-1.6.8-2.7 2-3.6 1.2-.9 2.8-1.7 4.2-2.6 1.7-1.2 3.6-3 5.4-4.6 1.9-1.5 3.8-2.7 5.6-2.7 1.1 0 2.2.4 3.4 1.5h-.9c-.5 0-1.1-.1-1.7-.1-.5 0-1.1.1-1.7.4-.6.3-1 .9-1.3 1.7-.2.5-.2 1.1-.3 1.8 0 1.4.3 3 .5 3.9.9 3.6 1.9 7 2.4 10.4 0 .3.1.7.1 1 0 2.5-1.4 4.6-3.9 5.5-.2 0-.4 0-.6.1zM20.2 180.3l-.3.3c-.1-.1-.1-.2-.1-.5v-.1l.1.1c0 .2.1.2.3.2zm7.5-.5c0-.1 0-.1 0 0zm33.2-7c.8-.6 2.4-1.5 3.2-1.4h.3c0 .4.1.8.2 1.3.2.8.2 1.6.2 2.4v2c-.5-.1-1-.1-1.6-.1h-1.6c.1-.4.2-.8.4-1.2.1-.2 0-.4-.1-.6-.1-.2-.4-.2-.6-.2h-.1c-.1 0-.3 0-.5-.1 0 0 0-.1.1-.1.2-.2.3-.5.2-.7-.1-.3-.4-.4-.7-.4H60c.2-.3.6-.7.9-.9zm-2.6 3.8c.2-.3.5-.5.8-.8l.2.2c-.1.1-.3.2-.4.4-.3.3-.6.4-.9.5.2-.1.2-.2.3-.3zm33.6-.5c-.3.1-.6.1-.9.1-.8 0-1.7-.1-2.5-.1-.5 0-1.1.1-1.6.3-.4-.3-.9-.6-1.3-.9-.7-.4-1.3-.8-1.4-.9-1.5-1.4-1.9-2.5-1.9-3.6 0-1.7 1.5-3.6 3-6.1 1-1.8 2.4-4 2.8-6.2.1-.4.1-.9.1-1.3 0-.5 0-1.1-.1-1.6l.1.1h.2c.2 0 .5-.1.6-.4 0-.1.1-.1.1-.2.3-.2.3-.5.2-.8.1-.2.2-.3.3-.5.5-.9 1.2-2 1.9-2.8.3-.4.7-.8.9-1l.2-.2c-.5 1.2-.8 2.5-.8 3.8v.7c0 .3.3.6.6.6s.6-.3.6-.6v-.3.4c0 .2.2.5.5.5.2.1.5 0 .7-.2.3-.4.5-.9.8-1.5.4-.9.9-2.1 1.4-2.9.3-.4.5-.8.7-1 .2-.2.4-.3.5-.3h.1c.1 0 .1 0 .2.1s.1.3.1.6c0 .9-.5 2.4-.7 2.9-.1.3 0 .6.2.7.2.2.5.2.8 0 1.2-.9 1.9-2.2 2.5-3.4.2-.5.5-1 .7-1.4-.2.9-.5 1.9-.6 3v.4c0 .3.2.6.6.7.3 0 .6-.2.7-.6v-.1c.1-.8.4-1.6.7-2.2.2-.3.3-.6.5-.7.1.2.1.6.1 1.1-.1.2-.1.3-.2.5-.5 1-1 2.1-1 3.4 0 .4.1.9.2 1.4.5 1.5 1.6 2.9 2.1 4.1.8 1.9 1.6 3.5 3.3 4.9 2.2 1.8 5.1 3.3 7.7 4.2.9.3 1.9.4 2.9.6-2.9.5-5.6.6-8.5.6h-3.6c-1.3 0-3.6 0-5.6.5-1 .2-2 .6-2.7 1.2-.8.6-1.3 1.4-1.3 2.5 0 .4.1.8.2 1.2 0 0-.1 0-.1.1-.3-.1-.7-.2-1-.2-1.7-.2-2.9.6-4 .8zm3.7 2.4c0-.1 0-.2.1-.2.1.1.2.1.3.1-.2 0-.3.1-.4.1zm64.7-1.2c-1 0-1.9-.1-2.8-.1-2.5-.2-5.2-.8-7.9-.8h-1.2c-1.6.1-2.9.5-4.3.5h-.3c-1.1 0-2.4-.2-3.7-.2-.5 0-.9 0-1.4.1v-.2c0-1-.5-1.6-1-2.2-.5-.6-.9-1.1-1-1.6 0-.2-.1-.4-.1-.6 0-1.3 1.1-2.8 1.1-4.7v-.3c0-.3-.3-.6-.7-.6-.3 0-.6.3-.6.7v.2c0 1.4-1.1 2.8-1.1 4.7 0 .3 0 .5.1.8.2.9.8 1.5 1.2 2.1.4.6.7 1 .7 1.4 0 .2 0 .3-.1.6 0 0 0 .1-.1.1-.1.1-.2.3-.3.4-.5.7-1.4 1.2-2.4 1.5-1.3.4-3 .6-4.6.6-1.8 0-3.5-.2-4.6-.3-5.8-.8-11.8-.9-17.7-.9-.7 0-2.7.3-4.6.3-1.1 0-2.1-.1-2.8-.3-.3-.1-.6-.3-.7-.4-.1-.1-.2-.3-.2-.5 0-.1 0-.2.1-.4.2 0 .5 0 .6-.3 0-.1.1-.1.1-.2.2-.1.4-.2.6-.2h.3c.3 0 .6-.3.6-.7 0-.3-.3-.6-.6-.6h-.7c-.5 0-.9-.1-1.3-.1 0-.1-.1-.2-.2-.3-.2-.2-.5-.2-.7-.1h-.1c-.1-.4-.2-.7-.2-1 0-.7.3-1.1.8-1.5 1.6-1.3 5.7-1.5 7.6-1.4h3.6c3.7 0 7.3-.1 11.2-1.1.2-.1.4-.3.5-.5 0-.2-.1-.5-.3-.6-.8-.5-1.7-.6-2.7-.8-1-.2-2-.3-2.7-.5-2.5-.9-5.2-2.3-7.3-4-1.5-1.3-2.2-2.5-3-4.4-.6-1.5-1.7-2.8-2.1-4-.1-.4-.2-.7-.2-1 0-.9.4-1.8.8-2.8.2-.1.4-.3.4-.6v-.3c.3-.8.7-1.7.7-2.6v-.6c0-.3-.4-.6-.7-.5-.3 0-.6.4-.5.7v.5c-.2-.2-.4-.3-.7-.3-.2 0-.3 0-.4.1V146c0-.2-.2-.4-.4-.5-.2-.1-.5 0-.7.2-1 1.1-1.5 2.4-2.1 3.5-.1.3-.3.6-.4.8v-.6c0-.4-.1-.8-.2-1.2-.2-.4-.6-.7-1-.8h-.3c-.7 0-1.3.5-1.7 1v-.3c0-.3-.2-.5-.4-.6-.3-.1-.5 0-.7.2-.1.2-.3.3-.4.5 0-.1-.1-.2-.2-.3-.3-.2-.7-.1-.9.2-.1.2-.2.3-.3.5-.1-.1-.4-.2-.6-.2-.4 0-.6.2-.8.3-.7.6-1.6 1.7-2.4 2.9-.6.9-1.1 1.7-1.4 2.4v-.1c0-.4 0-.7.1-1.1.1-.3.1-.6.2-.9.1-.1.2-.3.2-.4.6-1.3 1.6-2.3 2.7-3.4 1.4-1.5 3-3.1 3-5.8v-.7c0-.3-.3-.6-.7-.6-.3 0-.6.3-.6.7v.6c0 2.1-1.2 3.4-2.6 4.9-1 1.1-2.2 2.2-2.9 3.6-.1.1-.1.2-.2.3-.2.4-.3.9-.4 1.4-.1.4-.1.9-.1 1.3 0 1.1.1 2.1.1 3 0 .4 0 .8-.1 1.1-.3 1.8-1.6 4-2.6 5.8-1.4 2.4-3.2 4.3-3.2 6.8 0 1.4.7 2.9 2.3 4.5.2.2.6.4 1 .7.6.4 1.4.8 1.9 1.2.3.2.5.4.7.6-.1 0-.3.1-.4.1-.6.2-1.3.3-2 .5-.2.1-.4.1-.6.2 0-.1-.1-.2-.1-.3-.1-.3-.4-.4-.7-.3-.1 0-.2.1-.3.2 0-.1-.1-.1-.1-.2-.2-.2-.5-.3-.8-.2-.3.1-.4.4-.4.7 0 .1.1.3.1.4-.4-.5-.8-.9-1.5-1.2-.3-.1-.7 0-.8.3-.1.3 0 .7.3.8.6.2 1 .7 1.3 1.3-.2.1-.3.1-.6.1s-.8-.1-1.6-.3c-.5-.2-.8-.3-1.1-.3-.3-.1-.6-.1-1-.1h-.6c-.4 0-.8.1-1.2.2v-.4c0-.6 0-1.1-.1-1.5 0-.2-.1-.3-.3-.5-.1-.1-.3-.1-.5-.1-1 .3-1.5 1.1-1.6 1.8-.1.1-.1.2-.1.3-.1 0-.2-.1-.3-.1-.1-.1-.2-.3-.2-.4-.3-.5-.6-1.1-.8-1.5-.2-.4-.3-.7-.3-.8.1-.3-.1-.6-.4-.7-.3-.1-.7 0-.8.3-.1.1-.1.3-.1.4 0 .5.2.9.4 1.4.2.3.4.7.6 1-.4 0-.8.1-1 .2-.3.1-.5.2-.8.2-1 0-1.6-.2-1.8-.4-.2-.2-.4-.6-.5-1.5v-2.6c0-.8 0-1.7-.2-2.6-.2-1.1-.3-2.3-.3-3.5v-1.9c0-3.5.6-7.8 1.7-11 .1-.2.1-.4.2-.6.4-1 1.1-1.9 1.8-2.8 1.3-1.5 2.8-3 4.1-4.7 2.2-3 3.6-7.7 3.6-11.8 0-1.6-.2-3.2-.8-4.5-.1-.3-.5-.5-.8-.3-.3.1-.5.5-.3.8.5 1.1.7 2.5.7 4 0 3.8-1.4 8.4-3.4 11.1-.6.8-1.3 1.6-2 2.3-5.2-1.9-10.5-4.3-13.7-8.8-1.7-2.4-3.5-4.9-4.9-7.4-1-1.7-2.7-3.1-3.2-4.6-.2-.6-.3-1.3-.3-2v-1.1c.1-.1.2-.2.2-.3.2.1.5 0 .7-.1.2-.2.2-.6 0-.9-.2-.2-.4-.3-.7-.3-.1 0-.3 0-.4.1-.1-.1-.3-.2-.4-.2-.3 0-.6.3-.6.6v.7c-.3.6-.6 1.3-.8 2-.4 1.2-.6 2.2-.7 2.9v2c0 1.8-.1 3.6-.4 5.3v.1c-1 5.3-1.2 10.7-1.6 16-.2 2.8-.5 5.5-1.1 8.3-.4 2.2-.4 4.1-1.4 5.9-.1.1-.1.2-.2.4-.9 1.6-2.6 2.8-3.8 4.7-1 1.7-1.2 3.3-1.8 4.3-.3.5-.5.9-1 1.1-.5.3-1.2.5-2.4.5h-.4c-.4 0-.9 0-1.3-.1v-.8c0-.2-.2-.4-.4-.5-.2-.1-.5 0-.6.2-.3.3-.5.6-.7 1-.2 0-.4-.1-.7-.1 0-.2.1-.3.1-.4.2-.3 0-.7-.3-.8-.3-.2-.7 0-.8.3-.1.2-.2.5-.3.8-1.1-.2-2.3-.3-3.5-.3h-.2c-.1-.1-.3-.1-.4-.1.1-.2.2-.5.2-.7.1-.3 0-.5-.3-.7-.2-.1-.4-.1-.6 0-.2-.3-.5-.4-.8-.3-.6.3-1.2.9-1.7 1.6 0 .1-.1.1-.1.2-.5-.1-1.1-.2-1.5-.4-.4-.1-.7-.3-1-.5 0-.2 0-.3-.1-.5-.1-.1-.2-.2-.3-.2v-.1c.1-.2.3-.5.7-.9.6-.6 1.5-1.2 2.4-1.7 2.2-1.3 4.9-2.7 7.5-4.3 1.8-1.1 3.5-2.4 4.8-3.8 1.3-1.5 2.1-3.2 2.1-5.1v-.4c0-7.4-1.6-14.1-2.4-21.1-.1-.5-.1-.9-.1-1.4-.4-4.6-.7-9.4-.7-14.2 0-2.8.1-5.5.3-8.2.5-5.3 1.5-10.2 3.8-15.1 1.6-3.5 4.2-6.6 6.2-10.1.7-1.1 1.7-2.7 2.7-4.3.5-.8.9-1.6 1.3-2.4.4.4.8.7 1.2 1.1-.1 0-.2.1-.2.1-.3.2-.4.6-.2.9.2.3.6.4.9.2.2-.1.4-.2.8-.2 1.3 1 2.6 1.8 3.4 2.3.9.5 2 1.1 3.1 1.6.1.2.3.4.5.4h.5c1.5.6 3.1 1 4.4 1.2 1.4.2 3 .4 4.7.4.9 0 1.8-.1 2.7-.2 1.2-.2 2-.7 2.7-1.3.7-.6 1.3-1.2 2-1.8.2-.1.2-.3.2-.5 1.9-.9 3-2.6 3.8-4.3.8-1.8 1.3-3.6 2-5.1 0-.1 0-.1.1-.2l.1-.1c.1-.1.3-.5.5-.8 0-.1.1-.1.1-.2.4 1.4 1 2.7 1.6 3.8 1.7 2.9 3 5.9 5.2 8.7 4 5.1 10.3 6.7 14.8 10.4 5 4.1 8.1 9.2 11.6 14.4-.1.2 0 .5.1.6.1.1.2.2.2.3.5.7 1.1 2.1 1.5 3.6.5 1.7.9 3.6 1.1 4.6.6 2.8.3 6.6 2.8 9.2 1.9 1.9 4.4 2.1 6.7 2.3 2.3.3 4.3.6 5.6 2.4 0 .1.1.1.2.1h.1c1.3 2.7 1.9 5.8 2.2 9.2.4 4.3-.3 9.2 2 13.3 1.2 2.2 2.6 3.9 4 5.7 1.1 1.4 2 3.6 4 4.7 2 1 4.2.9 5.9 1.4 2.4.8 4.6 2.3 7.1 3.3 1.4.5 3.8.6 6 .9 1.1.1 2.2.3 3 .6.3.1.5.2.7.3-.7 1.1-2.4 1.2-4 1.2zm-23.6-10z"/><path fill="#412C28" d="M109 175.1c-.2-.1-.4-.1-.6-.2.1-.3.2-.6.3-.8.1-.3 0-.7-.3-.8-.3-.2-.7 0-.8.2-.3.6-.7 1.2-1.1 1.7-.2.1-.3.1-.4.2 0-.1.1-.1.1-.2 0 0 0-.1.1-.1.3-.1.5-.4.4-.7-.1-.3-.4-.6-.7-.5-.4.1-.6.3-.8.6-.4.6-.7 1.4-.8 2.2 0 .1-.1.1-.1.2-.1.2-.1.5 0 .7 0 .1.1.1.1.1v.1c0 .2.1.3.3.4.1.1.2.1.3.1h.1c.8-.2 1.3-.8 1.7-1.2h.1c.3-.2.6-.5.8-.8h.8c.3 0 .6-.1.7-.4.2-.3.1-.6-.2-.8z"/></svg>