<svg version="1.2" baseProfile="tiny" xmlns="http://www.w3.org/2000/svg" viewBox="0 0 137.2 203.9"><path fill="#E5D5CA" d="M23.3 168.9c.1-.5.1-1.1.1-1.6 0-2.1-.6-4.2-1.2-6.2-.7-2.3-1.2-4.2-1.2-6.5 0-.8.1-1.6.2-2.5.8-5.2 2.9-10.4 5.8-14.9 1.6-2.5 3.2-4.7 4.2-7.2.9-2.3 2-4.4 2.9-6.7 1.9-4.7 4.7-8.8 6.4-13.3 1.6-4.3 5.3-7.5 7.1-11.5.5-1 .9-2 1.4-2.9-1.8 1.8-3.6 3.5-5.2 5.5-3.8 4.8-6.6 9.8-9 15.4-2.7 6.3-6.5 12.4-8.9 18.8-2.5 7-9.2 15.2-6.3 23.1 1.3 3.7 2.6 6.1 2.2 10.2-.3 3.4-2 6.3-3.2 9.4.3-.6.7-1.2 1.1-1.7 1.7-2.5 3.2-4.8 3.6-7.4zm99.7 15.7c-.3-.2-.6-.3-.8-.5-.1.3-.2.7-.4 1 .5-.1 1.1-.3 1.6-.5h-.4zm.8-.3l-.3.3c.4-.1.7-.3 1.1-.4v-.8l-.6-.3v.4c.1.2 0 .5-.2.8zm-36.6 1.3c0 .1 0 .1 0 0 1.2-.1 2.5-.3 3.7-.4-1.3-.1-2.5-.1-3.7-.2-.1.3 0 .5 0 .6zm-50.8 2l-1.8.3c-.1.2-.3.3-.5.3H34c-.1 0-.2-.1-.3-.2-1.7.2-3.4.4-5.1.4h-1c.2 0 .3 0 .5.1 3.1.3 5.7 0 8.5-.7-.1 0-.1-.1-.2-.2zm5.9-2.3H42c-.1.1-.2.2-.3.4-.6.5-1.3 1-2.4 1.3-.6.2-1.1.3-1.7.4v.2c.7-.2 1.4-.3 2.1-.5 3.8-1 7.1-1.3 10.8-1.4-2-.2-3.9-.4-5.8-.4-.9-.1-1.6 0-2.4 0zM66.1 39.9c.2-.5.2-.9.2-1.4-.1.5-.1.9-.2 1.4zm20.8 6.6c-.2.1-.4.1-.5.2-.1.1-.1.2-.2.2 0 .2.1.5.3.7h.1v-.3c0-.2.1-.4.3-.8 0 .1 0 0 0 0z"/><path fill="#E5D5CA" d="M87.6 50c.6.3 1.2.5 1.7.5.7 0 1.4-.3 2.1-1 .2-.2.4-.5.5-.7v-2.4c-.2-.3-.5-.6-.9-.9-.8-.6-1.8-.9-2.7-.9-.6 0-1.2.2-1.5.5l-.2.2c.2 0 .4-.1.6-.1h.1c.8 0 1.5.3 2.1.7.6.4 1 1.1 1 1.9 0 .6-.3 1.3-1 1.7-.4.3-.9.4-1.3.4-.1.1-.3.1-.5.1z"/><path fill="#E5D5CA" d="M89.2 47.8c-.1.2-.2.5-.4.7l-.1.1h.1c.3-.3.4-.6.4-.8zm10.5 128.1h.8c-.5-1.6-.9-3-1.1-4.6-.7 1.6-1.7 3-2.9 4.3.9.3 2.1.3 3.2.3zm-8.7 1.7c1.7-.7 3.3-1.4 4.4-2.6 1.8-1.8 3.2-4.3 3.8-6.8v-1.1c0-3.3-.6-6.1-1.5-9.2-.7-2.3-1.5-5.6-2.3-7.5-.8 1.5-1.6 3-2.2 4.6-1.3 3-3.1 5.6-5.7 7.5v.2c0 .3-.3.6-.6.6h-.4c.1.9.1 1.7.1 2.6v1.4c0 .7 0 1.5.1 2.2.2 2.2 1.7 5.5 1.7 8.5v.8c.8-.4 1.7-.8 2.6-1.2zm-4.3 6.2c5.7.2 11.6.7 17.3.8-.2-2.2-2-5.1-3-7.5h-1.3c-1.4 0-3-.1-4.2-.6-1.2 1-2.7 1.6-4.1 2.2-1.5.6-2.8 1.2-3.8 2.1-.2.3-.5.5-.7.6-.4.2-.8.3-1 .4 0 .1-.1.1-.1.2.1.2.2.5.4.7.2.3.4.7.5 1.1zM85.2 44.3c.6-.8 1.6-1.3 2.7-1.3.2 0 .4.1.6.3 1.1 0 2.3.5 3.3 1.1.1 0 .1.1.2.2 0-.6.1-1.3.2-1.9h-.1c-.5 0-.6-.2-.8-.4l-.7-.7c-.5-.6-1-1.2-1.3-1.8 0-.1-.1-.1-.1-.2-.1.1-.2.3-.3.4-.4.6-.9 1.2-1.1 1.5-.7.8-1.4 1.6-2.1 2.3-.2.2-.4.5-.6.8 0-.1.1-.2.1-.3zm19.5-5.7c-.4-.1-.8-.1-1.1-.1-.5 0-1.1.2-1.7.3-.6.2-1.1.3-1.7.4-.1 0-.2.1-.3.1v.6c.9-1.1 2.7-1.4 4.8-1.3zm3.9-4.7c.5 0 1-.2 1.3-.4.3-.3.5-.5.5-.8 0-.3-.1-.7-.8-1.1-.1 0-.2-.1-.3-.2 0 .5-.2 1-.6 1.2-.3.3-.7.4-1.1.4-.2 0-.5 0-.7-.1 0 0 0 .1.1.1.4.6 1 .9 1.6.9z"/><path fill="#E5D5CA" d="M111.6 32.7c0 .8-.4 1.4-1 1.8-.5.4-1.2.6-2 .7.5.1 1.1.2 1.5.2.6 0 1.1-.1 1.4-.3.7-.5.9-.9.9-1.5 0-1.1-1-2.5-2.1-2.9.9.5 1.3 1.2 1.3 2zm-22.3 19c-1.6 0-3-.9-4-2.1-.7-.7-1-1.7-1-2.6 0-.5.1-1 .2-1.4-.3.7-.5 1.5-.5 2.3 0 .3 0 .6.1.9.2.9.9 1.9 1.8 2.6 1 .7 2.2 1.2 3.2 1.2.9 0 1.7-.3 2.3-1 .1-.1.3-.2.5-.2v-.7c-.7.7-1.7 1-2.6 1zM36.2 185.9c-.1.2-.3.4-.5.6.2 0 .4-.1.6-.1-.1-.2-.1-.4-.1-.5zM119.8 85c0-1.1 0-2.2-.1-3.2-.3-4.7-1.7-9.4-2.2-14.2 0 4.1.5 8.2.8 12.3.2 1.8.9 3.4 1.5 5.1zm.4 11.2c0 1.6.5 3 1 4.7.4 1.5.7 3.1.7 4.8 0 1.5-.2 3-.9 4.4-.6 1.2-.9 2.4-1.5 3.8-.7 1.6-1.9 2.6-2.4 3.8-.3 2.8-2.1 4.9-2.9 7.1-.7 1.8-1 4.4-1.2 6.5-.5 5-1 10-1.7 14.9-.2 1.2-.2 2.3-.2 3.5 0 2.2.2 4.4.5 6.6 0-3-.1-6 .4-9.1.8-5.2 2.4-10.2 3.1-15.3.6-4.4.6-8 2.4-12.2 2.4-5.7 6.9-12.5 5.8-19-.4-2.5-2-4.5-2.7-6.8-.2.7-.3 1.4-.3 2.1-.1 0-.1.1-.1.2zM75.8 43c0 2.6-.1 4.4.7 6.4-.1-1-.2-2-.2-2.9v-1.6c0-4.4.7-8.8.8-13.1-.3.8-.6 1.5-.7 2.3-.8 2.9-.6 5.8-.6 8.9z"/><path fill="#E5D5CA" d="M114.3 176.8c.3.2.4.6.2.9-.1.2-.3.3-.5.3-.1 0-.2 0-.3-.1-1.3-.8-2.1-2.2-2.5-3.6-.2-.5-.3-1.1-.4-1.6-.4-.7-.7-1.4-.8-2.1-.3-1.9.2-4.4.8-6.8.1-.9.1-1.7.1-2.5s0-1.5-.1-2.3c-.4-3-.9-6.1-.9-9.3 0-1.2.1-2.4.2-3.6.7-4.9 1.2-9.8 1.7-14.8.2-2.1.5-4.8 1.3-6.8.9-2.2 2.3-4.1 2.7-6.1-.1-.1-.1-.3 0-.4 0-.1.1-.3.2-.4v-.5c0-.3.2-.6.5-.6.7-1.1 1.5-2 1.9-2.9.5-1.3.8-2.4 1.5-3.8.6-1.2.8-2.5.8-3.9 0-1.5-.3-3-.6-4.5-.4-1.6-1-3.1-1-5V96c.1-1.9.8-3.5.8-5.2v-.4c0-3.5-2.3-6.3-2.7-10.2-.4-4.3-.8-8.6-.8-13 0-1.5.1-2.9.2-4.2-.1 0-.1.1-.2.1-.4.3-.8.7-1.3.9-.8.4-1.4.6-2 .8-.5.2-1 .4-1.5.9-.7.7-1.4 2.4-2.9 3.1-.4.2-.8.2-1.1.2-1.2 0-2.4-.5-3.1-.6h-.5c-.6 0-.9.1-1 .3-.1.1-.2.3-.3.7-.1.7 0 1.7-.4 2.7-.3.7-1 1.2-2 1.2h-.2c-.8 0-1.6-.3-2.3-.7-.7-.4-1.4-.8-1.9-1-.5-.3-2-1-3.4-1.9-1.5-.8-2.9-1.7-3.6-2.4-.2-.2-.4-.3-.5-.8 0-.2.1-.4.2-.5.3-.2.6-.2.9 0 .1.1.2.3.2.4.1.1.3.3.6.5.5.4 1.3.9 2.1 1.3 1.6.9 3.4 1.9 4 2.2.5.3 1.2.7 1.9 1 .7.3 1.4.6 1.8.6h.1c.5-.1.7-.2.9-.3.1-.2.2-.4.3-.8.1-.7 0-1.8.5-2.7.4-.6 1.2-1 2.2-1h.7c1 .1 2.1.6 3 .6.3 0 .5 0 .7-.1.9-.3 1.5-1.8 2.5-2.8.6-.7 1.3-1 1.9-1.2.6-.2 1.2-.4 1.8-.7.2-.1.6-.5 1.1-.8.3-.2.7-.5 1.1-.6.1-1.1.2-2.3.3-3.4-.3.3-.6.5-.9.8-2.1 1.5-5 3.2-8.1 4.6-.4.3-.8.5-1.3.7-1.3.7-2.8 1.2-4.4 1.3h-.4c-1.5.3-2.9.5-4.2.5-2.6-.1-4.6.3-5.5-2.3-.5-1.5-.2-2.8.4-4.1.1-2.1 1.1-4 1.7-5.6 1.1-2.8 1.1-5.6 1.3-8.7.1-1.3.4-3.1 1.1-4.6.5-1.1 1.4-2.1 2.5-2.6.1-.1.3-.2.5-.2.3-.1.6-.1.9-.1.2-.1.4-.1.7-.2.6-.2 1.3-.4 2-.4h.1c1 0 2 .3 2.8.4 1.8.2 3.5.6 5.1 1.1-1.7-1.1-3.2-2.1-5.1-2.3-1.3-.1-3-.3-4.6-.3-1.7 0-3.4.2-4.5.6l-.6.3c0 .1-.1.1-.1.2-.2.2-.4.4-.4.5-.1.2-.4.3-.6.2-.7.7-1.2 1.7-1.6 2.9-.5 1.6-.7 3.4-.8 5.3.2.5.4 1 .4 1.5s-.1 1-.4 1.5c.1 2 .2 3.8.2 5.3 0 .3-.3.6-.6.6s-.6-.3-.6-.6V53c-.8.7-1.8 1-2.8 1-1.4 0-2.8-.6-4-1.4-1.2-.9-2.1-2-2.3-3.4-.1-.4-.1-.8-.1-1.1 0-1.8.8-3.6 1.8-5l2.1-2.4c.2-.2.6-.7 1-1.3.4-.5.7-1 1-1.2.1 0 0-.1.2-.2.1-.1.3-.1.4 0h.2c.3.1.6.4.5.7v.1c0 .1.1.2.1.2.1.2.2.5.4.7.3.5.8 1.1 1.1 1.5l.4.4c.1 0 .2 0 .2.1l.3-1.2c.4-1.4 1.1-2.6 2.1-3.6-.2-.6-.5-1-.8-1.2-.4-.3-.9-.5-1.6-.5-1.6 0-3.8 1-5.7 2.3-2 1.3-3.7 2.8-4.4 3.6-.1.1-.3.2-.5.2s-.3-.1-.4-.2c-.2-.2-.3-.6 0-.9.8-.8 2.6-2.4 4.6-3.7 2-1.3 4.4-2.5 6.4-2.6.8 0 1.7.2 2.4.8.4.4.8.8 1.1 1.4.3-.2.6-.3 1-.5.5-.2 1-.3 1.5-.4-1.1-.9-2-2-2-3.6 0-.5.1-1 .3-1.6.3-.9 1.2-1.9 2.2-2.7 1-.8 2.2-1.5 3.4-1.5.4 0 .8.1 1.2.3.3.2.4.6.2.9-.2.3-.6.4-.9.2-.1-.1-.3-.1-.5-.1-.7 0-1.8.5-2.7 1.2-.9.7-1.6 1.6-1.8 2.1-.2.5-.2.9-.2 1.2 0 1.3.9 2.3 2.4 3.3l.1.1c.6 0 1.1-.1 1.7-.1 1.4 0 2.9.1 4.1.2-.3-.2-.5-.4-.7-.7-.2-.3-.4-.7-.5-1-1.2-1-2.2-2-3.6-2.7-.2-.1-.3-.3-.3-.5-.2 0-.4-.1-.6-.1-.3-.1-.5-.4-.4-.7 0-.3.3-.5.6-.5h.3c.2 0 .3 0 .5.1h.7c2.6 0 5.4-2.1 8.6-2.1.5 0 1.1.1 1.7.2 1.3.4 2.2 1.3 2.8 2.4.6 1.1.8 2.4.9 3.7 0 1.2-.2 2.4-.8 3.3-.1.2-.3.3-.5.3-.1 0-.2 0-.3-.1-.3-.2-.4-.6-.2-.9.4-.7.6-1.6.6-2.7s-.2-2.2-.7-3.1c-.5-.9-1.1-1.5-2-1.8-.4-.1-.9-.2-1.3-.2-2.3 0-4.8 1.6-7.6 2 .7.4 1.3.9 1.9 1.4.3-1.5 1.6-2.7 3.2-2.7.4 0 .9.1 1.4.3h.3c.4 0 .8.1 1.2.2 1.6.6 3 2.3 3 4.1 0 .9-.4 1.9-1.4 2.5-.5.3-1.1.5-1.8.5 1.5.9 2.8 1.9 4.3 2.6.3.1.4.4.4.7.1 0 .2.1.3.1 1.3.2 2.7.6 3.8 1.3.1-.2.1-.3.1-.5.1-.3.1-.5.1-.8-.3-.9-.6-1.8-.7-2.7-.1-.8-.2-1.6-.2-2.4-.6-1.3-1.2-2.6-1.9-3.9-.8-1.8-.9-3.4-2-4.5-1-.7-2-1.5-3.2-2.3-2.9-2-6.3-3.7-9.4-5.5-.6-.4-1.2-.7-1.8-1-.5 0-.9.1-1.4.1-3.1.2-5.6-.7-8.4-.9v.3c-1.6.8-3.1 1.8-4.5 2.9-1 1-2 1.9-3.2 2.7-.3.2-.7.4-1 .6-2.1 1.7-4.2 3.3-6.6 4.6-.6.3-1.2.6-1.8 1-.7.6-1.4 1.3-2.1 2l2.1-.6c.7-.2 4.9-1.5 3.5-1.2l1.2-1.2c-.1.6-.2 1.1-.4 1.7.3 0 .6.3.6.6 0 4.9-.9 9.7-.9 14.5v1.6c.1 2.1.3 4.4 1.1 6.2.1.3.3.7.5 1 1 1.5 1.9 3.1 1.9 5 0 3.7-2.6 3.3-6 2.9-1.4-.2-3-.6-4.5-1.3-.1.2-.1.5-.2.7-.2.9-.7 1.7-1.2 2.5-.3 1.3-.7 2.6-1.3 3.8-.2 1.2-.2 2.4-.7 3.6-.9 2.5-2.1 4.6-3.4 6.5-.1.2-.1.3-.2.5-1.4 4.2-5.9 7.5-8.2 10.6-2.6 3.3-4.6 6.7-6.3 10.5-2 4.3-5.6 7.5-7.1 11.4-1.8 4.8-4.6 8.8-6.4 13.4-.9 2.3-2 4.5-2.9 6.7-1.1 2.7-2.7 5-4.3 7.4-2.9 4.3-4.9 9.3-5.6 14.4-.1.8-.2 1.6-.2 2.4 0 2 .5 3.9 1.1 6.1.6 2 1.3 4.3 1.3 6.6 0 .6 0 1.2-.2 1.8-.5 2.9-2.1 5.3-3.6 7.7-1.2 1.9-2.3 3.8-2.9 5.7.1.6.3 1.1.5 1.6 2.6 1.6 5.2 2.8 8.3 3h1.8c1.6 0 3.2-.1 4.9-.3v-.3c0-.1-.1-.1-.1-.2v-.2c0-.3 0-.6-.1-.8-.2 0-.5.1-.7.1-.3 0-.5 0-.8-.1-.5-.2-.9-.7-1.1-1.1-.2-.4-.2-.8-.2-1.2-.1 0-.1.1-.2.1-.4.3-.7.7-.8.8 0 .3-.2.5-.5.6-.1.2-.2.4-.3.5-.3.6-.5 1.1-.5 1.4 0 .2-.1.4-.4.5-.1 0-.2.1-.3.1-.1 0-.3 0-.4-.1-.9-.7-1.4-1.7-1.6-2.8-.4-.7-.6-1.4-.6-2.2 0-1.6.8-3.2 2.2-4 .2-.1.5-.1.7.1.2.1.3.4.2.6 0 .2-.1.4-.1.6-.1.3-.4.5-.8.4h-.1c-.5.6-.9 1.5-.9 2.3h.4c.1 0 .1.1.1.1.3 0 .6-.1.9-.1.5 0 .9.1 1.2.3.1.1.2.1.2.2l.1-.1c.4-.4.9-.8 1-1 .2-.3.3-.6.4-.9.1-.5.2-1 .2-1.3 0-.1.1-.3.2-.3 0-.1 0-.3.1-.4.1-.3.3-.5.5-.5.3 0 .5.1.6.4.1.1.1.3.1.4v.2c.1.2.2.4.1.6-.1.2-.2.3-.4.4-.1.3-.1.5-.2.8-.1.6-.2 1.3-.2 1.8 0 .4.1.8.2 1 .1.2.2.3.4.4.1 0 .2.1.3.1.1 0 .3 0 .4-.1 0-.1.1-.2.2-.2.2-.1.4-.1.6 0h.1c.4-.1.9-.3 1.3-.4 0-.1.1-.2.2-.2.1-.1.2-.1.3-.1 0-.2.1-.3.1-.5.2-.9.2-2 .2-2.8 0-.1.1-.2.2-.3.1-.1.1-.1.2-.1h.2c.1 0 .2 0 .2.1.1 0 .1.1.2.1.1.1.1.1.1.2v.7c0 .7 0 1.6-.2 2.5l-.3 1.2c.5.1.9.4 1.4.6h.3c.4 0 .8-.1 1-.2.2-.1.3-.2.3-.5 0-.1-.1-.2-.1-.3v-.4c0-.3.2-.6.6-.6.3 0 .6.2.7.5.1.3.1.5.1.7 0 .4-.1.8-.3 1.1l.1-.1c.3-.3.4-.7.5-1 0-1-1.1-2.5-2.7-3.6-2.2-1.6-6.5-3.8-9.1-3.8h-.1c-.3 0-.6-.3-.7-.6 0-.3.3-.6.6-.7h.2c1.6 0 3.4.6 5.1 1.4.1 0 .1-.1.2-.1 3.1-.9 7.4-2.7 10.8-5.2 3.5-2.5 6.1-5.7 6.4-9.2v-1.4c0-1.7-.2-3.4-1-4.7-1.2-2.3-3.1-5.9-4.9-7.4-2-1.7-5.4-1.9-8.2-1.9h-1.5c-.3 0-.6-.3-.6-.6s.3-.6.6-.6H38c2.8 0 6.5.1 9 2.2 2.1 1.8 3.9 5.5 5.2 7.7.9 1.6 1.1 3.5 1.1 5.3 0 .5 0 1-.1 1.5-.3 4.1-3.3 7.5-6.9 10.2-3.3 2.4-7.1 4.1-10.2 5.1 1.2.6 2.2 1.3 3.1 1.9 1.7 1.3 3.2 2.9 3.3 4.7v.3c.7-.1 1.4-.1 2.1-.1 3.7 0 7.7.7 11.1 1 1.4.1 4.1.6 6.3.6 1.1 0 2-.1 2.5-.4 0-.3.2-.7.5-.7s.7.2.7.5c.1-1.3.9-2.2 1.7-3.1.8-.9 1.7-1.7 2.2-2.4.9-1.6 1.2-3 1.5-4.8.3-1.5.4-2.9.4-4.4 0-3.1-.5-6.3-.9-9.5-.7-4.7-2-9.3-2-14.3V144c0-3.7-.7-6.4-1.6-10.2-.4-1.8-1.2-4.6-1.2-7.1 0-1.5.2-2.9 1-4 .2-.3.6-.4.9-.2.3.2.4.6.2.9-.5.8-.8 2-.8 3.3 0 2.3.7 5 1.1 6.8.9 3.8 1.7 6.6 1.7 10.5v2.4c0 4.8 1.3 9.3 2 14.2.4 3.2 1 6.4 1 9.7 0 1.5-.1 3.1-.4 4.7-.3 1.8-.6 3.4-1.7 5.3-.6 1-1.6 1.8-2.3 2.7-.8.8-1.4 1.6-1.4 2.5 0 .3-.3.6-.6.6-.2 0-.3-.1-.4-.2 0 .1.1.1.1.2 1.7.1 3.4.1 5 .2-.1-.3-.1-.7-.1-1.1 0-2.2 1.5-4.4 2.8-5.7.2-.2.4-.2.7-.1.2.1.4.3.4.5v.1c0 .2 0 .3-.1.4 0 .1-.1.1-.1.1-.1.2-.3.3-.5.4-.9 1-1.7 2.5-1.9 3.8.2-.1.4-.2.6-.1l.3.3c.4 0 .7.1 1.1.2.2.1.4.1.5.2.3-1.6.8-3.2.8-4.2v-.2c0-.1.1-.1.1-.2.1-.1.3-.2.4-.2.2 0 .3.1.4.2.1.1.1.2.2.3v.8c0 .1 0 .2-.1.3-.2 1.5-.8 3.1-.9 4.4.4 0 .9 0 1.3.1h.4c0-.2 0-.5.1-.7.1-.3.5-.5.8-.4.2.1.3.2.4.4h.2c.3 0 .5.1.7.2.4-1.3.6-2.5.7-4.1-.1-.2-.2-.4-.1-.6v-.1s0-.1.1-.3c0-.1.2-.3.6-.3.3 0 .4.1.4.2l.1.1c0 .1.1.1.1.2s.1.2.1.3c0 1.9-.2 3.5-.7 5h.5c0-.3.1-.7.3-1 .2-.3.5-.4.8-.3.2.1.3.2.3.4.4.1.8.3 1 .6.6-.1 1.2-.2 1.8-.2v-.2c0-.7-.4-1.5-.8-2.4-.4-.9-1-1.8-1-2.8 0-.4.1-.9.3-1.3.2-.3.5-.4.8-.2.3.2.4.5.2.8-.1.2-.2.5-.2.7v.3s.1 0 .1-.1c.2-.1.4-.2.6-.2.1-.1.2-.1.3-.1l.3-.3c0-.1.1-.2.1-.3.2-.5.2-1 .2-1.6 0-2.5-1.5-5.8-1.7-8.3-.1-.8-.1-1.6-.1-2.3v-1.4c0-.8 0-1.6-.1-2.4-.3-2.4-1.3-5-1.7-7.6-.1-.5-.1-1-.1-1.5 0-2.3.6-4.2 1-6.3.3-1.6.3-3.2.3-4.9v-2.9c.2-4.4.5-11.5 3.9-15 .2-.2.6-.2.9 0 .2.2.2.6 0 .9-2.9 2.9-3.4 9.8-3.6 14.2v2.8c0 1.7 0 3.4-.3 5.2-.4 2.2-1 4-1 6 0 .4 0 .9.1 1.3.2 1.9 1 4 1.4 6.2 2.6-1.8 4.5-4.3 5.8-7.3 1.5-3.5 3.3-6.7 5.5-10 2.9-4.2 6-8.1 8.3-12.6 1.3-2.6 2.5-5.3 3.8-7.9.4-.7.8-1.9 1.3-3.1.5-1.2 1-2.3 1.6-2.9.2-.3.6-.3.9 0 .2.2.3.6 0 .9-.4.4-.9 1.5-1.4 2.6-.5 1.1-1 2.3-1.4 3.2-1.3 2.6-2.5 5.3-3.8 7.9-2.3 4.7-5.5 8.6-8.3 12.8-.9 1.3-1.7 2.5-2.4 3.8l.1.1c1.1 2 2 5.8 2.7 8.3.9 3.1 1.5 6.1 1.5 9.5 0 3.3.4 5.8 1.5 8.8.1 0 .2.1.2.2.1.2.1.3.1.4v.3c.9 2.2 2.8 5.1 3.1 7.9h.5c.3 0 .6.3.6.6v.1c.8 0 1.6 0 2.4.1.4-.1.9-.2 1.3-.2l-.3-.6c-.1-.3 0-.7.3-.8.1 0 .2-.1.3-.1 0-.1.1-.1.1-.2.1-.2.4-.4.6-.4-.2-.5-.4-1-.7-1.3-.2-.3-.2-.7.1-.9.3-.2.7-.2.9.1.6.8 1 1.8 1.2 2.7l.2.2c.3.3.5.6.6 1 1.4.1 3.3.4 4.9.4h.2c0-.3-.1-.4-.2-.5-.1-.1-.1-.1-.4-.2-.3 0-.6-.3-.6-.7 0-.3.3-.6.7-.6.3 0 .5.1.7.2h.3c.6.2 1.2.5 1.5 1.1.3-.4.4-.7.4-1v-.3c-.1 0-.2-.1-.3-.1-.1.1-.2.1-.4.1-.1 0-.2 0-.3-.1-.7-.3-1.5-.4-2.4-.7-.9-.2-1.8-.7-2.6-1.6-.2-.3-.2-.7.1-.9.3-.2.7-.2.9.1.5.7 1.1.9 1.9 1.2.5.1 1.1.2 1.6.4h.3c-.1-.1-.2-.2-.3-.2-.8-.7-1.9-1.2-2.5-1.4-2.2-.9-4.3-1-6.7-1h-2c-.3 0-.6-.3-.6-.6s.3-.6.6-.6h2c2.4 0 4.7.1 7.2 1 .8.3 1.9.9 2.8 1.6.4.3.7.6 1 1h.8c-1.8-1.4-3.5-3.1-5.5-4.1-1.2-.7-2.7-1.5-3.9-2.6 1.1.4 1.6 1 2.3 1.4z"/><path fill="#E5D5CA" d="M118.2 57.8c.2-.6.4-1.3.7-1.9-.2.3-.4.5-.6.8 0 .3 0 .7-.1 1.1z"/><path fill="#9C867A" d="M66.6 55.1c-1-.8-2.3-1.2-3.5-2.2-1.4-1.2-2.2-2.7-2.1-4.2 0-.9.2-1.7.6-2.6-.7 1.3-1.1 2.7-.8 4.4.7 3.6 4 6.8 7.8 8.8.2-.7.3-1.5.6-2.2-.9-.6-1.7-1.3-2.6-2zm-1-13.9c.7-.9 1.1-2.5 1.2-3.7V37c0-.6-.1-1.2-.1-1.9 0-.3 0-.5.1-.8-.2.3-.3.6-.4 1-.3 1.6-.3 2.5-.3 3.3 0 .5 0 .9-.2 1.4-.2.7-.7 1.4-1.6 2.5-.2.2-.3.4-.5.5.8-.7 1.4-1.2 1.8-1.8z"/><path fill="#9C867A" d="M76.9 29.1c1.4-.3-2.8 1-3.5 1.2l-2.1.6-1.3 1.3c-.8.8-1.7 1.3-1.9 2-.1.2-.1.5-.1.8 0 .6.1 1.2.1 1.9v.6c-.2 1.4-.6 3-1.5 4.3-1.1 1.5-2.7 2.5-3.4 3.7-.7 1.1-1 2.2-1 3.1 0 1.1.5 2.2 1.7 3.2.9.8 2.2 1.3 3.4 2.2.9.7 1.8 1.4 2.6 2.1h.2c.2.1.3.3.4.5.6.4 1.1.9 1.7 1.2 1.1.7 3.8 1.9 5.4 1.9.6 0 .9-.1 1.2-.3.2-.2.4-.5.4-1.2 0-.2 0-.4-.1-.7-.2-1.4-1.2-3.1-1.9-4.6-.5-1.2-.8-2.4-.9-3.7-.8-1.9-.7-3.7-.7-6.4 0-3-.2-6 .5-8.9.2-.8.5-1.6.7-2.3v-1.4c0-.3.3-.6.6-.6.2-.6.3-1.1.4-1.7l-.9 1.2z"/><path fill="#9C867A" d="M74.9 61.5c3.4.5 6.1.9 6-2.9 0-1.9-.9-3.5-1.9-5 .6 1.2 1.3 2.5 1.5 3.9 0 .3.1.6.1.8 0 .9-.3 1.7-.9 2.2-.6.5-1.3.6-2 .6-2.2 0-4.8-1.3-6.1-2.1-.5-.3-1-.6-1.4-1-.2.6-.3 1.3-.5 1.9.2.1.4.2.7.3 1.5.7 3.1 1.1 4.5 1.3zm34.7-41.6c1.9 1.1 3.6 2.2 5.2 3.9.7.7 1.6 1.9 2.5 3 .9 1 1.9 1.7 2.5 1.7.3 0 .7-.1 1.1-.6.8-.9 1-1.6 1-2.2 0-1.3-1.3-2.6-2.7-4-.7-.7-.9-1.4-1-2-.1-.6-.1-1.1-.3-1.7-.4-1.4-2.1-2.3-3.7-3.1-1.7-.9-3.4-1.1-5.1-1.1-2.4 0-4.8.5-7.6.6-1.2 0-2.4.1-3.6.3 2.2.6 4.3 1.5 6.4 2.3 2.4.6 3.5 1.9 5.3 2.9z"/><path fill="#9C867A" d="M119.2 17.5c.3.8.2 1.5.3 2 .1.5.1.8.7 1.3 1.4 1.4 3 2.8 3.1 4.9 0 1-.4 2-1.3 3 2.2-.1 4.2-1.1 4.2-3.8 0-3-3-3.4-4.9-5.2-1.7-1.7-1.9-3.4-3.9-4.5.7.5 1.4 1.2 1.8 2.3zM91.1 17c3.9-.7 6.2-.7 9.3.8.6.3 1.2.6 1.8 1 3.1 1.8 6.5 3.5 9.4 5.5 1.2.8 2.2 1.6 3.2 2.3-.1-.1-.2-.2-.4-.3-.2-.2-.3-.5-.2-.8 0-.1.1-.1.1-.2-.2-.2-.4-.4-.5-.6-1.5-1.5-3.1-2.6-4.9-3.7-2-1.2-3-2.3-5-3-3.3-1.3-6.5-2.7-9.9-2.7-.1.2-.2.3-.4.4-.2.1-.4 0-.6-.1-.1 0-.3.1-.4.1-.1.1-.1.1-.1.2L91.1 17zm8.6 27.7s.1 0 0 0c0-.1-.1-.2-.2-.4v.1s0 .1.2.3zm20.1.1s0 .1 0 0c.1.2.1.3.1.4 0 .2 0 .3-.1.4 0 .1-.1.2-.1.3-.6 1.7-1.6 2.8-2.9 3.4-1.2.6-2.6.9-4 1-2.8.3-5.5.4-7.1 2.1-.8.8-1 2.1-1.1 3.5-.1 1.4 0 3-.6 4.3-.7 1.5-2.4 2.6-3.9 2.9-.2 0-.5.1-.8.1-1.1 0-2.7-.2-3.5-.2h-.2c.1 0 .1.1.2.1.7.5 1.5.8 2.2.9.4-.1.7-.2 1.1-.2h.1c.2-.1.4-.1.6 0 0 0 .1 0 .1.1.7.1 1.5.2 2 .2h.3c1.3-.1 2.7-.6 4-1.2 2.8-1.3 4.3-4.1 7.7-5 1.5-.4 2.1-1.1 2.7-2.1.6-1 1-2.3 1.8-3.6.9-1.5 2.5-3.8 2.4-5.4 0-.3 0-.6-.2-.8-.1-.3-.4-.6-.7-.9 0-.1 0-.2-.1-.3z"/><path fill="#9C867A" d="M92.3 63.5c.9 2.6 2.9 2.2 5.5 2.3 1.3.1 2.7-.1 4.2-.5-.7 0-1.5-.1-2.1-.2-.2.2-.4.3-.6.3-.4 0-.5-.1-.7-.1h-.7c-.9-.1-1.8-.5-2.6-1.1-1-.7-1.8-1.6-2.2-2.7-.2-.6-.2-1.1-.2-1.7v-.3c-.8 1.2-1.1 2.6-.6 4zm27.9-20.7c0 .2 0 .3.1.5.1.3.3.6.6.9.3.3.7.7.9 1.3.2.4.3.9.3 1.3 0 2.3-1.8 4.6-2.6 6-.5.8-.8 1.6-1.2 2.4v1.3c.2-.2.4-.5.6-.8 2.4-3.1 3.8-7.3 3.1-11-.2-1.2-.8-2.1-1.6-2.8-.1.4-.2.6-.2.9zm-3.7-2.3c.7.5 1.4 1.2 1.9 1.8l.5.5c0-.6.2-1.1.3-1.5-1.1-.7-2.5-1.1-3.8-1.3.4.1.8.3 1.1.5zm.5 17.4v-.5c-.6.7-1.5 1.4-2.8 1.7-2.5.6-3.9 2.6-6.2 4.2 3.1-1.4 6-3.1 8.1-4.6.3-.2.6-.5.9-.8z"/><path fill="#9C867A" d="M95.3 61.8h.5c.9 0 2.5.2 3.5.2h.5c1.2-.2 2.6-1.2 3-2.2.5-1 .5-2.4.5-3.9.1-1.5.3-3.1 1.4-4.3.8-.8 1.7-1.3 2.7-1.7-.4-.4-.7-.9-1-1.4-.4-.7-.8-1.4-1.1-1.8-1-1.2-2.3-2.2-3.4-3.6-.2-.3-.1-.7.1-.9.3-.2.7-.1.9.1.9 1.2 2.2 2.2 3.3 3.6.5.6.8 1.3 1.2 2 .4.7.8 1.2 1.1 1.3.1.1.2.2.3.4.6-.1 1.2-.2 1.7-.2 2.1-.2 4.2-.3 5.7-1.1 1-.5 1.8-1.3 2.3-2.7-.1-.2 0-.4.1-.6 0-.1.1-.1.2-.2.1 0 .1-.1.4-.2-.6-.4-1.1-.9-1.6-1.4-.6-.6-1.2-1.3-1.7-1.6-1.2-.8-3-1.2-4.5-1.6-1.7-.5-3.3-.9-5-1.1-.6-.1-1.1-.2-1.6-.3-2 0-3.8.2-4.9 1.3v-.6c-.8.3-1.4 1-1.8 2-.6 1.3-.9 2.9-1 4.1-.2 2.6-.2 5.1-.9 7.7.1-.1.3-.2.4-.2.3 0 .6.3.6.6 0 .4-.1 1.1-.1 1.7 0 .5 0 .9.1 1.1.1.2.1.2.2.2h.2c.3-.1.7.1.8.5.1.3-.1.7-.5.8-.2 0-.3.1-.5.1-.7 0-1.2-.5-1.3-1-.2-.5-.2-1-.2-1.6 0-.6.1-1.2.1-1.5-.1.3-.2.5-.3.8-.7 1.8-1.6 3.8-1.6 5.5 0 .4.1.9.2 1.3.1.3.3.7.6 1 .1-.6.3-.5.4-.6zM113.5 42h.2c.7 0 1.2.4 1.5.8.3.4.6.7.8.9.3.2.3.6.1.9-.1.2-.3.2-.5.2-.1 0-.3 0-.4-.1-.4-.3-.7-.7-1-1-.3-.3-.5-.4-.6-.4-.3 0-.6-.2-.7-.6 0-.3.3-.6.6-.7zm-4 0h.3c1.2 0 2.4.3 3.3 1.3.2.3.2.7-.1.9-.1.1-.3.2-.4.2-.2 0-.3-.1-.5-.2-.6-.7-1.3-.9-2.3-.9h-.2c-.3 0-.6-.3-.6-.6-.1-.4.2-.7.5-.7zm-.9 1.6c1.3.1 2.3.8 3 1.6.2.3.2.7-.1.9-.1.1-.3.1-.4.1-.2 0-.4-.1-.5-.2-.5-.6-1.3-1.1-2-1.2-.3 0-.6-.3-.6-.7-.1-.3.2-.6.6-.5zm-5-3.3c.1-.3.4-.5.7-.4.1 0 .1 0 .2.1h.1c0-.1.1-.1.1-.2.2-.3.6-.4 1-.4.2 0 .3 0 .5.1s.4.3.4.6v.8c0 .4 0 .9-.2 1.4-.1.4-.6 1-1.3 1h-.3c-.7-.2-.9-.7-1.1-1.1-.2-.5-.3-.9-.3-1.3v-.1c.2-.3.2-.4.2-.5zm-2.7 11.4c-.5.7-.8 1.8-.8 2.7 0 .4.1.7.2 1 .1.3 0 .7-.4.8h-.2c-.3 0-.5-.2-.6-.4-.2-.4-.2-.9-.2-1.4 0-1.2.4-2.4 1-3.3.2-.3.6-.4.9-.2.2.2.3.6.1.8zm1.9-.5v.3c0 .8-.2 1.5-.3 2.1.3.1.5.4.4.7 0 .3-.3.5-.6.5h-.5c-.2-.1-.4-.3-.5-.5v-.5c0-.9.3-1.7.3-2.3v-.2c0-.3.2-.6.6-.7.2 0 .5.3.6.6zm-4.6-6.8c0-.2.1-.5.2-.7.2-.4.7-.7 1.1-.7.6 0 1.1.4 1.5.7.2.2.4.4.6.5.2.1.3.3.5.4.2.2.2.5.1.8-.4.6-1 .8-1.6.8-.5 0-1-.1-1.5-.4-.5-.3-.9-.8-.9-1.4z"/><path fill="#412C28" d="M121.9 28.6c.9-1.1 1.3-2.1 1.3-3.1 0-2.1-1.7-3.5-3.1-4.9-.5-.5-.6-.8-.7-1.3-.1-.5 0-1.1-.3-2-.3-1-1-1.8-1.8-2.4-.8-.6-1.7-1.1-2.5-1.5-1.9-1-3.8-1.3-5.7-1.3-2.6 0-5 .5-7.6.6-2.5.1-5.1.3-7.6 1h-.6c-.2 0-.4.1-.5.3-2.2.7-4.3 1.7-6 3.4-1.6 1.5-3 3.1-4.8 4.2-1.6 1.1-3.5 1.6-5.3 2.8-2.7 1.9-5.3 4.4-7.6 6.7-.6.6-1.8 1.2-2.2 2.5 0 .1-.1.3-.1.4 0 .3-.1.5-.1.8 0 .7.1 1.4.1 1.9v.5c-.2 1.3-.6 2.8-1.2 3.7-.4.6-1 1.1-1.6 1.7-.7.6-1.3 1.3-1.8 2.1-.2.4-.4.8-.6 1.1-.4 1.2-.6 2.1-.6 2.9 0 1.5.7 3 2.1 4.2 1.2 1 2.5 1.4 3.5 2.2.9.6 1.7 1.4 2.6 2.1-.2.7-.4 1.4-.6 2.2-.6 2.6-.8 5.3-2.1 7.6-2 3.5-3 6.9-4.2 10.5-1.2 3.7-5.5 7-8 10.2-2 2.5-3.6 5.1-5.1 7.9-.5.9-1 1.9-1.4 2.9-1.8 4-5.5 7.2-7.1 11.5-1.7 4.6-4.5 8.6-6.4 13.3-.9 2.2-2 4.4-2.9 6.7-1 2.5-2.6 4.7-4.2 7.2-3 4.4-5 9.6-5.8 14.9-.1.9-.2 1.7-.2 2.5 0 2.2.5 4.2 1.2 6.5.6 2 1.2 4.2 1.2 6.2 0 .5 0 1.1-.1 1.6-.4 2.5-1.9 4.9-3.4 7.3-.4.6-.7 1.2-1.1 1.7-1.1 1.9-2.1 3.8-2.4 6 0 .2.1.5.3.6 3.1 1.9 6.1 3.6 10 3.8h1.8c1.7 0 3.4-.1 5.1-.4.1.1.2.1.3.2h.1c.2 0 .4-.1.5-.3l1.8-.3c0 .1.1.1.1.2.1.1.2.1.4.1.3 0 .5-.2.6-.4v-.2c.6-.1 1.2-.3 1.7-.4 1.1-.3 1.9-.7 2.4-1.3.1-.1.2-.2.3-.4.1 0 .2.1.3 0 .7-.1 1.5-.1 2.3-.1 1.8 0 3.8.2 5.8.4 1.8.2 3.5.4 5.2.6 1.3.1 4 .6 6.4.6 1.1 0 2.1-.1 2.9-.4.3.5.7 1 1.2 1.2.8.4 1.7.5 2.6.5.9 0 1.7-.1 2.4-.1h.4c.3 0 .6 0 .9.1.4.6 1 1.1 1.8 1.2h.1c.3 0 .6-.2.6-.5 0-.1.1-.3.1-.5.9.1 1.8.2 2.7.2v1.4c0 .2.1.5.3.6.1.1.2.1.3.1.1 0 .3 0 .4-.1.4-.3.7-.8 1-1.5 0-.1 0-.1.1-.2l.2-.2c.6 0 1.3.1 2 .1.1.3.2.6.2.8.1.2.2.4.4.4h.2c.1 0 .3 0 .4-.1.5-.4.9-.8 1.1-1.3.3-.1.7-.1 1-.3.8-.3 1.5-.9 1.7-1.9.1-.3.1-.5.1-.8v-.7c1.2 0 2.5.1 3.7.2 4.4.2 8.9.6 13.3.6 0 0 0 .1.1.1.9.6 1.9.8 2.9.8 1.2 0 2.3-.3 3.4-.4.2.5.3.9.3 1.4v.2c0 .2.1.4.2.5.1.1.3.1.4.1h.1c.6-.1 1.1-.6 1.4-1 .2-.4.4-.9.4-1.3 1.3.1 3.2.4 4.8.4h.4c0 .2.1.3.1.5.1.2.2.3.3.3.2.1.5.2.7.2h.1c.1 0 .3 0 .4-.1.5-.4.8-1 .8-1.5.1 0 .1-.1.2-.1.2-.2.4-.5.6-.7.2-.3.4-.7.4-1 .2.2.5.3.8.5.1 0 .2.1.3.1h.3c.1-.1.2-.1.3-.3.2-.3.2-.6.2-.9v-.4c-.1-.5-.5-.9-.9-1.1-.3-.2-.7-.2-1-.3h-.8c-.3-.4-.6-.7-1-1-1-.8-2.1-1.3-2.8-1.6-2.4-1-4.7-1-7.2-1h-2c-.3 0-.6.3-.6.6s.3.6.6.6h2c2.4 0 4.5.1 6.7 1 .6.2 1.7.8 2.5 1.4.1.1.2.2.3.2h-.3c-.6-.2-1.1-.3-1.6-.4-.8-.2-1.4-.5-1.9-1.2-.2-.3-.6-.3-.9-.1-.3.2-.3.6-.1.9.7.9 1.7 1.4 2.6 1.6.9.2 1.7.4 2.4.7.1 0 .2.1.3.1.1 0 .3-.1.4-.1.1 0 .2.1.3.1v.3c0 .3-.1.6-.4 1-.4-.5-.9-.9-1.5-1.1h-.3c-.2-.1-.5-.2-.7-.2-.3 0-.6.2-.7.6 0 .3.2.6.6.7.3 0 .4.1.4.2.1.1.1.2.2.5h-.2c-1.5 0-3.5-.3-4.9-.4-.1-.4-.3-.7-.6-1l-.2-.2c-.2-1-.6-1.9-1.2-2.7-.2-.3-.6-.3-.9-.1-.3.2-.3.6-.1.9.3.3.5.8.7 1.3-.2 0-.5.2-.6.4 0 .1-.1.1-.1.2-.1 0-.2 0-.3.1-.3.1-.4.5-.3.8l.3.6c-.5.1-.9.2-1.3.2-.5.1-1 .1-1.5.1-.3 0-.6 0-.9-.1v-.2c0-.3-.3-.6-.6-.6h-.5c-.2-2.8-2.2-5.7-3.1-7.9v-.3c0-.1 0-.2-.1-.4 0-.1-.1-.1-.2-.2-1-3-1.5-5.5-1.5-8.8 0-3.5-.6-6.4-1.5-9.5-.7-2.5-1.6-6.3-2.7-8.3l-.1-.1c.7-1.3 1.5-2.5 2.4-3.8 2.8-4.1 6-8.1 8.3-12.8 1.3-2.6 2.5-5.3 3.8-7.9.4-.8.9-2 1.4-3.2.5-1.1 1-2.2 1.4-2.6.2-.2.2-.6 0-.9-.2-.2-.6-.2-.9 0-.6.7-1.1 1.8-1.6 2.9-.5 1.2-1 2.4-1.3 3.1-1.3 2.6-2.5 5.3-3.8 7.9-2.2 4.5-5.4 8.4-8.3 12.6-2.2 3.2-4 6.4-5.5 10-1.3 3-3.2 5.5-5.8 7.3-.4-2.1-1.2-4.2-1.4-6.2-.1-.5-.1-.9-.1-1.3 0-2 .6-3.8 1-6 .3-1.7.3-3.5.3-5.2v-2.8c.1-4.3.6-11.3 3.6-14.2.2-.2.2-.6 0-.9-.2-.2-.6-.2-.9 0-3.4 3.5-3.7 10.6-3.9 15v2.9c0 1.7 0 3.4-.3 4.9-.4 2.1-1 4-1 6.3 0 .5 0 1 .1 1.5.3 2.6 1.4 5.1 1.7 7.6.1.8.1 1.6.1 2.4v1.4c0 .8 0 1.5.1 2.3.3 2.5 1.8 5.8 1.7 8.3 0 .6-.1 1.1-.2 1.6 0 .1-.1.2-.1.3l-.3.3c-.1.1-.2.1-.3.1-.2.1-.4.1-.6.2 0 0-.1 0-.1.1v-.3c0-.2 0-.5.2-.7.2-.3.1-.7-.2-.8-.3-.2-.7-.1-.8.2-.2.4-.3.9-.3 1.3 0 1.1.5 2 1 2.8.5.9.8 1.7.8 2.4v.5c-.2.5-.5.8-1 1.1-.1 0-.2.1-.3.1 0-.4-.2-.8-.5-1.1-.3-.3-.6-.6-1-.6 0-.2-.2-.3-.3-.4-.3-.2-.7 0-.8.3-.2.3-.2.6-.3 1v.1c-.1.2-.2.5-.2.8v.3c-.3 0-.5 0-.8-.1.2-.3.3-.7.4-1 .5-1.6.7-3.2.7-5 0-.1 0-.2-.1-.3 0-.1 0-.1-.1-.2 0 0 0-.1-.1-.1-.1-.1-.2-.2-.4-.2-.4 0-.5.3-.6.3-.1.2-.1.2-.1.3v.1c-.1.2-.1.5.1.6-.1 1.6-.2 2.8-.7 4.1-.2-.2-.5-.3-.7-.2h-.2c-.1-.2-.2-.3-.4-.4-.3-.1-.7.1-.8.4-.1.2-.1.5-.1.7v.7c-.6 0-1.1-.1-1.7-.2v-.7c.1-1.3.6-2.9.9-4.4.1-.1.1-.2.1-.3v-.8c0-.1-.1-.2-.2-.3-.1-.1-.3-.2-.4-.2-.2 0-.3.1-.4.2-.1.1-.1.1-.1.2v.2c0 1.1-.5 2.7-.8 4.2-.1 0-.3-.1-.5-.2-.3-.1-.7-.2-1.1-.2l-.3-.3c-.2-.1-.5 0-.6.1.2-1.3 1-2.8 1.9-3.8.2 0 .4-.2.5-.4 0 0 0-.1.1-.1.1-.1.1-.3.1-.4v-.1c0-.2-.2-.5-.4-.5-.2-.1-.5 0-.7.1-1.3 1.3-2.8 3.4-2.8 5.7 0 .4 0 .7.1 1.1 0 .2.1.4.2.5h-.1c-.8 0-1.6.1-2.4.1-.8 0-1.6-.1-2.1-.3-.2-.1-.4-.3-.6-.5 0-.1-.1-.1-.1-.2.1.1.2.2.4.2.3 0 .6-.3.6-.6 0-.8.6-1.6 1.4-2.5.8-.8 1.7-1.6 2.3-2.7 1.1-1.8 1.3-3.5 1.7-5.3.3-1.6.4-3.1.4-4.7 0-3.3-.5-6.5-1-9.7-.7-4.8-2-9.4-2-14.2v-2.4c0-3.9-.8-6.7-1.7-10.5-.4-1.8-1.1-4.5-1.1-6.8 0-1.3.2-2.5.8-3.3.2-.3.1-.7-.2-.9-.3-.2-.7-.1-.9.2-.8 1.1-1 2.5-1 4 0 2.6.7 5.3 1.2 7.1.9 3.8 1.6 6.5 1.6 10.2v2.5c0 5 1.3 9.6 2 14.3.5 3.2.9 6.4.9 9.5 0 1.5-.1 3-.4 4.4-.3 1.8-.6 3.2-1.5 4.8-.4.8-1.3 1.6-2.2 2.4-.8.8-1.6 1.8-1.7 3.1 0-.3-.4-.6-.7-.5-.3 0-.6.4-.5.7-.6.2-1.5.4-2.5.4-2.2 0-4.8-.5-6.3-.6-3.5-.3-7.5-1-11.1-1-.7 0-1.4 0-2.1.1v-.3c0-1.8-1.5-3.4-3.3-4.7-.8-.6-1.9-1.2-3.1-1.9 3.1-1 6.9-2.7 10.2-5.1 3.6-2.6 6.6-6.1 6.9-10.2 0-.5.1-1 .1-1.5 0-1.8-.2-3.7-1.1-5.3-1.3-2.2-3.1-5.9-5.2-7.7-2.5-2.1-6.2-2.2-9-2.2h-1.5c-.3 0-.6.3-.6.6s.3.6.6.6h1.5c2.7 0 6.2.2 8.2 1.9 1.8 1.5 3.6 5.1 4.9 7.4.7 1.3 1 3 1 4.7v1.4c-.2 3.5-2.9 6.7-6.4 9.2-3.5 2.5-7.7 4.3-10.8 5.2-.1 0-.1.1-.2.1-1.7-.8-3.6-1.4-5.1-1.4H30c-.3 0-.6.3-.6.7 0 .3.3.6.7.6h.1c2.6 0 6.9 2.2 9.1 3.8 1.6 1.1 2.8 2.7 2.7 3.6 0 .4-.1.7-.5 1l-.1.1c.2-.3.3-.7.3-1.1 0-.2 0-.5-.1-.7-.1-.3-.4-.5-.7-.5-.3 0-.6.3-.6.6v.4c0 .1 0 .2.1.3 0 .3-.1.4-.3.5-.2.1-.5.2-1 .2h-.3c-.4-.2-.9-.4-1.4-.6.1-.4.3-.8.3-1.2.2-.9.2-1.8.2-2.5v-.7c0-.1-.1-.2-.1-.2s-.1-.1-.2-.1-.2-.1-.2-.1h-.2c-.1 0-.1.1-.2.1-.1.1-.2.2-.2.3 0 .8 0 1.8-.2 2.8 0 .2-.1.4-.1.5-.1 0-.2 0-.3.1l-.2.2c-.5.1-.9.2-1.3.4h-.1c-.2-.1-.4-.1-.6 0-.1.1-.2.1-.2.2-.2 0-.3.1-.4.1-.1 0-.3 0-.3-.1-.2-.1-.3-.2-.4-.4-.1-.2-.2-.6-.2-1 0-.6.1-1.2.2-1.8.1-.3.2-.5.2-.8.2-.1.3-.2.4-.4.1-.2 0-.4-.1-.6v-.2c0-.2 0-.3-.1-.4-.1-.2-.4-.4-.6-.4-.3 0-.5.2-.5.5 0 .1-.1.3-.1.4-.1.1-.1.2-.2.3 0 .3-.1.7-.2 1.3-.1.3-.2.6-.4.9-.1.2-.6.6-1 1l-.1.1c-.1-.1-.1-.2-.2-.2-.3-.2-.7-.3-1.2-.3-.3 0-.6 0-.9.1l-.1-.1c-.1-.1-.3-.1-.4 0 0-.8.3-1.7.9-2.3h.1c.3.1.7-.1.8-.4.1-.2.1-.4.1-.6 0-.2 0-.5-.2-.6-.2-.1-.4-.2-.7-.1-1.4.7-2.2 2.4-2.2 4 0 .8.2 1.5.6 2.2.2 1.1.7 2.2 1.6 2.8.1.1.2.1.4.1.1 0 .2 0 .3-.1.2-.1.3-.3.4-.5 0-.2.2-.8.5-1.4.1-.2.2-.4.3-.5.3-.1.5-.3.5-.6.1-.2.5-.5.8-.8 0 0 .1-.1.2-.1 0 .4.1.8.2 1.2.2.5.6.9 1.1 1.1.3.1.5.1.8.1.2 0 .5 0 .7-.1.1.3.1.5.1.8v.2c0 .1 0 .2.1.2v.3c-1.6.2-3.3.3-4.9.3h-1.8c-3.1-.2-5.6-1.4-8.3-3-.3-.2-.5-.3-.8-.5.1-.4.2-.7.3-1.1.6-2 1.7-3.8 2.9-5.7 1.5-2.4 3.1-4.9 3.6-7.7.1-.6.2-1.2.2-1.8 0-2.3-.7-4.6-1.3-6.6-.7-2.3-1.1-4.1-1.1-6.1 0-.7.1-1.5.2-2.4.8-5 2.8-10.1 5.6-14.4 1.6-2.4 3.3-4.7 4.3-7.4.9-2.2 2-4.3 2.9-6.7 1.8-4.5 4.7-8.6 6.4-13.4 1.4-3.9 5.1-7.1 7.1-11.4 1.7-3.8 3.7-7.2 6.3-10.5 2.4-3.1 6.8-6.4 8.2-10.6.1-.2.1-.3.2-.5 1.1-3.5 2.1-6.6 3.9-9.8.1-.1.1-.2.2-.3.6-1.2 1-2.5 1.3-3.8.3-1.2.5-2.4.7-3.5.1-.7.3-1.3.5-1.9.5.3.9.7 1.4 1 1.3.8 3.9 2.1 6.1 2.1.7 0 1.4-.2 2-.6.6-.5.9-1.2.9-2.2 0-.3 0-.5-.1-.8-.2-1.4-.9-2.7-1.5-3.9-.2-.4-.3-.7-.5-1-.8-1.7-1-4.1-1.1-6.2V44c0-4.8.9-9.6.9-14.5 0-.3-.3-.6-.6-.6s-.6.3-.6.6v1.4c-.1 4.3-.8 8.7-.8 13.1v1.6c0 .9.1 1.9.2 2.9.2 1.3.4 2.6.9 3.7.7 1.5 1.7 3.2 1.9 4.6 0 .2.1.5.1.7 0 .7-.2 1-.4 1.2-.2.2-.6.3-1.2.3-1.7 0-4.3-1.2-5.4-1.9-.6-.4-1.2-.8-1.7-1.2 0-.2-.2-.4-.4-.5h-.2c-.8-.7-1.7-1.4-2.6-2.1-1.2-.9-2.5-1.4-3.4-2.2-1.2-1-1.7-2.1-1.7-3.2 0-.9.3-2 1-3.1.7-1.2 2.3-2.2 3.4-3.7.9-1.3 1.3-3 1.5-4.3v-.6c0-.7-.1-1.4-.1-1.9 0-.3 0-.6.1-.8.2-.7 1.1-1.2 1.9-2 .4-.4.9-.8 1.3-1.3.7-.7 1.4-1.3 2.1-2 1.3-1.2 2.7-2.4 4.1-3.3 1.3-.9 2.8-1.4 4.3-2.2.3-.2.7-.4 1-.6 1.2-.8 2.2-1.8 3.2-2.7.6-.5 1.1-1.1 1.7-1.6 1.4-1.3 3.1-2.2 5-2.9.1 0 .3-.1.4-.1.2.1.4.2.6.1.2-.1.4-.2.4-.4 3.4 0 6.5 1.5 9.9 2.7 2 .7 3 1.9 5 3 1.9 1.1 3.4 2.1 4.9 3.7.2.2.3.3.5.6-.1.1-.1.1-.1.2-.1.3-.1.6.2.8.1.1.3.2.4.3 1.1 1.1 1.2 2.7 2 4.5.6 1.3 1.3 2.6 1.9 3.9.2.3.3.7.5 1 .4.9.6 1.8.6 2.7 0 .4 0 .9-.1 1.4 0 .3-.1.5-.1.8 0 .2-.1.3-.1.5-.1.5-.3.9-.3 1.5-.2-.2-.4-.3-.5-.5-.6-.6-1.2-1.3-1.9-1.8-.3-.2-.7-.4-1-.5-.1 0-.2-.1-.3-.1.1-.3-.1-.6-.4-.7-1.5-.7-2.8-1.7-4.3-2.6.6 0 1.3-.2 1.8-.5 1-.6 1.4-1.6 1.4-2.5 0-1.8-1.4-3.5-3-4.1-.4-.1-.8-.2-1.2-.2h-.3c-.5-.2-.9-.3-1.4-.3-1.6 0-2.9 1.2-3.2 2.7-.6-.5-1.2-1-1.9-1.4 2.8-.4 5.2-2.1 7.6-2 .4 0 .9.1 1.3.2.9.2 1.5.9 2 1.8s.7 2 .7 3.1c0 1-.2 2-.6 2.7-.2.3-.1.7.2.9.1.1.2.1.3.1.2 0 .4-.1.5-.3.5-.9.8-2.1.8-3.3 0-1.3-.3-2.6-.9-3.7-.6-1.1-1.5-2.1-2.8-2.4-.6-.2-1.1-.2-1.7-.2-3.2 0-6 2.1-8.6 2.1h-.7c-.1-.1-.3-.2-.5-.1h-.3c-.3 0-.6.2-.6.5s.1.6.4.7c.2.1.4.1.6.1 0 .2.2.4.3.5 1.4.7 2.5 1.6 3.6 2.7.1.4.3.7.5 1 .2.2.4.5.7.7-1.2-.1-2.7-.2-4.1-.2-.6 0-1.2 0-1.7.1l-.1-.1c-1.4-1.1-2.4-2-2.4-3.3 0-.4.1-.7.2-1.2.2-.5.9-1.4 1.8-2.1.9-.7 2-1.2 2.7-1.2.2 0 .4 0 .5.1.3.2.7.1.9-.2.2-.3.1-.7-.2-.9-.4-.2-.8-.3-1.2-.3-1.2 0-2.4.7-3.4 1.5s-1.9 1.8-2.2 2.7c-.2.6-.3 1.1-.3 1.6 0 1.6.9 2.7 2 3.6-.5.1-1 .2-1.5.4-.3.1-.7.3-1 .5-.3-.6-.6-1.1-1.1-1.4-.7-.6-1.5-.8-2.4-.8-2.1 0-4.4 1.2-6.4 2.6-2 1.4-3.8 2.9-4.6 3.7-.2.2-.2.6 0 .9.1.1.3.2.4.2.2 0 .3-.1.5-.2.7-.8 2.4-2.3 4.4-3.6 1.9-1.3 4.2-2.4 5.7-2.3.6 0 1.2.2 1.6.5.3.3.6.6.8 1.2-1 .9-1.7 2.2-2.1 3.6l-.3 1.2c-.1 0-.1-.1-.2-.1l-.4-.4c-.4-.4-.8-1-1.1-1.5-.2-.3-.3-.5-.4-.7 0-.1-.1-.2-.1-.2v-.1c0-.3-.2-.6-.5-.7h-.6c-.2.1-.2.1-.2.2-.2.2-.5.7-1 1.2-.4.5-.8 1.1-1 1.3-.7.8-1.5 1.6-2.1 2.4-1.1 1.3-1.8 3.1-1.8 5 0 .4 0 .8.1 1.1.3 1.3 1.2 2.5 2.3 3.4 1.2.9 2.6 1.4 4 1.4 1 0 2-.3 2.8-1v1.5c0 .3.3.6.6.6s.6-.3.6-.6c0-1.4-.1-3.3-.2-5.3.2-.5.4-1 .4-1.5s-.1-1-.4-1.5c.1-1.9.3-3.7.8-5.3.4-1.2.9-2.1 1.6-2.9.2 0 .4 0 .6-.2.1-.1.3-.2.4-.5 0-.1.1-.1.1-.2l.6-.3c1.1-.4 2.8-.6 4.5-.6 1.6 0 3.3.1 4.6.3 1.9.2 3.4 1.2 5.1 2.3-1.6-.5-3.4-.9-5.1-1.1-.8-.1-1.8-.4-2.8-.4h-.1c-.7 0-1.4.2-2 .4-.2.1-.5.1-.7.2-.3 0-.6.1-.9.1-.2 0-.3 0-.5.2-1.2.5-2 1.5-2.5 2.6-.7 1.5-1.1 3.2-1.1 4.6-.2 3.1-.2 5.9-1.3 8.7-.6 1.6-1.6 3.6-1.7 5.6v.3c0 .6.1 1.1.2 1.7.3 1.1 1.2 2 2.2 2.7.8.6 1.7.9 2.6 1.1.1.1.3.1.4 0h.3c.1 0 .2.1.7.1.2 0 .5-.1.6-.3.7.1 1.4.2 2.1.2h.4c1.6-.2 3-.7 4.4-1.3.5-.2.9-.5 1.3-.7 2.3-1.6 3.8-3.6 6.2-4.2 1.3-.3 2.1-.9 2.8-1.7v.5c-.1 1.1-.2 2.3-.3 3.4-.4.1-.8.4-1.1.6-.4.3-.8.7-1.1.8-.6.3-1.2.5-1.8.7-.6.2-1.3.6-1.9 1.2-.9 1-1.6 2.5-2.5 2.8-.2.1-.4.1-.7.1-.9 0-2-.4-3-.6h-.7c-1 0-1.8.4-2.2 1-.5.9-.4 2-.5 2.7 0 .4-.1.6-.3.8-.1.2-.3.3-.9.3h-.1c-.4 0-1.1-.2-1.8-.6-.7-.3-1.4-.8-1.9-1-.6-.3-2.4-1.3-4-2.2-.8-.5-1.6-1-2.1-1.3-.3-.2-.5-.4-.6-.5 0-.1-.1-.3-.2-.4-.2-.3-.6-.3-.9 0-.1.1-.2.3-.2.5.1.5.3.6.5.8.7.6 2.1 1.5 3.6 2.4 1.5.8 2.9 1.6 3.4 1.9.5.2 1.2.7 1.9 1 .7.4 1.5.7 2.3.7h.2c1-.1 1.7-.6 2-1.2.4-1 .3-2 .4-2.7.1-.3.2-.5.3-.7.1-.1.4-.3 1-.3h.5c.7.1 1.9.5 3.1.6.4 0 .8-.1 1.1-.2 1.5-.7 2.1-2.4 2.9-3.1.5-.5.9-.7 1.5-.9.5-.2 1.2-.4 2-.8.5-.3.9-.6 1.3-.9.1 0 .1-.1.2-.1-.1 1.4-.2 2.8-.2 4.2 0 4.4.5 8.7.8 13 .4 3.9 2.8 6.7 2.7 10.2v.4c-.1 1.6-.7 3.3-.8 5.2v.4c0 1.9.6 3.4 1 5 .4 1.5.6 3 .6 4.5 0 1.3-.2 2.7-.8 3.9-.7 1.4-1 2.5-1.5 3.8-.4 1-1.2 1.8-1.9 2.9-.3 0-.5.3-.5.6v.5c-.1.1-.1.2-.2.4v.4c-.5 2.1-1.8 4-2.7 6.1-.8 2.1-1.1 4.8-1.3 6.8-.5 5-1 9.9-1.7 14.8-.2 1.2-.2 2.4-.2 3.6 0 3.2.5 6.3.9 9.3.1.8.1 1.5.1 2.3 0 .8 0 1.7-.1 2.5-.1 1.6-.3 3.1-.3 4.8v1.3c.1.9.1 1.8.3 2.8.1.5.2 1.1.4 1.6.4 1.5 1.2 2.8 2.5 3.6.1.1.2.1.3.1.2 0 .4-.1.5-.3.2-.3.1-.7-.2-.9-.7-.4-1.2-1.1-1.6-1.9-.1-.3-.3-.6-.4-1-.4-1.3-.6-2.8-.6-4.1v-1.2c0-2.4.4-4.8.4-7.3 0-.8 0-1.6-.2-2.5-.1-.9-.2-1.7-.3-2.6-.3-2.2-.5-4.4-.5-6.6 0-1.2.1-2.3.2-3.5.7-4.9 1.2-9.8 1.7-14.9.2-2.1.5-4.7 1.2-6.5.8-2.2 2.6-4.4 2.9-7.1.6-1.2 1.7-2.3 2.4-3.8.6-1.4.9-2.5 1.5-3.8.7-1.4.9-2.9.9-4.4 0-1.6-.3-3.3-.7-4.8-.4-1.7-1-3.1-1-4.7v-.3c0-.7.2-1.4.3-2.1.2-1 .5-2 .5-3.1v-.5c0-2-.6-3.7-1.2-5.3-.7-1.7-1.4-3.3-1.5-5-.4-4.2-.8-8.2-.8-12.3v-.5c0-1.6.1-3.3.3-4.9 0-.1.1-.2.1-.3V61c.1-1.3.3-2.6.4-3.9 0-.4 0-.8.1-1.1v-1.3c.4-.8.7-1.7 1.2-2.4.8-1.5 2.6-3.7 2.6-6 0-.4-.1-.9-.3-1.3-.2-.6-.6-1-.9-1.3-.3-.3-.5-.6-.6-.9-.1-.2-.1-.4-.1-.5 0-.2.1-.5.2-.8.1-.3.2-.6.3-1 .2-.8.3-1.6.3-2.4 0-1.1-.2-2.2-.7-3.3-.8-1.6-1.5-3.2-2.3-4.9-.3-.6-.5-1.3-.7-2.1.8.7 1.6 1.3 2.7 1.3-.6.6.2.2.8-.5zM112 186.7c0-.1 0-.2-.1-.3l.1.1c.1.1 0 .2 0 .2zm-11.4-10.8h-.8c-1.1 0-2.3-.1-3.2-.3 1.2-1.2 2.2-2.7 2.9-4.3.2 1.6.5 3.1 1.1 4.6zm-13.9-6.3c-.1-.7-.1-1.4-.1-2.2V166c0-.8 0-1.7-.1-2.6h.4c.3 0 .6-.3.6-.6v-.2c2.5-1.9 4.4-4.5 5.7-7.5.7-1.6 1.4-3.1 2.2-4.6.8 1.9 1.7 5.2 2.3 7.5.9 3.1 1.5 5.9 1.5 9.2v1.1c-.5 2.5-1.9 5-3.8 6.8-1.1 1.1-2.8 1.8-4.4 2.6-.9.4-1.8.8-2.6 1.2v-.8c0-3-1.5-6.3-1.7-8.5zm-.7 12.2c.2-.1.5-.2 1-.4.2-.1.5-.3.7-.6 1-.8 2.3-1.4 3.8-2.1 1.4-.6 2.8-1.2 4.1-2.2 1.2.6 2.8.6 4.2.6h1.3c.9 2.4 2.8 5.2 3 7.5-5.7-.1-11.5-.6-17.3-.8-.2-.4-.4-.8-.6-1.1-.1-.2-.3-.5-.4-.7l.2-.2zm-3 5.7s-.1 0 0 0c-.1-.1-.1-.1 0 0 .1-.2.2-.3.2-.5.1.1.1.3.1.5H83zm-46.8-1.6c0 .2.1.3.1.5-.2 0-.4.1-.6.1.2-.2.3-.4.5-.6zM89.5 49.6c.6-.5 1-1.1 1-1.7 0-.8-.5-1.4-1-1.9-.6-.4-1.3-.7-2.1-.7h-.1c-.2 0-.4 0-.6.1.1-.1.1-.2.2-.2.4-.3.9-.5 1.5-.5.9 0 1.9.3 2.7.9.4.3.6.6.9.9v2.4c-.1.2-.3.5-.5.7-.7.8-1.4 1-2.1 1-.6 0-1.1-.2-1.7-.5.2 0 .4.1.6.1.3-.2.8-.3 1.2-.6zm-.8-1l.1-.1c.2-.2.3-.5.4-.8v.1c0 .2-.1.5-.5.8zm-2.1-.9c-.2-.3-.3-.5-.4-.7 0-.1.1-.2.2-.2.1-.1.2-.2.5-.2l-.1.1c-.2.3-.3.6-.3.8.1 0 .1.1.1.2zm1.1-6.3c.3-.3.7-.9 1.1-1.5.1-.1.2-.3.3-.4 0 .1.1.1.1.2.3.6.8 1.3 1.3 1.8.2.3.5.5.7.7.2.2.4.4.8.4h.1c0 .7-.1 1.4-.1 2l-.2-.2c-.9-.7-2.1-1.1-3.3-1.1-.1-.2-.3-.3-.5-.3-1.2 0-2.1.6-2.7 1.3-.1.1-.1.2-.2.2.2-.3.4-.6.6-.8.6-.7 1.3-1.5 2-2.3zm3.8 10.2c-.6.7-1.4 1-2.3 1-1.1 0-2.3-.5-3.2-1.2-1-.7-1.7-1.7-1.8-2.6-.1-.3-.1-.6-.1-.9 0-.8.2-1.6.5-2.3-.2.5-.2.9-.2 1.4 0 .9.3 1.9 1 2.6 1.1 1.2 2.5 2.1 4 2.1.9 0 1.8-.4 2.6-1.1v.7c-.2.1-.4.1-.5.3zm21-18.1c0 .6-.2 1-.9 1.5-.3.2-.8.3-1.4.3-.5 0-1-.1-1.5-.2.7 0 1.4-.3 2-.7.6-.4 1-1 1-1.8 0-.7-.4-1.5-1.2-2 1 .5 2 1.8 2 2.9zm-4.9-.5c.4 0 .8-.1 1.1-.4.3-.3.6-.7.6-1.2.1.1.2.1.3.2.7.5.8.9.8 1.1 0 .3-.2.6-.5.8-.3.2-.8.4-1.3.4-.6 0-1.2-.2-1.6-.9 0 0 0-.1-.1-.1.2.1.5.1.7.1zM93.9 59.8c0-1.8.9-3.7 1.6-5.5.1-.3.2-.5.3-.8 0 .4-.1.9-.1 1.5 0 .5 0 1.1.2 1.6s.7 1 1.3 1c.2 0 .3 0 .5-.1.3-.1.5-.4.5-.8-.1-.3-.4-.5-.8-.5h-.2c-.1 0-.1 0-.2-.2.1 0 0-.5 0-.9 0-.6.1-1.3.1-1.7 0-.3-.3-.6-.6-.6-.2 0-.3.1-.4.2.7-2.6.8-5.1.9-7.7.1-1.2.4-2.8 1-4.1.5-.9 1.1-1.6 1.8-2 .1 0 .2-.1.3-.1.6 0 1.1-.2 1.7-.4.6-.2 1.2-.3 1.7-.3.4 0 .7.1 1.1.1.5.1 1 .2 1.6.3 1.7.2 3.4.6 5 1.1 1.6.4 3.3.9 4.5 1.6.5.3 1.1.9 1.7 1.6.5.5 1 1.1 1.6 1.4-.3 0-.3.1-.4.2l-.2.2c-.1.2-.2.4-.1.6-.5 1.4-1.3 2.2-2.3 2.7-1.5.8-3.6.9-5.7 1.1-.6.1-1.2.1-1.7.2 0-.1-.1-.3-.3-.4-.3-.1-.7-.7-1.1-1.3-.4-.7-.8-1.4-1.2-2-1.1-1.4-2.4-2.4-3.3-3.6-.2-.3-.6-.3-.9-.1-.3.2-.3.6-.1.9 1 1.4 2.4 2.4 3.4 3.6.3.4.7 1.2 1.1 1.8.3.5.6 1 1 1.4-1 .3-1.9.8-2.7 1.7-1.1 1.2-1.3 2.8-1.4 4.3-.1 1.5-.1 2.9-.5 3.9-.5 1-1.9 2-3 2.2h-.5c-1 0-2.5-.2-3.5-.2h-.5c-.2 0-.3 0-.6.3-.3-.3-.5-.7-.6-1 .1-.3 0-.7 0-1.2zm27-13c0 1.6-1.5 3.9-2.4 5.4-.8 1.3-1.2 2.6-1.8 3.6-.6 1-1.3 1.7-2.7 2.1-3.5.9-5 3.7-7.7 5-1.3.6-2.6 1.1-4 1.2h-.3c-.6 0-1.3-.1-2-.2l-.1-.1c-.2-.1-.4-.1-.6 0h-.1c-.4 0-.8 0-1.1.2-.7-.1-1.5-.4-2.2-.9-.1 0-.1-.1-.2-.1h.2c.8 0 2.4.2 3.5.2.3 0 .5 0 .8-.1 1.6-.3 3.2-1.4 3.9-2.9.6-1.4.6-2.9.6-4.3.1-1.4.3-2.7 1.1-3.5 1.5-1.7 4.3-1.8 7.1-2.1 1.4-.2 2.8-.4 4-1 1.2-.6 2.3-1.7 2.9-3.4 0-.1.1-.2.1-.3 0-.1.1-.2.1-.4 0-.1 0-.1-.1-.3 0 0 0-.1-.1-.1.1.1.2.2.2.3.3.4.6.6.7.9.1.2.2.5.2.8zm-19.3-32.6c2.7-.1 5.2-.6 7.6-.6 1.7 0 3.4.3 5.1 1.1 1.6.8 3.3 1.7 3.7 3.1.2.6.2 1.1.3 1.7.1.6.3 1.3 1 2 1.5 1.4 2.7 2.7 2.7 4 0 .6-.3 1.3-1 2.2-.4.5-.8.6-1.1.6-.6 0-1.6-.7-2.5-1.7-.9-1-1.8-2.2-2.5-3-1.6-1.6-3.3-2.8-5.2-3.9-1.8-1-2.9-2.3-5.1-3.1-2.1-.8-4.2-1.7-6.4-2.3 1 .1 2.3 0 3.4-.1z"/><path fill="#412C28" d="M99.1 45.7c.4.3 1 .4 1.5.4.6 0 1.2-.2 1.6-.8.1-.2.1-.6-.1-.8-.1-.1-.3-.3-.5-.4-.2-.2-.4-.3-.6-.5-.4-.3-.9-.7-1.5-.7-.4 0-.9.3-1.1.7-.1.2-.2.5-.2.7 0 .7.4 1.2.9 1.4zm.4-1.4c.1.2.2.3.3.4h-.1c-.2-.2-.2-.3-.2-.4zm4.1-3.6c0 .4.1.9.3 1.3.2.4.4.9 1.1 1.1h.3c.7 0 1.1-.5 1.3-1 .2-.5.2-1 .2-1.4v-.8c0-.3-.2-.5-.4-.6-.2-.1-.3-.1-.5-.1-.4 0-.8.2-1 .4 0 .1-.1.1-.1.2h-.1c-.1 0-.1-.1-.2-.1-.3-.1-.7.1-.7.4v.3c-.2.2-.2.2-.2.3zm-2.1 10.6v.2c0 .6-.3 1.4-.3 2.3v.5c0 .2.2.5.5.5h.5c.3 0 .6-.2.6-.5s-.1-.6-.4-.7c0-.6.3-1.2.3-2.1v-.3c0-.3-.3-.6-.7-.6-.2.1-.5.4-.5.7zm-.8-.4c-.3-.2-.7-.1-.9.2-.6.9-1 2.1-1 3.3 0 .5.1.9.2 1.4.1.3.3.4.6.4h.2c.3-.1.5-.5.4-.8-.1-.3-.2-.6-.2-1 0-.9.3-1.9.8-2.7.3-.2.2-.6-.1-.8zm7.8-6.1c.7 0 1.5.5 2 1.2.1.1.3.2.5.2.1 0 .3 0 .4-.1.3-.2.3-.6.1-.9-.7-.8-1.7-1.6-3-1.6-.3 0-.6.3-.7.6.1.3.4.6.7.6zm1-1.5h.2c1 0 1.7.2 2.3.9.1.1.3.2.5.2.1 0 .3-.1.4-.2.3-.2.3-.6.1-.9-.9-1-2.1-1.3-3.3-1.3h-.3c-.3 0-.6.3-.6.6.1.4.4.7.7.7zm0 0zm4.1 0c.2 0 .4.1.7.4.3.3.5.7 1 1 .1.1.2.1.4.1s.4-.1.5-.2c.2-.3.2-.7-.1-.9-.2-.1-.5-.5-.8-.9-.3-.4-.8-.8-1.5-.8h-.2c-.3 0-.6.3-.6.7 0 .4.3.6.6.6zm0 0zm1.4 137.8z"/></svg>