<svg version="1.2" baseProfile="tiny" xmlns="http://www.w3.org/2000/svg" viewBox="0 0 137.2 243.9"><path fill="#E9E4DF" d="M71.1 26.9c.6.8 1.3 1.5 2.1 2.2V29l-2.1-2.1c.1 0 0 0 0 0zM46.3 202.4c-.9-.2-1.7-.7-2.5-1.2.8.9 1.7 1.7 2.6 2.7 0-.5 0-1-.1-1.5zM73.1 26.9h-.5c.2.4.4.7.5 1.1v-1.1zM43.8 196.3c-.7-.4-1.3-.9-1.9-1.3 1 1.6 2.3 3.1 3.6 4.6-.3-.8-.8-1.6-1.2-2.3-.2-.4-.4-.7-.5-1zm-15.9-73.2c-.3.8-.6 1.7-.9 2.5.9-1 1.7-2.1 2-3.1-.3.2-.7.4-1.1.6zm3.6-8.3c-.5 0-.9-.1-1.2-.3-.3-.2-.6-.5-.7-.8 0 1.2 0 2.4-.1 3.5.9-.8 1.7-1.6 2-2.4zm.3-6.5c-.7.4-1.5.7-2.3.6 0 1.2.1 2.5.1 3.8.2-.9.8-1.7 1.3-2.7.4-.6.7-1.2.9-1.7zm-4.1 19.9c-.6.4-1.3.7-2 1.1-.1.5-.3 1-.4 1.4.1-.2.3-.4.4-.7.6-.7 1.3-1.2 2-1.8zM76.6 27.3c-.4 0-.7-.1-1.1-.1.3.5.7.9 1.2 1.4 0-.5 0-.9-.1-1.3zm25 120.4c.5.3 1 .6 1.5.8-.3-1.8-.6-3.6-.9-5.3-.2-.3-.4-.7-.6-1 0 .5-.1 1-.1 1.5-.1 1.6 0 2.8.1 4zm-32.6-26c.1.5.3 1 .3 1.5-.1-.6-.2-1.1-.3-1.5zM92 69c-.1.2-.2.4-.3.5-.2.2-.4.2-.6.2-.1.1-.2.2-.4.2l.1.1c.5-.2.9-.5 1.4-.7-.1-.1-.2-.2-.2-.3zM75.1 190.5c-4.9 1.1-4.1-3.4-4-6.9.2-5.8 2.3-11 2.8-16.6.3-3.9-1.1-6.4-2.7-8.8-.1 4.9-.4 9.7-1.2 14.6-.3 1.6-.5 3.3-.6 5 1.3 1.4-.3 3.7-.6 5.8-.5 3.3.5 6.8-.3 10-.7 3.1-2.3 6-4 8.7-.1.1-.1.2-.2.3-.3 1.3-.6 2.7-.6 3.9v.1c.7-1.1 1.4-2.1 1.7-3.2.1-.3.4-.5.7-.4.3.1.5.3.5.6-.1 1.8-1.3 3.5-1.7 4.9-.3 1-.4 1.6-.8 2.1s-.9.7-1.8 1.2c-1.9 1.1-2.3 1.5-2.9 3.8-.4 1.9-.7 3.8-.8 5.7v1.3c.4.1.8.1 1.1.2.2 0 .3.1.5.1.2-.3.4-.6.6-.8.2-.3.6-.3.9 0 .1.1.2.3.2.5.3-.1.7-.2 1-.2.3 0 .5.2.6.4.1.2 0 .5-.2.7l-.4.4c1 .4 2 .8 3.1 1.1h4.7c-.1-.4-.1-.7-.1-1.1 0-.2 0-.5.1-.7.1-.3.4-.5.8-.4.1 0 .2.1.3.1.3-.1.5-.1.7-.2h.1c.1-.1.1-.1.2-.1.3-.1.6 0 .8.3.3.6.2.5.5.9.1.2.2.4.1.6 0 .1-.1.2-.1.3v.2h.8c1.1 0 2.3 0 3.4.1.7 0 1.6.1 2.4.2 0-.1-.1-.2-.1-.2-.4-.8-.8-1.3-1.4-1.3-.3 0-.6-.4-.5-.7 0-.3.4-.6.7-.5.9.1 1.5.6 1.9 1.2.6 0 1.1.2 1.5.5.3.3.4.6.4 1 .5-.1.9-.2 1.2-.3.5-.3.8-.7.9-1.6 0-.4-.1-.9-.3-1.6-.2-.6-.6-1.1-1.2-1.6-.5-.5-1.2-1-1.7-1.8-.7-1.1-.8-2.2-.8-3.3v-1.4c-.2-.1-.6-.1-1.1-.5-.2-.2-.2-.4-.1-.7.2-.6.8-1.1 1.4-1 .3 0 .5.1.8.2-.1-.6-.2-1.2-.2-1.8 0-.9.1-1.8.4-2.5.1-.2.3-.4.6-.4.1-.5.1-1 .2-1.5-.4-.7-.8-1.5-.8-2.4 0-.2.1-.3.2-.4-.1-.2-.1-.5-.2-.7 0-.6.3-1.2.8-1.7.2-.2.4-.3.7-.2.1.1.3.1.4.2.2-.7.3-1.4.5-2.2v-1c0-1 .2-2.1.7-3 0-.2 0-.5.1-.7-1.3-1.5-2.5-3-2.5-4.6v-.4c0-.3.3-.5.6-.5h.4c-.1-.1-.1-.2-.2-.2-.4-.2-.8-.3-1.4-.4-1.9-.3-5 2.8-7.5 3.3zM86.4 28.1c.1 0 .2 0 .4-.3.1-.2.3-.5.5-.9-.9 0-1.7.1-2.6.1.1.1.2.1.2.2.7.6 1.3.9 1.5.9zm.4 92.9l1-1.8c-.2-.5-.4-1-.7-1.5-.2 1.1-.3 2.2-.3 3.3z"/><path fill="#E9E4DF" d="M62 210.7c.8-.4 1.2-.6 1.3-.8.1-.1.2-.3.3-.8-.1.1-.2.1-.4.1-.3 0-.5-.2-.5-.5 0-.1-.1-.3-.1-.4-.1.5-.2 1.1-.4 1.7 0 .3-.1.5-.2.7zM81.1 27.9c.1-.2.2-.4.3-.7h-1c.2.4.4.6.5.8.1.1.2 0 .2-.1zm15.1 81.2c0 .1 0 .1 0 0zm3.2-26.5l-.5-.5c.1.8.1 1.6.1 2.4v1.2c.5-.7.9-1.3 1.3-2l-.3-.6c-.2-.1-.4-.3-.6-.5zm2-3.5c-.1.2-.3.4-.5.4h-.2c-.2 0-.5-.1-.7-.1 0 .1.1.2.1.4.3 1 .6 1.9 1 2.7.4-.8.8-1.6 1.2-2.5-.4-.3-.7-.6-.9-.9zm-6 7.1c-.1 0-.2-.1-.3-.2.2.4.3.8.3 1.3 0 1.1-.5 2-1.1 3 1.1-.7 2.3-1.5 3.1-2.2-.6-1-1.1-1.7-2-1.9zm-66.1 141c.5-.1.9-.2 1.3-.3.8-.2 1.5-.4 2.2-.6-.9-.1-1.8-.3-2.6-.5-.3.4-.7.9-.9 1.4zm73.1-152.1c-.2-.2-.3-.4-.5-.6.3 1 .7 2 1.2 2.9.1-.4.3-.8.4-1.2-.4-.2-.7-.7-1.1-1.1zM38.8 223c-.1 0-.3 0-.4-.1l-.1.1c-.7.7-1.3 1.4-2 2.1l-.2.2c2.3-.8 4.5-1.6 6.8-2.2-1-.1-1.9-.1-2.8-.1h-1.3zm49.9 2.1c-.2.3-.6.3-.9.1-.3-.2-.5-.4-.8-.5-.1-.1-.3-.2-.3-.3-.2.6-.6 1.1-1.1 1.4 1.2-.1 2.3-.1 3.5-.2 1.1-.1 2.3-.2 3.4-.3h-.2c-1.2.1-2.4 0-3.6-.2zm22.5-2.6c-1.1.2-2.1.5-3.2.7-.1.5-.3 1-.7 1.5 1.5-.5 2.8-1.2 3.9-2.2zm-9.6 2.1c-.6 0-1.3.1-1.9.1 1.3 0 2.6.1 4 .2-.1 0-.1 0-.2-.1-.6-.1-1.2-.2-1.9-.2zm3.7-62.2c0-.4-.1-.9-.2-1.3-.1-.3-.1-.6-.2-.9-.1.1-.1.2-.2.3.2.6.4 1.3.6 1.9zm-2.1-7.6c.1.4.2.9.3 1.3.2-.2.4-.3.6-.4-.3-1.9-.6-3.8-.9-5.6-.5-.2-1-.4-1.4-.6.4 1.6.9 3.3 1.4 5.3zm-9.3-49.1c-.4-.5-.9-.9-1.4-1.3.4.7.9 1.5 1.5 2.2.1.2.2.3.4.5l.3-.5c-.3-.3-.5-.6-.8-.9zm-62.3 33.1c.6-.6 1.1-1.3 1.4-1.9-2.9 1.7-6.5 4.4-7.9 7.2.2.7.5 1.4.8 2.1.8-1.5 1.6-2.9 2.8-4.3.7-.9 1.9-1.9 2.9-3.1zm-1.4 5.7c.3-.4.5-.8.8-1.2-1.5 1.4-2.8 3.1-4.2 4.7l.6.9.6-1.2c.6-1 1.5-2.1 2.2-3.2zm-1.9-13.1l.4-.4c-.4.2-.9.5-1.3.8-.9.6-1.7 1.4-2 2 0 .1 0 .1-.1.2-.1.3-.4.4-.7.4 0 .3-.1.7-.1 1 .6-.7 1.2-1.3 1.8-2 .5-.7 1.3-1.3 2-2zm3.5 2.7c.5-.6 1-1.2 1.3-1.8-3.1 1.4-6.2 3.9-8.8 6.6.1 1.1.2 2.2.4 3.3 1.2-2 3-3.7 4.4-5.3.6-.7 1.7-1.7 2.7-2.8zM91.6 27c.1.1.1.1.1.2l.2-.2h-.3zm13.3 29.4c-.1-.4-.3-.8-.5-1.1v.7c.2.2.4.3.5.4zM17 226.4v-.3c-.5-.3-.9-.6-1.3-1-.7-.8-1-1.8-1-2.9 0-1.5.6-3.1 1.7-4.3.9-1 2.2-1.4 2.7-2 .6-.6.7-.9 1.1-1.9.3-.7.7-1.3.9-1.9H21c-.3-.1-.5-.4-.5-.7.1-1.2.7-2.4 1.3-3.3.1-.1.2-.2.3-.2.1-.2.2-.3.3-.5.5-1 .9-1.9 1.1-2.8-1 1-2 2.4-2.2 3.6v.2c0 .2-.1.3-.2.4-.1.1-.3.2-.5.2-.1 0-.3-.1-.4-.2l-.1-.1c-.1-.1-.1-.2-.1-.4.1-.8.2-1.5.5-2.2 0-.1-.1-.2-.1-.3 0-1.2.2-2.4.5-3.5-.4-.8-.5-1.8-.5-2.9 0-2.6.7-5.7 1.6-7.2 1.6-2.7 3.9-4.4 4.7-7 1-3.1 1.1-6.1 1.3-9.3-.4 1.1-.8 2.2-1.2 3.4-2.4 6.6-6.6 11.6-9.2 18-1.7 4.4-2.2 7.9-2.9 12.6-.5 3.7-1.8 6.7-2.9 10.2-1.5 5.3 1.4 7.3 5.5 7.8-.1-.3-.3-1-.3-1.5zm9.9.7c-.3-.5-.4-1-.4-1.6-2.1.2-4.2 1.1-6.7 1.2l-.3.3c-.2.4-.4.8-.5 1.1 0 .1-.1.2-.1.2 2.8.2 6-.2 8.6-.7-.3-.2-.5-.4-.6-.5zm30.8-11.7c-.1 1-.2 2.2-.2 3.1 0 .6 0 1.1.1 1.5v.1c.1-1.6.4-3.2.7-4.7.2-.8.4-1.4.6-1.9-.4.2-.8.5-1.2.8.1.3 0 .7 0 1.1zM43.1 205c0 .1.1.1.1.2.4.7 1.2 1.5 1.8 2.4.3-.3.5-.7.8-1.1-.9-.4-1.8-.9-2.7-1.5zm-.1-27.8c-.1.4-.1.9-.1 1.3v.6c.1-1 .2-2.1.3-3.1-.1.4-.2.8-.2 1.2zm-12.5-29c-.7.8-1.4 1.6-2 2.5.4.7.6 1.4.7 2.1.1-.4.3-.9.4-1.3.5-1.2.9-2.3.9-3.3zm75.3-95.6c-.3-.6-.6-1.2-.8-1.8-.1.2-.1.3-.2.5v.1c.2.3.4.6.7.9.1 0 .2.2.3.3zm-7.2 26.8c0-.1-.1-.2-.1-.3v.2c.1 0 .1.1.1.1zM39.8 221.7h.5c-.1-.1-.1-.2-.2-.4 0 .2-.1.3-.3.4zm16.6-1.4s0-.1 0 0c-.2.6-.3 1.3-.4 2 .5.1 1.1.1 1.6.2v-.7c-.1 0-.2 0-.3-.1-.6-.4-.8-.9-.9-1.4zm43.7-142.4c.2.2.3.3.5.3l-.9-1.2c.1.4.3.7.4.9zM27.7 225.4c0 .5.1.8.2 1 .1.1.1.2.3.2v-.2c-.1-.3-.1-.6-.1-1v-.1c-.1.1-.2.1-.4.1zM98.4 78.6c-.1-.2-.1-.4-.2-.6v.4c.1 0 .2.1.2.2zm8-27.8c-.2-.6-.4-1.1-.5-1.7 0 0 0 .1-.1.1.1.6.3 1.1.6 1.6zm.1 6.7c0 .2 0 .4-.2.6-.2.1-.4.2-.6.2-.3-.1-.5-.2-.8-.3.4.6.8 1.3 1.2 1.8l.4.4c.1-1 .3-2 .4-3 .1-.8.1-1.6.1-2.3-.8-.2-1.5-.7-2.1-1.3.7 1.2 1.3 2.5 1.6 3.9zM28.3 224.2c0-.1 0-.2.1-.3 0-.1 0-.2.1-.2-.1.2-.3.3-.4.6 0-.1.1-.1.2-.1zm26.6-5.6c.1-.4.1-.7.2-1.1-.4.9-.7 1.7-.9 2.6.3-.5.5-1 .7-1.5zm49.7-60.6c-.1-.3-.1-.7-.2-1-.2.1-.3.2-.5.4.1.4.2.9.3 1.3.2-.2.3-.5.4-.7zm.4 66.3c.3.2.4.2.4.2s.2 0 .5-.3c.2-.2.4-.5.6-.8-.8.1-1.6.3-2.4.4.4.1.7.3.9.5zM84.7 189c.1.6.6 1.4 1.2 2.2 0-.6-.1-1.2-.3-1.7-.2-.3-.5-.4-.9-.5zm2.2 34.3v.4c.2-.1.4-.2.6-.1 1.7.4 3.3.6 4.9.6.8 0 1.7 0 2.5-.1-1.5-4.4-2.6-8.4-7.2-10.5-1.8-.8-2.9-.8-3.5-1.7l.3.6c.1.2.1.5-.1.7-.2.2-.5.2-.7.1-.2-.1-.3-.2-.5-.3v1.9c0 1 .1 1.9.6 2.7.3.6.9 1 1.5 1.5s1.2 1.2 1.5 2.1c0 .9.1 1.5.1 2.1zM93 109c0 .1.1.2.1.4l.1-.2c0-.1-.1-.1-.2-.2zM54.7 221.8c-.1.1-.1.2-.2.3h.2v-.3zm50.1-161.7v.5c.3.5.6 1 .8 1.5.2.5.4 1 .5 1.5.1-.6.2-1.1.2-1.7-.3-.4-.7-.9-1.1-1.4l-.4-.4zM72.4 224.8zM86.2 68.4h-.1.1zm-1.9 132.7c-.2.2-.2.4-.2.6 0 .1 0 .2.1.4.1-.3.1-.5.2-.9l-.1-.1zm.6-135.5c.2 0 .3.1.4.2 0 0 0-.1.1-.1.1-.1.2-.2.3-.4h-.1l-.1.1c-.1.1-.3.2-.6.2-.1-.1-.2-.2-.3-.2v.3c.2-.1.3-.1.3-.1zm8.8 2.8h-.3v.2c.1-.1.2-.2.3-.2zm-.1-1.3s.1 0 0 0c.1 0 0 0 0 0zM88.5 61c-.1 0-.3.1-.4.1.1 0 .2-.1.4-.1zm6.5 4.1c-.4-.2-.7-.3-.8-.3-.2 0-.2 0-.4.4-.1.2-.1.6-.2.9 0 0 .1 0 .1-.1.2-.1.5-.3 1-.3.2 0 .3 0 .5.1.1 0 .2.1.3.2.1-.2.1-.4.2-.6 0-.2 0-.4.1-.5-.2.3-.5.4-.8.2zm.6-1.1s.1 0 0 0c.1 0 0-.1 0-.2v.1l-.1.1h.1zm-4.2-3.1h.6c-.2 0-.4-.1-.6-.1v.1z"/><path fill="#E9E4DF" d="M103.6 62.2c-.8-.9-1.9-2.2-3.1-3.4-.6-.6-1.2-1.1-1.8-1.5-.2-.1-.3-.2-.5-.3-.4-.2-.8-.4-1.1-.4-.3 0-.6-.3-.6-.6-1.4-.8-2.7-1.5-4-2.2-3.5-1.9-7.8-3.6-8.8-7.8-1.4-6.2 1.9-13.6 7-18-.2-.1-.4-.3-.7-.4v.1c-.1.3-.5.5-.8.4-.3-.1-.5-.5-.4-.8v-.1c-.1 0-.2-.1-.3-.1-.2.7-.5 1.2-.8 1.6-.4.5-.9.8-1.4.8-.9 0-1.5-.6-2.2-1.1-.5-.4-1-.8-1.4-1-.2.6-.4 1-.6 1.4-.3.4-.6.8-1.2.8-.3 0-.6-.2-.7-.3-.2-.2-.3-.3-.4-.5-.3-.4-.5-.8-.8-1.3h-1.2c0 .6.1 1.3.1 2v.7c0 .2-.2.4-.4.5-.2.1-.5.1-.6-.1-1-.8-1.9-1.7-2.6-2.8 0 .9.1 1.9.1 2.8 0 .2-.1.5-.4.6-.1 0-.2.1-.3.1-.2 0-.3-.1-.4-.2-1.2-1.1-2.7-2.5-3.8-4.1-.9.1-1.8.2-2.6.5.2.5.5 1 .8 1.4 2.1 3.1 4.3 5.9 6.7 8.8.4.4.8.9 1.2 1.5 1.5 1 2.8 2.2 3.3 4 .1.3-.1.7-.4.8h-.2v.1c.8.8 1.5 1.5 2.1 2.2.2.3.2.7-.1.9-.1.1-.3.2-.4.2-.2 0-.4-.1-.5-.2-.1-.1-.2-.3-.4-.4.3 1.7.1 3.3-.9 4.6-1.5 2.1-4.6 3.4-7.3 4.9-.5 1.1-.9 2.2-1.2 3.2-.5 1.4-.7 2.5-.7 3.6 0 1.5.4 2.9 1 4.7.1.3 0 .7-.4.8h-.2c-.3 0-.5-.2-.6-.4-.7-1.8-1.1-3.4-1.1-5.1 0-1.2.2-2.5.7-4 .2-.5.3-1 .6-1.6-.5.3-.9.7-1.3 1.1.1 0 .2 0 .3.1.3.1.4.4.3.7-.4 1.5-1.4 2.8-2.2 4.2.7 4 5.1 7.7 5.1 12.1 0 1.1-.2 2.3-.5 3.4.9-.4 1.8-1.8 2.5-2.8.9-1.4 1.9-1.9 2.8-1.9 1.2 0 2.1.6 3.5.5h.2c.3 0 .6.3.6.6s-.3.6-.6.6h-.2c-1.7 0-2.8-.6-3.5-.5-.5 0-1 .2-1.8 1.4-.8 1-1.6 3-3.5 3.4-.2 0-.3.1-.5.1-.7 1.5-1.6 2.8-2.8 3.8-1.2.9-2.6 1.5-4 2.2 0 .3-.3.6-.6.6h-.1c-.3.4-.6.7-1 1-.5.5-1.1.8-1.8.8-.2 0-.4 0-.6-.1h-.1c-.5.4-1.1.9-1.5 1.4-2.5 3.2-.5 7.2-3.6 10.3-1.7 1.7-3.8 2.4-6 2.8-.7 1-1.4 2-1.7 3-.1.3-.3.4-.6.4h-.2c-.3-.1-.5-.5-.4-.8.3-.8.7-1.6 1.2-2.3-.2 0-.4 0-.6.1-.2.2-.6.3-.8.1h-.3c-.5.1-1.1.1-1.6.2l-.3.9c-.1.3-.4.5-.8.4-.3-.1-.5-.4-.5-.7 0-.1 0-.2.1-.3-2.3.4-4.6 1.1-6.7 2.2-.5.3-1.1.7-1.7 1.1-.1 1.2-.8 2.3-1.4 3.4-.7 1.1-1.2 2.1-1.2 2.5 0 .2 0 .1.1.2.2.1.6.2 1.4.2h.1c.2 0 .3.1.4.2.1.1.2.3.1.5-.2 1.9-1.7 3-2.9 4.1-.4.3-.7.6-1 1-.2.7-.4 1.3-.6 2 .3-.3.7-.6 1-.9.2-.2.4-.2.6-.1.2.1.4.3.4.5v.4c0 1.9-1.3 3.6-2.7 5.2-.1.1-.2.3-.4.4 1-.6 2.1-1.1 3.2-1.6.3-.1.5 0 .7.2.2.2.2.5 0 .7-1.3 1.9-3.3 2.9-4.5 4.3 1-.6 2-1.2 2.8-1.5.2-.1.4-.1.6 0 .2.1.3.3.3.6-.1 1.1-.8 1.9-1.5 2.6-.7.7-1.5 1.4-2 1.9-.6.6-1.2 1.2-1.8 1.9 2.5-2.3 5.4-4.3 8.4-5.4.2-.1.4 0 .6.1.2.1.3.3.3.5 0 1.3-.9 2.5-1.9 3.6-.5.6-1.1 1.2-1.6 1.7.9-.6 1.8-1.1 2.6-1.5.2-.1.4-.1.6 0 .2.1.3.3.3.5 0 1.5-1 2.8-2.1 4-1.1 1.2-2.3 2.3-2.9 3.1-.1.2-.3.3-.4.5.8-.8 1.6-1.5 2.5-2.1.2-.1.4-.1.6 0 .2.1.3.3.3.6 0 1.3-.7 2.5-1.5 3.6-.4.5-.8 1.1-1.1 1.5.1-.1.2-.2.3-.4.1-.2.4-.2.6-.2.2 0 .4.2.5.4.2.5.3 1 .3 1.5 0 1.3-.5 2.6-.9 3.8-.1.4-.2.7-.4 1 .2.1.4.3.4.6 0 3.4-.3 8.4-.6 13.2 0 1.1-.1 2.1-.2 3.1-.1.9-.2 1.9-.2 2.7-.4 4.4-.3 8.6-1.6 13.1-1 3.1-3.4 4.8-4.8 7.2-.7 1.1-1.4 4.2-1.4 6.6v.4c.6-1.7 1.3-3.3 1.7-4.8.1-.3.4-.5.8-.5.3.1.5.4.5.8-.5 2-1.5 4-2.2 6.2 1.4-2.2 3.3-4.2 4.8-5.8.2-.2.5-.3.8-.1.3.1.4.4.3.7-.7 2.4-2.5 4.3-4 6.1 0 .1-.1.1-.1.2.1 0 .2 0 .2.1.2.1.3.3.4.5v.5c0 1.5-.6 2.9-1.3 4.3-.2.3-.4.7-.5 1v.2c0 2.1-.9 3.6-1.7 5.4-.4.8-.6 1.4-1.4 2.2-.9.9-2.2 1.2-2.7 1.9-.9 1-1.4 2.3-1.4 3.5 0 .8.2 1.6.7 2.1.2.2.3.4.5.5.3-1.2.9-2.3 1.2-2.9.2-.3.6-.4.9-.2.3.2.4.6.2.9l.1.1c.6.6 1.1 1.3 1.5 1.9.1.2.1.3.1.5 0 .1-.1.2-.1.2 1.8-.3 3.6-.9 5.6-1.1.2-.8.7-1.5 1.3-1.9.3-.2.7-.1.9.2.1.2.1.5 0 .7h.4c.3.1.5.4.4.8v.1c0 .1 0 .2.1.3.2-.3.6-.3.9-.1.1.1.2.3.2.4.9.2 1.7.4 2.5.4h.2c.9-.1 1.4-.4 2-.9.6-.5 1.1-1.3 2-2.1.9-.8 1.9-1.6 2.6-2.4v-.6c.1-2.2.7-4.7 1.5-6.8l-.1-.1c-.9-1.1-1.8-2.2-2.8-2.8-.3-.2-.4-.6-.2-.9.2-.3.6-.4.9-.2 1.1.7 2 1.7 2.8 2.7 0-.1.1-.1.1-.2.1-.2.2-.4.3-.5-.1-.1-.1-.2-.2-.2-.8-1.2-1.6-2.5-2.1-3.9-.1-.3-.2-.6-.3-.8-.1-.3.1-.7.5-.7.3-.1.7.1.7.5.1.2.1.5.2.7.3.8.9 1.7 1.6 2.5l.6.6.4-.4c-.6-.9-1.4-1.8-2-2.6-.7-1.1-1.4-2.5-2.1-3.5-.4-.4-.7-.7-.9-1-.2-.2-.2-.6 0-.8.2-.2.6-.3.8-.1.4.3.7.7 1 1.1.7.7 1.5 1.4 2.4 2.1.8.6 1.5 1.1 2.3 1.4-1-1.3-2.5-2.6-3.6-4-1-1.3-1.8-2.8-2.8-3.6-.3-.2-.3-.6-.1-.9l.1-.1c.1-.1.2-.1.3-.1.2 0 .3 0 .5.1l.1.1c1.2 1 2.5 2.3 3.9 3.3-1.7-1.9-3.3-4-4.4-6.3-.1-.2-.1-.5.1-.7.2-.2.5-.2.7-.1.9.4 1.7 1 2.5 1.6-.4-1.4-.4-2.8-.4-4.8v-.4c-.4-2-.5-4.2-.6-6.1-.1-1.4-.3-2.8-.3-4.4 0-.5 0-1 .1-1.4.2-1.7 1-3.3 1.2-4.8.6-3.3 1.2-6.5 1.5-9.8.1-1.6-.1-5.6.8-8 .3-.8.8-1.6 1.7-1.9.3-.1.7 0 .8.4.1.3 0 .7-.4.8-.4.1-.7.5-.9 1.2-.3.7-.4 1.5-.5 2.5-.1.9-.1 1.8-.1 2.7l1-1.2c0 4.5-.2 12.3 3.7 15.5 2.1 1.8 5.4 1.5 7.9 2.1 1.6.3 3.1.8 4.7 1 1 .1 3.6-.4 5.1-.2.2-1.5.4-3.1.6-4.6.9-5.4 1.2-10.7 1.2-16.2-.9-1.3-1.8-2.7-2.5-4.5-1.1-2.8-.1-4.8.4-7.6.5-3.1.3-5.8 2.1-8.7.1-.2.2-.3.3-.5-.1.1-.2.1-.4.1-.1 0-.2 0-.3-.1-.2-.1-.3-.4-.3-.7.5-1.9 2-3.1 3.3-4.2 1.3-1.1 2.5-2.2 2.9-3.7.1-.5.2-1.1.2-1.7 0-1.7-.5-3.5-1.6-4.3-.3-.2-.3-.6-.1-.9.2-.3.6-.3.9-.1 1.5 1.3 2.1 3.4 2.1 5.3 0 .7-.1 1.3-.2 1.9-.5 2-2 3.3-3.3 4.4-.7.6-1.4 1.2-1.9 1.8.1 0 .3.1.4.1 3-3.3 7.3-5.8 11.3-7.4 0-.1.1-.3.1-.4.1-.4.1-.8.1-1.2 0-1.1-.4-1.8-.8-2.7-.5-.9-1.1-1.8-1.5-3-.1-.3.1-.7.4-.8.3-.1.7.1.8.4.3 1 .9 1.9 1.4 2.8.5.9 1 2 1 3.3v.3l.7-1.2c.1-2.2.2-4.4.5-6.6 0-.3.2-.4.5-.5-.2-.3-.3-.6-.4-.8-.2-.3 0-.7.3-.8.3-.2.7 0 .8.3l1.4 2.8 1.7-3.1c-.1-.1-.1-.3-.1-.5.1-.3.3-.5.6-.5l1.7-3c-.4-.7-.6-1.5-.7-2.3 0-.2 0-.4.1-.7 0-.2.2-.3.3-.4.2-.1.4-.1.5 0 .2.1.4.2.5.3-.1-.1-.1-.2-.2-.2-1.1-1.4-2.2-2.9-2.3-4.8 0-.2.1-.5.4-.6.2-.1.5-.1.7.1.8.6 2 1.6 3 2.7.7.7 1.3 1.4 1.7 2.2.1-.2.2-.5.2-.7 0-.3.1-.6.1-.9-.1-2.2-2-4.5-3.4-6.8-.3-.4-.5-.9-.7-1.4-1.1-1.2-2-2.4-1.8-3.6v-.1c-.2.1-.4.3-.5.4-.3.2-.7.1-.9-.1-.1-.1-.2-.3-.3-.4-.3.9-.7 1.7-1.2 2.5-.1.2-.4.3-.6.3-.3 0-.5-.2-.5-.5-.1-.6-.3-1.2-.5-1.8-.3 1.3-.8 2.7-1.5 3.8-.1.2-.3.3-.6.3-.2 0-.4-.2-.5-.4-.4-.9-.7-2.1-1.1-3.2-.3-.7-.6-1.4-1-1.8-.6 1.6-.9 3.6-1.4 5.4-.1.3-.3.4-.6.5h-.1c-.2 0-.5-.1-.6-.4-.3-.6-.5-1.6-.7-2.6-.2-1-.6-2-.9-2.4l-.1-.1h-.1c-.1 0-.4.1-.7.5-.3.3-.6.9-.9 1.4-.6 1.1-1.1 2.5-1.3 3.1-.1.2-.4.4-.6.4-.3 0-.5-.2-.6-.5-.3-1.6-.3-3.1-.6-4.5 0 0-.1 0-.1.1-.1.1-.3.4-.4.7-.3.6-.4 1.5-.6 2.1-.1.3-.4.5-.7.4-.3 0-.5-.3-.5-.6 0-1.3-.1-3-.4-4.3l-.3.6c-.4.6-.9.9-1.5.9-.7 0-1.2-.4-1.6-1-.3-.5-.5-1-.6-1.7v-.5c0-.5.1-1.1.3-1.7.1-.3.4-.5.7-.4.3.1.5.3.5.6 0 .4-.1 1.3-.2 1.9.1.5.2.9.4 1.1.2.3.5.4.6.4.1 0 .3 0 .5-.4.2-.3.4-.9.5-1.9 0-.2.2-.5.4-.5.2-.1.5 0 .7.2.8.9 1.1 2.2 1.3 3.5.1-.1.2-.3.3-.4.3-.3.8-.6 1.3-.6h.2c.3 0 .5.2.6.5.2 1 .3 1.9.4 2.8.4-1 1-2 1.6-2.7.4-.5.9-.9 1.6-.9.2 0 .4 0 .6.1.5.3.8.7 1 1.2.2.5.4 1.1.6 1.7 0 .2.1.4.1.5.3-1.3.6-2.7 1.2-4 .1-.2.2-.3.4-.3.2-.1.3 0 .5 0 1.1.6 1.6 1.7 2.1 2.9.2.6.5 1.3.7 1.9.5-1.2.8-2.7 1.2-3.9.1-.2.3-.4.5-.4s.5 0 .6.2c.4.6.7 1.3 1 2 .4-1 .7-2 .9-3.1 0-.3.3-.5.6-.5s.6.2.6.5c.1.6.2 1.3.4 1.9.8-.6 1.7-1.3 2.4-2.2.9-1 1.6-2.2 1.6-3.1 0-.3-.1-.5-.2-.8-.2-.3 0-.7.3-.8.2-.1.5-.1.7.1v-.3c.1-.3.4-.5.8-.5.9.2 1.6.8 2.1 1.4v-1.9c0-1.7-.1-3.3-.4-4.9-.1-.2-.1-.4-.1-.6-.6-.4-.9-1-1.2-1.5-.3-.5-.6-1-.9-1.3-.2-.2-.3-.2-.5-.2h-.2c-.3.1-.7-.1-.7-.5v-.2c-.4.3-.8.6-1.3.7-.8.2-1.6.3-2.5.3-2.9 0-6.6-.8-7.9-.9-.3 0-.6-.3-.6-.7 0-.3.3-.6.7-.6 1.6.1 5.1.9 7.9.9.9 0 1.6-.1 2.2-.3.6-.2.9-.4 1-.7.2-.3.5-.4.8-.3.3.2.4.5.3.8 0 0 0 .1-.1.1h.1c.2 0 .3-.1.5-.1.5 0 1 .2 1.3.5.3.3.6.7.8 1 .1.1.2.3.2.4 0-.7.1-1.3.4-2-.1-.3-.2-.6-.2-.8-.1-.3 0-.6.3-.7.2-.1.6-.1.8.1 1.4 1.4 2.5 3.2 3.7 4.7-.8-1.5-1.4-3.1-1.6-5.2 0-.2.1-.5.3-.6.2-.1.5-.1.7 0 .9.6 1.5 1.5 2.1 2.2.1.2.3.3.4.5-.1-.2-.3-.5-.4-.7-.5-.9-1-1.8-1-3v-.4c0-.3.2-.5.5-.5.2-.1.5 0 .7.2.4.6.8 1.2 1.1 1.9.4-1.7.7-3.4 1-5.2-.3-.8-.5-1.6-.7-2.3-.7-.8-1-1.5-1.8-2.5zm-58.9 57.1c.2-.3.6-.4.9-.2.3.2.4.6.2.9-1.4 2.1-2.6 4.8-2.6 7.3 0 1.6.5 3.1 1.6 4.5.1.2.2.4.1.6 0 .2-.2.4-.4.4-.1 0-.2.1-.4.1s-.4-.1-.5-.2l-.1-.1c-.3-.1-.5-.5-.3-.8-.9-1.4-1.3-2.9-1.3-4.4.1-3 1.3-5.9 2.8-8.1zm-7.1 3.7c.1-.3.4-.5.8-.4.3.1.5.4.4.8-.7 2.5-1.3 4.8-1.3 7 0 2 .4 3.8 1.7 5.9.2.3.1.7-.2.9-.1.1-.2.1-.3.1-.2 0-.4-.1-.5-.3-1.3-2.2-1.8-4.4-1.8-6.5-.2-2.6.4-5 1.2-7.5zm-.9 27.9c0 .1-.1.2-.3.3-.8.5-1.6.9-2.5 1.3-.1 0-.2.1-.3.1-.2 0-.4-.1-.5-.3-.2-.3-.1-.6.2-.8 2.4-1.6 5.3-2.8 7.2-4.7 1.3-1.4 1.5-2.7 1.5-4.5V140c0-.3.3-.6.6-.6s.6.3.6.6v2.2c0 1.8-.2 3.7-1.9 5.4-1.3 1.4-3 2.4-4.6 3.3zm6.3-3s.1.1.1.2c.1.3 0 .7-.3.8-.3.1-.5.4-1.2.4-.3 0-.6-.1-.8-.3-.1-.1-.2-.3-.2-.5s.1-.4.2-.5c3.1-2.5 5.4-5.8 5.4-9.6v-.2c0-.3.3-.6.6-.6s.6.3.6.6v.2c.2 3.9-1.8 7.1-4.4 9.5zm13.3-15.2c-.3 0-.6-.3-.6-.6 0-1.7-.3-4-1.1-6s-2-3.7-3.9-4.3c-.3-.1-.5-.5-.4-.8.1-.3.5-.5.8-.4 2.3.8 3.8 2.8 4.6 5 .9 2.2 1.2 4.6 1.2 6.4 0 .4-.2.7-.6.7zm11.9-13.1c.1.2.2.4.2.6.1-.1.3-.2.5-.2.4 0 .5.2.6.3.1.1.2.3.4.5.6 1.1.6 2.6.7 3.6 0 .4.1.8.1 1.3 0 1.6-.2 3.6-.8 5.4-.5 1.6-1.3 3.1-2.7 3.9l-.1.1-.2.2c-.1 0-.1.1-.4.1-.1 0-.3 0-.4-.2-.2-.2-.2-.4-.2-.5 0-.2.1-.3.1-.3 0-.1.1-.1.1-.2.1-.1.2-.2.3-.2 1.1-.4 1.9-1.6 2.4-3.3.4-1.4.7-2.9.7-4.3-.2 1.8-1 3.2-1.9 4.5-.7.9-1.6 1.8-2.4 2.7 0 .3-.2.6-.5.6h-.1c-.3.4-.7.7-1 1.1-.1.1-.3.2-.5.2-.1 0-.2 0-.3-.1-.3-.1-.4-.4-.3-.7.1-.8.7-1.4 1.4-1.7 1-1.1 2-2.1 2.8-3.1 1.1-1.4 1.7-2.8 1.7-4.8 0-.5 0-1-.1-1.6-.1-1-.5-2.5-1-3.7-.6-1.3-1.3-2.2-2.2-2.4-.3-.1-.5-.4-.4-.8.1-.3.4-.5.8-.4 1.2.7 2.1 2 2.7 3.4zm-2.3-20.7c.3.9.5 1.8.5 2.8 0 2.6-1 5.4-2.5 7.2-1.1 1.3-2.6 2.1-4 2.8-1.4.7-2.7 1.5-3.4 2.6-.4.7-.6 1.3-.6 1.9 0 2 2 4.1 4 5.5.9.6 2.3 1.3 3.6 2.1 1.3.8 2.5 1.9 2.9 3.4 0 .2.1.4.1.6 0 1.2-.8 2.3-1.7 3.4-.9 1-1.9 2-2.7 2.8-.4.4-.6.7-.7.9.1.2.1.5-.1.7-.1.1-.3.2-.5.2-.1 0-.3-.1-.4-.2-.2-.2-.3-.4-.3-.7 0-.4.2-.6.3-.9.2-.2.4-.5.6-.8.5-.5 1.1-1.2 1.8-1.8 1.3-1.3 2.4-2.8 2.4-3.7v-.3c-.3-1-1.2-1.9-2.4-2.7-1.2-.8-2.6-1.4-3.6-2.2-2-1.5-4.5-3.7-4.5-6.5 0-.9.3-1.8.8-2.6 1-1.5 2.5-2.3 3.9-3.1 1.4-.7 2.8-1.4 3.6-2.5 1.3-1.6 2.2-4.1 2.2-6.4 0-.8-.1-1.7-.4-2.4-.1-.3 0-.7.4-.8.2.3.5.4.7.7zM97 65.7c-.3 1.9-1.7 3.2-3.1 4.1-1.5.9-3.1 1.6-4.3 2.4-.1.1-.2.1-.3.1-.2 0-.4-.1-.5-.3-.2-.2-.1-.5.1-.7-.2-.4-.5-.6-1-.8-.6-.2-1.4-.4-2.1-.8-1.5-.9-2.1-2.3-2.2-4v-.6c0-1.9 1-3.3 2.3-4.2 1.3-.9 3-1.3 4.7-1.3h.8c1.4.1 2.8.7 3.9 1.5 1.1.9 1.9 2.2 1.9 3.8-.2.2-.2.5-.2.8z"/><path fill="#E9E4DF" d="M88.4 65.3c-.2 0-.5 0-.7.1.1 0 .1 0 .2.1.3.2.4.6.2.9-.1.1-.1.2-.1.2 0 .1.1.3.3.4.1.1.3.2.4.2.1 0 .3-.1.4-.1l.3-.6c0-.1 0-.2-.1-.4 0-.7-.3-.8-.9-.8zm-1.6 1.3c0-.3.1-.5.2-.8l-.6.6c-.2.3-.6.4-.9.2 0 .2.2.3.5.5.2.1.6.2 1 .3-.1-.3-.2-.6-.2-.8zm3.9-.8c.1-.1.3-.2.4-.2V65c-.4-.1-.8-.3-1.2-.5.4.4.7.8.8 1.3zM88 61.1c-.1 0-.2 0-.2.1 0 0 .1 0 .2-.1z"/><path fill="#A7A6A7" d="M49.2 56.6c.1-.3.2-.7.4-1-.5.4-1 .9-1.7 1.2-.2.5-.3 1-.5 1.6l.2-.2 1.6-1.6zm-3.3 7.5c-.1.4-.1.8-.2 1.2 1.2-1.2 2.3-2.4 2.7-3.6-.9.5-1.8 1.5-2.5 2.4zm8.9-32c-.5.6-1.2 1-1.9 1.5-1.4.9-3.1 1.7-4.1 2.6-.5.5-.8 1-1 1.5 1.2-.8 2.7-1.9 4.2-2.5.3-.8.9-1.5 1.6-2 .9-.7 2-1.2 2.9-1.6.5-.2 1.3-.4 2.2-.6.8-.2 1.7-.5 2-.8l.1-.1v-.2c-.1 0-.2-.1-.5-.1-.9 0-2.6.5-4.4 1.1-.1 0-.3.1-.4.2-.2.4-.4.8-.7 1zm.6 19.9c-1.4.9-2.7 1.8-3.7 2.7-.1.4-.3.8-.5 1.1 1.5-1.1 2.8-2.5 4.2-3.8zm-5.8 8.1c.2.1.2.3.2.5.9-1.5 2.2-2.7 3.1-3.7.8-.9 2.2-2 3.5-3.2.7-.7 1.4-1.4 1.8-2.1-2.8 1.7-5.2 4.9-8.1 6.8-.2.1-.4.1-.6 0-.1 0-.1-.1-.2-.1-.3.2-.5.5-.8.7-.7.7-1.4 1.3-1.9 2-.1.2-.1.4-.2.6.8-.8 1.7-1.4 2.7-1.7.2 0 .4.1.5.2zm-5.8-37.8c.5-.2 1-.4 1.4-.7-.2 0-.3.1-.5.1-.3 0-.7.1-1 .2.1.2.1.3.1.4zm8 26.3c-.2 0-.3 0-.5-.1l-.1-.1c-.4.3-.9.6-1.3.9 0 .4-.1.7-.2 1.1.3-.2.6-.5.8-.7.5-.4.9-.7 1.3-1.1zm-5.6-16c-.4.4-.9.8-1.3 1.2-.4.4-.6.8-.7 1.1 1.5-.7 2.9-1.6 4.4-2.5.2-.7.4-1.3.8-1.8-1.2.7-2.3 1.3-3.2 2zm-4.5-.5c1.8-1.3 3.8-2.5 5.8-3.7-.2.1-.5.1-.7.2-1.8 1-3.4 2.2-4.3 2.9-.2.2-.5.4-.8.6zm12.5-14.5c-4-.2-8 1.1-11.4 3-.3.2-.7.4-1.1.6.9-.3 1.9-.6 2.9-.7 3.6-.6 7.5-1.5 11.4-1.5.7 0 1.4 0 2.1.1 1.8.2 3.8 1 5.7 1.8-.5-.8-.9-1.6-1.1-2.3-2.5-1-6.7-.9-8.5-1zm2.9 17.6c-.2.1-.3.2-.5.3.8-.4 1.5-.8 2.2-1.2-.6.2-1.1.5-1.7.9zm-3.2 4.3c.2 0 .4 0 .5.1.1 0 .1.1.1.2 1-.5 2-1 2.7-1.5.5-.4.9-.8 1.1-1.2-1.7.2-4 1.5-5.4 2.7.4-.1.7-.2 1-.3zm-3.3 2.6c-.3.1-.5.3-.8.4 0 .1 0 .2.1.3l.7-.7zm1.3.6c-.2.2-.4.3-.6.5.2-.1.3-.2.5-.3.2-.2.4-.3.6-.5-.3.1-.4.2-.5.3zm15.7-19.8c-.5-.7-1-1.4-1.6-2-.1 0-.2-.1-.3-.1l1.9 2.1zM51.5 40.3s-.1 0 0 0c-.1 0 0 0 0 0zm2.9-3.6c.2-.1.4-.2.5-.3-.2.1-.3.1-.5.2v.1zM37.8 30c.9-.8 1.9-1.6 3-2.4.6-.5 1.3-1.1 2-1.6l-.6.3c-1.8.8-3.4 2.2-4.5 3.8l.1-.1zm17 12.5L52.4 44c-.8.7-1.6 1.3-2.3 1.9 0 .6 0 1.2-.1 1.8v.1c.4-.3.7-.5 1.1-.9 1.1-.9 2.2-1.9 3.5-2.4.7-.6 1.5-1.1 2.2-1.5.8-.8 1.5-1.6 1.6-2.3-1.1.2-2.3.9-3.6 1.8zm15.9-16.2l.5.5 2 2.2v-1.1c-.2-.4-.3-.7-.5-1.1-.9-1.6-2.2-3.1-3.6-4.2.6 1 1.1 2.1 1.5 3.2-.1.2 0 .4.1.5z"/><path fill="#A7A6A7" d="M64.6 20.4c.4.1.7.3 1.1.4l-.9-.9c-.7-.5-1.4-1-2.2-1.4v.2c1.1.3 1.8.8 2 1.7zm-11.3 1.7h-1.2c-1.6 0-3.2.1-4.5.5-.7.2-1.3.5-1.7.9 1.5-.5 3.1-.9 4.6-.9.9-.2 1.8-.4 2.8-.5zm-14.5.9h-.4c-3.4 2-7.1 4.7-6.8 7.1.5-1.1 1.4-2.2 2.5-3.3 1.3-1.3 3.1-2.7 4.7-3.8zm19.6-1.8c1.7.2 3.6.7 5.3 1-2-.9-4.1-1.8-5.8-1.9-.6-.1-1.3-.1-1.9-.1-2.2 0-4.5.3-6.8.7.9-.1 1.8-.2 2.8-.2 2.6.1 5.1.4 6.4.5zm-7 2.6c.7-.2 1.5-.4 2.3-.5-.7.1-1.4.2-2.1.4-.1 0-.1.1-.2.1zm-.5.1c.1 0 .1 0 .2-.1-.1.1-.2.1-.2.1zm-3.6-2.5c.2-.1.4-.1.7-.2-.3 0-.5.1-.7.2 0-.1 0-.1 0 0zM52.8 37h-.4c-.2 0-.3-.1-.5-.2l-.1-.1c-1.3.7-2.6 1.6-3.9 2.4.5.5.8 1.1 1.1 1.6.6-.6 1.4-1.2 2-1.8.8-.6 1.4-1.3 1.8-1.9zM44 33c.2-.2.3-.4.5-.5.3-.3.6-.5.9-.7.6-.5 1.2-1.1 1.8-1.6-2.3 1.3-4.5 2.9-6.5 4.3 0 0-.1 0-.1.1.5.1.9.2 1.2.3l.1-.1c.7-.7 1.4-1.2 2.1-1.8zm5.3 1.3c1.2-.8 2.4-1.4 3.4-2.1-.6.3-1.3.5-1.8.7-.9.4-1.5.6-1.8.7h-.3c-1.4.8-2.7 1.7-4.2 2.4.5.4 1.1.9 1.7 1.5l.1.1c.4-1.4 1.6-2.5 2.9-3.3zm-9.8 0c.1 0 .2 0 .3.1-.1-.1-.1-.2-.2-.3 0 0-.1.1-.1.2zm.5-2.4c.7-1.7 2.1-3.1 3.7-4.2.7-.5 1.5-1 2.2-1.5.3-.3.7-.5 1.1-.7-1.9.6-3.8 1.8-5.6 3.2-.3.3-.7.6-1 .9-.6.5-1.4 1-2.1 1.6-.7.6-1.1 1.1-1 1.6v.2c.1.3-.1.7-.5.7h-.1c-.3 0-.5-.2-.6-.5v-.3c-.2.1-.5.1-.7 0-.2-.2-.3-.5-.2-.7 1.1-3.1 3.4-5.7 6.5-7 .7-.3 1.5-.6 2.3-1 .1-.3.2-.5.3-.7-1.6.7-3.2 1.4-4.7 2.3-2.3 1.4-4 3.1-4.4 5.7 0 .3-.3.5-.6.5h-.1c-.3 0-.6-.4-.5-.7.4-3.2 2.5-5.2 5-6.7 1.2-.7 2.5-1.3 3.8-1.9h-.1c-.8 0-2.6.8-4.4 2.1-1.8 1.3-3.6 3-4.8 4.5-.8 1-1.2 1.9-1.2 2.4.3.3.6.5 1 .8 1.3.8 3 1.2 4.6 1.4.7-.6 1.4-1.3 2.1-2zm1.6 63.5c-.9.7-1.8 1.3-2.6 2 .9-.5 1.8-1.3 2.6-2 .1 0 0 0 0 0zm5.5-23.5c-.4.2-.8.5-1.2.8v.6c.5-.5.9-1 1.2-1.4zm-15.3 36.4c.2-.4.3-.8.3-1.1-.5.1-1.2.3-2 .3H30c-.3 0-.6-.2-.6-.5 0-.2-.1-.5-.1-.7 0-1.8 1.1-2.9 2-3.7.7-.6 1.3-1.2 1.6-1.8-.6.1-1.4.2-2.1.4-.2.3-.3.5-.5.8-1.2 2.1-4.6 6.1-1.1 6.9h.3c.8.1 1.6-.2 2.3-.6zM51 52.9c-.2.1-.4.1-.6 0-.2-.1-.3-.3-.4-.5v-.1c0-.2 0-.4.1-.6-.3.3-.7.7-.9 1l-.6 2.1c.7-.6 1.5-1.3 2.5-1.7.2-.1.4-.1.6.1.9-.8 2-1.5 3-2.1 2.3-1.5 4.6-2.9 5.5-4.4-1.2.3-2.7 1.2-4.1 2.3-1.9 1.4-3.7 3-5.1 3.9zm12 22.8c-.3 0-.5-.2-.5-.4-.1.7-.2 1.3-.3 1.8v1.1c0 .3-.3.6-.6.6s-.5-.2-.6-.4c-.3-.1-.5-.2-.7-.2-.3-.1-.5-.5-.4-.8.1-.3.5-.5.8-.4.1 0 .2.1.2.1V77c0-.7.1-1.4.3-2 .3-2 .8-4.4 1-6.7-.4-.7-.6-1.5-.6-2.4 0-.7.1-1.4.3-2-.6.5-1 1-1.4 1.6-.7 2.9-.8 5.8-.8 8.8v.4c0 .3-.3.6-.6.6s-.6-.3-.6-.6v-1.9c-.1 1.4-.2 2.8-.2 4 .2-.1.5-.2.8-.2.3 0 .6.2.7.6v.3c0 1.4-.5 4.4-.5 6.8 0 .8.1 1.6.2 2.2.2.6.4.8.6.9h.2c.2 0 .6-.2 1-.5.4-.4.9-.9 1.3-1.5 0-.8.2-1.6.4-2.4-.2.3-.4.6-.5.8-.1.3-.2.6-.3 1-.1.3-.4.6-.7.5-.3 0-.6-.3-.6-.6 0-.5.2-1 .4-1.4.4-1 1-2 1.5-2.9.3-.5.6-1 .8-1.5.3-2.5 1-4.9 1.4-7.2-.6 1.2-1.1 2.3-1.2 3.5-.2.3-.5.5-.8.5zm-5.7 1.8c-.2 0-.4-.1-.5-.2-.1-.1-.1-.2-.1-.2-.1-.1-.2-.3-.2-.5s.2-.4.4-.5c.1-2.2.2-4.8.8-7.2.3-1.1.6-2.2 1.2-3.3.2-.9.5-1.7.8-2.5.3-1.3.6-2.5.7-3.7-1.8 2.5-3.3 5.5-4.4 8.5-.3 1.2-.5 2.4-.5 3.6.1.1.2.3.2.4v.5c0 .7-.1 1.4-.2 2.1-.2 2.5-.4 5.1-.5 7.6.5-1.4 1.1-3 1.9-4 .1-.2.3-.4.4-.6zm-4.8 17.1c-2.3 2.7-4.2 6-6.6 8.8.2 0 .4 0 .6-.1 1-1.4 2.2-2.8 3.3-4.1 1.2-1.5 2.2-3 2.7-4.6zm25.9-50.7l.1.1s0-.1-.1-.1zm-33.5 58.7c.7-1.4 2-2.9 3-4.4.8-1.2 1.5-2.4 1.7-3.5-1 1.3-2.1 2.5-3.2 3.8-.3.3-.5.6-.8 1-1 1.4-1.9 2.8-2.5 4.2.5-.1 1.1-.2 1.6-.2h.3c-.2-.2-.3-.6-.1-.9zm16.8-40.1c0-.1-.1-.1-.1-.2-.1.1-.2.3-.3.4.2-.1.3-.2.4-.2z"/><path fill="#A7A6A7" d="M56.1 60.3c-1.4 2.3-3 4.6-3.6 6.5-.1.3-.4.5-.7.4-.3 0-.5-.3-.5-.6v-.2c0-1.2.5-2.4 1.2-3.6.2-1.1.9-2.6 1.6-4.1.1-.2.2-.5.3-.7-.5.6-1.1 1.2-1.6 1.8-1.1 1.2-2.6 2.4-2.5 3.6v.1c0 .3-.2.6-.6.7-.3 0-.6-.2-.7-.6v-.5c-.7 1.1-1.7 2.2-2.7 3.2l-.8.8v.1c.4-.5.9-1 1.3-1.5.2-.2.5-.3.8-.1.3.2.4.5.2.8-.5 1.1-1.3 2.2-2.2 3.3 0 .4.1.9.1 1.3.8-.5 1.6-.9 2.3-1.1.2 0 .4 0 .5.1.1.1.2.3.2.5-.1 1.3-1.1 2.4-2.1 3.4-.3.3-.5.5-.8.7v1.1c.1 0 .2-.1.3-.1h.2c.6-.8 1.2-1.5 1.6-2 .6-.8 1.3-2.1 2.1-3.2s1.8-2.2 3-2.7c.2-.1.4 0 .6.1.2.1.3.3.3.5v.8c0 2.6-1.3 4.5-1.9 6.7-.4 1.3-.6 2.8-.6 4.2 0 .4 0 .9.1 1.3 1.1-2.3 2.3-4.7 2.7-7.1.1-.6.1-1.3.1-1.9-.1-.1-.2-.3-.2-.4 0-.5 0-1.1.1-1.7-.2-.1-.3-.3-.3-.5v-.3c0-3.1 1.6-5.9 3-8.3.8-1.3 2.1-2.8 2.5-4.1-.9 1-2.1 2.1-3.3 3.3z"/><path fill="#A7A6A7" d="M41.7 103.9c.3-1.4 1-2.6 1.9-3.9-1.1.9-2.1 1.8-3.1 2.8-.2.2-.5.2-.8.1-.2-.2-.3-.5-.2-.7.9-2.4 2.8-4 4.6-5.6 1.3-1.1 2.5-2.3 3.3-3.5-.7.4-1.5.9-2.2 1.5-.3.5-.6 1-1 1.5-1.3 1.6-2.8 3.1-3.9 4.1-.2.2-.5.2-.8.1-.2-.2-.3-.5-.2-.7.1-.3.2-.6.4-.9-.8.5-1.6 1-2.4 1.3-.2.1-.5 0-.7-.1-.2-.2-.2-.4-.1-.7.9-2.1 2.7-3.4 4.5-4.7 1.8-1.3 3.5-2.5 4.4-4.2.1-.3.4-.4.7-.3.1 0 .2.1.2.1.1-.1.2-.3.2-.4.2-.3.5-.4.8-.3.3.2.4.5.3.8-.4.7-.8 1.4-1.4 2.1.8-.5 1.5-.9 2.2-1.3.2-.1.5-.1.7.1s.3.4.2.6c-.2.8-.6 1.6-1 2.3.7-.7 1.3-1.5 1.9-2.2.2-.3.6-.3.8-.1.3.2.4.5.2.8-.1.2-.2.3-.3.5.1.3.1.6.1.9v.7c.6-.8 1.3-1.5 2-2.2.2-.2.4-.2.7-.1.2.1.4.3.4.6 0 2.9-1.6 5.2-3.3 7.3-.9 1-1.8 2.1-2.5 3.1 2.2-.4 4.3-1.1 6-2.8 3.2-3.1 1.1-7.1 3.6-10.3.4-.5.9-1 1.5-1.4-.7-.3-1-1-1.2-1.7-.2-.7-.3-1.6-.3-2.5 0-2.1.4-4.6.5-6.1-.1.1-.3.3-.4.5-.4.6-.9 1.5-1.2 2.4-.8 1.9-1.3 4-1.6 5-.1.3-.4.5-.7.4-.3 0-.5-.3-.6-.6-.1-1-.1-2-.1-3 0-1.3 0-2.5.1-3.7-.7 1.6-1.5 3.1-2 4.6-.1.3-.4.4-.6.4-.3 0-.5-.2-.6-.5-.3-1.2-.4-2.5-.4-3.7 0-1.5.2-3.1.7-4.6.7-2.2 1.8-4 1.9-6-.5.4-1.1 1.1-1.6 1.8-.8 1.1-1.5 2.3-2.1 3.2-.5.7-1.3 1.6-2 2.5-.2 1.1-.7 1.9-1.3 2.8v.5c.1 0 .2-.1.3-.1.2-.1.4 0 .5 0 .2.1.3.3.3.5v.6c0 1.7-.9 3.1-1.7 4.5-.8 1.4-1.5 2.7-1.5 4 0 .4.1.9.3 1.4.1.3 0 .7-.4.8h-.2c-.2 0-.5-.1-.6-.4-.2-.6-.4-1.2-.4-1.8 0-1.8.9-3.3 1.7-4.7.7-1.2 1.4-2.3 1.5-3.4-.2.1-.4.2-.6.4-.1.2-.1.4-.2.5-1.6 4.5-4.6 7.7-7.6 10.8-.4.5-.8.9-1.3 1.3-1.5 1.5-2.9 3.1-4.2 4.9.6-.1 1.3-.2 1.8-.2h.3c.3 0 .6.4.5.7-.2 1.6-1.3 2.5-2.2 3.3-.9.9-1.6 1.6-1.6 2.8.6-.1 1.2-.3 2-.3h.2c.3 0 .5.2.6.5v.8c.6-.4 1.2-.9 1.7-1.1 2-1.3 4.3-1.9 6.6-2.4zm31-57.1v.2c0 .2 0 .5.1.7h.5c.5 0 .9-.1 1.1-.3-.3-.4-.7-.6-1.4-.8h-.3v.2zm.9 2.6c.2-.1.3-.3.5-.5-.2 0-.4 0-.6.1-.1.1-.2.1-.4.2h-.4c-.1.1-.3.2-.5.2-.4 0-.8-.2-1-.4-.3-.3-.4-.6-.4-.9V48s0-.1-.1-.2c-.2.4-.2.7-.2 1 0 .4.1.6.4.8.3.2.7.3 1.1.3.5 0 1.1-.2 1.6-.5zm-17.1-4.5c-.3.2-.6.5-.9.7-.2.8-.6 1.5-1.2 2.1 1.5-.9 3-1.7 4.1-2.5.9-.6 1.3-1.3 1.3-1.7v-.2c-.1-.2 0-.1-.2-.2-.3 0-1 .3-1.8.7-.5.5-.9.8-1.3 1.1zm.4 11.4c-.5.8-1.1 1.9-1.7 3.1 0 .1-.1.2-.1.3l.1-.1c.6-1.2 1.2-2.3 1.7-3.3zm9.5 7c-.4.7-.9 1.4-1.1 2.1-.5 1.3-.9 2.6-1.1 3.9.1.1.1.3 0 .5s-.1.4-.2.6c0 .2 0 .3-.1.5.5-1.1 1.1-2.2 1.2-3.3.1-.3.3-.5.6-.5s.6.3.6.6c0 .4.1.8.1 1.2 0 1.8-.4 3.6-.8 5.4.1-.2.4-.3.7-.3.3.1.5.3.5.6 0 .9-.3 2.9-.3 4.3 0 .7.1 1.3.2 1.3v.1s.1-.1.2-.1c.2-.1.3-.3.5-.6.4-.5.7-1.1 1-1.5.2-.2.5-.3.8-.2.3.1.4.4.4.7v.3c0 .2 0 .2.1.3 0 0 .2.1.4.1s.4 0 .7-.1c.1 0 .2-.1.3-.1.3-1.1.5-2.3.5-3.4 0-4.7-4.5-8.3-5.2-12.4z"/><path fill="#A7A6A7" d="M70.4 80.3H70c-.4 0-.8-.1-1.2-.3-.1 0-.1-.1-.2-.1-.3.4-.6.8-.9 1.1-.3.2-.6.4-1 .4s-.8-.2-1-.6c-.4-.6-.4-1.3-.4-2.1V78c-.3.9-.6 1.9-.7 2.8 0 .1 0 .2-.1.2-.1.3-.1.6-.2.8h.4c.3.1.4.4.4.7-.1.7-.5 1.6-1.1 2.6-.1.2-.2.4-.4.6v.5c1.4-.6 2.8-1.3 4-2.2 1.2-.9 2.2-2.2 2.8-3.7zm-1.2-23c.4-1.1.9-2.3 1.6-3.3 1-1.6 2.4-3 4.5-3.2.3 0 .7.2.7.5s-.2.7-.5.7c-1.5.2-2.7 1.2-3.6 2.6-.3.5-.6 1-.8 1.5 2.7-1.5 5.7-2.8 7.3-4.9 1-1.3 1.2-3 .9-4.6-1.9-2.1-4.9-4.9-7.7-4.9-1 0-1.9.3-3 1-.3.2-.7.1-.9-.1s-.1-.7.1-.9c1.2-.9 2.5-1.3 3.7-1.3 2.4 0 4.5 1.4 6.3 2.9-.8-2.3-3.5-3.9-6-4.6-.5-.2-1.1-.2-1.6-.2-2.9 0-5.7 2.5-7.6 5-.2.3-.6.3-.9.1-.3-.2-.3-.6-.1-.9 2-2.5 4.9-5.4 8.6-5.5.6 0 1.3.1 1.9.3 1.1.4 2.4.9 3.5 1.6-.4-.6-.8-1.1-1.2-1.5-2.5-2.9-4.7-5.7-6.7-8.8-.3-.4-.6-.9-.8-1.4-.6-1.2-1.1-2.5-1.6-3.7-.7 0-1.4-.1-2.1-.2.5.2.9.4 1.3.7.2.2.3.5.2.8-.1.3-.5.4-.8.3-.8-.3-1.6-.6-2.3-.9-.9-.2-1.9-.3-3-.3-2.6 0-5.6.5-8.1 1.3L49 26c-.5.3-1.1.6-1.7.9 1.7-.9 3.4-1.6 4.9-1.6.4 0 .7 0 1.1.2.1 0 .1 0 .1.1.4-.1.8-.1 1.2-.2.8-.1 2-.3 3.2-.3 1 0 2.1.1 2.9.7 1.6 0 3.1.3 4.3 1 .3.2.4.6.2.9-.2.3-.6.4-.9.2-.7-.4-1.7-.7-2.9-.8v.1c-.1.2-.3.3-.5.3-2.3.2-5 .4-7.2 1.2-1.6.6-2.9 1.5-3.7 2.9 1.4-.8 2.9-1.6 4.6-2.1.2-.1.4 0 .5.1.1.1.2.2.2.3 1.7-.6 3.4-1.1 4.6-1.1.4 0 .8 0 1.1.2.4.2.6.6.6 1.1 0 .2 0 .4-.1.6-.2.5-.6.8-1.1 1-.4.2-1 .4-1.5.5-1 .3-2.1.5-2.4.6-.9.4-1.9.9-2.7 1.5-.2.2-.4.3-.6.5h.2c.2 0 .4 0 .5.2l.2.2c.6-.3 1.2-.7 1.9-1 1.4-.8 2.9-1.7 4.6-1.8.2 0 .5.1.6.3.1.2.1.5 0 .7-.7 1.1-1.8 1.9-3 2.5h.8c.2 0 .3.1.4.2.1.1.1.3.1.5-.2 1.4-1.2 2.3-2.3 3.1.5-.2 1-.2 1.6-.2h.1c.3 0 .6.3.6.6v.2c0 .7-.2 1.3-.5 1.8h.2c.6 0 1.3.4 1.4 1.1.1.2.1.4.1.6 0 .6-.3 1.2-.7 1.6.2 0 .5-.1.7-.1h.1c.2 0 .4.1.5.3.1.1.1.3.1.5-.4 1.7-1.8 2.9-3.3 4.1l.6-.3c.2-.1.4-.1.6.1.2.1.3.3.3.5v.1c0 .3-.1.7-.2 1 1-.7 2.1-1.2 3.2-1.5.3-.1.7.1.8.5.1.3-.1.7-.5.8-1.6.4-3.1 1.3-4.3 2.5-.1 1.1-.4 2.1-.9 3.2.7-.6 1.4-1.1 1.9-1.6.2-.1.4-.2.6-.1.2.1.4.2.4.5.1.2.1.5.1.7v.4h.5c.3-.2.7-.1.9.2.2.3.1.7-.2.9-.1.1-.2.2-.4.2 0 .9-.1 1.7-.2 2.6.1 0 .2 0 .3.1.3.2.6.4.8.7.4-.9.8-1.7 1.3-2.3 1.5-2 3.6-3.9 5.6-5.4.3-.2.7-.1.9.1.2.3.1.7-.1.9-1.9 1.4-3.9 3.3-5.4 5.2-.5.6-1.1 1.9-1.5 3.2.1.2.1.5.1.7 1-2 2.6-3.7 4-5.3.1-.1.3-.2.5-.2.6-.6 1-.9 1.4-1.3zm.9-6.7c-.5-.4-.9-1.1-.9-1.9v-.5c-.4.4-.8.9-1.2 1.3-.2.3-.6.3-.9.1-.3-.2-.3-.6-.1-.9 1.2-1.3 2.8-3.3 5.3-3.4.3 0 .6 0 .9.1 1.5.3 2.3 1.3 2.7 2.2.5.9.8 1.6 1.6 2 .3.2.4.5.3.8-.1.2-.3.3-.6.3-.1 0-.2 0-.3-.1-.9-.5-1.3-1.1-1.7-1.7-.2.6-.6 1.1-1.1 1.4-.7.5-1.5.7-2.4.7-.4.1-1.1 0-1.6-.4zM106 34c-.1-.3.1-.6.4-.7-.8-.4-1.7-.9-2.6-1.5-.2-.1-.4-.2-.6-.2.9.8 1.8 1.7 2.8 2.4 0 .1 0 .1 0 0z"/><path fill="#A7A6A7" d="M104.5 41.8c-.3 0-.7-.2-.7-.6 0-.3.2-.6.6-.7h.4c.8 0 1.7.2 2.5.6-1.8-2.6-3.6-4.4-6.3-6.3-2.1-1.5-4.9-3.9-7.1-3.8-.3 0-.6-.3-.6-.6s.3-.6.6-.6h.1c3 0 5.9 2.7 7.8 4.1 1 .7 1.9 1.4 2.7 2.1-.5-.5-.9-.9-1.3-1.4-.5-.6-1-1.2-1.6-1.8-.6-.4-1.1-.8-1.7-1.3-.8-.6-1.6-1.3-2.4-1.9-.4-.3-.7-.5-1.1-.6-.6-.2-1.2-.3-1.9-.3-.3 0-.6-.2-.6-.6 0-.3.2-.6.5-.7.2-.1.5-.1.7-.1h.1c-.2-.1-.3-.3-.5-.4-.2-.2-.2-.6 0-.8.2-.2.5-.3.8-.2 1.6 1 3.5 1.9 5.1 3.2.1 0 .2.1.3.1-1.8-1.8-3.2-3.6-3.6-5.2-.1-.3.1-.6.4-.7h.1v-.1c.2-.2.4-.3.6-.2.4.1.8.2 1.2.4-.2-.4-.5-.8-.6-1.2V22l-.9.3c-1.9.6-5 1.1-6.1 2.8.1.5.4.5.9.8l1.8-.6c-1 .5-1.9 1-2.8 1.7l-.2.2c.1.2.1.4-.1.6-.2.3-.6.4-.9.2-5.1 4.4-8.4 11.8-7 18 1 4.2 5.3 5.9 8.8 7.8 1.3.7 2.7 1.5 4 2.2v-.1c0-.3.3-.6.7-.6h.1l-.2-.2c-.3-.2-1-.6-1.7-.9-.7-.4-1.4-.8-1.9-1.1-.1-.1-.3-.2-.4-.5-.1-.3.1-.7.5-.7.3-.1.6.1.7.3.1 0 .2.1.3.2.3.2.6.4 1 .6.8.4 1.7.9 2.2 1.2.6.4 1.1.8 1.6 1.3-.1-.2-.1-.5.1-.7.2-.2.6-.2.9 0l.6.6c.6.6 1.4 1.2 2.1 1.7-.8-1.6-1.5-3.2-1.7-4.7 0-.3.2-.6.5-.7.3-.1.6.1.7.5.2.9.7 2.1 1.3 3 .2.3.4.6.6.8v-.7c-.7-1.6-1.6-3.4-1.6-5.4v-.1c0-.3.3-.6.6-.6s.6.2.7.5c.1.5.4 1.1.7 1.6v-.1c.1-.2.1-.3.2-.5-.5-1.3-.9-2.8-.9-4.2v-.4c0-.2.1-.4.3-.5.2-.1.4-.1.6 0l2.4 1.2c.2-.3.5-.7.7-1-.8-.3-1.5-.5-1.9-.5-.5-.1-1-.2-1.6-.2-1.4 0-2.9.3-3.8 1-.3.2-.7.1-.9-.2-.2-.3-.1-.7.2-.9 1.2-.8 2.9-1.2 4.5-1.2.6 0 1.3.1 1.8.2s1.4.4 2.3.7l.6-.9c-1-1-3.1-2.1-4.6-2.1-.1.1-.2.1-.3.1zm-4.3 7.7h.2c.3 0 .6.3.6.6s-.3.6-.6.6h-1c-1 0-2.1 0-3.1-.7-.3-.2-.5-.4-.7-.6-.4 1.3-1.5 2.2-2.8 2.2-.6 0-1.2-.2-1.8-.7-.2 0-.4-.1-.5-.3-.3-.5-.5-1.1-.5-1.7 0-1.7 1.4-3.2 3.1-3.2.7 0 1.4.3 2 .8.6.5.8 1.1 1 1.5.2.4.4.7.8 1 .6.4 1.5.5 2.5.5h.8zm2.2-10.3c0-.1 0-.1-.2-.2s-.6-.2-1.1-.2c-1.7 0-4.4.8-6.7 2.1s-4 3-3.9 4.6v.4c.1.3-.2.7-.5.7h-.1c-.3 0-.6-.2-.6-.5 0-.2-.1-.5-.1-.7 0-2.4 2.2-4.3 4.6-5.7 1.7-.9 3.6-1.6 5.2-2-.7-.2-1.5-.3-2.2-.3-2.3 0-4.6 1-6 2.6-2.1 2.5-2.5 3.7-2.6 6.9 0 .3-.3.6-.6.6s-.6-.3-.6-.6c0-3.3.6-5.2 2.9-7.8 1.7-2 4.4-3.1 7-3.1 1.5 0 3 .4 4.3 1.1.1.1.2.1.2.2.5 0 1 .1 1.4.3.5.2.9.6.9 1.2.1.3-.2.7-.5.7-.4.3-.8 0-.8-.3zm4.3-4.7h-.2c.1.1.2.1.3.2.5.3.9.6 1.4.8 0-.2.2-.5.4-.5.3-.1.6 0 .8.3l.6.9c-.2-.6-.4-1.1-.5-1.7-.4-.1-.9-.1-1.3-.1-.5-.1-1 0-1.5.1zm3.5 7.9c.1-.2.2-.4.2-.6.1-.2.1-.3.1-.5-.5-.2-1-.5-1.5-.7.4.5.8 1.1 1.2 1.8zm-2.1-5.4c-.7-.3-1.4-.7-2-1.2l-.1-.1c.3.4.7.8 1 1.2.4.5.7 1 1 1.5.7.4 1.3.8 2 1.2-.6-.8-1.1-1.6-1.5-2.6h-.4z"/><path fill="#A7A6A7" d="M101.3 27.1c.5.4 1.1.9 1.8 1.3l-.9-.6c-.3-.3-.6-.5-.9-.7zm4.5 22.2s0-.1.1-.1c.3-.4.5-.8.8-1.3-.4-.2-.9-.4-1.3-.6 0 .6.2 1.3.4 2zm1.5-24.1c.1.2.1.3.2.5.3.2.6.4.8.7.1 0 .2.1.3.1l-1-1c0-.1-.2-.2-.3-.3zm-1.5-.8c0-.1 0-.2-.1-.4v-.1c-.6-.4-1.3-.8-2-1 .7.4 1.3.9 1.9 1.4.1 0 .1 0 .2.1zm10.6.9c-.2-.1-.3-.2-.3-.2h-.1c.3.2.6.4.8.5-.1-.1-.3-.2-.4-.3zm-4.9-1.4c.8.9 1.9 1.7 3 2.5-.1-.3-.1-.6-.1-.9-1-.5-1.9-1.1-2.9-1.6zm-5.3 4.4c.3.2.7.4 1 .6l-.6-1.8c-1.4-.9-2.8-2.1-3.8-3.3-.7-.4-1.3-.7-2-.9 1.2 1.9 3.3 3.7 5.4 5.4zm3.9-2.8l1.2 1.2c-.1-.2-.3-.5-.4-.7-.3-.2-.5-.4-.8-.5zm9.2 3.5l-.6-.9h-1.4c-.3 0-.6-.4-.5-.7 0-.1 0-.2.1-.2-.3-.2-.7-.4-1-.6.2.4.4.9.7 1.4.3.2.6.4 1 .6 1 .7 1.9 1.4 2.8 2.1-.4-.6-.7-1.1-1.1-1.7zm-9.4-5.8l.3.3c0-.1.1-.1.2-.1-.2 0-.3-.1-.5-.2zm-.5 6.2c.4.7.8 1.3 1.3 1.9.4.4.7.8 1 1.2.2.1.3.2.4.3-.2-.7-.3-1.5-.4-2.3 0-.2.1-.4.2-.5-.1-.1-.2-.1-.3-.2-.4-.2-.8-.4-1.3-.6h-.1c-.4-.2-.8-.3-1.1-.5 0 .2.2.5.3.7zm-.3 2.9c-1.7-.5-3.5-1.2-5.3-2.1.2.2.4.4.7.5 1.4.6 2.7 1.2 3.9 1.9.2.1.3.3.3.5.3 0 .6 0 .8.1v-.5l-.4-.4zm6.6-3.5c-.1 0-.1 0 0 0l-.1.1c-.2.2-.6.2-.9 0 1.6 1.7 3.5 3.2 5.2 4.8h.1c-.3-.3-.6-.5-.9-.8-1.2-1.2-2.5-2.7-3.4-4.1zm-5 9.6c0-.1 0-.1 0 0 0-.1 0 0 0 0zm2.5-6.7c.1.6.3 1.3.4 2 .5-.1 1-.2 1.6-.3l-.4-.4c-.6-.5-1.1-1-1.6-1.3zm1.6-7.3l.2-.2c-.5-.2-1-.5-1.6-.7.5.3 1 .6 1.4.9zm-13-2.5c0-.1 0-.2.1-.2-.2 0-.5 0-.7.1.2 0 .4 0 .6.1zm1.7-.3c1.2.2 2.2.7 3.1 1.3.2-.2.5-.3.7-.2.4.1.8.3 1.2.5-.1-.2-.2-.5-.3-.7-.1-.2-.1-.3 0-.5-1.7-.3-3.2-.5-4.7-.4zm7.6 14c.1-.3.3-.5.4-.8-.2-.1-.5-.1-.7-.2.1.4.2.7.3 1zm7.9-9.3c.9 1.3 1.8 2.8 2.6 3.9.5.8.9 1.4 1.1 1.6.4.5 1 1 1.6 1.5.6-.3.9-.7.9-1.3-.6-1.5-1.5-2.9-2.9-4.3-1.1-.8-2.4-1.4-3.7-2 .1.3.3.4.4.6zM98.3 57c.2.1.3.2.5.3-.2-.1-.4-.2-.5-.3zm-3.8-9.2c-.1-.1-.1-.2-.2-.3-.2-.1-.3-.2-.5-.3v.1c.1.5.1.9.1 1.3v1c.2-.3.3-.6.3-1v-.3c0-.1.1-.3.3-.5zm9.7 11.8c.2.3.4.7.6 1v-.5c-.2-.2-.4-.4-.6-.5zM92.3 48c-.1.1-.2.2-.3.2h-.1c0 .1.1.4.3.6.2.2.4.3.5.3v-.2c0-.4-.1-.7-.1-.9-.2.1-.3.1-.3 0zM42.9 194.2c.5.4 1.1.7 1.6 1.1-.6-.8-1.2-1.7-1.7-2.6-.1-.3-.1-.6.2-.8h.2v-.1c-.3-.9-.5-1.8-.7-2.7v.4c.1 1.9.1 3.3.4 4.7zm.9 14.7c.4.4.8.8 1.3 1-.2-.5-.5-1-.8-1.5l-.5.5z"/><path fill="#A7A6A7" d="M63.1 177.4c-1.6-.2-3.1-.6-4.7-1-2.6-.6-5.8-.3-7.9-2.1-3.9-3.2-3.7-11-3.7-15.5l-1 1.2c0 1 0 1.9-.1 2.5-.3 3.4-.9 6.6-1.5 9.9-.2 1.3-.7 2.4-1 3.5-.1 1-.2 2.1-.3 3.1 0 1.2.2 2.5.3 3.7.2 2.9.4 6.1 1.2 8.5.1.3-.1.7-.4.8.3.6.8 1.2 1.3 1.7.2.2.2.4.2.6.5.7.9 1.4 1.2 2.1.1.2.1.5-.1.7-.2.2-.4.2-.7.2-.8-.3-1.5-.6-2.1-1.1.2.3.3.6.5 1 .4.7.9 1.5 1.2 2.3.6.7 1.2 1.3 1.8 1.9.2.2.2.5.1.7-.1.2-.4.4-.7.3-.1 0-.3-.1-.4-.1.1.5.1 1 .1 1.5.5.6 1 1.2 1.3 1.9.1.2.1.4 0 .6-.1.2-.3.3-.6.3-.4 0-.8-.1-1.3-.3-.2.4-.5.8-.8 1.1 0 .1.1.1.1.2.6.8 1.1 1.7 1.2 2.6.6-1.5 1.3-3 2-4.2.2-.3.5-.4.8-.3.3.2.4.5.3.8-.7 1.4-1.5 3-2.1 4.6 1.3-1.6 2.9-3 4.2-3.8.2-.1.6-.1.8.1.2.2.2.5.1.8-1.4 2.4-3.4 4.5-4.2 6.8 1.7-2.7 3.5-5.6 6.1-7.5.2-.1.4-.2.6-.1.2.1.3.3.4.5.1.3.1.6.1.9 0 .4-.1.8-.1 1.2.1 0 .3 0 .4.1.3.1.4.5.3.8.1-.1.2-.1.4-.1.3.1.5.3.5.6v.2h.2c.2 0 .4.2.5.4.2.1.3.3.3.5v.3c0 .4 0 .9-.1 1.3.4-.3.8-.5 1.2-.8.6-1.2 1.5-1.9 2.9-2.6 0 0 .1 0 .1-.1.1-.2.2-.4.3-.7.2-.6.3-1.2.4-1.7-.1-.6-.2-1.2-.2-1.8 0-2.4.8-4.9 1.4-7 1.1-3.7 1.8-7.3 2.7-11 .9-3.6 1.2-7.4 1.6-11.3-1.5-.1-4.1.4-5.1.3zM46 211.7h-.3c-.4-.1-.8-.3-1.2-.6.5.9.9 1.7 1.1 2.7.1-.7.2-1.4.4-2.1zm22.5-18.1c.7-3.2-.2-6.7.3-10 .3-2.1 1.9-4.3.6-5.8-.4 3.7-.7 7.4-1.6 11-.9 3.7-1.6 7.4-2.7 11.1-.3.9-.5 1.8-.8 2.8.1-.1.1-.2.2-.3 1.7-2.8 3.3-5.7 4-8.8zM42.2 211l.3.3c.5.6 1 1.1 1.5 1.6-.4-.8-.9-1.7-1.4-2.6-.1.2-.2.3-.3.5-.1.1-.1.2-.1.2zm-2.1 8.7c.4-.5.7-.9.9-1.4.5-1.4 0-3.3.6-5.2.1-.2.2-.3.4-.4l-.3-.3c-.8 2.1-1.4 4.6-1.5 6.8-.1.1-.1.3-.1.5z"/><path fill="#A7A6A7" d="M54.7 213.7c-.6 1.3-1.2 2.5-1.6 3.8.6-1.3 1.1-2.6 1.6-3.8z"/><path fill="#A7A6A7" d="M40.4 221.7c3 0 6.2.6 9.2.9 1.1.1 2.2 0 3.2-.2v-.4c0-.5.1-1 .1-1.5-.1.2-.3.4-.4.7-.1.2-.4.3-.7.3-.3-.1-.5-.3-.5-.6v-1.2c-.1.1-.1.2-.2.4s-.4.4-.7.3c-.3 0-.5-.3-.5-.5 0-.3-.1-.5-.1-.8 0-2.1 1.1-3.8 2.2-5.5.9-1.4 1.8-2.8 1.9-4.1-2.5 2.3-4.3 5.8-6.3 8.7-.2.2-.4.3-.7.2-.3-.1-.4-.3-.5-.6v-.5c0-2.1.9-3.8 1.9-5.4-.9 1-1.5 2.1-1.8 2.9-.1.3-.4.5-.7.4-.3 0-.5-.3-.6-.6v-.1l-.1.1c-.1.1-.3.1-.4.1h-.2c-.8-.3-1.5-.8-2.1-1.4-.5 1.4.1 3.3-.6 5.2-.4 1.1-1.1 1.9-1.9 2.7.4.3.5.4.5.5zm79-29.3c.1.2.3.4.4.5-.1-.4-.2-.9-.4-1.3-.4-.3-.9-.5-1.4-.8.5.5 1 1 1.4 1.6zm-9.2-7.8c.5 0 1-.1 1.5-.1l-.3-.3c-.5.1-.9.2-1.2.4zm12.3 21.9c-2.9-1.5-4.9-4.1-7.6-5.3.4.9.9 1.8 1.5 2.7.5.5.9 1 1.1 1.6 2.1 2.9 4.5 5.7 5.6 9.2.1.2 0 .4-.1.6-.1.2-.3.2-.6.2-2-.3-3.1-1.8-4-3.1-.7-1.1-1.4-2.1-2.3-2.6.1.6.4 1.3.9 2.1.5.9 1.2 1.7 1.6 2.6.8 1.7 1.2 3.5 1.7 5.1 1.4-.9 2.4-2.1 3.2-4.3 1.2-3.3.7-6.1-.2-8.9v.1c-.3.1-.5.1-.8 0zm-8.9 8c-.2 0-.4.1-.5.2-.3.2-.5.7-.5 1.4 0 1 .3 2.3.7 3.5.2.8.5 1.5.7 2.1.8-.2 1.5-.4 2.2-.6 1.1-.3 2.1-.6 2.9-1-.3-.7-1.1-2-2.1-3.1-1.1-1.4-2.6-2.5-3.4-2.5zm6.2-14.3c.7 1 1.7 2.2 2.5 3.4-.3-.8-.5-1.6-.8-2.5-.1-.4-.2-.7-.3-1.1-1.3-.8-2.4-1.8-3.5-2.7.8.9 1.5 1.9 2.1 2.9zm-7-5.6c-.2-.1-.3-.3-.4-.5-2.1-.4-4.2-1-6.3-1.5 1.5.7 3.2 1.2 4.7 2 2.1 1.2 4 2.8 5.7 4.6.2.2.2.5.1.8-.2.2-.5.3-.7.3-.1 0-.2-.1-.3-.1 2.2 1.1 3.9 2.8 5.6 4.1-.7-1.1-1.7-2.2-2.5-3.3-1.6-2.6-3.3-5.2-5.9-6.4zm-4.3-8.7h-.3c.1 0 .3.1.4.1.6.2 1.2.5 1.8.7.1-.3.5-.5.8-.3.4.2.7.3 1.1.5 2 .9 4.3 1.8 6.4 2.9-.3-.6-.5-1.1-.9-1.7-.1-.1-.3-.2-.4-.3-1.2-.8-2.6-1.5-4-2.3-1.6.1-3.3.4-4.9.4zm-3.6-8.5c-.5.3-.9.7-1.2 1.1.8-.2 2.1-.6 3.5-1 1.2-.3 2.5-.7 3.7-.9-.3-.5-.5-.9-.8-1.4-.2.1-.3.1-.5.2-1.6.6-3.5 1.2-4.7 2zm-2.3-48v-.7l-.8-.8c.3.5.5 1 .8 1.5zm12.7 54.5c-.2-.3-.4-.6-.5-.9-.2.1-.5.2-.7.3.3.2.8.4 1.2.6zm1.4 7.5c.5.7 1 1.5 1.3 2.4.1.3 0 .5-.2.7-.2.2-.5.2-.7 0h-1.2c1.8 1 3.4 2.5 5 3.7 0-.1 0-.2-.1-.3-.7-1.7-1.3-3.4-2.5-4.8-.4-.6-1-1.2-1.6-1.7zM105.4 169c-1.1.9-2.1 1.8-2.9 2.7 1.6-.9 3.2-1.9 4.9-2.7-.2-.5-.3-.9-.5-1.4-.5.4-1 .9-1.5 1.4zm-8-52.6zm-5.8 35c0-.3.2-.5.5-.5s.5.1.7.3c.2.3.4.7.7 1.1-.1-.2-.1-.4-.2-.5-.9-1.5-2.3-2.9-3.8-4.4.8 1.4 1.6 2.9 2.2 4.4-.1-.1-.1-.3-.1-.4zm22 48.1c-1.7-.5-3.3-1-5-1.5-1.6-.5-3.3-1.4-4.7-1.6.6 1.3 2.2 2.4 4.2 3.3 1.9.9 4.1 1.6 5.9 2.6-.3-.6-.6-1.3-.8-2-.1-.2 0-.5.2-.6l.2-.2zm-3.5 21.7c-.6-.8-1.1-1.7-1.6-2.3-.1.7-.2 1.6-.3 2.6-.1.6-.1 1.1-.3 1.7 1.1-.2 2.2-.4 3.2-.7-.3-.4-.7-.8-1-1.3zm-23.5-49.9c0 .1.1.2.1.3v-.3h-.1zm-2.3-7.6c.2 1.7.7 3.4 1.3 5.2-.4-1.7-.8-3.5-1.3-5.2zm17.6-14.3c-.4-.2-.8-.5-1.2-.8.4 1.1.7 2.3.7 3.6.2-.1.4-.1.6 0 .3.2.4.5.2.8-1.3 2.3-2.7 5.4-3.6 8.4.4-.6.9-1.2 1.3-1.7 1.2-1.4 2.5-2.7 3.7-3.6-.1-.4-.2-.9-.3-1.3-.6-2-1.1-3.7-1.4-5.4zm1 13.7c-1.5 2-2.9 3.9-3 5.9 1.2-.7 2.2-1.9 3.3-3.2.7-.9 1.5-1.8 2.4-2.5l-.3-.9c-.2-.6-.4-1.3-.5-1.9-.6.9-1.3 1.8-1.9 2.6zm-7.1-54.5c-.1-.6-.5-1.3-1.1-2.1l-.3.5c1 1.3 1.9 2.7 2.2 4.4 0 .3-.2.6-.5.7h-.2c.3.4.6.9.8 1.4.2.4.4.9.6 1.2.7.5 1.5 1.1 2.2 1.7-.1-.1-.1-.3-.2-.4-.8-1.5-1.9-2.9-2.5-4.4-.3-.7-.4-1.5-.5-2.3v-.2c-.3-.1-.5-.2-.5-.5zm-4.9 5.2c1.7.4 3.7 1.2 5.7 2.2-.1-.1-.2-.2-.2-.3-.4-.3-.8-.6-1.1-1-.3-.3-.5-.7-.7-1.1-.2-.3-.5-.5-.7-.8-.5-.6-1.1-1.3-1.5-2l-1.7 3h.2zm1.9 44.8v.6c0 .1 0 .2-.1.3.1.2.2.4.3.5-.1-.5-.1-1-.2-1.4zm-5.5 9.4c.2-.8.4-1.6.8-2.2.1-.2.2-.3.4-.3s.4 0 .5.1c.7.5 1.1 1.2 1.5 1.8.1.2.2.3.3.4v-1.3c0-2.8-.2-5.7-.3-8.4 0-.1 0-.2.1-.3-.4-.7-.8-1.5-1.2-2.2.1.5.2.9.3 1.3.3 1.9.6 3.8.6 5.8v.9c0 .2-.1.4-.3.5-.2.1-.4.1-.6 0-1.4-1-2.6-2.4-3.6-4 .4.9.7 1.9 1 2.9.3 1.7.4 3.4.5 5zm-2.8-41.9c.1.1.2.3.2.4 0 .2 0 .2.1.2 0 0 .1.1.3.1h.2c.1-1.1.1-2.2.1-3.3l-.7 1.2c0 .4-.1.7-.1 1.1 0 0-.1.1-.1.3zm15.8 11.8c.5.7 1 1.5 1.4 2.2 0-.4.1-.7.1-1.1-.4-.3-.9-.7-1.5-1.1zm-5.7 16.2c.2.3.5.6.7.8-.2-.5-.4-.9-.6-1.4-.2.1-.5.1-.7 0 .3.1.4.3.6.6z"/><path fill="#A7A6A7" d="M87.6 213.6c4.6 2.1 5.7 6.1 7.2 10.5.7-.1 1.5-.1 2.3-.2 1.3-.1 2.9-.5 4.5-.5.8 0 1.5.1 2.2.3.1 0 .2.1.3.1.8-.1 1.6-.2 2.4-.4.2-.5.4-1.3.5-2.1.2-1.3.2-2.8.6-3.9.1-.2.2-.3.4-.4.2 0 .4 0 .5.1 1 .8 1.7 2.2 2.5 3.3.5.7 1.1 1.3 1.6 1.6h.1c-.2-.6-.4-1.3-.7-2-.4-1.3-.8-2.7-.8-3.9 0-.9.2-1.8.9-2.4.4-.3.9-.5 1.3-.5 1.6.1 3 1.4 4.3 2.8-.1-.4-.3-.8-.5-1.2-.3-.7-.9-1.6-1.5-2.5-.6-.9-1.1-1.9-1.1-3.1 0-.2 0-.4.1-.7 0-.2.1-.3.3-.4.1-.1.3-.1.5-.1 2 .5 2.9 2.1 3.8 3.4.6 1 1.2 1.8 2 2.2-.9-2.3-2.6-4.4-4.2-6.6h-.1c-.4 0-.7.1-1.1.1-2.7 0-5.3-1-7.7-2.3 1.6 1.9 3 3.9 4.6 5.9.2.2.2.5 0 .7-.2.2-.4.3-.7.2-3-.9-5.6-2.7-8.2-4.1 1.9 1.7 4.1 3.4 5.9 5.2.2.2.2.6 0 .8-.2.2-.6.3-.8.1-2.4-1.7-5.1-3.5-7.8-4.7 1.8 2.3 4.2 4.4 5.4 7.6.1.2 0 .5-.1.7-.2.2-.4.2-.7.2-1.9-.6-3.5-1.9-5-3.1-.1-.1-.3-.2-.4-.3 1.2 1.3 2.3 2.8 3.2 4.3.2.2.1.6-.1.8-.2.2-.5.2-.8.1-2.4-1.6-4.7-3.2-6.9-5 .4.6.8 1.2 1.3 1.8.4.5.8.9 1.2 1.4.9.8 1.8 1.6 2.5 2.4.2.2.2.6 0 .8-.1.1-.3.2-.5.2-.1 0-.3 0-.4-.1-.7-.5-1.6-1.4-2.5-2.4-1.3-1.1-2.8-2.2-4.2-3.3.1.3.3.6.4.8.5 1.1 1.1 2.2 1.1 3.2 0 .3-.1.7-.4 1-.2.2-.6.3-.9 0-.2-.2-.3-.6 0-.9v-.1c0-.4-.4-1.6-1-2.7-.5-1.1-1.1-2.2-1.1-3.1 0-.2.1-.5.4-.6.2-.1.5-.1.7.1.6.5 1.3 1.1 2 1.6-.5-.8-.8-1.6-.9-2.3 0-.3.1-.5.3-.6.2-.1.5-.1.7.1 1.9 1.7 4 3.3 6.1 4.8-1.4-1.7-2.9-3.3-4.6-4.8-.2-.2-.3-.5-.1-.8.1-.3.4-.4.7-.3 1.8.5 3.4 1.8 5 3 1.1.8 2.1 1.7 3.2 2.3-1.5-2.7-4-4.7-5.8-7.6-.1-.2-.1-.5 0-.7.2-.2.4-.3.7-.2 1.1.4 2.2.8 3.2 1.4-.8-.7-1.6-1.5-2.2-2.3-.2-.2-.2-.5 0-.8.2-.2.4-.3.7-.2 3.3 1.1 6.1 3.2 9 4.6-2.1-2.8-3.9-5.2-6.7-7.5-.3-.2-.3-.6-.1-.8.2-.3.6-.3.8-.2 3.4 2.1 7.5 4.6 11.3 4.6h.3v-.1c-.3-.5-.7-.9-1-1.4l-.1-.1c-.7-.6-1.7-1.2-2.8-1.7-2.3-1.1-5.1-1.9-7.2-3.3-1.4-.9-2.6-2.1-2.9-3.7 0-.2 0-.4.1-.5.1-.1.3-.2.4-.3h.5c2 0 4 1.2 5.6 1.7 1.6.5 3.2 1 4.7 1.5-1.1-1-2.3-1.8-3.6-2.6-2.1-1.2-5.4-1.8-7.4-3.9-.2-.2-.2-.5-.1-.7.1-.2.4-.4.6-.3 3.7.5 7.3 1.9 10.9 2.4-1.3-.5-2.7-1-4.1-1.4-1.1-.4-2.9-1.2-4.8-2-.3-.1-.6-.2-.9-.4h-1.8c-1.2 0-2.6 0-3.5-.2-.3-.1-.6-.1-.8-.3-.1-.1-.4-.3-.4-.7 0-.3.2-.5.3-.7.1-.1.3-.2.5-.3.4-.2.9-.3 1.5-.3 1.3 0 2.9.5 4.4 1.1h1c3.5 0 6.8 1.5 9.6 3.5-1.7-2.1-4.3-3.3-7.1-4.3-3.9-1.4-8.3-2.2-11.7-4.1-.3-.2-.4-.6-.2-.9.2-.3.5-.4.9-.2 2.8 1.6 6.6 2.4 10.2 3.6 0 0 0-.1-.1-.1-.1-.2-.1-.5.1-.7.7-.8 1.7-1.2 2.8-1.6-.2-.2-.2-.5-.1-.7.1-.3.4-.4.7-.3.5.1 1 .2 1.5.4.7-.2 1.3-.4 1.8-.6-.8-1.3-1.5-2.6-2.3-3.9-.1-.1-.1-.2-.2-.4-1.3.2-2.7.6-4 1-1.9.5-3.5 1.1-4.6 1.1h-.2c-.2 0-.3-.1-.4-.2-.1-.1-.2-.3-.1-.5.3-1.9 2-2.9 3.6-3.6 1.3-.5 2.6-1 3.8-1.4-.1-.3-.3-.5-.4-.8-.6.3-1.3.6-1.9 1-1.6.9-3.2 1.9-4.9 2.3-.3.1-.6-.1-.7-.3-.1-.3 0-.6.2-.8.8-.6 2.4-1.4 4-2.3.9-.5 1.7-1 2.5-1.5-.2-.5-.4-1-.6-1.4-2.3 1.1-4.4 2.5-6.8 3.6-.2.1-.5.1-.7-.1-.2-.2-.2-.4-.2-.7.7-2 2.7-3.4 4.4-4.9.7-.6 1.4-1.2 1.9-1.8-.2-.5-.3-1-.5-1.5-.6.6-1.2 1.3-1.8 2-1.3 1.5-2.6 3.2-4.6 4-.2.1-.4.1-.5 0-.2-.1-.3-.3-.3-.5 0-.3-.1-.6-.1-.8 0-2.6 1.7-4.8 3.3-6.9.9-1.2 1.8-2.5 2.4-3.7-.1-.4-.2-.9-.3-1.3-1 .8-2.1 1.9-3.1 3.1-1.7 2-3 4.2-3 5.6 0 .3-.3.6-.6.6s-.6-.3-.6-.6v-.3c0-3.9 2-8.7 3.9-12.2 0 0-.1 0-.1-.1-.7-.6-1.4-1.4-2.1-2.4-.7-.9-1.4-1.9-2-2.5l-.4-.4c-.1.6-.2 1.3-.2 2 0 2.1.6 4.3 1.9 5.4.2.2.3.4.2.7-.1.2-.3.4-.5.4h-.3c-1.4 0-2.4-.9-3.2-1.9-.2-.3-.4-.5-.6-.8.2 1 .6 2 .8 3 .4 2 .5 4 .7 6 0 .3-.2.6-.5.6-.3.1-.6-.1-.7-.4-.4-1-.9-1.9-1.5-2.9.1 2 .2 4 .2 6 0 1 0 2-.1 2.9 0 .2-.2.4-.4.5-.2.1-.4.1-.6-.1-.7-.5-1.1-1.2-1.5-1.9l-.6-.9c-.8 2.2-.9 5.3-1.1 7.8v.3c0 .3-.2.6-.5.6-.2 0-.5-.1-.6-.4-.1-.3-.2-.5-.3-.8-.1.9-.1 1.8-.1 2.7 0 1 .1 2 .2 2.9.2 1.2.7 2.4.7 3.9 0 .4 0 .8-.1 1.2-.1.3-.3.4-.6.5-.4 0-.8.2-1.4.2.1.3.3.6.6 1 .5.5 1.2.9 1.9 1.4 1.5.9 3.2 1.7 3.7 3.6 0 .2 0 .4-.2.6-.1.2-.4.2-.6.2-1.5-.3-2.6-1.4-3.6-2.3-.4-.4-.8-.7-1.2-1 .1.5.2 1.1.3 1.7.3.4.7.8 1 1.2.8.9 1.6 1.7 2.3 2.5.5.5 1 1.1 1.3 1.6.2.3 0 .7-.2.8-.3.2-.7.1-.8-.2-.2-.4-.6-.8-1.1-1.4-.5-.5-1-.9-1.5-1.3-.3.6-.5 1.4-.5 2.3 0 1.7.6 3.7 1.2 5.1.1.3 0 .6-.2.7-.2.2-.5.2-.7 0-.8-.6-1.5-1.1-2.2-1.4-.1.3-.1.6-.2.9.1.1.2.3.4.4.4.3.9.5 1.3.7.3.1.5.5.3.8-.1.3-.5.5-.8.4-.4-.1-.8-.3-1.2-.5.2.5.5 1 .9 1.5.6.9 1.4 1.9 1.7 3.1.1.2 0 .4-.2.6-.1.2-.4.2-.6.2-.9-.2-1.7-.7-2.3-1-.1.4-.2.9-.2 1.5 0 .8.1 1.6.4 2.2.9 1 2 1 3.8 1.9z"/><path fill="#A7A6A7" d="M89.9 122.9c0 1.3-.6 2.7-2.1 3.2h-.2c-.3 0-.5-.2-.6-.4-.1-.3.1-.7.4-.8 1-.3 1.2-.9 1.3-2 0-1.1-.4-2.4-.9-3.7l-1 1.8c-.1 2.1-.1 4.2-.2 6.4 0 .3-.2.5-.5.6-.3.1-.6.1-1 .1s-.8-.1-1.1-.3l-.1-.1c-1.3 2.2-3.5 3.6-4.8 5.3-.1.2-.3.2-.5.2h-.2c-.2-.1-.4-.3-.4-.6v-.1c0-.4.2-.8.4-1 .2-.2.3-.2.4-.3.1-.2.3-.2.5-.3 1.6-1.6 3.4-3 4.1-5-4 1.6-8.3 4.1-11.3 7.4 0 0 .1 0 .1.1.2.3.2.7-.1.9-.5.5-1.2.7-1.6 1-.1.2-.2.3-.3.5-1.8 2.9-1.6 5.6-2.1 8.7-.5 2.8-1.4 4.8-.4 7.6.7 1.7 1.6 3.1 2.5 4.5v-5.8c0-.3.3-.6.6-.6s.6.3.6.6c0 2.5 0 5-.1 7.5 1.7 2.4 3 4.9 2.7 8.8-.5 5.6-2.6 10.8-2.8 16.6-.1 3.5-1 8 4 6.9 2.4-.5 5.6-3.6 7.7-3.5.5 0 1 .2 1.4.4-.4-.5-.6-1.1-.6-1.9 0-.2.1-.3.2-.5.1-.1.3-.2.5-.2h.1c.4 0 .8-.1 1.3-.2v-.5c0-1.1-.5-2.3-.7-3.7-.2-1-.2-2.1-.2-3.1 0-1.7.1-3.4.3-4.9 0-.3.2-.5.4-.5-.4-.8-.8-1.7-1.1-2.5-1.2-3.3-1.7-6.3-1.7-9.7v-.1c0-.3.2-.5.5-.6.3-.1.6.1.7.3.1.2.2.5.4.7-1.1-2.4-2.4-4.8-3.1-7.4-.1-.3.1-.6.3-.7.3-.1.6-.1.8.2 2.3 3.1 4.1 7.6 6.8 10.1 0-1.7-.3-3.5-.6-5.2-.3-1.7-1.4-4.1-1.4-6.2 0-.3 0-.6.1-.8.1-.3.3-.5.6-.5s.5.1.6.4c.8 2.3 1.9 4.7 3.2 6.9-.4-5-3.7-9.9-6.6-13.9-.2.2-.4.3-.7.3-.5 0-.7-.3-1-.5-.2-.3-.5-.6-.7-.9-.4-.7-.8-1.7-1.2-2.6-.7-1.9-1.3-3.9-1.5-4.5-.1-.3.1-.7.4-.8.3-.1.7.1.8.4.2.7 1.2 4.2 2.2 6.2.3.6.6 1.1.8 1.3.2-.3.6-.4.8-.2.3-.1.6 0 .7.2 1.6 2.1 4.4 4.2 6.6 6.6-.7-2.1-1.7-4-3-5.8-.2-.3-1.3-1.3-2.4-2.2-1.1-1-2.2-1.9-2.8-2.7-.1-.2-.3-.4-.3-.8 0-.1 0-.2.1-.3.1-.3.5-.5.8-.3.2.1.4.3.4.6 0 0 0 .1.1.1l.5.5c.4.4 1 1 1.6 1.5 1.3 1.1 2.6 2.2 3.1 2.8 1.7 2.3 2.9 4.8 3.7 7.5.2.6.3 1.2.4 1.8v-1.1c0-1.1.1-2.1.3-3 .1-.3.4-.5.7-.5.6.1 1.2.5 1.7 1s1 1.1 1.4 1.7c.5.7 1 1.4 1.5 2-.2-1.6-.8-3.2-1.6-4.7-1.7-1.7-3.1-3.6-3.6-5.4-.1-.3.1-.6.3-.7.3-.1.6 0 .8.2 1.1 1.6 2.4 3.3 3.5 5.2.7.7 1.4 1.3 2.2 1.8-.1-1.2-.2-2.5-.1-4 0-.5.1-1 .1-1.5-1.2-2.1-2.7-4.1-3.7-6.1-.1-.3-.1-.6.2-.7.2-.2.5-.2.8 0 1 .7 2.1 1.4 3.2 2.2l.3-2.7c-.2-.4-.4-.8-.6-1.1-1.5-1.8-3.6-3.3-5-5.4-.2-.3-.1-.6.1-.8.2-.2.6-.2.8 0 1.1.9 2.6 2.3 3.9 3.9.3.4.6.7.8 1.1-.4-1.6-1.1-3.2-1.9-4.4-1.2-1.8-3.3-3.1-4.7-5.2-.2-.3-.1-.6.1-.8.2-.2.6-.2.8 0 1.7 1.3 3.9 3 5.9 4.8-.1-2.3-.5-4.3-1.2-6.2-.3-.3-.7-.6-1.1-.9h-.3c-.3-.1-.5-.3-.5-.6-2.8-2-6.4-3.6-8.9-4.2-.2 0-.3-.1-.4-.3l-1.7 3.1c.6 1.4 1.3 3.3 1.3 5zm-.7 17.3h-.1c-.3 0-.5-.2-.6-.4-.3-1-.8-2.4-1.4-3.7-.6-1.3-1.4-2.4-2.1-2.8-.3-.2-.4-.6-.2-.9.2-.3.6-.4.9-.2 1.1.7 1.9 2 2.6 3.3.5 1 .9 2 1.2 2.9.2.1.3.3.3.6v.5c-.1.4-.3.6-.6.7zm4.5-13.5c.3-.1.7.1.8.4.2.7.9 3 1.7 4 .3.3.5.4.6.4.1 0 .2 0 .4-.2s.6-.2.9 0c.2.3.2.6 0 .9-.4.4-.8.6-1.3.6-.7 0-1.2-.4-1.5-.8-.4-.4-.7-1-.9-1.6-.5-1.1-.9-2.4-1-2.8-.3-.4-.1-.8.3-.9zm-1.1 7.5c.2.1.4.3.4.6v.8c0 .3-.2.6-.5.6h-.1c-.3 0-.5-.2-.6-.4-.6-2-1.4-4.2-2.8-5.5-.2-.2-.2-.6 0-.9.2-.2.6-.2.9 0 1.4 1.3 2.1 3.1 2.7 4.8zm15.6 55.3c1 .4 1.8.8 2.3 1 .5.1.9.3 1.4.4-1.2-.6-2.4-1.1-3.7-1.4zm-22.4 11c-.3-.9-.5-1.8-.6-2.8-.2.8-.3 1.5-.5 2.2.4.2.8.4 1.1.6zm-2.1 6.3c.5.2 1 .4 1.5.7-.3-.4-.6-.9-.9-1.4l-.6-.9c-.1.5-.1 1-.2 1.5 0 .1.1.1.2.1zm9.6-97.6l-.1.2c.2.7.7 1.5 1.4 2.3l.1-.1c.2-.1.4-.1.6.1-.4-.9-1.2-1.9-2-2.5zm-7.1 84.1l-.1-.1-.1-.1c0 .2 0 .5-.1.7.1-.2.2-.3.3-.5z"/><path fill="#412C28" d="M95.1 61.1c-1.1-.9-2.5-1.4-3.9-1.5h-.8c-1.7 0-3.4.4-4.7 1.3-1.3.9-2.3 2.4-2.3 4.2v.6c.1 1.7.7 3 2.2 4 .7.5 1.5.6 2.1.8.5.2.8.4 1 .8-.2.2-.2.5-.1.7.1.2.3.3.5.3.1 0 .2 0 .3-.1 1.2-.7 2.8-1.4 4.3-2.4 1.4-.9 2.8-2.2 3.1-4.1.1-.3.1-.6.1-.9.1-1.5-.7-2.8-1.8-3.7zm-4.3 9l-.1-.1c.1 0 .3-.1.4-.2.2 0 .4 0 .6-.2.1-.2.2-.3.3-.5.1.1.1.2.2.3-.5.2-1 .4-1.4.7zm-5.3-3.6c.3.2.7.2.9-.1.1-.2.3-.4.6-.6-.1.2-.2.5-.2.8 0 .3.1.5.2.7-.4-.1-.7-.1-1-.3-.3-.2-.4-.3-.5-.5zm3.7.6c-.1 0-.3.1-.4.1-.2 0-.3-.1-.4-.2-.2-.2-.3-.3-.3-.4 0-.1 0-.1.1-.2.2-.3.1-.7-.2-.9-.1 0-.1-.1-.2-.1.2-.1.5-.1.7-.1.5 0 .9.2 1.1.9 0 .1 0 .3.1.4-.3.1-.4.3-.5.5zm1.9-2v.6c-.2 0-.3.1-.4.2-.1-.5-.4-.9-.7-1.2.4.1.8.2 1.1.4zm.8-4.2h-.5s0-.1-.1-.1c.2.1.4.1.6.1zm-4.2.3c.1 0 .2-.1.2-.1 0 .1-.1.1-.2.1zm.4-.1c.1 0 .3-.1.4-.1-.2 0-.3.1-.4.1zm-3.4 4.4v-.2c.1.1.2.1.3.1.2.1.5 0 .6-.2l.1-.1h.1c-.1.1-.2.2-.3.4l-.1.1c-.1-.1-.2-.2-.4-.2-.1.2-.2.2-.3.1 0 .1 0 .1 0 0zm1.5 2.9h-.1.1zm7.2 0h.3c-.1.1-.2.1-.3.2v-.2zm.2-1.3s.1 0 0 0c.1 0 0 0 0 0zm2-3.3c0 .1.1.2.1.3l-.1-.1s-.1 0-.1-.1l.1-.1zm0 2.3c-.1-.1-.2-.2-.3-.2-.2-.1-.4-.1-.5-.1-.5 0-.8.2-1 .3 0 0-.1 0-.1.1 0-.4.1-.7.2-.9.2-.4.2-.4.4-.4.1 0 .4.1.8.3.3.2.6.1.8-.2 0 .2 0 .4-.1.5-.1.2-.2.4-.2.6zM74.3 50.4c.5-.3.9-.8 1.1-1.4.4.6.8 1.3 1.7 1.7.1 0 .2.1.3.1.2 0 .4-.1.6-.3.2-.3 0-.7-.3-.8-.8-.4-1.1-1.1-1.6-2-.4-.9-1.2-1.9-2.7-2.2-.3-.1-.6-.1-.9-.1-2.5 0-4.1 2-5.3 3.4-.2.3-.2.7.1.9.3.2.7.2.9-.1.4-.4.8-.9 1.2-1.3v.5c0 .8.4 1.5.9 1.9.5.4 1.2.6 1.9.6.6-.2 1.4-.4 2.1-.9zm.2-2.9c-.2.2-.7.3-1.1.3h-.5c0-.3-.1-.6-.1-.7v-.3h.3c.7 0 1.1.3 1.4.7zm-4.1 1.2c0-.3.1-.6.2-1 0 .1 0 .1.1.2v.1c0 .3.1.7.4.9.3.3.6.4 1 .4.2 0 .3-.1.5-.2h.4c.1 0 .3-.1.4-.2.2 0 .4 0 .6-.1-.1.2-.3.3-.5.5-.4.3-1.1.5-1.6.5s-.9-.1-1.1-.3c-.2-.1-.4-.3-.4-.8zm26.4.4c-.4-.3-.6-.6-.8-1-.2-.4-.4-1-1-1.5s-1.3-.8-2-.8c-1.7 0-3.1 1.5-3.1 3.2 0 .6.1 1.1.5 1.7.1.2.3.3.5.3.5.4 1.1.7 1.8.7 1.3 0 2.4-.9 2.8-2.2.2.2.4.5.7.6 1 .6 2.1.7 3.1.7h1c.3 0 .6-.3.6-.6s-.3-.6-.6-.6h-1.1c-.9-.1-1.7-.1-2.4-.5zm-4.2 0c0 .1 0 .1 0 0-.1 0-.3-.1-.5-.3-.2-.2-.3-.5-.3-.6h.1c.1 0 .3-.1.3-.2h.3c.1.2.1.6.1.9v.2zm1.7-.7v.3c0 .4-.1.8-.3 1v-1c0-.4 0-.8-.1-1.3v-.1c.2.1.3.2.5.3.1.1.2.2.2.3-.3.1-.4.3-.3.5z"/><path fill="#412C28" d="M70.2 37.2c-3.6 0-6.6 2.9-8.6 5.5-.2.3-.2.7.1.9.3.2.7.2.9-.1 1.9-2.4 4.7-5 7.6-5 .5 0 1 .1 1.6.2 2.4.7 5.2 2.4 6 4.6-1.7-1.5-3.9-2.9-6.3-2.9-1.2 0-2.5.4-3.7 1.3-.3.2-.3.6-.1.9s.6.3.9.1c1-.7 2-1 3-1 2.9 0 5.8 2.7 7.7 4.9l.4.4c.1.1.3.2.5.2.1 0 .3 0 .4-.2.3-.2.3-.6.1-.9-.6-.7-1.3-1.4-2.1-2.2l-.1-.1h.2c.3-.1.5-.5.4-.8-.6-1.7-1.8-3-3.3-4-1.1-.7-2.4-1.2-3.5-1.6-.8-.1-1.4-.2-2.1-.2zm32.9 2.5c.3 0 .6-.4.5-.7-.1-.6-.5-1-.9-1.2-.4-.2-.9-.3-1.4-.3-.1-.1-.1-.2-.2-.2-1.3-.8-2.8-1.1-4.3-1.1-2.6 0-5.2 1.1-7 3.1-2.3 2.6-2.9 4.5-2.9 7.8 0 .3.3.6.6.6s.6-.3.6-.6c0-3.2.4-4.4 2.6-6.9 1.4-1.7 3.8-2.6 6-2.6.8 0 1.5.1 2.2.3-1.7.3-3.5 1-5.2 2-2.4 1.4-4.5 3.2-4.6 5.7 0 .2 0 .5.1.7.1.3.3.5.6.5h.1c.3-.1.6-.4.5-.7v-.4c0-1.5 1.6-3.3 3.9-4.6 2.3-1.3 5-2.1 6.7-2.1.5 0 .9.1 1.1.2.2.1.2.1.2.2.1.1.5.4.8.3zm1.5 4.2c-1.6 0-3.2.4-4.5 1.2-.3.2-.4.6-.2.9.2.3.6.4.9.2.9-.6 2.4-1 3.8-1 .6 0 1.1.1 1.6.2.4.1 1.1.3 1.9.5.4.1.7.3 1.1.4.6.2 1.1.5 1.4.7.2.1.3.2.3.3.1.3.3.5.6.5s.6-.3.6-.6c0-.4-.2-.6-.4-.8-.6-.6-1.6-1-2.6-1.4-.1 0-.2-.1-.4-.1-.9-.3-1.8-.6-2.3-.7-.5-.2-1.1-.3-1.8-.3z"/><path fill="#412C28" d="M127.6 38.2c0-.2-.1-.4-.1-.6 0-4.3-1.4-8-4.8-11.2-3.4-3.3-8.3-5-12.6-6.2-1.9-.5-4-.8-6.3-.8-3 0-6.2.5-8.9 1.8-2.3 1-4.3 2.6-5.4 4.8-.3-.1-.7-.2-1-.3-.2-.1-.3-.1-.5 0s-.3.2-.3.4l-.3.9c-.2.4-.3.7-.5.9-.2.3-.3.3-.4.3-.2 0-.8-.3-1.4-.9-.1-.1-.2-.1-.2-.2-.6-.5-1.3-1-2.2-1.2-.3-.1-.6.1-.7.4-.1.4-.3.8-.4 1-.1.3-.2.5-.3.7 0 .1-.1.1-.1.2-.1-.1-.3-.4-.5-.8-.2-.3-.4-.6-.6-1-.6-.8-1.3-1.8-2.6-2-.2 0-.4 0-.5.1-.1.1-.2.3-.2.5v.6c0 .6 0 1.2.1 1.8 0 .4.1.9.1 1.3-.4-.4-.8-.9-1.2-1.4-.7-1.1-1.2-2.3-1.3-3.7 0-.3-.3-.6-.6-.6s-.6.3-.6.6c0 1.1.1 2.3.1 3.4v2.2c-.7-.7-1.4-1.4-2.1-2.2-.1-.2-.3-.4-.4-.5-.1-.1-.2-.3-.3-.4-.4-1.2-.9-2.2-1.5-3.2-2.8-4.7-7.8-7.2-13.4-7.1h-.9c-4.8.2-9.6 1.7-13.9 3.6-4.5 2-6.7 4.6-9.6 7.9-.2.3-.2.7 0 .9.1.1.3.2.4.2.2 0 .3-.1.5-.2 2.1-2.3 3.7-4.1 5.8-5.7 0 .1-.1.2-.1.3 0 .3.3.6.6.6h.4c-1.6 1-3.4 2.4-4.8 3.9-1.1 1.1-2 2.2-2.5 3.3-.3.6-.4 1.1-.4 1.6v.1c0 .3.3.6.6.6h.1c.3 0 .6-.3.6-.7 0-.5.4-1.5 1.2-2.4 1.1-1.5 3-3.2 4.8-4.5 1.8-1.3 3.6-2.1 4.4-2.1h.1c-1.3.6-2.6 1.2-3.8 1.9-2.4 1.4-4.6 3.5-5 6.7 0 .3.2.7.5.7h.1c.3 0 .6-.2.6-.5.3-2.7 2.1-4.4 4.4-5.7 1.4-.9 3.1-1.6 4.7-2.3-.1.2-.2.4-.3.7-.8.3-1.6.7-2.3 1-3 1.3-5.3 4-6.5 7-.1.3 0 .6.2.7.2.1.5.2.7 0v.3c.1.3.3.5.6.5h.1c.3-.1.6-.4.5-.7v-.2c0-.5.4-1 1-1.6.7-.6 1.5-1.1 2.1-1.6.3-.3.6-.6 1-.9 1.8-1.4 3.7-2.6 5.6-3.2-.4.2-.8.5-1.1.7-.8.4-1.5.9-2.2 1.5-1.6 1.2-3 2.5-3.7 4.2-.7.7-1.4 1.4-2 2.1-.3.3-.5.6-.8 1-.2.3-.1.7.1.9.1.1.2.1.4.1s.4-.1.5-.3l1.2-1.5.2-.2c0 .1.1.2.2.3l.1.1c.2.1.4.1.5 0 0 0 .1 0 .1-.1 2-1.4 4.3-2.9 6.5-4.3-.6.5-1.2 1.1-1.8 1.6-.3.2-.6.5-.9.7l-.5.5c-.7.6-1.4 1.2-2.2 1.7l-.1.1c-.2.2-.3.5-.1.8.1.2.3.3.5.3.1 0 .2 0 .3-.1.1-.1.2-.1.3-.2v.1c0 .2 0 .4.1.6 0 .2.2.3.3.4.2.1.4.1.5 0 .3-.2.7-.3 1-.5 1.5-.7 2.8-1.6 4.2-2.4h.3c.3-.1.9-.3 1.8-.7.5-.2 1.1-.5 1.8-.7-1 .7-2.3 1.3-3.4 2.1-1.3.8-2.5 1.9-2.7 3.4 0 .2-.1.4-.1.6 0 .2 0 .4.1.7 0 .2.2.4.4.5.2.1.4.1.6 0 .2-.1.3-.2.5-.3 1.2-.8 2.6-1.8 3.9-2.4l.1.1c-.1-.4.1-.4.3-.4h.4c-.4.6-1 1.3-1.7 1.9-.6.6-1.4 1.2-2 1.8-.6.6-1.2 1.3-1.6 1.9-.1.2-.1.6.1.8.2.2.5.2.8.1l1.5-.9c.3-.2.5-.3.8-.4-.3.2-.5.5-.7.7-.3.4-.5.8-.6 1.3 0 .2 0 .4.2.6h-.1c-1.1 1-2.1 2.1-2.1 3.8 0 .3 0 .6.1.8.1.3.4.5.7.5.7-.1 1.3-.3 1.8-.6.5-.2.9-.5 1.3-.9l.1.1c.1.1.3.1.5.1-.4.3-.8.7-1.2 1.1-.3.2-.6.5-.8.7-1.6 1.4-3 3-3 5.3 0 .3 0 .5.1.8 0 .2.1.4.3.5.2.1.4.1.6 0 .1 0 .2-.1.3-.2.6-.3 1.2-.8 1.7-1.2-.2.3-.3.6-.4 1-.5.5-1 1-1.6 1.5l-.2.2c-1.5 1.5-3.2 3.1-3.2 5.3 0 .2 0 .5.1.7 0 .2.2.4.4.5.2.1.5 0 .6-.2.2-.2.4-.4.5-.6.8-.9 1.7-1.9 2.5-2.5-.4 1.2-1.5 2.4-2.7 3.6l-.3.3c-1.6 1.7-3.4 3.6-3.5 6.2 0 .2.1.4.2.5-1.5 1.9-2.8 3.9-3 6.1v.4c0 .2 0 .3.1.5s.2.4.4.4c-.6.8-1 1.8-1.3 2.8-.1.3.1.5.3.7.2.1.5.1.7-.1 2-1.7 3.7-3.9 5.7-5.2-.2.5-.4 1-.5 1.5-.4.5-.8.9-1.3 1.4-1.4 1.5-2.9 3.1-3.1 5.4 0 .2.1.4.2.5-.9.7-1.5 1.8-2 2.6-1.9 3.3-2.8 4.8-6.4 6.4-.3.1-1.5.5-2.6 1-.6.3-1.1.6-1.6 1-.4.4-.8.9-.8 1.6 0 .5.2 1 .6 1.4.5.5 1.1.5 1.6.5.4 0 .9-.1 1.4-.1.8-.1 1.5-.3 2.1-.4-.3.6-.9 1.2-1.6 1.8-.9.9-2 2-2 3.7 0 .2 0 .5.1.7 0 .3.3.5.6.5h.1c.8 0 1.4-.2 2-.3 0 .3-.2.7-.3 1.1-.2.5-.5 1.1-.9 1.7-.5 1-1.1 1.8-1.3 2.7 0 .1-.1.3-.1.5s0 .4.1.5c.1.3.4.6.7.8.3.2.7.3 1.2.3-.3.8-1.1 1.6-2 2.4l-.3.3c-1.2 1.1-2.7 2.5-2.7 4.5v.6c0 .3.3.5.6.5h.2c.2 0 .4 0 .5-.1.4-.1.8-.3 1.2-.6-.4 1-1.1 2.1-2 3.1l-.1.1c-1.4 1.5-3 2.8-4 3.6-.2.2-.3.5-.1.8.2.3.5.4.8.3.8-.3 1.5-.7 2.2-1.1.7-.4 1.3-.7 2-1.1-.7.5-1.3 1.1-1.9 1.9-.2.2-.3.4-.4.7-.5.9-.8 1.8-1.2 2.6v.1c-.1.3 0 .7.3.8h.1c.3.1.6-.1.7-.4 0-.1 0-.1.1-.2.3-.6 1.1-1.4 2-2 .4-.3.9-.6 1.3-.8-.1.1-.2.3-.4.4-.6.7-1.4 1.3-2 1.9-.6.6-1.2 1.3-1.8 2-1.8 2-3.6 4.3-4.5 6.9-.1.3 0 .6.3.8.3.1.6.1.8-.2 1-1.3 2.1-2.6 3.3-3.9 2.6-2.7 5.7-5.2 8.8-6.6-.3.5-.7 1.2-1.3 1.8-.9 1.1-2 2.1-2.6 2.8-1.4 1.7-3.2 3.3-4.4 5.3-.5.8-.9 1.6-1.1 2.6-.1.3.1.7.4.8.3.1.7-.1.8-.4v-.1c.1-.3.2-.6.4-.9 1.3-2.8 4.9-5.5 7.9-7.2-.3.6-.8 1.3-1.4 1.9-1 1.1-2.2 2.2-2.9 3.1-1.1 1.4-2 2.8-2.8 4.3-.3.6-.6 1.2-.8 1.8-.1.3 0 .6.2.8.3.2.6.1.8-.1.2-.3.5-.5.7-.8 1.4-1.6 2.7-3.3 4.2-4.7-.2.4-.5.8-.8 1.2-.8 1.1-1.6 2.2-2.2 3.1l-.6 1.2c-.6 1.1-1 2.2-1.3 3.5-.1.3.1.6.4.7.3.1.6 0 .8-.3.3-.7.8-1.4 1.2-2.1.6-.9 1.3-1.7 2-2.5 0 1-.4 2.1-.8 3.4-.1.4-.3.8-.4 1.3-.3.8-.5 1.7-.5 2.6v.5c0 .2.1.3.2.4.1.1.2.1.4.1h.1c-.1 4.7-.6 11.1-1 16-.1 1.2-.2 2.4-.3 3.5-.2 3.2-.4 6.2-1.3 9.3-.8 2.6-3.1 4.2-4.7 7-.9 1.5-1.6 4.6-1.6 7.2 0 1.1.1 2.1.5 2.9-.3 1.1-.5 2.3-.5 3.5 0 .1 0 .2.1.3-.2.7-.4 1.4-.5 2.2 0 .1 0 .3.1.4l.1.1c.1.1.2.1.4.2.2 0 .3 0 .5-.2.1-.1.2-.3.2-.4v-.2c.2-1.2 1.1-2.5 2.2-3.6-.2.9-.6 1.8-1.1 2.8-.1.2-.2.3-.3.5-.1 0-.2.1-.3.2-.7.9-1.2 2.1-1.3 3.3 0 .3.2.6.5.7h.1c-.3.6-.6 1.2-.9 1.9-.5 1-.5 1.3-1.1 1.9-.6.6-1.8.9-2.7 2-1.1 1.2-1.7 2.8-1.7 4.3 0 1.1.3 2.1 1 2.9.3.4.8.8 1.3 1v.3c0 .6.2 1.3.7 1.7.1.1.3.2.4.3.1 0 .2.1.3.1.1 0 .2 0 .3-.1.1 0 .2-.1.2-.2.1-.1.1-.1.1-.2.1-.3.2-.7.5-1.1.1 0 .2-.1.3-.3 2.5 0 4.6-.9 6.7-1.2 0 .5.1 1.1.4 1.6.1.2.3.3.5.5.3.2.6.4 1.1.5h.1c.3 0 .5-.2.6-.4 0-.1.1-.3.2-.4.2-.5.5-.9.9-1.4.8.2 1.7.5 2.6.5h.8c1.1-.1 1.9-.5 2.6-1.1l.2-.2c.7-.7 1.2-1.4 2-2.1l.1-.1c.1.1.2.1.4.1h1.3c.9 0 1.8.1 2.8.1 2.9.3 5.9.8 8.7 1h6.3c.1.1.1.3.2.4.4.5.8.7 1.4.9v.1c0 .6.2 1.2.7 1.7.1.1.3.2.4.2h.1c.2 0 .4-.1.5-.3.2-.4.5-.8.7-1.2 2.3.3 4.7.4 7.2.4h2.3c.1.6.2 1.1.2 1.6v.1c0 .3.2.6.5.6h.3c.1.2.3.3.5.3h.1c.6-.1 1.2-.4 1.7-.8.1-.1.2-.2.2-.4v-.6c0-.3 0-.5-.1-.8h.5c1.1 0 2.2 0 3.3.1.8 0 1.9.1 2.9.2.1.3.3.7.4 1 .1.2.3.3.5.3s.4-.2.5-.4c.1-.3.2-.6.3-1 .7-.1 1.3-.2 1.9-.5.1 0 .2-.1.3-.2.5-.3.9-.8 1.1-1.4l.3.3c.3.1.6.3.8.5.3.2.7.2.9-.1 1.2.2 2.4.3 3.6.3h.2c1.5 0 3.1-.1 4.7-.3l2.4-.3c.7-.1 1.3-.1 1.9-.1.7 0 1.3.1 1.9.3.1 0 .1 0 .2.1.3.1.5.2.7.4.2.2.6.4 1.1.4.4 0 .8-.2 1.3-.5l.6-.6c.3-.4.5-.9.7-1.5.1-.5.2-1.1.3-1.7.1-.9.1-1.8.3-2.6.5.7 1 1.5 1.6 2.3.3.4.7.9 1.1 1.2l.1.1c.7.6 1.4 1.1 2.4 1.1.2 0 .4-.1.5-.2.1-.1.2-.3.1-.5-.1-.3-.2-.7-.3-1.1-.2-.6-.4-1.4-.7-2.1-.4-1.2-.7-2.6-.7-3.5 0-.7.2-1.2.5-1.4.2-.1.3-.2.5-.2.8-.1 2.3 1.1 3.5 2.5.9 1.1 1.7 2.3 2.1 3.1.1.2.1.3.2.5.1.3.4.5.8.4.3-.1.5-.4.4-.7 0-.2-.1-.4-.2-.6 0-.1 0-.1-.1-.2-.5-1.6-.9-3.4-1.7-5.1-.4-.9-1-1.8-1.6-2.6-.4-.7-.8-1.4-.9-2.1.9.5 1.6 1.5 2.3 2.6.9 1.3 1.9 2.9 4 3.1.2 0 .4-.1.6-.2.1-.2.2-.4.1-.6-1.1-3.6-3.5-6.4-5.6-9.2-.3-.6-.6-1.1-1.1-1.6-.6-.9-1.1-1.8-1.5-2.7 2.7 1.3 4.7 3.8 7.6 5.3.2.1.5.1.7-.1v-.1c.2-.2.2-.4.2-.6-.2-.8-.6-1.5-1.1-2.2-.8-1.2-1.8-2.4-2.5-3.4-.6-.9-1.3-1.9-2-2.9 1.1.9 2.3 1.9 3.5 2.7l.9.6c.2.1.5.1.7-.1.2-.2.2-.5.1-.7-1.2-2.1-1.7-4.6-3.3-6.8-.1-.2-.3-.4-.4-.5-.4-.5-.9-1.1-1.4-1.6.5.3.9.5 1.4.8 1.2.7 2.2 1.5 3 2.4.2.2.5.3.8.1.3-.1.4-.4.3-.7-.4-1.6-1.2-2.8-2.1-3.9.3.2.6.4.8.6.2.1.4.3.5.4.3.2.7.1.9-.1.2-.3.1-.7-.1-.9-.2-.1-.3-.3-.5-.4-.9-.7-1.6-1.6-2.5-2.4-1-1-2.2-1.9-3.9-2.3-.2 0-.5-.1-.7-.1-.3-.1-.5-.3-.8-.4l-1.2-.6c.2-.1.5-.2.7-.3.4-.2.8-.4 1.1-.6.8-.5 1.4-1.4 1.4-2.4v-.2c-.1-1.2-.6-2.2-1.4-2.7-.8-.6-1.8-.7-2.8-.7-.7 0-1.4.1-2.2.2-1.2.2-2.5.6-3.7.9-1.4.4-2.6.8-3.5 1 .3-.4.6-.8 1.2-1.1 1.2-.8 3.1-1.3 4.7-2 .2-.1.3-.1.5-.2.6-.3 1.3-.6 1.8-1 .6-.5 1.1-1.2 1.3-2.1 0-.2 0-.3-.1-.5-.1-.1-.2-.2-.4-.2-.3 0-.5-.1-.8-.1-.4 0-.8 0-1.1.1.2-.2.4-.3.6-.5.8-.8 1.5-1.5 1.5-2.5v-.4c-.1-.3-.4-.5-.7-.5-1.7.2-3.2.7-4.7 1.4-1.7.8-3.3 1.8-4.9 2.7.8-.9 1.9-1.7 2.9-2.7.5-.5 1-.9 1.5-1.4 1.1-1.2 2-2.5 2-4.2 0-.4 0-.8-.1-1.1 0-.2-.2-.3-.3-.4-.2-.1-.4-.1-.5 0-.9.4-1.7.9-2.4 1.6-.9.8-1.6 1.7-2.4 2.5-1.1 1.3-2.1 2.5-3.3 3.2.1-1.9 1.5-3.9 3-5.9.6-.9 1.3-1.7 1.8-2.7.1-.1.1-.2.2-.3.7-1.3 1.2-2.6 1.2-4.1v-.6c0-.2-.1-.4-.3-.5-.2-.1-.4-.1-.6 0-.3.2-.7.4-1 .7-.2.1-.4.3-.6.4-1.2.9-2.5 2.2-3.7 3.6-.5.6-.9 1.2-1.3 1.7.9-3 2.3-6.2 3.6-8.4.2-.3.1-.7-.2-.8-.2-.1-.4-.1-.6 0 0-1.3-.3-2.5-.7-3.6.4.3.8.6 1.2.8.5.3 1 .5 1.4.6.3.1.5.2.8.2.2 0 .3 0 .5-.1.1-.1.2-.3.3-.4.1-.4.1-.9.1-1.3 0-3-1.6-5.8-3.2-8.3-.5-.8-1-1.5-1.4-2.2.5.4 1 .7 1.5 1.1 1.9 1.4 3.7 3.1 4.6 4.8.2.3.5.4.8.3.3-.2.4-.5.3-.8-1.4-2.6-1.9-5.6-3.5-8.4-.1-1.9-.7-3.8-1.5-5.5-.2-.5-.5-1-.8-1.5.3.2.5.5.8.8 2.1 2.1 3.9 4.3 4.4 6.4.1.3.4.5.7.4.3-.1.5-.4.5-.7-.8-5.6-1.1-10.4-5.8-14.8-.5-.5-1.1-.9-1.7-1.4-.1-.7-.5-1.4-1-1.8-.1-.1-.2-.2-.3-.2-.7-.6-1.5-1.1-2.2-1.7l-.6-1.2c-.2-.5-.5-.9-.8-1.4h.2c.3-.1.5-.4.5-.7-.2-1.7-1.2-3.1-2.2-4.4-.1-.2-.2-.3-.4-.5-.6-.8-1.1-1.5-1.5-2.2.5.4.9.8 1.4 1.3.3.3.6.6.8.9.6.7 1 1.5 1.1 2.1 0 .2.2.4.4.5h.1c.2.1.5 0 .6-.2.8-1.1 1.1-2.2 1.1-3.3 0-3-2.3-5.4-3.6-7.6-.8-1.3-1.3-3.1-2.1-4.5 0-.1-.1-.1-.1-.1V93s0-.1-.1-.3c0-.1-.1-.2-.2-.2.5-.4 1-.9 1.5-1.5.3-.3.5-.6.8-.9.7-.9 1.1-1.9 1.1-3 0-.4-.1-.9-.3-1.3.1.1.2.1.3.2.9.2 1.5.9 1.9 1.8.3.6.4 1.3.5 1.9 0 .5 0 1 .1 1.5 0 .3.3.6.6.6s.6-.3.6-.6v-.3c0-.4 0-.8-.1-1.2v-5.3c0-.8 0-1.6-.1-2.4l.5.5.6.6.3.6c.5.8 1.1 1.5 1.9 2 .2.1.5.1.7-.1.2-.2.2-.5.1-.7-.5-.9-1.3-1.7-2-2.4-.4-.8-.7-1.7-1-2.7 0-.1-.1-.2-.1-.4.2.1.4.1.7.1h.2c.2 0 .5-.2.5-.4l.9.9c.6.6 1.2 1.1 1.9 1.5.2.1.6.1.8-.1.2-.2.2-.5.1-.8-.6-1.1-1.3-2.1-1.8-3.1-.5-.9-.9-1.9-1.2-2.9.1.2.3.4.5.6.3.4.7.8 1.2 1.2.4.3.8.6 1.3.7.2.1.4 0 .6-.1.2-.1.2-.3.2-.6-.1-.6-.3-1.1-.5-1.6.1-.1.1-.3.1-.5-.1-.7-.4-1.3-.6-1.9-.3-.7-.7-1.3-1.1-1.9-.2-.2-.4-.3-.7-.2-.2.1-.4.3-.5.5v.4c0 1.2.5 2.1 1 3 .1.2.3.5.4.7-.1-.2-.3-.3-.4-.5-.6-.7-1.2-1.6-2.1-2.2-.2-.1-.5-.1-.7 0-.2.1-.3.4-.3.6.2 2 .8 3.6 1.6 5.2-1.2-1.5-2.4-3.3-3.7-4.7-.2-.2-.5-.3-.8-.1-.2.1-.4.5-.3.7.1.2.2.5.2.8-.3.7-.4 1.4-.4 2-.1-.1-.1-.3-.2-.4-.2-.4-.5-.7-.8-1-.3-.3-.8-.5-1.3-.5-.2 0-.3 0-.5.1h-.1s0-.1.1-.1c.2-.3 0-.7-.3-.8-.3-.2-.7 0-.8.3-.1.3-.5.5-1 .7-.6.2-1.3.3-2.2.3-2.7 0-6.3-.8-7.9-.9-.3 0-.6.2-.7.6 0 .3.2.6.6.7 1.4.1 5 .9 7.9.9.9 0 1.8-.1 2.5-.3.5-.1.9-.4 1.3-.7v.2c.1.3.4.5.7.5h.2c.2 0 .3.1.5.2.3.2.6.7.9 1.3.3.5.6 1.1 1.2 1.5 0 .2.1.4.1.6.3 1.6.4 3.3.4 4.9v1.9c-.5-.7-1.2-1.2-2.1-1.4-.3-.1-.7.1-.8.5v.3c-.2-.2-.5-.3-.7-.1-.3.1-.4.5-.3.8.1.3.2.5.2.8 0 .9-.6 2-1.6 3.1-.7.8-1.6 1.6-2.4 2.2-.2-.5-.3-1.2-.4-1.9-.1-.3-.3-.5-.6-.5s-.5.2-.6.5c-.1 1.1-.4 2.1-.9 3.1-.2-.7-.6-1.5-1-2-.1-.2-.4-.3-.6-.2-.2 0-.4.2-.5.4-.3 1.2-.7 2.7-1.2 3.9-.2-.6-.4-1.3-.7-1.9-.5-1.2-1-2.3-2.1-2.9-.1-.1-.3-.1-.5 0s-.3.2-.4.3c-.6 1.3-.9 2.7-1.2 4 0-.2-.1-.4-.1-.5-.2-.6-.3-1.2-.6-1.7-.2-.5-.5-1-1-1.2-.2-.1-.4-.1-.6-.1-.7 0-1.2.4-1.6.9-.6.7-1.2 1.8-1.6 2.7-.1-.9-.2-1.9-.4-2.8-.1-.3-.3-.5-.6-.5h-.2c-.5 0-1 .2-1.3.6-.1.1-.2.2-.3.4-.1-1.3-.5-2.5-1.3-3.5-.2-.2-.4-.2-.7-.2-.2.1-.4.3-.4.5-.1.9-.3 1.5-.5 1.9-.2.3-.4.4-.5.4-.1 0-.3-.1-.6-.4-.2-.3-.3-.6-.4-1.1.1-.6.2-1.5.2-1.9 0-.3-.2-.6-.5-.6-.3-.1-.6.1-.7.4-.2.6-.3 1.2-.3 1.7v.5c.1.7.3 1.3.6 1.7.4.6.9 1 1.6 1 .6 0 1.2-.4 1.5-.9l.3-.6c.3 1.3.4 3 .4 4.3 0 .3.2.5.5.6.3 0 .6-.1.7-.4.2-.6.4-1.5.6-2.1.1-.3.3-.6.4-.7l.1-.1c.2 1.4.2 2.9.6 4.5.1.3.3.5.6.5s.5-.1.6-.4c.3-.6.7-1.9 1.3-3.1.3-.6.6-1.1.9-1.4.3-.4.6-.5.7-.5h.1s.1 0 .1.1c.3.4.6 1.4.9 2.4.3 1 .4 2 .7 2.6.1.2.3.4.6.4h.1c.3 0 .5-.2.6-.5.5-1.8.8-3.8 1.4-5.4.3.4.7 1.1 1 1.8.4 1.1.8 2.3 1.1 3.2.1.2.3.4.5.4s.4-.1.6-.3c.7-1.1 1.2-2.5 1.5-3.8.2.6.4 1.2.5 1.8.1.2.3.4.5.5.3 0 .5-.1.6-.3.5-.8.9-1.6 1.2-2.5.1.1.2.3.3.4.2.3.6.3.9.1.2-.1.4-.2.5-.4v.1c.1.1.2.2.3.2 0 .1.1.1.1.2.5.9.9 2 1.4 3.2.2.5.4.9.7 1.4 1.4 2.2 3.4 4.6 3.4 6.8v.2c0 .2 0 .5-.1.7 0 .2-.1.5-.2.7-.4-.8-1.1-1.5-1.7-2.2-1.1-1.1-2.3-2.1-3-2.7-.2-.2-.5-.2-.7-.1-.2.1-.4.3-.4.6.1 1.8 1.2 3.3 2.3 4.8.1.1.1.2.2.2-.2-.1-.4-.2-.5-.3-.2-.1-.4-.1-.5 0-.2.1-.3.2-.3.4s-.1.4-.1.7c0 .8.3 1.6.7 2.3.4.7.9 1.4 1.5 2 .2.3.5.5.7.8.2.4.4.7.7 1.1.3.4.7.7 1.1 1 .1.1.2.2.2.3-2-1-4-1.8-5.7-2.2h-.1c-.3 0-.5.2-.6.5 0 .2 0 .3.1.5.1.1.2.2.4.3 2.5.6 6.1 2.2 8.9 4.2 0 .3.2.6.5.6h.3c.4.3.7.6 1.1.9l.2.2c3.3 3.1 4.2 6.4 4.9 10.3-1.1-1.5-2.4-2.9-3.9-4.3-2-1.8-4.2-3.5-5.9-4.8-.2-.2-.6-.2-.8 0-.2.2-.3.5-.1.8 1.4 2.1 3.5 3.4 4.7 5.2.8 1.2 1.5 2.8 1.9 4.4-.3-.4-.5-.7-.8-1.1-1.3-1.6-2.9-3.1-3.9-3.9-.2-.2-.6-.2-.8 0-.2.2-.3.5-.1.8 1.3 2.1 3.4 3.6 5 5.4.2.4.5.8.6 1.1.3.7.5 1.3.5 1.8 0 .3.3.6.6.6.1 0 .3 0 .4-.1.4.9.7 1.8 1 2.7-.9-.8-1.8-1.6-2.8-2.3-1.1-.8-2.2-1.6-3.2-2.2-.2-.2-.5-.1-.8 0-.2.2-.3.5-.2.7 1 2 2.5 4 3.7 6.1.2.3.4.7.6 1 .9 1.7 1.6 3.4 1.5 5.2v.4c-.2-.1-.4-.2-.6-.2-.5-.2-1-.5-1.5-.8-.7-.5-1.5-1.1-2.2-1.8-1-1.9-2.3-3.6-3.5-5.2-.2-.2-.5-.3-.8-.2-.3.1-.4.4-.3.7.5 1.8 1.9 3.7 3.6 5.4.8 1.5 1.4 3.1 1.6 4.7-.5-.6-1-1.3-1.5-2-.5-.6-.9-1.2-1.4-1.7-.5-.5-1-.9-1.7-1-.3-.1-.6.1-.7.5-.2.9-.3 2-.3 3v1.1c-.1-.5-.3-1.2-.4-1.8-.8-2.7-1.9-5.2-3.7-7.5-.5-.7-1.8-1.7-3.1-2.8-.6-.5-1.2-1.1-1.6-1.5l-.5-.5-.1-.1c0-.2-.1-.5-.4-.6-.3-.1-.7 0-.8.3 0 .1-.1.2-.1.3 0 .4.2.6.3.8.5.7 1.7 1.7 2.8 2.7 1.1.9 2.2 1.9 2.4 2.2 1.3 1.8 2.3 3.7 3 5.8-2.2-2.4-5-4.5-6.6-6.6-.2-.2-.5-.3-.7-.2-.3-.2-.7-.1-.8.2-.2-.2-.5-.7-.8-1.3-1-2.1-2-5.5-2.2-6.2-.1-.3-.4-.5-.8-.4-.3.1-.5.4-.4.8.1.6.7 2.6 1.5 4.5.4 1 .8 1.9 1.2 2.6.2.4.4.7.7.9.2.2.5.5 1 .5.3 0 .5-.1.7-.3 2.9 4 6.1 9 6.6 13.9-1.3-2.2-2.4-4.6-3.2-6.9-.1-.3-.4-.4-.6-.4-.3 0-.5.2-.6.5-.1.3-.1.5-.1.8 0 2.1 1.1 4.5 1.4 6.2.3 1.8.6 3.5.6 5.2-2.7-2.5-4.5-7-6.8-10.1-.2-.2-.5-.3-.8-.2-.3.1-.4.4-.3.7.7 2.6 2.1 5 3.1 7.4-.1-.2-.2-.5-.4-.7-.1-.3-.4-.4-.7-.3-.3.1-.5.3-.5.6v.1c0 3.4.5 6.4 1.7 9.7.3.8.7 1.6 1.1 2.5-.2.1-.4.3-.4.5-.1 1.5-.3 3.3-.3 4.9 0 1.1.1 2.1.2 3.1.2 1.4.7 2.6.7 3.7v.5c-.5.1-.9.2-1.3.2h-.1c-.2 0-.3.1-.5.2-.1.1-.2.3-.2.5 0 .7.2 1.3.6 1.9.1.1.1.2.2.2h-.4c-.3 0-.6.2-.6.5v.4c0 1.6 1.2 3.1 2.5 4.6l.1.1.1.1c-.1.1-.2.3-.3.4-.5.9-.7 1.9-.7 3v1c.1 1 .3 1.9.6 2.8-.3-.2-.7-.4-1.1-.6-.1-.1-.3-.1-.4-.2-.2-.1-.5 0-.7.2-.5.6-.8 1.1-.8 1.7 0 .3.1.5.2.7-.1.1-.2.3-.2.4 0 .9.4 1.7.8 2.4l.6.9c.3.5.7.9.9 1.4-.4-.2-.9-.5-1.5-.7h-.2c-.2 0-.5.2-.6.4-.3.7-.4 1.6-.4 2.5 0 .6.1 1.2.2 1.8-.2-.1-.5-.1-.8-.2-.5 0-1.2.4-1.4 1-.1.2 0 .5.1.7.4.4.9.4 1.1.5v1.4c0 1.1.1 2.3.8 3.3.5.8 1.2 1.3 1.7 1.8s1 .9 1.2 1.6c.2.6.3 1.2.3 1.6 0 .9-.3 1.2-.9 1.6-.3.2-.7.3-1.2.3 0-.3-.2-.7-.4-1-.3-.4-.9-.5-1.5-.5-.4-.6-1-1.1-1.9-1.2-.3 0-.7.2-.7.5s.2.7.5.7c.6.1 1 .5 1.4 1.3 0 .1.1.2.1.2-.8 0-1.6-.1-2.4-.2-1.1-.1-2.2-.1-3.4-.1h-.8v-.2c0-.1.1-.2.1-.3.1-.2 0-.4-.1-.6-.3-.4-.2-.3-.5-.9-.1-.3-.5-.4-.8-.3-.1 0-.1.1-.2.1h-.1c-.2 0-.4.1-.7.2-.1-.1-.2-.1-.3-.1-.3-.1-.7.1-.8.4-.1.2-.1.5-.1.7 0 .3 0 .7.1 1.1H66c-1.3 0-2.5-.1-3.7-.3.2-.3.4-.5.6-.8.1-.1.2-.3.4-.4.2-.2.3-.4.2-.7-.1-.2-.3-.4-.6-.4s-.7 0-1 .2c0-.2-.1-.4-.2-.5-.3-.2-.7-.2-.9 0-.2.2-.4.5-.6.8-.2.3-.4.7-.6 1.2-.4-.1-.6-.3-.7-.5-.1-.2-.2-.5-.3-1v-1.3c0-1.9.3-3.8.8-5.7.6-2.3 1-2.6 2.9-3.8.9-.5 1.3-.7 1.8-1.2.4-.5.5-1.1.8-2.1.3-1.4 1.6-3.1 1.7-4.9 0-.3-.2-.6-.5-.6s-.6.1-.7.4c-.3 1.1-1 2.1-1.7 3.2v-.1c0-1.3.2-2.6.6-3.9.2-.9.5-1.9.8-2.8 1.1-3.7 1.8-7.4 2.7-11.1.8-3.6 1.2-7.3 1.6-11 .2-1.7.4-3.4.6-5 .8-4.9 1.1-9.7 1.2-14.6.1-2.5.1-5 .1-7.5 0-.3-.3-.6-.6-.6s-.6.3-.6.6v5.8c-.1 5.4-.4 10.8-1.2 16.2-.2 1.5-.4 3.1-.6 4.6-.4 3.8-.7 7.7-1.6 11.3-.9 3.8-1.6 7.4-2.7 11-.6 2.1-1.4 4.6-1.4 7 0 .6 0 1.2.2 1.8 0 .1 0 .3.1.4.1.3.3.4.5.5.1 0 .2 0 .4-.1-.1.5-.2.7-.3.8-.1.2-.5.4-1.3.8 0 0-.1 0-.1.1-1.4.7-2.3 1.5-2.9 2.6-.3.5-.5 1.2-.6 1.9-.4 1.5-.6 3.1-.7 4.7v-.1c-.1-.4-.1-.9-.1-1.5 0-1 .1-2.1.2-3.1.1-.4.1-.8.2-1.2 0-.4.1-.9.1-1.3v-.3c0-.2-.1-.4-.3-.5-.1-.2-.3-.4-.5-.4h-.2v-.2c0-.3-.2-.6-.5-.6-.1 0-.3 0-.4.1.1-.3 0-.6-.3-.8-.1-.1-.3-.1-.4-.1.1-.4.1-.8.1-1.2 0-.3 0-.6-.1-.9 0-.2-.2-.4-.4-.5-.2-.1-.4 0-.6.1-2.6 1.9-4.4 4.9-6.1 7.5.8-2.3 2.8-4.3 4.2-6.8.1-.2.1-.6-.1-.8-.2-.2-.5-.2-.8-.1-1.3.8-2.9 2.2-4.2 3.8.5-1.6 1.4-3.2 2.1-4.6.2-.3 0-.7-.3-.8-.3-.2-.7 0-.8.3-.6 1.3-1.4 2.7-2 4.2-.2-1-.7-1.8-1.2-2.6 0-.1-.1-.1-.1-.2-.6-.9-1.4-1.7-1.8-2.4 0-.1-.1-.1-.1-.2.9.6 1.8 1.2 2.7 1.5.4.2.8.3 1.3.3.2 0 .4-.1.6-.3.1-.2.1-.4 0-.6-.3-.7-.8-1.3-1.3-1.9-.8-1-1.8-1.8-2.6-2.7.8.5 1.6 1 2.5 1.2.1 0 .3.1.4.1.3.1.5-.1.7-.3.1-.2.1-.5-.1-.7-.6-.6-1.2-1.3-1.8-1.9-1.3-1.4-2.6-3-3.6-4.6.6.4 1.2.9 1.9 1.3s1.4.8 2.1 1.1c.2.1.5 0 .7-.2.2-.2.2-.4.1-.7-.3-.7-.8-1.4-1.2-2.1.1-.2 0-.4-.2-.6-.5-.4-1-1.1-1.3-1.7.3-.1.5-.5.4-.8-.8-2.4-1-5.7-1.2-8.5-.1-1.2-.2-2.5-.3-3.7v-.6c0-.4 0-.9.1-1.3 0-.4.1-.8.2-1.2.3-1.1.7-2.2 1-3.5.6-3.3 1.2-6.5 1.5-9.9 0-.6.1-1.5.1-2.5 0-.9 0-1.8.1-2.7.1-.9.3-1.8.5-2.5.3-.7.6-1 .9-1.2.3-.1.5-.5.4-.8-.1-.3-.5-.5-.8-.4-.8.3-1.4 1.1-1.7 1.9-1 2.5-.7 6.4-.8 8-.3 3.3-.9 6.5-1.5 9.8-.3 1.5-1 3-1.2 4.8-.1.5-.1 1-.1 1.4 0 1.5.2 3 .3 4.4.1 2 .3 4.1.6 6.1.2.9.4 1.9.7 2.7v.1h-.2c-.2.2-.3.5-.2.8.5.9 1.1 1.8 1.7 2.6-.5-.3-1.1-.7-1.6-1.1-.8-.6-1.6-1.1-2.5-1.6-.2-.1-.5-.1-.7.1-.2.2-.2.5-.1.7 1.1 2.3 2.7 4.4 4.4 6.3-1.3-1-2.7-2.3-3.9-3.3l-.1-.1c-.1-.1-.3-.1-.5-.1-.1 0-.2 0-.3.1l-.1.1c-.2.3-.2.7.1.9 1 .8 1.8 2.3 2.8 3.6 1.1 1.4 2.6 2.7 3.6 4-.7-.3-1.5-.8-2.3-1.4-.9-.7-1.7-1.4-2.4-2.1-.3-.4-.7-.8-1-1.1-.3-.2-.6-.2-.8.1-.2.2-.2.6 0 .8.3.3.6.6.9 1 .7 1 1.4 2.4 2.1 3.5.6.8 1.3 1.7 2 2.6.3.5.6 1 .8 1.5-.4-.3-.8-.6-1.3-1l-.6-.6c-.7-.8-1.3-1.7-1.6-2.5-.1-.2-.2-.5-.2-.7-.1-.3-.4-.5-.7-.5-.3.1-.5.4-.5.7.1.3.1.6.3.8.5 1.4 1.3 2.7 2.1 3.9.1.1.1.2.2.2.5.9 1.1 1.7 1.4 2.6-.5-.4-1-1-1.5-1.6l-.3-.3c-.8-1-1.7-2-2.8-2.7-.3-.2-.7-.1-.9.2-.2.3-.1.7.2.9 1 .6 1.9 1.7 2.8 2.8l.1.1.3.3c-.2.1-.3.2-.4.4-.6 1.9 0 3.8-.6 5.2-.2.5-.5 1-.9 1.4-.7.8-1.7 1.6-2.6 2.4-.8.8-1.4 1.6-2 2.1-.6.5-1.1.9-2 .9h-.2c-.8 0-1.6-.2-2.5-.4 0-.1-.1-.3-.2-.4-.3-.2-.7-.2-.9.1-.1-.1-.1-.2-.1-.3v-.1c.1-.3-.1-.7-.4-.8h-.4c.2-.2.2-.5 0-.7-.2-.3-.6-.4-.9-.2-.6.4-1.1 1.1-1.3 1.9-2 .2-3.8.8-5.6 1.1.1-.1.1-.1.1-.2.1-.2 0-.4-.1-.5-.4-.7-.9-1.3-1.5-1.9l-.1-.1c.2-.3.1-.7-.2-.9-.3-.2-.7-.1-.9.2-.3.6-.9 1.7-1.2 2.9-.2-.1-.4-.3-.5-.5-.4-.5-.7-1.3-.7-2.1 0-1.2.5-2.5 1.4-3.5.5-.7 1.7-1 2.7-1.9.8-.8.9-1.4 1.4-2.2.9-1.7 1.7-3.2 1.7-5.4v-.2c.2-.3.4-.7.5-1 .7-1.4 1.3-2.8 1.3-4.3v-.5c0-.2-.2-.4-.4-.5-.1 0-.2-.1-.2-.1 0-.1.1-.1.1-.2 1.5-1.8 3.3-3.7 4-6.1.1-.3 0-.6-.3-.7-.3-.1-.6-.1-.8.1-1.5 1.7-3.4 3.7-4.8 5.8.7-2.1 1.7-4.2 2.2-6.2.1-.3-.1-.7-.5-.8-.3-.1-.7.1-.8.5-.3 1.4-1 3-1.7 4.8v-.4c0-2.4.8-5.5 1.4-6.6 1.4-2.5 3.8-4.1 4.8-7.2 1.4-4.5 1.2-8.7 1.6-13.1.1-.9.2-1.8.2-2.7.1-1 .2-2 .2-3.1.4-4.8.6-9.8.6-13.2 0-.3-.1-.5-.4-.6.1-.3.2-.7.4-1 .4-1.2.9-2.5.9-3.8 0-.5-.1-1-.3-1.5-.1-.2-.2-.3-.5-.4-.2 0-.4 0-.6.2-.1.1-.2.2-.3.4.4-.5.8-1 1.1-1.5.8-1.1 1.5-2.4 1.5-3.6 0-.2-.1-.4-.3-.6-.2-.1-.5-.1-.6 0-.9.6-1.7 1.3-2.5 2.1.1-.2.2-.3.4-.5.6-.8 1.8-1.9 2.9-3.1 1.1-1.2 2-2.5 2.1-4 0-.2-.1-.4-.3-.5-.2-.1-.4-.1-.6 0-.8.4-1.7.9-2.6 1.5.5-.5 1.1-1.1 1.6-1.7 1-1.1 1.9-2.3 1.9-3.6 0-.2-.1-.4-.3-.5-.2-.1-.4-.1-.6-.1-3 1.1-5.9 3.1-8.4 5.4.6-.6 1.2-1.3 1.8-1.9.5-.5 1.3-1.2 2-1.9s1.4-1.6 1.5-2.6c0-.2-.1-.4-.3-.6-.2-.1-.4-.1-.6 0-.8.4-1.8.9-2.8 1.5 1.2-1.4 3.2-2.4 4.5-4.3.1-.2.1-.5 0-.7-.2-.2-.5-.3-.7-.2-1.1.4-2.2 1-3.2 1.6.1-.1.2-.3.4-.4 1.4-1.6 2.7-3.3 2.7-5.2v-.4c0-.2-.2-.4-.4-.5-.2-.1-.5 0-.6.1-.3.3-.7.6-1 .9-.2.2-.5.3-.7.4.1-.9.6-1.7 1.3-2.4l1-1c1.2-1.1 2.7-2.3 2.9-4.1 0-.2 0-.3-.1-.5-.1-.1-.3-.2-.4-.2h-.1c-.7 0-1.2-.1-1.4-.2-.2-.1-.1-.1-.1-.2 0-.4.5-1.4 1.2-2.5.6-1 1.2-2.2 1.4-3.4v-.8c0-.3-.3-.5-.6-.5h-.2c-.8 0-1.4.2-2 .3 0-1.2.7-1.9 1.6-2.8.9-.8 2-1.8 2.2-3.3 0-.3-.2-.6-.5-.7h-.3c-.5 0-1.1.1-1.8.2-.9.2-1.7.3-2.4.3-.5 0-.7-.1-.7-.1-.2-.3-.3-.4-.3-.6 0-.1.1-.4.4-.7.5-.4 1.3-.8 2-1.1.8-.3 1.4-.5 1.8-.7 1.4-.6 2.5-1.3 3.4-2 .5-.4.9-.8 1.3-1.3.8-1 1.5-2.2 2.3-3.6.7-1.2 1.4-2.3 2.4-2.6.3-.1.5-.5.4-.8-.1-.3-.5-.5-.8-.4.4-1.4 2-2.9 3.5-3.9.2-.1.4-.3.6-.4-.1 1-.8 2.2-1.5 3.4-.8 1.4-1.7 2.9-1.7 4.7 0 .6.1 1.2.4 1.8.1.2.3.4.6.4h.2c.3-.1.5-.5.4-.8-.2-.5-.3-.9-.3-1.4 0-1.3.7-2.7 1.5-4 .8-1.4 1.7-2.8 1.7-4.5v-.6c0-.2-.1-.4-.3-.5-.2-.1-.4-.1-.5 0-.1 0-.2.1-.3.1v-.5c.6-.8 1.2-1.7 1.3-2.8.7-.9 1.5-1.8 2-2.5.6-.9 1.4-2.1 2.1-3.2.5-.7 1.1-1.3 1.6-1.8-.1 2-1.2 3.7-1.9 6-.5 1.5-.7 3-.7 4.6 0 1.2.1 2.5.4 3.7.1.3.3.5.6.5s.5-.1.6-.4c.6-1.5 1.3-3 2-4.6-.1 1.2-.1 2.5-.1 3.7 0 1 0 2 .1 3 0 .3.3.5.6.6.3 0 .6-.2.7-.4.3-1 .8-3.1 1.6-5 .4-.9.8-1.8 1.2-2.4.1-.2.3-.4.4-.5-.1 1.5-.5 3.9-.5 6.1 0 .9.1 1.8.3 2.5.2.7.5 1.3 1.2 1.7h.1c.2.1.4.1.6.1.7 0 1.3-.4 1.8-.8.3-.3.7-.6 1-1h.1c.3 0 .6-.3.6-.6v-.5c.1-.2.2-.4.4-.6.6-1 1-1.9 1.1-2.6 0-.3-.1-.6-.4-.7-.1 0-.2-.1-.4 0 .1-.3.1-.6.2-.8 0-.1.1-.1.1-.2.1-.9.3-1.9.7-2.8v.7c0 .8 0 1.5.4 2.1.2.3.6.6 1 .6s.8-.2 1-.4c.3-.3.7-.7.9-1.1 0 .1.1.1.2.1.4.3.8.3 1.2.3h.4c.2 0 .3-.1.5-.1 1.9-.5 2.8-2.4 3.5-3.4.9-1.2 1.3-1.4 1.8-1.4.7 0 1.8.5 3.5.5h.2c.3 0 .6-.3.6-.6s-.3-.6-.6-.6h-.2c-1.4 0-2.3-.5-3.5-.5-1 0-1.9.6-2.8 1.9-.7 1.1-1.5 2.4-2.5 2.8-.1 0-.2.1-.3.1-.2.1-.5.1-.7.1-.2 0-.4-.1-.4-.1s-.1 0-.1-.3v-.3c.1-.3-.1-.6-.4-.7-.3-.1-.6 0-.8.2-.3.4-.6 1-1 1.5-.2.2-.4.5-.5.6-.1.1-.1.1-.2.1v-.1s-.2-.6-.2-1.3c0-1.5.3-3.4.3-4.3 0-.3-.2-.5-.5-.6-.3-.1-.5 0-.7.3.4-1.8.8-3.5.8-5.4 0-.4 0-.8-.1-1.2 0-.3-.3-.6-.6-.6s-.6.2-.6.5c-.2 1.1-.7 2.2-1.2 3.3 0-.2 0-.3.1-.5s.1-.4.2-.6c.1-.2 0-.3 0-.5.2-1.3.6-2.6 1.1-3.9.3-.7.7-1.4 1.1-2.1.8-1.3 1.8-2.7 2.2-4.2.1-.3-.1-.6-.3-.7-.1 0-.2-.1-.3-.1-.2 0-.4.1-.5.2-1.5 1.7-3 3.4-4 5.3 0-.3-.1-.5-.1-.7.4-1.3 1-2.5 1.5-3.2 1.5-1.9 3.4-3.8 5.4-5.2.3-.2.3-.6.1-.9-.2-.3-.6-.3-.9-.1-2 1.5-4.1 3.4-5.6 5.4-.4.6-.9 1.4-1.3 2.3-.2-.3-.5-.5-.8-.7-.1-.1-.2-.1-.3-.1.1-.8.2-1.7.2-2.6.1-.1.2-.2.4-.2.3-.2.4-.6.2-.9-.2-.3-.6-.4-.9-.2h-.5v-.4c0-.2 0-.5-.1-.7 0-.2-.2-.4-.4-.5-.2-.1-.4 0-.6.1-.5.4-1.2 1-1.9 1.6.5-1.1.8-2.1.9-3.2 1.2-1.2 2.8-2.2 4.3-2.5.3-.1.5-.4.5-.8-.1-.3-.4-.5-.8-.5-1.1.3-2.2.8-3.2 1.5.1-.3.2-.6.2-1v-.1c0-.2-.1-.4-.3-.5-.2-.1-.4-.1-.6-.1l-.6.3c1.6-1.1 2.9-2.4 3.3-4.1 0-.2 0-.4-.1-.5-.1-.1-.3-.2-.5-.3h-.1c-.2 0-.5 0-.7.1.4-.5.7-1 .7-1.6 0-.2 0-.4-.1-.6-.2-.7-.9-1.1-1.4-1.1h-.2c.3-.6.5-1.2.5-1.8v-.2c0-.3-.3-.6-.6-.6H59c-.6 0-1.1.1-1.6.2 1.1-.8 2.1-1.7 2.3-3.1 0-.2 0-.3-.1-.5-.1-.1-.3-.2-.4-.2h-.8c1.2-.7 2.3-1.5 3-2.5.1-.2.1-.4 0-.7-.1-.2-.3-.3-.6-.3-1.7.1-3.2 1-4.6 1.8-.6.4-1.3.7-1.9 1 0-.1-.1-.2-.2-.2-.1-.1-.3-.2-.5-.2h-.2c.2-.2.3-.3.6-.5.8-.6 1.8-1.1 2.7-1.5.2-.1 1.4-.3 2.4-.6.5-.2 1-.3 1.5-.5.4-.2.9-.5 1.1-1 .3 0 .3-.2.3-.4 0-.4-.2-.9-.6-1.1-.4-.2-.7-.2-1.1-.2-1.2 0-2.9.5-4.6 1.1 0-.1-.1-.2-.2-.3-.2-.1-.4-.1-.5-.1-1.7.5-3.2 1.3-4.6 2.1.8-1.4 2.1-2.3 3.7-2.9 2.2-.8 4.9-1 7.2-1.2.2 0 .4-.1.5-.3V27c1.2.1 2.2.4 2.9.8.3.2.7.1.9-.2.2-.3.1-.7-.2-.9-1.2-.7-2.7-.9-4.3-1-1-.6-2.1-.7-3.1-.7-1.2 0-2.4.2-3.2.3-.4 0-.8.1-1.2.2l-.1-.1c-.3-.1-.7-.2-1.1-.2-1.5 0-3.2.7-4.9 1.6.6-.3 1.2-.6 1.7-.9l1.5-.6c2.5-.8 5.5-1.3 8.1-1.3 1.1 0 2.1.1 3 .3.7.3 1.5.6 2.3.9.3.1.6 0 .8-.3.1-.3.1-.6-.2-.8-.4-.3-.8-.5-1.3-.7.7.1 1.4.2 2.1.2h.3c.4 0 .8 0 1.1-.1.3 0 .5-.3.5-.5 0-.3-.1-.5-.4-.7-.9-.4-2-1-3.2-1.5-1.9-.8-3.9-1.6-5.7-1.8H56c-3.9 0-7.8.9-11.5 1.5-1 .2-1.9.4-2.9.7-1.1.3-2.2.6-3.2.6h-.2c.8-.5 1.7-1 2.8-1.5 4.3-1.9 8.8-3.3 13.5-3.5h.9c2.6 0 5 .6 7.1 1.6.8.4 1.5.9 2.2 1.4.4.3.8.7 1.2 1.1.6.6 1.1 1.3 1.6 2 .4.6.7 1.2 1 1.9v.4c.2.4.4.9.7 1.3 0 0 0 .1.1.1.1.1.1.2.2.3 1.1 1.6 2.6 3 3.8 4.1.1.1.3.2.4.2.1 0 .2 0 .3-.1.2-.1.4-.3.4-.6 0-.9 0-1.9-.1-2.8.7 1.1 1.6 2 2.6 2.8.2.1.4.2.6.1.2-.1.3-.3.4-.5v-.7c0-.7 0-1.3-.1-2 0-.5-.1-1-.1-1.5.5.3.9.9 1.2 1.5.3.4.5.9.8 1.3.1.2.3.4.4.5.2.1.4.3.7.3.6 0 .9-.4 1.2-.8.2-.3.4-.8.6-1.4.5.2.9.6 1.4 1 .7.5 1.3 1.1 2.2 1.1.5 0 1.1-.3 1.4-.8.3-.4.5-.9.8-1.6.1 0 .2.1.3.1v.1c-.1.3 0 .7.4.8.3.1.7-.1.8-.4v-.1c.3.1.5.2.7.4.3.2.7.1.9-.2.1-.2.1-.4.1-.6 0-.1-.1-.1-.1-.2l-.1-.1c-.3-.2-.6-.3-.9-.5 1-1.9 2.7-3.2 4.8-4.2 2.5-1.1 5.5-1.7 8.4-1.7 2.1 0 4.2.3 5.9.8 4.3 1.2 9 2.9 12.1 5.9l.5.5c1.3 1.4 2.2 2.8 2.9 4.3.4 1 .7 2 .8 3-.2-.2-.3-.4-.5-.6l-1.2-1.2c-.6-.5-1.2-1.1-1.6-1.5-.2-.2-.6-.8-1.1-1.6-.7-1.2-1.7-2.7-2.6-3.9-.1-.2-.2-.3-.3-.5-.3-.4-.7-.8-1-1.2-.5-.4-.9-.8-1.5-.8h-.1c-.3 0-.7.1-.9.3-.1 0-.1.1-.2.2-.5-.3-.9-.6-1.4-.8-1.5-.9-3-1.6-4.7-1.9-.2 0-.5 0-.6.2l-.1.1c-.1.2-.1.3 0 .5s.2.5.3.7c-.4-.2-.8-.3-1.2-.5-.3-.1-.5 0-.7.2-.9-.6-1.9-1.1-3.1-1.3-.3-.1-.7-.1-1-.1-.2 0-.4.1-.5.2 0 .1-.1.1-.1.2-.2-.1-.4-.1-.6-.2-.5-.2-1-.3-1.5-.3-.2 0-.4.1-.5.3-.1.1-.1.3-.1.4v.2l.6 1.2c-.4-.2-.8-.3-1.2-.4-.2-.1-.5 0-.6.2v.1h-.1c-.3.1-.5.4-.4.7.4 1.5 1.8 3.4 3.6 5.2-.1 0-.2-.1-.3-.1-1.7-1.4-3.5-2.3-5.1-3.2-.3-.2-.6-.1-.8.2-.2.2-.2.6 0 .8.2.2.3.3.5.4h-.1c-.2 0-.5 0-.7.1-.3.1-.5.4-.5.7 0 .3.3.6.6.6.7 0 1.3.1 1.9.3.4.2.7.4 1.1.6.9.6 1.7 1.3 2.4 1.9.6.4 1.1.8 1.7 1.3.5.6 1.1 1.2 1.6 1.8.4.4.8.9 1.3 1.4-.8-.7-1.7-1.4-2.7-2.1-2-1.3-4.8-4-7.8-4.1H94c-.3 0-.6.3-.6.6s.3.6.6.6c2.2 0 5.1 2.4 7.1 3.8 2.7 1.9 4.5 3.7 6.3 6.3-.8-.3-1.7-.6-2.5-.6h-.4c-.3 0-.6.3-.6.7 0 .3.3.6.7.6h.3c1.4 0 3.5 1.1 4.6 2.1l.2.2c.1.1.3.2.5.2.1 0 .2 0 .3-.1.3-.1.4-.5.3-.7-.1-.4-.3-.8-.5-1.1-.3-.6-.7-1.3-1.1-1.9.5.3 1 .5 1.5.7.4.1.7.3 1.1.3.2 0 .5-.1.6-.3.1-.2.1-.5 0-.7-.5-.8-1.1-1.5-1.5-2.2 0 0 0-.1-.1-.1h.1c.3.1.6.3.9.3.3.1.5-.1.7-.3.1-.2.1-.5 0-.7-.5-.7-.9-1.4-1.2-2.1l-.3-.9c.2.1.5.1.7.2.4.1.8.2 1.3.3h.1c.2 0 .5-.2.6-.4v-.3c0-.1.1-.2 0-.3 0-.2 0-.3-.1-.5-.1-.7-.2-1.4-.4-2 .5.4 1.1.9 1.6 1.4l.4.4c.8.8 1.7 1.6 2.5 2.2.2.2.5.1.8 0 .2-.2.3-.5.2-.7-.2-.3-.4-.7-.6-1 .9.9 1.9 1.8 2.9 2.6.3.2.6.2.8-.1.2-.2.2-.6 0-.8l-1.8-1.8c-1.7-1.6-3.6-3.1-5.2-4.8.2.2.6.2.9 0l.1-.1c.9 1.4 2.2 2.9 3.5 4.1.3.3.6.6.9.8.4.3.8.6 1.1.9.6.4 1.2.7 1.8.8.2 0 .4-.1.6-.3.1-.2.1-.4 0-.6 0-.1-.1-.1-.1-.2l1.2 1.2c.7.8 1.3 1.6 1.6 2.3-.1.1-.3.2-.3.2-.1.1-.1.1-.2.1-.3.1-.5.4-.4.7.1.3.4.5.8.4 0 .3.2.6.6.7.3 0 .6-.3.6-.6v-.7c.1.1.1-.1.1-.2zm-54 189c-.1 0-.1.1-.2.1 0-.2 0-.4.1-.6 0-.1.1-.1.1-.2v.7zm25-147.8v-.3.3zm2-1.2c-.3 0-.3-.1-.5-.3-.1-.2-.3-.5-.4-.9l.9 1.2zm-2.2.4c0-.1-.1-.2-.2-.2V78c.1.1.2.4.2.6zm-3.8 32.9s-.1 0-.1.1c-.6-.8-1.1-1.5-1.4-2.3 0-.1-.1-.2-.1-.4.1 0 .1.1.2.2.8.7 1.6 1.6 2 2.4-.1 0-.3-.1-.6 0zm2.8 4.9zm15.9 83.9c.2.7.5 1.3.8 2-1.8-1-4-1.7-5.9-2.6-2-.9-3.6-1.9-4.2-3.3 1.5.1 3.2 1.1 4.7 1.6 1.7.6 3.3 1 5 1.5-.1 0-.2.1-.2.1-.2.2-.3.4-.2.7zm5.5.6c.8 1.1 1.7 2.2 2.5 3.3-1.8-1.3-3.4-3-5.6-4.1.1 0 .2.1.3.1.3.1.6 0 .7-.3.2-.2.1-.6-.1-.8-1.7-1.8-3.6-3.4-5.7-4.6-1.4-.8-3.2-1.4-4.7-2 2 .5 4.1 1.1 6.3 1.5 0 .2.1.4.4.5 2.5 1.3 4.2 3.9 5.9 6.4zm-.4-7.7c1.1 1.4 1.7 3.1 2.5 4.8 0 .1.1.2.1.3 0 0-.1 0-.1-.1-1.6-1.2-3.1-2.7-5-3.7h1.2c.2.1.5.1.7 0 .2-.2.3-.5.2-.7-.4-.9-.8-1.7-1.3-2.4.6.5 1.2 1.1 1.7 1.8zm-1-5.4c.1.1.3.2.4.3 1.4.9 2.5 1.9 3.4 3.2-.8-.6-1.6-1.1-2.5-1.5-2.1-1.1-4.4-2-6.4-2.9-.4-.2-.7-.3-1.1-.5-.3-.1-.7 0-.8.3-.6-.3-1.2-.5-1.8-.7-.1 0-.3-.1-.4-.1h.3c1.6 0 3.3-.2 4.9-.3 1.3.8 2.7 1.5 4 2.2zm-7.2-3.2c.4-.1.7-.3 1.1-.4l.3.3c-.5 0-1 0-1.4.1zm-15.4-31.2c.2.5.3 1 .6 1.4-.2-.2-.5-.5-.7-.8-.2-.2-.3-.4-.5-.7.1.2.4.2.6.1zm-5.4-6c1.5 1.4 2.9 2.9 3.8 4.4 0 .2.1.4.2.5-.2-.4-.5-.8-.7-1.1-.1-.2-.4-.3-.7-.3-.3 0-.5.3-.5.5v.4c-.5-1.5-1.3-3-2.1-4.4zm3.4 11.8v-.6c.1.5.1 1 .2 1.5-.1-.2-.2-.4-.3-.5 0-.2.1-.3.1-.4zm-3.5 4.9c.2.1.4.1.6 0 .2-.1.3-.3.3-.5v-.9c0-2-.3-3.9-.6-5.8-.1-.4-.2-.9-.3-1.3.4.8.8 1.5 1.2 2.2-.1.1-.1.2-.1.3.1 2.8.3 5.7.3 8.4v1.3c-.1-.1-.2-.3-.3-.4-.4-.6-.8-1.3-1.5-1.8-.1-.1-.3-.1-.5-.1s-.3.2-.4.3c-.3.7-.6 1.4-.8 2.2-.1-1.6-.2-3.3-.6-5-.3-1-.6-2-1-2.9 1.1 1.6 2.3 3 3.7 4zm-2.7 7.2h.2v.3c-.1-.1-.1-.2-.2-.3zm-2.3-7.6c.5 1.7.9 3.5 1.3 5.2-.6-1.8-1.1-3.5-1.3-5.2zm.7 55.5c-.6-.5-1.1-1-1.5-1.5-.5-.7-.6-1.6-.6-2.7v-1.9c.2.1.3.2.5.3.2.1.5.1.7-.1.2-.2.2-.5.1-.7l-.3-.6c-.2-.6-.4-1.4-.4-2.2 0-.5.1-1 .2-1.5.7.3 1.4.8 2.3 1 .2 0 .4 0 .6-.2.1-.2.2-.4.2-.6-.3-1.2-1.1-2.2-1.7-3.1-.4-.5-.7-1-.9-1.5.4.2.8.3 1.2.5.3.1.7-.1.8-.4.1-.3 0-.7-.3-.8-.4-.2-1-.4-1.3-.7l-.4-.4c-.1-.1-.1-.3-.1-.4 0-.1 0-.3.2-.6 0 0 .1 0 .1.1.8.4 1.5.9 2.2 1.4.2.2.5.2.7 0 .2-.2.3-.5.2-.7-.6-1.4-1.2-3.4-1.2-5.1 0-.9.1-1.6.5-2.3.5.4 1 .8 1.5 1.3s.8 1 1.1 1.4c.2.3.5.4.8.2.3-.2.4-.5.2-.8-.3-.5-.7-1.1-1.3-1.6-.7-.8-1.5-1.6-2.3-2.5-.4-.4-.7-.8-1-1.2-.6-.8-1.1-1.6-1.2-2.2.3.1.6.3 1 .5.4.3.8.6 1.2 1 1 .9 2.1 2 3.6 2.3.2 0 .4 0 .6-.2.1-.2.2-.4.2-.6-.5-1.8-2.2-2.7-3.7-3.6-.7-.4-1.4-.9-1.9-1.4-.3-.3-.5-.6-.6-1 .5-.1 1-.2 1.4-.2.3 0 .5-.2.6-.5.1-.4.1-.8.1-1.2 0-1.4-.6-2.6-.7-3.9-.1-.9-.2-1.9-.2-2.9 0-.9 0-1.8.1-2.7.1.3.2.5.3.8.1.2.3.4.6.4s.6-.3.5-.6v-.3c.2-2.5.3-5.6 1.1-7.8l.6.9c.4.6.8 1.4 1.5 1.9.2.1.4.2.6.1.2-.1.3-.3.4-.5.1-1 .1-1.9.1-2.9 0-2-.1-4-.2-6 .5 1 1.1 1.9 1.5 2.9.1.3.4.4.7.4.3-.1.5-.3.5-.6-.1-2-.3-4-.7-6-.2-1-.5-2-.8-3 .2.3.4.5.6.8.8 1 1.9 1.9 3.2 1.9h.3c.2 0 .5-.2.5-.4.1-.2 0-.5-.2-.7-1.4-1.1-1.9-3.3-1.9-5.4 0-.7.1-1.4.2-2 .1.1.3.2.4.4.6.6 1.3 1.6 2 2.5.7.9 1.3 1.8 2.1 2.4 0 0 .1 0 .1.1-1.8 3.5-3.8 8.3-3.9 12.2v.3c0 .3.3.6.6.6s.6-.3.6-.6c0-1.4 1.3-3.6 3-5.6 1-1.2 2.1-2.3 3.1-3.1.2-.1.3-.3.5-.4.2-.1.3-.3.5-.4-.1.5-.2.9-.3 1.3-.1.2-.2.5-.3.7-.6 1.2-1.4 2.4-2.4 3.7-1.6 2.1-3.2 4.3-3.3 6.9 0 .3 0 .5.1.8 0 .2.1.4.3.5.2.1.4.1.5 0 1.9-.8 3.3-2.4 4.6-4 .6-.7 1.2-1.4 1.8-2 .5-.5 1.1-1 1.7-1.4 0 1-.5 1.9-1.2 2.9-.5.6-1.2 1.2-1.9 1.8-1.7 1.5-3.7 2.9-4.4 4.9-.1.2 0 .5.2.7.2.2.4.2.7.1 2.4-1.1 4.6-2.5 6.8-3.6 1.2-.5 2.3-1 3.6-1.2-.2.3-.5.7-.9 1.1-.5.5-1.2 1-2 1.5s-1.7 1-2.5 1.5c-1.7.9-3.2 1.7-4 2.3-.2.2-.3.5-.2.8.1.3.4.4.7.3 1.7-.4 3.3-1.4 4.9-2.3.6-.4 1.3-.7 1.9-1 .9-.4 1.7-.6 2.5-.7-.2.4-.6.7-1.1 1-.3.2-.6.3-1 .5-1.1.5-2.5.9-3.8 1.4-1.7.7-3.3 1.7-3.6 3.6 0 .2 0 .3.1.5.1.1.3.2.4.2h.2c1.1 0 2.7-.6 4.6-1.1 1.3-.4 2.7-.8 4-1 .5-.1 1-.1 1.5-.1.9 0 1.6.2 2.1.5s.8.8.8 1.8v.1c0 .6-.3 1-.8 1.4-.3.2-.6.4-1 .5-.5.2-1.2.4-1.8.6-.5-.2-1-.3-1.5-.4-.3 0-.5.1-.7.3-.1.2-.1.5.1.7-1.1.4-2.1.8-2.8 1.6-.1.2-.2.4-.1.7 0 0 0 .1.1.1-3.7-1.2-7.5-2-10.2-3.6-.3-.2-.7-.1-.9.2-.2.3-.1.7.2.9 3.4 1.9 7.8 2.7 11.7 4.1 2.8 1 5.4 2.3 7.1 4.3-2.8-2-6.1-3.5-9.6-3.5h-1c-1.6-.6-3.1-1.1-4.4-1.1-.5 0-1 .1-1.5.3-.2.1-.3.2-.5.3-.1.1-.3.3-.3.7 0 .4.2.6.4.7.3.2.5.2.8.3.9.2 2.3.2 3.5.2h1.8c.3.1.6.2.9.4 1.9.8 3.6 1.7 4.8 2 1.4.4 2.8.9 4.1 1.4-3.5-.5-7.2-1.8-10.9-2.4-.3 0-.5.1-.6.3-.1.2-.1.5.1.7 2 2.1 5.3 2.7 7.4 3.9 1.3.7 2.5 1.6 3.6 2.6-1.6-.5-3.2-.9-4.7-1.5-1.6-.5-3.5-1.7-5.6-1.7h-.5c-.2 0-.3.1-.4.3-.1.1-.1.3-.1.5.3 1.6 1.5 2.8 2.9 3.7 2.1 1.3 4.9 2.2 7.2 3.3 1.1.5 2.1 1.1 2.8 1.7l.1.1c.3.5.6 1 1 1.4v.1h-.3c-3.9 0-8-2.5-11.3-4.6-.3-.2-.6-.1-.8.2-.2.3-.1.6.1.8 2.8 2.3 4.6 4.8 6.7 7.5-3-1.4-5.8-3.5-9-4.6-.3-.1-.6 0-.7.2-.2.2-.1.5 0 .8.7.8 1.4 1.5 2.2 2.3-1-.5-2.1-1-3.2-1.4-.2-.1-.5 0-.7.2-.2.2-.2.5 0 .7 1.8 2.9 4.3 4.9 5.8 7.6-1.1-.6-2.1-1.4-3.2-2.3-1.6-1.2-3.2-2.5-5-3-.3-.1-.6 0-.7.3-.1.3-.1.6.1.8 1.7 1.4 3.2 3 4.6 4.8-2.1-1.5-4.1-3-6.1-4.8-.2-.2-.5-.2-.7-.1-.2.1-.4.4-.3.6.1.7.5 1.5.9 2.3-.7-.5-1.4-1.1-2-1.6-.2-.2-.4-.2-.7-.1-.2.1-.4.3-.4.6 0 1 .6 2 1.1 3.1.5 1.1 1 2.2 1 2.7v.1c-.2.2-.2.6 0 .9.2.2.6.2.9 0 .3-.3.4-.7.4-1 0-1-.6-2.1-1.1-3.2-.1-.3-.3-.6-.4-.8 1.4 1.1 2.9 2.2 4.2 3.3.9 1 1.8 1.9 2.5 2.4.1.1.3.1.4.1.2 0 .3-.1.5-.2.2-.2.2-.6 0-.8-.7-.9-1.6-1.7-2.5-2.4-.4-.4-.8-.9-1.2-1.4-.5-.6-.9-1.2-1.3-1.8 2.2 1.8 4.5 3.4 6.9 5 .2.2.6.1.8-.1.2-.2.3-.5.1-.8-.9-1.5-2-2.9-3.2-4.3.1.1.3.2.4.3 1.6 1.2 3.2 2.5 5 3.1.2.1.5 0 .7-.2.2-.2.2-.4.1-.7-1.2-3.2-3.6-5.3-5.4-7.6 2.7 1.2 5.4 3 7.8 4.7.3.2.6.1.8-.1.2-.2.2-.6 0-.8-1.8-1.8-4-3.4-5.9-5.2 2.6 1.4 5.2 3.2 8.2 4.1.3.1.5 0 .7-.2.2-.2.1-.5 0-.7-1.6-2.1-3-4-4.6-5.9 2.4 1.2 5 2.2 7.7 2.3.4 0 .7 0 1.1-.1h.1c1.6 2.2 3.3 4.2 4.2 6.6-.8-.5-1.4-1.3-2-2.2-.9-1.3-1.9-2.9-3.8-3.4-.2 0-.3 0-.5.1-.1.1-.2.2-.3.4 0 .2-.1.4-.1.7 0 1.1.5 2.1 1.1 3.1.6.9 1.2 1.8 1.5 2.5.2.4.3.8.5 1.2-1.3-1.4-2.7-2.7-4.3-2.8-.5 0-1 .2-1.3.5-.7.6-.9 1.5-.9 2.4 0 1.2.4 2.6.8 3.9.2.7.5 1.5.7 2v.1h-.1c-.5-.3-1.1-.9-1.6-1.6-.8-1.1-1.6-2.5-2.5-3.3-.2-.1-.4-.2-.5-.1-.2 0-.4.2-.4.4-.5 1.1-.5 2.6-.6 3.9-.1.8-.2 1.5-.5 2.1-.2.4-.4.7-.6.8-.3.3-.5.3-.5.3s-.1 0-.4-.2c-.2-.2-.5-.4-1-.5-.1 0-.2-.1-.3-.1-.7-.2-1.5-.3-2.2-.3-1.6 0-3.1.3-4.5.5-.8.1-1.6.1-2.3.2-.9.1-1.7.1-2.5.1-1.6 0-3.2-.2-4.9-.6-.2-.1-.4 0-.6.1v-.4c0-.6-.1-1.2-.3-1.9-.7-1.2-1.3-1.9-1.9-2.4zm25.5-28.7c-.5-.2-1.4-.5-2.3-1 1.3.3 2.5.8 3.7 1.4-.5-.2-.9-.3-1.4-.4zm-38.1 34.3zm-17.5-6.2c-.2.5-.5 1-.7 1.5.2-.9.5-1.7.9-2.6 0 .4-.1.7-.2 1.1zm2.7 3.2v1h-3.7c.2-.2.4-.4.5-.7.1-.1.2-.2.2-.3v.4c0 .3.3.6.6.6s.6-.2.6-.5c.1-.7.2-1.4.4-2.1v.1c.1.5.4 1 .9 1.4.2 0 .3.1.5.1zm-2.9-8.1c-.5 1.3-1 2.6-1.6 3.8.4-1.3 1-2.6 1.6-3.8zm-9-2h.3c-.2.7-.3 1.4-.4 2.1-.2-1-.6-1.8-1.1-2.7l1.2.6zm-3.6 7c.7-1.9.1-3.8.6-5.2.6.6 1.3 1.1 2.1 1.4h.2c.1 0 .3 0 .4-.1l.1-.1v.1c0 .3.3.5.6.6.3 0 .6-.2.7-.4.2-.8.9-1.9 1.8-2.9-1 1.6-1.9 3.3-1.9 5.4v.5c0 .3.2.5.5.6.3.1.5 0 .7-.2 2.1-2.9 3.9-6.4 6.3-8.7-.2 1.3-1 2.6-1.9 4.1-1 1.6-2.2 3.4-2.2 5.5 0 .2 0 .5.1.8 0 .3.2.5.5.5s.5-.1.7-.3c.1-.1.1-.2.2-.4v1.2c0 .3.2.5.5.6.3.1.5 0 .7-.3.1-.2.3-.4.4-.7-.1.5-.1 1-.1 1.5v.6c0 .1 0 .2.1.3H52c-.7 0-1.4-.1-2.1-.2-3-.3-6.1-.9-9.2-.9h-.5l.4-.4c.4-1 1.1-1.9 1.5-2.9zm-13.9 7.7c0 .1 0 .1 0 0v.2c-.1-.1-.2-.1-.3-.2-.1-.2-.2-.5-.2-.9v-.1h.4v.1c0 .3.1.6.1.9zm.2-2.8c0 .1-.1.2-.1.2 0 .1-.1.2-.1.3H28c.2-.2.3-.4.4-.5zm19.1-201c1.2-.4 2.8-.5 4.5-.5h1.2c-1 .2-1.9.3-2.8.6-1.5 0-3.1.4-4.6.9.5-.5 1-.8 1.7-1zm3.4 1.3h.2-.2zm-8.8 2.4l.6-.3c-.7.5-1.4 1.1-2 1.6l-3 2.4c-.1 0-.1.1-.2.2 1.3-1.8 2.8-3.1 4.6-3.9zm5.5 2.1c-2 1.1-4 2.4-5.8 3.7.3-.2.5-.4.8-.6.9-.7 2.6-1.8 4.3-2.9.2-.1.4-.1.7-.2zm3.9 11.9s-.1 0 0 0c-.1 0 0 0 0 0zm-.3 2.9c.2-.2.4-.3.6-.5.1-.1.3-.2.4-.3-.2.2-.4.3-.6.5 0 .2-.2.2-.4.3zm4.2 8.8c-1.5 1.2-2.8 2.7-4.1 3.8.2-.3.3-.7.5-1.1.9-.9 2.3-1.8 3.6-2.7zm-9 9.7c-.2.2-.4.5-.7.7.2-.4.5-.9.8-1.3.5-.7 1.2-1.3 1.9-2 .3-.2.5-.5.8-.7 0 0 .1.1.2.1.2.1.4.1.6 0 3-1.9 5.3-5.1 8.1-6.8-.4.6-1 1.4-1.8 2.1-1.2 1.2-2.7 2.4-3.5 3.2-.9 1-2.2 2.2-3.1 3.7 0-.2-.1-.4-.2-.5-.2-.1-.4-.2-.5-.1-.9.2-1.8.8-2.6 1.6zm8.8-2.3c.6-1.2 1.2-2.3 1.7-3.1-.4 1-1 2.1-1.7 3.2l-.1.1c0-.1 0-.1.1-.2zM40.4 78.7v-.2c.1-.4.4-1 .8-1.6.9-1.2 2.3-2.5 3.7-3.6.3-.3.6-.5 1-.7.4-.3.8-.5 1.2-.8-.3.4-.7.9-1.1 1.3-1 .9-2.1 1.8-2.7 2.6-1 1-2 1.9-2.9 3zm16.5-.6c-.8 1.1-1.4 2.6-1.9 4 .1-2.5.3-5 .5-7.6.1-.7.2-1.4.2-2.1v-.5c0-.2-.1-.3-.2-.4.1-1.1.2-2.3.5-3.6 1.1-3 2.6-5.9 4.4-8.5-.1 1.3-.4 2.4-.7 3.7-.4.8-.6 1.6-.8 2.5-.5 1-.9 2.1-1.2 3.3-.6 2.4-.7 5-.8 7.2-.2.1-.4.2-.4.5 0 .2 0 .4.2.5 0 .1.1.1.1.2.1.1.3.2.5.2-.1.2-.3.4-.4.6zm8-6.4c-.4 2.3-1.2 4.7-1.4 7.2-.2.5-.5 1-.8 1.5-.5.9-1.1 1.8-1.5 2.9-.2.4-.3.9-.4 1.4 0 .3.2.6.6.6.3 0 .6-.2.7-.5.1-.3.1-.6.3-1 .1-.3.3-.5.5-.8-.2.8-.3 1.5-.4 2.4-.4.6-.9 1.1-1.3 1.5-.4.4-.8.5-1 .5H60c-.2-.1-.4-.3-.6-.9-.2-.5-.2-1.3-.2-2.2 0-2.4.5-5.3.5-6.8v-.3c0-.3-.3-.6-.7-.6-.3 0-.6.1-.8.2.1-1.3.1-2.6.2-4v1.9c0 .3.3.6.6.6s.6-.3.6-.6v-.4c0-3 .1-6 .8-8.8.4-.6.9-1.1 1.4-1.6-.2.7-.3 1.4-.3 2 0 .8.2 1.7.6 2.4-.2 2.3-.7 4.7-1 6.7-.1.7-.2 1.3-.3 2v.1c-.1 0-.1-.1-.2-.1-.3-.1-.7 0-.8.4-.1.3 0 .7.4.8.2.1.4.2.7.2.1.3.3.4.6.4s.6-.3.6-.6v-1.1c.1-.5.1-1.1.3-1.8.1.2.3.4.5.4.3 0 .6-.2.7-.5.2-1.2.7-2.3 1.3-3.5zm-3.3-9.4s.1.1.1.2c-.1.1-.3.2-.4.3.1-.2.2-.4.3-.5zm-2-5.1c-.4 1.3-1.7 2.8-2.5 4.1-1.5 2.4-3 5.2-3 8.3v.3c0 .2.1.4.3.5-.1.6-.1 1.1-.1 1.7 0 .2.1.3.2.4 0 .6-.1 1.3-.1 1.9-.5 2.4-1.7 4.8-2.7 7.1 0-.4-.1-.9-.1-1.3 0-1.4.2-2.8.6-4.2.7-2.2 1.9-4.1 1.9-6.7v-.8c0-.2-.1-.4-.3-.5-.2-.1-.4-.1-.6-.1-1.2.5-2.1 1.6-3 2.7-.8 1.2-1.6 2.4-2.1 3.2-.4.5-1 1.2-1.6 2h-.2c-.1 0-.2.1-.3.1-1.5.7-2.8 1.7-3.9 2.8.7-.7 1.4-1.4 2-2.1.4-.5 1.1-1.1 1.9-1.8.3-.2.5-.5.8-.7 1-1 2-2.1 2.1-3.4 0-.2-.1-.4-.2-.5-.1-.1-.3-.2-.5-.1-.6.1-1.4.5-2.3 1.1-1 .6-2 1.4-3 2.3.2-.3.4-.5.6-.8.8-1 1.6-1.9 2.3-2.8.9-1.1 1.7-2.2 2.2-3.3.1-.3 0-.6-.2-.8-.3-.2-.6-.1-.8.1-.4.5-.8 1-1.3 1.5-.4.5-.8.9-1.2 1.4l1.2-1.5.8-.8c1-1 2-2 2.7-3.2v.5c0 .3.3.6.7.6.3 0 .6-.3.6-.7v-.1c-.1-1.2 1.5-2.4 2.5-3.6.5-.6 1.1-1.2 1.6-1.8-.1.2-.2.4-.3.7-.7 1.5-1.4 2.9-1.6 4.1-.7 1.2-1.2 2.4-1.2 3.6v.2c0 .3.2.5.5.6.3 0 .6-.1.7-.4.6-1.9 2.2-4.1 3.6-6.5v-.1c1-1.3 2.2-2.4 3.3-3.2zM54.7 51c-1.1.7-2.1 1.4-3 2.1-.2-.1-.4-.1-.6-.1-1 .4-1.8 1.1-2.5 1.7-.2.2-.4.4-.6.5.1-.9.6-1.8 1.2-2.6.3-.3.6-.7.9-1 0 .2-.1.4-.1.6v.1c0 .2.1.4.4.5.2.1.4.1.6 0 1.3-.9 3.1-2.5 5-3.9 1.4-1.1 2.9-2 4.1-2.4-.9 1.6-3.1 3.1-5.4 4.5zm4.8-7.7c.3 0 .2 0 .2.2v.2c0 .4-.4 1-1.3 1.7-1.1.8-2.6 1.6-4.1 2.5.5-.6.9-1.3 1.2-2.1.3-.2.6-.5.9-.7.4-.3.8-.6 1.2-1 .8-.6 1.5-.8 1.9-.8zm-.9-2.6c-.2.7-.8 1.5-1.6 2.3-.7.4-1.5 1-2.2 1.5-1.3.6-2.4 1.6-3.5 2.4-.4.3-.8.6-1.1.9-.5.3-1 .6-1.5.8 0-.7.3-1.3.8-1.9.2-.3.5-.5.8-.8.7-.6 1.5-1.2 2.3-1.9l2.4-1.5c1.1-.9 2.3-1.6 3.6-1.8zm-1.5-5.5c.6-.3 1.1-.7 1.6-.9-.7.4-1.4.8-2.2 1.2.3-.1.4-.2.6-.3zm1.3 1.9c-.2.4-.6.8-1.1 1.2-.7.6-1.7 1-2.7 1.5 0-.1-.1-.1-.1-.2-.1-.1-.3-.2-.5-.1-.3 0-.6.1-.9.2 1.3-1.1 3.6-2.4 5.3-2.6zm-4-.4v-.1c.2-.1.3-.1.5-.2-.2.1-.4.2-.5.3zm5.9-6.8c.3 0 .4 0 .5.1v.2l-.1.1c-.3.2-1.1.6-2 .8-.9.2-1.7.4-2.2.6-.9.4-2 .9-2.9 1.6-.7.5-1.2 1.2-1.6 2-1.5.6-2.9 1.7-4.2 2.5.1-.6.5-1 1-1.5 1-1 2.7-1.8 4.1-2.6.7-.4 1.4-.9 1.9-1.5.3-.3.5-.6.7-1 .1-.1.3-.1.4-.2 1.7-.6 3.5-1.1 4.4-1.1zM44.1 35c.1-.4.4-.7.7-1.1.5-.4.9-.8 1.3-1.2.9-.7 2-1.4 3.1-2-.3.5-.6 1.2-.8 1.8-1.4.8-2.8 1.7-4.3 2.5zm7.3-11.2c.1 0 .1-.1.1-.1.7-.1 1.4-.3 2.1-.4-.7.1-1.4.3-2.2.5zm4.6-3.6c.6 0 1.3 0 1.9.1 1.6.2 3.8 1 5.8 1.9-1.7-.3-3.6-.9-5.3-1-1.3-.1-3.8-.4-6.4-.4-.9 0-1.9 0-2.8.2 2.3-.4 4.6-.8 6.8-.8zm-8.7 1.2c0-.1 0-.1 0 0 .2-.1.4-.1.7-.2-.3 0-.5.1-.7.2zm-2.6.3c.2 0 .3-.1.5-.1-.5.2-.9.4-1.4.7 0-.1 0-.3-.1-.4.4 0 .7-.1 1-.2zm71.4 3.4s.2 0 .3.2c.1.1.3.2.4.4-.2-.2-.5-.4-.7-.6-.1 0-.1 0 0 0zm-7.5 8c0-.2-.1-.4-.3-.5-1.2-.8-2.6-1.4-3.9-1.9-.2-.2-.4-.3-.7-.5 1.8.9 3.6 1.6 5.3 2.1l.4.4v.5c-.2-.1-.5-.1-.8-.1zm1.6-9.5l-.3-.3c.1.1.3.1.4.2 0 0-.1 0-.1.1zm0 5.6h.1c.5.2.9.4 1.3.6.1.1.2.1.3.2-.2.1-.2.3-.2.5.1.8.3 1.6.4 2.3-.1-.1-.3-.2-.4-.3-.2-.4-.6-.9-1-1.2-.4-.6-.9-1.3-1.3-1.9-.1-.2-.3-.5-.4-.7.4.2.8.3 1.2.5zm-.1-3.7c.2.1.5.3.7.4.1.2.3.5.4.7-.3-.4-.7-.8-1.1-1.1zm4.4 1c-1.1-.8-2.1-1.6-3-2.5.9.5 1.9 1 2.8 1.6.1.3.1.5.2.9zm-5.8.1c-.1 0-.2-.1-.3-.1-.3-.2-.5-.4-.8-.7-.1-.2-.1-.4-.2-.5v-.1c.1.1.3.2.4.4.2.3.6.6.9 1zm-3-2.7v.1c0 .1 0 .2.1.4l-.1-.1c-.6-.5-1.3-.9-1.9-1.4.6.2 1.3.6 1.9 1zm-2.9-.1c1 1.2 2.4 2.3 3.8 3.3l.6 1.8c-.4-.2-.7-.4-1-.6-2-1.7-4.1-3.5-5.3-5.4.6.2 1.2.5 1.9.9zm-1.5 3.3l.9.6.9.6-1.8-1.2zm1.9 4.4c.2.1.4.2.6.2.9.6 1.7 1.2 2.6 1.5-.3.1-.5.4-.4.7v.1c-1-.7-1.9-1.6-2.8-2.5zm4.9 6.9c-.3-.5-.7-1-1.1-1.5-.3-.4-.7-.8-1-1.2l.1.1c.6.4 1.3.8 2 1.2.2.1.3.1.5 0 .4 1 .9 1.8 1.5 2.6-.7-.3-1.3-.8-2-1.2zm1.9-2.2c-.3-.3-.5-.6-.6-.9-.2-.3-.5-.4-.8-.3-.2.1-.4.3-.4.5-.5-.3-1-.6-1.4-.8-.1-.1-.2-.1-.3-.2h.2c.5-.1 1-.2 1.5-.2.4 0 .9 0 1.3.1.1.7.3 1.2.5 1.8zm7.5-7.7c-.3-.2-.6-.4-1-.6-.3-.5-.6-1-.7-1.4.3.2.7.4 1 .6 0 .1-.1.1-.1.2 0 .3.2.7.5.7h1.4l.6.9c.4.6.7 1.2 1.1 1.7-.8-.7-1.8-1.4-2.8-2.1z"/><path fill="#412C28" d="M104.4 45.7c-.2.1-.3.3-.3.5v.4c0 1.4.4 2.8.9 4.2.3.6.5 1.2.8 1.8l-.4-.4c-.2-.3-.5-.6-.7-.9-.4-.6-.6-1.1-.7-1.6-.1-.3-.4-.5-.7-.5-.3 0-.6.3-.6.6v.1c0 2 .9 3.7 1.6 5.4.2.4.3.8.5 1.1-.2-.1-.3-.3-.4-.4-.2-.2-.4-.5-.6-.8-.6-.9-1-2.1-1.3-3-.1-.3-.4-.5-.7-.5-.3.1-.5.4-.5.7.2 1.5.8 3.1 1.7 4.7-.7-.6-1.5-1.1-2.1-1.7l-.6-.6c-.2-.2-.6-.2-.9 0-.2.2-.2.5-.1.7-.5-.4-1-.9-1.6-1.3-.5-.3-1.3-.7-2.2-1.2-.4-.2-.8-.4-1-.6-.1-.1-.2-.2-.3-.2-.1-.2-.4-.4-.7-.3-.3.1-.5.4-.5.7.1.3.2.4.4.5.4.4 1.1.7 1.9 1.1.7.4 1.5.8 1.7.9.1 0 .1.1.2.2h-.1c-.3 0-.6.2-.7.6v.1c0 .3.2.6.6.6.3 0 .7.2 1.1.4.1.1.3.2.5.3.6.4 1.2.9 1.8 1.5 1.2 1.2 2.3 2.6 3.1 3.4.9.9 1.1 1.7 1.4 2.6.2.7.3 1.4.7 2.3 0 .1.1.2.1.3.1.2.2.3.3.5.1.2.3.3.5.3.1 0 .2 0 .3-.1.3-.2.4-.5.2-.8-.1-.3-.3-.5-.4-.8-.3-.8-.4-1.8-.6-2.9-.1-.5-.3-1-.5-1.5s-.5-1-.8-1.5c-.2-.3-.4-.7-.6-1 .2.2.4.4.6.5l.5.5c.4.5.7.9 1.1 1.4.1.2.3.3.4.5.2.2.6.3.8.1.3-.2.3-.6.2-.8-.3-.5-.7-1-1.2-1.5-.1-.1-.2-.3-.4-.4l-1.2-1.8c.2.1.5.2.8.3.2 0 .4 0 .6-.2.2-.1.2-.4.2-.6-.3-1.4-.9-2.7-1.5-3.9.6.6 1.3 1 2.1 1.3.1 0 .2.1.3.1.2.1.5 0 .7-.3.1-.2.1-.5 0-.7-.6-.9-1.2-2-1.7-3.1-.2-.5-.4-1.1-.6-1.6-.2-.7-.4-1.4-.4-2 .4.2.9.4 1.3.6 1.5.7 2.9 1.5 4.3 2.2-.2.2-.3.5-.2.7.1.3.5.4.8.3.3-.2.6-.4.9-.5.2-.1.3-.3.3-.5s-.1-.4-.3-.5c-1.6-.9-3.4-1.9-5.1-2.7l-2.4-1.2c-.2-.2-.4-.2-.6-.1zM65.1 98.6c-.3.1-.5.5-.4.8.3.7.4 1.5.4 2.4 0 2.3-.9 4.8-2.2 6.4-.8 1.1-2.2 1.7-3.6 2.5-1.4.7-2.9 1.5-3.9 3.1-.5.9-.8 1.8-.8 2.6 0 2.8 2.5 5 4.5 6.5 1 .7 2.4 1.4 3.6 2.2 1.2.8 2.1 1.6 2.4 2.7v.3c0 .8-1.1 2.4-2.4 3.7-.6.7-1.3 1.3-1.8 1.8-.3.3-.5.5-.6.8-.2.3-.3.5-.3.9 0 .2.1.5.3.7.1.1.3.2.4.2.2 0 .3-.1.5-.2.2-.2.2-.4.1-.7.1-.2.4-.5.7-.9.7-.8 1.8-1.7 2.7-2.8.9-1.1 1.7-2.2 1.7-3.4 0-.2 0-.4-.1-.6-.4-1.5-1.6-2.6-2.9-3.4-1.3-.8-2.7-1.5-3.6-2.1-2-1.4-4.1-3.5-4-5.5 0-.6.2-1.3.6-1.9.7-1.2 2-1.9 3.4-2.6 1.4-.7 2.9-1.5 4-2.8 1.5-1.8 2.5-4.6 2.5-7.2 0-1-.1-1.9-.5-2.8-.1-.7-.4-.8-.7-.7z"/><path fill="#412C28" d="M64.5 116.9c-.1.3.1.7.4.8.9.2 1.6 1.2 2.2 2.4.6 1.3.9 2.7 1 3.7.1.6.1 1.1.1 1.6 0 2.1-.7 3.4-1.7 4.8-.8 1-1.7 2-2.8 3.1-.7.3-1.2.9-1.4 1.7-.1.3.1.6.3.7.1 0 .2.1.3.1.2 0 .4-.1.5-.2.3-.4.7-.8 1-1.1h.1c.3-.1.5-.3.5-.6.9-.9 1.7-1.8 2.4-2.7 1-1.3 1.7-2.7 1.9-4.5-.1 1.4-.3 2.9-.7 4.3-.5 1.6-1.4 2.9-2.4 3.3-.1 0-.2.1-.3.2 0 .1-.1.1-.1.2s-.1.1-.1.3c0 .1 0 .3.2.5s.3.2.4.2c.3 0 .3-.1.4-.1.1-.1.2-.1.2-.2l.1-.1c1.4-.7 2.2-2.2 2.7-3.9.6-1.8.8-3.8.8-5.4 0-.5 0-.9-.1-1.3-.1-1-.1-2.5-.7-3.6-.1-.2-.2-.4-.4-.5-.1-.1-.2-.3-.6-.3-.2 0-.4.1-.5.2-.1-.2-.2-.4-.2-.6-.6-1.4-1.5-2.7-3-3.1-.1-.4-.4-.2-.5.1zm4.8 6.3l-.3-1.5c.1.4.2.9.3 1.5zm2.7 10.2c0-.1 0-.1 0 0-.2-.2-.3-.2-.5-.2.5-.6 1.2-1.2 1.9-1.8 1.3-1.1 2.8-2.4 3.3-4.4.1-.6.2-1.3.2-1.9 0-1.9-.6-4-2.1-5.3-.3-.2-.7-.2-.9.1-.2.3-.2.7.1.9 1.1.9 1.6 2.7 1.6 4.3 0 .6-.1 1.2-.2 1.7-.4 1.5-1.5 2.6-2.9 3.7-1.3 1.1-2.8 2.3-3.3 4.2-.1.3 0 .5.3.7.1.1.2.1.3.1.1 0 .3 0 .4-.1.4-.3 1-.5 1.6-1 .4-.4.4-.8.2-1zm7.2-2.5c-.2 0-.3.1-.5.3-.1.1-.2.2-.4.3-.2.2-.4.6-.4 1v.1c0 .3.2.5.4.6h.2c.2 0 .4-.1.5-.2 1.3-1.7 3.5-3.1 4.8-5.3l.1.1c.4.3.7.3 1.1.3.3 0 .7-.1 1-.1.3-.1.5-.3.5-.6.1-2.2.1-4.3.2-6.4l.3-3.3c.2.5.5 1 .7 1.5.5 1.3.9 2.6.9 3.7s-.3 1.6-1.3 2c-.3.1-.5.5-.4.8.1.3.3.4.6.4h.2c1.5-.5 2.2-1.8 2.1-3.2 0-1.6-.7-3.5-1.4-5.1L87 115c-.2-.3-.5-.4-.8-.3-.3.2-.4.5-.3.8.1.2.2.5.4.8-.2.1-.4.3-.5.5-.4 2.2-.5 4.4-.5 6.6 0 1.1-.1 2.2-.1 3.3H85c-.2 0-.3 0-.3-.1l-.1-.2c0-.2-.1-.3-.2-.4 0-.1.1-.2.1-.3.1-.4.1-.8.1-1.1v-.3c0-1.4-.5-2.4-1-3.3-.5-.9-1.1-1.8-1.4-2.8-.1-.3-.5-.5-.8-.4-.3.1-.5.5-.4.8.4 1.2 1 2.2 1.5 3 .5.9.8 1.7.8 2.7 0 .4 0 .7-.1 1.2 0 .1-.1.3-.1.4-.4 2-2.3 3.3-3.9 5zm-28.1-10.2c-.3-.1-.7.1-.8.4-.1.3.1.7.4.8 1.8.6 3.1 2.3 3.9 4.3.8 2 1.1 4.3 1.1 6 0 .3.3.6.6.6s.6-.3.6-.6c0-1.8-.3-4.2-1.2-6.4-.8-2.3-2.3-4.3-4.6-5.1zm-7.9 11c-.1.3 0 .7.3.8l.1.1c.1.1.3.2.5.2.1 0 .3 0 .4-.1.2-.1.3-.2.4-.4 0-.2 0-.4-.1-.6-1.2-1.4-1.6-2.9-1.6-4.5 0-2.5 1.1-5.1 2.6-7.3.2-.3.1-.7-.2-.9-.3-.2-.7-.1-.9.2-1.5 2.3-2.8 5.1-2.8 7.9.1 1.6.5 3.1 1.3 4.6 0-.1 0-.1 0 0zm-4.6 5.4c.1 0 .2 0 .3-.1.3-.2.4-.6.2-.9-1.2-2-1.7-3.9-1.7-5.9 0-2.2.6-4.5 1.3-7 .1-.3-.1-.7-.4-.8-.3-.1-.7.1-.8.4-.7 2.5-1.4 4.9-1.4 7.3 0 2.1.5 4.3 1.8 6.5.3.4.5.5.7.5zm4.6 5.1V140c0-.3-.3-.6-.6-.6s-.6.3-.6.6v2.3c0 1.8-.2 3.1-1.5 4.5-1.9 1.9-4.7 3.1-7.2 4.7-.3.2-.4.5-.2.8.1.2.3.3.5.3.1 0 .2 0 .3-.1.9-.4 1.7-.8 2.5-1.3l.3-.3c1.6-.9 3.3-1.9 4.7-3.3 1.6-1.6 1.8-3.5 1.8-5.4z"/><path fill="#412C28" d="M46.9 137.7c-.3 0-.6.3-.6.6v.2c0 3.8-2.3 7.1-5.4 9.6-.1.1-.2.3-.2.5s.1.4.2.5c.2.2.5.3.8.3.6 0 .9-.3 1.2-.4.3-.1.4-.5.3-.8 0-.1-.1-.1-.1-.2 2.6-2.5 4.5-5.7 4.6-9.4v-.2c-.1-.4-.4-.7-.8-.7zm42.8 1.3c0-.2-.1-.5-.3-.6-.3-.9-.7-1.9-1.2-2.9-.7-1.4-1.5-2.7-2.6-3.3-.3-.2-.7-.1-.9.2-.2.3-.1.7.2.9.7.4 1.5 1.5 2.1 2.8.6 1.3 1.1 2.7 1.4 3.7.1.3.3.4.6.4h.1c.3-.1.5-.3.5-.6v-.3c.1-.2.1-.2.1-.3zm-.7-9.6c-.2.2-.2.6 0 .9 1.4 1.3 2.1 3.5 2.8 5.5.1.3.3.4.6.4h.1c.3-.1.5-.3.5-.6v-.8c0-.3-.2-.5-.4-.6-.6-1.7-1.3-3.5-2.7-4.9-.2-.2-.6-.2-.9.1zm4.2-1.9c.1.5.5 1.7 1 2.8.3.6.6 1.1.9 1.6.4.4.9.8 1.5.8.5 0 .9-.2 1.3-.6.2-.2.3-.6 0-.9-.2-.2-.6-.3-.9 0-.2.2-.4.2-.4.2-.1 0-.3-.1-.6-.4-.8-.9-1.5-3.2-1.7-4-.1-.3-.5-.5-.8-.4-.2.2-.4.6-.3.9zM75.5 52c.3 0 .6-.4.5-.7 0-.3-.4-.6-.7-.5-2.1.3-3.5 1.6-4.5 3.2-.7 1.1-1.2 2.2-1.6 3.3-.2.6-.4 1.1-.6 1.6-.5 1.5-.7 2.8-.7 4 0 1.7.4 3.3 1.1 5.1.1.3.3.4.6.4h.2c.3-.1.5-.5.4-.8-.7-1.8-1-3.2-1-4.7 0-1.1.2-2.2.7-3.6.3-1 .7-2.1 1.2-3.2.2-.5.5-1 .8-1.5.9-1.3 2-2.4 3.6-2.6zM54 92.7c0-.3-.2-.5-.4-.6-.2-.1-.5 0-.7.1-.7.7-1.4 1.5-2 2.2v-.7c0-.3 0-.6-.1-.9.1-.2.2-.3.3-.5.2-.3.1-.6-.2-.8-.3-.2-.6-.1-.8.1-.6.8-1.2 1.5-1.9 2.2.4-.7.8-1.4 1-2.3.1-.2 0-.5-.2-.6s-.5-.2-.7-.1c-.7.4-1.4.8-2.2 1.3.5-.7 1-1.4 1.4-2.1.2-.3 0-.7-.3-.8-.3-.2-.7 0-.8.3-.1.1-.1.3-.2.4 0 .1-.1.1-.2 0-.3-.1-.6.1-.7.3-.9 1.6-2.6 2.9-4.4 4.2-1.8 1.3-3.6 2.6-4.5 4.7-.1.2 0 .5.1.7.2.2.4.2.7.1.7-.3 1.5-.8 2.4-1.3-.1.3-.3.6-.4.9-.1.3 0 .6.2.7.2.2.6.1.8-.1 1.1-1 2.7-2.5 3.9-4.1.4-.5.7-1 1-1.5.7-.5 1.5-1.1 2.2-1.5-.8 1.3-2 2.4-3.3 3.5-1.8 1.6-3.8 3.2-4.6 5.6-.1.3 0 .6.2.7.2.2.6.1.8-.1 1-.9 2.1-1.8 3.1-2.8-.9 1.2-1.6 2.5-1.9 3.9 0 .1 0 .2-.1.3-.1.3.1.6.5.7.3.1.6-.1.8-.4l.3-.9c.6-1.4 1.5-2.8 2.5-4.2.3-.3.5-.6.8-1 1.1-1.3 2.2-2.5 3.2-3.8-.3 1.1-.9 2.3-1.7 3.5-1 1.5-2.3 3-3 4.4-.1.3-.1.6.2.8.3.2.6.1.8-.1 2.4-2.8 4.3-6.1 6.6-8.8-.5 1.6-1.5 3.1-2.7 4.6-1.1 1.3-2.3 2.7-3.3 4.1-.5.7-.9 1.5-1.2 2.3-.1.3 0 .7.4.8h.2c.3 0 .5-.2.6-.4.4-1 1-2 1.7-3 .8-1 1.7-2 2.5-3.1 1.7-1.7 3.3-4 3.3-6.9zm-12.4 2.7s.1 0 0 0c-.8.7-1.7 1.4-2.6 2 .8-.7 1.7-1.3 2.6-2z"/></svg>