<svg version="1.2" baseProfile="tiny" xmlns="http://www.w3.org/2000/svg" viewBox="0 0 146.7 223.3"><path fill="#E49A1E" d="M73.4 51.3c0 .1-.1.4-.1.7.3-.2.7-.3 1.1-.3h.1c-.3-.3-.7-.6-1-.8 0 .1 0 .3-.1.4zm-45.2-6.7c-.1-.3.1-.6.4-.7.2-.1.4-.2.7-.3 0-.6-.1-1.3-.1-2 0-.5 0-1 .1-1.5.2-.8.6-1.3.9-1.7.4-.4.7-.8.7-1.1v-.1c0-.3-.2-.8-.2-1.4 0-.2 0-.4.1-.6.6-1.8 2.2-3.2 2.6-4.5 0-.1.1-.3.1-.6s0-.7.2-1.1c.1-.3.3-.5.4-.7.1-.2.5-.4.7-.4.4 0 .5.1.7.2.1 0 .1 0 .2.1 0-.6-.3-1.1-.7-1.6-.4-.5-.8-1.1-1-1.9-1.1 1.9-2.3 3.6-3.4 5.4-1.9 3.4-1.8 7.6-2.2 11.3-.2 1.4-.4 2.9-.8 4.4.1-.4.3-.7.6-1.1.1 0 0-.1 0-.1zm26.1 2.7zm-.8-.1h-.3c0 .2-.1.3-.1.5.1-.1.1-.2.2-.4.1 0 .1 0 .2-.1zm-17-24.6c.1.1.1.2.2.2l.1.1c-.1-.2-.1-.3-.2-.5 0 .2 0 .2-.1.2zm-.7 1.1c-.2-.3-.5-.6-.7-1-.2.3-.3.7-.5 1h.4c.3-.1.6 0 .8 0zM30.1 45c-1 .4-1.3 1.1-1.3 2.1 0 .2 0 .5.1.7.1.6.2 1.3.2 1.9 1.6-1.8 4.2-3 6-4 .6-.3 1.4-.6 2.3-.9.7-.2 1.4-.5 1.9-.8-3.1.1-6 .6-9.2 1 .1-.1 0 0 0 0zM75 53.7s0 .1 0 0c-.1.2-.2.3-.3.4l-.1.1c.6.3 1.3.5 1.6.5h.2c0-.2-.1-.7-.6-1.4-.1-.2-.2-.3-.4-.6 0 .4-.1.7-.4 1zm25.4-13.5c.1.1.1.2.1.3.1 1 .2 2.1.3 3v.8c0 .4 0 .6.1.7l.2.1c.1.1.4.1.7.4.2.2.3.5.3.8 0 .3-.1.6-.3 1-.2.6-.7.9-1 1.1 0 0-.1 0-.1.1 0 0 .1 0 .1.1.4.2.8.5 1 1.1.1.2 0 .4-.1.6-.1.2-.3.3-.5.3h-.2c-.3 0-.6 0-.9.1.2 0 .4.1.6.2.2.1.5.3.6.6.1.2.1.3 0 .5 1.2.5 2.3 1.2 3 1.6.2.2.4.5.3.7-.1.2-.2.3-.4.4.3.2.6.4.9.8.1.2.1.4.1.5-.1.2-.2.3-.4.4-.2.1-.4.1-.6.2.7.1 1.4.3 2.1.7.5.3 1 .8 1.2 1.5.1.3 0 .6-.3.7-.5.3-1 .6-1.5 1 .1.1.2.1.4.2.4.2.9.5 1.3 1.2.1.1.1.2.1.4 1.1-3.3 1.8-6.5-.3-9.2-1.8-2.2-4.2-4-4.8-6.9-.5-2.3-.3-5.4-.3-7.7 0-.7.1-1.3.1-1.9-.1.8-.6 1.4-1 2-.2.5-.6 1.1-.8 1.6zm3.5 26.8v.2c.1 0 .2.1.3.2.3.2.7.3 1 .7.2.3.3.6.3.9 0-.2 0-.4.1-.5.1-.9.4-1.9.7-2.8-.8.1-1.9.5-2.3.9 0 .1-.1.2-.1.4zM51.3 49.2c.2.1.4.2.6.2.2 0 .4 0 .6-.1l-.2-.2c-.3-.4-.4-.8-.4-1.2 0-.4.1-.8.2-1.2-.2 0-.3.1-.3.1-.5.2-.8.9-.8 1.5-.1.4.1.7.3.9zM99 24.9v.3c0 .7.4 1.4 1 2.1.3.3.6.6.8.9.1.1.2.2.3.4.5.7.8 1.4.9 2.6v.6c0 .9-.1 1.7-.2 2.4v.9s.1.1.1.2c.1.2.3.3.4.7v.4c.5-3.8 1.9-7.3-1.6-10.4-.6-.5-1.2-.9-1.8-1.3.1 0 .1.1.1.2zm-60.7-6.5c.1-.7.6-1.6 1.6-1.9.3-.1.6.1.7.3.2.4.5.9.9 1.2.4.4.7.6 1 .6h.2c.3-.1.4-.2.5-.3.1-.1.1-.4.2-.7.1-.6-.1-1.4.2-2.2-1.8.2-3.5.6-4.9 1.5l-.8 1.4c-.1 0-.1.1-.2.2l.7.7c-.2-.2-.1-.5-.1-.8zm-2.4 2.5c-.1.1-.1.3-.2.4.1 0 .3 0 .4.1 0-.2-.1-.4-.2-.5zm9.5-5c.3.3.5.7.7.8.1.1.2.1.2.1h.1c.1 0 .2-.1.3-.2.3-.2.6-.6.9-.9 0-.1.1-.1.1-.2-1-.1-1.9-.1-2.8-.1.2.2.4.3.5.5zm16.7 1.6c3.1.7 5.5 1.9 8.3 1.9h1.7c1.8 0 3.3.6 4.9.8.7.1 1.2.5 1.6.7.4.3.7.5 1.1.6h.4c.5 0 1.3-.3 2.2-.3.3 0 .5 0 .8.1.4.1.7.2.9.5.2.2.4.5.4.8v.4l.3.3v.1c.9-.4 1.8-1 2.9-1.2.4-.1.7-.1 1.1-.1.7 0 1.2.2 1.8.5.8.3 1.3.5 1.8.5.4 0 .8-.1 1.3-.3-3.4-.7-6.9-.9-9.9-1.8-7.8-2.4-16.1-3.6-24.4-4.1.3.2.5.4.8.5.3 0 1.2-.1 2 .1zM96.3 24c.5.2 1.2.2 1.9.2-.9-.4-1.8-.8-2.7-1 .2.5.4.6.8.8z"/><path fill="#E49A1E" d="M31.2 40.9c-.3 0-.6-.2-.6-.5v-.1.1c-.1.4-.1.8-.1 1.3s0 1 .1 1.5c1.8-.8 3.6-1.6 5.5-2.2-1.7-.1-3.3-.1-4.9-.1zm-5.3 117.4c-.1-.4-.1-.8-.1-1.2v-1c0-.6-.1-1.1-.2-1.1h-.1c-.1 0-.2 0-.4-.1-.3 0-.9-.1-1.3-.7-.2-.3-.3-.7-.3-1.1 0-1 .5-1.8 1-2.7.5-.8.9-1.6 1-1.9.2-1.1.8-3 .8-4v-.4c-.1-.4-.2-.5-.2-.5h-.7c-.2 1.4-.6 2.7-1.1 4.1-.8 2.1-1.4 5-1.2 7.2.4 3.4 2.8 5.6 4.1 8.6-.1-.3-.1-.6-.1-.9-.1-1.6-.6-2.7-1.2-4.3zm2.7 13.1c0 .3 0 .7-.1 1 0 .2 0 .4-.1.6.1-.4.2-.9.2-1.5v-.1zm-2.8-32.8v.7c.4-.3.7-.6 1-.8-.3 0-.6.1-1 .1zm34.1 61.3c-.3-.2-.7-.3-1.1-.5v.5c0 .4.1.8.2 1.1.1-.2.3-.3.4-.5.2-.2.4-.4.5-.6zm-42-10v-.7c0-2 1-3.9 2-5.4.6-.8 1.6-1.7 2.7-2.3.9-.5 1.9-1 2.9-1.1.1-.9.3-1.9.7-2.7 0-.1.1-.1.1-.2-3.2 3.7-8.6 5.8-9.4 10.3-.2 1-.2 2 .1 2.8.2-.4.5-.6.9-.7zm37.7-3.8c-1.9-.9-4.7-1.1-7.4-1.5-2.7-.4-5.5-1.1-7.3-3.3-.8 1.9-1.4 3.9-2.2 5.9.4-.5 1-1 1.6-1.3 2.9-1.3 8.7-.2 11.7.8 1.6.6 2.3 1.3 2.7 2.3.5-.9 1-1.8 1.3-2.8-.2-.1-.3-.1-.4-.1zm2.9-124.8s0-.1 0 0h-.1c0-.1.1 0 .1 0zM29.1 194.6c-.1.2-.3.4-.6.4s-.6-.3-.6-.6v-.1c-.1.1-.3.2-.4.3-.4.3-.7.6-1.2.8-.1 0-.2.1-.3.1-.1 0-.2 0-.3-.1-.2-.1-.3-.3-.3-.5v-1c-1.6-.6-3.6-1-5.3-1.4-.7.1-1.4.2-2 .4 1.9 2.2 5.3 3.1 8.2 3.1 1.5 0 3.1-.4 4.6-1h-.5c-.5-.2-.9-.3-1.3-.4zM55.7 62.5l-.1-.1c0 .1-.1.2-.1.4 0-.2.1-.2.2-.3zm1.1-.5c-.1.1-.2.2-.2.3h.1c0-.1 0-.1.1-.3zm2.5 5.5s-.1 0-.1.1c0-.1.1-.1.1-.1zm-8.4 96.2v.2h.1s-.1-.1-.1-.2zm-2.2-93.3c0-.1.1-.1.1-.2l-.1-.1v.3zm15.1-10c.1 0 .2.1.2.1h.1c-.1 0-.2 0-.3-.1z"/><path fill="#E49A1E" d="M26.8 132.7v-.4c-.4-.7-.5-1.6-.5-2.5 0-.6 0-1.2.1-1.9-.1.1-.2.1-.3.1-.3 0-.5-.2-.6-.4-.3-.9-.4-1.8-.4-2.7v-2.6c-.2.1-.4.1-.6.1-.6 0-1-.3-1.2-.7-.3-.4-.4-.9-.5-1.4-.1-.4-.1-.8-.1-1.2 0-2 .7-3.9.9-5.6-.3.3-.6.6-1 .9-.2.1-.4.1-.6.1-.2-.1-.3-.3-.4-.5-.1-1.1 0-2.7-.1-4.2 0-1-.2-2-.5-2.6-.2.3-.4.7-.7 1-.2.2-.4.3-.7.2-.2-.1-.4-.3-.4-.5 0-.5-.1-1-.1-1.6 0-2.6.4-5 .9-7.5.1-.3.4-.6.7-.5.3.1.6.4.5.7-.4 2.3-.8 4.4-.8 6.7.1-.2.3-.3.4-.3.2 0 .4 0 .5.2 1 1 1.2 2.6 1.3 4.2.1 1 .1 2.1.1 2.9.3-.3.7-.7 1.1-1 .2-.1.4-.1.6 0 .2.1.3.3.3.5v.6c0 2.3-.9 4.5-.9 6.5 0 .3 0 .6.1 1s.2.7.3.9c.1.2.2.2.2.2s.3 0 .6-.4c.2-.2.4-.3.6-.2.2.1.4.2.5.5.2.7.2 1.4.2 2.1v1.8c.1-.2.3-.4.4-.6.2-.2.4-.3.7-.2.2.1.4.3.4.6v.4c0 1.3-.4 3.3-.4 4.9 0 1 .2 1.8.5 2 .2.2.3.2.3.2l.2-.1c.1-.1.3-.3.4-.5.3-.4.7-1 1.3-1.3.3-.1.6 0 .8.3 1.4 2.5 1.8 5.2 3.4 7.1.5.6.8.7.8.7s.3-.1.6-.5.7-.9 1.3-1.5c.2-.2.4-.2.7-.1.2.1.4.3.4.5.1 1.2 0 2.7.3 4 .2 1.3.7 2.4 1.6 2.9.2.1.3.1.4.1.2 0 .5-.2.9-.8.3-.5.7-1.3 1-1.9.1-.2.4-.4.7-.3.3 0 .5.3.5.5.2 1.5.5 3.3 1.2 4.8.6 1.3 1.3 2.3 2.6 2.7.5-1 1-2.1 1.3-3 .1-.3.3-.5.6-.4.3 0 .5.2.6.5.2.8.2 2.2.3 3.8.1 1.5.4 3.1.9 4 .2.4.4.6.6.7.3-1.4 1.1-2.6 1.8-3.6.2-.2.4-.3.7-.2.3.1.4.3.4.6 0 1-.2 2.8-.2 4.6 0 1.1.1 2.2.3 3 .2.5.4.9.6 1.1.5-1.2.7-2.8 1.5-4.2.1-.2.4-.4.7-.3.3.1.5.3.5.6v.2c0 1-.3 3.1-.3 4.7 0 .5 0 .9.1 1.3 0 .2.1.4.2.5.1-.1.2-.2.3-.4.2-.4.5-.9.7-1.5.5-1.2.8-2.5.9-3 .1-.3.4-.5.7-.5.3 0 .6.3.6.6v.1c0 1.5-.3 2.9-.5 4.2.4-.5.8-.9 1.2-1.4.3-.4.9-1.1 1.4-1.9.5-.8.9-1.7.9-2.1v-.3c-.1 0-.4-.1-.7-.3-.2-.2-.3-.4-.4-.7 0-.2-.1-.4-.1-.5 0-.8.5-1.4 1-1.8.4-.3.8-.5 1.2-.7v-.5c-.5.2-1 .6-1.7.7-.2 0-.4 0-.5-.1-.1-.1-.2-.3-.3-.4v-.7c0-.8.1-1.8.7-2.5-.2-.1-.3-.3-.4-.5v-.3c0-.9.3-2.7.6-4.5.4-1.8.9-3.5 1.4-4.4.2-.2.4-.5.9-.6.3 0 .6.3.6.6s-.2.5-.5.6v.1c-.1.1-.2.4-.3.7-.3.6-.5 1.6-.7 2.5-.5 1.9-.8 4.2-.8 5v.2h.1c.3 0 .6.3.6.6v.6h-.4l-.1.1c-.1.1-.1.2-.2.4-.1.3-.1.7-.2 1.1.4-.2.9-.5 1.5-.7.3-.1.6.1.7.3.2.5.3 1.1.3 1.6v.5c0 .3-.2.5-.5.6-.4.1-.9.3-1.2.6-.4.3-.6.6-.6.9v.2c0 .1 0 .1.1.1h.1c.1 0 .8.2 1 .8.1.2.1.5.1.7 0 .9-.5 1.9-1.1 2.8-.6.9-1.2 1.7-1.5 2.1-.6.6-1.1 1.3-1.6 1.9-.1.4-.2.6-.3.8-.1.2-.3.4-.5.4-.1.1-.2.3-.3.4-.9 1.7-1.1 2.4-1.1 4.4 0 1.5-.2 2.9-.2 4.3 0 .4 0 .8.1 1.1.1 1 .6 2.3.7 3.5v.4c0 .8-.3 1.4-.6 1.8-.4.4-.8.7-1.1 1.2-.7.8-.5 1.7-.6 3.1-.1 1.7-.9 3.3-1.5 4.5 1.4-.5 3.1-.7 4.7-.7 1.3 0 2.5.1 3.6.4 2.3.7 5.2 1.8 7.2 3 .4.3.8.6 1.1 1-.3-1.4-.3-2.7-.6-3.9-.1-.3.1-.6.4-.8.3-.1.6 0 .8.3.1.1.1.2.2.3.5-1.3.7-2.9.7-4.4 0-1.1-.1-2.2-.2-3.1v-.4c0-.1.2-.4.5-.4.4-1 .7-2.1.7-3-.1-.4-.2-.7-.2-1.1v-.2c0-.3.3-.5.6-.6.3 0 .6.1.7.4.1.4.2.8.2 1.1.1.1.1.2.2.3.4-1 .6-2.2.6-3.3 0-.5 0-1-.1-1.5-.1-.6-.5-1.2-.5-2.1v-.4c0-.2.2-.4.3-.5.1 0 .2-.1.3-.1.1-.5.2-1.1.2-1.7v-.9c0-.3.2-.5.5-.6.2 0 .4 0 .5.1 0-.1-.1-.2-.1-.2-.1-.2-.1-.5.1-.7.2-.2.4-.2.7-.2 1.2.5 2.1 1.8 2.8 2.5.4.2.7.4 1 .5.1 0 .1.1.2.1-.6-.9-1.1-1.9-1.5-2.9-.3-.5-.5-1-.6-1.5-.1-.3.1-.6.4-.7.3-.1.6.1.8.4.2.4.3.8.5 1.2.3.5.7 1 1.2 1.5.9.9 1.9 1.7 2.6 2.3.9.8 2.2 1.9 3.3 2.2-.2-.8-.8-1.8-1.5-2.7-.9-1.2-2-2.3-2.6-3.2-1.2-1.7-2.6-3.6-3.3-5.7-.1-.3 0-.6.3-.7.3-.1.6-.1.8.2 1.2 1.6 2.9 3.3 4.3 4.9.8.9 1.7 2 2.7 2.6-.1-.6-.5-1.3-1-2-.6-.9-1.4-1.8-1.9-2.7-.8-1.6-1.5-3.3-1.5-5.2v-.5c0-.2.1-.4.3-.5.2-.1.3-.1.5-.1 1.8.5 2.8 2 3.7 3.5.6 1 1.1 1.9 1.7 2.6-.3-1.2-1-2.4-1.7-3.7-1-1.6-2-3.4-2-5.5v-.7c0-.3.3-.5.6-.6h.2c.8 0 1.4.4 2 .9.6.5 1 1.1 1.5 1.7.3.5.7.9 1 1.4-.1-.2-.2-.5-.4-.7-.5-.9-1.1-1.9-1.5-2.6-.6-1.2-1.1-2.5-1.8-3.6-.2-.3-.1-.7.2-.9.3-.2.7-.1.9.2l.9 1.5c-.3-1.3-.6-2.6-.6-3.7 0-.4 0-.8.2-1.2.1-.4.4-.7.8-.9.2-.1.5-.1.7-.1 1 0 1.6.7 2.1 1.3.5.6 1.1 1.2 1.2 1.2.3.1.6.4.5.7 0 .3-.4.6-.7.5-.5-.1-.7-.3-1-.6-.3-.3-.5-.6-.8-.9-.5-.6-1.1-1-1.3-1h-.2s-.1 0-.1.2c-.1.1-.1.4-.1.7 0 1 .3 2.4.6 3.8s.7 2.7.7 3.5v.3c.1.3.3.5.4.8.5 1 1 2.1 1 3.2v.4c0 .2-.2.4-.4.5-.2.1-.4.1-.6 0-.8-.5-1.4-1.5-2.1-2.4-.7-.9-1.3-1.9-2-2.5-.2-.2-.5-.4-.7-.5 0 1.7.9 3.2 1.9 4.8 1 1.6 2 3.4 2 5.5v.3c0 .2-.1.4-.3.5-.2.1-.4.1-.6 0-1.5-.9-2.4-2.5-3.2-3.9-.7-1.1-1.4-2.1-2.2-2.6.1 1.4.6 2.9 1.3 4.2.4.7 1.1 1.6 1.8 2.6s1.3 2.1 1.3 3.3v.5c0 .2-.1.3-.3.4-.1.1-.3.1-.5.1-1.8-.5-3.1-2.3-4.2-3.4-.1-.1-.2-.2-.2-.3 0 0 0 .1.1.1.6.8 1.7 2 2.6 3.2.9 1.3 1.8 2.6 1.8 4v.2c0 .3-.3.6-.7.6-1-.1-1.9-.5-2.7-1 .9.7 1.7 1.5 2.6 2.3.2.2.2.6.1.8-.2.2-.5.3-.8.2-.7-.4-1.4-.8-2-1.2.9.9 2.1 2 2.7 3.3.1.2.1.5-.1.7-.1.1-.3.2-.5.2h-.1c-2.1-.6-3.8-2.8-5.1-3.9-1.5-1.3-3.2-2.5-4.8-3.5-.3-.2-.6-.3-1-.5 0 .2-.1.3-.1.5 2.3 1.1 4.4 2.9 6.2 4.5.7.6 1.4 1.3 2.1 2 .3.3.6.5.9.7.2-.2.5-.2.8-.1.3.2.7.4 1 1 .1.2 0 .4-.1.6-.1.1-.3.2-.5.2h-.1c-1.1-.2-2-.9-2.8-1.6-.8-.7-1.6-1.5-2.1-2-1.8-1.5-3.6-3.2-5.6-4.2l.3.9c.1.5.1 1.1.1 1.7 0 1.6-.3 3.3-1 4.5-.1.3-.4.4-.7.3-.1 0-.3-.1-.4-.2-.2 1-.6 2-1 2.9 0 .1-.1.1-.1.2.1.8.2 1.7.2 2.6 0 1.2-.1 2.5-.4 3.6l.2.2.2.2c.2.1.5.3.8.4.6.3 1.4.5 1.8.5.2 0 .3-.1.3-.1.2-.2.4-.2.7-.1.2.1.4.3.4.5v1.4c.1 0 .1-.1.2-.1.2-.1.4-.4.7-.6.5-.4 1-1 1.9-1.1.2 0 .5.1.7.2.4.3.5.8.5 1.1 0 .4-.1.8-.1 1.1v.2s.1 0 .2-.1.3-.3.5-.4c.4-.4.7-.8 1.2-1.1.1-.1.3-.1.5-.1.5-2.1 2.3-3.8 3.8-4.8 2.2-1.4 5.5-2.4 8.7-2.4 2.6 0 5.2.7 6.9 2.6.9.9 1.3 1.8 1.3 2.6 0 1.4-1.1 2.3-1.9 3.1 0 0-.1 0-.1.1 1.6-.2 3.4-.2 4.7-.5 2.5-.6 5.1-1 7.6-1.5 2.5-1 5.1-2 7.7-2.9.3-.2.5-.3.8-.5 2-1.3 3.4-3 3.5-5.1v-.4c0-1.8-.8-3.9-1.4-5.8-1-3.2-2.1-6.3-2.7-9.7-.1-.6-.2-1.3-.2-1.9 0-4.7 2.8-8.7 2.8-12.7 0-.8-.1-1.7-.4-2.5-.6-2-2-3.4-3.7-4.2-1.7-.9-3.8-1.3-5.8-1.3h-.2v.6c0 .3-.3.6-.6.6s-.6-.3-.6-.6v-.9c-.1-.1-.1-.2-.1-.4s0-.3.2-.5v-4.8c-.1-2.2-.5-4.1-.9-6.3-.6-2.7-.5-5.4-.8-7.9-.3-2.2-.8-4.5-.8-6.8v-.8c.1-1.5.6-2.8.6-4v-.4c-.1-1.3-.7-2.4-1.1-3.9-.8-3.1-.7-6.1-1.6-9-.6-1.8-1.8-3.4-3.2-4.7-.1-.1-.2-.3-.2-.5-1-1.3-1.7-2.7-2.6-3.7 0 .1-.1.1-.2.2-.2.2-.5.3-.8.2-.3 1.5-.3 3.4-.7 5.1 0 .2-.2.3-.3.4-.2.1-.4.1-.5 0 .1 2.1 1.3 4.4 1.3 7v.8c0 .2-.2.4-.4.5-.1 0-.2.1-.3 0-.5 1.8-.5 3.9-.9 5.9 0 .2-.2.4-.4.5-.2.1-.4 0-.6-.1-.3-.3-.4-.6-.7-1-.2-.4-.5-.8-.8-1.1-.1-.1-.1-.2-.2-.2 0 .1-.1.2-.1.3-.1.4-.1.9-.1 1.5 0 1.2.1 2.4.1 2.9 0 .4.1 1.4.1 2.3 0 .6 0 1.3-.3 1.8-.2.6-.7 1.2-1.5 1.1H98c-.8-.2-1.4-.8-1.9-1.5.1.4.2.8.4 1.1.2.4.6 1 1.1 1.7.4.6.9 1.3.9 2.2 0 .2-.1.4-.3.5-.1.1-.2.1-.3.1-.1 0-.2 0-.2-.1-1-.4-1.9-1.4-2.8-2.3-.9-.9-1.9-1.6-2.4-1.5-.1 0-.2 0-.4.1-.3.1-.7 0-.8-.3-.1-.3 0-.7.3-.8.3-.1.6-.2.9-.2 1.3 0 2.3 1 3.3 1.9.1.1.2.1.2.2-.2-.3-.4-.6-.5-1-.5-1.4-.9-2.9-.9-4.3 0-.3.2-.6.5-.6.3-.1.6.1.7.4.1.4.6 1.2 1.2 1.9.5.7 1.3 1.3 1.4 1.3h.1c.2 0 .2 0 .3-.3.1-.3.2-.8.2-1.4 0-.9-.1-1.8-.1-2.3 0-.3-.1-1.6-.1-2.9 0-.6 0-1.2.2-1.8.1-.5.3-1.1 1-1.3h.3c.5 0 .8.3 1 .5.2.2.5.5.7.8 0 0 0 .1.1.1.2-1.7.4-3.5.9-5.2.1-.2.2-.3.4-.4h.1c-.1-2.1-1.3-4.4-1.3-7v-.6c0-.2.2-.4.4-.5.2-.1.4-.1.6 0h.1c.3-1.7.3-3.7.8-5.4.1-.2.2-.4.5-.4.2 0 .3-.1.5-.1-1.1-1.6-1.3-3.3-1.3-5.2v-1.6c.1-3.5 1.6-6.5 1.7-9.7V70c0-.5-.1-.8-.2-1.1l-.1-.1c-.1-.1-.2-.1-.4-.2-.3-.2-.7-.3-.9-.8-.1-.2-.2-.5-.2-.8 0-.5.2-1 .6-1.3.3-.3.7-.6 1.1-.8.7-.3 1.4-.5 2.1-.5v-.9c0-.4-.1-.8-.2-1-.1-.2-.4-.4-.8-.7-.4-.2-.9-.5-1.2-1.1-.1-.3 0-.6.2-.8.5-.4 1.1-.8 1.7-1.1-.1-.1-.2-.2-.4-.3-.3-.2-.8-.4-1.3-.5-1-.2-2.2-.3-3.2-.5-.2-.1-.4-.3-.4-.6s.1-.5.4-.6c.6-.3 1.3-.4 1.9-.6-.1 0-.2 0-.4-.1-.7-.1-1.5-.1-2.2-.7-.2-.2-.2-.4-.2-.6.1-.2.2-.4.5-.4.3-.1.7-.1 1.1-.2-.9-.5-1.9-.9-2.6-.8h-.3c-.3.1-.7-.2-.7-.5-.1-.3.2-.7.5-.7h.1c-.1-.1-.2-.2-.3-.4-.1-.1-.1-.3-.1-.5 0-.4.2-.7.4-.9.1-.1.3-.2.4-.3h-.1c-.2 0-.3-.2-.4-.3-.1-.2-.1-.4 0-.5.3-.5.7-.8 1-1.1.3-.3.5-.5.6-.7.1-.2.1-.4.2-.5-.2-.1-.7-.2-1-.8-.2-.4-.2-.9-.2-1.3v-.7c0-.8-.2-1.7-.3-2.6-.2-.1-.3-.4-.3-.6.2-1 .7-1.8 1.2-2.5s.8-1.3.8-1.8l-.1-.1c-.1-.1-.3-.3-.4-.7 0-.2-.1-.4-.1-.5v-.7c0-.8.2-1.6.2-2.3v-.5c-.1-.9-.3-1.4-.6-1.9-.6.1-1.2.5-1.8 1.2 0 0 0 .1-.1.1l-.2.2c-.1.1-.3.2-.4.2-.2 0-.3-.1-.4-.2 0 0 0-.1-.1-.1-1.3 0-2.5.2-3.7.7-1.1.5-3.8 1.7-5.1 2.8-.4.4-.6.7-.6.9 0 .3-.3.5-.6.5s-.6-.3-.6-.6c0-1.7-.5-6.2-1.8-8.2-.4-.7-.9-1-1.4-1-.3 0-.6-.3-.6-.7v-1.1h.3c.2 0 .4-.1.6-.2v-.1c-1.3-.3-1.4-.6-1.4-.9v-.4c-.1 0-.2-.1-.3-.1-.1 0-.3-.1-.4-.1-.5 0-1.3.3-2.2.3-.2 0-.5 0-.7-.1-.7-.2-1.1-.5-1.5-.8-.4-.2-.7-.4-1.2-.5-1.7-.3-3.2-.8-4.6-.8h-.6c-.4 0-.8.1-1.1.1-3.2 0-5.7-1.2-8.6-1.9-.5-.1-1.3 0-2.2-.3-.8-.3-1.2-.8-1.4-.8-.1-.1-.5-.1-.9-.1-.4-.1-.8-.1-1.3-.4-.2-.1-.3-.3-.4-.5-.6 0-1.5.1-2.3.1-.8 0-1.6-.1-2.3-.4-.4-.1-.7-.4-.9-.7-.2 0-.4 0-.6-.1l-.3.3c-.5.5-1 1.1-1.5 1.6-.3.3-.7.6-1.2.6-.9-.1-1.2-.7-1.6-1.1 0-.1-.1-.1-.1-.2v.4c0 .6 0 1.2-.4 1.8-.2.4-.7.7-1.2.9-.2 0-.3.1-.5.1-.8 0-1.4-.5-1.9-1-.3-.3-.6-.7-.8-1-.1.1-.2.4-.3.7-.1.5-.1 1.3-.1 1.8 0 .2-.1.4-.3.5-.2.1-.4.1-.6 0-.6-.4-1.2-1-1.8-1.5 0 0 0 .1-.1.1.5.7.8 1.5 1.1 2.2.5 1.2 1.2 2.3 1.8 3.7.4 1 .5 2.3.6 3.4.1.8.2 1.5.3 2.1 3.4-2.8 8-5.1 12.3-5.8-.1-.3-.2-.7-.3-1.1-.2-.9-.5-1.9-.5-2.7 0-.3 0-.6.2-.9.1-.3.6-.6 1-.6.2 0 .3 0 .5.1.3.1.5.5.4.8-.1.3-.4.5-.7.4v.2c0 .6.2 1.5.4 2.4.2.9.5 1.6.5 2.1 0 .3-.2.7-.5.7h-.1c-.2 0-.4-.1-.5-.2h-.1c-4.4.7-9.1 3.1-12.4 6.1-.1.1-.3.2-.4.2h-.1c-.2 0-.3-.1-.4-.2-.7-.9-.8-2.1-.9-3.3-.1-1.2-.2-2.3-.5-3-.2-.4-.4-.9-.6-1.3-.1.1-.3.2-.4.3H37c-.5 0-.9-.1-1.3-.1l.6.9c.4.6.9 1.4.9 2.5 0 .2 0 .4-.1.7-.1.3-.3.5-.6.5h-.1c-.4 0-.8-.1-1-.1-.1 0-.2-.1-.3-.1 0 .1-.1.2-.2.3 0 .1-.1.3-.1.6s0 .6-.1 1.1c-.7 1.6-2.2 3.1-2.6 4.4v.2c0 .3.2.8.2 1.4 0 .1 0 .3-.1.4-.2.7-.6 1.1-1 1.5-.2.2-.4.4-.5.7l.2-.2c3.6-1.2 7.5-2.3 11.4-2.3h.4c.3 0 .6.3.6.6s-.3.6-.6.6h-.3c-2.2 0-4.5.4-6.8.9 1.7 0 3.4-.1 5.1-.1.3 0 .6.2.6.6 0 .3-.2.6-.5.7-2.8.6-5.3 1.6-7.8 2.6 2.2-.3 4.4-.5 6.7-.5h1.1c.2 0 .4.1.5.3.1.2.1.4.1.5-.2.6-.6.9-1.1 1.2-.5.3-1.1.6-1.7.8-1.2.5-2.5.8-3 1.1-1.6.9-3.8 2-5.2 3.3 3.2-.7 6.4-2.9 10.1-3.3.3 0 .5.1.7.4.1.3 0 .6-.2.7-3.2 2.3-7.1 3.3-10.3 5.1v.1c0 .3-.2.6-.6.7h-.9c-.3 0-.5-.2-.5-.5-.1-.3 0-.5.3-.7.9-.6 1.9-1.1 2.9-1.6-.9.3-1.9.5-2.9.5h-.1v.2c-.6 2.6-2.5 3.7-3.2 5.6-1.2 2.9-3.2 5.9-4.5 9 .5-.5 1.2-.9 1.9-1.1.2-.1.5 0 .6.2.1.2.2.5 0 .7-1.5 2.6-2.7 5.2-3.7 7.9.6-.8 1.3-1.5 2-2.2.2-.2.5-.3.8-.1.3.1.4.4.3.7-.3 1.2-.9 2.3-1.5 3.4.2-.1.5-.1.7-.2.2 0 .5.1.6.3.2.4.3.8.3 1.2 0 .7-.2 1.2-.5 1.8l.5-.5c.2-.1.4-.2.6-.1.2.1.4.3.4.5v.4c0 1-.7 1.8-1.2 2.3.3-.1.5-.3.8-.4.3-.1.5 0 .7.2.2.2.2.5 0 .7-.9 1.4-2.2 2.5-2.8 3.6.1 0 .3.1.4.2.2.2.3.4.2.6-.2.9-.6 1.8-.7 2.7h.5c.2-.1.4-.1.6.1.2.1.3.4.2.6-.3 1.6-1.2 2.8-1.4 3.9-.2.8.1 1.8-.5 3.1-.1.2-.3.3-.6.3-.1 0-.2 0-.3-.1-.3-.2-.4-.5-.3-.8.4-.7.1-1.5.4-2.8.3-1.1.9-2.1 1.2-3H21c-.2 0-.4 0-.5-.1-.2-.1-.2-.3-.2-.5 0-.9.3-1.8.5-2.5-.2 0-.3 0-.4-.1-.2-.1-.3-.4-.2-.6.3-1.3 1-2.2 1.7-3.1-.3.1-.5.1-.9.2-.2 0-.4-.1-.5-.3-.1-.2-.1-.4-.1-.6v-.1c-.2.1-.4.1-.6 0-.2-.1-.4-.4-.3-.6.2-1.1.9-2 1.4-2.8.6-.8 1.1-1.6 1-2.1V77c-.4.2-.8.6-1.2 1.1-.5.7-.8 1.6-.9 2.4-.1.3-.4.5-.7.5-.3 0-.6-.3-.5-.7.1-1.5.6-2.8 1.2-3.9-.6.8-1.1 1.7-1.5 2.6-.1.3-.5.5-.8.3-.3-.1-.5-.5-.4-.8.6-1.9 1.2-3.7 1.9-5.5-.3-.1-.4-.3-.5-.6v-.6c0-5.4 4-10.6 5.9-15 1-2.3 2.8-3.3 3.2-5.3.1-.6.2-1.1.2-1.6 0-.6-.1-1.3-.2-2 0-.3-.1-.6-.1-.9 0-.3 0-.5.1-.8-.7 2.8-1.7 5.6-3 7.7-1.4 2.3-3.6 4.3-4.8 6.7-1 2-1.4 4.1-2.5 6.1-2.2 4-3.7 7.5-2.5 12.2.8 3.3 2.9 6 3.6 9.4 1.8 9.3-3.5 18.7-.3 27.9 2.2 6.3 6.4 12.2 7.4 18.9.1-.1.1-.2.2-.3.7-.7 1.1-1.5 1.1-2.1zm65.9 9.1c0-.3.3-.6.7-.6.8.1 1.3.5 1.7.9.4.4.7.9 1 1.3.7.8 1.4 1.5 2.3 2.2-.2-.7-.4-1.4-.5-2-.2-1.1-.3-2.1-.6-3-.2-.4-.4-.8-.5-1.2-.1-.3.1-.6.4-.7.3-.1.6 0 .8.3.2.4.3.7.5 1.1.2.4.5.8.9 1.2.1.2.3.3.4.4-.6-1.7-1-3.5-1-5.5v-.8c0-.3.3-.6.6-.6.7 0 1.3.4 1.7.9.4.5.7 1.1 1 1.7.2.4.4.9.6 1.3-.1-1.5-.5-3.4-.5-5 0-1.2.2-2.3 1.1-3 .2-.2.5-.2.8 0 .9.7 1.3 1.9 1.6 3 .3 1.1.5 2.3.9 3 0 .1.1.1.1.2-.1-2.1-1-4.3-1-6.7v-.6c0-.3.2-.5.4-.6.2-.1.5 0 .7.2.8 1 1.2 2.3 1.6 3.5.4 1.2.8 2.2 1.4 2.5.3.2.4.6.2.9-.2.3-.6.4-.9.2-.8-.6-1.2-1.4-1.6-2.3.2 1.1.5 2.3.5 3.5v.8c0 .2-.1.4-.3.5-.2.1-.4.1-.5.1-.8-.3-1.3-.9-1.6-1.5-.3-.7-.6-1.4-.7-2.2-.3-1.2-.6-2.3-1-3-.2.4-.3.9-.3 1.6 0 1.7.5 3.9.5 5.7 0 .6-.1 1.1-.2 1.6-.1.2-.2.3-.4.4-.2 0-.4 0-.6-.2-.6-.6-1-1.5-1.4-2.4-.4-.9-.8-1.8-1.2-2.3l-.2-.2c0 2.4.8 4.6 1.6 6.9.1.2 0 .5-.2.7-.2.2-.4.2-.7.1-.6-.3-1.2-.7-1.8-1.3 0 .2.1.5.1.7.2 1.4.5 2.6 1.6 3.7.2.2.2.6 0 .8-.1.2-.3.2-.5.2-.1 0-.2 0-.3-.1-1.9-.9-3.5-2.3-4.8-3.9-.4-.5-.7-.9-1-1.2-.3-.3-.5-.5-1-.5-.2-.1-.5-.4-.4-.7zm-14.9-20.7c-.2.3-.6.3-.9.1-1-.9-1-2.1-1.1-3.1v-.6c-.1.4-.1.9-.2 1.3-.2 1.2-.4 2.5-1.1 3.6-.2.2-.4.3-.7.2-.8-.2-1.3-.8-1.7-1.5-.4-.7-.7-1.5-.9-2.3-.2-.8-.4-1.6-.6-2.3v.6c0 .7.1 1.5.1 2.3 0 .4 0 .8-.1 1.2-.1.5-.3 2.3-.9 3.4-.2.4-.5.8-1.1.9h-.2c-.9 0-1.4-.7-1.8-1.3-.4-.7-.7-1.6-1-2.5-.4-1.2-.6-2.5-.8-3.4-.5.7-.8 1.9-1 3.3-.2 1.8-.2 3.9-.6 5.3-.1.3-.3.4-.6.5-.3 0-.5-.1-.6-.4-.6-1.5-.6-3.1-.6-4.6 0-.9-.1-1.7-.2-2.5-.2 1-.2 2.2-.3 3.2-.2 2.2-.5 4.4-1.4 6.5-.1.2-.3.4-.6.4h-.1c-.3 0-.5-.3-.5-.5v-.7c0-1.6.5-3.1.7-4.4 0-.4.1-.7.1-1.1-.5 1.8-1.2 3.7-2.2 5-.6.9-1.4 1.6-2.5 1.6-.2 0-.5 0-.8-.1-.2-.1-.4-.3-.4-.5 0-.3-.1-.6-.1-.9 0-1.9.8-3.6 1.5-5.2.7-1.5 1.3-2.9 1.4-4.4-1.4 1.1-2.8 2.9-3.8 4.7 0 0 0 .1-.1.1-.1.2-.3.5-.4.7-.8 1.6-1.3 3.2-1.3 4.6 0 .3-.3.6-.6.6s-.6-.2-.7-.6v-.6c0-1.6.6-3 1.3-4.4.2-.5.5-1 .8-1.4.6-1.1 1.1-2.2 1.3-3.3-.8.6-1.7 1.5-2.3 2.5-.3.5-.6.9-.8 1.4-.4 1.1-.8 2.2-.8 3.2 0 .3-.2.6-.6.6-.3 0-.6-.2-.7-.6v-.5c0-1.1.3-2.2.9-3.3.3-.8.7-1.5 1-2.2-1 1.1-1.9 2.3-2.9 3.4-1.6 1.7-3.3 3.3-5.2 4.8-.2.2-.5.2-.8 0-.2-.2-.3-.5-.2-.7.8-2.1 2.4-4.2 3.7-6.3 1.3-2.1 2.4-4.1 2.4-6.1v-.7c0-.3.2-.7.5-.7s.7.2.7.5v.8c0 2.4-1.3 4.6-2.6 6.8-.7 1.1-1.5 2.3-2.2 3.3.9-.9 1.9-1.8 2.8-2.7 1.6-1.6 3.1-4 5.2-5.5.2-.2.5-.1.7 0 .2.2.3.4.2.7 0 .1-.1.2-.1.2.5-.4 1.1-.8 1.6-1 .2-.1.4-.1.6.1.2.1.3.3.3.5v1c.8-.8 1.6-1.5 2.4-2 .2-.1.4-.1.6 0 .2.1.3.3.4.5 0 .3.1.6.1.9 0 1.9-.8 3.6-1.5 5.3-.7 1.6-1.4 3.2-1.4 4.7v.3c.4 0 .9-.3 1.4-1 .5-.7 1-1.8 1.4-2.9.8-2.2 1.3-4.8 1.5-5.8.1-.3.3-.5.6-.5s.6.2.6.5c0 .2.1.3.1.5.1-.6.3-1.1.6-1.6.1-.2.3-.3.5-.3s.4.1.5.3c.6 1 .9 2.1 1 3.2.2-1.7.7-3.4 2.2-4.3.2-.1.4-.1.5 0 .2.1.3.2.4.4.2.6.4 1.8.7 3.1.3 1.3.8 2.7 1.2 3.5.3.6.6.7.7.7l.2-.2c.1-.2.3-.6.4-1 .2-.8.3-1.7.4-2 0-.3.1-.6.1-1 0-.7-.1-1.5-.1-2.3 0-1 .1-2.1.6-3 .1-.2.3-.3.5-.3s.4.1.5.3c.5.8.8 2 1.1 3.2.3 1.2.6 2.5 1.1 3.3.2.3.4.5.5.7.4-.7.5-1.6.6-2.6.2-1.2.3-2.5.9-3.6.1-.2.3-.3.5-.3s.4 0 .6.2c.8 1 .8 2.1.8 3.2 0 1 .2 1.8.6 2.2.3.1.3.5.1.7zm13-23.5c-.5.4-1 .6-1.5.6-1.1 0-1.9-.7-2.6-1.4-.7-.7-1.4-1.6-1.9-2.1l-.3-.3c-.1.4-.1.7-.1 1.2 0 .7.1 1.5.1 2.3 0 1-.1 2.1-.7 3.1-.1.2-.4.3-.7.3-1.6-.4-2.3-1.7-2.9-2.9-.4-1-.8-1.9-1.3-2.5-.5.5-.8 1.5-.9 2.7-.1 1.5-.1 3.1-.4 4.3-.1.3-.4.5-.8.4-.6-.2-1-.6-1.3-1.1 0-.1-.1-.2-.1-.2-.1.7-.2 1.4-.5 2-.1.2-.4.4-.6.4-1.5-.2-2.3-1.4-2.9-2.6-.2-.4-.4-.9-.6-1.3 0 .7.1 1.5.1 2.3 0 .6 0 1.2-.2 1.9 0 .2-.2.4-.4.5-.2.1-.4 0-.6-.1-1.6-1.4-2.5-3.5-3.6-5.1-.3.9-.4 1.9-.6 2.9-.3 1.4-.7 2.9-1.7 4.1-.2.2-.6.3-.9.1-1.1-1-1.3-2.4-1.5-3.9-.1-1.1-.2-2.1-.4-3-1.1 1-2 2.7-2.9 4.1-.3.4-.6 1.3-1.1 2.1-.5.8-.9 1.6-1.7 2h-.2c-.1 0-.2 0-.3-.1-.2-.1-.3-.3-.3-.5v-.6c0-2.4 1-4.5 1-6.4-.4.1-.9.4-1.4.8-.7.5-1.3 1.1-1.7 1.5-1.6 1.4-3.3 2.8-4.9 4.2-.1.1-.3.2-.4.4-.3.2-.7.2-.9-.1-.2-.3-.2-.6 0-.9l.2-.2c1.2-1.1 1.8-2.1 2.2-3.3-.6.6-1.4 1.1-2.1 1.5-1.9.9-4 1.5-5.4 2.2-.3.1-.6 0-.8-.3-.2-.3-.1-.6.2-.8 1.7-1.1 3.5-2.3 4.8-3.7 1.3-1.4 2.2-2.9 2.2-4.9v-.1c0-.3.3-.6.6-.6s.6.3.6.6v.1c0 2.4-1.1 4.3-2.6 5.8-.3.3-.6.6-1 .9.3-.1.5-.2.8-.4 1.7-.9 2.9-1.9 3.1-3.8 0-.3.3-.6.7-.6.3 0 .6.3.6.6 0 1.4-.1 2.7-.4 3.8.6-.5 1.2-1 1.7-1.5.4-.4 1.1-1 1.8-1.6.7-.6 1.6-1.1 2.5-1.1h.3c.3 0 .5.3.5.6v.7c0 1.8-.6 3.5-.9 5.1 0-.1.1-.1.1-.2l1.1-2.2c1-1.6 2.1-3.8 4-5 .2-.1.3-.1.5-.1.2.1.3.2.4.4.5 1.2.5 2.7.7 4.1.1 1 .3 1.9.7 2.5.5-.8.7-1.8 1-2.9.3-1.4.5-2.9 1.1-4.2.1-.2.3-.3.5-.3s.4.1.5.2c1.3 1.5 2.1 3.5 3.2 4.9v-.4c0-.8-.1-1.5-.1-2.4 0-.7.1-1.5.3-2.2.1-.2.3-.4.5-.4s.5.1.6.3c.6.9 1 2.2 1.6 3.3.4.9.9 1.5 1.5 1.8.4-1.4.1-3.5.4-5.3 0-.3.3-.5.5-.5.3 0 .5.1.7.3.3.6.4 1.4.5 2.2.1.7.3 1.5.5 1.9.1-.9.1-2 .2-3 .2-1.5.5-3.2 1.9-4 .2-.1.5-.1.7.1 1.1.9 1.5 2.2 2 3.3.4.9.9 1.6 1.6 2 .2-.6.3-1.2.3-2 0-.7-.1-1.5-.1-2.3 0-.7.1-1.5.3-2.3.1-.3.4-.4.7-.4.6.1 1.1.4 1.5.9.4.4.9.9 1.3 1.4.9 1 1.8 1.8 2.4 1.8.2 0 .4-.1.7-.3.3-.2.7-.2.9.1.1.2 0 .6-.2.8zm-3.2-46.2c.3-.1.7.2.7.5v.1c0 .1.1.2.2.3.2.2.4.5.7.8.5.6 1.2 1.2 1.5 1.6.7.7 1.8 1.8 2.9 2.7.6.5 1.3 1 1.9 1.3-.8-1.4-2-2.9-2.9-4.3-.7-1.3-1.6-3.2-2.6-4.4-.5-.3-.9-.7-1.3-1.1-.2-.2-.2-.6 0-.8.2-.2.5-.3.8-.2.5.3 1 .7 1.4 1.2 1.4 1 3.1 1.9 4.8 2.7-2-2.2-4-4.6-5.5-7-.2-.2-.1-.6.1-.8.2-.2.5-.2.8-.1.1.1.3.2.4.3-.5-.7-.9-1.4-1-2.3 0-.2 0-.4.2-.5.1-.1.4-.2.6-.2 1.2.2 2.1 1 2.9 1.6.8.7 1.5 1.2 2.3 1.3.3 0 .5.2.5.5v.6c0 .3-.2.6-.6.7-.3 0-.6-.2-.7-.6v-.1c-1-.3-1.7-.9-2.4-1.4-.4-.3-.7-.6-1.1-.8.5.8 1.3 1.6 2.2 2.3 1.4 1.2 3 2.3 3.9 3.6.2.2.2.6 0 .8-.2.2-.5.3-.8.1-1.5-.9-2.9-1.9-4.3-2.9 1.8 2.3 3.9 4.6 5.7 6.7.2.2.2.6 0 .8-.2.2-.5.3-.8.1-1.6-1-3.7-1.9-5.7-3 .4.8.8 1.6 1.2 2.2 1 1.7 2.8 3.7 3.5 5.8.1.2 0 .4-.1.6-.1.1-.3.2-.5.2h-.1c-1.3-.2-2.6-1-3.8-2-1.2-1-2.3-2.1-3-2.8-.5-.5-1.7-1.6-2.3-2.5-.2-.3-.4-.6-.5-.9.3-.3.5-.6.8-.7zm-10.7 1.3c.5.8.7 1.4.7 2 0 .4-.2.8-.5 1-.3.2-.6.3-1 .3-1 0-2.2-.6-3.3-1.3-.1-.1-.2-.2-.3-.2.1.2.2.4.2.5.1.3 0 .7-.4.8-.3.1-.7 0-.8-.4-.3-.7-1.3-2.1-1.3-3.6 0-.8.4-1.7 1.3-2.2.3-.2.7-.3 1-.3 1 0 1.9.7 2.6 1.3.9.8 1.5 1.6 1.8 2.1zm-8.4-5.3c0-1 .7-1.8 1.5-2.5s1.7-1.3 2.7-1.4h.4c.3.1.4.3.5.5 0 .3-.1.5-.3.6-.1 0-.1.1-.2.1h.9c.3 0 .5.3.5.5s-.1.6-.4.7c-.6.2-1.1.4-1.6.7.3-.1.7-.1 1.1-.1h.2c.3 0 .6.3.6.7 0 .3-.3.6-.7.6h-.1c-.6 0-1.2.2-1.9.5-.6.2-1.1.4-1.8.5-.2.2-.3.2-.5.2h-.2c-.1 0-.2-.1-.3-.2-.2-.1-.3-.2-.4-.4-.1-.2 0-.4.1-.6 0-.1-.1-.2-.1-.4zm-1.1 20.3c.3 0 .5.2.6.5.1.3-.2.7-.5.7h-.3c-.1 0-.3 0-.5-.1s-.4-.4-.4-.7v-.2c.1-.3.4-.6.7-.5.2.1.3.2.4.3zm-1.5 2.5c.2 0 .4.1.5.3.3.2.4.5.2.8 0 .1-.1.2-.2.2-.1.1-.2.2-.5.3-.3 0-.5-.3-.6-.4-.1-.1-.1-.2-.1-.3v-.4c.1-.2.4-.5.7-.5zM54.4 40.9h.5c.9.2 1.9.6 2.7 1.2-.1-.1-.1-.2-.2-.2-.2-.3-.1-.6.1-.9.3-.2.6-.2.9.1.6.7 1.2 1.4 1.5 2.3.1.1.2.3.2.4.2 0 .4.2.5.3 0 0 .1.1.1.2.1.1.2.3.2.6 0 .2-.1.4-.2.6-.1.2-.3.3-.5.3v.1c0 .3-.2.6-.5.7-.2 0-.4 0-.5-.1v.3c0 .3-.3.6-.6.6s-.6-.3-.6-.6c0-.6 0-.9-.1-1.2-.1-.2-.2-.4-.5-.8-.3-.3-.9-1-1.5-1.6-.5-.6-1.2-1.1-1.4-1.2h-.1c-.3 0-.5-.3-.5-.6.1-.2.3-.4.5-.5zm-3.2 4.8c.6-.3 1.4-.4 2.3-.4.5 0 1 0 1.5.1s.9.2 1.3.6c.4.4.5.9.5 1.4 0 1.2-.7 2.5-.9 3.1-.1.3-.3.4-.6.4h-.2c-.3-.1-.5-.4-.4-.8 0-.1.1-.3.1-.4-.2.1-.4.2-.6.2-.7.3-1.4.5-2.2.5-.4 0-.9-.1-1.3-.4-.7-.5-1-1.2-1-2 0-.7.5-1.8 1.5-2.3zm2.6 22.2c-.5 0-.7-.2-.8-.4-.2-.3-.2-.6 0-.9.2-.2.5-.2.7-.1.2-.1.4-.1.5 0 .3.1.5.5.3.8 0 .3-.3.6-.7.6zm.4 2.1c0 .3-.3.6-.6.6s-.6-.3-.6-.6v-.2c0-.3.3-.6.6-.6s.6.3.6.6v.2zm-2.8-2.2c-.1.1-.3.2-.5.2-.3 0-.4-.1-.4-.2l-.1-.1v-.2c0-.1-.1-.1-.1-.2s-.1-.3-.1-.3c-.1-.3 0-.7.3-.8.3-.1.7 0 .8.3 0 .1.1.2.1.3.1.1.1.1.1.2v.2c0 .2.1.2-.1.6zm-6.1-8.3c.1-.3.5-.5.8-.3.3.1.5.5.3.8-.6 1.4-.9 2.2-.9 3 0 .5.1 1.2.4 2 .3 0 .5.2.5.5.1.6 1 1.9 2.2 2.9 1.2 1.1 2.6 2 3.4 2.4 1.1.4 2.6.9 3.9.9h.6c.2 0 .4-.1.6-.1.4-.1.7-.3 1-.5 0-.1-.1-.2-.1-.2-.1-.3-.1-.6-.1-1 0-.5 0-1.1.1-1.4-.3.1-.7 0-.8-.3-.3-.7-1-1.2-1.7-1.8-.7-.6-1.5-1.5-1.5-2.8V63c.4-2.6 2.5-5.1 5.5-5.1h.5c1.1.1 2.6.6 3.9 1.2 1.3.7 2.5 1.6 2.9 3 .1.3.1.6.1.9 0 1.1-.6 2.1-1.4 2.8-.8.7-1.7 1.3-2.4 1.8-1.3.8-2.8 1.1-4 1.4v1.7c.1.1.3.2.3.3.1.2.3.4.4.7h.2c.9.3 2.5 1.3 3.9 2.2.4.1.8.1 1.2.1.4 0 .8 0 1.2-.1 1.4-.3 2.4-.9 3.3-1.9.3-.3.5-.6.8-.9.3-.3.7-.5 1.2-.6h.4c.5 0 .9.1 1.3.1h.1c.1 0 .1-.1.4-.2.1 0 .3.1.4.2.8-.1 1.6-.1 2.2-.4.8-.4 1.7-1.6 2.3-2.5.6-.8.9-1.9 1.2-3.1.3-1.1.6-2.3 1.4-3.2.2-.3.6-.3.9-.1.3.2.3.6.1.9-.5.6-.8 1.6-1.1 2.7-.3 1.1-.6 2.4-1.4 3.4-.6.9-1.5 2.2-2.7 2.9-1.4.7-2.7.4-3.4.7-.1 0-.2.1-.2.1-.2 0-.4-.1-.5-.3-.8 1.3-1.2 3.1-1.7 4.9-.4 1.4-1 2.9-2.2 4 0 .6 0 1.2-.1 1.7.4.2.7.5 1 .9l.1.1c0-.5.1-1 .4-1.5.1-.3.2-.5.4-.7.1-.2.4-.4.8-.4s.6.2.8.4c.2.2.4.4.7.6.9.8 1.6 1.8 2.4 2.7-.3-1.8-.8-3.7-.8-5.8v-.2c0-.3.3-.6.6-.6s.6.2.7.5c.1.6.6 1.5 1.3 2.2.4.4.8.8 1.2 1.1-.1-2-.8-4.1-.8-6.4v-.7c0-.3.2-.5.4-.5.2-.1.5 0 .7.2.7.9 1.4 2.2 2.1 3.4.4.7.8 1.3 1.2 1.7-.2-1-.6-2-1.1-3-.6-1.5-1.3-3-1.3-4.8v-.3c0-.3.2-.5.5-.6.3-.1.6.1.7.4.3.8.9 2.3 1.6 3.5.4.8 1 1.5 1.4 1.8-.2-1.1-.9-2.4-1.3-3.5-.4-1.2-.7-2.7-1.1-3.6-.1-.1-.1-.2-.2-.4-.2-.3 0-.7.3-.8.3-.2.7-.1.8.2.1.1.1.2.2.4.6 1.1 1.6 2.3 2.6 3.5-.3-.5-.6-1-.8-1.4-.4-.8-.7-1.7-1.1-2.4-.4-.6-.7-1.2-.8-1.6-.1-.3 0-.6.3-.8.3-.1.6 0 .8.2.3.5.6 1 .8 1.6.7 1.1 1.8 2.5 2.7 3.1.5.4.9.5 1.1.5.3 0 .6.3.6.6s-.3.6-.6.6c-.6 0-1.2-.3-1.7-.7.6 1 1.3 2.1 1.5 3.4.1.3-.1.5-.3.7-.2.1-.5.1-.7-.1-1-1-2.2-2.2-3.2-3.4.4 1.3 1.4 3 1.5 4.7v.3c0 .2-.1.3-.2.4-.1.1-.3.2-.5.1-.8-.1-1.4-.5-2-1.1.5 1.1.9 2.3.9 3.6v.1c0 .2-.1.4-.3.5-.2.1-.4.2-.5.1-1.3-.4-2.1-1.7-2.9-2.9-.3-.4-.5-.9-.8-1.3.2 1.6.7 3.3.7 5.1v.7c0 .2-.1.4-.3.5-.2.1-.4.1-.5.1-.9-.3-1.8-1-2.6-1.9 0 0 0-.1-.1-.1.3 1.6.7 3.3.7 5 0 .3-.2.5-.4.6-.2.1-.5 0-.7-.2-1.2-1.4-2.3-3-3.6-4.2-.2-.2-.4-.4-.6-.5 0 .1-.1.1-.1.2-.2.4-.3.9-.3 1.5 0 .7.1 1.5.1 2.3 0 .4 0 .7-.1 1.1-.2.9-.3 1.6-.4 2.4v.3c0 .3-.3.6-.6.6s-.6-.3-.6-.6V88c0-1.6-.2-3.6-.7-4.4-.1-.2-.2-.3-.3-.3-1.4 3.1-5 5.2-8.1 6.7-1.3 1-3.1 2-4.9 2-.6 0-1.3-.1-1.9-.4-.7-.1-1.4-.3-1.9-.8-1.4-1.3-.8-4.5-2.3-6.4-1-1.3-1.6-1-1.9-2.8v-.3c-.1-.3-.1-.6-.1-.9 0-.6.1-1.2.4-2-.2 0-.4-.1-.5-.2-.4-.5-.4-1-.4-1.4v-1c-.1-.8-.4-1.5-.6-2.5 0-.4-.1-.8-.1-1.2 0-1.4.2-2.8.2-4V68c-.6-.6-1-1.3-1.3-2-.2 0-.4-.2-.5-.4-.3-1.1-.5-1.9-.5-2.7.1-1 .4-1.9 1-3.4zm19.4 10.2c0 .1 0 .3-.1.5s-.4.4-.6.4c-.4 0-.5-.2-.7-.3-.3-.2-.3-.6 0-.9.1-.1.3-.2.4-.2 0-.2.1-.2.3-.2.3 0 .6.2.7.6v.1zM44.1 80.3c.3 0 .5.3.5.6v.7c0 1.4-.2 3.2-.2 4.9 0 1.3.1 2.5.4 3.4.2.6.5 1 .8 1.4.1-2 .1-4.1.2-6.2 0-.3.3-.5.5-.6.3 0 .6.1.7.4.2.7.3 1.5.3 2.3 0 .8-.1 1.6-.2 2.4.3-.5.7-.9 1.1-1.2.2-.2.4-.2.6-.1.2.1.4.3.4.5v.7c0 2.1-1 3.6-1.3 5.3 0 .3-.3.5-.6.5h-.1c-.3-.1-.6-.4-.5-.7.3-1.5.9-2.7 1.1-3.9-.7 1.1-1.4 2.4-1.6 3.5-.1.3-.4.5-.7.5-.3-.1-.6-.4-.5-.7.1-.4.1-.9.2-1.3-.9-.5-1.5-1.4-1.8-2.3-.4-1.2-.5-2.5-.5-3.8 0-.7 0-1.4.1-2.1-.5 1.3-.9 2.7-.8 3.9 0 1.4.4 2.6 1.6 3.7.2.2.3.5.1.8-.2.3-.5.3-.8.2-2.7-1.3-4.2-5-4.2-8.4 0-2.4.8-4.8 3-5.8.3-.1.7 0 .8.3.1.3 0 .7-.3.8-1.6.7-2.3 2.5-2.3 4.7 0 1.4.3 2.9.9 4.1v-.4c0-2.6 1.3-5.3 2.3-7.5.2-.5.5-.7.8-.6zm-9-19.4c.6-.7 1.4-1.3 2.3-1.9 1.7-1.1 3.4-2.1 4-3.1.2-.3.6-.4.9-.2.3.2.4.6.2.9-.7 1.1-1.9 1.8-3.1 2.6-1.4.8-2.6 1.6-3.4 2.5-.3.3-.5.6-.6 1 2.2-1.3 4.8-2.4 7.2-2.7.2 0 .5.1.6.3.1.2.1.5 0 .7-.6 1-1.8 1.7-3.1 2.4-1.2.7-2.5 1.5-3.3 2.2l-.3.3c1.6-1 3.4-2.2 5.4-2.3h.1c.2 0 .4.1.5.2.1.2.2.3.1.5-.2.7-.5 1.3-1 1.7.1.1.2.3.2.5-.1 1.1-.7 1.9-1.3 2.6.7-.3 1.3-.6 1.9-.8.2-.1.4 0 .6.1.2.1.2.4.2.6-.1.6-.3 1.1-.6 1.5.2-.1.3 0 .5 0 .2.1.3.3.3.5v.6c0 1.7-1 3.2-2 4.5-1 1.3-2.1 2.5-2.6 3.6-.1.2-.3.4-.6.4-.1 0-.2 0-.2-.1-.3-.1-.5-.5-.3-.8.6-1.4 1.8-2.6 2.7-3.9.8-1.1 1.5-2.1 1.6-3.1-1.2.9-2.4 2.1-2.6 3.2-.1.3-.4.5-.7.5-.3-.1-.6-.3-.5-.7.2-1.5 1.1-2.6 1.9-3.7.5-.6 1-1.2 1.3-1.7-1.5.7-3.4 1.9-4 3-.2.3-.5.4-.8.2-.3-.1-.4-.4-.3-.7.4-1.4 1.5-2.4 2.4-3.4.6-.6 1.1-1.1 1.4-1.7-1.6.7-3.2 2.1-4.9 3-.2.1-.6.1-.7-.1-.2-.2-.2-.5-.1-.7.9-1.4 2.5-2.2 4-3 1-.6 1.9-1.1 2.5-1.8-1.7.4-3.5 1.9-5.3 2.8-.2.1-.4.1-.6 0-.2-.1-.3-.3-.3-.5v-.3c0-.9.5-1.7 1.1-2.4.6-.6 1.5-1.2 2.3-1.7.6-.4 1.3-.8 1.9-1.1-1.9.6-3.7 1.6-5.2 2.6-.2.1-.4.1-.6 0-.2-.1-.3-.3-.4-.5V63c.2-.6.6-1.4 1.3-2.1z"/><path fill="#E49A1E" d="M86.1 193.4c-.3 0-.5-.1-.6-.4-.1-.3-.2-.6-.2-.9-.1 0-.2-.1-.3-.1-.1.1-.2.3-.4.4-.4.4-.8.9-1.6 1-.3 0-.5-.1-.7-.2-.5-.4-.5-.9-.5-1.3s.1-.8.1-1.1c-.1 0-.4.2-.6.4-.4.3-.7.7-1.2 1-.3.2-.6.4-1 .4h-.3c-.4-.1-.7-.4-.8-.7-.1-.3-.1-.6-.1-.8v-.2h-.1c-1.2 0-2.5-.6-3.3-1.2-.1 0-.1-.1-.1-.1-.1.2-.1.4-.2.5-.1.2-.4.4-.6.4h-.1c.2 1.3.3 2.5.6 3.5.1.3-.1.7-.4.8h-.1c.5 1.1.7 2.3.7 3.4 0 .3 0 .6-.1.9-.1.9-.4 1.5-.9 2-.5.4-1 .6-1.5.8-1 .3-1.8.4-2.2.8-.1.2-.3.2-.5.2-.1.1-.1.2-.2.3-.1.1-.3.2-.5.2h-.1c-.2 0-.4-.2-.5-.4l-.3-.6c-.1 0-.1.1-.2.1-1.3.1-2.5.3-3.8.3-1.2 0-2.4-.2-3.6-.6 0 .2-.1.4-.3.6-.1.1-.2.1-.3.1-.1 0-.2 0-.3-.1-.5-.3-.8-.8-1-1.3h-.2c-.5-.2-1.1-.3-1.7-.5-.1 0-.3-.1-.4-.2 1.6 2.7 5.1 5.8 8.3 6.3 3.2.5 7.8-2.9 10.4-4.7 1.9-1.4 2.5-2.1 3.5-3.9.8-1.5.1-1.7 1.7-2.6 1.9-1.1 5-.9 7.9-.5-.9-.4-1.4-1.2-1.4-2zm-31.2 4.7c0-.2-.1-.3-.2-.4-.1-.1-.2-.1-.3-.1 0 0-.1 0-.1.1 0 .2.1.5.1.7.1-.2.3-.3.5-.3zM20.1 191h.2c0-.1 0-.2-.1-.3-.9 0-2.1.3-2.4.7l-.1.1c.6-.2 1.2-.3 1.9-.4 0-.1.3-.1.5-.1zm30.6-22.5c-.1-.5-.1-1.1-.1-1.6l-.1.1c-.2.1-.4.3-.6.5.2.6.5 1.3.9 1.9 0-.3 0-.6-.1-.9zm27.6-1.3c0-.1-.1-.1 0 0-.1-.1 0-.1 0 0z"/><path fill="#E49A1E" d="M57 180.9c.5-.6.9-.9 1.1-1.2.2-.3.3-.5.3-1v-.3c-.1-1-.5-2.2-.7-3.5 0-.4-.1-.8-.1-1.3 0-1.5.2-3 .2-4.3 0-2 .2-3.2 1.2-5 .1-.2.2-.3.3-.5v-1.2c0 .1-.1.1-.1.2-.3.5-.7.9-1.4 1-.1 0-.3 0-.4-.1-.6-.3-.8-.8-.9-1.2-.1-.5-.2-1.1-.2-1.7v-.5l-.3.6c-.1.3-.4.4-.7.3-1.1-.3-1.7-1.2-2-2.2-.3-1-.4-2.2-.4-3.4 0-.7 0-1.4.1-2.1-.2.5-.4 1-.4 1.5 0 .3-.3.6-.6.6h-.1c-1 0-1.7-.7-2.1-1.5-.4-.8-.7-1.8-.8-2.9l-.3-2.7c-.2.4-.4.8-.5 1.2-.1.3-.4.4-.7.4-2-.4-3.3-2-4-3.6-.4-1-.7-2.2-.9-3.2-.1.1-.1.2-.2.3-.4.6-1 1.3-2 1.3-.4 0-.7-.1-1.1-.3-1.4-.8-2-2.3-2.2-3.8-.1-.9-.2-1.7-.2-2.5-.1.1-.1.2-.2.2-.4.4-.8.9-1.5.9s-1.2-.4-1.8-1.1c-1.7-2.1-2.2-4.6-3.2-6.7 0 .1-.1.1-.1.2-.2.3-.5.7-.8 1-.2.2-.6.4-1 .4H28c-.2.9-.7 1.7-1.2 2.4-.4.6-.8 1.2-1 1.7.6-.1 1.2-.2 1.8-.2h.6c.2 0 .4.1.5.3.1.2.1.4.1.5-.5 1.2-1.5 1.7-2.3 2.4-.2.2-.4.3-.6.5 0 .5-.1.9-.1 1.4h.2c.3 0 .7 0 1.1.3.3.3.5.7.6 1.1.1.2.1.4.1.7 0 1.4-.6 3.3-.8 4.2-.2.8-.7 1.6-1.2 2.4-.5.8-.8 1.5-.8 2 0 .2 0 .3.1.4 0 0 0 .1.4.1.3 0 .8 0 1.2.5.5.6.4 1.3.5 1.9v1c0 .4 0 .7.1.8.5 1.5 1 2.8 1.3 4.6.4 2.8 1.3 5.8 1.4 8.7v.4c0 3-1.4 4.4-2.5 6.6-.4.7-.5 1.9-.7 2.8 0 .3-.3.5-.6.5-.7 0-1.8.4-2.8 1-1 .6-1.9 1.4-2.3 2-.9 1.4-1.8 3-1.8 4.6h.3c.5 0 1 .2 1.3.5.3.1.5.3.5.6.2.3.3.7.3 1.2v.1c1.3.3 2.7.7 4.1 1.1.1-.6.3-1.3.7-1.8l.4-.4c0-.1-.1-.2 0-.4.4-1.9 2.1-3.6 4.2-3.7.6 0 1.3.2 1.9.6.3.2.3.6.1.9-.2.3-.6.3-.9.1-.4-.3-.8-.4-1.2-.4-1.2 0-2.6 1.2-2.9 2.5.6.1 1 .6 1.1 1 .2.5.2 1.1.2 1.6v.6h.3c.2.1.5.1.9.1 1.5 0 3.9-.8 4.7-1.6 1.2-1 1.8-3.5 2.5-5.3 1-2.5 1.7-5.3 3.2-7.9 1.4-2.4 3.1-4.6 4.8-6.7.6-.8 1.2-2 1.9-3.1.2-.4.4-.7.7-1.1.1-.6.2-1.1.3-1.5.1-.3.4-.6.7-.5.1 0 .2.1.3.2.1 0 .1.1.2.1l.1-.1c-.4-.3-.7-.7-.9-1.2-1.5-1.8-2.9-4.8-3.3-6.8-.1-.3.1-.7.5-.8.3-.1.7.1.7.5.2.9.7 2.2 1.3 3.4v-3c0-.3.3-.6.6-.6s.6.3.6.6v.8c0 .6.1 1.2.2 1.7V158c0-.3.3-.6.6-.6s.6.3.6.6c0 .8.3 2 .7 3.1 0-.3-.1-.6-.1-.9v-.3c0-.3.3-.6.7-.6.3 0 .6.3.6.6v.1c0 .6.3 1.7.8 2.7.5 1 1.2 1.9 1.7 2.4.3.2.3.6 0 .9-.1.1-.3.2-.5.2-.1 0-.3-.1-.4-.2-.3-.3-.6-.6-.9-1l-.3.3c-.2.1-.5.1-.7-.1-.3-.2-.5-.5-.8-.9.1.3.2.7.2 1l.3.6c.4.9 1 1.8 1.5 2.5.3.4.5.6.7.7.2-.1.5 0 .7.2.2.3.2.7-.1.9-.2.1-.4.2-.6.2-.5 0-.8-.3-1.1-.6-.3-.3-.6-.7-.9-1.2.3 1.3.7 2.6 1.1 4 .1.3-.1.7-.4.8-.3.1-.7-.1-.8-.4-.3-.9-1.1-2-1.8-3-.1-.2-.2-.4-.4-.5v.6c0 2.3.3 4.3 1.7 5.9.2.2.2.5.1.8-.1.2-.3.3-.5.3h-.2c-1.2-.4-2-1.3-2.5-2.4-.4-1.1-.6-2.4-.6-3.6v-.6c-.4.7-.8 1.4-1.2 2-1.7 2.2-3.3 4.3-4.7 6.6-.1.2-.3.5-.4.7.1 0 .3.1.4.2 1.5 1.8 3.9 2.5 6.6 2.9 2.7.4 5.5.6 7.7 1.6v-.1c-.3-.8-.6-2.1.5-3.5z"/><path fill="#E49A1E" d="M27.6 191.3c-.2 0-.3.1-.4.2-.1.2-.3.4-.3.7-.1.4-.2.9-.2 1.3.4-.3.7-.5 1.2-.6v-.2c0-.5 0-.9-.1-1.2-.1-.2-.1-.2-.2-.2zm51.7-22.8c0 .2-.1.4-.2.5H79c.2.1.4.2.7.4 1.7 1.1 3.3 2.3 4.9 3.6-1.3-1.3-2.6-2.6-3.9-3.8-.4-.3-.9-.6-1.3-.9-.1.1-.1.2-.1.2zm16.3 26.1c-.1.1-.3.2-.5.2-.7 0-1.5.1-2.4.1-.9 0-1.8-.1-2.7-.4-.5-.2-1.1-.5-1.5-.9v1.5c0 .2-.1.4-.2.5 1.1.2 2.2.3 3.1.4 2.2.2 4.2.3 6.2.1-.5-.4-1.2-.8-1.8-1.3-.1 0-.1-.1-.2-.2zm7.8-1.8c0 .7-.1 1.3-.2 2l7.5-3c-.5.1-1.1.2-1.6.3-1.8.4-4.1.3-5.7.7zm-2.2 1.5h-.8c-.6 0-1.2 0-1.3.1 0 .1-.1.1-.2.1 0 .4-.1.8-.1 1.3v.2c1.1-.2 2.2-.4 3.3-.8-.4-.2-.7-.5-.9-.9zM97.8 25.4c-.6 0-1.3-.1-1.9-.3-.7-.2-1.2-.7-1.5-1.5-.8.3-1.5.5-2.2.5-.7 0-1.5-.2-2.3-.6-.6-.3-.9-.4-1.3-.4-.2 0-.4 0-.8.1-1 .2-2 .9-3.1 1.4l-.2.2c.5.3.9.7 1.3 1.3.6.8.9 1.9 1.2 3 .4 1.4.6 2.9.7 4.1.5-.4 1.1-.8 1.8-1.2 1.4-.8 2.8-1.4 3.6-1.7 1.6-.7 3.1-.8 4.7-.8.5-.5 1-.9 1.7-1.2 0-.1-.1-.1-.1-.2-.9-.7-1.5-1.6-1.6-2.7zM86 170.7c-.3-.3-.6-.5-.9-.7-.1-.1-.3-.2-.4-.4.1.2.2.3.4.5l.9.6zM65.4 64.1c-.1 0-.3-.1-.4-.2v.2c0 .1 0 .2-.1.3-.2.4-.4.6-.7.9h.1c.2-.2.4-.3.6-.5.1-.2.3-.5.5-.7zm32.4 128.7h-2c.1.4.4.7.8 1.1.3.3.6.5.9.7l.3-1.8zm-29.5 7.7c0-.5-.1-.7-.3-1-.1-.1-.2-.2-.3-.4-.1.1-.1.2-.2.2-.1.1-.2.2-.3.4.4.5.8 1 1.1 1.6 0-.2.1-.5.1-.7-.1 0-.1 0-.1-.1zM58.2 63.7c.1-.1.2-.3.2-.5s-.1-.4-.2-.5c-.1-.1-.2-.1-.3-.2-.1.3-.3.6-.6.8-.1.1-.3.2-.4.2.1.1.1.2.2.2.2.1.4.2.5.2.3 0 .4-.1.6-.2z"/><path fill="#E49A1E" d="M100.3 192.6c-.1-.3.1-.7.4-.8h.1c.4-.6 1.1-1 1.9-1h.3l.4-.4c.9-.8 1.5-1.5 1.5-2.2 0-.4-.2-1-.9-1.7-1.4-1.5-3.6-2.2-6-2.2-2.9 0-6.1 1-8 2.2-1.5.9-3.3 3-3.4 4.7.1.1.1.2.1.4.1-.1.1-.2.2-.2.3-.3.7-.4 1.1-.4h.5c.2-.2.4-.4.6-.5.3-.2.7-.1.9.2.2.2.1.5 0 .7l.1.1c.1.1.1.3.1.5 0 .1 0 .2-.2.4-.1.2-.4.3-.5.2.3.3.7.6 1.1.7.6.2 1.5.3 2.3.3H95c-.1-.2-.2-.4-.2-.6h-.1c-.3-.1-.5-.2-.6-.3-.3-.1-.5-.4-.4-.7 0-.3.3-.5.6-.5h.7c0-.1 0-.1.1-.2.1-.3.5-.5.8-.3.2.1.3.3.4.5h2.6c.2 0 .3.1.5.2.1.1.2.3.1.5-.1.3-.1.6-.1.8h.1c.4 0 .8-.1 1.2-.1h.2c-.4 0-.5-.2-.6-.3zm31.8-19.3c-3.9-6.9-6.4-12.5-3.3-20.3 2.6-6.6-.8-9.5-5.4-13.3-2.1-1.7-3.6-5.2-4.3-7.7-1-3.6-2-7.2-2.8-10.9-.8-4-1.4-8-.9-12.1.5-3.4 1.5-6.9.9-10.4-.8-5-5.1-8.7-7.2-13.3-1.8-4.1-3.4-8.2-3.7-12.6-.4 2.8-1.4 5.3-1.5 7.9v1.5c0 2.2.3 3.7 1.8 5.4 1.5 1.6 2.2 3.5 3.5 4.7.1.1.1.2.2.3 1.2 1.3 2.2 2.8 2.8 4.5 1 3.1.9 6.2 1.6 9.1.3 1.3 1 2.5 1.2 4.1v.5c0 1.6-.5 2.8-.6 4.1v.8c0 2.1.4 4.4.7 6.6.4 2.7.3 5.4.8 7.9.5 2.2.8 4.2 1 6.5v4.7h.2c2.1 0 4.4.4 6.3 1.4 1.9 1 3.6 2.6 4.3 5 .3 1 .4 2 .4 2.9 0 4.6-2.8 8.6-2.8 12.7 0 .6 0 1.1.2 1.7.6 3.2 1.7 6.3 2.7 9.5.6 1.8 1.5 4 1.5 6.1v.5c-.1 1.7-.9 3.1-2 4.3 5-2.3 7.6-6.5 4.4-12.1zM69.3 77.6v.7l.3-.6c-.1 0-.2-.1-.3-.1zm-6.5-15c-.4 0-.8.2-1.2.4-.3.2-.5.5-.5.7 0 .1 0 .2.1.3.4.5.8.7 1.2.7.3 0 .5-.1.8-.2-.3-.2-.5-.4-.6-.8v-.3c-.1-.4 0-.6.2-.8zm24.6 130.3v.4c0-.3.1-.6.2-.9-.1.1-.2.2-.2.5zm-18.1-117c0-.4.1-.8.1-1.2-.1.4-.1.8-.1 1.2zm-19.1-2.6c-.1.1-.1.3-.2.4-.1.2-.2.3-.2.5 0 .1 0 .3-.1.4-.1.2-.3.5-.4.8v.2c.4-.8.7-1.6.9-2.3zm-1.7 3.9h-.2c0 .2 0 .3.1.4.1-.2.1-.3.1-.4.1 0 .1 0 0 0zm22.1 115.9c-1.8-1.1-4.8-2.3-6.9-2.9-.9-.3-2-.4-3.2-.4-2.1 0-4.4.5-5.6 1.3 0 0-.1 0-.1.1 0 .5-.1 1-.1 1.5-.1 1.4-.3 2.4-.4 3.4.4.1.8.2 1.1.4.4.3.7.9.7 1.5v.5c0 .3-.3.5-.6.5h-.1c.2.3.5.5.9.7.4.1.8.2 1.3.3v-.3c0-.5.1-1 .2-1.4 0-.1 0-.3.1-.4l.2-.2c.1-.2.3-.3.5-.4.3-.2.7 0 .8.3.1.2.1.4 0 .6.5.3 1.2.5 1.8 1 .2.2.3.5.1.8-.3.4-.6.7-.9 1 1 .3 2 .4 3 .4 1.1 0 2.2-.1 3.3-.3-.3-.4-.6-.8-.9-1-.2-.2-.3-.5-.2-.7.2-.5.6-.8.8-1.1.2-.2.4-.4.4-.6 0-.2.1-.3.2-.4.1-.1.3-.1.4-.1.1 0 .2 0 .2.1l.1.1c.3.4.6.7.9 1.1.3.4.6 1 .6 1.7v.6c.4-.2.7-.2 1.1-.3.7-.2 1.3-.3 1.6-.6.2-.2.4-.6.5-1.2 0-.2.1-.5.1-.8.4-1.6-.6-4-1.9-4.8z"/><path fill="#CDA5BF" d="M67.5 78.7c-.1-.2-.1-.5-.2-.8.1.4.1.8.1 1.2.1-.2.1-.3.1-.4zm-10.9-7c.2 0 .4-.1.6-.1-.2 0-.4.1-.6.1zm7.5 2c-1.4-.9-2.9-1.9-3.9-2.2H60c.9 1.1 2.5 1.9 4.1 2.2zM51.7 87.6c-.1-1.3-.3-2.3-1.2-3.1-.7-.6-1.4-1.1-2-1.7-.4-.4-.7-.8-.8-1.4v.3c.3 1.7.9 1.4 1.9 2.8 1.5 1.9.9 5 2.3 6.4.5.5 1.1.7 1.9.8-.2-.1-.4-.2-.6-.4-1.3-1-1.4-2.5-1.5-3.7zm16.4-6.1c-.1.1-.2.1-.3.1h-.2c0 1.5-.2 2.9-.6 4.3-.1.2-.2.3-.4.4-2.3.8-3.3 1.4-5 3.1-.3.3-.6.5-.9.8 3.1-1.5 6.8-3.5 8.1-6.7-.1-.1-.2-.1-.3-.1-.3-.1-.5-.4-.5-.8.1-.3.4-.5.8-.5.1 0 .2.1.4.1.1-.5.2-1.1.1-1.7-.4.4-.8.7-1.2 1zm-.6-1.3v.1s.1 0 0-.1c.1.1 0 0 0 0z"/><path fill="#CDA5BF" d="M58.9 72.1c-.8.7-1.9.9-2.9.9-1.6 0-3.2-.5-4.4-1-.2 2.7-1.8 5-2.5 7.1-.2.7-.3 1.2-.3 1.5 0 .6.2.9.6 1.4.4.4 1.1.9 1.9 1.6 1.4 1.1 1.5 2.7 1.6 3.9.1 1.3.2 2.3 1 2.9.5.4 1.1.6 1.7.6 1.7 0 3.8-1.3 4.9-2.5 1.7-1.7 3-2.5 5.2-3.3.3-1.3.5-2.7.5-4.1 0-1.9-.3-3.9-.8-5.6-.1-.1-.2-.2-.2-.3-2.3-.2-4.9-1.2-6.3-3.1z"/><path fill="#412C28" d="M27.6 48c.1.7.2 1.3.2 2 0 .5 0 1-.2 1.6-.4 2-2.1 3-3.2 5.3-1.9 4.4-5.9 9.6-5.9 15v.6c0 .3.2.5.5.6-.7 1.8-1.3 3.6-1.9 5.5-.1.3.1.7.4.8.3.1.7 0 .8-.3.4-.9.9-1.8 1.5-2.6-.6 1.2-1.1 2.4-1.2 3.9 0 .3.2.6.5.7.3 0 .6-.2.7-.5.2-.7.5-1.7.9-2.4.3-.5.7-.9 1.2-1.1v.2c0 .6-.4 1.3-1 2.1s-1.3 1.7-1.4 2.8c0 .3.1.5.3.6.2.1.4.1.6 0v.1c-.1.2-.1.4.1.6.1.2.3.3.5.3.3 0 .6-.1.9-.2-.7.9-1.5 1.9-1.7 3.1 0 .2 0 .5.2.6.1.1.3.1.4.1-.2.8-.5 1.6-.5 2.5 0 .2.1.4.2.5.2.1.4.2.5.1h.4c-.3.9-.9 1.9-1.2 3-.3 1.3 0 2.1-.4 2.8-.2.3 0 .7.3.8.1 0 .2.1.3.1.2 0 .4-.1.6-.3.6-1.3.2-2.3.5-3.1.3-1.1 1.2-2.4 1.4-3.9 0-.2-.1-.4-.2-.6-.2-.1-.4-.2-.6-.1h-.5c.1-.9.5-1.7.7-2.7.1-.2 0-.5-.2-.6-.1-.1-.2-.1-.4-.2.7-1.2 1.9-2.3 2.8-3.6.2-.2.1-.5 0-.7-.2-.2-.5-.3-.7-.2-.3.1-.5.2-.8.4.6-.6 1.2-1.3 1.2-2.3v-.4c0-.2-.2-.4-.4-.5-.2-.1-.4 0-.6.1-.2.1-.3.3-.5.5.3-.5.5-1.1.5-1.8 0-.4-.1-.8-.3-1.2-.1-.2-.4-.3-.6-.3-.3 0-.5.1-.7.2.6-1.1 1.2-2.1 1.5-3.4.1-.3-.1-.6-.3-.7-.3-.1-.6-.1-.8.1-.6.7-1.3 1.5-2 2.2 1-2.7 2.2-5.4 3.7-7.9.1-.2.1-.5 0-.7-.1-.2-.4-.3-.6-.2-.7.2-1.4.6-1.9 1.1 1.3-3.1 3.2-6.1 4.5-9 .8-1.9 2.6-3 3.2-5.6v-.2h.1c1-.1 1.9-.3 2.9-.5-1 .5-2 1-2.9 1.6-.2.1-.3.4-.3.7.1.3.3.4.5.5h.9c.3 0 .6-.3.6-.7v-.1c3.2-1.8 7.1-2.8 10.3-5.1.2-.2.3-.5.2-.7-.1-.3-.4-.4-.7-.4-3.7.4-6.9 2.6-10.1 3.3 1.4-1.3 3.6-2.4 5.2-3.3.5-.3 1.8-.7 3-1.1.6-.2 1.2-.5 1.7-.8.5-.3.9-.7 1.1-1.2.1-.2 0-.4-.1-.5-.1-.2-.3-.3-.5-.3h-1.1c-2.3 0-4.5.3-6.7.5 2.5-1.1 5-2.1 7.8-2.6.3-.1.5-.4.5-.7 0-.3-.3-.6-.6-.6-1.7 0-3.4.1-5.1.1 2.2-.6 4.5-.9 6.8-.9h.3c.3 0 .6-.3.6-.6s-.3-.6-.6-.6h-.4c-3.9 0-7.8 1-11.4 2.3-.1 0-.2.1-.2.2.1-.2.3-.4.5-.7.3-.4.8-.9 1-1.5 0-.2.1-.3.1-.4 0-.6-.2-1.1-.2-1.4v-.2c.4-1.3 1.9-2.8 2.6-4.4.2-.4.1-.8.1-1.1 0-.3 0-.5.1-.6.1-.1.1-.2.2-.3.1 0 .2.1.3.1.2.1.6.1 1 .1h.1c.3 0 .5-.2.6-.5 0-.2.1-.5.1-.7 0-1-.5-1.8-.9-2.5l-.6-.9c.4 0 .8.1 1.3.1h.5c.2 0 .3-.1.4-.3.2.4.4.9.6 1.3.3.7.4 1.9.5 3 .1 1.2.2 2.4.9 3.3.1.1.3.2.4.2h.1c.2 0 .3-.1.4-.2 3.3-2.9 8.1-5.4 12.4-6.1h.1c.1.1.3.2.5.2h.1c.3 0 .6-.4.5-.7-.1-.5-.3-1.2-.5-2.1-.2-.9-.4-1.8-.4-2.4v-.2c.3.1.6-.1.7-.4.1-.3-.1-.7-.4-.8-.1 0-.3-.1-.5-.1-.4 0-.8.3-1 .6-.3.3-.3.6-.3.9 0 .8.2 1.8.5 2.7.1.4.2.7.3 1.1-4.4.7-8.9 3-12.3 5.8-.2-.5-.3-1.3-.3-2.1-.1-1.1-.1-2.4-.6-3.4-.6-1.4-1.3-2.5-1.8-3.7-.3-.7-.6-1.5-1.1-2.2-.1-.2-.3-.4-.4-.5-.2-.3-.6-.3-.9 0-.3.2-.3.6 0 .9.2.3.5.6.6.9.1.2.2.3.2.5-.1 0-.3-.1-.4-.1h-.1c-.3 0-.6.3-.6.6v.1c0 .2.1.5.1.7.2.4.4.7.7 1h-1.2c-.2 0-.3.1-.4.3-.3.1-.3.2-.3.4 0 .1 0 .2.1.3.2.8.7 1.3 1 1.9.4.6.7 1.1.7 1.6-.1 0-.1 0-.2-.1-.2 0-.3-.2-.7-.2-.3 0-.6.2-.7.4-.2.2-.3.4-.4.7-.2.4-.2.8-.2 1.1 0 .3 0 .5-.1.6-.5 1.3-2.1 2.7-2.6 4.5-.1.2-.1.4-.1.6 0 .6.2 1.2.2 1.4v.1c-.1.3-.3.6-.7 1.1-.4.4-.8 1-.9 1.7-.1.5-.1 1-.1 1.5 0 .7.1 1.3.1 2-.2.1-.4.2-.7.3-.3.1-.4.4-.4.7 0 .1 0 .1.1.2-.3.3-.4.7-.6 1.1-.1.2-.1.3-.1.5 0 .3-.1.5-.1.8v.8zm9.1-25.1c-.1-.1-.1-.2-.2-.2.1 0 .1-.1.1-.1.1.2.1.3.2.5 0-.2 0-.2-.1-.2zm2.5 21.2c-.6.3-1.3.5-1.9.8-.9.3-1.7.6-2.3.9-1.8 1-4.4 2.2-6 4 0-.7-.1-1.3-.2-1.9 0-.2-.1-.5-.1-.7 0-1.1.3-1.7 1.3-2.1h.1c3.2-.5 6.1-1 9.1-1zm-8.8-2.5c0-.5 0-.9.1-1.3v-.1.1c.1.3.3.5.6.5 1.6 0 3.2 0 4.8-.1-1.9.7-3.7 1.5-5.5 2.2.1-.3 0-.8 0-1.3z"/><path fill="#412C28" d="M129.8 180.5c0-2.2-.9-4.3-1.5-6.1-1-3.2-2.1-6.3-2.7-9.5-.1-.6-.2-1.1-.2-1.7 0-4.1 2.7-8.2 2.8-12.7 0-1-.1-1.9-.4-2.9-.7-2.4-2.4-4-4.3-5s-4.2-1.4-6.3-1.4h-.2v-4.7c-.1-2.3-.5-4.3-1-6.5-.5-2.5-.4-5.2-.8-7.9-.3-2.2-.7-4.5-.7-6.6v-.8c.1-1.3.6-2.5.6-4.1v-.5c-.1-1.6-.9-2.8-1.2-4.1-.7-2.9-.7-6-1.6-9.1-.5-1.7-1.6-3.2-2.8-4.5 0-.1-.1-.2-.2-.3-1.3-1.3-2-3.2-3.5-4.7-1.5-1.7-1.8-3.2-1.8-5.4v-1.5c.1-2.6 1.1-5.1 1.5-7.9.1-.6.2-1.2.2-1.8V70c0-.3 0-.6-.1-.9l-.3-.9c-.3-.4-.7-.6-1-.7-.1-.1-.3-.1-.3-.2v-.2c0-.1 0-.3.2-.4.4-.4 1.5-.8 2.3-.9h.5c.2 0 .3 0 .5-.2.1-.1.2-.3.2-.4 0-.4.1-1 .1-1.5 0-.4 0-.8-.2-1.2 0-.1-.1-.2-.1-.4-.3-.6-.9-.9-1.3-1.2-.1-.1-.3-.2-.4-.2.5-.4 1-.7 1.5-1 .3-.1.4-.5.3-.7-.2-.7-.7-1.1-1.2-1.5-.6-.4-1.3-.6-2.1-.7.2-.1.4-.1.6-.2.2-.1.3-.2.4-.4.1-.2 0-.4-.1-.5-.2-.4-.6-.6-.9-.8.2-.1.3-.2.4-.4.1-.3 0-.6-.3-.7-.7-.4-1.9-1.2-3-1.6.1-.1.1-.3 0-.5-.1-.3-.4-.5-.6-.6-.2-.1-.4-.2-.6-.2.3-.1.6-.1.9-.1h.2c.2 0 .4-.1.5-.3.1-.2.2-.4.1-.6-.2-.6-.6-.9-1-1.1 0 0-.1 0-.1-.1l.1-.1c.3-.3.8-.6 1-1.1.2-.4.3-.7.3-1 0-.3-.1-.6-.3-.8-.3-.3-.6-.3-.7-.4l-.2-.1c-.1-.1-.1-.3-.1-.7v-.8c-.1-1-.2-2.1-.3-3 0-.1-.1-.2-.1-.3.2-.5.5-1 .9-1.6.4-.6.9-1.2 1-2v-.6c-.1-.5-.3-.6-.4-.7-.1-.1-.1-.1-.1-.2v-.9c0-.7.2-1.5.2-2.4v-.6c-.1-1.1-.4-1.9-.9-2.6 0-.2-.1-.3-.3-.4-.2-.3-.5-.6-.8-.9-.6-.7-1-1.4-1-2.1v-.6c0-.1-.1-.1-.1-.2-.1-.1-.3-.2-.4-.2h-.2c-.7 0-1.5 0-1.9-.2-.4-.2-.6-.3-.8-.8 0-.1-.1-.3-.1-.5s-.1-.4-.3-.5c-.2-.1-.4-.1-.6 0-.4.2-.7.3-1.1.5-.5.2-.9.3-1.3.3-.5 0-1-.1-1.8-.5-.6-.3-1.1-.5-1.8-.5-.3 0-.7 0-1.1.1-1.1.3-2 .8-2.9 1.2v-.1c0-.1-.2-.3-.3-.3v-.4c0-.2-.1-.6-.4-.8-.2-.2-.5-.3-.9-.5-.3-.1-.5-.1-.8-.1-.9 0-1.6.3-2.2.3h-.4c-.4-.1-.7-.3-1.1-.6-.4-.3-.9-.6-1.6-.7-1.6-.3-3.1-.8-4.9-.8h-1.7c-2.8 0-5.2-1.2-8.3-1.9-.8-.2-1.6-.1-2.1-.3-.2 0-.4-.2-.8-.5l-.6-.3c-.5-.2-1.1-.2-1.5-.2-.2 0-.3-.1-.3-.1 0-.2 0-.3-.1-.5-.1-.1-.3-.2-.4-.2h-.2c-.7 0-1.7.1-2.7.1-.7 0-1.4-.1-1.9-.3-.5-.2-.6-.4-.7-.9 0-.2-.1-.3-.3-.4-.1-.1-.3-.1-.5-.1-.9.3-1.5 1-2.2 1.7 0 .1-.1.1-.1.2-.3.4-.6.7-.9.9-.1.1-.2.2-.3.2h-.1s-.1 0-.2-.1c-.2-.2-.4-.5-.7-.8-.1-.2-.3-.3-.5-.5s-.4-.3-.8-.4c-.3-.1-.6.1-.7.4-.2.8-.1 1.6-.2 2.2 0 .3-.1.5-.2.7-.1.1-.2.2-.5.3h-.2c-.3 0-.7-.2-1-.6-.4-.4-.7-.9-.9-1.2-.1-.2-.4-.4-.7-.3-1 .2-1.5 1.1-1.6 1.9-.1.3-.1.6-.1.8-.2-.2-.5-.4-.7-.7l-.9-.9c-.3-.2-.7-.2-.9 0-.2.3-.2.7 0 .9l.9.9c.5.5 1.1 1.1 1.8 1.5.2.1.4.1.6 0 .2-.1.3-.3.3-.5 0-.6 0-1.3.1-1.8.1-.3.2-.5.3-.7.2.3.5.7.8 1 .5.5 1.1 1 1.9 1 .2 0 .3 0 .5-.1.5-.1 1-.5 1.2-.9.4-.6.4-1.3.4-1.8v-.4c0 .1.1.1.1.2.4.4.7 1 1.6 1.1.5 0 .9-.3 1.2-.6.5-.5 1-1.1 1.5-1.6l.3-.3c.1-.1.3-.2.4-.3.1.1.2.3.3.4.3.3.6.5.9.7.7.3 1.5.4 2.3.4.9 0 1.7-.1 2.3-.1.1.2.2.4.4.5.4.3.9.3 1.3.4.4 0 .8.1.9.1.2 0 .6.5 1.4.8.8.2 1.7.2 2.2.3 2.9.7 5.4 1.9 8.6 1.9.4 0 .8 0 1.1-.1h.6c1.5 0 2.9.5 4.6.8.5.1.8.3 1.2.5.4.2.8.6 1.5.8.2.1.5.1.7.1.9 0 1.6-.3 2.2-.3.2 0 .3 0 .4.1.2.1.3.1.3.1v.4c0 .3.2.6.4.8v.1c.1 0-.1 0-.2.1h-.3v1.1c0 .3.2.6.6.7.5 0 .9.3 1.4 1 1.3 2 1.8 6.5 1.8 8.2 0 .3.3.6.6.6s.6-.2.6-.5c0-.1.2-.5.6-.9 1.3-1.1 4-2.3 5.1-2.8 1.2-.5 2.4-.7 3.7-.7 0 0 0 .1.1.1.1.1.3.2.4.2.2 0 .3-.1.4-.2l.2-.2s.1 0 .1-.1c.6-.6 1.2-1.1 1.8-1.2.3.5.5 1 .6 1.9v.5c0 .7-.1 1.5-.2 2.3v.7c0 .2 0 .3.1.5.1.4.3.6.4.7l.1.1c0 .5-.3 1.1-.8 1.8s-1.1 1.5-1.2 2.5c0 .2.1.5.3.6.1.9.2 1.8.3 2.6v.7c0 .4 0 .8.2 1.3.3.6.8.7 1 .8 0 .1-.1.3-.2.5s-.3.4-.6.7c-.3.3-.7.6-1 1.1-.1.2-.1.4 0 .5.1.2.2.3.4.3h.1c-.1.1-.3.1-.4.3-.2.2-.4.5-.4.9 0 .2 0 .3.1.5s.2.3.3.4H99c-.3.1-.6.4-.5.7.1.3.4.6.7.5h.3c.7 0 1.7.4 2.6.8-.4.1-.8.1-1.1.2-.2 0-.4.2-.5.4-.1.2 0 .5.2.6.7.6 1.5.6 2.2.7.1 0 .3 0 .4.1-.6.1-1.3.3-1.9.6-.2.1-.4.3-.4.6s.2.5.4.6c.9.3 2.1.3 3.2.5.5.1 1 .3 1.3.5.2.1.3.2.4.3-.6.4-1.2.8-1.7 1.1-.3.2-.4.5-.2.8.3.6.9.9 1.2 1.1.4.2.7.4.8.7.1.2.2.5.2 1v.9c-.6.1-1.4.2-2.1.5-.4.2-.8.4-1.1.8-.3.3-.6.8-.6 1.3 0 .3.1.5.2.8.3.5.7.6.9.8.1.1.3.1.4.2l.1.1c.2.3.2.6.2 1.1v.8c-.1 3.2-1.5 6.2-1.7 9.7V82c0 1.9.2 3.5 1.3 5.2-.2 0-.4 0-.5.1-.2 0-.4.2-.5.4-.5 1.7-.5 3.7-.8 5.4h-.1c-.2-.1-.4-.1-.6 0-.2.1-.3.3-.4.5v.6c0 2.6 1.2 4.9 1.3 7h-.1c-.2.1-.3.2-.4.4-.5 1.7-.7 3.5-.9 5.2 0 0 0-.1-.1-.1-.2-.3-.4-.6-.7-.8-.3-.2-.5-.5-1-.5h-.3c-.7.2-.8.8-1 1.3-.1.5-.2 1.2-.2 1.8 0 1.3.1 2.6.1 2.9 0 .6.1 1.4.1 2.3 0 .6-.1 1.1-.2 1.4-.2.3-.2.3-.3.3h-.1c-.1 0-.9-.6-1.4-1.3-.6-.7-1.1-1.6-1.2-1.9-.1-.3-.4-.4-.7-.4-.3.1-.5.3-.5.6 0 1.5.3 3 .9 4.3.1.3.3.7.5 1-.1-.1-.2-.1-.2-.2-1-.9-2-1.8-3.3-1.9-.3 0-.6.1-.9.2-.3.1-.5.5-.3.8.1.3.5.5.8.3.1-.1.2-.1.4-.1.6 0 1.5.6 2.4 1.5.9.9 1.8 1.9 2.8 2.3.1 0 .2.1.2.1.1 0 .2 0 .3-.1.2-.1.3-.3.3-.5 0-.9-.5-1.6-.9-2.2-.4-.6-.9-1.2-1.1-1.7-.1-.4-.3-.7-.4-1.1.6.7 1.1 1.3 1.9 1.5h.3c.8 0 1.3-.6 1.5-1.1.2-.6.3-1.2.3-1.8 0-1-.1-1.9-.1-2.3 0-.5-.1-1.7-.1-2.9 0-.6 0-1.1.1-1.5 0-.2.1-.3.1-.3.1 0 .1.1.2.2.2.3.5.7.8 1.1.3.4.4.7.7 1 .2.1.4.2.6.1.2-.1.4-.2.4-.5.4-2 .5-4 .9-5.9h.3c.2-.1.4-.3.4-.5v-.8c0-2.5-1.2-4.8-1.3-7 .2.1.4.1.5 0 .2-.1.3-.2.3-.4.3-1.7.4-3.6.7-5.1.3.1.6.1.8-.2.1-.1.1-.2.2-.2 1 1.1 1.6 2.5 2.6 3.7 0 .2.1.3.2.5 1.4 1.3 2.6 3 3.2 4.7.9 2.8.9 5.9 1.6 9 .4 1.5 1 2.6 1.1 3.9v.4c0 1.2-.5 2.5-.6 4v.8c0 2.3.4 4.6.8 6.8.4 2.5.3 5.2.8 7.9.5 2.2.8 4.1.9 6.3v4.8c-.1.1-.2.3-.2.5 0 .1.1.3.1.4v.9c0 .3.3.6.6.6s.6-.3.6-.6v-.6h.2c2 0 4 .4 5.8 1.3 1.7.9 3.1 2.2 3.7 4.2.3.9.4 1.7.4 2.5 0 4.1-2.8 8.1-2.8 12.7 0 .6.1 1.3.2 1.9.6 3.3 1.8 6.5 2.7 9.7.6 1.9 1.4 3.9 1.4 5.8v.4c-.1 2.1-1.6 3.8-3.5 5.1-.3.2-.5.3-.8.5-1.8 1.1-3.9 1.8-5.5 2.3-.7.2-1.5.4-2.2.6-2.5.6-5.1.9-7.6 1.5-1.3.3-3 .3-4.7.5 0 0 0-.1.1-.1.8-.8 1.8-1.7 1.9-3.1 0-.8-.4-1.7-1.3-2.6-1.8-1.9-4.3-2.6-6.9-2.6-3.2 0-6.5 1-8.7 2.4-1.5 1-3.3 2.7-3.8 4.8-.2 0-.3 0-.5.1-.5.3-.8.8-1.2 1.1-.2.2-.3.4-.5.4-.1.1-.2.1-.2.1v-.2c0-.3.1-.6.1-1.1 0-.3 0-.7-.5-1.1-.2-.2-.5-.2-.7-.2-.9.1-1.4.6-1.9 1.1-.3.2-.5.4-.7.6-.1.1-.2.1-.2.1v-1.4c0-.2-.2-.4-.4-.5-.2-.1-.5-.1-.7.1 0 0-.1.1-.3.1-.4 0-1.2-.2-1.8-.5-.3-.1-.6-.3-.8-.4-.1-.1-.2-.1-.2-.2s-.1-.1-.2-.2c.3-1.2.4-2.4.4-3.6 0-.9-.1-1.8-.2-2.6 0 0 .1-.1.1-.2.4-.9.8-1.8 1-2.9.1.1.3.1.4.2.3.1.6 0 .7-.3.7-1.3 1-3 1-4.5 0-.6 0-1.2-.1-1.7-.1-.4-.2-.7-.3-.9 2 1 3.9 2.7 5.6 4.2.6.5 1.3 1.3 2.1 2s1.7 1.4 2.8 1.6h.1c.2 0 .4-.1.5-.2.1-.2.2-.4.1-.6-.2-.6-.7-.8-1-1-.2-.2-.5-.1-.8.1-.3-.2-.6-.5-.9-.7-.8-.7-1.5-1.4-2.1-2-1.8-1.5-3.9-3.4-6.2-4.5.1-.2.1-.3.1-.5.4.2.7.3 1 .5 1.7 1.1 3.3 2.3 4.8 3.5 1.3 1 3 3.3 5.1 3.9h.1c.2 0 .4-.1.5-.2.2-.2.2-.4.1-.7-.6-1.3-1.8-2.4-2.7-3.3.6.5 1.3.9 2 1.2.3.1.6 0 .8-.2.2-.2.2-.6-.1-.8-.8-.9-1.7-1.6-2.6-2.3.8.5 1.7 1 2.7 1 .3 0 .6-.2.7-.6v-.2c0-1.4-.9-2.8-1.8-4-1-1.3-2-2.4-2.6-3.2 0 0 0-.1-.1-.1.1.1.2.2.2.3 1 1.1 2.3 2.9 4.2 3.4.2 0 .4 0 .5-.1.1-.1.2-.3.3-.4v-.5c0-1.2-.6-2.3-1.3-3.3-.7-1-1.4-1.9-1.8-2.6-.7-1.3-1.2-2.7-1.3-4.2.8.5 1.5 1.5 2.2 2.6.9 1.4 1.7 3.1 3.2 3.9.2.1.4.1.6 0 .2-.1.3-.3.3-.5v-.3c0-2.1-1.1-3.8-2-5.5-1-1.6-1.8-3.2-1.9-4.8.2.1.4.2.7.5.6.6 1.3 1.5 2 2.5.7.9 1.3 1.9 2.1 2.4.2.1.4.1.6 0 .2-.1.3-.3.4-.5v-.4c0-1.1-.5-2.2-1-3.2-.1-.3-.3-.5-.4-.8v-.3c0-.8-.3-2.1-.7-3.5-.3-1.4-.6-2.9-.6-3.8 0-.3 0-.6.1-.7l.1-.2h.2c.2 0 .8.4 1.3 1 .3.3.5.6.8.9.3.3.5.5 1 .6.3 0 .7-.2.7-.5s-.2-.7-.5-.7c-.1 0-.7-.6-1.2-1.2s-1.2-1.2-2.1-1.3c-.2 0-.5 0-.7.1-.4.2-.7.5-.8.9-.1.4-.2.8-.2 1.2 0 1.1.3 2.4.6 3.7l-.9-1.5c-.2-.3-.6-.4-.9-.2-.3.2-.4.6-.2.9.6 1.1 1.2 2.3 1.8 3.6.4.8 1 1.7 1.5 2.6.1.2.3.5.4.7-.3-.4-.6-.9-1-1.4-.5-.6-.9-1.3-1.5-1.7-.6-.5-1.2-.9-2-.9h-.2c-.3 0-.5.3-.6.6v.7c0 2.1 1.1 3.9 2 5.5.8 1.3 1.4 2.5 1.7 3.7-.6-.7-1.2-1.6-1.7-2.6-.9-1.4-1.9-3-3.7-3.5-.2 0-.4 0-.5.1-.2.1-.2.3-.3.5v.5c0 1.9.7 3.7 1.5 5.2.5.9 1.3 1.8 1.9 2.7.5.7.9 1.4 1 2-1-.6-1.9-1.7-2.7-2.6-1.4-1.6-3.1-3.3-4.3-4.9-.2-.2-.5-.3-.8-.2-.3.1-.4.4-.3.7.7 2.2 2 4 3.3 5.7.7.9 1.7 2 2.6 3.2.7.9 1.3 1.9 1.5 2.7-1.1-.4-2.4-1.4-3.3-2.2-.7-.6-1.7-1.4-2.6-2.3-.5-.5-.9-1-1.2-1.5-.2-.4-.4-.8-.5-1.2-.1-.3-.5-.5-.8-.4-.3.1-.5.4-.4.7.1.5.3 1 .6 1.5.5 1 1 2 1.5 2.9-.1 0-.1-.1-.2-.1-.3-.1-.7-.3-1-.5-.7-.7-1.5-2-2.8-2.5-.2-.1-.5 0-.7.2-.2.2-.2.5-.1.7 0 .1.1.2.1.2-.1-.1-.3-.2-.5-.1-.3.1-.5.3-.5.6v.9c0 .6 0 1.1-.2 1.7-.1 0-.2 0-.3.1-.2.1-.3.3-.3.5v.4c0 1 .5 1.6.5 2.1.1.4.1 1 .1 1.5 0 1.1-.2 2.4-.6 3.3-.1-.1-.1-.2-.2-.3 0-.4-.1-.8-.2-1.1-.1-.3-.4-.5-.7-.4-.3 0-.5.3-.6.6v.2c0 .3.1.7.2 1.1 0 1-.3 2-.7 3-.3 0-.5.3-.5.4v.4c.2.9.2 2 .2 3.1 0 1.6-.2 3.1-.7 4.4-.1-.1-.2-.2-.2-.3-.2-.3-.5-.4-.8-.3-.3.1-.4.4-.4.8.3 1.1.4 2.5.6 3.9-.3-.4-.7-.7-1.1-1-2-1.2-4.9-2.4-7.2-3-1-.3-2.3-.4-3.6-.4-1.6 0-3.2.2-4.7.7.7-1.2 1.5-2.8 1.5-4.5.1-1.4-.1-2.3.6-3.1.4-.4.8-.7 1.1-1.2.4-.4.7-1 .6-1.8v-.4c-.1-1.2-.6-2.5-.7-3.5 0-.4-.1-.8-.1-1.1 0-1.4.2-2.8.2-4.3 0-2 .1-2.7 1.1-4.4.1-.1.2-.3.3-.4.2 0 .4-.2.5-.4.1-.2.2-.5.3-.8.5-.6 1-1.3 1.6-1.9.4-.4 1-1.2 1.5-2.1.5-.9 1.1-1.8 1.1-2.8 0-.2 0-.5-.1-.7-.2-.6-.8-.8-1-.8h-.1s0-.1-.1-.1v-.2c0-.2.2-.6.6-.9.4-.3.9-.5 1.2-.6.3-.1.4-.3.5-.6v-.5c0-.5-.1-1.1-.3-1.6-.1-.3-.4-.4-.7-.3-.6.2-1.1.4-1.5.7 0-.4.1-.8.2-1.1.1-.2.1-.3.2-.4.1-.1.1 0 .1-.1h.4v-.6c0-.3-.3-.6-.6-.6h-.1v-.2c0-.8.3-3.1.8-5 .2-1 .5-1.9.7-2.5.1-.3.2-.6.3-.7v-.1c.3-.1.5-.3.5-.6s-.3-.6-.6-.6c-.5 0-.7.3-.9.6-.6.9-1 2.6-1.4 4.4-.4 1.8-.6 3.6-.6 4.5v.3c0 .2.2.4.4.5-.6.7-.6 1.7-.7 2.5v.7c0 .2.1.3.3.4.1.1.3.1.5.1.7-.2 1.2-.5 1.7-.7v.5c-.4.2-.8.4-1.2.7-.5.4-1 1-1 1.8 0 .2 0 .3.1.5.1.3.2.5.4.7.3.3.6.3.7.3v.3c0 .4-.4 1.3-.9 2.1s-1.1 1.5-1.4 1.9c-.4.5-.8.9-1.2 1.4.2-1.3.5-2.7.5-4.2v-.1c0-.3-.2-.6-.6-.6-.3 0-.6.2-.7.5-.1.5-.5 1.8-.9 3-.2.6-.5 1.1-.7 1.5-.1.2-.2.3-.3.4 0-.1-.1-.2-.2-.5s-.1-.8-.1-1.3c0-1.6.3-3.7.3-4.7v-.2c0-.3-.2-.5-.5-.6-.3-.1-.5.1-.7.3-.8 1.4-1 3-1.5 4.2-.3-.2-.5-.6-.6-1.1-.3-.8-.3-1.9-.3-3 0-1.8.2-3.6.2-4.6 0-.3-.2-.5-.4-.6-.3-.1-.5 0-.7.2-.8 1-1.5 2.3-1.8 3.6-.2-.1-.4-.3-.6-.7-.5-.9-.7-2.5-.9-4-.1-1.5-.2-3-.3-3.8-.1-.3-.3-.5-.6-.5s-.5.2-.6.4c-.3.9-.8 2-1.3 3-1.3-.4-2-1.4-2.6-2.7-.6-1.5-.9-3.3-1.2-4.8 0-.3-.3-.5-.5-.5-.3 0-.5.1-.7.3-.3.6-.7 1.4-1 1.9-.4.6-.7.8-.9.8-.1 0-.2 0-.4-.1-.9-.5-1.4-1.6-1.6-2.9-.2-1.3-.2-2.8-.3-4 0-.2-.2-.5-.4-.5-.2-.1-.5 0-.7.1-.5.5-.9 1.1-1.3 1.5-.3.4-.6.5-.6.5s-.3-.1-.8-.7c-1.6-1.9-2.1-4.7-3.4-7.1-.2-.3-.5-.4-.8-.3-.7.3-1 .9-1.3 1.3-.2.2-.3.4-.4.5-.1.1-.2.1-.2.1s-.1 0-.3-.2c-.3-.2-.5-1-.5-2 0-1.6.4-3.6.4-4.9v-.4c0-.3-.2-.5-.4-.6-.2-.1-.5 0-.7.2-.2.2-.3.4-.4.6v-1.8c0-.7 0-1.4-.2-2.1-.1-.2-.2-.4-.5-.5-.2-.1-.5 0-.6.2-.3.4-.5.4-.6.4 0 0-.1 0-.2-.2s-.2-.5-.3-.9c-.1-.3-.1-.7-.1-1 0-2 .9-4.1.9-6.5v-.6c0-.2-.1-.4-.3-.5-.2-.1-.4-.1-.6 0-.5.3-.8.6-1.1 1 0-.9 0-1.9-.1-2.9-.1-1.6-.3-3.2-1.3-4.2-.1-.1-.3-.2-.5-.2s-.3.1-.4.3c.1-2.2.5-4.4.8-6.7.1-.3-.2-.7-.5-.7-.3-.1-.7.2-.7.5-.4 2.5-.9 4.9-.9 7.5 0 .5 0 1 .1 1.6 0 .3.2.5.4.5.2.1.5 0 .7-.2.3-.3.5-.6.7-1 .3.7.4 1.6.5 2.6.1 1.5 0 3.2.1 4.2 0 .2.2.4.4.5.2.1.4.1.6-.1.4-.3.7-.6 1-.9-.2 1.7-.9 3.6-.9 5.6 0 .4 0 .8.1 1.2.1.5.2 1 .5 1.4.3.4.7.7 1.2.7.2 0 .4 0 .6-.1v2.6c0 .9.1 1.8.4 2.7.1.2.3.4.6.4.1 0 .2 0 .3-.1-.1.6-.1 1.3-.1 1.9 0 .9.1 1.8.5 2.5v.4c0 .6-.5 1.4-1.1 2.3-.1.1-.1.2-.2.3-.5.8-1.1 1.6-1.1 2.7v.3c0 .2.1.3.2.4.1.1.3.2.5.1.2 0 .4-.1.7-.1.4-.1.7-.1 1-.1-.3.3-.7.5-1 .8-.1.1-.2.1-.2.2-.9.7-1.9 1.6-1.9 3.1v.5c0 .3.3.5.6.5h1.9s.1.1.2.5v.4c0 1-.6 2.9-.8 4 0 .4-.5 1.1-1 1.9-.5.8-1 1.7-1 2.7 0 .4.1.7.3 1.1.3.6 1 .7 1.3.7.2 0 .3 0 .4.1h.1c.1 0 .2.5.2 1.1v1c0 .4 0 .8.1 1.2.5 1.6 1 2.8 1.3 4.4 0 .3.1.6.1.9.5 2.6 1.2 5.2 1.2 7.6v.3c0 .6-.1 1-.2 1.5-.3 1.5-1.2 2.6-2.1 4.4 0 .1-.1.1-.1.2-.4.9-.6 1.9-.7 2.7-.9.1-1.9.6-2.9 1.1-1.1.7-2.1 1.5-2.7 2.3-1 1.5-2 3.4-2 5.4v.7c-.4.1-.7.3-1 .6l-.1.1c-.4.4-.6.9-.6 1.5 0 .2 0 .3.1.5 0 .2.1.3.3.4.1.1.2.1.3.1h.2c.3-.1.7-.2 1-.3.7-.2 1.3-.3 2-.4 1.8.5 3.7.9 5.3 1.4v1c0 .2.1.4.3.5.1.1.2.1.3.1.1 0 .2 0 .3-.1.4-.2.8-.6 1.2-.8.1-.1.3-.2.4-.3v.1c0 .3.3.6.6.6s.5-.2.6-.4c.4.1.8.2 1.3.2h.5c1.8-.1 3.9-.9 5-1.9 1.6-1.5 2.1-4.1 2.8-5.8.8-2 1.4-4 2.2-5.9 1.8 2.2 4.6 2.9 7.3 3.3 2.8.4 5.5.6 7.4 1.5.1 0 .2.1.2.1-.3 1-.8 2-1.3 2.8-.1.2-.3.5-.4.7-.1.2-.1.3 0 .5-1.6 1.1-2.6 2.9-2.6 4.8 0 1 .3 1.9.9 2.8 0 .1-.1.1-.1.2-.2.5-.2 1-.2 1.5v.9c0 .2.1.4.3.5.1.1.2.1.4.1h.2c.6-.2 1-.6 1.4-1 .3.4.7.7 1.1.9.1.1.3.1.4.2.6.2 1.2.3 1.7.5h.2c.2.5.5 1 1 1.3.1 0 .2.1.3.1.1 0 .2 0 .3-.1.2-.1.3-.3.3-.6 1.2.5 2.5.6 3.6.6 1.3 0 2.5-.2 3.8-.3.1 0 .2 0 .2-.1l.3.6c.1.2.3.4.5.4h.1c.2 0 .4-.1.5-.2.1-.1.1-.2.2-.3.2 0 .4-.1.5-.2.3-.5 1.1-.6 2.2-.8.5-.1 1-.3 1.5-.8.5-.4.8-1.1.9-2 0-.3.1-.6.1-.9 0-1.1-.2-2.3-.7-3.4h.1c.3-.1.5-.5.4-.8-.3-1-.4-2.3-.6-3.5h.1c.3 0 .5-.1.6-.4.1-.2.2-.4.2-.5l.1.1c.8.5 2.2 1.2 3.3 1.2h.1v.2c0 .3 0 .5.1.8.1.3.4.6.8.7h.3c.4 0 .8-.2 1-.4.4-.3.8-.7 1.2-1 .3-.2.5-.4.6-.4 0 .2-.1.6-.1 1.1 0 .4.1.9.5 1.3.2.2.5.2.7.2.8 0 1.2-.5 1.6-1 .1-.1.2-.3.4-.4.1.1.2.1.3.1 0 .3.1.6.2.9.1.2.3.4.6.4 0 .9.5 1.6 1.2 2.1.1.1.2.1.3.2.1.1.2.1.3.1.1 0 .2 0 .3-.1l.1-.1c.1-.1.2-.3.2-.5v-1.5c.4.4.9.7 1.5.9.9.3 1.8.4 2.7.4.8 0 1.7-.1 2.4-.1.2 0 .4-.1.5-.2l.2.2c.6.5 1.2.9 1.8 1.3.1 0 .1.1.2.1.1.1.2.1.4.1.1 0 .2 0 .3-.1l.3-.3v-.2c0-.4.1-.9.1-1.3.1 0 .1-.1.2-.1.2 0 .8-.1 1.3-.1h.8c.2.3.5.6.8.9.1.1.2.1.3.2.1 0 .2.1.3.1.1 0 .2 0 .3-.1.2-.1.3-.2.3-.4v-.2c.1-.7.2-1.3.2-2 1.6-.4 3.9-.3 5.7-.7.5-.1 1-.2 1.6-.3 2.7-.5 5.5-1 8.3-1.8 2-.6 4.5-1.5 6.7-3 .8-.5 1.5-1.1 2.1-1.8 1.1-1.2 1.9-2.6 2-4.3 1.1.2 1.1 0 1.1-.1zm-32.2-151c-1.6 0-3.1.2-4.7.8-.7.3-2.2 1-3.6 1.7-.6.4-1.3.8-1.8 1.2-.1-1.2-.3-2.7-.7-4.1-.3-1.1-.7-2.2-1.2-3-.3-.5-.8-1-1.3-1.3.1 0 .2-.1.2-.2 1.1-.5 2.1-1.2 3.1-1.4.3-.1.6-.1.8-.1.4 0 .7.1 1.3.4.9.4 1.6.6 2.3.6.7 0 1.4-.2 2.2-.5.3.8.9 1.3 1.5 1.5.6.2 1.3.2 1.9.3.1 1.1.7 2 1.3 2.7.1.1.1.1.1.2-.4.2-.9.7-1.4 1.2zM85.1 170c.3.2.6.5.9.7l-.9-.6c-.1-.2-.2-.3-.4-.5l.4.4zm-4.5-.9c0 .1 0 .1 0 0 1.4 1.3 2.7 2.6 3.9 3.9-1.5-1.3-3.2-2.5-4.9-3.6-.3-.2-.5-.3-.7-.4h.1c.2-.1.2-.3.2-.5v-.3c.5.4 1 .7 1.4.9zm-2.3-1.9c0-.1-.1-.1 0 0-.1-.1 0-.1 0 0zm-60.6 24.3c.4-.5 1.6-.7 2.4-.7 0 .1.1.2.1.3H20c-.2-.1-.4 0-.6.1-.5 0-1.1.2-1.7.3zm10.3 1.4c-.5.1-.9.4-1.2.6 0-.4.1-.9.2-1.3.1-.3.2-.6.3-.7.1-.2.2-.2.4-.2.1 0 .1 0 .2.2.1.3.1.7.1 1.2v.2zm20.4-9.6c-2.7-.4-5.1-1.1-6.6-2.9-.1-.1-.2-.2-.4-.2.1-.2.3-.5.4-.7 1.4-2.3 3-4.4 4.7-6.6.5-.6.9-1.3 1.2-2v.6c0 1.2.1 2.5.6 3.6.4 1.1 1.2 2 2.5 2.4h.2c.2 0 .4-.1.5-.3.2-.2.1-.5-.1-.8-1.4-1.6-1.7-3.6-1.7-5.9v-.6c.1.2.2.4.4.5.8 1.1 1.6 2.1 1.8 3 .1.3.4.5.8.4.3-.1.5-.4.4-.8-.3-1.4-.8-2.7-1.1-4 .3.5.6.9.9 1.2.3.3.6.6 1.1.6.2 0 .4-.1.6-.2.3-.2.3-.6.1-.9-.2-.2-.4-.3-.7-.2l-.7-.7c-.5-.7-1.1-1.6-1.5-2.5l-.3-.6c0-.3-.1-.7-.2-1 .2.3.5.6.8.9.2.2.4.2.7.1l.3-.3c.3.4.6.8.9 1 .1.1.3.2.4.2.2 0 .3-.1.5-.2.2-.3.2-.7 0-.9-.5-.5-1.2-1.4-1.7-2.4s-.8-2-.8-2.7v-.1c0-.3-.2-.6-.6-.6-.3 0-.6.2-.7.6v.3c0 .3 0 .6.1.9-.4-1.1-.7-2.4-.7-3.1 0-.3-.3-.6-.6-.6s-.6.3-.6.6v2.1c-.1-.6-.2-1.2-.2-1.7v-.8c0-.3-.3-.6-.6-.6s-.6.3-.6.6v3c-.6-1.2-1.1-2.5-1.3-3.4-.1-.3-.4-.5-.7-.5-.3.1-.5.4-.5.8.5 2 1.8 4.9 3.3 6.8.2.4.5.8.9 1.2l-.1.1c-.1 0-.1-.1-.2-.1-.1-.1-.2-.2-.3-.2-.3-.1-.7.2-.7.5-.1.4-.2.9-.3 1.5-.2.3-.4.7-.7 1.1-.7 1.2-1.3 2.4-1.9 3.1-1.7 2.2-3.4 4.3-4.8 6.7-1.5 2.5-2.2 5.3-3.2 7.9-.7 1.8-1.3 4.3-2.5 5.3-.7.7-3.2 1.6-4.7 1.6-.4 0-.7-.1-.9-.1H29v-.6c0-.5 0-1.1-.2-1.6-.1-.4-.5-.9-1.1-1 .3-1.3 1.7-2.5 2.9-2.5.4 0 .8.1 1.2.4.3.2.7.1.9-.1.2-.3.1-.7-.1-.9-.6-.4-1.3-.6-1.9-.6-2.1 0-3.8 1.7-4.2 3.7v.4c-.2.1-.3.2-.4.4-.4.5-.6 1.1-.7 1.8-1.3-.4-2.7-.8-4.1-1.1v-.1c0-.4-.1-.8-.3-1.2 0-.3-.2-.6-.5-.6-.4-.3-.8-.5-1.3-.5h-.3c0-1.6.9-3.2 1.8-4.6.4-.6 1.3-1.4 2.3-2 1-.6 2.1-1 2.8-1 .3 0 .6-.2.6-.5.1-1 .3-2.1.7-2.8 1.1-2.2 2.5-3.6 2.5-6.6v-.4c-.1-2.9-1-5.9-1.4-8.7-.3-1.8-.8-3.1-1.3-4.6-.1-.1-.1-.5-.1-.8v-1c0-.6 0-1.3-.5-1.9-.4-.5-1-.5-1.2-.5-.3 0-.3-.1-.4-.1-.1-.1-.1-.3-.1-.4 0-.5.4-1.2.8-2 .5-.8 1-1.5 1.2-2.4.2-.9.8-2.9.8-4.2 0-.2 0-.5-.1-.7-.1-.5-.3-.9-.6-1.1-.3-.3-.7-.3-1.1-.3h-.9c.1-.5.3-1 .8-1.4.2-.2.4-.3.6-.5.8-.6 1.9-1.2 2.3-2.4.1-.2 0-.4-.1-.5-.1-.2-.3-.3-.5-.3h-.6c-.6 0-1.2.1-1.8.2.2-.5.5-1.1 1-1.7.5-.7 1-1.5 1.2-2.4h.3c.4 0 .8-.2 1-.4.4-.3.6-.7.8-1 0-.1.1-.1.1-.2 1 2.1 1.5 4.6 3.2 6.7.6.7 1.1 1.1 1.8 1.1s1.2-.5 1.5-.9c.1-.1.1-.2.2-.2 0 .8.1 1.7.2 2.5.3 1.5.8 3 2.2 3.8.3.2.7.3 1.1.3.9 0 1.5-.7 2-1.3.1-.1.1-.2.2-.3.2 1.1.5 2.2.9 3.2.7 1.7 1.9 3.2 4 3.6.3.1.6-.1.7-.4.2-.4.3-.8.5-1.2.1.8.1 1.8.3 2.7.2 1.1.4 2.1.8 2.9.4.8 1.1 1.5 2.1 1.5h.1c.3 0 .6-.2.6-.6.1-.5.2-1 .4-1.5 0 .7-.1 1.4-.1 2.1 0 1.2.1 2.4.4 3.4.3 1 .9 1.9 2 2.2.3.1.6-.1.7-.3l.3-.6v.5c0 .6 0 1.2.2 1.7.1.5.3 1 .9 1.2.1.1.3.1.4.1.7 0 1.1-.5 1.4-1 0-.1.1-.1.1-.2v1.2c-.1.2-.2.3-.3.5-1 1.8-1.2 3-1.2 5 0 1.4-.2 2.8-.2 4.3 0 .4 0 .8.1 1.3.1 1.2.6 2.5.7 3.5v.3c0 .6-.1.7-.3 1-.2.3-.7.6-1.1 1.2-1.1 1.3-.8 2.7-.9 3.8v.1c-1.8-1.3-4.7-1.5-7.3-1.9zm2.5-19.6c0 .1.1.2.1.2h-.1v-.2zm-.4 3.3c.1 0 .1 0 0 0 .1.5.1 1 .2 1.5 0 .3.1.6.2.9-.4-.7-.8-1.3-.9-1.9.1-.2.3-.4.5-.5zm3.2 31.9c-.1.1-.1.2-.2.2 0-.3.1-.6.1-.8.1-.3.2-.4.3-.4.1-.1.3-.2.3-.3h.1s.1 0 .1-.1c.1 0 .2.1.3.1.1.1.2.2.2.4-.2.1-.3.2-.5.2l-.7.7zm5.1 1v-.5c.4.2.8.3 1.1.5l-.6.6c-.1.1-.3.3-.4.5 0-.4-.1-.8-.1-1.1zm9.5 1.4c-.3-.6-.7-1.1-1.1-1.6.1-.1.2-.2.3-.4l.2-.2c.1.1.2.3.3.4.2.3.3.5.3 1v.8zm4.5-2.4c-.1.7-.3 1-.5 1.2-.3.3-.9.5-1.6.6-.3.1-.7.2-1.1.3v-.6c0-.7-.3-1.3-.6-1.7-.3-.4-.6-.7-.9-1.1l-.1-.1c-.1 0-.2-.1-.2-.1-.1 0-.3 0-.4.1-.1.1-.2.3-.2.4 0 .1-.1.3-.4.6-.2.3-.6.6-.8 1.1-.1.2 0 .5.2.7.3.3.6.6.9 1-1.2.1-2.3.3-3.3.3s-2-.1-3-.4c.3-.3.6-.6.9-1 .2-.3.1-.6-.1-.8-.6-.5-1.2-.8-1.8-1 .1-.2.1-.4 0-.6-.2-.3-.5-.4-.8-.3-.2.1-.4.3-.5.4-.1 0-.1.1-.2.2s-.1.3-.1.4c-.2.4-.2.9-.2 1.4v.3c-.5-.1-.9-.2-1.3-.3-.4-.2-.7-.3-.9-.7h.1c.3 0 .5-.2.6-.5v-.5c0-.6-.3-1.2-.7-1.5-.3-.2-.7-.4-1.1-.4h-.4c-.2 0-.5.1-.6.3v.1c-.3-.5-.4-1.1-.4-1.6 0-1.4.8-2.9 1.9-3.7 0 0 .1 0 .1-.1 1.2-.9 3.5-1.3 5.6-1.3 1.2 0 2.3.1 3.2.4 2.2.6 5.1 1.8 6.9 2.9 1.3.8 2.3 3.1 2.3 5-.5.1-.5.4-.5.6zm14.5-5.7v-.3c.1-.2.1-.4.2-.4-.1.2-.1.5-.2.7 0 .1 0 0 0 0zm8.5-.4h2c-.1.6-.2 1.2-.2 1.9-.3-.2-.7-.5-.9-.7-.5-.5-.8-.8-.9-1.2zm4.6.3c-.4 0-.9 0-1.2.1h-.1c0-.3.1-.5.1-.8 0-.2 0-.4-.1-.5-.1-.1-.3-.2-.5-.2H96c0-.2-.2-.4-.4-.5-.3-.1-.7 0-.8.3 0 .1-.1.1-.1.2H94c-.3 0-.6.2-.6.5-.1.3.1.6.4.7.1 0 .3.2.6.3h.1c0 .2.1.4.2.6h-2.1c-.8 0-1.7-.1-2.3-.3-.5-.2-.8-.4-1.1-.7.1 0 .4-.1.5-.2.1-.2.1-.3.2-.4 0-.2 0-.3-.1-.5l-.1-.1c.2-.2.2-.5 0-.7-.2-.3-.6-.4-.9-.2-.2.2-.4.3-.6.5h-.5c-.3 0-.7.1-1.1.4l-.2.2c0-.1 0-.3-.1-.4.1-1.7 1.9-3.8 3.4-4.7 2-1.3 5.1-2.2 8-2.2 2.4 0 4.6.6 6 2.2.7.8.9 1.3.9 1.7 0 .6-.6 1.4-1.5 2.2l-.4.4c-.1 0-.2-.1-.3 0-.8 0-1.5.4-1.9 1h-.1c-.3.1-.5.4-.4.8.1.2.1.3.2.5.3-.2.2-.2.2-.2z"/><path fill="#412C28" d="M93.2 142.5c.4.1.7.2 1 .5.3.3.6.7 1 1.2 1.3 1.5 2.9 2.9 4.8 3.9.1 0 .2.1.3.1.2 0 .4-.1.5-.2.2-.2.2-.6 0-.8-1-1.1-1.3-2.4-1.6-3.7 0-.2-.1-.5-.1-.7.6.6 1.2 1 1.8 1.3.2.1.5 0 .7-.1.2-.2.2-.4.2-.7-.9-2.3-1.6-4.5-1.6-6.9l.2.2c.4.5.8 1.4 1.2 2.3.4.9.7 1.8 1.4 2.4.2.1.4.2.6.2.2 0 .4-.2.4-.4.2-.5.2-1 .2-1.6 0-1.8-.5-4-.5-5.7 0-.7.1-1.2.3-1.6.4.7.7 1.8 1 3 .2.8.4 1.5.7 2.2.3.7.8 1.3 1.6 1.5.2.1.4 0 .5-.1.2-.1.3-.3.3-.5v-.8c0-1.2-.2-2.4-.5-3.5.3.9.8 1.8 1.6 2.3.3.2.7.1.9-.2.2-.3.1-.7-.2-.9-.5-.3-1-1.3-1.4-2.5-.4-1.2-.7-2.5-1.6-3.5-.2-.2-.4-.3-.7-.2-.2.1-.4.3-.4.6v.6c0 2.4.8 4.6 1 6.7 0-.1-.1-.1-.1-.2-.4-.7-.6-1.9-.9-3-.3-1.1-.7-2.3-1.6-3-.2-.2-.5-.2-.8 0-.9.7-1.1 1.9-1.1 3 0 1.6.4 3.6.5 5-.2-.4-.4-.9-.6-1.3-.3-.6-.6-1.2-1-1.7s-1-.9-1.7-.9c-.3 0-.6.3-.6.6v.8c0 1.9.4 3.7 1 5.5l-.4-.4-.9-1.2c-.1-.4-.3-.7-.5-1.1-.1-.3-.5-.4-.8-.3-.3.1-.5.4-.4.7.1.4.2.8.5 1.2.3.9.4 1.9.6 3 .1.7.2 1.3.5 2-.8-.7-1.6-1.4-2.3-2.2-.3-.4-.6-.8-1-1.3-.4-.4-1-.8-1.7-.9-.3 0-.7.2-.7.6-.2.3.1.6.4.7zM50.7 50.3c.4.3.9.4 1.3.4.8 0 1.5-.3 2.2-.5.2-.1.4-.2.6-.2-.1.1-.1.3-.1.4-.1.3.1.7.4.8h.2c.3 0 .5-.2.6-.4.2-.6.9-1.9.9-3.1 0-.5-.1-1-.5-1.4-.4-.4-.8-.5-1.3-.6-.5-.1-1-.1-1.5-.1-.9 0-1.7.1-2.3.4-1 .5-1.5 1.6-1.5 2.6 0 .4.3 1.2 1 1.7zm3.6-3zm-1.1 0h.3c-.1 0-.1.1-.1.1-.1.1-.2.2-.2.4-.1-.2 0-.4 0-.5zm-1.5-.5c.1 0 .2-.1.3-.1-.1.4-.2.8-.2 1.2 0 .4.1.9.4 1.2l.2.2c-.2 0-.4.1-.6.1-.2 0-.4 0-.6-.2-.3-.2-.4-.5-.4-.9.1-.6.5-1.3.9-1.5zm20 2.9c-.9.5-1.3 1.4-1.3 2.2 0 1.5 1 2.9 1.3 3.6.1.3.5.5.8.4.3-.1.5-.5.4-.8-.1-.2-.2-.4-.2-.5.1.1.2.2.3.2 1.1.7 2.3 1.3 3.3 1.3.3 0 .7-.1 1-.3.3-.2.5-.6.5-1 0-.6-.3-1.2-.7-2-.3-.5-.9-1.3-1.6-2-.7-.7-1.6-1.3-2.6-1.3-.5-.1-.9 0-1.2.2zm4.7 5c0 .1-.1.1-.2.1-.3 0-1-.2-1.6-.5l.1-.1.3-.3s0-.1.1-.1c.2-.3.4-.6.4-.9.2.2.3.4.4.6.4.6.5 1 .5 1.2zm-1.9-3c-.4 0-.8.1-1.1.3 0-.3.1-.6.1-.7.1-.2.1-.3 0-.5.3.2.6.5 1 .9 0-.1 0 0 0 0zm-6.6 30.9c-.1.3.1.7.5.8.1 0 .2.1.3.1l.3.3c.6.8.8 2.8.7 4.4V90c0 .3.3.6.6.6s.6-.3.6-.6v-.3c0-.8.2-1.5.4-2.4.1-.4.1-.7.1-1.1 0-.8-.1-1.6-.1-2.3 0-.6.1-1.2.3-1.5 0-.1.1-.2.1-.2.1.1.3.3.6.5 1.3 1.2 2.3 2.8 3.6 4.2.2.2.5.3.7.2.2-.1.4-.3.4-.6 0-1.7-.4-3.4-.7-5 0 0 0 .1.1.1.8.9 1.7 1.6 2.6 1.9.2.1.4 0 .5-.1.2-.1.3-.3.3-.5v-.7c0-1.8-.5-3.5-.7-5.1.2.4.5.9.8 1.3.8 1.2 1.6 2.5 2.9 2.9.2.1.4 0 .5-.1.2-.1.2-.3.3-.5v-.1c0-1.3-.4-2.4-.9-3.6.5.6 1.2 1 2 1.1.2 0 .3 0 .5-.1.1-.1.2-.3.2-.4v-.3c0-1.7-1-3.4-1.5-4.7 1.1 1.2 2.2 2.4 3.2 3.4.2.2.5.2.7.1.2-.1.4-.4.3-.7-.3-1.2-.9-2.3-1.5-3.4.5.4 1.1.7 1.7.7.3 0 .6-.3.6-.6s-.3-.6-.6-.6c-.2 0-.6-.2-1.1-.5-.9-.7-2-2-2.7-3.1-.2-.5-.5-1.1-.8-1.6-.2-.3-.5-.4-.8-.2-.3.1-.4.5-.3.8.2.5.4 1 .8 1.6.3.8.6 1.6 1.1 2.4.2.5.5 1 .8 1.4-1-1.1-2-2.3-2.6-3.5-.1-.1-.1-.2-.2-.4-.2-.3-.5-.4-.8-.2-.3.2-.4.5-.3.8.1.1.1.2.2.4.5 1 .7 2.4 1.1 3.6.4 1.1 1.1 2.4 1.3 3.5-.5-.4-1-1-1.4-1.8-.7-1.2-1.3-2.7-1.6-3.5-.1-.3-.4-.4-.7-.4-.3.1-.5.3-.5.6v.3c0 1.7.7 3.3 1.3 4.8.5 1.1.9 2.1 1.1 3-.4-.4-.8-1-1.2-1.7-.7-1.2-1.4-2.5-2.1-3.4-.2-.2-.4-.3-.7-.2-.2.1-.4.3-.4.5v.7c0 2.3.8 4.4.8 6.4-.4-.3-.9-.7-1.2-1.1-.7-.7-1.2-1.6-1.3-2.2-.1-.3-.3-.5-.7-.5-.3 0-.6.3-.6.6v.2c0 2 .5 4 .8 5.8-.7-.9-1.5-1.9-2.4-2.7-.3-.2-.5-.5-.7-.6-.2-.2-.4-.4-.8-.4s-.6.2-.8.4c-.2.2-.3.4-.4.7-.2.5-.3 1-.4 1.5l-.1-.1c-.2-.4-.6-.7-1-.9-.1-.1-.2-.1-.4-.1-.2-.3-.6-.1-.7.2zm19.7-29.5c.7.9 1.8 2 2.3 2.5.7.7 1.8 1.8 3 2.8 1.2 1 2.5 1.8 3.8 2h.1c.2 0 .4-.1.5-.2.1-.2.2-.4.1-.6-.6-2.1-2.5-4.1-3.5-5.8-.4-.6-.7-1.4-1.2-2.2 2 1.1 4.1 2 5.7 3 .3.2.6.1.8-.1.2-.2.2-.6 0-.8-1.9-2-4-4.3-5.7-6.7 1.4 1 2.8 2.1 4.3 2.9.3.1.6.1.8-.1.2-.2.2-.5 0-.8-.9-1.3-2.5-2.4-3.9-3.6-.9-.8-1.7-1.5-2.2-2.3.3.2.7.5 1.1.8.7.5 1.4 1.2 2.4 1.4v.1c0 .3.3.6.7.6.3 0 .6-.3.6-.7v-.6c-.1-.3-.3-.5-.5-.5-.7-.1-1.5-.6-2.3-1.3-.8-.6-1.7-1.4-2.9-1.6-.2 0-.4 0-.6.2-.1.1-.2.3-.2.5.1.8.5 1.6 1 2.3-.1-.1-.3-.2-.4-.3-.2-.2-.6-.1-.8.1-.2.2-.2.5-.1.8 1.5 2.4 3.5 4.8 5.5 7-1.7-.8-3.4-1.7-4.8-2.7-.4-.5-.9-.9-1.4-1.2-.3-.1-.6-.1-.8.2-.2.2-.2.6 0 .8.4.4.8.8 1.3 1.1 1 1.2 1.9 3.2 2.6 4.4.8 1.4 2.1 2.9 2.9 4.3-.6-.3-1.3-.8-1.9-1.3-1.1-.9-2.2-2-2.9-2.7-.4-.4-1-1-1.5-1.6-.3-.3-.5-.6-.7-.8-.1-.1-.2-.2-.2-.3V52c-.1-.3-.4-.6-.7-.5-.3.1-.6.4-.5.7-.2.4 0 .6.2.9zM34.4 64.4c.2.1.4.1.6 0 1.5-1 3.4-1.9 5.2-2.6-.6.4-1.3.7-1.9 1.1-.8.5-1.7 1-2.3 1.7-.6.6-1.1 1.4-1.1 2.4v.3c0 .2.1.4.3.5.2.1.4.1.6 0 1.8-1 3.6-2.4 5.3-2.8-.5.7-1.4 1.2-2.5 1.8-1.4.8-3.1 1.5-4 3-.1.2-.1.5.1.7.2.2.5.3.7.1 1.7-.9 3.3-2.3 4.9-3-.3.5-.8 1.1-1.4 1.7-.9 1-2 2-2.4 3.4-.1.3.1.6.3.7.3.1.6 0 .8-.2.6-1.1 2.5-2.3 4-3-.3.6-.8 1.1-1.3 1.7-.8 1-1.8 2.1-1.9 3.7 0 .3.2.6.5.7.3 0 .6-.2.7-.5.2-1.1 1.4-2.4 2.6-3.2-.2 1-.8 2.1-1.6 3.1-1 1.3-2.1 2.5-2.7 3.9-.1.3 0 .7.3.8.1 0 .2.1.2.1.2 0 .5-.1.6-.4.5-1.1 1.6-2.3 2.6-3.6 1-1.3 1.9-2.8 2-4.5v-.6c0-.2-.2-.4-.3-.5-.2-.1-.3-.1-.5 0 .3-.5.5-1 .6-1.5 0-.2 0-.4-.2-.6-.2-.1-.4-.2-.6-.1-.6.2-1.2.4-1.9.8.7-.8 1.2-1.6 1.3-2.6 0-.2-.1-.4-.2-.5.5-.5.8-1 1-1.7 0-.2 0-.4-.1-.5-.1-.1-.3-.2-.5-.2h-.1c-2.1 0-3.9 1.2-5.4 2.3l.3-.3c.8-.8 2.1-1.5 3.3-2.2 1.2-.7 2.4-1.4 3.1-2.4.1-.2.1-.5 0-.7-.1-.2-.4-.3-.6-.3-2.4.4-5.1 1.4-7.2 2.7.1-.3.3-.6.6-1 .7-.9 2-1.7 3.2-2.5 1.2-.8 2.4-1.6 3.1-2.6.2-.3.1-.7-.2-.9-.3-.2-.7-.1-.9.2-.6.9-2.4 2-4 3.1-.8.6-1.6 1.2-2.3 1.9-.6.7-1.1 1.6-1.1 2.6v.5c.1-.3.2-.1.4 0zm34.1-16c.1.2.2.3.4.4.1.1.2.2.3.2h.2c.2 0 .4-.1.5-.2.6-.1 1.2-.3 1.8-.5.7-.3 1.4-.5 1.9-.5h.1c.3 0 .6-.2.7-.6 0-.3-.2-.6-.6-.7h-.2c-.4 0-.7.1-1.1.1.5-.3 1.1-.5 1.6-.7.3-.1.4-.4.4-.7s-.3-.5-.5-.5h-.9c.1 0 .1-.1.2-.1.2-.1.4-.4.3-.6 0-.3-.2-.5-.5-.5h-.4c-1 0-1.9.6-2.7 1.4-.8.8-1.5 1.6-1.5 2.5 0 .1 0 .3.1.4-.1.2-.2.4-.1.6zm-14-6.3s.1 0 0 0c.3.1.9.6 1.5 1.2s1.2 1.3 1.5 1.6c.3.4.5.6.5.8.1.2.1.6.1 1.2 0 .3.3.6.6.6s.6-.3.6-.6v-.3c.1.1.3.1.5.1.3-.1.5-.4.5-.7v-.1c.2 0 .4-.1.5-.3.1-.2.2-.4.2-.6 0-.3-.1-.5-.2-.6-.1-.1-.1-.2-.1-.2-.1-.2-.3-.3-.5-.3-.1-.1-.2-.3-.2-.4-.3-.9-.9-1.6-1.5-2.3-.2-.2-.6-.3-.9-.1-.3.2-.3.6-.1.9.1.1.1.2.2.2-.9-.6-1.8-1-2.7-1.2h-.5c-.3 0-.5.2-.5.5s.2.6.5.6zM90 96.6c-.3.2-.5.3-.7.3-.6 0-1.5-.8-2.4-1.8-.4-.5-.9-1-1.3-1.4-.4-.4-.9-.8-1.5-.9-.3 0-.6.1-.7.4-.3.7-.3 1.5-.3 2.3 0 .8.1 1.6.1 2.3 0 .8-.1 1.4-.3 2-.7-.4-1.2-1.1-1.6-2-.5-1.1-.9-2.4-2-3.3-.2-.2-.5-.2-.7-.1-1.4.8-1.8 2.4-1.9 4-.1 1.1-.1 2.2-.2 3-.2-.5-.4-1.2-.5-1.9-.1-.8-.2-1.5-.5-2.2-.2-.2-.5-.3-.8-.3-.3 0-.5.3-.5.5-.2 1.8 0 3.9-.4 5.3-.6-.3-1-.9-1.5-1.8-.6-1.1-1-2.4-1.6-3.3-.1-.2-.4-.3-.6-.3-.2 0-.4.2-.5.4-.2.7-.3 1.5-.3 2.2 0 .8.1 1.6.1 2.4v.4c-1.1-1.4-1.9-3.4-3.2-4.9-.1-.2-.3-.2-.5-.2s-.4.2-.5.3c-.7 1.3-.9 2.8-1.1 4.2-.2 1.1-.5 2.1-1 2.9-.3-.6-.5-1.5-.7-2.5-.2-1.4-.2-2.9-.7-4.1-.1-.2-.2-.3-.4-.4-.2-.1-.4 0-.5.1-1.9 1.1-3 3.4-4 5l-1.1 2.2c0 .1-.1.1-.1.2.3-1.6.9-3.3.9-5.1v-.7c0-.3-.2-.5-.5-.6h-.3c-1 0-1.8.5-2.5 1.1-.7.6-1.4 1.2-1.8 1.6-.6.5-1.1 1-1.7 1.5.3-1.2.4-2.4.4-3.8 0-.3-.3-.6-.6-.6s-.6.2-.7.6c-.2 1.8-1.4 2.9-3.1 3.8-.3.1-.5.2-.8.4.3-.3.7-.6 1-.9 1.5-1.5 2.6-3.4 2.6-5.8V97c0-.3-.3-.6-.6-.6s-.6.3-.6.6v.1c0 2-.9 3.5-2.2 4.9-1.3 1.4-3.1 2.5-4.8 3.7-.3.2-.4.5-.2.8.2.3.5.4.8.3 1.5-.7 3.6-1.3 5.4-2.2.8-.4 1.5-.9 2.1-1.5-.3 1.2-1 2.2-2.2 3.3l-.2.2c-.3.2-.3.6 0 .9.2.3.6.3.9.1.1-.1.3-.2.4-.4 1.6-1.4 3.3-2.7 4.9-4.2.5-.4 1.1-1 1.7-1.5.5-.4 1-.7 1.4-.8 0 2-1 4.1-1 6.4v.6c0 .2.1.4.3.5.1.1.2.1.3.1h.2c.8-.4 1.2-1.2 1.7-2 .4-.8.8-1.7 1.1-2.1.9-1.4 1.8-3.1 2.9-4.1.2.8.2 1.9.4 3 .2 1.4.4 2.9 1.5 3.9.3.2.6.2.9-.1 1-1.1 1.4-2.6 1.7-4.1.2-1 .4-2.1.6-2.9 1.1 1.6 1.9 3.7 3.6 5.1.2.1.4.2.6.1.2-.1.4-.2.4-.5.1-.6.2-1.3.2-1.9 0-.8-.1-1.6-.1-2.3.2.4.4.9.6 1.3.6 1.2 1.4 2.4 2.9 2.6.3 0 .5-.1.6-.4.3-.6.4-1.3.5-2 0 .1.1.2.1.2.3.5.7.9 1.3 1.1.3.1.7-.1.8-.4.4-1.2.3-2.8.4-4.3.1-1.2.4-2.2.9-2.7.5.6.9 1.6 1.3 2.5.5 1.1 1.3 2.4 2.9 2.9.3.1.5 0 .7-.3.6-1 .7-2.1.7-3.1 0-.8-.1-1.6-.1-2.3 0-.4 0-.8.1-1.2l.3.3c.6.5 1.2 1.4 1.9 2.1.7.7 1.5 1.4 2.6 1.4.5 0 1-.2 1.5-.6.3-.2.3-.6.1-.9 0-.2-.4-.2-.7 0zM77.1 118c-.1-1 0-2.2-.8-3.2-.1-.2-.3-.2-.6-.2-.2 0-.4.2-.5.3-.6 1.2-.7 2.5-.9 3.6-.1 1-.3 1.9-.6 2.6-.2-.2-.4-.4-.5-.7-.5-.8-.8-2-1.1-3.3-.3-1.2-.6-2.4-1.1-3.2-.1-.2-.3-.3-.5-.3s-.4.1-.5.3c-.5.9-.6 2-.6 3 0 .8.1 1.6.1 2.3 0 .4 0 .7-.1 1 0 .3-.2 1.2-.4 2-.1.4-.2.8-.4 1-.1.1-.1.2-.2.2s-.4-.1-.7-.7c-.5-.8-.9-2.2-1.2-3.5-.3-1.3-.5-2.5-.7-3.1-.1-.2-.2-.3-.4-.4-.2-.1-.4-.1-.5 0-1.5.9-2 2.6-2.2 4.3-.1-1.1-.3-2.2-1-3.2-.1-.2-.3-.3-.5-.3s-.4.1-.5.3c-.3.5-.5 1-.6 1.6 0-.2 0-.3-.1-.5-.1-.3-.3-.5-.6-.5s-.6.2-.6.5c-.2 1-.7 3.5-1.5 5.8-.4 1.1-.9 2.2-1.4 2.9-.5.7-1 1-1.4 1v-.3c0-1.5.7-3.1 1.4-4.7s1.5-3.4 1.5-5.3c0-.3 0-.6-.1-.9 0-.2-.2-.4-.4-.5-.2-.1-.4-.1-.6 0-.8.5-1.6 1.2-2.4 2v-1c0-.2-.1-.4-.3-.5-.2-.1-.4-.1-.6-.1-.6.2-1.1.6-1.6 1 0-.1.1-.2.1-.2.1-.3 0-.5-.2-.7-.2-.2-.5-.2-.7 0-2.1 1.5-3.6 3.8-5.2 5.5-.9.9-1.8 1.8-2.8 2.7.7-1.1 1.4-2.2 2.2-3.3 1.4-2.1 2.6-4.4 2.6-6.8v-.8c0-.3-.4-.6-.7-.5-.3 0-.6.4-.5.7v.7c0 2-1.1 4-2.4 6.1-1.3 2.1-2.9 4.1-3.7 6.3-.1.3 0 .6.2.7.2.2.5.2.8 0 1.9-1.4 3.6-3.1 5.2-4.8 1-1.1 2-2.3 2.9-3.4-.3.7-.7 1.4-1 2.2-.5 1.1-.9 2.2-.9 3.3v.5c0 .3.3.6.7.6.3 0 .6-.3.6-.6 0-1.1.3-2.1.8-3.2.2-.5.5-1 .8-1.4.7-1 1.5-1.9 2.3-2.5-.2 1.1-.7 2.2-1.3 3.3-.3.5-.5 1-.8 1.4-.7 1.3-1.3 2.8-1.3 4.4v.6c0 .3.3.6.7.6.3 0 .6-.3.6-.6 0-1.3.5-3 1.3-4.6.1-.2.2-.5.4-.7 0 0 0-.1.1-.1 1.1-1.9 2.5-3.6 3.8-4.7-.1 1.4-.7 2.9-1.4 4.4-.7 1.6-1.5 3.3-1.5 5.2 0 .3 0 .6.1.9 0 .2.2.4.4.5.2.1.5.1.8.1 1.1 0 1.9-.7 2.5-1.6.9-1.3 1.7-3.2 2.2-5 0 .4 0 .7-.1 1.1-.1 1.3-.7 2.8-.7 4.4v.7c0 .3.2.5.5.5h.1c.2 0 .5-.1.6-.4 1-2.1 1.2-4.4 1.4-6.5.1-1 .1-2.2.3-3.2.2.8.2 1.6.2 2.5 0 1.5 0 3.1.6 4.6.1.2.4.4.6.4.3 0 .5-.2.6-.5.4-1.4.4-3.4.6-5.3.1-1.4.4-2.5 1-3.3.2.9.5 2.2.8 3.4.3.9.6 1.8 1 2.5s.9 1.3 1.8 1.3h.2c.6-.1.9-.5 1.1-.9.6-1.1.8-2.9.9-3.4.1-.4.1-.8.1-1.2 0-.8-.1-1.6-.1-2.3v-.6c.2.7.4 1.5.6 2.3.2.8.5 1.6.9 2.3.4.7.9 1.3 1.7 1.5.3.1.5 0 .7-.2.8-1.1 1-2.4 1.1-3.6.1-.5.1-.9.2-1.3v.6c.1 1 .1 2.3 1.1 3.1.3.2.7.2.9-.1.2-.3.2-.7-.1-.9-.5-.1-.6-.9-.6-2zM43.4 80.6c-.9 2.2-2.2 4.9-2.3 7.5v.4c-.6-1.3-.9-2.8-.9-4.1 0-2.2.7-4 2.3-4.7.3-.1.4-.5.3-.8-.1-.3-.5-.4-.8-.3-2.2 1-3.1 3.4-3 5.8 0 3.4 1.6 7.1 4.2 8.4.3.1.6 0 .8-.2.2-.3.1-.6-.1-.8-1.2-1.1-1.6-2.3-1.6-3.7 0-1.2.4-2.6.8-3.9 0 .7-.1 1.4-.1 2.1 0 1.3.1 2.6.5 3.8.3.9.9 1.8 1.8 2.3-.1.5-.1.9-.2 1.3 0 .3.2.6.5.7.3.1.6-.2.7-.5.2-1 .8-2.4 1.6-3.5-.3 1.2-.9 2.4-1.1 3.9-.1.3.2.7.5.7h.1c.3 0 .6-.2.6-.5.2-1.7 1.2-3.2 1.3-5.3v-.7c0-.2-.2-.4-.4-.5-.2-.1-.5 0-.6.1-.4.3-.8.8-1.1 1.2.1-.8.2-1.6.2-2.4 0-.8-.1-1.6-.3-2.3-.1-.3-.4-.5-.7-.4-.3 0-.5.3-.5.6-.2 2.1-.1 4.2-.2 6.2-.4-.3-.6-.8-.8-1.4-.3-.9-.4-2.1-.4-3.4 0-1.7.2-3.5.2-4.9v-.7c0-.3-.2-.5-.5-.6-.4.2-.7.4-.8.6z"/><path fill="#412C28" d="M45.4 66.2c.2.7.7 1.3 1.3 2v.1c0 1.2-.2 2.6-.2 4 0 .4 0 .8.1 1.2.1 1 .5 1.7.6 2.5v1c0 .4.1.9.4 1.4.1.2.3.2.5.2-.3.7-.4 1.4-.4 2 0 .3 0 .6.1.9.2.5.5 1 .8 1.4.6.6 1.2 1 2 1.7.9.8 1.1 1.8 1.2 3.1.1 1.2.2 2.7 1.5 3.7.2.2.4.3.6.4.6.3 1.2.4 1.9.4 1.8 0 3.6-1 4.9-2 .3-.3.7-.6.9-.8 1.7-1.7 2.8-2.3 5-3.1.2-.1.3-.2.4-.4.4-1.4.6-2.8.6-4.3h.2c.1 0 .2 0 .3-.1.4-.3.8-.6 1.1-.9 1.2-1.2 1.8-2.6 2.2-4 .5-1.8.9-3.6 1.7-4.9.1.2.3.3.5.3.1 0 .2 0 .2-.1.6-.3 2 0 3.4-.7 1.3-.7 2.1-2 2.7-2.9.7-1.1 1-2.3 1.4-3.4.3-1.1.6-2.1 1.1-2.7.2-.3.2-.7-.1-.9-.3-.2-.7-.2-.9.1-.8.9-1.1 2.1-1.4 3.2-.3 1.1-.6 2.2-1.2 3.1-.6.9-1.4 2.1-2.3 2.5-.6.3-1.3.3-2.2.4-.1-.1-.3-.2-.4-.2-.3 0-.4.1-.4.2h-.1c-.4 0-.9-.1-1.3-.1h-.4c-.5.1-.9.3-1.2.6-.3.3-.5.6-.8.9-.8 1-1.9 1.6-3.3 1.9-.4.1-.8.1-1.2.1-.4 0-.8 0-1.2-.1-1.6-.3-3.1-1.1-4-2.3-.2-.2-.3-.4-.4-.7l-.3-.3v-1.7c1.2-.3 2.7-.6 4-1.4.7-.4 1.6-1 2.4-1.8.7-.7 1.4-1.6 1.4-2.8 0-.3 0-.6-.1-.9-.4-1.3-1.6-2.2-2.9-3-1.3-.7-2.8-1.1-3.9-1.2h-.5c-2.9 0-5.1 2.5-5.5 5.1v.6c0 1.3.8 2.2 1.5 2.8.7.6 1.4 1.1 1.7 1.8.1.3.5.5.8.3 0 .3-.1.9-.1 1.4 0 .3 0 .7.1 1 0 .1 0 .2.1.2-.3.2-.6.4-1 .5-.2.1-.4.1-.6.1h-.6c-1.3 0-2.8-.4-3.9-.9-.8-.3-2.2-1.3-3.4-2.4-1.2-1.1-2.1-2.3-2.2-2.9 0-.3-.3-.5-.5-.5-.2-.9-.4-1.5-.4-2 0-.8.2-1.6.9-3 .1-.3 0-.7-.3-.8-.3-.1-.7 0-.8.3-.6 1.4-1 2.4-1 3.5 0 .8.2 1.7.5 2.7-.1.4.2.6.4.6zm3.9 9.2c.1-.3.2-.6.4-.8.1-.1.1-.3.1-.4.1-.2.2-.3.2-.5.1-.1.1-.3.2-.4-.2.8-.5 1.6-.9 2.3v-.2zm-.9 2.2c-.1-.1-.1-.2-.1-.4h.3c-.1.1-.1.2-.2.4zm19.1 1.1c0 .1 0 .3-.1.4 0-.4-.1-.8-.1-1.2.1.3.2.5.2.8zm0 1.5s.1.1 0 0zm1.8-2.6c.1.1.2.2.3.2l-.3.6v-.8zm0-1.7c0-.4 0-.9.1-1.2-.1.4-.1.8-.1 1.2zm-4.1-.8c0 .1.1.2.2.3.5 1.7.8 3.7.8 5.6 0 1.4-.2 2.9-.5 4.1-2.1.8-3.5 1.6-5.2 3.3-1.1 1.1-3.2 2.5-4.9 2.5-.6 0-1.2-.2-1.7-.6-.8-.6-.9-1.6-1-2.9-.1-1.2-.3-2.8-1.6-3.9-.8-.7-1.5-1.1-1.9-1.6-.4-.4-.6-.8-.6-1.4 0-.4.1-.9.3-1.5.7-2.1 2.4-4.4 2.5-7.1 1.2.5 2.8 1 4.4 1 1 0 2.1-.2 2.9-.9 1.4 2 4 3 6.3 3.1zm-2.6-11.5c.1.4.4.7.6.8-.2.2-.5.2-.8.2-.4 0-.8-.2-1.2-.7-.1-.1-.1-.2-.1-.3 0-.2.1-.4.5-.7.3-.2.8-.4 1.2-.4-.1.2-.2.4-.2.7-.1.2 0 .3 0 .4zm-5.6-.1c.1 0 .3-.1.4-.2.3-.2.5-.5.6-.8.1 0 .2.1.3.2.1.1.2.3.2.5s-.1.4-.2.5c-.2.2-.3.2-.5.2-.1 0-.3 0-.5-.2-.2-.1-.2-.1-.3-.2zm1.5-2.2h-.1c0-.1.1-.1.1 0 0-.1 0 0 0 0zm-1.7.7c-.1.2-.1.3-.1.3h-.1c0-.1.1-.2.2-.3zm-1.1.5c-.1.1-.2.2-.2.3 0-.1.1-.2.1-.4l.1.1zm3.5 5.1s.1 0 .1-.1c0 0-.1 0-.1.1zm5-2.3c.2-.3.5-.6.7-.9.1-.1.1-.2.1-.3v-.2c.1.1.2.2.4.2-.2.2-.4.5-.6.7-.2.2-.4.3-.6.5zm-.1-4.7c-.1-.1-.2-.1-.3-.1.1 0 .2 0 .3.1zm-15.3 9.6c0 .1-.1.1-.1.2v-.3c0 .1.1.1.1.1z"/><path fill="#412C28" d="M64 69c-.2 0-.3.1-.4.2-.2 0-.3.1-.4.2-.2.3-.2.6 0 .9.2.1.3.3.7.3.3 0 .6-.2.6-.4.1-.2.1-.3.1-.5v-.2c0-.3-.3-.6-.6-.5zm1.3 1.9v.3c0 .1 0 .1.1.3 0 .1.3.4.6.4.4 0 .5-.2.5-.3.1-.1.1-.2.2-.2.2-.3.1-.7-.2-.8-.1-.2-.3-.3-.5-.3-.4-.1-.7.2-.7.6 0-.1 0 0 0 0zm1-2.9v.2c0 .2.2.6.4.7.2.1.4.1.5.1h.3c.3-.1.6-.4.5-.7-.1-.3-.3-.5-.6-.5-.1-.1-.2-.2-.4-.2-.3-.2-.6.1-.7.4zm-12.7 1.2c-.3 0-.6.3-.6.6v.2c0 .3.3.6.6.6s.6-.3.6-.6v-.2c0-.4-.2-.6-.6-.6zm1-1.9c.1-.3 0-.7-.3-.8-.2-.1-.4-.1-.5 0-.2-.1-.5-.1-.7.1-.3.2-.3.6 0 .9.2.2.4.4.8.4.3 0 .6-.3.7-.6zm-3.1-.2c0-.1-.1-.2-.1-.2 0-.1-.1-.2-.1-.3-.1-.3-.5-.5-.8-.3-.3.1-.5.5-.3.8 0 0 .1.2.1.3 0 .1.1.1.1.2v.2l.1.1c.1 0 .1.1.4.2.2 0 .4-.1.5-.2.2-.3.1-.3.1-.4v-.4z"/></svg>