<svg version="1.2" baseProfile="tiny" xmlns="http://www.w3.org/2000/svg" viewBox="35 251.9 1226.6 419"><path d="M99.8 552.9c-6.8-6.1-11.3-13.6-14.5-22.4-8.5-23.2-6.2-54.1-8.1-80.6-.2-1.6-1.2-3.1-2.9-3.6-1.6-.5-3.3 0-4.4 1.3-20.2 25.2-22.4 96.6-4.9 145.9 8.1 22.3 20.7 40.3 39.6 46 .9.3 1.8.2 2.5-.1 1.2-.4 2.1-1.4 2.5-2.7.1-.5.2-1 .1-1.4.3.5.6 1.1 1 1.6l2.3 1.6c45.1 11.4 87.9 12.3 136.9 6.2 2.1-.2 4-.4 6.1-.7.3 0 .6-.1.9-.2 1.1-.4 2.1-1.3 2.5-2.5 1.3-3.5 1.9-7.3 2.2-11.1.5-5.7.2-11.6-1.4-17.3-.5-1.5-1.8-2.8-3.3-3-13-2.1-25.8-.9-38.7-.4 3.3-6.3 7.1-13.2 10.1-20.4.1 0 .3-.1.5-.2 25.3-9.4 32.1-28.5 45.1-44.7-.4 14.2 3.2 35.8 10.3 55.4 7.1 19.2 17.7 37.2 33.4 42.6 3.2 1.1 6.4 1.8 10 1.8.4 0 .8-.1 1.2-.2 1-.4 1.8-1.1 2.3-2.1 3.3-7.2 2-15-.6-22.1-3.8-10.3-10.4-20.6-13.9-29-.2-.7-.6-1.5-.9-2.1-.5-1.3-.9-2.7-1.2-3.9-4.3-20.1-2.7-33.3 7.8-46.2.1.2.2.5.3.8 4.7 12.7 6.1 40.5 12.9 59.5 2.6 6.7 5.7 12.6 10.8 16.4 2.6 2 5.8 3.2 9.2 3.6 3.2.3 6.6-.2 10.2-1.5 2.3-.9 4.8-2 7.3-3.5 1.4-.8 2.1-2.4 2-3.9-.6-4.8-1.7-9.2-3.3-13.5-2.3-6.2-5-12-7.2-18-1.2-3.4-2.2-6.7-2.9-10.3-4.4-23.6-2.3-47.7-8.9-72.6-2.1-7.9-4.5-15.7-7-23.3-1.9-6.2-3.9-12.4-5.6-18.6-1.7-6.2-3.1-12.4-4.1-18.7-.6-4-1.1-8.1-1.4-12.1 12.8-3.8 36.6-6.7 55.8-13.7 8.3-2.8 16.2-7.2 21.8-12.9 5.4-5.6 8.6-12.6 7.8-21.3.6-.1 1.1-.2 1.7-.4 2.5-.9 4.7-2.6 6.5-4.9 4.5-1.7 7.7-3.8 9.8-6.5 2.3-2.8 2.7-6.7 1.5-9.7-1.2-2.5-3-4.9-5.2-6.9-.3-1.9-.7-3.7-1.3-5.4-5.8-15.1-23.7-21-36.3-16.5-.7.2-1.2.5-1.8.9-4.9 2.3-8.8 6.8-9.8 12.9-14.9-2.4-35.7-3.7-45.8-9.7-9.3-5.4-14.3-15-18.3-26.2-1.4-3.9-2.8-8.1-4.2-12.2-.6-1.8-1.2-3.6-1.9-5.4-.6-1.6-1.2-3.3-1.9-4.9-.5-1.3-1.7-2-3-2.3-.2 0-.4-.2-.5-.2-1.5-.1-3 .7-3.8 2-7.9 14.4-7.5 30.7-13.7 42.8-2.7 6.7-10.9 9.4-14.9 19.2-5.6-6.7-11.2-15.2-17.1-23.1-3.9-5.2-8-10.2-12.5-14.2-.9-.8-2.2-1.1-3.4-.9-1.2.2-2.3.9-2.9 2.1-.1.3-.1.5-.3.6-6.9 13.7-5.8 30.5-3.8 46.1-.2 6.8 1.1 14.1 2.6 21.4 0 .3.1.6.1.8 0 .4.2.9.4 1.3 1.6 7.7 3.2 15.1 2.9 21.7 0 .9-.2 1.8-.3 2.7-.2 1.7-.3 3.4-.9 4.9-6.4 21.1-24.5 35.1-42.6 48.9-3.9 2.9-7.8 5.9-11.7 9.1-5.7 4.5-11.6 9.3-17.7 14.2-27.3 21.8-56.4 47.1-69.6 76.9-.2-.6-.3-.9-.5-1zm-2 59.3c2.4 6.5 6 13.2 10.2 19.9-.3-.2-.7-.4-1.1-.6-14.8-4.2-26.5-19.7-34.2-40.9-14.8-39.5-14.1-97.9-3.1-126.3.7 22.4.2 47.6 7.8 68.9 3.5 9.7 8.8 18.5 16.8 25.7.9.8 2.2 1.1 3.3.9-5.5 16.2-6.4 33.6.3 52.4zm328.1-258.8c-.9 4-1.8 6.9-3 8.8-1.3.4-2.6.7-4.1 1.1h-.1c0-.3-.1-.7-.1-1-.5-5-1.2-10.2-1.5-15.3 1.9.3 4.2.9 6.2 1.9 1 .5 2 1 2.9 1.5.1.9-.1 2-.3 3zm-26.4-21.6c.8-.3 1.7-.5 2.7-.7 7.1-1.1 16.7 2.2 21.3 8.8-2.4-.7-4.8-1.2-7.2-1.3-.4-1.6-1.7-2.8-3.3-3-2.3-.3-4.8-.3-7.2-.2-4.1.1-8.2.5-12.1 1.8.9-2.6 2.9-4.1 5.8-5.4zm-4.3 13.6c2.7-1 6-1.7 9.2-1.9-.4.6-.7 1.3-1 2.1-.9 3-.6 6.4.7 9.9.7 2 1.7 4.1 3.1 6.3-.7-.6-1.4-1.3-2.2-2-4.3-4.1-8.3-9.5-10.7-14.3.5.1.8 0 .9-.1zM192.7 468.7c20.6-16.7 47.8-32.3 57.1-61.9 3.2-11.7.3-25.5-2.2-37.6-.7-6.6-1.7-13.4-2.6-20.5.2-1.8.7-3.3 1.5-4.5 1.1-2 .3-4.5-1.7-5.6-.3-.1-.4-.1-.7-.1-.6-9-.4-17.6 1.9-24.8 10 10.7 19.1 27.9 30.2 38.5 1.1 1.1 2.8 1.4 4.3.9 1.4-.5 2.5-1.9 2.7-3.4.9-11.7 9.4-11.7 16.2-24.2 5.3-11.1 6.5-23 9.6-33.2 1.4 4.1 2.7 8.3 4.2 12.5 4.2 11.7 9.9 23.5 22 30.5 13.9 7.9 36.7 8.4 50.6 11 2.8 6.4 7.8 13.8 13.7 19.5 3.7 3.3 7.8 6.4 12.2 8 2.1 13.4-7.7 20.6-24 26.9-19.5 7.1-45.1 9.7-58.6 14.6-1 .4-1.8 1.1-2.3 2.1-.4.8-.5 1.6-.3 2.3.8 27.6 12 52.3 18.5 77.1 6.1 23.2 4.2 47.1 8.8 72 .7 4.1 1.9 7.9 3.3 11.6.3.8.6 1.6 1 2.4 2.1 5.5 4.5 10.6 6.3 15.6 1.1 3 2 6 2.5 8.9-1.2.7-2.4 1.2-3.5 1.6-2.6.8-4.7 1.2-6.6 1-5.9-.4-9.1-5.4-13-14.6-6.3-17.2-7.6-44.5-12.9-59.5-1.1-2.9-2.3-5.5-4.2-7.6-.8-.9-1.9-1.3-3-1.5-1.2 0-2.3.4-3.1 1.2-15.9 16.1-19.1 34.5-13.6 57.9.4 1.7.9 3.3 1.5 4.9 3.7 10.2 11.2 21.4 14.7 31.1.2.7.2 1.2.5 1.9 1.4 4.4 2 8.3 1.2 11.6-1.1-.1-2.1-.5-3.2-.8-11.9-3.3-22.5-18.8-29.4-38.1-5.5-15.2-8.9-32.2-9.7-44.8.3-.6.5-1.3.4-2.1-.1-2.4-.4-4.9-.6-7.1-.2-2-1.7-3.4-3.6-3.7.6-.6 1.1-1.3 1.8-1.9 1.6-1.7 1.7-4.2 0-5.8-1.6-1.5-4.2-1.7-5.8 0-18.1 18.3-23 37.3-42.8 47.2 1.1-4.6 1.6-9.3 1.4-14.1-.3-3.4-1.1-6.9-2.4-10.4-5.7-14.1-16.9-30-31.1-26.4-.7.2-1.4.5-2.2 1-1.9 1.2-2.4 3.9-1.1 5.7 1.2 1.9 3.8 2.5 5.8 1.2 0 0 .3-.1.5-.2 1.7-.8 5.8.4 10 4.8 4.2 4.2 8.2 10.6 10.5 16.7 1.1 2.9 1.8 5.8 1.9 8.2.4 5.6-.7 11.4-2.7 17.4-.3.1-.5.2-.7.2-2.2.6-3.5 2.9-2.8 5.1.2.6.4 1.1.8 1.5-3.5 7.8-7.8 15.4-11.6 22.7-.7 1.3-.6 2.8.2 4.1.8 1.2 2.1 1.9 3.6 1.9 14.7-.3 28.4-1.9 41.4-.4 1.2 6.4 1.1 12.7-.6 18.6-49.2 6.4-91.1 5.7-135.7-5.3-5-7.4-8.7-14.5-11.2-21.4-22-57 39.3-102.7 86.7-140.4z"/><path d="M292.1 389.5c.6-.2 1.1-.4 1.6-.6 4-1.5 7.6-3 9.3-7 1.4-3.8.7-7.1.4-12.6-.2-2.3-2.1-3.9-4.2-3.8-2.1.1-3.7.3-5.2.8s-3.6 2.1-4.1 4.3c0 .2-.1.4-.1.6-.4-.1-.8 0-1.1.1-2.3.5-3.6 2.7-3.1 5 .7 2.4.1 5.9 1.2 10.3.3 1.1 1 2.1 2 2.6 1 .6 2.2.7 3.3.3zm28.5-23.3c.7.1 1.4 0 2-.2.5-.2.9-.4 1.3-.8 7.6-6.2 7.9-8.1 10-15.5.5-1.3.1-2.9-.8-4s-2.4-1.6-3.8-1.4c-.8.1-1.6.3-2.4.5-2.9 1-4.7 3.4-5.4 5.3-1.2.4-2.2 1.5-2.6 2.7 0 0-.1.1-.2.3-1 1.1-3.6 4.9-1.9 9.3.1.4.4 1.1.9 1.9.7 1.1 1.7 1.8 2.9 1.9zm113.8 97.5c.3 12.2 1.2 24.8 2.8 36.9.1.5.2.9.2.9 1.7 3.3 3.2 2.6 3.7 2.9 6.1.7 29-3.1 40.1-5.4.2 11.6.6 24.7 4.2 36.1.7 2.1 2.9 3.3 5 2.6 9.6-2.6 21.7-4.9 32.5-5 .4 0 .9-.1 1.3-.3.6-.2 1.1-.5 1.6-1 .8-.8 1.2-1.8 1.2-3-.3-11.8-1.6-23.9-2-35.4 9.8-1.1 20-1.7 30-2.9 2.1-.2 3.7-2.1 3.6-4.2-.3-11.3-1.2-23-2.5-34.2-.2-2.1-2-3.6-4.1-3.6-14.1-.1-26.2 2.7-38.3 4.6-2.4-15.5 1.6-31.5 1.4-48.3-.1-2.3-1.9-4-4.1-4-9.6 0-19.6.8-29.1 2.2-1.7.3-3.1 1.7-3.5 3.4-2.8 17.3-.6 35.1.8 52.5-2.1.1-4.1 0-6.2.1-7.2.2-14.4.3-21.6.4-4.3.1-8.7.1-13.1.3-2.2.3-4 2.2-3.9 4.4zm49.4 2.9c2.3-.2 3.9-2.1 3.8-4.4 0-.5-.1-.9-.3-1.4.1-.4.2-.9.2-1.3-1.3-17.1-3.4-33.8-1.4-49.1 6.8-.9 13.8-1.4 20.8-1.6-.3 15.3-4.4 31.7-.5 49.6.4 2.1 2.4 3.5 4.6 3.2 12.9-1.7 24.7-4.6 37.4-5 1 8.6 1.6 17.4 1.9 26-9.7 1.1-20 1.7-30 2.9-2.1.3-3.6 2.1-3.6 4.2.3 11.7 1.6 23.7 2 35.1-9.1.5-18.4 2.1-26.5 4.1-2.6-10.7-2.7-23.7-2.8-35.2-.1-1.4-.7-2.5-1.8-3.3-1.1-.8-2.5-.9-3.7-.5l-.2.1c-.9.4-12.2 2.6-22.3 4.2-5.1.8-10.2 1.5-13.9 1.9-.9.1-1.8.1-2.5.3-1.1-9.5-1.9-19.2-2.2-28.8 13.2-.7 26.7 0 41-1zm228.7-73.1c-2.3.9-4.7 1.9-6.9 3 .7-5.4.3-11-1.5-15.8-2.9-8.6-11.1-15.5-22.8-15.3-4.5 0-8.2.5-11.4 1.7-6.9 2.3-10.6 8.3-11 14.2-.5 6 1.2 12.2 3.4 18.4 3.2 8.8 7.9 17.6 9.8 22.7.2.5.2.6.2.6 10.8 28.1-13.3 65.8-31.1 91.5-10.9-5.3-27.7-9-40.8-4.4-7.5 2.5-13.8 9.3-14.2 19.2-.2 3.2.3 6.3 1.3 9 6.3 15.8 26.9 20.3 41.3 15.3.8-.3 1.5-.5 2.3-.9 2 9.9 4.4 19.5 5.1 29.1.1 1 .5 2 1.3 2.8 8.4 7.4 21.5 10.7 32.2 7 .1 0 .2-.1.3-.1 6.7-2.4 12.2-8.4 13.4-17.2.5-3.5 0-6.7-1.1-9.6-3.2-8.5-10.3-15.1-12.2-21.1-.5-1.5-.8-2.8-.8-4.2-.3-27.9 32.6-54.8 39-88.4 8.9.9 20.1-.6 30.8-4.4 16.5-6 33.1-19.6 25.7-40-.1-.3-.2-.7-.4-1.2-8.3-18.4-33.5-18.4-51.9-11.9zm-79.4 139c-.1 0-.2.1-.2.1-1.1.4-2.3.7-3.5 1 .7-1.2 1.4-2.4 1.9-3.6.7.1 1.3.2 2 .2 0 .8-.2 1.6-.2 2.3zm-10-13.3c1.3 0 1.5.3 1.6.5 0 .1.1.2.1.4-.6-.2-1.1-.5-1.7-.9zm-16.2 12.1c0-.4-.1-.8.3-1.6.1-.5.5-1 .9-1.6 3.2-.5 8.3-.1 13.6.5.1.4.3.8.4 1.2-1.2 1.7-2.8 3.6-4.5 5.2-.8 0-1.5-.1-2.3-.1-4.9-.5-7.8-2.3-8.4-3.6 0 .1 0 .1 0 0zm34.5 10.4c-.1-.6-.1-1.1-.1-1.7.4-.7.8-1.4 1.2-2-.4 1.2-.7 2.4-1.1 3.7zm-5.7-19.4c-.8-.1-1.7-.2-2.6-.3 0-.8-.2-1.4-.3-2.2 1.3.5 2.5.9 3.6 1.5-.1.4-.6.6-.7 1zm9.6.2c-.3.7-.6 1.5-1 2.2-.1-.2-.2-.3-.3-.4.4-.7.9-1.3 1.3-1.8zm14.9 31.1c-.2-1.7-.6-3.6-1.1-5.6.3-.3.6-.6.9-.8.2.3.4.9.7 1.7 2.1 5.2 2.2 17.6.9 20.4-.2-5.2-.7-10.5-1.4-15.7zm-6.6-30.2c.3-1.3.4-2.5.4-3.9.6-2.8 3.5-6.1 7.3-9.7-2.6 7.3-4.8 14.7-6.4 22.5-.7-3.3-1.3-6.3-1.3-8.9zM680 412c.3.8.7 1.4 1.4 1.9.3.1.4.4.6.5-1 1.3-1.9 2.6-2.7 4-.6-1.7-1.5-3.4-2.3-5.3.5-.1 1-.2 1.4-.3.5-.2 1.1-.5 1.6-.8zm4.7 14c0-.2 0-.2 0 0 0-.2 0-.2 0 0 0-.2.1-.1 0 0zm16.9-3.3c-.7.6-1.5 1.2-2.2 1.9 1.6-2.2 3.1-4.2 3.7-6.7-.1.7-.2 1.4-.3 2-.3.6-.5 1.3-.7 1.9-.2.3-.4.6-.5.9zm10.2 13.2c1.7 1.2 3.8 2.1 6.1 2.6-.1 0-.1 0-.2.1-2.1.7-3.7.6-6.2-1.2.1-.5.3-1 .3-1.5zm-4.3-30.1c2.6-.8 5-1.3 7.2-1.6-.3.4-.5.8-.9 1.2-.4.1-.9.2-1.3.4-5.2 2.1-8.3 6.5-9.3 11.5.2-1.2.2-2.6-.1-4.2-.5-1.2-1.3-2.1-2.2-2.7.2-.5.6-.9.9-1.3.6-.5 1.5-1 2-1.5 1.2-.5 2.4-1.4 3.7-1.8zm-38.6-28.6c.5-.5 1-1 1.7-1.4-.6.5-1.2.9-1.7 1.4zm-1.1 1.7c.2-.4.3-.9.6-1.3-.2.4-.3.9-.6 1.3zm15 55.9c.4 0 .8-.1 1.2-.2-.1.6-.1 1.1-.2 1.7-.3.9-.6 1.7-.9 2.7-.1-1.4 0-2.8-.1-4.2zm9.5 36.3c-3.8 7.1-8.4 14.3-12.9 21.5.5-1 .7-2.1 1.2-3 .1 0 .1-.1.1-.1 4.2-6.6 7.5-13.1 11.6-18.4zm22.9-43.1l-.1-.1c-.2-.3-.4-.8-.6-1.2-.1-.3-.2-.7-.2-1 3.4-4.1 6.1-8.8 6.1-14.5.6-.6 1.4-1.1 2.2-1.5.6-.3 1.4-.6 2.1-.9.8-.3 1.5-.5 2.3-.7.4.4.7.8 1 1.3-1.3 8.1-3.8 17.8-8.2 18.5-1.2.5-2.5.6-4.6.1zm-18.9-44.5c0-.1 0-.1-.1-.2.1.1.1.1.1.2zm-1.1-2.1c-.5-.9-1-1.6-1.6-2.5-.6-.8-1.3-1.5-2.1-2.2 1.6 1.2 2.7 2.8 3.7 4.7zm-15.2-7.8c-1.2.6-2.1 1.2-2.9 2.1-1.4-.7-3-.9-5.3-.5.3-.1.5-.3.8-.4 1.8-.7 4.3-1 7.4-1.2zm-1.3 89.2c.2 1.2.8 2 1.7 2.7-1.1 2.3-2.2 4.6-3.3 6.7-3.2 6.4-9.1 14.6-12.4 23.5-1.1 1-2.3 2-3.5 3.1 6.8-11.2 13.5-23.4 17.5-36zm-83.6 72.6c-.4-1.1-.6-2.3-.7-3.6 0 .1.1.2.1.3 1.7 3.6 4.4 6.8 7.6 9.3 2.5 2.6 5.8 4.5 9.4 5 1 .3 1.9.6 2.9.7-2.4-.2-4.8-.5-7-1.3-5.9-2-10.6-5.7-12.3-10.4zm80.3 37.5c-1.1 6.3-4.1 9.2-8.5 10.9-2.2.8-4.7.9-7.2.9 4.5-2.8 7.7-7.5 9.7-12.3 1-3.1 1.4-7.4 1.4-12 1.7 2.5 3.2 4.8 4 7.1.6 1.9.9 3.6.6 5.4zM697 461.3c0-.1-.1-.3-.3-.4-.6-.6-.8-1.4-1.2-2.1 1.5-4 2.7-8 3.4-12 .1-.1.1-.3.2-.4.5.2 1 .5 1.6.5h.1c-.6 4.8-2 9.5-3.8 14.4zm60.1-52c5.1 14.1-5.3 23.5-20.8 29.5-2.7 1-5.7 1.9-8.6 2.5 1.2-1.3 2.6-2.5 3.7-4 .5-.2.9-.3 1.4-.5.3-.1.6-.2.8-.3 8.9-4 23.2-13.7 19.6-27.2-.8-2.2-2.2-4.1-4-5.8-5.5-4.5-12.6-5.3-19.2-4.4-.3 0-.7.1-1 .1-.6-.4-1.2-.5-1.9-.9 13.4-1.8 26.4 1.6 29.5 10 .2.2.3.5.5 1zm-20.8-1.7c.1-.1 0-.2.1-.4 3.2.2 6 1 7.5 2.6 1.1.9 1.6 1.7 1.8 2.3.9 1.8-.3 5.2-3.6 8.9-1.3 1.6-3 3-4.9 4.2 1.3-5.1 1.6-10.3.3-14.7v-.1c-.4-1.1-.8-2-1.2-2.8zm160 25.2c-.9-.7-2-1.1-3.2-1-22.1 2.7-56.8 4.6-78.2 11.8-.7-.4-1.5-.6-2.4-.6-2.3.2-3.9 2.2-3.7 4.3.8 10.3 1.7 20.5 2.2 30.7 0 1.6 1.1 2.9 2.4 3.5 1.4.7 3 .4 4.3-.5 1.1-.9 2.7-1.7 4.5-2.4 2.7-1 6-1.7 9.4-2 20.6.7 43.9.4 63-5.6.1 0 .1 0 .2-.1 1.5-.5 2.7-2 2.7-3.7.5-10.4.5-21.1.2-31.5-.1-1-.6-2.1-1.4-2.9zm-60.5 14.1c3.2-.6 6.5-1.1 9.9-1.6-3.3.6-6.5 1.2-9.9 1.6zm-14.5 3.3c1.1-.3 2.1-.6 3.2-.8-.7.8-1.1 1.8-1 2.8 0 .1.1.2.1.3-.8-.7-1.6-1.1-2.2-1.4 0-.4 0-.6-.1-.9zm47.3 17.5c0-.1.1-.1.1-.1 7.1-.7 14.3-1.8 20.7-3.7v.3c-6.4 1.7-13.5 2.8-20.8 3.5zm20.7-12.3c-2.5-.1-5 0-7.6 0 .2-.6.2-1.3 0-2-.1-.7-.5-1.3-.9-1.8.3 0 .7-.1 1-.2 2.1-.2 3.8-2.1 3.7-4.2 0-.9-.4-1.8-1-2.4 0-.3-.1-.7-.2-1-.4-1.3-1.4-2-2.5-2.4 2.6-.3 5-.5 7.4-.8.4 4.9.3 9.8.1 14.8zm8.4 35.2c-11.9 1.9-60.5 5.4-74.8 10.4-.8.5-1.9.7-2.8 1.2V499c0-2.2-1.8-4.1-4.1-4.2-2.3 0-4.1 1.8-4.2 4.1-.1 11.4-.3 23.1.1 34.5 0 1.2.6 2.2 1.4 3 .9.7 2 1.1 3.2 1 27.7-3.5 56.2-7.3 84.5-10.1.4 0 .7-.1 1-.2 1.4-.5 2.5-1.7 2.6-3.3 1.5-10.8.3-20.9-2.7-30.4-.2-1.9-2.2-3.1-4.2-2.8zm-11.4 15.8c-.7.1-1.5 0-2.3.1 1-.2 1.8-.6 2.7-.8 0 .2-.1.5-.2.7-.1 0-.1-.1-.2 0zm-55.8 1.1c2.5-.6 5.5-1.2 9-1.7-2.9.5-5.9 1-9 1.7zm-10.5 3.6c.2 0 .4.1.7.1-.4.8-.5 1.7-.3 2.6.5 1.9 2.1 3.2 3.9 3.2-.1.9.1 1.8.7 2.5.3.4.7.8 1.1 1.1-.4.5-.7 1.1-.7 1.8-1.8.6-3.5 1.5-5.2 2.5-.1-4.6-.2-9.2-.2-13.8zm381.1-127.7c9.8-10.3 18-24.9 14-37.6-2.7-7.4-10.4-12.2-22-12.8-5.3-.4-9.7.1-13.5 1.5-20.3 8.6-14.8 34.3-23 44.7-.5.8-1.3 1.6-2 2.5-3.1 3.9-7.3 7.9-12.3 11.9-2.5-1.8-5.1-3.4-8-4.7-12.5-5.6-34.4-2.1-51.9 4.1-9.8 3.9-19.1 8.2-22.5 15.1-14.9-28.9-56.8-41.8-88.1-30.6-9.1 3.3-17.3 8.8-23.5 16.6-1.8 2.3-3.4 4.6-4.8 7-11 18-10.8 37.3-4.3 54.8 9.6 26.2 32.1 49.3 52.1 64.7 1.2.9 2.3 1.7 3.5 2.6-.3.1-.5.1-.8.2-.2.1-.3.2-.5.3-2 1-2 1.6-3.8 3.1-3.1 2.9-8.1 7.9-12.6 12.2-.4-.9-1.2-1.6-2.1-1.9-10.2-4.1-19.3-4.2-26.5-1.6-11.3 4.1-17.4 15.4-13.7 25.6 3.2 8.9 13.1 15.3 29 15.9.2 4.5 1.5 8.5.9 10.3-.4 1.9.6 3.8 2.4 4.6 10.5 4.4 20.5 6.5 28.9 3.5h.1c10-3.6 14.1-14.9 10.7-31.1-.1-.6-.4-1.1-.7-1.6 3.2-2 6.5-4.2 9.4-6.2 3.5-2.2 6.5-4.2 8.6-5.5 6.2 7.2 12.2 14.6 17.9 21.1 1.1 1.3 3 1.7 4.5 1.1.5-.2.9-.4 1.3-.8 36-31.5 105.4-63.9 114.9-117.6.8-5 1.2-10.1 1.1-15.2 0-1.6-1.1-2.9-2.5-3.6 4.2-3.3 8.2-6.1 11.7-7.9 1.2-.6 2.4-1.3 3.4-1.7.1 0 .3-.1.6-.2 6.1-2.9 30 7 46.4 1.4 5-1.7 9.5-5.5 11.9-11.4 2.3-5.4 2.6-10.6 1-15.1-5.3-12.8-22.1-16.7-35.2-17.7zm-78.4 74.6c-6.6-1.5-11.7-1.3-15.6-5.6-1.4-1.4-2.2-2.8-2.7-4.3-1-2.8-.9-6.3-.1-9.9.2.8.4 1.6.6 2.3.5 1.5 1.2 2.9 2 4.3 0 .2-.1.4-.1.6-.3 2.1 1.2 4.1 3.3 4.6h.1c1.8 2.3 3.6 4.3 5.3 5.6 1.1.8 2.5 1 3.8.5s2.2-1.5 2.6-2.8c.1-.8.4-1.5.4-2.3 1.3-.6 2.6-1.3 3.9-1.9.2.2.5.6.9.7 1.7 1.1 3.9.9 5.2-.5 3-3.1 6.3-6.1 9.6-9.1 3.8-2.4 7.3-5.1 10.9-7.7-11.1 9.1-22.2 20-30.1 25.5zm-7.4-33.8c.2-.2.6-.4.9-.7-.2.3-.5.5-.6.7-.1 0-.3.1-.3 0zm76.6-16.2c.8-1.3 1.3-2.7 1.7-4.2 5.4 1.1 9.2 3.9 9.1 4.2 0 0 .1.1-.1.3-.2.4-.7 1-1.7 1.8-1.8 0-4.1-.3-6.2-.9-.7-.2-1.4-.3-2.1-.5-.3-.3-.5-.4-.7-.7zm22.1 2.7c1.7-3.3 2.7-6.4 2.2-9.3 3.3.5 5.9 1.4 7.4 2.4 1.7 1.2 2.3 2.2 2.4 2.4.1.3.3.8-1.4 2.4-1.6 1.5-4.4 3.1-7.5 4.2-2 .7-4 1.2-5.9 1.5 1-1 2-2.2 2.8-3.6zm-25.7-26.8c-1.5 1.1-2.1 3-1.5 4.7s2.3 2.9 4.2 2.7c2.1-.2 4.8-.2 7.8 0-4.9-.1-9.9.5-13.6 1h-.3c-1.8 0-3.4.2-5.1.4 1.9-3.2 4.4-6.4 6.8-9.7.2-.2.3-.4.3-.6 3.4-2.4 6.3-6.1 9.3-10.5 2-2.3 3.8-5.1 4.9-8.2 2.7-5.1 5-9.8 6.5-14.1 2.6 8.5-8.6 27.2-19.3 34.3zm14.6 7.9c-1.3-.2-2.7-.3-4-.4 1.3.1 2.6.3 4 .4zm-12.8-37.5s.1 0 .2-.1c1.5-.5 3.1-.9 4.4-1.2.1.5.1.9.1 1.4-1.5 0-3 .2-4.4.8-5.8 2.5-10.8 7.9-14.5 13.9-.1-5.6 6.5-12 14.2-14.8zm-4.3-12.8c-3 1.2-6 2.6-8.8 4.5 1.4-1.7 3.1-3.1 5.4-3.7 1-.4 2.1-.7 3.4-.8zm-22.5 42.3c1.2-2 2.2-4.1 3-6.3.9 1.2 1.8 2.1 3 2.9-2.7 1.5-5.5 3.7-8.2 6.1.8-1 1.7-1.8 2.2-2.7zM960.6 557.1c-2.9-.2-4.9-.9-6.1-1.8 0-.1-.1-.3-.1-.4 0-.1 0-.1-.1-.2 1.5-.3 2.7-1.5 3.1-3.2.1-.6.1-1.1 0-1.7 2.1-.7 4.6-1 6.9-1.3-.5 3.3-2.1 7.1-3.7 8.6zm33.1 17.1c.1-.7.1-1.4.2-2.1 0-.2.1-.4 0-.6 0 .1.1.2.1.3.2.9.2 1.4.3 1.9-.2.1-.4.3-.6.5zm-8.8 2.9c-.1.4-.2.4-.3.6-.3-.4-.6-1-.9-1.7-1.2-3.6-.6-7.5 1.9-9.9.1 1.8.2 3.7.1 5.5-.1 2.3-.3 4.3-.8 5.5zm27.3-39.4c-.5.2-.9.5-1.3.9-.4-.3-.9-.4-1.3-.5.4-.6.8-1.3 1.2-1.8.5.4 1 .9 1.4 1.4zm-7.4-7c-.3.3-.7.7-1.1 1 0-.5.1-1 .1-1.5 0-.2-.1-.4-.2-.6.4.3.8.7 1.2 1.1.1 0 0 0 0 0zm-5.4-4.3zm-56.6 31.7c-2-5.5.9-12.1 8.8-15.1 1.1-.4 2.4-.8 3.7-.9-.6.2-1.2.3-1.7.5-2.4.9-5 2.1-6.8 4.5-1.9 2.3-2.5 6-1.2 9.3.1.4.3.9.7 1.6.5.8 1 1.5 1.5 2.1 1.1 1.8 2.6 3.5 4.8 4.6 3.2 1.7 6.8 2.1 9.8.9 0 0 .1 0 .2-.1 1.2 0 2.4-.1 3.6-.3 0 1.1.1 2.2.1 3.3-15.3-.1-21.9-5.6-23.5-10.4zm50.5 29.5c-4.3 1.7-11.8.9-20.2-2.3 0-.6-.1-1.1-.1-1.7 2.9 1.9 6.2 3 9.7 3.2 2.3 1.2 5 1.6 8 .5 1.7-.6 3.2-1.6 4.7-2.9 1.2-.6 2.3-1.4 3.3-2.4-1.1 3-3.1 4.6-5.4 5.6zm14.9-36.2c.7-.9 1.6-1.8 2.2-2.8.1 0 .3 0 .5-.1.8-.1 1.5-.1 2.1-.2-.5.3-1 .7-1.6 1-1.1.8-2.1 1.4-3.2 2.1zm146.7-98c-7.1 46-70.6 78.7-108.9 110.1-12.5-14.6-27-33.5-42.7-44.4-20.6-14.3-46.7-39.5-56.3-66.1-6.5-18.1-6-36.2 7.9-53.8 5.1-6.5 11.9-11.1 19.8-14 28.3-10.5 69.1 3.5 79.3 29.3.8 2 3.1 3 5.2 2.3.1.3.3.8.5 1.1 1.2 1.9 3.8 2.5 5.7 1.2 1.8-1.2 2.4-3.6 1.4-5.5-.2-.8.3-2.3 3.3-4.9 3.3-2.7 8.7-5.5 15.1-7.8 15.9-6 38.1-8.3 45.6-4.3 1.7.8 3.1 1.8 4.6 2.8-10.8 8.2-22.6 16.3-30.8 23.5-1.6-.1-3.1.5-3.9 1.9-3.6 7.4-7.4 16.9-4 26.4.9 2.5 2.4 5 4.5 7.2 8.6 8.6 18.2 6.2 23.2 8.9 1 .5 2.1.4 3 .1 1-.4 1.9-1.1 2.4-2.2.3-.7.1-1.4.1-2.2 7.6-5.8 16.8-14.5 25.9-22.2 0 4.1-.2 8.3-.9 12.6z"/></svg>