<svg version="1.2" baseProfile="tiny" xmlns="http://www.w3.org/2000/svg" viewBox="0 0 134.6 180.5"><path fill="#F4F1EA" d="M84.3 32.7c2.1 3.7 1.3 7.7-.2 11.7-.4 1.2-.6 2.2-.6 3.2.4-.1.8-.1 1.2-.2.9-.2 2-1 3-2-.7-1-1.2-2.2-1.2-3.7v-.1c0-1.8.9-3.1 1.3-4.4.1-.4.2-.9.2-1.5v-1.8c0-.3 0-.6.1-.9-1.3-.4-2.1-.2-3.8-.3zM51.2 77.1s.1 0 0 0c.1 0 .1-.1.1-.1s0 .1-.1.1zm10-1.1c-.5 0-1.1 0-1.6.1l-1.8.6c1.4-.3 2.9-.6 4.4-.7h-1zm-12.1-3c.6-.3 1.2-.6 1.8-1 .1-.1.2-.2.4-.3-.2.1-.3.2-.5.3-.6.4-1.2.7-1.7 1zM98 75c.3.5.5 1.1.8 1.5l.2.2c-.3-.5-.7-1.1-1-1.7zm-41.3-7.9c.3-.1.6-.2.9-.4l-.3-.3v-.2c-.3.3-.6.7-.9 1 .1 0 .2 0 .3-.1zm-8.5 7.1c-.9.3-1.9.5-3 .7.2.1.5.2.7.3.8-.2 1.6-.6 2.3-1zm.5 2.3c.7-.8 1.7-1.7 2.6-2.6l.1-.1c-1.1.8-2.3 1.5-3.6 2.3.3.2.6.3.9.4zm59.3 93.4c.3 0 .4.2.4.4v.2c.1-.2.3-.5.3-.8-.2 0-.5-.1-.7-.1v.3zm-56.2-3.5c-2.9 0-5.8.1-8.7.3-1.4.1-3.3.3-5 .3-.6 0-1.2 0-1.7-.1-.5.9-1.2 1.7-1.8 2.1-.8.5-1.9.6-3 .6-1.4 0-2.9-.2-4-.2 0 .1-.1.2-.1.4-.2.6-.7 1.2-1.6 1.3h-.1c-.2 0-.4-.1-.4-.4 0-.3-.1-.6-.1-.9v-.2c-.1 0-.1.1-.2.1h-5c-.1 0-.2 0-.2-.1l-.6.6c5.8 1.6 12.5 1.1 18-1.2 3.6-1.5 7.3-1.2 11.2-1.6 2.7-.3 5.4-.5 8-.9h-1c-1.2-.1-2.5-.1-3.7-.1zm23.1-3.8c-.1 0-.2-.1-.3-.1-.4-.1-.9-.2-1.6-.2-3.3 0-8.9 1.6-10.8 1.6H62c-3-.2-5.1-1.9-7.5-3.2-4.6-2.3-9-3.7-14.2-3.7-.2 0-.4-.2-.4-.4s.2-.4.4-.4c5.3 0 9.9 1.4 14.5 3.8 2.6 1.3 4.5 2.9 7.2 3.1h.1c1.7 0 7.3-1.6 10.8-1.6.7 0 1.3.1 1.9.2h.1v-.2c-.5-.1-1.1-.2-1.7-.3-1.1-.1-2.3-.2-3.2-.3-1.7-.2-3.3-.5-5-.8-3.3-.7-6.6-1.8-9.6-3.4-4-2.2-7-5.2-10.5-7.9-2.2-1.7-5.4-5.3-7.1-8.9.1.8.2 1.6.4 2.4.2.7.5 1.2.8 1.8.3.6.6 1.2.6 1.9 0 .4-.1.8-.2 1.3-.3.9-.8 1.5-1.2 2.1-.4.6-.6 1.2-.6 2v.3c.1 1.6 1.4 2.7 1.9 4.6.1.4.1.9.1 1.3 0 1.3-.4 2.6-1 3.7 0 .1-.1.1-.1.1.5.3 1.1.6 1.2 1.2v.4c0 .6-.3 1.1-.7 1.5-.4.4-.8.6-1.3.7h-.1c-.2 0-.3-.1-.4-.3-.2.3-.3.7-.5 1.1.4 0 .8.1 1.3.1 1.7 0 3.5-.3 5-.3 2.9-.1 5.8-.3 8.8-.3h3.7c1.4 0 2.7 0 4-.2 1.5-.2 2.7-1.1 3.7-1.4.2-.1.5 0 .5.3.1.2 0 .5-.3.5-.5.2-1.3.6-2.2 1 .9-.2 1.9-.3 2.8-.5 2.3-.5 7.9-3.3 10-1.9.2.1.3.3.4.4.2-.3.3-.5.3-.6.2-.2.2-.3.2-.5z"/><path fill="#F4F1EA" d="M87.3 41.7c0 1.2.4 2.2.9 3 .1-.1.2-.3.3-.4 0 0 0-.1-.1-.1-.4-.8-.4-1.8-.4-2.6 0-1.4.3-2.6.5-3.9-.4 1.4-1.2 2.5-1.2 4zM55.8 40c.3 0 .6-.1 1-.1v-.3c0-.6-.1-1.1-.3-1.6-.2.6-.4 1.3-.7 2zm5.1 6.3s.1 0 .1.1V46c0 .1-.1.2-.1.3zm-5.2-5.5c-.1 0-.2 0-.4.1-.7 1.3-1.4 2.7-1.6 4.1v.2s.1 0 .1-.1c1.6-1.6 2.5-3.1 2.8-4.5-.3.1-.6.2-.9.2zm58.7 129h-.2v.1s.1 0 .2-.1zM61.2 44.6H61h.2c-.1 0-.1 0 0 0zm3.9 3.1h-.9c-.2 0-.3-.2-.4-.3 0-.2-.1-.4-.1-.6v-.2c-.1.2-.1.4-.1.6 0 .4.2.8.8.8.1 0 .2.1.3.2.1-.1.2-.1.3-.1 0-.2 0-.3.1-.4zM20.7 156.9c1.3-1.7 1.9-4 2.4-6.3.6-2.2.8-4.5.8-6.8 0-2-.2-3.9-.5-5.9.1 3.1.2 6.1-.8 9.2-1.5 4.9-2.4 8.7-5.1 13 1.2-.9 2.3-1.9 3.2-3.2zM91.9 49.4c-.3-1.2-.7-2.3-1.2-3-.1.2-.3.5-.5.7.6.7 1.2 1.4 1.7 2.3zm3.8 119.1c.1.4.2.6.3.8 0 0 0 .1.1.1l.4-.4c-.1-.1-.3-.3-.8-.5zM67.1 46.1c0 .1 0 .3-.1.4.1 0 .3 0 .4.1.2.2.2.4 0 .6-.3.3-.7.5-1 .8.5 0 .9-.1 1.1-.4.1-.2.2-.4.2-.6 0-.2-.1-.5-.1-.7-.2-.2-.4-.4-.5-.7-.1.1 0 .3 0 .5zm15.1 124.3c0 .1-.1.2-.2.2-.6.2-1.3.3-2 .3s-1.5-.1-2.2-.1c1.9.5 3.9.8 5.9 1-.8-.3-1.2-.8-1.5-1.4zm-63.3-1.1c.3-.4.6-.7 1-1.1h-.8v.1c.1.2 0 .5-.3.5-.2.1-.4 0-.5-.2v.6c.2 0 .4.1.6.1zm70.1.2v-1.2l.3-.3h-.1c-.1 0-.2 0-.4.1-.1.2-.1.5-.2.8.3.2.4.4.4.6zm24.4.4h-3c-.1.2-.2.4-.3.7.1.1.1.3 0 .4 1.1.1 2.3.1 3.6 0-.3-.4-.3-.7-.3-1.1zm-30.1-.6c.1.5.4 1 .7 1.4v-.3c-.2-.4-.4-.9-.5-1.4 0-.1 0-.3.1-.4-.2 0-.4 0-.6.1h.1c.3.1.3.4.2.6zM38 162.2c.1.2.2.5.3.8 0 .2-.1.4-.3.5h-.1v.1c0 .1 0 .1-.1.2.1.2.1.4.2.6.2-.1.4-.2.5-.4.3-.3.5-.6.5-.9v-.1c0-.2-.4-.5-.9-.7 0-.1 0-.1-.1-.1zm68.3 6.6c-.3-.4-.3-.9-.3-1.4 0-.6.1-1.3.2-1.9-.5.4-1.1.8-1.9 1.1-.3.1-.5.1-.8.2 1.4.7 2.4 2.1 3.6 3.1 0-.1 0-.3.1-.4-.3-.3-.6-.5-.9-.7zm-31.1 0s.1-.1.2-.1c.2 0 .4.1.5.3v.1c.2-.3.4-.7.7-1-.4 0-.9 0-1.3.1 0 .1-.1.2-.2.3 0 .1.1.2.1.3zm47.4-.4c-.6.5-1.6.6-2.6.8-1 .1-2.1.2-2.7.3-.5.1-.9.2-1.4.2v.2c0 .1 0 .2-.1.3 0 .2-.1.3-.1.5 2.1-.4 4.2-1.1 5.8-1.7 1-.4 1.6-.9 2-1.4-.3.2-.6.5-.9.8z"/><path fill="#F4F1EA" d="M122.6 165.8c-.3-.2-.7-.5-1.2-.7-.7-.4-1.6-.7-2.2-1.1-.2.4-.4.8-.5 1.3-1-.4-1.6-6.5-1.9-7.6-.4-1.5 0-3.1.2-4.7-.5.2-.9.4-1.5.4-.2 0-.3 0-.5-.1-.2 0-.3-.2-.3-.3v-.6c0-1.5.8-2.6 1.5-3.7-.1-.1-.2-.2-.3-.4-.5-.5-1.2-.9-1.9-1.4-.5.2-1 .4-1.6.4-.2 0-.4-.1-.4-.3-.1-.2-.1-.4-.1-.6 0-.2 0-.5.1-.7-.7-.5-1.3-.9-1.7-1.5-.6-.8-.4-1.9-.2-2.9 0-.3.1-.7.2-1 .1-.8.2-1.6-.3-2.1-.1-.1-.2-.1-.4-.2-.7.4-1.5.9-2.4 1.1-.1 0-.2 0-.3-.1-.1-.1-.1-.2-.2-.3v-.7c-1.1.1-2 .3-2.5.4-.1 0-.1 0-.2.1-.4.4-.8.7-1.2 1.1-1.2 1.1-2.5 2.1-4 2.5-.2.2-.4.5-.6.7-1 2.9-2.4 5.6-2.9 8.5-.3 2.1-.2 3.7-1.1 5.7-.2.4-.3.7-.4 1.1h.2c.8 0 1.7.5 2.3.6.7.1 1.4.2 2.2.2h1.3c1 0 2-.6 3.3-.6.3 0 .6 0 .9.1.2.1.6.2.9.4-1.7-2.3-3.8-4.5-4.7-7.5-.1-.2.1-.5.3-.5.2-.1.5.1.5.3 1 3.2 3.6 5.6 5.4 8.5.3.2.5.3.7.5.7.8.6 1.9.7 2.7.3-.3.6-.5 1-.7.2-.1.5 0 .6.2v.1c1-.2 2-.4 3-.4 1.6 0 3.1.3 3.8 1.1.1.2.1.4-.1.6-.2.1-.4.1-.6-.1-.3-.4-1.6-.8-3.1-.8-1.1 0-2.3.2-3.3.5-.4.1-.8.3-1.1.5-.2.2-.5.5-.7.8-.2.5-.5 2-.5 3 0 .5.1.9.2.9.1.1.3.2.5.4.3-.5.6-.9 1.1-1.1.2-.1.5-.1.6.1.1.2.1.5-.1.6-.3.2-.5.4-.7.7.1 0 .3.1.5.1v-.1c0-.2.2-.3.4-.3 0-.1 0-.2.1-.3.1-.2.2-.3.4-.3s.6 0 1 .2c.2.1.2.3.2.5-.1.1-.1.3-.2.4h2.1c.8 0 1.5-.1 2.3-.2v-.2c0-.2.2-.4.4-.4s.4.1.4.4v.2c.4-.1.8-.1 1.2-.2.7-.1 1.7-.2 2.7-.3 1-.1 1.9-.3 2.2-.6.8-.6 1-1 1-1.3-.1-.6-.2-.8-.5-1z"/><path fill="#F4F1EA" d="M121 164c.7.3 1.5.7 2.1 1.2.1.1.2.1.2.2-.5-1.1-1.6-2.4-2.7-3.6-.4.5-.7 1-1 1.5.4.2.9.5 1.4.7zm-23 2.8c.1.3.2.5.3.7.4-.3.8-.6 1.2-.8h-.2c-.5-.1-1 0-1.3.1zM51.2 90.9l-.3.2c-2.7-3.9-7.6-6.3-12.2-9.1 2.1 4.9 7.7 8.4 12.8 9.4-.1-.2-.2-.3-.3-.5z"/><path fill="#F4F1EA" d="M94.9 168.9c0-.1 0-.1 0 0-.3-.1-.4-.4-.3-.6v-.2c0-.1.1-.3.2-.4.1-.1.2-.1.3-.2h.2c.8.1 1.4.4 1.7.7.1 0 .2-.1.3-.1.1-.1.2-.1.2-.2-.2-.3-.3-.7-.4-1.1-.1 0-.1-.1-.2-.2s-.1-.2 0-.4c-.2-.5-.4-1-.7-1.3-.9-.9-2.4-1.5-3.1-3-.3-.7-.5-1.4-.5-2.1 0-1.2.4-2.4.9-3.5.8-1.9.7-3.4 1-5.5.5-3.1 2.1-6 3-8.9-.2 0-.4-.2-.4-.4s.2-.4.4-.4h.3l.3-1.5c.5-3 1.4-5.1 1.4-8.1 0-1.7 0-3.4.1-5V125c0-.2 0-.5.1-.7v-.5c.1-1.5.5-2.7 1-3.9-.9-1-1.2-2.3-1.7-3.5l-.3-.3c-.2-.2-.3-.5-.3-.7-1.4-1.9-4-2.3-4.8-4.6-1.1-3.2.2-6 1-9-.1-.1-.1-.2-.1-.4.1-.3.3-.5.4-.8.1-.6.3-1.2.3-1.9-.1-.2-.3-.4-.4-.7-.1-.5-.3-.9-.3-1.5 0-.4.1-.8.3-1.3-.1-.4-.3-.9-.6-1.3-.5-.8-1.8-1.2-1.7-2.3 0-.5.6-1.1 1.3-1.7-.1-.2-.1-.4-.1-.6 0-.9.7-1.6 1.3-2.2.7-.6 1.4-1.2 1.6-1.4.3-.3.4-.6.5-.8-.1-1-.5-2-.7-3.7-.1-.6-.1-1.4 0-2.1V79c0-.2 0-.3.1-.5.2-.9.5-1.7 1-2.2-.2-.5-.5-1-.7-1.4-.5-1.1-1.1-2.2-1.5-2.6-.7 2.1-3.4 3.3-6.2 4.3-2.1 1.4-4.3 2.6-6.4 3.7-.1.8-.2 1.6-.5 2.3l-.3.9c-.5 3.3-2.2 7-5 8.4-1.1.5-3 .9-5 .9-1.1 0-2.1-.1-2.9-.4h-.2c-1.5-.2-1.8-.8-1.7-1.7-.1 0-.2.1-.3.1-.2.4-.4.8-.6 1.3l-.3 1.5c-.2.9-.5 1.4-.8 1.8-.1.4-.1.8-.1 1.1v.1c1.6 4.2 2.1 8.2 2.1 12.8v.2c0 1.5.3 4.2.6 7.4.6 2.7 1.2 5.3 1.8 8 .5 2.2.3 4.8.1 7-.1.8.1 2.8 0 4.6v.5c0 1.1-.1 2-.2 2.6-.6 2.4-3.5 4.8-4.8 6.6-1.5 1.9-3.3 3.8-4.4 5.9l-.3.6-.4-.5c-.1-.1-.2-.2-.2-.3-.1.3-.1.6 0 .9-1.8-.7-4.3-3.4-5.3-4.9-.9-1.4-1.5-3.1-2.2-4.6-.5-1-1.8-2.1-2.1-3.1-.4-1.8 1.4-5.4 2.1-7.1.5-1.3.9-2.1 1.1-3.1.1-.4.2-.9.2-1.3s.1-.7.1-1.2c.1-1.6.2-3.2.4-4.8-.2-.2-.4-.3-.6-.4l.3-.5v-.7c.1-2.7.6-6.4.8-8.3 0-.8.1-1.5.2-2.3-.2-.2-.4-.4-.5-.7l.6-.4c0-3 .1-6 .1-9-.5-2.2-1.3-4.3-1.9-6.4-.1-.1-.1-.2-.2-.3-.3-.2-1.1-.6-1.3-1.2-.1-.2 0-.5.1-.7-5.7-1.2-11.7-5.1-13.6-10.8-2.2-1.4-4.4-3-6.1-4.9-2.4-2.7-4.5-5.9-6-9.2-.2-.5-.8-1.6-1.3-2.7-.3.9-.6 1.7-.9 2.5-1.2 2.5-2.7 4.7-4 7-.9 3.6-2.9 6.5-3.4 10.1h.2l.8-1c-.2.5-.7 1.3-1 2v1.3c0 .4.1.8.1 1.3.7.8 1.9.7 3 1.2 2.1 1.1 3.8 3.1 3.5 5.5-.4 2.8-2.1 5.3-1.6 7.7.3.6.6 1.2.8 1.8l.1.1c.3.2.6.5 1 .9.1.1.2.3.3.4 1.6 1.3 3.7 2.2 4.5 4.2.9 2.2.3 5-.2 7.2-.2.7-.4 1.2-.7 1.8.2 2.8-.9 6.3-1.6 9-.4 1.7-1.1 3.4-1.3 5.1-.1.5-.1 1.1-.1 1.6.8 3.1 1.3 6.3 1.3 9.5 0 2.4-.3 4.7-.9 7-.6 2.2-1.1 4.6-2.6 6.6-1.4 1.8-3 3.1-4.6 4.7-.5.5-1 1-1.3 1.5-.4.7-.6 1.4-.7 2 0 1.4.9 2.5 2.1 3.3.2 0 .4 0 .6.1 0-.8.3-1.6.8-2 .2-.1.4-.1.6.1.1.1.1.2.1.3h1.8c.2 0 .3.1.4.2.1.1 0 .3-.1.4-.2.2-.4.4-.5.7h4.6c.1 0 .2.1.3.1.1-.6.4-1.2 1-1.6.2-.1.4-.1.6.1.1.2.1.4-.1.6-.5.4-.7 1-.7 1.7v.3c.2-.1.3-.3.5-.6v-.1c-.2-.1-.3-.2-.3-.4s.2-.4.4-.4h.1c0-.2.1-.5.1-.7 0-.2.3-.4.5-.3.2 0 .4.3.3.5 0 .2-.1.4-.1.6 1.2.1 2.5.2 3.8.2 1.1 0 2-.1 2.6-.5.4-.2.9-.9 1.4-1.6-.1 0-.2 0-.3-.1-.2-.1-.3-.3-.2-.5.1-.2.3-.3.5-.2.1 0 .3.1.4.1.4-.8.8-1.5 1-2.1-.4-1.1-.8-2-1.4-3-.1-.1-.1-.2-.1-.3 0-.1.1-.2.2-.3.1-.1.2-.1.4-.1s.4.1.5.3v.1c.1.1.2.2.1.4.1-.1.3-.1.5 0s.5.2.8.4v-.3c.5-1 .9-2.2.9-3.3 0-.4 0-.8-.1-1.1-.3-1.5-1.7-2.7-1.9-4.7v-.3c0-1 .4-1.8.8-2.5s.8-1.2 1.1-2c.1-.4.2-.7.2-1 0-.6-.2-1-.5-1.5s-.7-1.1-.9-2c-.5-1.7-.6-3.5-.6-5.3v-.3c-.1-.4-.1-.8-.1-1.2 0-.5.1-1.1.2-1.6.1-1.7.2-3.3.2-4.9 0-3-.4-5.8-2-8.4h-.1c-.2.1-.4-.1-.5-.3 0-.1 0-.1-.1-.2s-.1-.3-.1-.5v-.2c-.5-.4-.7-1-.7-1.6 0-1.2.9-2.2 1.9-3.1 1-.8 2.3-1.4 3.4-1.4.2 0 .4 0 .6.1.2.1.4.3.3.5-.1.2-.3.4-.5.3h-.4c-.8 0-2 .5-2.9 1.2-.9.7-1.6 1.7-1.6 2.4 0 .4.2.8.7 1.2.2.1.2.3.2.5 2.2 3 2.7 6.3 2.7 9.6 0 1.5-.1 3-.2 4.6.1.1.1.2 0 .3 0 .1 0 .1-.1.2 0 .9-.1 1.8-.1 2.7.8 4.1 5.1 9.3 7.7 11.3 3.6 2.8 6.5 5.7 10.4 7.8 3 1.6 6.2 2.7 9.4 3.3 1.6.3 3.2.6 4.9.8.8.1 2 .2 3.2.3.6.1 1.1.1 1.6.3 0-.6.2-1.2.5-2 .8-1.7 1-3.3 1.4-5.1.5-2 1-3.8 1-5.8v-.6c-.1-1.2-.3-2.5-.3-3.9 0-.9.1-1.9.4-2.8 1-2.6 3.5-4.3 4.4-6.5.2-.6.3-1.1.3-1.6 0-1.2-.6-2.4-1.4-3.6-1.3-2-1.9-4.2-1.9-6.3 0-1.6.3-3.1 1-4.5h-.1c-.1-.2-.1-.4.1-.6.6-.5 1.5-1.4 1.5-2.2 0-.1 0-.3-.1-.4-.3-.8-1.7-1.3-3.4-1.6-1.3-.2-2.7-.3-3.7-.5-.1.1-.3.2-.5.1-.1-.1-.3-.2-.4-.2-.2-.1-.2-.3-.2-.5.1-.2.3-.3.5-.3.9.2 2.7.3 4.5.6 1.7.3 3.4.8 4 2.1.1.2.1.5.1.7 0 1.1-.8 2-1.5 2.6.1.1.1.3 0 .4-.7 1.4-1 2.8-1 4.4 0 2 .6 4 1.8 5.9.9 1.3 1.5 2.6 1.5 4.1 0 .6-.1 1.3-.4 1.9-1.1 2.5-3.6 4.2-4.4 6.4-.3.8-.4 1.6-.4 2.5 0 1.3.2 2.6.3 3.8v.6c0 2.1-.6 4-1 6-.4 1.8-.7 3.5-1.5 5.3-.3.7-.4 1.3-.4 1.9l.6.3c.2.1.2.4.1.6-.1.1-.2.2-.3.2-.1 0-.2 0-.2-.1-.1 0-.1-.1-.2-.1v.5c.1.1.2.3.3.4.1.2 0 .5-.3.5h-.2v.1c-.1.4-.4.9-.8 1.5-.1 1.2-1.1 2.6-1.7 3.6v.2c0 .3.1.5.2.6.1 0 .2.1.3.1.1-.4.2-.7.4-1v-.2c0-.1 0-.3.1-.4.1-.1.1-.2.3-.2.8-.2 1.6-.3 2.5-.3h.7c.2 0 .3.1.4.3.1.2 0 .3-.1.5-.5.5-1 1.1-1.3 1.7 1.1.1 2.4.3 3.5.2.7 0 1.3-.1 1.7-.2h.3c-.1-.3-.1-.6-.1-1v-.5c0-.3.1-.7.2-1 .1-.2.3-.3.5-.3.2.1.3.3.3.5v.1c.3-.1.5-.1.8-.1.4 0 .8 0 1.1.1.1 0 .2.1.3.2.1.1.1.2.1.3-.1.5-.1 1.1-.1 1.7.3.1.6.1.8.1.5 0 1.1-.2 1.9-.2v-.3c0-.5.1-1.1.2-1.6 0-.2 0-.3.1-.4 0-.1.1-.2.1-.3.1-.2.3-.3.5-.2.1 0 .2.1.2.2h.3c.5 0 .9.3 1.1.7.2.4.2.8.2 1.2v.3c.1-.1.3-.1.5 0 .3.2.6.2.9.2.8 0 1.7-.3 2.6-.4.2 0 .4.1.5.4 0 .2-.1.4-.4.5-.7.1-1.7.4-2.6.4-.5 0-.9-.1-1.4-.4l-.1-.1v.5c0 .1-.1.3-.2.3-.3.2-.6.3-.9.3-.1.1-.2.2-.3.2-.1 0-.3-.1-.3-.2-.3-.1-.5-.3-.7-.5v-.1h-.1c-.7 0-1.3.2-2 .2-.3 0-.5 0-.8-.1v.7c0 .1 0 .2-.1.3h3.7c2.5-.1 4.8-.6 6.8-1.9l-.1-.1c-.5 0-.6-.3-.7-.6zm7.9-52.3c0 .1 0 .1 0 0 .3.8.7 1.5 1.2 2.2-.4-1.6-.8-3.2-1.1-4.8 0 .4.1.8.1 1.2-.1.5-.1 1-.2 1.4z"/><path fill="#F4F1EA" d="M68.2 48s-.1 0 0 0c-.5.7-1.3.8-1.8.8-.6 0-1.2 0-1.2.1-.2.2-.4.2-.6 0 0 0 0-.1-.1-.1h-.1c0 .1-.1.1-.1.2-.4.2-.9.9-1.5 1.6-.4.4-.7.8-1.1 1.1 0 .1.1.1.1.2.2 1.6.3 3.1.3 4.5 0 .4 0 .8-.1 1.2h.2c.1 0 .2.1.3.2 1.5 3 2.5 6 4 8.5.6 1 1.2 1.8 2 2.6 1.5 1 2.9 1.9 4.8 2.4 1.3.3 2.6.6 3.9 1h.1c1.5 0 2.8-.3 3.8-1.1 1.6-1.3 2.4-3.7 3.5-5.7.1-.3.2-.6.2-.9.2-.7.5-1.3.9-1.9-1.9 0-3.7-.8-4.9-2.3-.9-1.2-1.6-2.9-2.4-4.2-.9-1.4-1.9-2.3-3.5-2.3h-.2c-.2 0-.4-.2-.4-.4s.2-.4.4-.4h.1c-2.2-1.5-4-3.6-6.6-4.6-.1-.3-.1-.4 0-.5zm6.1 21.4c-.1.1-.2.2-.3.2-.1 0-.2 0-.2-.1-.3-.2-.6-.3-.9-.4-.2 0-.4-.3-.3-.5 0-.2.3-.4.5-.3.4.1.8.2 1.2.5.1.2.2.4 0 .6zm.5-4.4c-.1.1-.2.2-.4.2h-.2c-.5-.3-1-.5-1.6-.6-.2-.1-.4-.3-.3-.5.1-.2.3-.4.5-.3.6.1 1.2.4 1.8.7.2 0 .3.3.2.5zm2.7 3.4H76c-.2 0-.4-.2-.4-.4s.2-.4.4-.4h1.5c.2 0 .4.2.4.4.1.2-.1.4-.4.4zm.9-2.4h-.2c-.2 0-.3-.1-.4-.2-.2-.4-.6-.6-1.1-.6-.2 0-.4-.2-.4-.4s.2-.4.4-.4c.7 0 1.5.3 1.8 1.1.1.2.1.4-.1.5zm2.5-.6h1c.2 0 .4.2.4.4s-.2.4-.4.4h-1c-.2 0-.4-.2-.4-.4s.1-.4.4-.4zM77 62.5c.1-.2.4-.3.6-.2.2.1.5.2.7.2h.1c.2 0 .4.2.4.4s-.2.4-.4.4h-.2c-.4 0-.7-.1-1.1-.3-.2 0-.2-.3-.1-.5zm-2-4.7c0-.2.3-.4.5-.3.7.1 1.2.7 1.4 1.3.1.2-.1.5-.3.5h-.1c-.2 0-.4-.1-.4-.3-.1-.4-.3-.6-.7-.7-.3 0-.4-.2-.4-.5zm0 4.1c.1.2 0 .5-.2.5h-.2c-.2 0-.3-.1-.4-.3-.1-.2-.4-.4-.9-.4-.2 0-.4-.2-.4-.4s.2-.4.4-.4c.7.2 1.4.4 1.7 1zm-3.7-5.2c.1-.2.4-.3.6-.1l1.2.6c.2.1.3.3.2.5-.1.2-.2.3-.4.3h-.2c-.5-.2-.9-.4-1.3-.7-.1-.2-.2-.4-.1-.6zm0 9.2c.1.1.2.3.1.5v.4c0 .1-.2.2-.4.2s-.2-.1-.3-.1l-.1-.1-.1-.1c-.2-.4-.5-.8-.7-1.3-.1-.2 0-.5.2-.5.2-.1.5 0 .5.2.1.2.3.5.4.8.3-.1.4 0 .4 0zm-2-6.2c.1-.2.4-.2.6-.1.4.3.7.7.9 1.2.1.2 0 .5-.2.6h-.2c-.2 0-.3-.1-.4-.2-.2-.3-.4-.7-.7-.9-.1-.1-.2-.4 0-.6zm-1.6 3c-.1 0-.1.1-.2.1s-.3-.1-.4-.2c-.3-.5-.6-1-.8-1.5-.1-.2 0-.5.2-.6.2-.1.5 0 .6.2.3.5.6 1 .8 1.5.1.1 0 .4-.2.5zM48.8 77.5c-.1 0-.3 0-.4-.1-.6-.2-1.1-.5-1.6-.7-.2 0-.3 0-.4-.1 0 0 0-.1-.1-.1-.2-.1-.3-.2-.5-.3-.5.1-1 .2-1.4.2-.2 0-.4-.2-.4-.4s.2-.4.4-.4c-.4-.1-.7-.3-1.1-.4-.1 0-.2-.1-.3-.2-.2 0-.5 0-.7-.1.8 1.2 2.4 2 4.4 2.5.8.2 1.6.2 2.4.2 0-.1-.2-.1-.3-.1zm3.8-6.7c.2.1.4.1.5.2v.1l.2-.2c.1-.1.3-.2.5-.1s.3.2.3.4c-.1.9-.6 1.8-1.4 2.6.8-.7 1.7-1.3 2.6-1.8-.3-.1-.6-.1-.8-.1-.2 0-.4-.2-.4-.4s.2-.4.4-.4c.4 0 .9 0 1.5.1-.9-.2-1.9-.5-2.8-.9-.2.2-.4.3-.6.5zm2.6 5.6c-.1 0-.1.1-.2.1-.2.1-.4.1-.6 0-.2-.1-.2-.4-.1-.6.2-.3.4-.5.7-.8-.8.6-1.7 1.2-2.5 1.9.5 0 1-.1 1.6-.2.4-.1.9-.3 1.3-.4 0 .1-.1 0-.2 0zm3.2-3.4c0 .1 0 .2-.1.3-.3.4-.7.7-1 1.1.2-.1.5-.1.7-.1.4-.1.8-.1 1.3-.1.3-.1.7-.2 1-.3-.6-.4-1.3-.7-1.9-.9zm24.5-.5c-.5.6-1.2 1.3-1.8 1.8-.1 0-.1.1-.2.1.2.2.3.4.5.5.6-.7 1.1-1.5 1.5-2.4zm-27.2-.4c.1.1.1.1 0 0 .1.1.1 0 .1 0h-.1zm3.2 3.3c.2 0 .3-.1.5-.1.2-.1.5-.1.7-.2-.4 0-.8.2-1.2.3zm-1.7-2.9l-.3.6c.3-.1.5-.3.8-.4-.2-.1-.4-.1-.5-.2z"/><path fill="#F4F1EA" d="M85 50.1c-.4.1-.8.1-1.2.2.6 2 1.9 3.7 3.5 5.7H85c.4.1.9.2 1.4.2.3 0 .6 0 .9-.1.2 0 .4.1.5.4 0 .2-.1.4-.4.5-.4 0-.7.1-1 .1-1.4 0-2.6-.5-3.5-1.2-1.5-.2-3-.5-4.5-1 .2.3.4.6.6.8.9 1.4 1.6 3.1 2.4 4.1 1 1.3 2.6 2 4.3 2 .3 0 .6 0 .9-.1.4-.3.8-.5 1.3-.6.1 0 .3 0 .4.1 0 0 .1 0 .2-.1.2-.1.5 0 .6.2.1.2 0 .5-.2.6-.6.3-1.2.5-1.9.7-.6.5-1 1.3-1.3 2.3v.1s0 .1.1.1v.3c0 .3-.2.5-.3.6l-.1.1c-.2 1.1-.4 2.2-.5 3.1-.3 2.3-1.3 4.8-2.9 6.6 0 .1.1.1.1.2.3-.3.6-.7.9-1.2 1-1.3 2-3.2 3-5.1.9-1.7 1.7-3.4 2.5-4.9.4-1 .8-2 1.2-2.9-.2-1.6.1-3.2 1-4.9.4-.8.9-1.7 1.3-2.6 0-.4.1-.7.1-1.1 0-.8-.1-1.5-.4-2.3-.4-1.1-1.1-2.1-1.9-3-1.2.9-2.6 1.8-4.8 2.1zm5 5.5h-.2c-.2 0-.3-.1-.4-.3-.4-1-.7-2.2-1.5-2.7-.2-.1-.2-.4-.1-.6.1-.2.4-.2.6-.1 1.1.8 1.4 2.2 1.8 3.1.1.3 0 .5-.2.6zm11.9 61.2c-.1.4-.2.9-.4 1.3.2-.4.3-.9.4-1.3zm-4.8-30c-.4.3-.8.7-1.3 1.1-.6.5-1.1 1.2-1.1 1.6.5-.4.9-.7 1.1-1 .6-.7 1-1.2 1.3-1.7z"/><path fill="#F4F1EA" d="M84.1 68.3c-.2.4-.4.9-.7 1.3.1.1.1.2.1.3 0 .3 0 .6-.1.9.1 0 .1 0 .1.1.2-.6.3-1.3.4-1.9.1-.3.2-.5.2-.7zm-2.5 3.4c.1 0 .1 0 0 0 0 0 0 .1 0 0-.4.3-.8.5-1.1.7.1.1.2.3.3.4.3-.2.6-.6.8-1.1zm-2.4 1.2c.1 0 .1 0 0 0h-.4c.1.1.2.1.3.2.1-.1.1-.1.1-.2zm35.5 97.1c.1.1.1.2.1.3v.2c.1-.2.1-.4.2-.7-.2 0-.4 0-.6.1.2-.1.3 0 .3.1zM23.6 63.4c-.4-.8-.6-1.6-.6-2.1-.7 1-1.4 2.1-1.9 3.3-1 2.3-1.1 4.7-1.4 7.2 1-1.6 2-3.3 2.8-5 .4-1 .7-2.2 1.1-3.4zm89.2 83.1h.3c-.1-.1-.2-.1-.3-.2v.2zm-45.5-4.9c0 .2.1.4.1.5.6-.8 1.1-1.5 1.2-2.2-.1.1-.2.1-.3.1-.3.6-.6 1.1-1 1.6zM53.7 49.1c-.2-.2-.3-.4-.4-.6-.1.3-.1.5-.2.8.2-.1.4-.1.6-.2zm-7.3 36.3c-.4-.3-.8-.5-1.2-.7 0 .1 0 .1-.1.2 1.1.7 2.2 1.5 3.2 2.3-.6-.7-1.2-1.3-1.9-1.8zm20.3 4.3c-.1 0-.1.1-.1.2 0 0 .1-.1.1-.2zM27.9 56.3c.3.2.5.4.7.6h.1l-.1-1.1c-.3.2-.5.3-.7.5zm35.3-25.1c-.1 0-.2 0-.2.1-2 .5-4 1-5.9 1.6v.8c1.2.5 2.2.7 3.1.7 1.1 0 2.1-.3 3.1-.7 0-.8 0-1.7-.1-2.5zm43.9 132c-.1-.6-.2-1.3-.2-1.8-.1 0-.3-.1-.4-.2l-.6-1.2-.6-.3c-.6-.3-1.2-.5-1.5-.6-.2-.1-.4-.1-.7-.1-.9 0-2 .5-3.2.6h-1.3c-.8 0-1.6 0-2.3-.2-.8-.1-1.8-.6-2.2-.6H94c-.1 0-.2 0-.3-.1-.1.4-.2.9-.2 1.3 0 .6.1 1.1.4 1.7.5 1.2 1.8 1.7 2.9 2.8.4.4.6.9.8 1.4.5-.1 1-.2 1.6-.2 1 0 2.2.1 3.2.1.6 0 1.2-.1 1.6-.2 1.1-.3 1.8-1.1 2.6-2 .2 0 .4-.2.5-.4zm-40.5-20.4v-.4c-1 1.1-2.2 2.2-3 3.2-.3.3-.6.7-.9 1.2l.4.4.9-1.2c.8-1 1.9-2.1 2.9-3.3l-.3.1zm37.9-21.6v-.2c-.8-1-1.5-2-2-3-.1.2-.1.4-.2.6l1 1c.5.4.8 1 1.2 1.6zm-42.4 26.3c-.9 1.2-1.9 2.5-2.5 3.8.1.1.1.2.2.3.7-1.3 1.7-2.5 2.7-3.7-.1-.2-.2-.3-.4-.4zm54.6 2c-.7 1-1.2 1.9-1.2 3v.2h.1c.5 0 1.1-.3 1.6-.7 0-.9-.1-1.8-.5-2.5zM59.6 64v-.6c-.2.3-.5.6-.7.9-.2.3-.4.7-.6.9.5-.4.9-.8 1.3-1.2zM44.4 84.4v-.1c-.3-.1-.6-.3-1-.4.4.1.7.3 1 .5zM31.8 51.8c.1 0 .2.1.2.1.2.1.3.4.2.6-.1.2-.4.3-.6.2-.1 0-.1-.1-.2-.1-.4.9-.8 1.9-1.2 2.7.1.1.1.2.2.2.2.2.2.4 0 .6-.1.1-.2.1-.3.1-.1 0-.2 0-.3-.1l-.1-.1c-.2.4-.5.7-.8 1 0 0 0 .1.1.1.1.1.1.2 0 .3 1.6 1.8 2.6 4.1 3.7 6.2 1.1 2.3 2.2 4.4 4 5.8-.5-1.2-.8-2.5-.9-3.6h-.1c-.2-.1-.2-.4-.1-.6.1-.1.2-.2.2-.4.1-.4.2-.9.3-1.2 0-.9-.7-1.6-1.9-2-.1 0-.2.1-.3 0h-.1c-.1 0-.1 0-.3-.1-.1 0-.2-.1-.2-.4 0-.3.2-.3.2-.4.1 0 .1-.1.2-.1-.8-.3-1.5-.7-2.2-1.4-.2-.2-.2-.4 0-.6.2-.2.4-.2.6 0 1.1 1.1 2.2 1.5 3.2 1.5 1.7 0 3.5-1.1 4.9-2.6-1.8-.4-3.5-1.4-4.7-2.9-.5-.1-1-.3-1.5-.6 0 0-.1-.3 0-.5s.4-.3.6-.1c.1.1.3.1.4.2-.4-.7-.6-1.5-.7-2.3-.2-1.3 0-2.5.3-3.7-.1-.1-.2-.2-.3-.2-.3.4-.5.8-.8 1.2-.7.8-1.2 2-1.7 3.2zm75.8 86v.2l.6-.3c-.2.1-.4.1-.6.1zm-83-78.2c.7-1.1 1.5-1.6 2.2-1.7l.2-.2c0-.1 0-.2.1-.3l.3.1c0-.1 0-.1-.1-.2 0-.2-.1-.3-.1-.4-1 .8-2 1.7-2.8 2.7-.3.5-.5 1-.5 1.7 0 .2.1.5.2.9.1-.2.2-.4.2-.7-.1-.7 0-1.4.3-1.9zm43 25.9H66c.5 0 1.1.1 1.6.2v-.2zm0 2.4v-2.1c-.5.9-.7 1.9-.9 3 .1.1.3.2.4.3.1-.1.1-.2.2-.3l.2.2c.1-.4.1-.7.1-1.1z"/><path fill="#F4F1EA" d="M31.6 63.9c.6 1.3 1.3 2.5 2 3.7h.2v.2c1.8 2.8 4.1 5.4 6.2 8-.3-.4-.5-.9-.6-1.2-.1-.2 0-.5.3-.5.2-.1.5 0 .5.3.1.3.3.7.6 1.2h.5c0 .3.1.6.2 1 .8 1.2 1.9 2.5 2.4 3.2l.3-.1c.1.3.3.6.4.9.5.5 1 .9 1.6 1.3.6.3 1.1.6 1.7.9 1.2.5 2.5.9 3.7 1.2 3.1.6 6.3.8 9.6.9 1.9-.3 3.9-.6 6-.6h.5c0-1.2-.2-2.4-.5-3.5-.5-1.3-1.4-2.7-2.3-3.9H64c-3.2 0-7 1-9.3 1.6-.9.2-2 .3-3.2.3-1.5 0-3.2-.2-4.8-.6-2.4-.5-4.5-1.6-5.8-3.9-.2-.1-.5-.2-.7-.4-.9-.6-1.7-1.6-2.5-2.9-2.7-1.5-4.1-4.2-5.4-6.9-1.3-2.3-2.3-4.5-3.8-6.1-.2.1-.4.1-.6.2 1.8 1 3.1 4.4 3.7 5.7zm1.5 12.7l-.9-.6c.7.8 1.6 1.6 2.5 2.3-.6-.6-1.1-1.1-1.6-1.7zM59.7 44c-.7.2-1.8.5-2.9 1 .2 0 .3 0 .5.1h.2c.4 0 .7 0 1.1.2V45c0-.2.1-.3.3-.4 1-.3 2.1-.7 3.2-.9-.8-.1-1.7.1-2.4.3zm5.2 56.1c.3.5.6 1 .8 1.5-.3-1.3-.6-2.5-1.1-3.8v.6c.1.6.2 1.1.3 1.7z"/><path fill="#F4F1EA" d="M41.4 57.7c-1.6 1.9-3.7 3.3-5.9 3.3H35c1 .4 1.7 1 2.1 1.8.2-.1.3 0 .5.1.2.2.2.4 0 .6-.1.1-.2.2-.3.4 0 .4-.1.8-.4 1.3v.4c0 1.5.6 3.3 1.4 4.8.1.1.2.1.4.2l-.1.3c.6 1.1 1.4 2 2 2.4l.1-.1c.2-.1.4 0 .6.2.1.1.1.2.2.3l.2.2c.7.3 1.3.4 2 .4 2.3 0 4.7-1.4 6.8-2.7.7-.5 1.4-.9 2.1-1.4l-.9-.6 2.1-.4c1.7-1.5 3.2-3.2 4.7-5.1.2-.4.5-.7.8-1.1.1-.1.1-.2.2-.2 1-1.5 1.6-2.8 1.8-4.2-.1-.1-.2-.2-.2-.3 0-.2.1-.4.3-.4 0-.4.1-.8.1-1.2 0-1.3-.2-2.6-.3-4.2h-.5c-.7 0-1.6-.4-2.3-.8-.7-.5-1.4-1-1.7-1.5-.1-.1-.1-.3 0-.5-.4.2-.8.3-1.2.3-.1.1-.2.1-.3.1-.8.1-1.6.3-2.2.5-.4.8-1 1.7-2.1 2.6-.8.8-1.7 1.6-2.7 2.3-1.8 3-4.7 6.5-8.5 7.2h-.1c-.2 0-.4-.1-.4-.3 0-.2.1-.4.3-.5 2.7-.5 5.1-2.8 6.8-5.2-1.2.7-2.6 1.2-4 1.2-.4-.2-.7-.2-.9-.2zm10.2 4.5c.4-.3 1-.5 1.6-.7.2-.1.4.1.5.3.1.2-.1.4-.3.5-.5.1-1.1.4-1.3.6-.1.1-.2.1-.2.1-.1 0-.3-.1-.3-.2-.2-.2-.1-.5 0-.6zm-.6 2.9c.5-.4 1.2-.7 1.9-.7.2 0 .4.2.4.4s-.2.4-.4.4c-.5 0-1.1.3-1.4.5-.1.1-.2.1-.3.1-.1 0-.2 0-.3-.1-.1-.2-.1-.4.1-.6zm-2.3-4.6c.3-.2.8-.6 1.1-.8 0-.1.1-.1.1-.2.1-.1.2-.1.4-.1s.4.1.4.3c.1.2 0 .4-.1.5 0 .1 0 .2-.1.2-.1.2-.3.3-.6.2-.3.2-.6.4-.8.6-.1.1-.2.1-.2.1-.1 0-.3-.1-.3-.2-.1-.2-.1-.5.1-.6zm-.3 7.6c.3-.4.8-.6 1.3-.6h.1c.2 0 .4.2.4.4s-.2.4-.4.4c-.3 0-.6.1-.7.3-.1.1-.2.2-.3.2-.1 0-.2 0-.3-.1-.2-.2-.2-.4-.1-.6zm-1.1-2.2c0 .2-.2.4-.4.4h-1.5c-.2 0-.4-.2-.4-.4s.2-.4.4-.4h1.5c.2-.1.4.1.4.4zm-2.6-2.5c.5-.1 1.2-.2 1.5-.2h.1c.2 0 .4.2.4.5 0 .2-.2.4-.5.4-.2 0-1 .1-1.3.2h-.1c-.2 0-.4-.1-.4-.3-.1-.3.1-.6.3-.6zm-1.1 4.7c.2 0 .4.2.4.5 0 .2-.2.4-.5.4h-.2c-.3 0-.5.1-.8.2h-.2c-.2 0-.3-.1-.4-.2-.1-.2 0-.5.2-.6.4-.2.8-.3 1.2-.3h.3zm-2.8-2.7h.5c.5 0 1.1.1 1.6.3.2.1.3.3.3.5-.1.2-.2.3-.4.3h-.1c-.4-.1-.8-.2-1.3-.2H41c-.2 0-.4-.2-.5-.4-.1-.2.1-.4.3-.5zm23-20.1c0-.3 0-.5-.1-.6 0-.1-.1-.1-.3-.1-.3.4-.6.9-.6 1.3v.4c.3-.4.6-.7 1-1zm2.1-1.2c.1.1.3.2.4.3 0 0 0-.1-.1-.1s-.2-.1-.3-.2zm-2.5 4.3c-.4-.3-.7-.8-.7-1.3 0-.2 0-.5.1-.7 0 .1-.2.2-.3.3 0 .1.1.1.1.2 0 .4.1.9.1 1.4 0 .3 0 .6-.1.9.3-.3.6-.5.8-.8zm1.5-1.5c1.1 0 1.4-.4 1.4-.8s-.3-1-1.2-1.5c-.2-.1-.3-.2-.5-.2.2.3.2.6.2.9 0 .5-.1 1-.1 1.4v.2h.2zm-7.4-.3c-.1-.1-.2-.2-.2-.3 0-.2-.1-.3-.2-.4-.5 0-1 .2-1.4.4-.1.2-.2.5-.2.8v.8c0 .2-.1.4-.3.4-.2.1-.5.1-.8.1H54c.2.3.5.4.9.5.5 0 1.2-.2 1.7-.7.6-.5.9-1 .9-1.6zm-.5 2.8l.5.5c0-.4-.1-.8-.1-1.3-.2.2-.5.4-.8.6.2 0 .4 0 .4.2zm2.4 1.5c0-.3-.1-.6-.1-.8-.1 0-.2-.1-.3-.2-.1.3-.3.6-.6.8.3.2.7.4 1 .5.1-.2 0-.2 0-.3zm-.3-9.6c-.5.6-1 1.4-1.7 2.4.8-.3 1.5-.5 2.1-.6 1-.3 2.2-.5 3.5-.5.8 0 1.7.1 2.5.4-.1-.2-.2-.5-.4-.7-1.2-.7-1.8-1.2-2-2.3-2.3 0-3.2.5-4 1.3zm1.3 8.9c0-.1 0-.1 0 0 0-.2-.1-.4-.2-.5v.7c.1-.1.1-.2.2-.2zm-.2-5.3c-.2.1-.5.1-.8.2v.1h.1c.1 0 .2 0 .2.1.2-.2.4-.3.5-.4zm24.5 33.7c-.5.2-.9.4-1.2.7.4-.3.8-.5 1.2-.7zM58.4 46.8c-.1.3-.2.8-.1 1.3 0 .5 0 1 .1 1.5 0-.1 0-.2.1-.4 0-.4 0-1 .2-1.6-.2-.4-.2-.6-.3-.8zM28.4 70c-.1-.2-.1-.4-.2-.5-.2-.4-.4-.7-.6-1.1-.6-1.2-2.2-3.4-2.9-5.4 0 .1-.1.3-.1.4.1.2.2.5.3.7.5 1.2 1.1 2.3 1.4 2.9 1 2.1 2.2 4.2 3.6 6.1-.6-1-1.1-2-1.5-3.1z"/><path fill="#F4F1EA" d="M54.3 47.4v.1h.6V47c-.3.2-.5.3-.6.4zm7.3 12c.2.1.3.3.2.5-.1.2-.2.5-.3.8h.3c.2 0 .4.1.5.3v-.8c0-.1.1-.2.2-.3-.2-.5-.4-1-.7-1.4 0 .3-.1.6-.2.9zm-1-8.1c.3-.1.6-.3 1-.7h-.4s0 .1-.1.1c-.3.3-.7.5-1.1.5.2 0 .3.1.5.1h.1zM64.2 65c.2.3.4.4.7.4h.2c-.4-.8-.8-1.6-1.1-2.4 0 .7.1 1.3.2 2zm-4.3 1.1c.4-.1.8-.1 1.2-.1 1.5 0 3.1.3 4.5.7-.2-.3-.3-.5-.5-.8 0 .1-.1.2-.2.3-.1.1-.2.1-.3.1-.3 0-.5-.1-.7-.2l-.2.2c-.2.1-.3 0-.5-.1-.4-.5-.7-1.3-1.1-2.1 0 .6-.1 1.2-.3 1.7.2.1 0 .2-.2.2s-.4-.2-.4-.4v-1.3c-.3.6-.6 1.1-.9 1.6 0 .1-.2.1-.3.1-.2 0-.3-.2-.3-.4v-.5c-.5.5-1 1-1.5 1.4.7-.2 1.3-.3 1.7-.4zm5.7 37v.1c.2 2.1.5 4.2.8 6.3 0-2-.1-3.9-.4-5.8-.1-.2-.3-.4-.4-.6zM77.4 91c1.1-.7 2-1.9 2.7-3.3-.8 1.3-1.7 2.4-2.7 3.3zM61 61.9c-.1.1-.2.3-.3.4 0 .1-.1.2-.1.3.1-.2.3-.4.4-.7z"/><path fill="#D598AA" d="M81 76.5s0 .1.1.1c.2-.1.6-.4.9-.8 0-.1-.1-.1-.1-.2-.3.3-.5.6-.9.9zm-13.4 7.6c.5 0 1.1 0 1.7.1l-.1.5c.1.1.2.2.2.4s-.2.4-.4.4h-1.4v.2h.1c0 .1-.1.1-.1.2V89l.1.1c0-.1.1-.2.1-.2 1.3-2.4 2-2.8 2-5.5v-.2c0-2.2-.6-3.7-2-5.4l-.1-.1c-.8-.5-1.8-.8-3-.9.9 1.1 1.9 2.5 2.3 3.9.4 1 .5 2.2.6 3.4zm.8-15.2c1.2 1.2 2.8 2.2 4.9 2.8 1.1.3 2.5.6 3.8.6-1.3-.4-2.7-.7-3.9-1-2-.5-3.4-1.5-4.8-2.4zm13 6c-.1-.2-.3-.4-.5-.5-.3.2-.5.3-.8.3.2.3.4.6.5 1 .4-.2.6-.5.8-.8zm-29-5c.4-.3.8-.7 1.2-1l-2.1.4c.2.2.5.4.9.6zm.8.4c.9.4 1.8.6 2.8.9.6.1 1.3.2 2.1.4-.9-.4-1.9-.7-2.7-.9-.1 0-.2-.1-.3-.3-.1 0-.1.1-.2.1s-.3-.1-.4-.2c-.1-.2-.2-.5-.2-.7v-.1c-.4.2-.7.5-1.1.8zm11.6 5.6c.4 0 .9.1 1.3.2-.8-.6-1.7-1.3-2.6-1.8.1.1.1.2.2.3.1.1 0 .3 0 .4l-.1.1c.3 0 .7.1 1.1.2.2.1.3.3.2.5 0 0 0 .1-.1.1zm14.4-2.4v-.4c-.1-.1-.2-.1-.3-.2-.1 0-.2 0-.4.1h.1c.2.1.4.3.6.5zM69 92.6h.2c-.1 0-.2-.1-.3-.1-.8-.3-1.4-.9-1.6-1.6 0 .9.2 1.5 1.7 1.7zm14-12.1c-.2.1-.4.2-.7.4l-.1-.2c0 .2.1.5.1.7v.8c0 .5 0 1.1-.1 1.7l.3-.9c.3-.9.4-1.7.5-2.5zm-.4-.8c.1 0 .2-.1.2-.1h-.1s0 .1-.1.1zm-1.2-2.3c.1.3.2.6.3.8l.6-1.5c-.3.3-.6.6-.9.7z"/><path fill="#D598AA" d="M81.5 81.3c-.1-.9-.4-2.4-.9-3.8-.1 0-.2 0-.2-.1l.1-.3c-.6-1.6-1.4-3-2.3-3.5-.2-.1-.3-.4-.1-.6l.1-.1h-.9c-1.5 0-3-.3-4.2-.6-2.8-.7-4.7-2.2-6.1-4 0 0-.1 0-.1.1-.2 0-.4-.1-.5-.3 0-.1-.1-.2-.2-.6-1.5-.4-3.3-.8-4.9-.8-.4 0-.8 0-1.1.1-.8.1-3.3.9-4.4 1.8-.4.3-.5.6-.5.8 0 .1 0 .2.1.3v.1c.1-.1.2-.1.4-.1 4.2 1.3 10 4 12.9 7.4 1.5 1.8 2.2 3.6 2.2 5.9v.2c0 2.9-.9 3.6-2.1 5.9-.2.3-.3.5-.3.8.1.1.1.2.1.3 0 .1-.1.2-.2.3.1.5.4.9 1.1 1.2.7.3 1.8.5 2.9.5 1.8 0 3.8-.4 4.6-.8.2-.1.4-.2.6-.4 1-.9 1.9-2.1 2.7-3.3.9-1.8 1.4-3.9 1.4-5.7-.2-.2-.2-.4-.2-.7zm.9-1.5c-.2 0-.3-.1-.4-.1 0 .1 0 .2.1.3.1-.1.2-.1.3-.2z"/><path fill="#EEB163" d="M38.3 24.8c.7-.4 1.6-1.3 2.5-2.1l1.5-1.2h-.2c-1.5 0-3.7 1.3-5.6 2.9-1.9 1.6-3.7 3.5-4.3 4.5-.2.3-.4.8-.6 1.2h.6c.5-.6 1-1.1 1.5-1.6 1.3-1.5 3.1-2.6 4.6-3.7zm-11.4-6.7c1.8-.8 3.9-1.4 6.1-1.7-3.5.1-6.8.9-9.2 2.9-2.8 2.4-2.5 5.7-.4 8.3-.2-.9-.3-1.9-.3-2.8 0-2.7 1.1-5.5 3.8-6.7zm1.8 17.7c-.1.1-.2.3-.3.4.3 0 .5 0 .8.1-.1-.2-.2-.3-.2-.5h-.3zm22.9-14.7c.9 0 1.7-.5 3.3-.7h.7c1.7 0 2.8.8 4.2 1.1h.3c.8 0 2-.5 3.3-1 1.3-.5 2.6-1 3.9-1 .9 0 1.9.3 2.5 1.2.4-.7.7-1.7 1.8-2.2-7 .3-14.2 1.5-21 .4-1.6-.2-3.5-.6-5.4-1 1.7.9 3.2 2 5 2.9.6.2 1 .3 1.4.3z"/><path fill="#EEB163" d="M25.6 30.4c1.7-.1 3.3-.2 5-.3.3-.6.6-1.2.9-1.7.7-1.2 2.5-3.1 4.5-4.7s4.3-3 6.2-3.1c.5 0 1 .1 1.4.4h.2c.2 0 .4.1.5.4 0 .2-.1.4-.4.5-.6.1-1.6.7-2.5 1.5-.9.8-1.8 1.7-2.6 2.2-1.5 1-3.2 2.2-4.5 3.5-.3.3-.6.7-1 1 2.4-.1 4.8-.2 7.2-.2 4-3.2 9-4.9 14.3-4.9h1.5c.2 0 .3.1.4.3v.6c0 .2-.1.4-.3.5-.2 0-.4-.1-.5-.3v-.2h-1.1c-4.8 0-9.2 1.3-12.9 4h3.6c5 0 7.3 1.9 11.4 3.8.1 0 .2.1.3.1v-.9c.1-1.7-.1-4.8 2-5.4 2.9-.8 3.9 1.2 4.1 3.8.1.8.1 1.7.1 2.5 1.5-.6 3-1.6 4.9-2.4 2.1-.9 4.4-1.5 6.8-1.8-.5-.5-.8-.9-1-1.1-2.1-2.1-5-3.4-7.9-3.4-1.4 0-2.8.3-4.1.9-.2.1-.5 0-.6-.2-.1-.2 0-.5.2-.6 1.4-.7 3-1 4.5-1 3.2 0 6.2 1.4 8.5 3.6.3.3.8.9 1.5 1.6 1.4-.1 2.7-.2 4.1-.2 1.9 0 3.9.1 5.8.3-.4-.4-.8-.9-1.2-1.3-2-2.4-3.9-4.2-6.2-4.2-.6 0-1.3.1-2 .4 0 .1.1.1.1.1.2.2.1.4 0 .6-.2.2-.4.1-.6 0-.2-.2-.3-.5-.3-.5-.1-.1-.2-.2-.2-.4 0-.1.1-.3.2-.3 1-.5 1.9-.7 2.8-.7 2.8 0 4.8 2.1 6.9 4.5.6.6 1.1 1.3 1.8 1.9 2 .2 4 .4 5.9.6 0-.3 0-.6.1-.8.1-.4.1-.9.1-1.4 0-1.1-.2-2.1-.6-3.1-1.1-1.6-2.6-2.9-4.1-3.7-.9-.5-1.8-.8-2.7-1.2-2-.5-4.1-.8-5.6-.9-1.5-.1-3.5-.5-5.3-.5-1.1 0-2.2.1-2.9.5-.9.4-1.1 1.5-1.9 2.6-.1.1-.2.2-.4.2-.1 0-.3-.1-.3-.2-.5-1-1.2-1.3-2.1-1.3-1 0-2.3.5-3.6 1-1.3.5-2.5 1-3.6 1h-.5c-1.6-.3-2.6-1.1-4.1-1h-.6c-1.4.2-2.2.7-3.4.7-.6 0-1.2-.1-1.9-.5-3.2-1.7-5.2-3.6-8.8-4.2-1.2-.2-2.5-.3-3.8-.3-3.4 0-7.1.6-9.9 1.9-2.4 1.1-3.3 3.4-3.3 5.9 0 1.2.2 2.5.6 3.6.1.6.4 1.2.9 1.9zm.5 6.2c.4-.2.8-.3 1.1-.4.2-.2.3-.4.5-.6-.4-.1-.7-.2-1.1-.3-.1.5-.3.9-.5 1.3zM90 34.1c-.3-.5-.7-.9-1.1-1.3-.1.2-.1.4-.1.6.1.1.3.2.4.3.3.1.5.3.8.4zm4-4.7c0 .2-.1.5-.1.8.3 0 .6 0 .8.1-.1-1-.3-2-.7-3v.6c.1.5 0 1 0 1.5zM25.4 35l-.2-.1v-.8c-.3.7-.7 1.5-1.1 2.5.2.1.4.1.6 0l.4.2c.3-.6.6-1.2.8-1.7-.2-.1-.3-.1-.5-.1z"/><path fill="#EEB163" d="M32.5 37.3l.1.5-.5-.2v.1c1.9 1.5 3.2 3.9 3.1 6.2 0 .4-.1.9-.2 1.3 1 1.1 2.4 2 4.5 2.4 1 .2 2 .4 3 .5.6-.6 1.2-1.3 1.8-2.1-.7.2-1.4.3-2.2.3-1.1 0-2.2-.2-2.9-.9-.5-.4-.6-1.1-.8-1.7-.1-.7-.2-1.4-.4-1.7-.1-.2-.2-.2-.2-.3-.1 0-.2.1-.3.1-.1 0-.2.1-.3.2-.2.1-.4.1-.6-.1-.1-.1-.1-.2-.1-.4v-.1c0-.2.2-.4.4-.4h.3c.2-.1.3-.1.5-.1.8-.3 1.5-.8 2.3-1.4 1-.8 2.1-1.6 3.6-1.6 1.7 0 2.5 1 2.9 2 .5 1 .8 2 1.7 2.4.1 0 .1.1.1.1 2.2-1.3 4.9-2.1 7.3-2.4h.2c.3-.7.5-1.3.7-1.9-.6-1.7-2.3-3.2-4.5-4.3-2.9-1.4-6.6-2.2-10.1-2.2-.7 0-1.5 0-2.2.1-1 1-2 2.1-2.9 3.4-.1.1-.2.2-.3.2-.1 0-.2 0-.2-.1-.3-.2-.3-.5-.2-.7.7-1 1.4-1.9 2.2-2.7-1.2.2-2.2.5-3.1 1-1.7.9-2.7 2.2-2.7 4v.5zm5.1.1c1.7-1.5 3.7-2.4 5.7-2.4 2.2 0 4.2 1.1 5.4 3.5.1.2 0 .5-.2.6h-.2c-.2 0-.3-.1-.4-.2-1-2.2-2.7-3.1-4.6-3.1-1.7 0-3.7.8-5.2 2.2-.2.2-.4.1-.6 0 0-.2 0-.5.1-.6zM78 40.9c-.2-.2-.3-.4-.7-.4.1.1 0 .3-.1.4.3 0 .6.1.8.1v-.1z"/><path fill="#EEB163" d="M55.3 40.9c-3.7.6-7.8 2.1-10 5.2-.6.8-1.1 1.5-1.7 2.1.6.1 1.2.1 1.8.1 3.1 0 6-.8 8.3-3v-.2c.3-1.5 1-2.9 1.6-4.2zm-12.9 2.6h.1c-1.3-.4-1.6-1.6-1.8-1.8-.1-.2-.1-.4 0-.6.1-.1.4-.1.5 0-.1-.3-.2-.5-.2-.8-.3.2-.5.6-.6 1.2v.3c0 1.1.8 1.7 2 1.7zm31.7-.7c1 .8 1.8 1.7 2.6 2.4.1 0 .2.1.4.1.4.1 1 .2 1.3.2.2 0 .5.1.8.1.7 0 1.4-.1 1.9-.4.8-.4 1-1.3 1.3-2.2.2-.7.4-1.4 1-2-.7-.2-1.3-.6-1.9-.9-.9-.5-1.7-.9-2.5-.9-.3 0-.6.1-.9.2-.1.1-.3.1-.4.2h.3c.9 0 1.6.3 2.1.7.4.4.7.9.7 1.4.1.1.1.1.1.2v.1c0 .2 0 .2-.1.4 0 .1-.1.2-.1.2-.3 1-1.1 1.8-2.4 2.2-.4.1-.7.1-1 .1-.5 0-1-.2-1.4-.5-.4-.4-.5-.9-.6-1.4v-.8c-.4.2-.7.5-1.2.6z"/><path fill="#EEB163" d="M79.8 42.6c.1-.1.1-.2.2-.3V42c0-.7-.4-1.3-1.3-1.5.3.5.4 1.1.4 1.6 0 .4 0 .8-.1 1.2.2-.1.4-.4.8-.7zm-37.5-.1l-.3-.3-.2-.2c.2.2.3.4.5.5zm1.2-.5c.1 0 .2 0 .3-.1.4-.1.6-.3.8-.4v-.1c0-.2-.1-.5-.2-.7-.1-.1-.3-.2-.4-.3-.3-.2-.7-.3-1-.4-.1 0-.1.1-.2.1-.3.2-.4.5-.4.7 0 .3.1.5.3.7.2.4.5.5.8.5zm34.5-.1c-.5-.1-1-.2-1.4-.2v.2c0 .3.1.5.3.7.2.2.5.3.7.3.1 0 .2 0 .3-.1.1-.1.1-.2.1-.5.1-.1 0-.3 0-.4zm-43.8 9.4c.1.8.4 1.6.7 2.3.5.2.9.3 1.4.3 2 0 4-1.9 5.9-2.8.2-.1.5 0 .6.2.1.2 0 .5-.2.6-1.7.8-3.8 2.9-6.3 2.9-.2 0-.5 0-.7-.1 1.1 1.5 2.8 2.5 4.7 2.9 1.6-1.6 2.8-3.7 3.2-5.5 0-.2.2-.3.3-.3.2 0 .4-.1.6-.1h.3c.2 0 .4.2.4.4s-.2.4-.4.4h-.5c-.5 1.7-1.6 3.6-3 5.2h.8c1.4-.1 2.7-.5 4-1.2.5-.6.9-1.3 1.2-1.9 1.5-2.6 2.9-4.5 5.7-5.3.1-.3.1-.5.2-.8 0-.1-.1-.2-.1-.3-2 1.3-4.2 1.8-7 1.8h-1.6c-1 0-1.9-.1-2.8-.2-1.4 1-3.2 1.6-5.6 1.6-.2 0-.4-.2-.4-.4s.2-.4.4-.4c1.8 0 3.1-.3 4.2-.9-2.1-.3-4.1-.8-6-2.2.1 1.2-.1 2.5 0 3.8z"/><path fill="#EEB163" d="M52.7 50.3c-2.1.8-3.2 2.4-4.6 4.7-.1.1-.1.2-.2.3 1-.7 1.9-1.5 2.7-2.3 1-1 1.7-1.8 2.1-2.7zm12.4-8c-.4-.8-.6-1.5-.9-2.3H63c.3 1.1.9 1.6 2.1 2.3zm-25.3 2.4c.5.5 1.4.7 2.4.7s2.1-.3 2.8-.6h.3c.6-.7 1.4-1.3 2.2-1.9-1-.7-1.4-1.8-1.8-2.6-.5-.9-.9-1.5-2.2-1.6 0 .1.1.1.1.2s0 .2-.1.2c.7.1 1.2.5 1.6 1.1.3.3.5.6.5 1 .2.1.3.3.3.5-.5 1.7-2.1 2.5-3.5 2.5-.7 0-1.4-.2-1.9-.6-.5-.4-.9-1.1-.9-1.9v-.5c0-.3.1-.6.2-.8-.4.3-.8.6-1.2.8 0 .1.1.1.1.2.2.4.3.8.4 1.2.2 1 .5 2 .7 2.1zm40.5 7.9c-.4-.7-.7-1.4-1.1-2.1-1.6-.1-3.2-.3-5.1-.7.2.1.5.3.7.4.2.1.3.3.2.6-.1.2-.2.2-.4.2h-.2c-.8-.4-1.6-1-2.3-1.5-1.4-.4-2.6-1.2-3.7-2.3 0 .3-.1.5-.3.8 0 .1-.1.2-.1.4 2.6 1 4.4 3.1 6.6 4.6h.2c1.6 0 2.7.8 3.6 1.9 1.5.5 2.9.8 4.5 1-1.1-.9-1.9-2.1-2.6-3.3zm7.1 3.4c-1.6-2-2.9-3.7-3.5-5.7-1.4.2-2.7.3-3.8.3.3.6.6 1.1.9 1.6 1.1 1.8 2.2 3.3 4 3.8h2.4zM78 43.7c-.1 0-.3.1-.4.1-.6 0-1.2-.3-1.6-.9.1.5.2.7.4.9.2.2.4.3.8.3.2 0 .4 0 .7-.1v-.2c.1 0 .1-.1.1-.1z"/><path fill="#EEB163" d="M67.4 39.3c.3 0 .6.1.9.2 1.8.4 3.5 1.5 5.1 2.8.9-.2 1.4-.7 1.9-1.4.6-.8 1.2-1.7 2.5-2.2.4-.2.8-.2 1.2-.2 1.1 0 2 .5 2.9 1 .9.5 1.7 1 2.5 1 .2 0 .3.2.4.4 0 .2-.1.4-.2.4-.9.4-1.1 1.1-1.4 2.1-.3.9-.5 2.1-1.6 2.7-.7.4-1.5.5-2.3.5-.3 0-.6 0-.9-.1-.2 0-.4-.1-.6-.1.4.5.8 1.1 1.1 1.7 1.7 0 3.4-.2 4.7-.4 0-1 .2-2 .6-3.2 1.4-4 2.2-8 .2-11.7 1.6 0 2.5-.2 3.7.3 0-.2.1-.5.2-.7-1.3-.4-2.7-.5-4.2-.5-1.1 0-2.3.1-3.4.1h-2.5c.9.9 1.8 1.9 2.6 2.5.7.6 1.3.9 1.5.9.2 0 .4.1.5.3 0 .2-.1.4-.3.5h-.2c-.6 0-1.2-.5-2-1.1-.8-.6-1.6-1.5-2.4-2.3l-.8-.8c-2.5.2-4.6 1-6.9 2.5-1.7.9-2.6 2.8-2.8 4.8zm6.8-1.5c.5-1.7 1.7-2.3 2.9-2.3 1.6 0 3.3.9 4.3 1.2.2.1.4.3.3.5-.1.2-.3.3-.5.3-1.2-.3-2.8-1.1-4.1-1.1-.9 0-1.6.3-2.1 1.7-.1.2-.2.3-.4.3h-.1c-.2-.2-.3-.4-.3-.6z"/><path fill="#EEB163" d="M77.8 48.1c-.5-.8-1-1.5-1.5-2-.1 0-.2-.1-.2-.1-.1-.1-.2-.1-.2-.4-.8-.8-1.7-1.6-2.7-2.4H73c-.2 0-.4-.2-.5-.4v-.1c-1.5-1.1-3-2.1-4.5-2.4-.2-.1-.5-.1-.7-.1v.3c0 1 .2 2.1.5 3 1.3 3.3 5.7 4.4 10 4.6zm-62 65.1v-1.1c.1-1.9.3-3.8.3-5.5 0-2.1-.3-4-1.5-6-2-3.2-3-5.7-3-9.4v-1.4c.1-1.7.7-3 1.5-4.2-1.8 2.1-2.6 5.7-2.6 7.7.1 2.6 1.5 3.9 2.6 6.1 1 2.2.8 5.2 1 7.6.1 1.9 0 3.8 0 5.7 0 3.1 1 5.1 2 8 1.2 3.5 3.2 7.5 5.7 10.4-.8-2.3-1.8-4.5-2.8-6.6-2-3.6-3.2-7.1-3.2-11.3zm5.1-11c-.5-2.5 1.2-4.9 1.6-7.7.3-2.4-1.5-4.4-3.5-5.5-1.1-.6-2.3-.4-3-1.2-.1-.1-.1-.2-.2-.2v.8c0 1.8.6 2.5 1.4 3.2.8.7 1.9 1.5 2.5 3.2.2.6.3 1.3.3 2 0 1.4-.3 2.8-.3 4.1 0 .5.1 1.1.2 1.5.2.7.6 1 1.1 1.4.2.2.5.3.8.5l-.1-.1c-.4-.8-.7-1.4-.8-2z"/><path fill="#EEB163" d="M14.9 84.4c-1.1 1.9-2.3 3.3-2.4 5.5v1.4c0 3.5.9 5.8 2.9 9 1.3 2.1 1.7 4.3 1.7 6.4 0 1.8-.2 3.7-.3 5.6v1.1c0 4 1.1 7.4 2.9 11 1 1.9 1.9 4 2.7 6.1.1-.3.3-.5.4-.8.1-1.3.2-2.7.5-4 0-.8.1-1.7.4-2.6.8-2.4 1.6-4.9 1.9-7.3.1-.6.1-1.1.1-1.6 0-1.9-.6-3.3-1.7-5.2-.7-1.2-.9-2.4-1.7-3.2-.5-.5-1-.9-1.6-1.3-.6-.4-1.1-.9-1.4-1.8-.2-.6-.2-1.2-.2-1.8 0-1.4.3-2.8.3-4.1 0-.6-.1-1.2-.3-1.7-.5-1.5-1.4-2.1-2.3-2.8-.9-.8-1.7-1.8-1.7-3.8 0-.9-.1-2-.1-3-.1-.5-.1-.8-.1-1.1zm1.9-1.2l-.8 1h-.3v1c.4-.8.9-1.5 1.1-2z"/><path fill="#EEB163" d="M27.3 116.8c.6-2.2 1.1-5 .2-7.2-.8-2-2.8-2.9-4.5-4.2.7 1 .9 2 1.5 2.9 1.1 1.9 1.8 3.5 1.8 5.6 0 .5 0 1.1-.1 1.7-.2 1.8-.7 3.7-1.3 5.5.6-.8 1.2-1.6 1.6-2.5.4-.6.6-1.1.8-1.8zm79.3-20.9c0 .4 0 .8-.1 1.1-.3 2.1-1.6 3.9-2.5 5.7 1-1.3 2.4-2.5 2.8-4.1 2.4-8-5.4-14.3-6.1-21.7v.9l-.3-.2c.8 2.1 1 4.4 1.7 6.3 1.3 3.6 4.5 7.8 4.5 12zm-4.9 16.2c0 .8.1 1.6.3 2.4 0-.7-.2-1.5-.3-2.4zm-9-20.3c-.1 1.1 1.2 1.5 1.7 2.3.3.4.5.8.6 1.3v-.1c.2-.6.7-1.2 1.1-1.7.4-.5.6-1 .6-1.5 0-.1 0-.2-.1-.4-.2-.5-.3-.5-.6-.6-.3-.1-.7-.1-1.2-.2-.3-.1-.6-.3-.8-.7 0 0 0-.1-.1-.1-.6.6-1.2 1.2-1.2 1.7zm2.6 8.7c.2-.3.4-.7.4-.8v-.1c0-.3-.1-.4-.2-.6v-.1c-.1.6-.2 1.2-.3 1.9 0-.1 0-.2.1-.3z"/><path fill="#EEB163" d="M101.5 118.1c.1-.5.2-.9.3-1.4-.6-1.5-1-3.1-1-4.7v-.5c0-.2.2-.4.4-.4.1 0 .2.1.3.1-.1-.5-.1-.9-.1-1.4v-.4c.1-2.1.4-4.3 1.3-6.3 1.1-2.2 2.6-4.2 2.9-6.3.1-.3.1-.7.1-1 0-3.7-3-7.9-4.4-11.5-.9-2.6-1-5.3-2.2-7.4 0-.1-.1-.1-.1-.2l-.2-.2c.3.5.5.9.7 1.1.1.1.1.3.1.4 0 .1-.2.3-.3.3-.8.2-1.3.4-1.5.6-.2.2-.2.2-.3.4 0 .2.2.7.4 1.3.2.6.5 1.4.5 2.4v.3c0 .7 0 1.2-.1 1.7s-.4.9-.8 1.5c-.1.1-.2.3-.4.4-.2.5-.6 1.1-1.2 1.7-.2.2-.7.6-1.1 1 0 .1 0 .2.1.3.1.2.2.2.4.3.2.1.4.1.7.1.5 0 1.4.3 1.7 1.3.1.2.1.4.1.6 0 .8-.4 1.4-.8 1.9-.4.6-.8 1.1-1 1.5-.2.5-.2.8-.2 1.1 0 .4.1.8.2 1.4 0 .1.1.2.3.4.2.2.3.6.3 1.1v.1c0 .5-.3.9-.5 1.3-.1.1-.2.3-.3.4h.1c.2 0 .4.1.4.3 0 .2.1.4.1.5 0 .9-.4 1.5-.8 2.1-.4.6-.6 1.1-.7 1.6h.4c.5 0 .9 0 1.4-.1.1 0 .3 0 .4.1.1.1.2.2.2.3v.1c0 1.8-.7 3.2-.7 3.7 0 .2 0 .1.1.2.1 0 .3.1.7.1.5 0 1.2-.1 2.1-.2.1 0 .2 0 .3.1.1.1.2.2.2.3v.3c0 1.1-.6 2.7-.6 3.9 0 .5.1.9.3 1.2.2.3.5.5 1.1.6.1 0 .2.1.3.2.1.1.1.2.1.3v.1c0 .3.2.3.5.9.1.2 0 .5-.3.5h-.1c-.2 0-.3-.1-.4-.3 0-.1-.4-.4-.5-1-.4-.1-.8-.3-1.1-.5.5 1.2.8 2.5 1.7 3.5.1-.8.3-1.4.5-2.1z"/><path fill="#EEB163" d="M97.3 78.2c.3-.2.7-.3 1.2-.5-.2-.3-.4-.7-.7-1.2-.5.6-.8 1.4-1 2.2.1-.2.3-.4.5-.5zm-3.6 32.7c.8 2.3 3.4 2.7 4.8 4.6-.1-.3-.1-.6-.1-.9 0-1.3.5-2.7.6-3.6-.7.1-1.3.2-1.8.2s-.8-.1-1.1-.3c-.3-.2-.4-.6-.4-.9 0-.9.6-1.9.7-3.4-.3 0-.7.1-1 .1h-.9c-.2 0-.3-.2-.4-.4v-.4c0-.9.4-1.5.8-2.1.4-.6.7-1.1.7-1.7h-.4c-.1 0-.2-.1-.3-.1-1 2.9-2.3 5.7-1.2 8.9zm2.9-29.5c.1 1.6.6 2.7.7 3.7.1-.1.1-.3.2-.4.1-.3.1-.8.1-1.5V83c0-.9-.2-1.6-.4-2.1s-.4-1-.5-1.5c-.1.7-.1 1.4-.1 2zm29.3 64.9c0-2.1-.1-4.2-.3-6.2-.2-1.4-.7-2.4-1.4-3.4.5 1.4.8 2.9 1 4.7.3 1.8.5 3.4.7 4.9zm-6.2 15.7c-.5.1-.8.3-.8.4 0 0 .1.3.5.7.1.1.2.1.3.2.3-.5.7-1 1-1.5 0-.1.1-.1.1-.2-.4.2-.8.3-1.1.4zm-3-33.3c1.3 1 2.5 2.2 3.8 3.2.5.4.9.8 1.3 1.2 0 0 0-.1-.1-.1-1.2-3.3-3-4.5-6.2-6-2.1-1-4.3-1.6-6.3-2.8-.4-.2-.8-.4-1.3-.6 1.4 1.2 3 2.3 4.5 3.1 1.4.7 2.9.9 4.3 2zm-6.4 11.6c.1-.4.3-.9.5-1.3.4-.8.7-1.5.7-1.9v-.1c-.6.2-1.2.6-1.8.9.2.1.3.1.4.2.4.6.3 1.3.2 2.2zm5.9 8.4c.8-1.1 1.4-2.1 1.4-3.2-1.2 0-2.2.9-3.6 1.5.7.4 1.3.9 1.9 1.4l.3.3zm-16.5-22c0-.7.1-1.5.1-2.2 0 .2-.1.5-.1.7v1.5zm7 11.2v-1.7c-.9.5-1.7 1.3-2.7 2.2.1 0 .1 0 .2-.1.5-.1 1.5-.3 2.5-.4zm-8.2 4.2c-.1.2-.1.4-.2.6.2-.2.4-.5.6-.7-.1 0-.3 0-.4.1zm-.6-.8c.1-.5.3-1 .3-1.5l-.3 1.5z"/><path fill="#EEB163" d="M116.8 157.7c.3 1.2.9 7.2 1.9 7.6.2-.4.3-.9.5-1.3-.2-.1-.3-.2-.5-.4l-.2-.2c-.1 0-.2-.1-.3-.2-.5-.9-.7-1.8-.7-2.9 0-2.8 1.3-6.1 1.3-8.5v-.2c-.5.4-1.1 1-1.8 1.3-.2 1.6-.6 3.2-.2 4.8z"/><path fill="#EEB163" d="M106.9 135.1c.1-.1.3 0 .4 0 .1.1.2.2.2.3v2.3h.6c1-.5 2.1-1.4 3.5-1.7.2 0 .4.1.4.2.1.2.2.5.2.8 0 .8-.4 1.5-.7 2.3-.3.6-.5 1.2-.6 1.7.3-.2.7-.5 1.1-.7.6-.4 1.2-.8 1.9-.8.6 0 1.2.4 1.4 1.2.1.3.1.5.1.8 0 1.1-.8 2-1.4 2.8-.6.7-1.1 1.3-1.2 1.9.1.1.2.1.3.2 1.4-.4 2.7-1.7 4.5-1.8h.4c.2 0 .3.2.4.4v.4c0 1.4-.8 2.6-1.5 3.7-.1.1-.1.2-.2.3.4.8.5 1.6.5 2.5.6-.4 1.2-1 1.9-1.4.1-.1.3-.1.4 0 .1.1.2.2.2.3 0 .3.1.6.1 1 0 2.7-1.3 5.9-1.3 8.5 0 .5 0 .9.1 1.3.2-.1.4-.2.7-.3.5-.2 1.2-.4 1.7-.7 1.7-1.1 2.3-2.3 3.1-4.2.9-2.4 1.3-4.6 1.3-6.8 0-2.5-.4-5.1-.9-8-.6-4.1-1.2-6.6-4.4-9.1-1.3-1-2.5-2.1-3.8-3.2-1.2-1-2.6-1.2-4.1-2-2.2-1.3-4.6-3-6.6-5.1-.4-.3-.7-.7-1-1-.4-.6-.7-1.1-1.3-1.6l-1-1c-.6 1.9-1.4 3.5-1.6 5.5-.2 2.5-.2 5.1-.2 7.7 0 3.2-1 5.4-1.5 8.2l-.3 1.2c1.2-.4 2.4-1.3 3.6-2.3 1.6-1.4 3-3 4.6-3.8z"/><path fill="#EEB163" d="M110.3 144.2c.4.6 1 1.1 1.7 1.5.2-.8.8-1.4 1.3-2 .7-.8 1.2-1.5 1.2-2.2 0-.2 0-.3-.1-.5-.2-.6-.4-.6-.6-.6-.3 0-.8.3-1.4.6-.6.4-1.2.8-1.8 1.1-.1.1-.3.1-.4 0-.1-.1-.2-.2-.2-.3v-.6c-.1 1.1-.3 2.2.3 3z"/><path fill="#511B2A" d="M74.6 53.8zM49 61.3c.1 0 .2 0 .2-.1.2-.2.5-.4.8-.6.2.1.5 0 .6-.2 0-.1.1-.2.1-.2.1-.1.2-.3.1-.5s-.2-.3-.4-.3c-.1 0-.2 0-.4.1-.1 0-.1.1-.1.2-.4.3-.8.6-1.1.8-.2.1-.2.4-.1.6 0 .1.1.2.3.2zm2.9 1.6c.1 0 .2 0 .2-.1.3-.2.9-.5 1.3-.6.2-.1.4-.3.3-.5-.1-.2-.3-.4-.5-.3-.6.1-1.2.4-1.6.7-.2.1-.2.4-.1.6.1.2.3.2.4.2zm-.6 3c.1 0 .2 0 .3-.1.3-.3.9-.5 1.4-.5.2 0 .4-.2.4-.4s-.2-.4-.4-.4c-.7.1-1.4.3-1.9.7-.2.1-.2.4 0 .6-.1 0 0 .1.2.1zm-2.5 2.9c.1 0 .2-.1.3-.2.1-.1.4-.3.7-.3.2 0 .4-.2.4-.4s-.2-.4-.4-.4h-.1c-.5 0-1 .2-1.3.6-.1.2-.1.4.1.6.1 0 .2.1.3.1zM45 65.9c0 .2.2.4.4.4h1.5c.2 0 .4-.2.4-.4s-.2-.4-.4-.4h-1.5c-.2-.1-.4.1-.4.4zm-.2-1.7h.1c.3-.1 1.1-.2 1.3-.2.2 0 .4-.1.5-.4 0-.2-.1-.4-.4-.5h-.1c-.3 0-1 .1-1.5.2-.2.1-.4.3-.3.5.1.3.2.4.4.4zm-2.9 4.7c.1.2.2.2.4.2h.2c.2-.1.5-.1.8-.1h.2c.2 0 .4-.1.5-.4 0-.2-.1-.4-.4-.5h-.3c-.4 0-.8.1-1.2.3-.2.1-.3.3-.2.5zM73 61.5c0 .2.2.4.4.4.5 0 .8.2.9.4.1.2.2.3.4.3h.2c.2-.1.3-.3.2-.5-.3-.6-1-.9-1.6-.9-.4-.1-.5 0-.5.3zm1.6 2.9c-.6-.3-1.2-.5-1.8-.7-.2-.1-.4.1-.5.3-.1.2.1.4.3.5.5.1 1.1.3 1.6.6h.2c.2 0 .3-.1.4-.2.1-.1 0-.4-.2-.5zm-4.5.4c-.2.1-.3.3-.2.5.2.5.5.9.7 1.3l.1.1.1.1c.1 0 .1.1.3.1.1 0 .3-.1.4-.2v-.4c.1-.2 0-.3-.1-.5-.1-.1-.2-.1-.3-.1-.2-.3-.3-.6-.4-.8-.2-.1-.4-.1-.6-.1zm0-3.6c.1.1.2.2.4.2h.2c.2-.1.3-.4.2-.6-.2-.4-.6-.9-.9-1.2-.2-.1-.4-.1-.6.1-.1.2-.1.4.1.6l.6.9zm1.4-4c.4.3.9.5 1.3.7h.2c.2 0 .3-.1.4-.3.1-.2 0-.5-.2-.5l-1.2-.6c-.2-.1-.5-.1-.6.1-.2.3-.1.5.1.6zm3.9 1.1c.4.1.6.3.7.7 0 .2.2.3.4.3h.1c.2-.1.4-.3.3-.5-.2-.7-.7-1.2-1.4-1.3-.2 0-.4.1-.5.3 0 .3.1.5.4.5zm1.7 4.8c.3.2.7.3 1.1.3h.2c.2 0 .4-.2.4-.4s-.2-.4-.4-.4h-.1c-.2 0-.5-.1-.7-.2-.2-.1-.5 0-.6.2-.1.1-.1.4.1.5zm-.4 1.3c-.2 0-.4.2-.4.4s.2.4.4.4c.5 0 .9.2 1.1.6.1.1.2.2.4.2h.2c.2-.1.3-.4.2-.6-.4-.7-1.2-1-1.9-1zm.8 3.1H76c-.2 0-.4.2-.4.4s.2.4.4.4h1.5c.2 0 .4-.2.4-.4.1-.2-.1-.4-.4-.4zm-4.5.9c-.2 0-.4.1-.5.3 0 .2.1.4.3.5.3 0 .6.2.9.4.1 0 .2.1.2.1.1 0 .3-.1.3-.2.1-.2.1-.5-.1-.6-.2-.3-.7-.5-1.1-.5zm7.9-2.1h1c.2 0 .4-.2.4-.4s-.2-.4-.4-.4h-1c-.2 0-.4.2-.4.4s.1.4.4.4zm-40 0h.4c.5 0 .9.1 1.3.2h.1c.2 0 .3-.1.4-.3.1-.2 0-.5-.3-.5-.5-.2-1-.3-1.6-.3h-.5c-.2 0-.4.2-.4.5.1.2.3.4.6.4z"/><path fill="#511B2A" d="M123.2 165.2c-.6-.5-1.4-.8-2.1-1.2-.5-.2-1.1-.5-1.4-.7-.1-.1-.2-.1-.3-.2-.4-.4-.5-.7-.5-.7s.3-.2.8-.4c.3-.1.7-.2 1.1-.4l.6-.3c1.9-1.2 2.7-2.6 3.5-4.6 1-2.5 1.3-4.8 1.3-7.1 0-1.1-.1-2.1-.2-3.2-.2-1.6-.4-3.2-.7-4.9-.3-1.8-.5-3.3-1-4.7-.5-1.4-1.2-2.6-2.3-3.8-.4-.4-.8-.8-1.3-1.2-1.3-1-2.5-2.1-3.8-3.2-1.4-1.1-2.9-1.3-4.2-2.1-1.5-.8-3-1.9-4.5-3.1-1.6-1.4-3-2.9-4.1-4.6l-1.2-2.1c.1-.5.1-.9.1-1.4 0-.4 0-.8-.1-1.2-.1-1.5-.5-2.9-.5-4.2v-.4c.1-2 .4-4.2 1.2-5.9.1-.3.3-.6.4-.8 1-1.8 2.2-3.6 2.5-5.7.1-.4.1-.8.1-1.1 0-4.1-3.2-8.4-4.4-11.8-.7-2-.9-4.3-1.7-6.3l-.6-1.2c-1.5-2.5-2.8-4.7-4.2-7.2-1.4-2.6-3.1-5.6-4-8.5-.1-.4-.2-.8-.3-1.1.7-2.1 1.5-4.2 1.5-6.5 0-.8-.1-1.7-.4-2.6-.1-.4-.3-.7-.5-1.1-.5-.9-1.1-1.6-1.7-2.3.2-.2.3-.5.5-.7.9-1.5 1.4-3.3 1.8-5.1.5-1.9 1.2-3.6 2.6-5.1.7-.8 2.6-1.7 2.6-3.5 0-.4-.1-.8-.3-1.3v-.8h-.2c-.7 0-1.5-.1-2.3-.2-.3 0-.5 0-.8-.1 0-.3 0-.6.1-.8.1-.5.1-1 .1-1.5v-.6c-.1-2-.9-4.1-2.4-5.6-2.7-2.5-8-3.1-11.3-3.5-1.4-.1-3.5-.5-5.3-.5-1.2 0-2.3.1-3.2.6h-.1c-1 .6-1.4 1.5-1.8 2.2-.6-.9-1.6-1.2-2.5-1.2-1.3 0-2.6.5-3.9 1-1.3.5-2.5 1-3.3 1h-.3c-1.4-.2-2.5-1-4.2-1.1h-.7c-1.6.2-2.5.8-3.3.7-.4 0-.9-.1-1.5-.4-1.8-.9-3.3-2-5-2.9-1.2-.6-2.5-1.1-4.1-1.4-1.2-.2-2.6-.3-4-.3-1.3 0-2.7.1-4.1.3-2.2.3-4.3.9-6.1 1.7-2.8 1.2-3.8 4-3.8 6.7 0 1 .1 1.9.3 2.8.1.4.2.7.3 1 .3.9.8 1.6 1.2 2.4 0 .1.1.1.1.2.1.1.1.2.2.3-.1.4-.1.9-.1 1.4V35l.2.1c.2 0 .3.1.5.1-.2.6-.5 1.2-.8 1.7-.2.4-.5.8-.8 1.3-.1.1-.1.3 0 .4.1.1.2.2.3.2h.1c1.6-.2 2.7-1.2 3.7-2.5.1-.1.2-.3.3-.4h.3c.1.2.1.3.2.5v.7c0 2.8 1.3 4.5 1.3 6.6 0 .8-.2 1.6-.7 2.6-1.1 2.2-3.2 5-3.2 8 0 .5.1 1.1.2 1.6l-.1.1c-.7.8-1.6 1.5-2.4 2.3-.8.8-1.4 1.7-1.4 3 0 .5.3 1.3.6 2.1-.4 1.2-.7 2.4-1.1 3.3-.8 1.7-1.8 3.4-2.8 5-1.2 1.9-2.3 3.9-3.2 6.1-.7 1.8-1.1 3.7-1.9 5.3-.5.9-1 1.7-1.5 2.5-.7 1.2-1.4 2.4-1.5 4.2v1.4c0 3.7 1 6.2 3 9.4 1.2 1.9 1.5 3.9 1.5 6 0 1.8-.2 3.6-.3 5.5v1.1c0 4.1 1.2 7.7 3 11.3 1.1 2.1 2 4.3 2.8 6.6 0 .1.1.2.1.3-.1.3-.1.6-.1 1v.4c0 .2.2.4.4.4.1 0 .1 0 .2-.1.5 1.6.9 3.2 1.2 4.9.3 2 .5 3.9.5 5.9 0 2.3-.3 4.6-.8 6.8-.6 2.3-1.1 4.5-2.4 6.3-1 1.2-2 2.2-3.1 3.3-.5.4-.9.9-1.4 1.3-1.4 1.4-2.5 2.9-2.5 5v.5c.1 1.5.9 2.3 1.8 2.6.6.2 1.3.2 2.1.3.1.3.2.6.5.8.1.1.2.1.3.1.1 0 .2 0 .3-.1.2-.2.4-.5.7-.7l.6-.6c.1 0 .1.1.2.1h5c.1 0 .2 0 .2-.1v.2c0 .3 0 .6.1.9 0 .2.2.4.4.4h.1c.8-.1 1.3-.7 1.6-1.3 0-.1.1-.2.1-.4 1.1.1 2.6.2 4 .2 1.1 0 2.2-.1 3-.6.6-.4 1.3-1.2 1.8-2.1.5.1 1.1.1 1.7.1 1.7 0 3.6-.3 5-.3 2.9-.1 5.8-.3 8.7-.3h4.7c1 0 2.1-.1 3.1-.2.6-.1 1.1-.3 1.6-.5.9-.4 1.7-.8 2.2-1 .2-.1.3-.3.3-.5-.1-.2-.3-.3-.5-.3-1 .4-2.2 1.2-3.7 1.4-1.3.2-2.7.2-4 .2h-3.7c-3 0-5.9.1-8.8.3-1.5.1-3.3.3-5 .3-.4 0-.9 0-1.3-.1.2-.4.4-.7.5-1.1.1.2.2.3.4.3h.1c.4-.1.9-.4 1.3-.7.4-.4.7-.9.7-1.5v-.4c-.2-.6-.7-1-1.2-1.2.1 0 .1-.1.1-.1.6-1.1 1-2.4 1-3.7 0-.4 0-.9-.1-1.3-.4-1.8-1.8-3-1.9-4.6v-.3c0-.8.3-1.4.6-2 .4-.6.9-1.2 1.2-2.1.2-.5.2-.9.2-1.3 0-.8-.3-1.4-.6-1.9-.3-.6-.6-1.1-.8-1.8-.2-.8-.4-1.6-.4-2.4 1.7 3.7 4.9 7.2 7.1 8.9 3.6 2.7 6.5 5.7 10.5 7.9 3.1 1.7 6.3 2.7 9.6 3.4 1.6.3 3.3.6 5 .8.9.1 2.1.2 3.2.3.6.1 1.2.2 1.7.3v.2h-.1c-.5-.2-1.1-.2-1.9-.2-3.5 0-9.1 1.6-10.8 1.6h-.1c-2.7-.1-4.6-1.8-7.2-3.1-4.6-2.4-9.2-3.8-14.5-3.8-.2 0-.4.2-.4.4s.2.4.4.4c5.2 0 9.6 1.4 14.2 3.7 2.4 1.2 4.5 3 7.5 3.2h.2c2 0 7.5-1.6 10.8-1.6.7 0 1.2.1 1.6.2.1 0 .2.1.3.1 0 .2-.1.3-.1.5 0 .1-.1.3-.3.6-.3.5-.7 1.1-1 1.7-.6 1-1.2 2.2-1.2 3.2 0 .7.4 1.5 1.2 1.8 0 .3.1.7.3 1 .1.2.3.3.5.4 0 .1.1.2.2.3h.1c.1 0 .2 0 .3-.1.2 0 .4 0 .6-.1.1 0 .3-.2.3-.3.1-.3.2-.7.3-1 .5 0 1 .1 1.6.1.7.1 1.5.1 2.2.1.7 0 1.4-.1 2-.3.1 0 .2-.1.2-.2.3.6.7 1.1 1.4 1.3.1 0 .2.1.2.1s0 .1.1.1c.1.1.2.2.3.2.1 0 .2-.1.3-.1h.1c.1 0 .2-.1.3-.1.1-.1.1-.2.1-.3v-.7c.3.1.6.1.8.1.7 0 1.3-.2 2-.2h.1v.1c.1.2.4.4.7.5.1.1.2.2.3.2.1 0 .3-.1.3-.2.3 0 .6-.2.9-.3.1-.1.2-.2.2-.3v-.5l.1.1c.4.3.9.4 1.4.4 1 0 1.9-.4 2.6-.4.2 0 .4-.2.4-.5 0-.2-.2-.4-.5-.4-.9.1-1.8.4-2.6.4-.4 0-.7-.1-.9-.2-.2-.1-.3-.1-.5 0v-.3c0-.4 0-.9-.2-1.2-.1-.4-.6-.7-1.1-.7h-.3c0-.1-.1-.1-.2-.2-.2-.1-.5 0-.5.2 0 .1-.1.2-.1.3-.1.1-.2.3-.1.4-.1.5-.2 1-.2 1.6v.3c-.8 0-1.4.2-1.9.2-.3 0-.5 0-.8-.1 0-.6 0-1.2.1-1.7 0-.1 0-.2-.1-.3-.1-.1-.2-.2-.3-.2-.4 0-.7-.1-1.1-.1-.3 0-.5 0-.8.1v-.1c.1-.2-.1-.5-.3-.5-.2-.1-.5 0-.5.3-.1.3-.2.6-.2 1-.1.1-.1.2 0 .4v.1c0 .3 0 .6.1 1-.1 0-.2-.1-.3 0-.5.2-1.1.2-1.7.2-1.1 0-2.4-.2-3.5-.2.3-.6.7-1.2 1.3-1.7.1-.1.2-.3.1-.5s-.2-.3-.4-.3h-.7c-.8 0-1.6 0-2.5.3-.1 0-.2.1-.3.2-.1.1-.1.2-.1.4v.2c-.2.3-.4.6-.4 1v.1l-.3-.3c-.1-.2-.2-.4-.2-.6v-.2c.1-.7.5-1.7 1.1-2.6.2-.3.4-.7.6-1 .4-.6.7-1.1.8-1.5v-.1h.2c.2-.1.3-.3.3-.5-.1-.2-.1-.3-.3-.4v-.5c.1 0 .2.1.2.1.1 0 .2.1.2.1.1 0 .3-.1.3-.2.1-.2.1-.5-.1-.6l-.6-.3c0-.6.1-1.2.4-1.9.8-1.8 1.1-3.5 1.5-5.3.5-2 1-3.9 1-6v-.6c-.1-1.3-.3-2.6-.3-3.8 0-.9.1-1.7.4-2.5.8-2.3 3.3-3.9 4.4-6.4.3-.7.4-1.3.4-1.9 0-1.5-.7-2.8-1.5-4.1-1.2-1.8-1.8-3.9-1.8-5.9 0-1.5.3-3 1-4.4.1-.1 0-.3 0-.4.7-.6 1.5-1.4 1.5-2.6 0-.2 0-.5-.1-.7-.6-1.3-2.3-1.8-4-2.1-1.7-.3-3.6-.4-4.5-.6-.2 0-.4.1-.5.3-.1.2 0 .4.2.5.1.1.3.2.4.2.2.1.4.1.5-.1 1 .1 2.4.2 3.7.5 1.7.3 3.1.9 3.4 1.6.1.1.1.3.1.4 0 .7-.9 1.7-1.5 2.2-.2.1-.2.4-.1.6h.1c-.7 1.4-1 3-1 4.5 0 2.1.6 4.3 1.9 6.3.8 1.3 1.4 2.4 1.4 3.6 0 .5-.1 1-.3 1.6-.9 2.2-3.5 3.9-4.4 6.5-.3.9-.4 1.8-.4 2.8 0 1.3.2 2.7.3 3.9v.6c0 2-.5 3.8-1 5.8-.4 1.8-.7 3.5-1.4 5.1-.3.7-.4 1.4-.5 2-.5-.1-1.1-.2-1.6-.3-1.2-.1-2.4-.2-3.2-.3-1.7-.2-3.3-.5-4.9-.8-3.2-.7-6.4-1.7-9.4-3.3-3.9-2.1-6.8-5-10.4-7.8-2.6-2-7-7.2-7.7-11.3 0-.9 0-1.8.1-2.7 0-.1 0-.1.1-.2v-.3c.1-1.5.2-3 .2-4.6 0-3.3-.5-6.6-2.7-9.6.1-.2 0-.4-.2-.5-.6-.4-.7-.8-.7-1.2 0-.7.6-1.7 1.6-2.4.9-.7 2.1-1.3 2.9-1.2h.4c.2.1.4-.1.5-.3.1-.2-.1-.4-.3-.5-.2 0-.4-.1-.6-.1-1.1 0-2.4.6-3.4 1.4-1 .8-1.9 1.9-1.9 3.1 0 .6.2 1.1.7 1.6v.2c0 .2.1.4.1.5.1.1.1.2.1.2.1.2.3.4.5.3h.1c1.6 2.6 2 5.4 2 8.4 0 1.6-.1 3.3-.2 4.9-.1.5-.2 1-.2 1.6 0 .4 0 .8.1 1.2v.3c0 1.8.1 3.6.6 5.3.2.8.6 1.5.9 2 .3.5.5 1 .5 1.5 0 .3-.1.6-.2 1-.3.8-.7 1.3-1.1 2-.4.6-.8 1.4-.8 2.5v.3c.2 2 1.6 3.2 1.9 4.7.1.4.1.7.1 1.1 0 1.2-.4 2.3-.9 3.3 0 .1-.1.2 0 .3-.3-.1-.6-.3-.8-.4-.2-.1-.4-.1-.5 0 0-.1 0-.3-.1-.4v-.1c0-.1-.3-.3-.5-.3s-.3.1-.4.1c-.1.1-.2.2-.2.3 0 .1 0 .2.1.3.7 1 1.1 1.9 1.4 3-.2.6-.6 1.4-1 2.1-.1 0-.3-.1-.4-.1-.2-.1-.5 0-.5.2-.1.2 0 .5.2.5.1 0 .2.1.3.1-.5.8-1 1.4-1.4 1.6-.5.3-1.5.5-2.6.5-1.2 0-2.6-.2-3.8-.2 0-.2.1-.4.1-.6 0-.2-.1-.4-.3-.5-.2 0-.4.1-.5.3 0 .2-.1.5-.1.7h-.1c-.2 0-.4.2-.4.4s.1.3.3.4v.1c-.1.3-.3.5-.5.6v-.3c0-.7.2-1.3.7-1.7.2-.1.2-.4.1-.6-.1-.2-.4-.2-.6-.1-.6.4-.9 1-1 1.6-.1-.1-.2-.1-.3-.1h-4.6c.2-.2.4-.4.5-.7.1-.1.1-.3.1-.4-.1-.1-.2-.2-.4-.2H19c0-.1 0-.2-.1-.3-.1-.2-.4-.2-.6-.1-.5.4-.7 1.2-.8 2-.2 0-.4 0-.6-.1-.4 0-.8-.1-1.1-.2-.7-.3-1.1-.5-1.2-1.9v-.4c0-1.1.3-2 .9-2.8.4-.5.8-1 1.3-1.5 1.6-1.5 3.2-2.8 4.6-4.7 1.5-1.9 2-4.3 2.6-6.6.6-2.3.9-4.7.9-7 0-3.2-.5-6.4-1.3-9.5-.3-1-.5-1.9-.9-2.8.3-.9.9-1.8 1.1-3 .3-2 0-3.6.6-5.3.2-.6.4-1.3.6-2 .5-1.8 1-3.6 1.3-5.5.1-.6.1-1.2.1-1.7 0-2.1-.7-3.7-1.8-5.6-.5-.9-.8-1.9-1.5-2.9-.1-.1-.2-.3-.3-.4-.3-.4-.6-.6-1-.9-.3-.2-.5-.4-.8-.5-.5-.4-.9-.7-1.1-1.4-.1-.5-.2-1-.2-1.5 0-1.3.3-2.7.3-4.1 0-.7-.1-1.3-.3-2-.6-1.7-1.7-2.5-2.5-3.2-.8-.7-1.4-1.4-1.4-3.2v-.8c0-.7-.1-1.5-.1-2.2V84c.1-1 .2-1.9.6-2.7.1-.1 0-.3 0-.4.3-1 .6-2 .9-2.9.5-1.4 1.2-2.7 1.9-4 1.3-2.3 2.8-4.5 4-7 .4-.7.6-1.6.9-2.5.5 1.1 1.1 2.2 1.3 2.7 1.5 3.3 3.6 6.5 6 9.2 1.7 1.9 3.9 3.5 6.1 4.9 1.9 5.8 7.9 9.7 13.6 10.8.1-.3.2-.5.4-.8-5.2-1-10.7-4.4-12.8-9.4 4.6 2.8 9.5 5.1 12.2 9.1l.3-.2.2-.1.7.2c.3-1.1.4-2.2.4-3.3 0-.9-.1-1.7-.3-2.5 1.6.5 3.2.6 4.6.6.6 0 1.2 0 1.7-.1-2.5 1.5-4.9 4.3-6.5 6.4l-.7.4.9 1.5c.1.1.1.2.2.3l1.5 2.4c.2.3.4.6.5.8h-.1v3.2c0 3-.1 6-.1 9l-.6.4c.2.2.4.5.5.7v.8c0 .1-.1.7-.2 1.4-.3 2-.7 5.6-.8 8.3v.7l-.3.5c.2.1.4.3.6.4v.7c0 1.5-.2 3.5-.5 5.3-.1.5-.2.9-.2 1.3-.3 1.5-.6 2.8-.7 3.2-.5 1.4-.6 2.9-1 4.1-.4 1-.7 1.4-.7 2 0 .3.1.6.3.9.2.3.5.6.9 1.2.8.9 1.4 2.1 2.3 3.2 2.1 2.4 3.6 4.9 5.5 7.3.1.1.2.2.2.3l.4.5.3-.6c1-2.1 2.9-4 4.4-5.9 1.3-1.8 4.2-4.1 4.8-6.6.1-.6.2-1.5.2-2.6v-.5c0-1.5-.1-3.3-.3-5.3l.3-.5c-.1 0-.2-.2-.4-.4-.4-4.3-1-9.3-1.4-13.4-.3-3.2-.6-5.9-.6-7.4v-.2c0-4.7-.5-8.6-2.1-12.8v-.1c0-.3.1-.7.1-1.1.2-1 .6-2.2 1.1-3.3.2-.4.4-.9.6-1.3.1 0 .2-.1.3-.1.2.8.8 1.3 1.6 1.6.1 0 .2.1.3.1.9.3 1.9.4 2.9.4 1.9 0 3.9-.4 5-.9 2.8-1.4 4.6-5.1 5-8.4.1-.6.1-1.1.1-1.7V81c0-.2-.1-.4-.1-.7l.1.2c.2-.1.4-.2.7-.4 2.1-1.1 4.3-2.3 6.4-3.7.4-.2.7-.5 1-.7.1 0 .1.1.2.1l.4-.5c1.8-1.3 3.5-2.8 4.8-4.4v.1c.1.1.2.3.3.4-.1-.1-.2-.1-.3-.2v.2c0 .2-.1.5-.2.7.4.4.9 1.5 1.5 2.6.2.5.5 1 .7 1.4.2.4.4.8.7 1.2-.5.2-.9.3-1.2.5-.2.1-.4.3-.5.6-.1.2-.1.3-.1.5v.1c0 .5.3.9.5 1.5s.4 1.3.4 2.1v.2c0 .8 0 1.2-.1 1.5 0 .1-.1.3-.2.4-.1.2-.3.5-.5.8-.2.3-.9.8-1.6 1.4-.7.6-1.3 1.3-1.3 2.2 0 .2 0 .4.1.6 0 0 0 .1.1.1.2.4.5.6.8.7.5.1.9.1 1.2.2.3.1.5.2.6.6 0 .1.1.2.1.4 0 .4-.3.9-.6 1.5-.4.5-.8 1.1-1.1 1.7v.1c-.2.5-.3.9-.3 1.3 0 .6.2 1 .3 1.5.1.3.2.5.4.7v.1c.1.2.2.3.2.6v.1c0 .1-.2.5-.4.8-.1.1-.1.2-.2.3-.2.3-.3.5-.4.8 0 .1 0 .3.1.4.1.1.2.1.3.1h.4c0 .6-.3 1.1-.7 1.7-.4.6-.8 1.2-.8 2.1v.4c0 .2.2.3.4.4h.9c.3 0 .7 0 1-.1-.1 1.4-.6 2.5-.7 3.4 0 .3.1.7.4.9.3.2.7.2 1.1.3.5 0 1-.1 1.8-.2-.1.9-.5 2.4-.6 3.6 0 .3 0 .6.1.9.1.3.2.5.3.7l.3.3c.3.3.6.4 1.1.5.1.6.5 1 .5 1 .1.2.2.3.4.3h.1c.2-.1.3-.3.3-.5-.2-.5-.5-.6-.5-.9v-.1c0-.1 0-.2-.1-.3-.1-.1-.2-.2-.3-.2-.6-.1-.9-.3-1.1-.6-.2-.3-.3-.7-.3-1.2 0-1.2.6-2.8.6-3.9v-.3c0-.1-.1-.2-.2-.3-.1-.1-.2-.1-.3-.1-1 .2-1.7.2-2.1.2-.4 0-.6-.1-.7-.1l-.1-.2c0-.5.7-1.9.7-3.7v-.1c0-.1-.1-.2-.2-.3-.1-.1-.2-.1-.4-.1-.4.1-.9.1-1.4.1h-.4c0-.5.3-1 .7-1.6.4-.6.8-1.2.8-2.1 0-.2 0-.3-.1-.5 0-.2-.2-.3-.4-.3h-.1c.1-.1.2-.3.3-.4.2-.4.5-.8.5-1.3V99c0-.5-.2-.8-.3-1.1-.2-.2-.3-.4-.3-.4-.1-.6-.2-1-.2-1.4 0-.3.1-.6.2-1.1.2-.5.6-1 1-1.5.4-.6.8-1.2.8-1.9 0-.2 0-.4-.1-.6-.3-1-1.1-1.2-1.7-1.3-.3 0-.5-.1-.7-.1-.2-.1-.3-.1-.4-.3-.1-.1-.1-.2-.1-.3 0-.4.5-1 1.1-1.6.4-.4.9-.8 1.3-1.1.2-.1.3-.3.4-.4.5-.6.7-1 .8-1.5.1-.5.1-.9.1-1.7v-.3c0-1-.2-1.8-.5-2.4-.2-.6-.4-1.1-.4-1.3 0-.1 0-.2.3-.4.2-.2.7-.4 1.5-.6.1 0 .3-.1.3-.3 0-.1 0-.3-.1-.4-.2-.2-.4-.6-.7-1.1-.2-.4-.5-1-.8-1.5.3.6.7 1.1 1 1.7 0 .1.1.1.1.2 1.3 2.1 1.3 4.9 2.2 7.4 1.3 3.6 4.4 7.8 4.4 11.5 0 .3 0 .7-.1 1-.3 2.1-1.8 4.1-2.9 6.3-.9 1.9-1.2 4.2-1.3 6.3v.4c0 .5 0 .9.1 1.4-.1-.1-.2-.1-.3-.1-.2 0-.4.2-.4.4v.5c0 1.6.4 3.2 1 4.7v.1c-.1.5-.2.9-.4 1.3-.2.6-.5 1.3-.7 1.9-.4 1.2-.9 2.5-1 3.9v.5c-.1.7-.1 1.5-.1 2.2-.1 1.7-.1 3.3-.1 5 0 3-.9 5.1-1.4 8.1l-.3 1.5H97c-.2 0-.4.2-.4.4s.2.4.4.4c-.9 2.9-2.5 5.7-3 8.9-.3 2.2-.2 3.7-1 5.5-.5 1.1-.9 2.3-.9 3.5 0 .7.1 1.4.5 2.1.7 1.5 2.2 2.1 3.1 3 .3.3.5.8.7 1.3 0 .1-.1.2 0 .4 0 .1.1.1.2.2.1.4.3.7.4 1.1v.1c-.1.1-.2.1-.3.1-.1 0-.2.1-.3.1-.3-.4-.9-.6-1.7-.7h-.2c-.1 0-.2.1-.3.2-.1.1-.2.3-.2.4v.2c-.1.2 0 .4.2.5h.1c.1.4.2.7.3.9 0 .1.1.1.1.1.2.3.5.5.9.5.6 0 1.1-.6 1.1-1.2v-.1c.3-.1.7-.2 1-.5h.1c.2 0 .3-.1.4-.2.1-.2 0-.5-.2-.6-.1 0-.2-.2-.3-.4-.1-.2-.2-.4-.3-.7.3-.1.8-.1 1.3-.1h.2c.9 0 2 .1 3 .1.4 0 .7 0 1.1-.1.3 0 .5-.1.8-.2.7-.3 1.3-.6 1.9-1.1-.1.6-.2 1.3-.2 1.9 0 .6 0 1 .3 1.4.2.3.5.5.9.6 0 .1-.1.3-.1.4v.2c0 .5.1.9.4 1.3v.3c0 .1.1.3.2.3h.2c.1 0 .1 0 .2-.1.1 0 .1.1.2.1h.2c.1 0 .2 0 .3-.1.3-.2.5-.5.7-.8h.2c.1 0 .1-.1.1-.1.1-.1.1-.3 0-.4.1-.2.2-.4.3-.7h3c0 .3.1.7.2 1 .2.5.6.9 1.2 1h.1c.1 0 .3-.1.4-.2.2-.4.4-.7.5-1.1 0-.1.1-.3.1-.5.1-.1.1-.2.1-.3v-.2c.5-.1.9-.1 1.4-.2.6-.1 1.7-.2 2.7-.3 1-.1 2-.3 2.6-.8.4-.3.6-.6.8-.8.3-.4.4-.7.4-1.1 0-.4-.2-.8-.5-1.1.7.9.6.8.6.8zm-34.4 3.1c.2-.1.3-.1.4-.1h.1c-.1 0-.3.1-.3.3v1.2c0-.2-.1-.4-.4-.4.1-.5.1-.8.2-1zm-5.1.3c-.1.1-.1.2-.1.4.1.5.3 1 .5 1.4v.3c-.3-.4-.6-.9-.8-1.3l.1-.1c.1-.2.1-.5-.1-.6h-.1c.1-.1.3-.1.5-.1zm-8.5-.3c.4-.1.9-.1 1.3-.1-.2.3-.5.6-.7 1v-.1c0-.2-.3-.4-.5-.3-.1 0-.1 0-.2.1 0-.1-.1-.2-.2-.2.2-.2.3-.3.3-.4zM39 162.9v.1c0 .3-.2.6-.5.9-.2.2-.3.3-.5.4-.1-.2-.1-.4-.2-.6 0-.1 0-.1.1-.2v-.1h.1c.2 0 .4-.3.3-.5-.1-.3-.2-.6-.3-.8 0 0 .1 0 .1.1.5.2.9.5.9.7zm-20.7 6.2v-.5c.1.2.3.3.5.2.2-.1.3-.3.3-.5v-.1h.8c-.3.4-.6.7-1 1.1h-.1c-.1 0-.3-.1-.5-.2 0 .1 0 .1 0 0zM15 88.3c0 2 .8 3.1 1.7 3.8.9.8 1.8 1.3 2.3 2.8.2.5.3 1.1.3 1.7 0 1.3-.3 2.7-.3 4.1 0 .6.1 1.2.2 1.8.3.9.8 1.4 1.4 1.8.6.4 1.1.7 1.6 1.3.8.9 1 2 1.7 3.2 1.1 1.8 1.7 3.2 1.7 5.2 0 .5 0 1-.1 1.6-.3 2.4-1.1 4.9-1.9 7.3-.3.9-.4 1.8-.4 2.6-.1 1 0 1.9-.2 2.8 0 .4-.2.8-.3 1.1-.1.3-.2.5-.4.8-.8-2.1-1.7-4.1-2.7-6.1-1.8-3.6-2.9-7-2.9-11V112c.1-1.9.3-3.7.3-5.6 0-2.1-.3-4.3-1.7-6.4-2-3.2-2.9-5.4-2.9-9v-1.4c.1-2.2 1.3-3.6 2.4-5.5V84v.9c.1 1.4.2 2.5.2 3.4zm76.6-37.5c.3.8.4 1.6.4 2.3 0 .4 0 .7-.1 1.1-.2 1.3-.6 2.6-1 4-.1 0-.1-.1-.2 0-.2 0-.4.2-.4.5s.1.6.2.9c-.1.2-.1.5-.2.7l.3.6c-.6.9-1.3 2.3-2.1 3.8s-1.6 3.2-2.5 4.9c-1 1.9-2.1 3.8-3 5.1-.3.5-.6.9-.9 1.2-.4.4-.7.7-.9.8 0 0 0-.1-.1-.1l.9-.9c1.6-1.8 2.6-4.3 2.9-6.6.1-.9.2-2 .5-3.1l.1-.1c.1-.1.3-.3.3-.6V65s0-.1-.1-.1v-.1c.3-.9.7-1.7 1.3-2.3.7-.1 1.3-.3 1.9-.7.2-.1.3-.4.2-.6-.1-.2-.4-.3-.6-.2 0 0-.1 0-.2.1-.1-.1-.2-.1-.4-.1-.5.1-.9.3-1.3.6-.3 0-.6.1-.9.1-1.6 0-3.2-.7-4.3-2-.8-1-1.5-2.7-2.4-4.1-.2-.3-.4-.6-.6-.8-.9-1.1-2-1.9-3.6-1.9h-.3c-.2 0-.4.2-.4.4s.2.4.4.4h.2c1.6 0 2.6 1 3.5 2.3.9 1.3 1.5 3 2.4 4.2 1.2 1.6 3.1 2.3 4.9 2.3-.4.6-.7 1.2-.9 1.9-.1.3-.2.6-.2.9-1.1 2-1.9 4.4-3.5 5.7-1 .8-2.3 1.1-3.8 1.1H77c-1.3 0-2.7-.3-3.8-.6-2.1-.6-3.7-1.5-4.9-2.8-.8-.8-1.4-1.6-2-2.6-1.5-2.5-2.5-5.5-4-8.5-.1-.1-.2-.2-.3-.2h-.2c0-.4.1-.8.1-1.2 0-1.4-.2-2.8-.3-4.5 0-.1 0-.1-.1-.2.4-.3.8-.7 1.1-1.1.6-.7 1.1-1.4 1.5-1.6.1 0 .1-.1.1-.2h.1s0 .1.1.1c.2.2.4.2.6 0 .1-.1.6-.1 1.2-.1s1.3-.1 1.8-.8v-.1c.2-.2.3-.5.3-.8 1.1 1 2.3 1.8 3.7 2.3.7.6 1.4 1.2 2.3 1.5h.2c.2 0 .3-.1.4-.2.1-.2 0-.5-.2-.6-.2-.1-.5-.2-.7-.4 1.9.4 3.5.6 5.1.7.4.7.7 1.4 1.1 2.1.7 1.2 1.5 2.4 2.6 3.2.9.7 2.1 1.2 3.5 1.2.3 0 .7 0 1-.1.2 0 .4-.2.4-.5 0-.2-.2-.4-.5-.4s-.6.1-.9.1c-.5 0-.9-.1-1.4-.2-1.8-.5-2.9-1.9-4-3.8-.3-.5-.6-1.1-.9-1.6 1.1 0 2.3-.1 3.8-.3.4 0 .7-.1 1.2-.2 2.1-.3 3.6-1.2 4.6-2.3.9 1.3 1.6 2.2 2 3.4zM78.9 72.9c.1 0 .3 0 .4-.1v.6c-.2-.2-.4-.3-.6-.5h-.1c.1.1.2 0 .3 0zm4.7-2.1s-.1 0-.1-.1c.1-.3.1-.6.1-.9 0-.1 0-.2-.1-.3.2-.4.5-.9.7-1.3 0 .2-.1.5-.1.7-.2.6-.3 1.2-.5 1.9zm-3.1 1.6c.4-.2.7-.4 1.1-.6l.1-.1c-.3.5-.5.8-.8 1.1-.2-.1-.3-.2-.4-.4zm.5 2c.1 0 .1-.1.2-.1.6-.5 1.3-1.1 1.8-1.8-.4.9-.9 1.7-1.5 2.4-.2.3-.5.5-.7.8-.2-.3-.3-.7-.5-1 .1 0 .4-.1.7-.3zm-26.5-4.2c.1.1.2.2.4.2.1 0 .1 0 .2-.1 0 .1.1.2.3.3.8.3 1.8.6 2.7.9-.7-.2-1.4-.3-2.1-.4-.6-.1-1.1-.1-1.5-.1-.2 0-.4.2-.4.4s.2.4.4.4c.3 0 .5.1.8.1-.9.5-1.8 1.1-2.6 1.8.7-.8 1.3-1.7 1.4-2.6 0-.2-.1-.4-.3-.4-.2-.1-.4 0-.5.1l-.2.2v-.1c-.1-.1-.2-.2-.4-.2l-.1-.1c.2-.2.4-.3.6-.5.4-.3.7-.6 1.1-.9v.1c0 .5 0 .7.2.9zm-12.2 4.6c.2 0 .5.1.7.1.1.1.1.2.3.2.4.1.8.2 1.1.4-.2 0-.4.2-.4.4s.2.4.4.4c.4 0 .9-.1 1.4-.2.2.1.3.2.5.3 0 0 0 .1.1.1.1.1.3.2.4.1.5.3 1 .5 1.6.7.1.1.2.1.4.1.1 0 .2.1.3.1-.8 0-1.7-.1-2.4-.2-1.9-.5-3.6-1.3-4.4-2.5zm10.3 2.3c.8-.7 1.7-1.3 2.5-1.9-.2.2-.5.5-.7.8-.1.2-.1.4.1.6.2.1.4.1.6 0 .1-.1.1-.1.2-.1.1.1.2.1.3.1-.5.1-.9.3-1.3.4-.7 0-1.2 0-1.7.1zm3.1-5h.1c.1.1 0 .1-.1 0 .1.1.1.1 0 0zm3.2 3.3l1.2-.3c-.2.1-.5.1-.7.2-.1 0-.3 0-.5.1zm.3-1.3c-.4.1-.8.1-1.3.1-.2 0-.5.1-.7.1.4-.3.7-.7 1-1.1.1-.1.1-.2.1-.3.7.3 1.3.5 1.9.8-.3.2-.6.3-1 .4zm-2-1.6c.2.1.3.1.5.2-.3.1-.5.3-.8.4l.3-.6zm-6 4.6l.1-.1s0 .1-.1.1c.1 0 0 0 0 0zm.1-3.1c-.9.9-1.9 1.8-2.6 2.6-.3-.1-.6-.3-.9-.4 1.4-.8 2.5-1.4 3.6-2.3 0 0-.1 0-.1.1zm-3.1.2c-.7.4-1.5.8-2.3 1-.2-.1-.5-.2-.7-.3 1.1-.2 2.1-.4 3-.7zm2.7-2.1c-.6.4-1.2.7-1.8 1 .6-.3 1.1-.6 1.6-1 .2-.1.3-.2.5-.3-.1 0-.2.2-.3.3zm8.7 4c.5-.1 1.1-.1 1.6-.1h.9c-1.5.1-3 .4-4.4.7.7-.2 1.3-.4 1.9-.6zm5.1-.8c-.4-.1-.7-.2-1.1-.2l.1-.1c.1-.1.1-.3 0-.4-.1-.1-.1-.2-.2-.3.9.6 1.8 1.2 2.6 1.8-.4-.1-.9-.1-1.3-.2.1-.1.1-.1.1-.2.1-.2 0-.3-.2-.4zm-7.4-9v.2c0 .1.1.2.3.3-.3.1-.6.2-.9.4-.1.1-.2.1-.3.2.3-.4.6-.8.9-1.1zM25.8 34.4c0-.5-.1-1-.1-1.5 0-.7.1-1.3.2-1.7l.1-.2c6.5-.4 12.9-.6 19.3-.6h.1c4.9 0 6.9 1.8 11.1 3.8 1.4.6 2.6.9 3.7.9 3 0 5.2-1.8 8.2-3.2 3.4-1.6 7.5-2.1 11.7-2.1 5.7 0 11.6.9 16.7 1.2v.2c0 .1 0 .3.1.4.2.4.3.7.3 1 0 1.3-1.6 2.2-2.4 3.1-1.5 1.5-2.2 3.4-2.7 5.3-1.1 4.2-2.1 7.6-7 8.4-2 .3-3.6.5-5 .5-2.2 0-4.1-.3-7-.9-4.1-.8-7.2-5.6-8.2-9.4l-.1-.2h-1.5c-2.4 0-3.6.5-4.5 1.5-.9 1-1.5 2.4-3 4.2-2.8 3.4-5.4 4.3-9.5 4.3h-1.5c-4.4-.2-7.8-.3-11.1-3.4-2.9-2.7-2.6-6.8-4.1-10.5l-.1-.2h-.2c-1.2-.1-2.3-.5-3.5-.9zm5.7-4.3l.6-1.2c.6-1 2.3-2.9 4.3-4.5 1.9-1.6 4.2-2.9 5.6-2.9h.2c-.5.3-1 .7-1.5 1.2-.9.8-1.8 1.7-2.5 2.1-1.5 1-3.3 2.2-4.6 3.6-.5.5-1 1.1-1.5 1.6-.2.1-.4.1-.6.1zm36.2 16.8c0 .2-.1.4-.2.6-.2.3-.6.4-1.1.4.4-.2.7-.5 1-.8.2-.2.2-.4 0-.6-.1-.1-.3-.1-.4-.1 0-.1.1-.3.1-.4 0-.2 0-.4-.1-.6.2.2.4.5.5.7.1.3.2.6.2.8zm-3 1.2c-.1-.1-.2-.2-.3-.2-.6-.1-.8-.4-.8-.8 0-.2.1-.4.1-.6v.2c0 .2 0 .4.1.6 0 .2.2.3.4.3h.9c-.1.2-.1.3-.1.4-.1 0-.2.1-.3.1zM61 44.6h.2-.2c.1 0 0 0 0 0zm.1 1.3v.4s-.1 0-.1-.1h-.1s.1-.1.2-.3zm-2.2-1.5c-.2.1-.3.2-.3.4v.3c-.3-.1-.7-.2-1.1-.2h-.2c-.2-.1-.3-.1-.5-.1 1-.4 2.1-.8 2.9-1 .7-.2 1.6-.4 2.4-.4-1.1.3-2.3.7-3.2 1zm.7.8h-.1v-.1c.3-.1.5-.2.8-.3-.2.1-.3.3-.4.4-.2.1-.2 0-.3 0zm.6 4.4c.1.1.2.3.2.4 0 0 0 .1-.1.1l-.2.2V50c.1-.1.1-.2.1-.4zm-1.8-.4c0 .2 0 .3-.1.4 0-.5-.1-1-.1-1.5s0-1 .1-1.3c.1.2.1.5.2.7-.1.6-.1 1.2-.1 1.7zm-3.6-1.7h-.6v-.1c.2-.1.3-.3.5-.4 0 .2 0 .4.1.5zm8.1-1.5c0-.5.2-1 .6-1.3.2 0 .2.1.3.1.1.1.1.3.1.5v.1c-.4.2-.7.6-.9 1v-.2c-.1-.1-.1-.2-.1-.2zm.3-6h1c.2.7.5 1.5.9 2.3.1.2.2.5.4.7-.8-.3-1.6-.4-2.5-.4-1.2 0-2.4.2-3.5.5-.5.1-1.3.4-2.1.6.7-1 1.2-1.8 1.7-2.4.8-.9 1.7-1.3 3.9-1.3h.2zm1.5 5.3c0-.3 0-.6-.2-.9.2.1.3.1.5.2.9.5 1.3 1.1 1.2 1.5 0 .4-.3.8-1.4.8h-.3v-.2c.1-.4.2-.9.2-1.4zm1.2-1.2c.1.1.2.1.3.2 0 0 0 .1.1.1-.2-.1-.3-.2-.4-.3zm-3.2 2.7c0-.1 0-.1-.1-.2.1 0 .3-.1.3-.3-.1.2-.1.5-.1.7 0 .5.2 1 .7 1.3-.3.2-.5.5-.8.8.1-.3.1-.6.1-.9 0-.5-.1-1-.1-1.4zm-7.7 2c-.4 0-.7-.1-.9-.5h.4c.3 0 .6 0 .8-.1.2-.1.3-.2.3-.4V47c0-.4 0-.6.2-.8.5-.2 1-.3 1.4-.4.1.1.1.2.2.4 0 .1.1.3.2.3 0 .6-.4 1.1-.8 1.5-.6.6-1.3.8-1.8.8zm2.4-.2c0 .4.1.9.1 1.3l-.5-.5c-.1-.1-.2-.2-.4-.2.3-.2.6-.4.8-.6zm1.7 1.2c.1.1.2.1.3.2 0 .3 0 .6.1.8 0 .1.1.2.1.3-.3-.1-.7-.3-1-.5.2-.2.4-.5.5-.8zm.8 1.4c.5 0 .9-.2 1.1-.5 0 0 0-.1.1-.1h.4c-.4.4-.7.6-1 .7h-.2c-.1 0-.2 0-.4-.1zM61 61.9c-.1.2-.2.5-.4.7 0-.1.1-.2.1-.3.1-.1.2-.2.3-.4zm-1.4 3.7c0 .2.1.3.3.4.2 0 .4 0 .5-.2.3-.5.6-1 .9-1.6v1.3c0 .2.2.4.4.4s.4-.1.5-.3c.2-.6.2-1.1.3-1.7.3.8.7 1.6 1.1 2.1.1.1.3.2.5.1.1 0 .2-.1.2-.2.2.1.5.2.7.2.1 0 .2 0 .3-.1.1-.1.2-.2.2-.3.1.3.3.5.5.8-1.4-.4-3-.7-4.5-.7-.4 0-.8 0-1.2.1-.4.1-1.1.2-1.8.5.5-.4 1-.9 1.5-1.4-.4.3-.4.5-.4.6zm5.3-.2s-.1 0 0 0c-.3 0-.5-.1-.7-.4 0-.7-.1-1.4-.3-2 .4.8.7 1.6 1.1 2.4 0 .1 0 .1-.1 0zm-2.5-5.2v.8c0-.2-.2-.3-.5-.3h-.3c.1-.3.3-.5.3-.8.1-.2 0-.4-.2-.5.1-.3.2-.6.2-.9.2.5.5 1 .7 1.4-.2.1-.2.2-.2.3zm-2.8 3.2v.6c-.4.4-.8.9-1.2 1.3.1-.3.3-.6.6-.9.1-.4.4-.7.6-1zm37.7-32l-.3.1.3-.1zm-70-12.6c2.8-1.3 6.5-1.9 9.9-1.9 1.3 0 2.6.1 3.8.3 3.6.6 5.6 2.5 8.8 4.2.7.4 1.3.5 1.9.5 1.2 0 2-.6 3.4-.7h.6c1.4 0 2.4.7 4.1 1h.5c1.1 0 2.3-.5 3.6-1 1.3-.5 2.6-1 3.6-1 .9 0 1.6.3 2.1 1.3.1.1.2.2.3.2.1 0 .3 0 .4-.2.8-1 1-2.2 1.9-2.6.7-.3 1.8-.5 2.9-.5 1.8 0 3.8.3 5.3.5 1.6.2 3.6.4 5.6.9 2 .5 4 1.3 5.2 2.4.7.7 1.3 1.5 1.6 2.5.4 1 .6 2.1.6 3.1 0 .5 0 .9-.1 1.4 0 .2-.1.5-.1.8-1.9-.2-3.9-.4-5.9-.6-.6-.7-1.2-1.3-1.8-1.9-2-2.4-4-4.5-6.9-4.5-.9 0-1.8.2-2.8.7-.1.1-.2.2-.2.3 0 .1 0 .3.2.4 0 0 .2.3.3.5.2.2.4.2.6 0 .2-.2.2-.4 0-.6 0 0 0-.1-.1-.1.7-.3 1.4-.4 2-.4 2.3 0 4.2 1.8 6.2 4.2.4.4.8.9 1.2 1.3-1.9-.1-3.9-.3-5.8-.3-1.4 0-2.8.1-4.1.2-.6-.7-1.2-1.3-1.5-1.6-2.2-2.2-5.3-3.6-8.5-3.6-1.5 0-3 .3-4.5 1-.2.1-.3.3-.2.6.1.2.3.3.6.2 1.3-.6 2.7-.9 4.1-.9 2.9 0 5.8 1.3 7.9 3.4.2.2.6.6 1 1.1-2.4.3-4.7.9-6.8 1.8-1.8.8-3.4 1.8-4.9 2.4-1 .4-2 .7-3.1.7-.9 0-2-.2-3.1-.7-.1 0-.2-.1-.3-.1-4.1-1.9-6.3-3.8-11.4-3.8h-3.6c3.7-2.7 8.1-4 12.9-4h1.1v.2c0 .2.3.4.5.3.2 0 .4-.3.3-.5v-.6c0-.2-.2-.3-.4-.3h-1.5c-5.3 0-10.3 1.6-14.3 4.9-2.4 0-4.8.1-7.2.2.3-.3.6-.7 1-1 1.3-1.3 3-2.4 4.5-3.5.8-.5 1.7-1.4 2.6-2.2.9-.8 1.8-1.4 2.5-1.5.2 0 .4-.2.4-.5 0-.2-.2-.4-.5-.4h-.2c-.4-.2-.9-.4-1.4-.4-1.9 0-4.2 1.4-6.2 3.1-2 1.6-3.8 3.5-4.5 4.7-.3.5-.6 1.1-.9 1.7-1.7.1-3.3.2-5 .3-.4-.7-.8-1.3-1-2-.3-.9-.5-2.2-.5-3.4 0-2.6.9-4.9 3.3-6zm0 17.5c-.5.6-1.1 1.1-1.7 1.4.2-.3.4-.7.6-1 .2-.4.4-.8.6-1.3.4.1.7.2 1.1.3-.3.1-.5.4-.6.6zm3.2 10.3c.5-1.1.7-2.1.7-3 .4 1 1 1.9 1.9 2.7.3.3.7.6 1 .9.1.1.2.2.3.2 1.9 1.4 3.8 1.9 6 2.2-1.1.6-2.4.9-4.2.9-.2 0-.4.2-.4.4s.2.4.4.4c2.4 0 4.1-.6 5.6-1.6.9.1 1.8.1 2.8.2h1.6c2.8 0 5-.5 7-1.8 0 .1 0 .2.1.3.1.3.2.5.4.6-.2 0-.4.1-.6.2-2.8.8-4.2 2.7-5.7 5.3-.4.6-.8 1.2-1.2 1.9-1.7 2.4-4.2 4.7-6.8 5.2-.2 0-.4.3-.3.5 0 .2.2.3.4.3h.1c3.7-.7 6.7-4.3 8.5-7.2.1-.1.1-.2.2-.3 1.4-2.3 2.5-3.9 4.6-4.7.6-.2 1.4-.4 2.2-.5.1 0 .2-.1.3-.1.4 0 .8-.1 1.2-.3-.1.1-.1.3 0 .5.3.5 1 1 1.7 1.5.8.5 1.6.8 2.3.8h.5c.2 1.6.3 3 .3 4.2 0 .4 0 .8-.1 1.2-.2.1-.3.2-.3.4 0 .1.1.2.2.3-.2 1.4-.8 2.7-1.8 4.2-.1.1-.1.2-.2.2-.3.4-.5.7-.8 1.1-1.5 1.9-2.9 3.6-4.7 5.1-.4.3-.8.7-1.2 1-.7.5-1.4 1-2.1 1.4-2.2 1.3-4.5 2.7-6.8 2.7-.7 0-1.3-.1-2-.4 0-.1-.1-.2-.2-.2-.1-.1-.2-.2-.2-.3-.2 0-.5-.1-.7 0-.1 0-.1.1-.1.1-.6-.4-1.4-1.3-2-2.4l.1-.3c-.1-.1-.2-.1-.4-.2-.8-1.5-1.4-3.4-1.4-4.8V65c.2-.4.3-.9.4-1.3.1-.1.2-.3.3-.4.2-.2.2-.4 0-.6-.1-.1-.3-.2-.5-.1-.3-.8-1.1-1.5-2.1-1.8h.5c2.2 0 4.3-1.4 5.9-3.3 1.4-1.6 2.4-3.5 3-5.2h.5c.2 0 .4-.2.4-.4s-.2-.4-.4-.4h-.3c-.2 0-.4 0-.6.1-.2 0-.3.1-.3.3-.5 1.8-1.7 3.9-3.2 5.5-1.5 1.5-3.2 2.6-4.9 2.6-1.1 0-2.2-.4-3.2-1.5-.2-.2-.4-.2-.6 0-.2.2-.2.4 0 .6.7.7 1.4 1.2 2.2 1.4-.1 0-.1 0-.2.1 0 0-.2.1-.2.4 0 .2.2.3.2.4.2.1.2.1.3.1h.4c1.2.4 1.9 1.1 1.9 2-.2.4-.3.8-.3 1.2-.1.1-.1.2-.2.4s-.1.4.1.6h.1c.1 1.2.4 2.4.9 3.6-1.7-1.4-2.9-3.5-4-5.8-1.1-2.2-2.1-4.5-3.7-6.2V57s0-.1-.1-.1c-.1-.1-.2-.2-.4-.1h-.1c-.2-.2-.5-.4-.7-.6-.3-.7-.5-1.3-.5-2 .1-2.5 2.1-5.3 3.2-7.6zm-5.7 17.5c-.1-.2-.2-.5-.3-.7 0-.1.1-.3.1-.4-.2-.5-.3-1-.4-1.4-.1.2-.2.4-.2.7-.1-.4-.2-.7-.2-.9 0-.7.2-1.2.5-1.7.2-.3.4-.5.6-.8.6-.6 1.4-1.2 2.1-2v.1c0 .1.1.3.1.4 0 .1 0 .1.1.2l-.3-.1c0 .1-.1.2-.1.3-.1 0-.1.1-.2.2h.2c-.2.9-.3 1.8-.3 2.9 0 2.6.5 5.8 1.5 8.6.1.2.1.4.2.5.4 1.1.9 2.2 1.4 3.1-1.4-1.9-2.6-4-3.6-6.1 0-.6-.6-1.7-1.2-2.9zM32.1 76c.3.2.6.5.9.6h.1l.4-.7c-1.8-.9-3.3-3.4-4.4-6.2-1.1-2.9-1.6-6.2-1.6-8.9 0-1 .1-1.9.2-2.7l.1.1c.2-.1.4-.2.6-.2 1.5 1.6 2.5 3.9 3.6 6.1 1.3 2.7 2.7 5.4 5.4 6.9.7 1.3 1.6 2.4 2.5 2.9.2.1.5.3.7.4 1.3 2.2 3.4 3.4 5.8 3.9 1.6.4 3.3.6 4.8.6 1.2 0 2.4-.1 3.2-.3 2.3-.6 6.1-1.6 9.3-1.6h.9c1.2.1 2.2.4 3 .9l.1.1c1.4 1.7 2 3.2 2 5.4v.2c0 2.7-.7 3-2 5.5 0 .1-.1.2-.1.2V89l-.2-.2c-.1.1-.1.2-.2.3-.1-.1-.3-.2-.4-.3-.3-.1-.5-.3-.8-.4l.2-.5c-.2-.1-.6-.2-1-.2h-.4c-1.3-.7-2.5-1.5-3.5-2.2.5-.1 1-.1 1.6-.2 1 0 2 .1 3.1.2h3c.2 0 .4-.2.4-.4s-.1-.3-.2-.4l.1-.5c-.6-.1-1.1-.1-1.7-.1h-.5c-2.1 0-4 .3-6 .6-3.3 0-6.5-.2-9.6-.9-1.2-.2-2.5-.6-3.7-1.2-.6-.3-1.2-.6-1.7-.9-.6-.4-1.1-.8-1.6-1.3-.1-.3-.3-.6-.4-.9l-.3.1c-.6-.7-1.6-2-2.4-3.2-.1-.3-.1-.6-.2-1h-.5c-.3-.5-.5-.9-.6-1.2-.1-.2-.3-.3-.5-.3-.2.1-.3.3-.3.5.1.4.3.8.6 1.2.2.2.4.5.6.7.4 1.9 1.8 3.5 3.4 4.8.3.8.5 1.5.5 2.3 0 .3 0 .5-.1.8v.1l-.9-.6c-1.3-.8-2.7-1.6-4-2.4l.4-.5c-4.3-3.4-6-7.7-6.1-13.2v-.2h-.9c0 5.5 1.7 10 5.7 13.5-1.4-.9-2.8-1.8-4-2.7-.8-.6-1.6-1.4-2.4-2.2zm32.6 21.8c.4 1.3.8 2.5 1.1 3.8-.2-.5-.5-1-.8-1.5-.7-1.2-1.5-2.4-2.2-3.5.6.1 1.2.2 1.7.4 0 .3.1.5.2.8zm-.3-2l-.4.2c-.6-.1-1.3-.3-1.9-.3v-.1H62c-.5-.1-1-.1-1.5-.1-1.6 0-3.2.3-4.5 1.1 2.7-3.1 5.3-6 8.8-8.1.6.4 1.2.7 1.8 1.1h.1c0 .1-.1.1-.1.2-1 1.8-1.9 4.2-2.2 6zM50.3 83.6c1.6.5 3.4.8 5.2 1.3-1.1-.1-2.1-.3-3.3-.6-.6-.2-1.2-.4-1.9-.7zm1.1 6.7c-.9-1.2-1.9-2.2-3.1-3.2-1-.8-2.1-1.6-3.2-2.3 0-.1.1-.1.1-.2.1-.4.2-.8.2-1.2 0-.5-.1-1-.2-1.5 2 1.3 4.3 2.3 6.2 2.9.2.9.4 1.9.4 2.8-.1 1-.2 1.8-.4 2.7zm1.2 2.6c1.8-2.5 5.1-6 7.8-7.1 1 .8 2.3 1.6 3.6 2.4-3.7 2.3-6.3 5.3-9 8.4-.1-.1-.1-.2-.2-.3-.8-1.1-1.5-2.3-2.2-3.4zm1.9 22.9c.1-1.1.3-2.1.4-2.8 0-.4.1-.7.1-.9v-.2c1.8 2.1 3.8 4 5.3 6.3.5.7 2.3 3.9 4.2 7 1 1.5 1.9 3 2.7 4.2.4.6.8 1.2 1.2 1.6.2 2.5.4 4.7.4 6.4 0 1.1-.1 1.9-.2 2.5 0 .1 0 .1-.1.2-.2.7-.7 1.4-1.2 2.2 0-.2-.1-.4-.1-.5-.7-3.4-3.8-7.1-5.7-9.5-2.1-2.6-4.5-7.2-7.2-9.5 0-.5-.1-.9-.3-1.3.1-1.9.3-3.9.5-5.7zm5.4 35.7c-.1-.1-.1-.2-.2-.3-1.6-2.2-3.1-4.6-5.1-6.9-.8-.9-1.4-2.1-2.3-3.1-.4-.5-.7-.9-.9-1.1-.2-.2-.2-.3-.2-.4 0-.2.2-.7.6-1.7.3-.9.5-1.9.7-2.8 1.9 2.4 4 4.6 5.7 7 1.2 1.7 2.3 3.8 3.9 5.3.1.1.3.2.4.4-.9 1.1-1.9 2.3-2.6 3.6zM64 146l-.9 1.2c-.1-.1-.3-.2-.4-.4-1.4-1.4-2.5-3.5-3.8-5.2-1.9-2.6-4.1-4.9-6.1-7.4l-.2.1c.1-.2.1-.4.2-.6.4-1.2 1.5-6.5 1.5-10 2.3 2.3 4.6 6.3 6.5 8.8 2 2.5 5.3 6.7 5.6 9.8v.4h.3c-.8 1.2-1.9 2.3-2.7 3.3zm4-17.1c-2.4-3.5-6.2-10-7-11.2-1.8-2.7-4-4.8-6-7.1.1-3.9.1-7.8.2-11.8 2.4 3.5 4.9 7 7.2 10.5 0 .1.1.2.2.3 1.1 1.8 2.5 3.3 3.6 4.9l.4-.3c.4 4.2 1.1 10.1 1.6 15.2 0-.2-.1-.3-.2-.5zm-4.7-19.7zm3.1.4v.2c0 .9.1 2.2.2 3.8-1.1-1.6-2.5-3-3.5-4.7l-.5-.9v.1c-2.3-3.4-4.6-6.7-6.9-10.1v-.2c1.3-1.1 3-1.4 4.7-1.4.4 0 .7 0 1.1.1 1.2 1.9 2.6 3.9 3.5 5.8.1.3.3.6.5.8.2.2.3.4.5.6.3 1.9.4 3.8.4 5.9 0-.1 0-.1 0 0zm11-18.6c-.2.1-.4.3-.6.4-.8.4-2.8.8-4.6.8-1.1 0-2.2-.1-2.9-.5-.7-.3-1-.7-1.1-1.2.1-.1.2-.2.2-.3 0-.1 0-.2-.1-.3.1-.2.2-.5.3-.8 1.2-2.3 2.2-3 2.1-5.9V83c0-2.3-.7-4.1-2.2-5.9-2.9-3.5-8.7-6.2-12.9-7.4-.1 0-.3 0-.4.1v-.1c-.1-.1-.1-.2-.1-.3 0-.2.1-.5.5-.8 1.1-.9 3.7-1.7 4.4-1.8.4 0 .7-.1 1.1-.1 1.6 0 3.4.4 4.9.8.1.3.2.5.2.6 0 .2.3.4.5.3.1 0 .1 0 .1-.1 1.4 1.8 3.4 3.2 6.1 4 1.2.3 2.7.6 4.2.6h.9l-.1.1c-.1.2-.1.5.1.6.9.5 1.7 1.9 2.3 3.5l-.1.3c.1 0 .2 0 .2.1.5 1.4.8 2.8.9 3.8v.7c0 1.8-.5 3.9-1.4 5.7-.5 1.4-1.4 2.6-2.5 3.3zm4.7-11c0-.1 0-.2-.1-.3.1.1.2.1.3.1h.2c-.2.1-.3.1-.4.2zm8.3-4.9c-1.7-.9-3.9-1.1-5.7-1.3l-.1.8c1.6.1 3.5.4 5 1-1.6 1.1-3.2 2-4.9 2.9-.4.2-.8.4-1.2.7l-.6.3c-.1 0-.2.1-.2.1.1 0 .1-.1.1-.2l-1.4-.4c.1-.3.2-.6.4-1-.1-.3-.2-.6-.3-.8.3-.1.6-.4.9-.6.4-.4.9-1 1.3-1.6 1.5-2.1 3.1-5.3 4.6-8.1 1.1-2.2 2.1-4.2 2.8-5.4 1.3 2.2 3.4 5.3 4.3 7.7-.6-1.1-1.3-2.2-1.9-3.4v-.1h-.1c-.7-1.2-1.4-2.3-2.1-3.5l-.7.4 1.8 3-3-.3-.1.8c1.2.2 2.4.3 3.6.4.8 1.4 1.5 2.7 2.2 3.8-1.6 0-6-1.3-7.9-1.3v.8c1.5 0 5.6 1.1 7.5 1.3-1.2 1.6-2.7 2.8-4.3 4zm6.1 94.4c-.1.1-.1.1-.2.1 0 0-.1 0-.2-.2l-.1-.1c-.1-.2-.2-.4-.3-.8.5.1.7.3.8.5 0 .1.1.1.1.2s-.1.2-.1.3zm5.5-54.9c-.2-.8-.3-1.6-.3-2.4.1.8.3 1.6.3 2.4zM99 140c.5-2.9 1.5-5 1.5-8.2 0-2.6 0-5.1.2-7.7.2-2 1-3.6 1.6-5.5.1-.2.1-.4.2-.6.6 1.1 1.3 2.1 2 3 .3.4.7.8 1 1.2 2 2.1 4.4 3.9 6.6 5.1 1.5.8 2.9 1 4.1 2 1.3 1 2.5 2.1 3.8 3.2 3.2 2.6 3.8 5.1 4.4 9.1.4 2.9.9 5.4.9 8 0 2.2-.3 4.4-1.3 6.8-.8 2-1.4 3.2-3.1 4.2-.5.3-1.1.5-1.7.7-.3.1-.5.2-.7.3-.1-.4-.1-.8-.1-1.3 0-2.6 1.3-5.8 1.3-8.5 0-.3 0-.7-.1-1 0-.1-.1-.3-.2-.3-.1-.1-.3-.1-.4 0-.6.4-1.3.9-1.9 1.4-.5.4-1.1.7-1.6.7h-.1v-.2c0-1 .5-2 1.2-3 .1-.1.1-.2.2-.3.7-1.1 1.5-2.2 1.5-3.7v-.4c0-.2-.2-.3-.4-.4h-.4c-1.8 0-3.1 1.4-4.5 1.8-.1 0-.2.1-.3.1v-.2c.1-.6.6-1.2 1.2-1.9.7-.8 1.4-1.6 1.4-2.8 0-.3 0-.5-.1-.8-.2-.8-.8-1.2-1.4-1.2-.7 0-1.3.4-1.9.8-.4.2-.7.5-1.1.7.1-.5.3-1.1.6-1.7.3-.8.7-1.5.7-2.3 0-.3-.1-.5-.2-.8-.1-.2-.3-.2-.4-.2-1.4.3-2.5 1.2-3.5 1.7l-.6.3v-2.5c0-.1-.1-.3-.2-.3-.1-.1-.3-.1-.4 0-1.6.8-3.1 2.3-4.6 3.7-1.2 1-2.3 1.9-3.6 2.3.3-.5.4-.9.4-1.3zm5.1 25.7c-.4.1-1 .2-1.6.2-1 0-2.2-.1-3.2-.1-.6 0-1.1 0-1.6.2-.2-.5-.4-1-.8-1.4-1.1-1.1-2.4-1.6-2.9-2.8-.3-.6-.4-1.1-.4-1.7 0-.4.1-.9.2-1.3.1.1.2.1.3.1h.1c.4 0 1.4.4 2.2.6.8.1 1.6.2 2.3.2h1.3c1.2-.1 2.3-.6 3.2-.6.2 0 .4 0 .7.1.3.1.9.3 1.5.6l.6.3.6 1.2c.1.1.2.2.4.2.1.6.1 1.2.2 1.8-.2.2-.3.4-.5.6-.8.7-1.5 1.5-2.6 1.8zm4.3 4.9v-.2c0-.2-.1-.4-.4-.5v-.3c.2 0 .5.1.7.1 0 .4-.1.6-.3.9zm6-.8c-.1 0-.1 0-.2.1v-.1c0 .1.1.1.2 0zm.5.7v-.2c0-.1 0-.2-.1-.3-.1-.1-.2-.1-.3-.1.2 0 .4 0 .6-.1-.1.2-.2.4-.2.7zm7.2-2.8c-.3.3-1.3.5-2.2.6-1 .1-2 .2-2.7.3-.4.1-.8.1-1.2.2v-.2c0-.2-.2-.4-.4-.4s-.4.2-.4.4v.2c-.8.1-1.5.2-2.3.2h-2.1c.1-.1.1-.3.2-.4.1-.2 0-.4-.2-.5-.3-.2-.7-.2-1-.2-.2 0-.4.1-.4.3 0 .1 0 .2-.1.3-.2 0-.4.1-.4.3v.1c-.2 0-.3 0-.5-.1.2-.3.4-.5.7-.7.2-.1.3-.4.1-.6-.1-.2-.4-.3-.6-.1-.5.3-.8.7-1.1 1.1-.3-.1-.4-.2-.5-.4-.1-.1-.2-.5-.2-.9 0-1 .3-2.5.5-3 .2-.3.5-.5.7-.8.3-.2.7-.4 1.1-.5 1-.3 2.1-.5 3.3-.5 1.5 0 2.9.4 3.1.8.1.2.4.2.6.1.2-.1.2-.4.1-.6-.7-.8-2.2-1-3.8-1.1-1 0-2.1.1-3 .4v-.1c-.1-.2-.4-.3-.6-.2-.3.2-.7.5-1 .7-.1-.8 0-1.8-.7-2.7-.2-.2-.4-.4-.7-.5-1.8-3-4.5-5.3-5.4-8.5-.1-.2-.3-.3-.5-.3-.2.1-.3.3-.3.5.9 3 3 5.2 4.7 7.5-.4-.2-.7-.3-.9-.4-.3-.1-.6-.1-.9-.1-1.2 0-2.3.6-3.3.6h-1.3c-.7 0-1.5 0-2.2-.2-.6-.1-1.6-.6-2.3-.6h-.2c.1-.4.3-.7.4-1.1.8-2.1.7-3.7 1.1-5.7.4-2.9 1.9-5.5 2.9-8.5.1-.2.1-.4.2-.6.1 0 .3-.1.4-.1 1.5-.4 2.8-1.4 4-2.5.4-.4.8-.7 1.2-1.1.9-.9 1.8-1.7 2.7-2.2v2.4c0 .1.1.2.2.3.1.1.2.1.3.1.9-.2 1.7-.6 2.4-1.1.6-.4 1.2-.8 1.8-.9v.1c0 .4-.3 1.2-.7 1.9-.2.4-.4.8-.5 1.3-.1.3-.2.7-.2 1v.6c0 .1.1.2.2.3.1.1.3.1.4 0 .6-.3 1.2-.8 1.8-1.1.6-.4 1.1-.7 1.4-.6.2 0 .4.1.6.6.1.2.1.4.1.5 0 .7-.6 1.5-1.2 2.2-.5.6-1.1 1.2-1.3 2-.1.2-.1.5-.1.7 0 .2 0 .4.1.6.1.2.2.3.4.3.6 0 1.1-.2 1.6-.4 1.3-.6 2.4-1.5 3.6-1.5 0 1.1-.7 2.1-1.4 3.2s-1.5 2.3-1.5 3.7v.6c0 .2.2.3.3.3.2 0 .4.1.5.1.5 0 1-.2 1.5-.4.7-.4 1.3-.9 1.8-1.3v.2c0 2.4-1.3 5.7-1.3 8.5 0 1 .2 2 .7 2.9.1.1.2.2.3.2.1.1.1.2.2.2.1.1.3.2.5.4.6.4 1.4.7 2.2 1.1.5.2.9.5 1.2.7.3.2.4.5.4.6 0 .5-.2.9-.9 1.5z"/><path fill="#511B2A" d="M74.5 38.3h.1c.2 0 .3-.1.4-.3.5-1.4 1.1-1.7 2.1-1.7 1.3 0 2.9.8 4.1 1.1.2.1.5-.1.5-.3.1-.2-.1-.5-.3-.5-1.1-.3-2.7-1.2-4.3-1.2-1.2 0-2.4.6-2.9 2.3 0 .3.1.5.3.6zM38.2 38c1.5-1.4 3.4-2.2 5.2-2.2 1.9 0 3.6.9 4.6 3.1.1.2.2.2.4.2h.2c.2-.1.3-.3.2-.6-1.1-2.5-3.2-3.6-5.4-3.5-2 0-4.1.9-5.7 2.4-.2.2-.2.4 0 .6.1.1.3.2.5 0zm4.5 13.8c.2-.1.3-.3.2-.6-.1-.2-.3-.3-.6-.2-1.9.9-3.9 2.9-5.9 2.8-.5 0-.9-.1-1.4-.3-.1-.1-.3-.1-.4-.2-.2-.1-.5-.1-.6.1-.1.2-.1.5.1.6.5.3 1 .5 1.5.6.2 0 .5.1.7.1 2.6 0 4.7-2.1 6.4-2.9zm24.4 8.8c-.1-.2-.4-.3-.6-.2-.2.1-.3.4-.2.6.3.5.6 1 .8 1.5.1.1.2.2.4.2.1 0 .1 0 .2-.1.2-.1.3-.4.2-.6-.3-.4-.6-.9-.8-1.4zM88.4 52c-.2-.1-.4-.1-.6.1-.1.2-.1.4.1.6.8.5 1.1 1.7 1.5 2.7.1.2.2.3.4.3h.2c.2-.1.3-.3.2-.5-.4-1.1-.7-2.4-1.8-3.2zm-58.2 4.3c.1 0 .2 0 .3-.1.2-.2.1-.4 0-.6 0 0 0-.1-.2-.2 0 0-.1 0-.1-.1v-.1c0-.5.1-1.2.4-1.7.3-.5.6-.8.8-.8h.1s.1 0 .2.1c.2.1.5 0 .6-.2.1-.2 0-.5-.2-.6-.1 0-.2-.1-.2-.1-.1 0-.3-.1-.4-.1-.8 0-1.3.6-1.6 1.3-.3.7-.5 1.4-.5 2.1 0 .2 0 .4.1.6 0 .2.2.3.4.3 0 0 0 .1.1.1 0 0 .1.1.2.1z"/><path fill="#CF141E" d="M29.2 35.2h.2l.1.2c1.5 3.7 1.2 7.8 4.1 10.5 3.3 3.1 6.6 3.2 11.1 3.4h1.5c4.1 0 6.7-1 9.5-4.3 1.5-1.8 2.1-3.2 3-4.2.9-1 2.1-1.5 4.5-1.5h1.5l.1.2c1 3.8 4.2 8.6 8.2 9.4 2.9.6 4.8.9 7 .9 1.4 0 3-.1 5-.5 4.9-.8 5.9-4.2 7-8.4.5-1.9 1.2-3.8 2.7-5.3.9-.9 2.5-1.8 2.4-3.1 0-.3-.1-.6-.3-1-.1-.2-.1-.3-.1-.4v-.2c-5-.3-11-1.2-16.7-1.2-4.2 0-8.3.5-11.7 2.1-3 1.3-5.2 3.2-8.2 3.2-1.1 0-2.3-.3-3.7-.9-4.2-2-6.2-3.8-11.1-3.8h-.1c-6.4 0-12.8.2-19.3.6l-.1.3c-.2.5-.2 1.1-.2 1.7 0 .5 0 1 .1 1.5 1.3.4 2.4.8 3.5.8zm40.6-1.3c2.7-1.9 5.3-2.7 8.3-2.7h2.6c1.1 0 2.2-.1 3.4-.1 1.9 0 3.9.1 5.5.9 1.8.8 2.5 2.5 2.5 4.4 0 2.3-1 4.9-2.4 7.1-1.4 2.2-3.2 3.9-4.9 4.3-1.6.4-3.9.7-6.2.7-4.6 0-9.8-1.1-11.3-5.1-.4-1-.6-2.1-.6-3.2 0-2.3 1-4.9 3.1-6.3zm-34.9-1.6c1.8-.9 4.3-1.4 6.9-1.4 3.5 0 7.4.8 10.4 2.2 3 1.5 5.1 3.6 5.1 6.4 0 1.8-.9 3.8-3.1 6-2.5 2.5-5.6 3.3-8.8 3.3-2 0-4.1-.3-6-.7-3-.6-4.8-2.1-5.9-4.1-1.1-2-1.6-4.4-2.2-6.9l-.1-.6.6.3v-.1c.1-1.9 1.3-3.5 3.1-4.4z"/><path fill="#511B2A" d="M31.9 36.9l-.6-.3.1.6c.6 2.6 1.1 5 2.2 6.9 1.1 2 2.9 3.4 5.9 4.1 1.9.4 4 .7 6 .7 3.2 0 6.3-.8 8.8-3.3 2.2-2.2 3.1-4.2 3.1-6 0-2.8-2.2-4.9-5.1-6.4-3-1.5-6.8-2.2-10.4-2.2-2.6 0-5.1.4-6.9 1.4-1.9.8-3.1 2.4-3.1 4.5 0-.1 0 0 0 0zm3.3-4.1c.9-.5 1.9-.8 3.1-1-.8.8-1.5 1.7-2.2 2.7-.1.2-.1.5.1.6.1 0 .2.1.2.1.1 0 .3-.1.3-.2.9-1.3 1.8-2.4 2.9-3.4.7-.1 1.4-.1 2.2-.1 3.5 0 7.2.8 10.1 2.2 2.2 1.1 3.9 2.6 4.5 4.3.2.5.3 1 .3 1.6v.3c-.3 0-.7.1-1 .1h-.2c-2.5.4-5.1 1.1-7.3 2.4l-.1-.1c-.8-.4-1.2-1.4-1.7-2.4s-1.2-2-2.9-2c-1.5 0-2.6.8-3.6 1.6-.8.6-1.5 1.1-2.3 1.4-.2 0-.3 0-.5.1h-.3c-.2 0-.4.2-.4.4v.1c0 .1 0 .3.1.4.1.2.4.2.6.1.1-.1.2-.1.3-.2.1 0 .2-.1.3-.1.1 0 .1.1.2.3.2.4.4 1 .5 1.7.2.7.3 1.3.8 1.7.8.7 1.9.9 2.9.9.8 0 1.5-.1 2.2-.3-.6.8-1.2 1.5-1.8 2.1-1-.1-2-.3-3-.5-2.1-.5-3.5-1.3-4.5-2.4-.4-.4-.7-.9-1-1.4-1-1.7-1.4-3.8-2-6.1v-.1l.5.2-.1-.5v-.5c.1-1.8 1.1-3.1 2.8-4zm18.6 12.4c-2.4 2.4-5.3 3.1-8.4 3.1-.6 0-1.2 0-1.8-.1.6-.6 1.1-1.3 1.7-2.1 2.2-3 6.2-4.6 10-5.2.1 0 .2 0 .4-.1.3 0 .6-.1.9-.1-.3 1.3-1.2 2.8-2.8 4.5zm-15.1-3.6c0-.1-.1-.1-.1-.2.4-.2.8-.5 1.2-.8-.1.2-.2.5-.2.8v.5c0 .8.4 1.5.9 1.9.5.4 1.2.6 1.9.6 1.4 0 3-.8 3.5-2.5.1-.2-.1-.4-.3-.5 0-.4-.2-.8-.5-1-.3-.6-.9-1-1.6-1.1 0-.1.1-.1.1-.2s0-.2-.1-.2c1.3 0 1.7.6 2.2 1.6.4.8.8 1.9 1.8 2.6-.8.5-1.5 1.2-2.2 1.9H45c-.7.3-1.8.6-2.8.6-1 0-1.8-.2-2.4-.7-.2-.2-.5-1.1-.7-2-.1-.6-.2-1-.4-1.3zm1.7-.1c.1-.6.3-1 .6-1.2 0 .3.1.5.2.8-.2-.1-.4-.1-.5 0-.2.1-.2.4 0 .6.2.1.5 1.4 1.8 1.8h-.1c-1.1 0-2-.5-2-1.6v-.4zm1.9 1c-.2-.1-.4-.3-.5-.5l.2.2.3.3zm0-1.6c0-.3.1-.5.4-.7.1 0 .1-.1.2-.1.4.1.7.2 1 .4.2.1.3.2.4.3.1.2.2.5.2.7v.1c-.1.1-.3.3-.8.4-.1 0-.2.1-.3.1-.3 0-.6-.1-.8-.4-.1-.3-.3-.5-.3-.8zm24.4-.5c0 1.1.2 2.2.6 3.2 1.5 4 6.7 5.1 11.3 5.1 2.4 0 4.6-.3 6.2-.7 1.7-.4 3.5-2.2 4.9-4.3 1.4-2.2 2.4-4.8 2.4-7.1 0-1.9-.7-3.6-2.5-4.4-1.7-.8-3.6-.9-5.5-.9-1.2 0-2.3.1-3.4.1h-2.6c-3 0-5.6.8-8.3 2.7-2.1 1.2-3.1 3.8-3.1 6.3zm11.1-7.8c.8.9 1.7 1.7 2.4 2.3.8.6 1.4 1.1 2 1.1h.2c.2 0 .4-.3.3-.5 0-.2-.3-.4-.5-.3-.1 0-.8-.3-1.5-.9-.8-.7-1.7-1.6-2.6-2.5h2.5c1.1 0 2.2-.1 3.4-.1 1.5 0 2.9.1 4.2.5-.1.2-.2.5-.2.7 0 .3-.1.6-.1.9v1.8c0 .5 0 1.1-.2 1.5-.4 1.4-1.3 2.7-1.3 4.4v.1c0 1.5.5 2.7 1.2 3.7-1 1.1-2.1 1.8-3 2-.4.1-.7.2-1.2.2-1.4.2-3 .4-4.7.4-.3-.6-.7-1.2-1.1-1.7.2 0 .5.1.6.1.3 0 .6.1.9.1.8 0 1.6-.1 2.3-.5 1.1-.7 1.4-1.8 1.6-2.7.3-1 .5-1.7 1.4-2.1.2-.1.3-.3.2-.4 0-.2-.2-.3-.4-.4-.8-.1-1.7-.5-2.5-1-.9-.5-1.8-1-2.9-1-.4 0-.8.1-1.2.2-1.3.5-1.9 1.5-2.5 2.2-.5.7-1 1.2-1.9 1.4-1.6-1.3-3.4-2.4-5.1-2.8-.3-.1-.6-.1-.9-.2.2-2 1.2-3.9 2.7-4.9 2.3-1.6 4.4-2.3 6.9-2.5.5.4.7.7 1 .9zm10.8 4.9c.2-.6.2-1.1.2-1.7v-2.3c0-.2.1-.4.1-.6.4.4.7.9 1.1 1.3.5.7 1 1.4 1.4 2.2v.2c0 2.1-.9 4.7-2.3 6.8-.2.3-.4.7-.7 1-.1.1-.2.3-.3.4-.5-.8-.9-1.8-.9-3v-.1c0-1.4.7-2.6 1.2-4 .2-.1.2-.2.2-.2zm-21.3 2.6c.3 0 .5.1.7.1 1.5.3 3 1.2 4.5 2.4v.1c0 .2.2.4.5.4h.2c1 .8 1.9 1.7 2.7 2.4 0 .3.2.3.2.4.1 0 .1.1.2.1.6.6 1.1 1.3 1.5 2-4.3-.1-8.7-1.3-10-4.7-.3-.9-.5-2-.5-3v-.2zM78 44c-.3.1-.5.1-.7.1-.4 0-.6-.1-.8-.3-.2-.2-.3-.5-.4-.9.4.5 1 .8 1.6.9.1 0 .3 0 .4-.1v.1c-.1.1-.1.1-.1.2zm-.1-1.2c-.1.1-.1.1-.3.1-.2 0-.5-.1-.7-.3-.2-.2-.3-.4-.3-.7v-.2c.3 0 .8.1 1.4.2 0 .2.1.3.1.5s-.1.3-.2.4zm-.7-1.9c.1-.1.1-.3.1-.4.4 0 .5.2.7.4 0 0 0 .1.1.1-.3 0-.6-.1-.9-.1zM75.3 43c.1.6.3 1.1.6 1.4.4.4.8.5 1.4.5.3 0 .6 0 1-.1 1.3-.3 2.2-1.2 2.4-2.2.1 0 .1-.1.1-.2.1-.2.1-.2.1-.4v-.1s-.1-.1-.1-.2c-.1-.5-.3-1.1-.7-1.4-.5-.5-1.2-.7-2.1-.7h-.3c.1-.1.2-.1.4-.2.3-.1.6-.2.9-.2.8 0 1.6.4 2.5.9.6.3 1.2.7 1.9.9-.6.6-.8 1.3-1 2-.3 1-.5 1.8-1.3 2.2-.5.3-1.2.4-1.9.4-.3 0-.5 0-.8-.1-.3 0-.8-.1-1.3-.2-.2 0-.3-.1-.4-.1-.8-.8-1.6-1.6-2.6-2.4.4-.2.8-.4 1.1-.7v.2c0 .3 0 .5.1.7zm3.4-2.5c.9.2 1.2.8 1.3 1.5v.3c0 .1-.1.2-.1.2v.1c-.4.3-.6.5-.8.7.1-.4.1-.8.1-1.2-.1-.6-.2-1.2-.5-1.6z"/><path fill="#CF141E" d="M89.6 61.7c-.3 1-.7 2-1.2 2.9.8-1.6 1.5-3 2.1-3.8l-.3-.6s0-.1-.1-.1c-.1.5-.3 1-.5 1.6zM87.1 70v-.8c1.9 0 6.3 1.3 7.9 1.3-.7-1.2-1.4-2.5-2.2-3.8-1.2-.1-2.4-.2-3.6-.4l.1-.8 3 .3-1.8-3 .7-.4c.7 1.2 1.4 2.4 2.1 3.5h.1v.1c.7 1.2 1.3 2.3 1.9 3.4-.9-2.4-3-5.5-4.3-7.7-.7 1.2-1.7 3.2-2.8 5.4-1.5 2.9-3.1 6-4.6 8.1-.5.6-.9 1.2-1.3 1.6l-.6 1.5c-.1.3-.3.6-.4 1l1.4.4h.1l.6-.3c.4-.2.8-.5 1.2-.7 1.7-.9 3.3-1.9 4.9-2.9-1.5-.6-3.4-.9-5-1l.1-.8c1.8.2 4 .4 5.7 1.3 1.6-1.1 3.1-2.4 4.3-3.8-1.9-.4-5.9-1.5-7.5-1.5zm8.5 2.5c.1-.2.1-.4.2-.7v-.6c-1.3 1.7-3 3.1-4.8 4.4l-.4.5c-.1 0-.1-.1-.2-.1-.3.2-.7.5-1 .7 2.8-1 5.5-2.2 6.2-4.2zm-67.4-3.1c-1-2.8-1.5-6-1.5-8.6 0-1.1.1-2.1.3-2.9h-.2c-.7.1-1.4.5-2.2 1.7-.4.5-.4 1.2-.4 1.9.1.5.2.9.4 1.4.7 2 2.3 4.2 2.9 5.4.3.4.5.8.7 1.1zM45.1 82c.1.5.2 1 .2 1.5 0 .4-.1.8-.2 1.2.4.2.8.4 1.2.7.7.5 1.4 1.1 1.9 1.8 1.2.9 2.2 2 3.1 3.2.2-.9.3-1.8.3-2.6 0-1-.1-1.9-.4-2.8-1.8-.7-4.1-1.7-6.1-3zm-6.5-1c-4-3.5-5.7-8-5.7-13.5h.7c-.8-1.2-1.5-2.4-2-3.7-.6-1.2-1.9-4.6-3.6-5.7l-.1-.1c-.2.8-.2 1.7-.2 2.7 0 2.7.6 6 1.6 8.9 1 2.9 2.6 5.3 4.4 6.2l-.4.7h-.1c.5.6 1 1.1 1.5 1.7 1.2 1.1 2.5 2 3.9 2.8z"/><path fill="#CF141E" d="M39.8 81l-.4.5c1.3.8 2.7 1.6 4 2.4.3.1.6.3 1 .4.1-.3.1-.5.1-.8 0-.7-.2-1.5-.5-2.3-1.6-1.3-3-2.9-3.4-4.8-.2-.2-.4-.5-.6-.7-2.1-2.6-4.4-5.2-6.2-8 .1 5.5 1.8 9.8 6 13.3zm15.7 4c-1.9-.5-3.6-.8-5.2-1.3.7.3 1.4.5 2 .7 1.1.3 2.1.5 3.2.6zm-4.4 7.9c.2.6.9.9 1.3 1.2l-.9-1.5.7-.4c1.6-2.1 4-4.9 6.5-6.4-.6 0-1.1.1-1.7.1-1.5 0-3-.2-4.6-.6.2.8.3 1.7.3 2.5 0 1.1-.1 2.2-.4 3.3l-.7-.2-.2.1.4.4c-.2.3-.3.5-.4.8-.3.2-.4.5-.3.7zm13.8 7.2c-.1-.6-.2-1.2-.3-1.7v-.6c-.1-.3-.2-.5-.3-.8-.5-.1-1.1-.3-1.7-.4.8 1.2 1.6 2.3 2.3 3.5zm1.7 42.3c-.3-3.1-3.6-7.2-5.6-9.8-1.9-2.5-4.2-6.6-6.5-8.8 0 3.5-1.1 8.8-1.5 10-.1.2-.1.4-.2.6l.2-.1c2 2.5 4.2 4.8 6.1 7.4 1.2 1.7 2.3 3.7 3.8 5.2.4-.4.7-.8.9-1.2.6-1.1 1.7-2.2 2.8-3.3z"/><path fill="#CF141E" d="M54.4 122.7c2.7 2.3 5.2 6.9 7.2 9.5 1.9 2.4 5 6.1 5.7 9.5.4-.5.8-1 1-1.5.1 0 .2-.1.3-.1 0-.1 0-.1.1-.2.1-.5.2-1.4.2-2.5 0-1.7-.1-3.9-.4-6.4-.3-.4-.7-.9-1.2-1.6-.8-1.2-1.8-2.7-2.7-4.2-1.9-3.1-3.8-6.2-4.2-7-1.5-2.4-3.5-4.2-5.3-6.3v.2c0 .2-.1.5-.1.9-.1.7-.2 1.7-.4 2.8-.2 1.8-.4 3.9-.5 5.6.1.3.2.8.3 1.3zm15.3 9.5c.2-2.3.5-4.9-.1-7-.6-2.6-1.2-5.3-1.8-8 .4 4.1 1 9.1 1.4 13.4.2.2.3.4.4.4l-.3.5c.2 2 .3 3.8.3 5.3.2-1.7 0-3.8.1-4.6zm-15.5-20.5v-.8c-.1.8-.1 1.5-.2 2.3.1-.8.2-1.3.2-1.5zM53 129c.3-1.8.5-3.8.5-5.3v-.7c-.2 1.6-.3 3.2-.4 4.8 0 .5 0 .9-.1 1.2zm10.2-19.8h.1-.1zm2.4-6.1c-.2-.2-.3-.5-.5-.8-.9-1.9-2.3-3.9-3.5-5.8-.4 0-.7-.1-1.1-.1-1.7 0-3.5.4-4.7 1.4v.2c2.3 3.3 4.6 6.7 6.9 10.1v-.1l.5.9c1 1.7 2.3 3.1 3.5 4.7-.1-1.6-.2-2.9-.2-3.8v-.3c-.3-2.1-.6-4.2-.8-6.3-.1 0-.1-.1-.1-.1z"/><path fill="#CF141E" d="M66.3 114.5c-1.1-1.6-2.5-3.1-3.6-4.9-.1-.1-.2-.2-.2-.3l-7.2-10.5c-.1 3.9-.1 7.8-.2 11.8 1.9 2.3 4.2 4.4 6 7.1.7 1.2 4.5 7.6 7 11.2.1.2.2.3.3.5-.5-5.1-1.2-10.9-1.6-15.2l-.5.3zm-16.6 26c.2 1 1.6 2.1 2.1 3.1.8 1.5 1.3 3.2 2.2 4.6 1 1.6 3.6 4.2 5.3 4.9v-.9c-1.8-2.4-3.4-4.9-5.5-7.3-.9-1-1.5-2.2-2.3-3.2-.4-.5-.7-.9-.9-1.2-.2-.3-.3-.6-.3-.9 0-.6.3-1 .7-2 .4-1.2.5-2.7 1-4.1.2-.4.5-1.6.7-3.2-.2.9-.6 1.8-1.1 3.1-.5 1.7-2.4 5.3-1.9 7.1zm4.7-43c0-.2-.2-.5-.4-.8l-1.5-2.4c.6 2.1 1.4 4.2 1.9 6.4v-3.2z"/><path fill="#CF141E" d="M58.2 142.1c-1.7-2.4-3.8-4.6-5.7-7-.2.9-.3 1.9-.7 2.8-.4 1.1-.7 1.6-.6 1.7 0 .1 0 .2.2.4s.5.6.9 1.1c.8 1 1.5 2.2 2.3 3.1 2 2.3 3.5 4.6 5.1 6.9.5-1.3 1.5-2.6 2.5-3.8-1.6-1.4-2.8-3.5-4-5.2zm8.2-49.9c-.5 1.1-.9 2.3-1.1 3.3.3-.4.5-.9.8-1.8.1-.4.2-.9.3-1.5zm-11.5 4.4c2.8-3.2 5.4-6.2 9-8.4-1.3-.8-2.5-1.5-3.6-2.4-2.7 1.1-6 4.6-7.8 7.1.7 1.1 1.4 2.3 2.1 3.4.2.1.3.2.3.3zm12.8-11s-.1 0 0 0c-.6-.1-1.2-.1-1.7-.2-1.1-.1-2.1-.2-3.1-.2-.5.1-1 .1-1.6.2 1 .7 2.2 1.5 3.5 2.2h.4c.4 0 .7.1 1 .2l-.2.5c.3.1.5.3.8.4.1-1.1.4-2.1.9-3-.1.1 0 0 0-.1zm-1.1 4.3v-.2c-.6-.4-1.2-.7-1.8-1.1-3.5 2.1-6.1 5-8.8 8.1 1.4-.8 2.9-1.1 4.5-1.1.5 0 1 0 1.5.1h.1v.1c.7.1 1.3.2 1.9.3l.4-.2c.3-1.9 1.2-4.3 2.2-6z"/><path fill="#511B2A" d="M52.9 122.7zM64 96zm-10.3 14.2z"/></svg>