<?xml version="1.0" encoding="utf-8"?>
<!-- Generator: Adobe Illustrator 19.1.0, SVG Export Plug-In . SVG Version: 6.00 Build 0)  -->
<svg version="1.1" id="Capa_1" xmlns="http://www.w3.org/2000/svg" xmlns:xlink="http://www.w3.org/1999/xlink" x="0px" y="0px"
	 viewBox="229 413.5 365.1 192" style="enable-background:new 229 413.5 365.1 192;" xml:space="preserve">
<g>
	<g>
		<path d="M536.8,504.9c-2.5-2.2-5.3-4.4-8-6.3c6.9-2.6,13.3-6.7,17.8-11.9c8.4-8.9,11.4-23.1,3.7-36.9c-2.9-5.4-5.8-9.4-9.3-12.5
			c-7.1-6.7-16.6-7.3-23.9-4c-7.5,3.2-13.8,9.2-19.7,15.8c-8.4,9.4-15.9,20.6-20.8,26.2c-0.5,0.6-0.6,0.6-0.6,0.6
			c-26.5,30.8-86.8,26.2-128.7,21.4c-0.7-16.4-7-38.7-20.8-51.4c-7.8-7.3-19.9-10.5-31.9-4.6c-3.9,1.8-7.3,4.4-9.9,7.3
			c-14.8,17.6-7,45,8.2,58.9c0.9,0.8,1.6,1.5,2.5,2.2c-10.5,8.7-20.4,17.7-31.4,24.6c-1.1,0.8-2.1,1.9-2.5,3.3
			c-3.4,14.7,1,32.4,12.2,42.8c0.1,0.1,0.2,0.2,0.3,0.3c7.1,6.4,17.8,9.2,29,5c4.5-1.6,8-4.3,10.7-7.4c8.1-9.2,11.4-21.9,17.3-28
			c1.5-1.6,2.8-2.7,4.5-3.6c33-18.2,86,3.8,130.1-10c4.6,11.2,13.5,23.5,24.9,33.8c17.7,15.8,44.5,26.9,64,5
			c0.3-0.3,0.7-0.7,1.2-1.2C572.4,552.6,556.3,522.6,536.8,504.9z M320.7,499.1c-0.1-0.1-0.2-0.2-0.2-0.2c-1.2-1.1-2.3-2.3-3.4-3.5
			c1.9,0.1,3.7,0.1,5.5,0c0.3,0.9,0.6,1.7,1,2.5C322.7,498.4,321.6,498.7,320.7,499.1z M330.2,478.7c0.8,1.5,0.6,2,0.4,2.2
			c-0.1,0.1-0.2,0.2-0.4,0.4C330.1,480.5,330.1,479.7,330.2,478.7z M305.4,467.2c0.5-0.3,0.9-0.6,2.1-0.7c0.7-0.2,1.5,0,2.5,0
			c2.6,3.5,5.4,9.8,8.1,16.5c-0.4,0.4-0.8,0.9-1.2,1.2c-2.8-0.3-6.1-1-9.1-2c-0.5-1-0.8-1.8-1.3-2.8
			C304,473.3,304.3,468.7,305.4,467.2C305.3,467.3,305.3,467.3,305.4,467.2z M315.1,514.9c0.7-0.5,1.2-0.8,2-1.2
			c1.1,0,2.2,0.1,3.1,0.2C318.5,514.1,316.9,514.5,315.1,514.9z M334.5,495.7c-0.4-1-0.8-2.2-1.3-3.3c1-0.5,1.5-1.1,2.4-1.8
			c0.2,1.9,0.5,3.5,0.5,5.2C335.6,496,335.1,495.6,334.5,495.7z M340.4,507.3c-1,0.1-2.2,0.2-3.3,0.2c0.2-0.2,0.2-0.4,0.3-0.6
			C338.5,506.9,339.6,507.1,340.4,507.3z M312.9,544.9c1.9-1.3,3.9-3,6-4.9c0.5,0.2,1.1,0.3,1.5,0.6c-0.2,0.4-0.8,1.1-1.6,1.9
			c-4.8,5.8-19.5,13.9-23.7,14.1C301.2,553,307.2,549,312.9,544.9z M344.7,517.7c1.7-0.5,3.2-1.1,4.9-2c3.7-1.1,9.5,0.3,16.2,2.5
			c-10.3,1.6-20.6,3.7-30.9,6.7C338.4,522,341.6,519.4,344.7,517.7z M494.1,478c-0.8,0.9-1.2,1.7-1.4,2.9l0,0c0.1,0.4-0.2,0.7-0.2,1
			c-2.2-0.4-4.3-0.6-6.5-0.7c1.6-1.8,3.1-4,4.8-6.1c0.4,0.5,0.9,1.1,1.3,1.5C492.7,477.1,493.4,477.6,494.1,478z M480.4,492.5
			C480.7,492.4,480.7,492.4,480.4,492.5C480.7,492.4,480.7,492.4,480.4,492.5C480.7,492.4,480.6,492.6,480.4,492.5z M495.1,510.6
			c-1.2-0.4-2.4-1-3.7-1.4c3.6,0.5,7,1,10.3,0.1c-0.9,0.3-1.8,0.7-2.6,0.9c-0.9,0-1.9,0.2-2.7,0.4
			C496,510.5,495.6,510.5,495.1,510.6z M485.9,531.1c-0.3,2.8-0.1,5.9,0.8,8.9c-0.1-0.1-0.1-0.1-0.2-0.2c-2.2-2.1-3.1-4-2.5-8.1
			C484.6,531.5,485.3,531.4,485.9,531.1z M519,506.8c2.6,2.6,4.7,5.1,6.5,7.5c-0.7-0.1-1.3-0.1-2-0.3c-0.4-0.4-0.8-0.9-1.3-1.3
			c-5.8-4.8-13-5.7-19.6-3.7c1.6-0.5,3.2-1.4,4.9-2.8c1.1-1.4,1.7-2.9,1.8-4.3c0.7-0.1,1.5,0.1,2.1,0.2c1,0.4,2.1,1.1,3.1,1.4
			C515.9,504.6,517.7,505.5,519,506.8z M528.4,442.6c0.9,0.3,1.8,0.6,2.8,1.1C530.2,443.3,529.3,442.9,528.4,442.6z M525.7,442.4
			c0.6,0,1.3-0.2,1.9-0.1C527,442.3,526.3,442.5,525.7,442.4z M468.7,495.9c0.3,0.5,0.6,0.9,1,1.3c-0.8,0.3-1.4,0.6-2.2,0.8
			c-1.3,0.2-2.4,0.4-3.8,0.7C465.4,497.7,467.1,496.9,468.7,495.9z M431.6,530.4c-10.9,0-22.4-0.9-33.8-1.6c1.5,0,2.9-0.5,4.3-0.5
			c0.1,0.1,0.2,0.1,0.2,0.1C412.8,529.1,422.7,528.9,431.6,530.4z M497.5,530.1l0.1-0.2c0.2-0.4,0.7-1,1-1.5
			c0.3-0.3,0.7-0.7,1.1-0.9c7,1.4,14.4,1.6,21.1-2c1.1,0.3,2.2,1,3.2,1.7c0.7,0.5,1.6,1.3,2.4,1.9c0.9,0.8,1.6,1.5,2.3,2.3
			c-0.2,0.7-0.5,1.3-0.9,2c-10.5,3.6-23.6,6.8-27.2,2.1C499.2,534.4,498.3,532.9,497.5,530.1z M538.4,479.2c0.1-0.1,0.1-0.1,0.2-0.2
			C538.5,479.2,538.5,479.2,538.4,479.2L538.4,479.2z M540.2,476.6c0.8-1.2,1.3-2.2,2-3.5c0.6-1.2,1-2.5,1.3-3.9
			C543,471.8,541.8,474.2,540.2,476.6z M539.8,453.5c-1.5-1-2.8-1.7-4.4-2.1c-0.1-2.1-0.8-4.1-2.8-6.6c0.3,0.3,0.7,0.4,1,0.7
			C535.6,447.2,537.6,449.9,539.8,453.5z M432.8,508.9L432.8,508.9c-1.3,1-1.9,2.2-2.1,3.7c-3.4,0.2-6.9,0.3-10.1,0.4
			c-9.7,0.3-23.2-1.5-35.9,0.2c-1.9-0.7-3.8-1.5-5.9-2.2C396.5,512,415.3,512.2,432.8,508.9z M293,455.8c1.1-1.2,2.4-2.2,3.8-3.1
			c-0.1,0.1-0.2,0.2-0.3,0.3c-3.2,4.3-5.3,9.6-6.2,15c-1.5,4.6-1.7,9.8,0.1,14.4c0.3,1.4,0.5,2.6,1,3.9c-1.3-3-2.5-6-2.9-9.2
			C287.1,468.7,288.5,460.8,293,455.8z M299.7,575.3c-8.2,2.7-13.6,1-18.4-3.2c-2.4-2.1-4.1-5-5.7-8c6.2,3.6,13.8,4.4,20.8,3.7
			c4.3-0.8,9.7-3.1,15.2-6c-1.9,3.6-3.7,6.9-5.9,9.3C303.8,573,302,574.5,299.7,575.3z M446.3,529.7c0.1-0.1,0.3-0.3,0.3-0.6
			c0.3-1.1,1.2-1.8,1.7-2.8c5.7-0.8,11.2-1.9,16.5-3.6c0.2,0.1,0.4-0.1,0.6,0c0.1,0.7,0,1.5,0.4,2.2c0,0,0,0,0.1,0.1
			C459.7,527.4,453.2,528.7,446.3,529.7z M546.5,568c-13.5,15.1-31.3,8.7-48.4-5.9c-2.9-2.6-5.9-5.6-8.5-8.6
			c2.3,0.6,4.6,1.5,7.1,1.8c0.6,0.5,0.9,0.9,1.5,1.3c0.3,0.3,0.6,0.6,0.9,0.8c10.4,8,31.1,18.9,44.9,6c2.1-2.4,3.5-5.2,4.3-8.5
			c1.8-9.4-1.7-18.4-7-25.7c-0.2-0.4-0.6-0.8-0.8-1.1c0.1-1-0.2-1.7-0.1-2.8c10.7,14.8,14.9,32.4,6.9,41.5
			C547.3,567.2,547,567.5,546.5,568z M535.3,542.2c0.2,0.1,0.2-0.1,0.5-0.1c1.8,3.9,2.6,7.8,1.7,10.6c-0.4,1.9-1,3-1.6,3.6
			c-1.6,2.2-6.4,3-12.9,1.4c-2.7-0.5-5.5-1.7-8.1-3.1c6.9-1.7,13.3-4.7,17.7-9l0.1-0.1C533.7,544.2,534.6,543.2,535.3,542.2z"/>
	</g>
</g>
</svg>
