<svg version="1.2" baseProfile="tiny" xmlns="http://www.w3.org/2000/svg" viewBox="0 0 131.2 192.9"><path fill="#E5D5CA" d="M36.4 177.5c-.1 0-.2 0-.3-.1-.4.7-1.3 1.3-2.6 1.6-.6.2-1.2.3-1.8.4v.1c0 .1-.1.2-.2.3.7-.2 1.5-.4 2.3-.6 4.1-1.1 7.6-1.3 11.8-1.4-2.4-.3-4.8-.6-7.1-.6-.7.2-1.4.2-2.1.3zm42.2.5c1.7-.1 3.3-.4 5-.5-1.7-.1-3.4-.2-5.1-.2.1.2.1.4.1.7zm14-142.4c1.6 0 3.2.1 4.5.3h.1c-.5-.3-.9-.6-1.2-1-.2-.3-.4-.6-.5-1-1.1-1-2.1-1.9-3.5-2.6-.1-.1-.2-.2-.2-.3v-.1c-.2 0-.5-.1-.7-.1-.1.2-.1.5-.1.9 0 1.4.5 2.7 1.3 3.9h.3zM32.3 178c0 .1.1.1 0 0 .1.1.1.1 0 0 .1.1.1.1 0 0zm-13.6-17.4c0-2-.6-4-1.2-6-.6-2.2-1.1-4-1.1-6.1 0-.8.1-1.5.2-2.4.8-4.9 2.7-9.8 5.5-14 1.5-2.3 3-4.4 4-6.8.9-2.2 1.9-4.2 2.8-6.3 1.8-4.4 4.5-8.3 6.1-12.6 1.5-4 5-7.1 6.7-10.9.5-1.2 1.1-2.3 1.7-3.4-1.8 1.9-3.8 3.7-5.4 5.8-3.6 4.5-6.3 9.3-8.5 14.5-2.6 6-6.2 11.7-8.4 17.8-2.4 6.6-8.7 14.4-6 21.8 1.3 3.5 2.5 5.8 2.1 9.6-.3 3.6-2.2 6.5-3.3 9.9v.1c1.8-3.2 4.2-6.2 4.8-9.6v-1.4zm12.2 18.2c0-.4-.1-.8-.3-1.2-.1.5-.5.8-.7 1.1l-.3.3c.4 0 .9-.1 1.3-.2zm76.2-149.1c.2.5.3 1 .6 1.5.2.3.3.7.5 1-.2-.6-.4-1.2-.7-1.9-.1-.1-.2-.3-.4-.6zm-10.3-7.5c-.3.2-.5.4-.8.6-1.6 1.3-2.8 2.6-3.6 4.2.2-.1.5-.1.7-.1.3 0 .7.1 1 .3.2.1.2.4.1.5-.1.2-.4.2-.5.1-.2-.1-.4-.1-.6-.1-.3 0-.7.1-1.2.3-.2.6-.5 1.2-.6 1.8h.2c.1 0 .2 0 .3.1.2 0 .5.1.7.1 2.5 0 5.2-2 8.1-2 .5 0 1 .1 1.5.2 2.3.7 3.3 3.3 3.3 5.6 0 .4 0 .9-.1 1.3.8-.7 1.6-1.5 2.3-2.2-.2-.4-.4-.9-.7-1.3-.7-1.4-.8-2.7-1.5-3.8-1.2-.7-2.2-1.6-3.6-2.5-1.5-1.1-3.2-2.1-5-3.1zm.2 14.4c-1.1-.1-2.6-.2-4.1-.2.5.5 1 1 1.5 1.4.9.1 1.7.3 2.5.4.8.1 1.6.2 2.4.4.5-.1.9-.3 1.4-.5-1.1-.7-2.3-1.3-3.7-1.5zm-41.1 40c.2-.1.4-.1.6-.2-.1-.1-.3-.2-.4-.4v.1c0 .2-.1.4-.2.5zm52.7-41.2c-1.5 1.4-2.9 2.3-5 3.5.4.3.9.5 1.3.7.2.1.3.3.2.5 1.5.2 3 .6 4.3 1.4.1-.2.1-.4.2-.5 0-.1.1-.3.1-.4-.4-1-.7-2-.8-3-.2-.8-.3-1.5-.3-2.2zM29.2 177.1c-.2.1-.3.1-.5.2.1.2.1.4.1.5v-.1c.2-.2.3-.4.4-.6zm1.7 2.5c-.7.1-1.3.3-2 .4-.1.2-.2.3-.4.3-.1 0-.2-.1-.3-.2-1.6.2-3.3.3-4.9.3h-1.7c-.9 0-1.7-.2-2.5-.4 1.2.3 2.5.5 3.8.7 3 .3 5.6-.1 8.4-.7-.2-.1-.3-.2-.4-.4zm71.1-2.2v-.2c0-.1-.1-.3-.1-.4-.1-.1-.2-.1-.3-.2v.4c.1.1.2.3.4.4zm8.2-135.3c0-.1-.1-.1-.1-.2v.1l.1.1zm2.5 133.7c0-.2-.1-.3-.4-.5-.2-.1-.5-.2-.7-.2.4.3.7.5 1.1.7zM58.9 40.1c.1-.4.2-.8.2-1.3-.1.5-.1.9-.2 1.3zm49 17.8c.3-.9.6-1.8.9-2.6-.3.3-.5.6-.8.9 0 .5 0 1.1-.1 1.7z"/><path fill="#E5D5CA" d="M104.4 169.8c.2.1.3.4.1.5-.1.1-.2.2-.3.2-.1 0-.1 0-.2-.1-1.5-.9-2.2-2.6-2.6-4.3-.5-.7-.9-1.5-1.1-2.4-.4-2.2.4-5.1 1-7.7v-1.1c0-.7 0-1.5-.1-2.2-.4-2.9-.8-5.8-.8-8.8 0-1.1.1-2.3.2-3.4.6-4.6 1.1-9.3 1.6-14 .2-2 .5-4.5 1.2-6.4.8-2 2.2-3.9 2.6-5.9-.1-.1-.1-.2 0-.3 0-.1.1-.2.2-.4v-.5c0-.2.2-.4.4-.4.6-1 1.5-1.9 1.9-2.9.3-.7.5-1.4.8-2-2.8 2.9-5.7 5.7-8.8 8.5-1.9 1.7-4.2 4.2-6.7 6.4s-5.2 4-8 4c-.7 0-1.3-.1-2-.3-1.4-.5-2.8-1.4-4.2-2.4-1.6 3.3-1.9 8.2-2 11.5v2.6c0 1.6 0 3.2-.3 4.9-.4 2.1-.9 3.8-.9 5.8 0 .4 0 .8.1 1.3.2 2 1 4 1.4 6.1 2.6-1.8 4.5-4.2 5.8-7.2 1.4-3.3 3.1-6.3 5.2-9.4 2.7-4 5.7-7.7 7.8-11.9 1.2-2.4 2.3-5 3.6-7.5.4-.7.8-1.8 1.3-2.9.5-1.1 1-2.1 1.5-2.7.2-.2.4-.2.6 0 .2.1.2.4 0 .6-.4.4-.9 1.4-1.4 2.5-.5 1.1-.9 2.2-1.3 3l-3.6 7.5c-2.2 4.4-5.2 8.1-7.9 12-.9 1.3-1.6 2.5-2.4 3.8.1 0 .1.1.2.2 1 1.9 1.8 5.5 2.5 7.8.9 3 1.4 5.7 1.4 8.9s.4 5.6 1.4 8.5c.1 0 .2.1.2.2.1.1.1.2.1.2v.1s0 .1-.1.1c.8 2.2 2.8 5.1 2.9 7.7h.6c.2 0 .4.2.4.4v.1c1.1 0 2.3.1 3.4.1.2 0 .4-.1.6-.1-.1-.3-.3-.5-.4-.8-.1-.2 0-.4.2-.5.1-.1.2 0 .3 0 0-.1.1-.2.1-.3.1-.2.4-.3.6-.3h.1c-.2-.6-.4-1.2-.8-1.6-.1-.2-.1-.4.1-.6.2-.1.4-.1.6.1.6.7.9 1.7 1.1 2.6l.2.2c.3.3.4.6.5 1 1.3.1 3.2.4 4.8.4h.4v-.3c-.1-.4-.2-.6-.7-.7-.2 0-.4-.2-.4-.4s.2-.4.4-.4c.3 0 .5.1.7.2.1 0 .2-.1.3 0 .6.1 1.2.6 1.5 1.1.5-.5.6-.9.6-1.2 0-.1 0-.3-.1-.4-.2-.1-.3-.1-.5-.2-.1.1-.2.2-.3.2h-.2c-1.3-.6-3.3-.4-4.6-2.1-.1-.2-.1-.4.1-.6.2-.1.4-.1.6.1.8 1.1 2.1 1.2 3.5 1.6h.7l.1-.1c-.2-.2-.4-.4-.6-.5-.8-.6-1.8-1.2-2.4-1.4-2.1-.8-4.1-.9-6.4-.9h-1.9c-.2 0-.4-.2-.4-.4s.2-.4.4-.4h1.9c2.3 0 4.4.1 6.7 1 .7.3 1.7.8 2.6 1.5.4.3.7.6 1 1h.3c.3 0 .6 0 .9.1-1.8-1.4-3.5-3.1-5.6-4.2-1.3-.7-2.8-1.6-4-2.7.3.3.8 1.1 1.7 1.6zm9 5.5c.1.2.1.3.1.5 0 .3-.1.5-.2.8 0 .1-.1.2-.2.2h-.3c-.4-.2-.7-.4-1-.6 0 .5-.2.9-.5 1.4 1-.2 2-.6 3-1v-.7c-.4-.3-.6-.4-.9-.6z"/><path fill="#E5D5CA" d="M109.3 177.3c0 .2 0 .3.1.4.1 0 .2 0 .2-.1l-.3-.3zM77 175.6c-.4-.8-.9-1.6-.9-2.6 0-.4.1-.8.3-1.1.1-.2.3-.3.5-.2.2.1.3.3.2.5-.1.3-.2.5-.2.8 0 .2 0 .4.1.6.1-.1.2-.2.3-.2.2-.1.4-.1.6-.2.1-.1.2-.1.3-.2l.3-.3c.1-.1.1-.2.2-.3.2-.5.2-1 .2-1.6 0-2.5-1.4-5.6-1.6-7.9-.1-.7-.1-1.5-.1-2.2v-1.4c0-.8 0-1.6-.1-2.3-.3-2.3-1.3-4.7-1.6-7.1-.1-.5-.1-.9-.1-1.4 0-2.1.6-3.9.9-5.9.3-1.5.3-3.1.3-4.7v-2.7c.1-3.4.4-8.4 2.2-11.9-1.1-.9-2.1-1.7-3-2.5-2.9-2.4-6.4-3.9-9.4-6.2-5.3-4.1-10.8-9.7-13.5-16-1.2-2.8-2.8-8.3-3-13v-.2c-.1-.3-.1-.7 0-1.1-.5.6-1 1.1-1.4 1.6-2.5 3.2-4.4 6.4-6 10-1.8 4-5.3 7-6.7 10.8-1.6 4.5-4.4 8.3-6.1 12.6-.9 2.2-1.9 4.2-2.8 6.3-1 2.5-2.5 4.7-4.1 7-2.7 4.1-4.6 8.9-5.4 13.7-.1.8-.2 1.5-.2 2.3 0 2 .4 3.7 1.1 5.9.6 1.9 1.2 4 1.2 6.2 0 .6 0 1.1-.1 1.7-.8 4.6-4.6 8.2-6 12.3 0 .9.3 1.7.7 2.3 2.4 1.4 4.7 2.5 7.6 2.7h1.7c1.6 0 3.2-.1 4.8-.3v-.5l-.1-.1v-.1c0-.4 0-.7-.1-1-.3.1-.5.1-.8.1-.2 0-.5 0-.7-.1-1-.4-1.2-1.4-1.2-2.3v-.1c-.2.2-.4.3-.5.5-.4.3-.7.7-.8.8 0 .2-.1.4-.3.4h-.1l-.3.6c-.3.5-.5 1.1-.5 1.4 0 .1-.1.3-.2.3h-.2c-.1 0-.2 0-.2-.1-.8-.6-1.3-1.6-1.5-2.6-.4-.6-.6-1.3-.6-2 0-1.4.7-2.9 2-3.6.1-.1.3-.1.4 0 .1.1.2.2.2.4s-.1.3-.1.5c-.1.2-.3.3-.5.3-.1 0-.1-.1-.2-.1-.6.6-1 1.5-1 2.4v.3c.1-.1.3-.2.5-.1.1 0 .1.1.1.1.4-.1.7-.1.9-.1.4 0 .8.1 1 .2.1.1.2.2.3.4l.3-.3c.4-.4.9-.8 1-1 .2-.3.3-.6.4-.9.1-.5.2-1 .2-1.2 0-.1.1-.2.1-.3 0-.1 0-.3.1-.4 0-.2.2-.3.3-.3.2 0 .3.1.4.2 0 .1.1.2.1.3 0 .1 0 .2-.1.3.2.1.2.3.2.4 0 .2-.2.3-.4.3-.1.3-.1.6-.2.9-.1.6-.2 1.2-.2 1.8 0 .9.2 1.4.7 1.6.1 0 .2.1.4.1s.4 0 .6-.1c0-.1.1-.2.2-.2.1-.1.3-.1.5 0 .5-.2 1.1-.4 1.6-.4 0-.1.1-.2.2-.3.1-.1.2-.1.3-.1.3-.9.3-2 .3-2.9v-.4c0-.1 0-.2.1-.3 0 0 .1 0 .1-.1h.2c.1 0 .2.1.2.1.1.1.1.2.1.3v.5c0 1 0 2.4-.5 3.5 0 0 0 .1.1.1.5.1 1 .4 1.4.6h.4c.4 0 .8-.1 1-.2.2-.2.3-.3.4-.7 0-.1-.1-.1-.1-.2v-.4c0-.2.2-.4.3-.4.2 0 .4.1.4.3.1.2.1.4.1.6 0 .6-.3 1.1-.7 1.4-.3.2-.5.3-.8.3v.3c1.8-.5 2.3-1.3 2.3-2.1 0-1.1-1.1-2.5-2.7-3.6-2.1-1.5-6.1-3.6-8.7-3.6h-.1c-.2 0-.4-.2-.4-.4s.2-.4.4-.4h.2c1.5 0 3.2.6 4.9 1.3.1-.1.1-.1.2-.1 3-.8 7-2.5 10.3-4.9 3.3-2.4 5.9-5.5 6.1-8.9v-1.3c0-1.6-.2-3.3-.9-4.5-1.2-2.1-2.9-5.6-4.7-7.1-2-1.7-5.2-1.9-7.8-1.9h-1.4c-.2 0-.4-.2-.4-.4s.2-.4.4-.4h1.4c2.6 0 6.1.1 8.4 2.1 1.9 1.7 3.6 5.1 4.8 7.3.8 1.4 1 3.2 1 4.9v1.4c-.3 3.8-3 7-6.4 9.5-3.1 2.3-6.8 3.9-9.7 4.8v.2c1.2.6 2.2 1.3 3 1.8 1.6 1.2 3 2.7 3 4.2 0 .2 0 .4-.1.5.7-.1 1.5-.1 2.3-.1 3.4 0 7.2.6 10.5.9 1.3.1 3.8.6 5.9.6 1.1 0 2.1-.1 2.6-.4v-.1c0-.2.1-.4.3-.4.2 0 .4.1.4.3v.1c.1.1.1.2.1.4 0 .1.1.3.2.4 1.7.1 3.5.2 5.2.2-.1-.3-.1-.7-.1-1 0-2 1.4-4.1 2.6-5.2.1-.1.3-.1.4-.1l.3.3v.1c0 .2-.1.3-.1.4v.1c-.1.2-.2.3-.4.3-1 1.1-1.9 2.8-1.9 4.2 0 .2 0 .4.1.6 0-.3.1-.5.2-.7.1-.2.3-.3.5-.2.1.1.2.2.2.3h.2c.3 0 .6.1.9.2l.6.2h.1c.3-1.5.8-3.2.8-4.3 0-.2.2-.4.4-.4.1 0 .2.1.2.1.1.1.1.1.1.2v.7c0 .1 0 .2-.1.3-.2 1.4-.8 2.9-.8 4.2.5 0 .9 0 1.4.1h.6c0-.2 0-.4.1-.6.1-.2.3-.3.5-.2.2.1.3.2.3.4h.3c.3 0 .6.1.7.3v.1c.5-1.4.7-2.7.8-4.3-.1-.1-.2-.3-.1-.5 0-.1 0-.1.1-.2 0-.1.1-.2.4-.2.3.1.3.2.4.2 0 0 0 .1.1.1v.2c0 1.8-.2 3.3-.7 4.8.3 0 .6 0 .9-.1 0-.3.1-.6.2-.8.1-.2.3-.3.5-.2.1.1.2.2.2.4.3 0 .6.2.9.4.7-.1 1.5-.2 2.2-.3v-.2c-.2-.9-.6-1.7-1-2.5zm-12.3-7.8c-.3 1.7-.6 3.2-1.6 4.9-.5.9-1.4 1.7-2.2 2.5-.8.8-1.3 1.6-1.4 2.5 0 .2-.2.4-.4.4s-.4-.2-.4-.4c.1-1.2.8-2.1 1.6-3 .8-.8 1.6-1.6 2.1-2.3.9-1.5 1.1-2.9 1.5-4.6.3-1.4.4-2.8.4-4.2 0-3-.5-6-.9-9-.6-4.5-1.9-8.8-1.9-13.5v-2.3c0-3.5-.7-6.1-1.6-9.7-.4-1.7-1.1-4.3-1.1-6.7 0-1.4.2-2.6.9-3.7.1-.2.4-.2.5-.1.2.1.2.4.1.5-.5.8-.8 1.9-.8 3.2 0 2.2.7 4.8 1.1 6.5.8 3.6 1.6 6.3 1.6 9.9v2.4c0 4.5 1.2 8.9 1.9 13.4.4 3 .9 6 .9 9.1.1 1.3 0 2.7-.3 4.2z"/><path fill="#E5D5CA" d="M65.7 178.2c0 .1.1.2.2.3 0-.1.1-.2.1-.3h-.3zm-42.8-2.6c0 .4-.1.8-.3 1.2.2-.4.4-.8.4-1 0-.1 0-.1-.1-.2.1.1.1 0 0 0zM63 59.4c0 .2-.1.4-.2.7-.2.9-.7 1.7-1.2 2.5.1 0 .2 0 .3-.1.3-.1.6-.1.9-.2-.1.5-.2 1.1-.2 1.6 0 1.3.4 2.7 1.2 4.1 1.5 2.5 3.9 4.7 5.5 7.5 1.3 2.3 2 4.9 3.7 6.8 2.1 2.5 7.5 6.5 11.9 7.8 3.3.2 5.9-.4 8.1-3.1 2.4-3 4.4-6.2 6.5-9.5 1-1.6 1.8-3.3 2.5-5.1 1.1-2.4 2.8-4.6 3.2-7.3.2-1 .1-1.8 0-2.6l-.1.1c-1.4.7-2.3.6-3.3 1.7-.7.7-1.3 2.3-2.7 2.9-.3.1-.7.2-1 .2-1.1 0-2.2-.5-2.9-.5h-.5c-.6 0-.9.1-1.1.3-.2.2-.3.4-.4.8-.1.7 0 1.6-.4 2.5-.3.6-.9 1-1.8 1.1h-.2c-1.4 0-3-1.2-3.9-1.6-1-.5-5.4-2.9-6.6-4-.2-.2-.3-.3-.4-.6 0-.1.1-.3.2-.4.2-.1.4-.1.6 0 .1.1.1.2.1.3l.1.1c.1.1.3.3.6.5.5.4 1.3.8 2 1.3 1.5.9 3.2 1.8 3.8 2.1 1 .5 2.6 1.6 3.6 1.5h.1c.5-.1.8-.2 1-.4.2-.2.3-.5.3-.8.1-.7 0-1.7.4-2.5.3-.5 1-.9 1.9-.9h.6c.9.1 2 .5 2.8.5.3 0 .5 0 .7-.1.9-.4 1.5-1.8 2.4-2.7 1.2-1.2 2.3-1.2 3.5-1.8.1 0 .2-.1.3-.2l-.3-.9c.5-.5 1.1-.9 1.8-1.3.1-.1.3-.2.4-.2.1-.8.1-1.5.2-2.3-.4.3-.7.6-1.1.9-2.3 1.7-5.7 3.7-9.2 5-.8.4-1.7.7-2.6.9-1.9.6-3.8.9-5.4.8-2.5-.1-4.3.3-5.2-2.2-.5-1.6-.1-3 .6-4.3.1-.9.4-1.7.7-2.5-.6.6-1.3 1.2-2 1.8-3.1 2.5-5.7 4.6-9.8 4.6h-.5c-1.6-.1-3-.6-4.3-1.4-.3 0-.7-.1-1-.1-1.3-.3-2.8-.7-4.2-1.3zM22.1 177.9v.2c0-.1.1-.3.2-.4h-.1s-.1 0-.1.2zM75.2 86l.2-.2c-1-.8-1.8-1.6-2.5-2.3.7.9 1.5 1.7 2.3 2.5zM92 169.7h-1.3c-1.4 0-2.9-.1-4-.6-2.4 1.9-5.7 2.5-7.5 4.1-.6.8-1.6.8-1.6 1 0 .1-.1.2-.2.2.1.3.3.5.4.8l.6 1.2c5.5.2 11.2.7 16.7.8-.2-2.2-2.2-5.2-3.1-7.5zM70.7 80.4c-.8-1.5-1.4-3.1-2.1-4.4-1-1.7-2.3-3.2-3.5-4.7 1.5 2.1 3.2 4 4.1 6 .3 1 .9 2 1.5 3.1zm39.9 26c-.6 1.2-.9 2.3-1.4 3.6-.6 1.4-1.8 2.5-2.3 3.7-.3 2.5-1.9 4.6-2.7 6.7-.7 1.8-1 4.3-1.2 6.2-.4 4.8-.9 9.4-1.6 14.1-.2 1.1-.2 2.2-.2 3.3 0 2.5.3 5 .7 7.5.1-3.3-.1-6.6.4-9.9.7-4.9 2.2-9.6 2.9-14.5.6-4.2.6-7.5 2.2-11.5 1.4-3.2 3.5-6.8 4.7-10.5-.5.4-.9.7-1.4 1.1 0 0-.1.1-.1.2zM75.3 39.9c1.8-.7 3.6-1 5.9-1.6 1.9-.6 3-1.4 3.9-2.5-.4-.2-.8-.3-1.3-.3-2.5-.1-6.3 2.5-8.5 4.4zm4.3 1.1c-.1.2-.3.3-.4.5-.7.7-1.4 1.5-2 2.2-.9 1.1-1.5 2.6-1.5 4.1 0 .3 0 .6.1.9.3 1.9 2.9 3.8 5 3.7.9 0 1.7-.3 2.3-1 .1-.1.3-.2.5-.1 0-.4 0-.9-.1-1.4-.8.9-1.7 1.3-2.7 1.3-1.4 0-2.7-.8-3.6-1.9-.6-.7-.9-1.5-.9-2.4 0-1.7 1.1-3.5 3.2-3.6.2 0 .3.1.4.3 1.3 0 2.6.5 3.6 1.4.1-.9.1-1.7.3-2.5 0 .1-.1.1-.2.1h-.2c-.2 0-.3-.1-.5-.2-.1-.1-.3-.2-.4-.3-.3-.3-.6-.6-.9-1 0-.1-.1-.1-.1-.2h-.7c-.3 0-.8 0-1.2.1zm10.9-2.9c-1.9 1.5-2.5 2.5-2.7 3.5.1-.2.2-.4.3-.7.5-1 1.3-1.9 2.4-2.4.1-.1.2-.1.3-.1h.2c-.2-.1-.3-.2-.5-.3zm12.3 1.3c0 .1.1.1.2.2 0-.1-.1-.2-.2-.2zm-19.3 2.4c.2 0 .3.1.4.3 0-.1.1-.3.1-.4-.4-.2-.8-.4-1.2-.5.3.3.6.6.7.6z"/><path fill="#E5D5CA" d="M78.9 46.2c-.9.1-1.1.4-1.2.7 0 .2.2.5.3.8.1.1.3.2.6.3v-.1c-.1-.2-.2-.4-.2-.6 0-.2.1-.5.2-.7.2-.2.4-.4.7-.3h.2c-.1-.1-.3-.1-.6-.1.1 0 .1 0 0 0zm.5.8c-.1 0-.1 0-.1.1l.1-.1c0 .1 0 .1.1.1h.1c-.1-.1-.2-.1-.2-.1z"/><path fill="#E5D5CA" d="M77.3 48c.1.3.3.5.4.7.9 1 2 1.7 3.1 1.6.7 0 1.4-.3 2.1-1 .2-.3.4-.5.5-.7v-2.4c-.2-.3-.5-.7-.9-.9-.8-.6-1.8-.9-2.6-.9-.6 0-1.2.2-1.6.5-.2.2-.4.4-.5.7.3-.1.6-.2 1-.2h.1c1.3 0 2.7 1 2.7 2.3 0 .5-.3 1.1-.8 1.5-.3.3-.7.4-1.1.4-.7 0-1.4-.4-1.9-.9l-.4-.4c0-.2 0-.3-.1-.3zM68 43v2.1c.2-.2.4-.3.6-.5 0-4.3.7-8.5.8-12.8-.3.9-.7 1.8-.9 2.8-.6 2.8-.5 5.6-.5 8.4zm24.5-3.9c-.1-.1-.2-.1-.4-.2-.4.1-.8.2-1.2.2-.1 0-.2 0-.2.1v.8c.5-.4 1.1-.7 1.8-.9z"/><path fill="#E5D5CA" d="M69.1 29.9l1.1-1.1c-.1.6-.2 1.2-.4 1.8.2 0 .4.2.4.4 0 4.3-.7 8.6-.8 12.8.4-.4.9-.8 1.3-1.2.9-.8 1.8-1.5 2.7-1.9 0-.1 0-.2.1-.2 1.5-1.5 6.6-5.8 10.3-5.9.6 0 1.2.1 1.7.4 0-.1.1-.1.1-.2.9-1.5 1.4-3.4 2.2-5.4 1.4-3.2 3.8-6 6.6-8.5l-1.5-.9c-.6-.4-1.2-.7-1.7-.9-.5 0-.9.1-1.3.1-2.9.1-5.2-.7-8-.8v.3c-2.2 1.2-4.2 2.6-6.1 4.2-.2.1-.3.3-.5.4-2.5 2-5 4.1-7.8 5.6-.9.5-1.7.9-2.4 1.3-.6.5-1.1 1.1-1.6 1.6.8-.3 1.6-.4 2.4-.7.6-.2 4.6-1.4 3.2-1.2zm18.2 138.7c.8.3 2.2.4 3.4.4h1.1c-.6-1.8-1-3.5-1.2-5.3-.8 1.8-1.9 3.5-3.3 4.9zm-.7-114.9s0 .1-.1.1c-.2.5-.4 1.1-.7 1.7.1-.1.1-.3.2-.4.3-.5.4-.9.6-1.4zm-9.9 33.1c.3.3.5.6.8 1 1.1.8 2.4 1.4 3.7 1.8-1.6-.8-3.1-1.8-4.5-2.8zm1.3 72.5v1.4c0 .7 0 1.4.1 2.1.2 2.1 1.6 5.3 1.6 8 0 .4 0 .7-.1 1.1 2.3-1.4 5.3-2 7.1-3.8 1.8-1.7 3.1-4.1 3.6-6.5v-1.1c0-3.1-.5-5.8-1.4-8.7-.7-2.3-1.5-5.7-2.4-7.5-.9 1.5-1.6 3.1-2.3 4.7-1.2 2.9-3 5.3-5.4 7.1 0 .1.1.1.1.2 0 .2-.2.4-.4.4h-.6v.2c.1.8.1 1.6.1 2.4zm1.4-110.6c.1.1.3.1.4.1.2 0 .4-.1.6-.2.4-.3.5-.6.5-.9 0-.3-.2-.7-.5-.9.1.2.2.3.2.5-.1.6-.6 1.2-1.2 1.4zM50.9 87.8c.1 1.1.3 2.2.6 3.2-.1-.7-.1-1.3-.2-2.1-.1-.3-.3-.7-.4-1.1zm35.4 37.7c-1.6 0-4.2-1.5-5.6-2.4-.2-.1-.4-.3-.6-.4-.1.1-.1.2-.2.3 1.4 1 2.8 2 4 2.4.6.2 1.2.3 1.8.3 2.4 0 5-1.6 7.4-3.7-.1.1-.3.2-.4.3-1.7 1.1-4.3 3.2-6.4 3.2zm15.8-89.8c.7-.5.9-1 .9-1.6 0-1.2-1.1-2.6-2.2-3-.2-.1-.5-.1-.8-.1h-.3c.3.1.6.2.9.4.8.6 1.2 1.2 1.2 1.9 0 1.3-1.3 2.1-2.7 2.1-.2 0-.4 0-.7-.1l.1.1c.2.1.3.2.5.3.5.2 1.1.3 1.6.2.6.1 1.1 0 1.5-.2zm-3.7-3.1c.2-.1.3-.2.4-.4-.3 0-.5.1-.6.2-.1 0 0 .1.2.2-.1 0 0 0 0 0z"/><path fill="#E5D5CA" d="M97.1 32.9c0 .2.1.5.3.8.5.7 1.1.9 1.7.9.5 0 1-.2 1.3-.4.3-.3.5-.6.5-.9 0-.3-.2-.8-.8-1.2-.1-.1-.3-.2-.6-.3v.3c0 .4-.2.8-.5 1-.3.2-.6.3-.9.3-.3 0-.6-.1-.8-.3-.1 0-.2-.1-.2-.2zm-.8 0c0-.9.6-1.5 1.3-2 .1 0 .1-.1.2-.1-.9.3-1.6 1.2-1.5 2.1-.1.3 0 .4 0 .6l.1.1c-.1-.3-.1-.5-.1-.7zm-9.9 14.4c0-2.5-.7-4.2-1.7-5.2-.2 1.2-.4 2.5-.4 3.8.2.4.3.9.4 1.4 0 .5-.1.9-.4 1.4 0 1.8.2 3.4.2 4.8 1.1-1.5 1.8-3.2 2-5.3-.1-.3-.1-.6-.1-.9z"/><path fill="#E5D5CA" d="M104.7 33.9c0-2.1-1-4.4-2.7-4.9-.4-.1-.9-.2-1.3-.2-2.5 0-5 1.8-7.8 2 1 .5 1.8 1.2 2.5 1.9.1-1.5 1.4-2.8 2.9-2.8.4 0 .8.1 1.2.3 0 0 .1 0 .1.1h.3c.4 0 .7.1 1.1.2 1.4.5 2.7 2.1 2.7 3.7 0 .8-.4 1.7-1.3 2.2-.5.4-1.2.5-1.9.5h-.1s-.1.1-.2.1c.4.2.9.5 1.3.8.9-.5 1.8-1.1 2.7-1.7.4-.7.5-1.5.5-2.2zm-36 12.8l-.5.5c.1.8.4 1.6.8 2.5-.2-1-.3-2-.3-3zM92 31zm-32.3 75.9c-2.7-3.1-4.4-7.6-6.3-11-.5-.9-1.1-1.8-1.5-2.7.5 2.1 1.2 3.9 1.7 5.2 2.6 6.1 8 11.7 13.3 15.7 2.9 2.3 6.4 3.8 9.5 6.2.9.7 1.9 1.6 2.9 2.4.1-.1.1-.2.2-.3-2.7-2-5-4.8-7.9-6.4-4.2-2.5-8.7-5.3-11.9-9.1zm27-58.6zm-2.8 5.9c-.2 0-.3-.2-.3-.4v-1.9c-.8.8-1.8 1.2-2.8 1.2-2.5 0-5.3-2-5.8-4.4-.1-.3-.1-.7-.1-1 0-1.7.7-3.3 1.7-4.6.5-.7 1.1-1.3 1.7-1.9-2.6.6-5.4 2.1-7.7 3.9-.4.3-.8.6-1.1.9v.2c.1 1.9.3 4.1 1 5.8 1.2 1.8 2.5 3.5 2.5 5.8 0 1-.2 1.6-.5 2.1.4.1.9.1 1.4.1 1.2 0 2.5-.3 4-1.2 2.2-1.2 4.4-2.7 6-4.6z"/><path fill="#9C867A" d="M60.9 58.3c.2.1.3.2.5.3 0-.2.1-.4.1-.6l-.6.3zm-4.7-6c-1.3-1.1-2-2.4-2-3.8 0-1.1.4-2.3 1.1-3.4.9-1.4 2.4-2.4 3.3-3.6.7-.9 1.1-2.4 1.2-3.6v-.5c0-.5-.1-1.2-.1-1.8 0-.4 0-.7.1-1.1.1-.2.1-.3.2-.4-.4.5-.7 1-.8 1.6-.3 1.5-.2 2.4-.2 3.2 0 .4 0 .8-.2 1.3-.2.6-.6 1.3-1.5 2.3-2.1 2.3-4.1 4.5-3.5 7.7.4 2 1.6 3.8 3.2 5.4l1.7-1.7c-.8-.5-1.7-.9-2.5-1.6z"/><path fill="#9C867A" d="M68 45.1V43c0-2.9-.2-5.7.5-8.4.2-.9.6-1.9.9-2.8V31c0-.2.2-.4.4-.4.2-.6.3-1.2.4-1.8l-1.1 1.1c1.3-.3-2.7 1-3.3 1.2-.8.3-1.6.4-2.4.7l-.9.9c-.7.7-1.6 1.2-1.8 2-.1.2-.1.5-.1.8 0 .6.1 1.2.1 1.8v.6c-.2 1.3-.5 2.8-1.4 4-1 1.4-2.5 2.3-3.2 3.5-.7 1.1-1 2.1-1 3 0 1.1.5 2.2 1.7 3.2.8.6 1.7 1.1 2.7 1.6 2.7-2.7 5.6-5.4 8.5-8.1zm3.6 12.5c0-.2 0-.4-.1-.7-.2-1.4-1.2-3-1.8-4.4-.4-.9-.6-1.8-.8-2.8-.4-.9-.7-1.7-.8-2.5-1.9 2-3.1 4.1-3.1 6 0 1.1.4 2 1.3 2.9l.4.3-.5.1c1.4 1 2.7 2 4 2.6.3 0 .6-.2.8-.3.4-.2.6-.6.6-1.2zm-4.4 3c.4 0 .7.1 1 .1-1.2-.7-2.3-1.5-3.4-2.3-.2-.1-.5-.3-.7-.4l-.9-.6c-.1-.1-.2-.1-.4-.2-.1.1-.3.2-.4.3-.1.5-.3 1-.4 1.5.3.1.5.2.8.4 1.6.6 3.1 1 4.4 1.2z"/><path fill="#9C867A" d="M70.4 52.1v.1c.6 1.3 1.6 3 1.9 4.6 0 .3.1.5.1.8 0 .8-.3 1.5-.7 1.9-.1.1-.2.1-.3.2.3.1.7.2 1.1.3.3-.5.5-1.1.5-2.1-.1-2.3-1.3-4-2.6-5.8zm38.8-31c0 .2.1.3.2.5-.1-.2-.1-.3-.2-.5zm-16.7-5.4c-1.5.1-3 .2-4.5.4 2.5.5 4.8 1.5 7.1 2.4.6.2 1.1.5 1.5.7 1.6-1.3 3.3-2.6 5-3.8-1.3-.1-2.7-.1-4-.2-1.6.1-3.3.4-5.1.5zm-8.6 1.7l-1.4 1.1c3.7-.6 5.9-.6 8.8.7.5.3 1.1.6 1.7.9l1.5.9c.5-.4.9-.8 1.4-1.2-.3-.2-.7-.4-1.1-.5-3.2-1.2-6.2-2.6-9.4-2.6h-.1c0 .2-.1.3-.3.3-.2 0-.3 0-.4-.1h-.1c-.3.1-.5.3-.6.5zm22.8 11.1zm-8.1-7.9c.4.3.8.6 1.3.8 1.8 1 3.4 2.1 4.9 3.6.7.7 1.5 1.8 2.4 2.8.5.6 1.1 1.1 1.6 1.4.4.1.9.2 1.4.2.2-.7.3-1.5.3-2.4 0-1.1-.2-2.4-.5-3.6l-.7-.7c-.6-.6-.8-1.2-.9-1.8-.1-.6-.1-1-.3-1.7v-.1c-.9-1.3-2.1-2.1-3.4-2.1-.3 0-.6 0-1 .1-1.9.6-3.5 2-5.1 3.5zm14.8 6.9c0 .5-.1 1.1-.2 1.6 1.4-.4 2.4-1.4 2.4-3.3 0-2.7-2.6-3.2-4.3-4.7 0 0 0 .1.1.1 1 2.2 2 4.2 2 6.3z"/><path fill="#9C867A" d="M101.9 25.3c1.3.9 2.4 1.8 3.6 2.5-.2-.3-.4-.6-.7-.8-.1-.1-.2-.3-.1-.5.1-.1.2-.2.3-.2-.2-.3-.5-.5-.6-.7-1.4-1.4-2.9-2.5-4.7-3.5-.6-.3-1-.6-1.5-1-.4.4-.8.8-1.2 1.1 1.6 1 3.3 2 4.9 3.1zm5 30c.6-1 1-2.2 1.7-3.4.9-1.4 2.4-3.6 2.3-5.2 0-.3-.1-.6-.2-.9-.1-.4-.6-.8-1-1.2h-.2c-1.4-.6-2.5-2.4-3.5-3-1.2-.7-2.9-1.2-4.3-1.6-1 .4-2.1.6-3.2.6-.4 0-.9 0-1.3-.1v.5c0 .4 0 .8-.2 1.2-.1.4-.5.8-1 .8h-.3c-.5-.1-.7-.5-.9-.9-.2-.4-.2-.8-.2-1.2v-.3c.1-.2.3-.3.5-.3.1 0 .1 0 .1.1h.1c.1 0 .1 0 .2.1 0-.1.1-.2.2-.3-1.1-.2-2.2-.6-3.2-1.1-.7.2-1.3.5-1.8.9v-.8c-.8.3-1.5 1.1-1.9 2-.5.9-.7 2-.9 2.9.1.8.2 1.7.3 2.9v.6c0 2.5-.5 4.4-1.7 6.1-.1.5-.3.9-.5 1.4-.1.1-.1.3-.2.4-.4 1.1-.8 2.3-.8 3.5 0 .4.1.9.2 1.3.1.5.4.9.8 1.3 0-.1 0-.2.1-.3.2-.2.3-.2.5-.2h.5c.9 0 2.4.2 3.3.2h.5c1.2-.2 2.5-1.1 3-2.2.5-1 .5-2.4.5-3.7.1-1.4.2-2.8 1.3-3.9.8-.8 1.8-1.3 2.8-1.6-1-.7-1.6-2.4-2.3-3.3-.9-1.2-2.2-2.1-3.2-3.4-.1-.2-.1-.4.1-.5.2-.1.4-.1.5.1.8 1.2 2.1 2.1 3.1 3.4.8 1 1.5 2.8 2.3 3.2.1.1.2.2.2.4 1.2-.3 2.5-.3 3.8-.5 2.6-.3 4.7-.8 5.7-3.5v-.1c-.1-.1-.1-.3 0-.4 0-.1.1-.1.1-.1.1 0 .1-.1.3-.1.1 0 .3.1.4.2v.2c0 .3-.1.4-.2.6-1.1 3.2-3.8 3.8-6.4 4.1-2.6.3-5.3.3-6.8 2-.8.9-1 2.1-1 3.4-.1 1.3 0 2.8-.6 4-.6 1.4-2.2 2.4-3.6 2.7h-.7c-1 0-2.5-.2-3.3-.2h-.4c-.1.1-.2.1-.3.1.8.7 1.8 1.2 2.7 1.3.3-.1.7-.2 1.1-.2h.2c.1-.1.3-.1.4-.1 0 0 .1 0 .1.1.7.1 1.4.2 2 .2h.3c1.3-.1 2.6-.6 3.8-1.2 2.7-1.3 4.1-3.9 7.3-4.7 1.5-.6 2.2-1.3 2.8-2.3zm-18 1.4c-.1 0-.3.1-.4.1-.5 0-1-.4-1.1-.8-.2-.4-.2-.9-.2-1.4 0-.7.1-1.3.1-1.6 0-.2.2-.4.4-.4s.4.2.4.4c0 .4-.1 1-.1 1.6 0 .4 0 .9.1 1.1.1.3.2.3.4.3h.2c.2 0 .4.1.5.3 0 .1-.1.3-.3.4zm2.7-5.5c-.4.7-.8 1.7-.8 2.6 0 .4.1.7.2 1 .1.2 0 .4-.2.5h-.1c-.2 0-.3-.1-.4-.3-.1-.4-.2-.8-.2-1.3 0-1.1.4-2.2.9-3 .1-.2.4-.2.5-.1.2.2.2.5.1.6zm1.3-.7c.2 0 .4.1.4.4v.3c0 .8-.3 1.5-.3 2.1h.1c.2 0 .4.2.3.5 0 .2-.2.3-.4.3h-.4c-.2 0-.3-.2-.3-.3v-.4c0-.8.3-1.5.3-2.2V51c0-.3.1-.5.3-.5zm-.1-5.3c-.3.5-.9.6-1.4.7-.4 0-.9-.1-1.3-.3-.4-.2-.7-.6-.7-1.1 0-.2.1-.4.1-.6.2-.4.5-.6.9-.6.5 0 .9.3 1.3.6.2.2.4.3.5.5.2.1.3.3.4.4.3 0 .3.2.2.4zm8.8.6c-.1.1-.2.1-.3.1-.1 0-.2 0-.3-.1-.5-.6-1.3-1.1-2.1-1.2-.2 0-.4-.2-.4-.4s.2-.4.4-.4c1.1.1 2 .7 2.7 1.5.2.1.2.4 0 .5zm1.5-1.7c-.1.1-.2.1-.3.1-.1 0-.2 0-.3-.1-.6-.7-1.3-.9-2.3-.9h-.2c-.2 0-.4-.2-.4-.4s.2-.4.4-.4h.3c1.1 0 2.1.3 2.9 1.2.1.1.1.3-.1.5zm2.9.3c-.1.1-.2.2-.3.2-.1 0-.2 0-.2-.1-.4-.3-.6-.7-.9-.9-.3-.3-.5-.4-.8-.4h-.1c-.2 0-.4-.1-.4-.4 0-.2.1-.4.4-.4h.1c.6 0 1 .4 1.3.7.3.3.6.7.8.9.2 0 .3.3.1.4z"/><path fill="#9C867A" d="M109.9 42.9c0 .2 0 .3.1.6.2.7 1.1 1.1 1.5 2.1.2.4.2.8.2 1.2 0 2-1.6 4.2-2.5 5.6-.5.8-.8 1.6-1.1 2.4v1.5c.3-.3.5-.6.8-.9 2.3-2.9 3.6-6.9 2.9-10.5-.2-1.1-.8-2-1.6-2.7l-.1-.1c-.2.2-.2.5-.2.8zM83.6 62.5c.9 2.5 2.7 2.1 5.2 2.2 1.6.1 3.5-.2 5.4-.8-.4.1-.7.1-1.1.2h-.4c-.7 0-1.4-.1-2.1-.2 0 0 0 .1-.1.1-.1.1-.3.2-.4.2-.3 0-.5-.1-.7-.1h-.7c-1.9-.3-3.8-1.7-4.4-3.5-.2-.5-.2-1-.2-1.5 0-.3 0-.5.1-.8-.7 1.2-1.1 2.6-.6 4.2zm5.8 1.5zm16.7-6.1c.4-.3.7-.6 1.1-.9 0-.3 0-.6.1-.9-.6.9-1.5 1.7-2.9 2-2.8.7-4.2 3.2-7.1 4.6-.1.1-.2.1-.3.2 3.4-1.3 6.8-3.3 9.1-5zM96.4 41v-.3c-.2 0-.2.2-.2.3 0 .1 0 .2.2.2V41zm-4.7 4c-.4-.1-.8-.3-1.1-.8v-.1h-.1c-.1 0-.1 0-.1.1-.1.1-.1.2-.1.3 0 .2.1.3.3.5.2.1.6.2.9.2.2 0 .3 0 .4-.1-.1-.1-.2-.1-.2-.1zm13.4-4.9c0 .1 0 .1 0 0 .4.2.9.5 1.3.7 1 .6 1.9 1.9 2.7 2.5 0-.2-.1-.4-.1-.5 0-.5.2-.9.3-1.4-1.2-.7-2.7-1.1-4.2-1.3zm-9.7 1c0 .2 0 .4.1.6.1.3.3.5.3.4h.1c.2 0 .2 0 .3-.3-.4.1-.7-.3-.8-.7z"/><path fill="#511B2A" d="M62.3 140.9v-2.4c0-3.6-.7-6.3-1.6-9.9-.4-1.7-1.1-4.3-1.1-6.5 0-1.3.2-2.4.8-3.2.1-.2.1-.4-.1-.5-.2-.1-.4-.1-.5.1-.7 1-.9 2.3-.9 3.7 0 2.4.7 5 1.1 6.7.8 3.6 1.6 6.2 1.6 9.7v2.3c0 4.7 1.2 9 1.9 13.5.4 3 .9 6 .9 9 0 1.4-.1 2.8-.4 4.2-.3 1.7-.6 3.1-1.5 4.6-.4.8-1.3 1.5-2.1 2.3-.8.8-1.5 1.8-1.6 3 0 .2.2.4.4.4s.4-.2.4-.4c0-.9.6-1.7 1.4-2.5.7-.8 1.6-1.6 2.2-2.5 1-1.7 1.2-3.2 1.6-4.9.3-1.5.4-2.9.4-4.4 0-3.1-.5-6.1-.9-9.1-.8-4.4-2-8.7-2-13.2zm42.5-79c-1.2.6-2.3.6-3.5 1.8-.9.9-1.5 2.3-2.4 2.7-.2.1-.4.1-.7.1-.9 0-2-.4-2.8-.5h-.6c-1 0-1.6.3-1.9.9-.5.8-.3 1.8-.4 2.5 0 .4-.1.7-.3.8-.2.2-.4.3-1 .4h-.1c-.9 0-2.6-1-3.6-1.5-.6-.3-2.3-1.2-3.8-2.1-.8-.4-1.5-.9-2-1.3-.3-.2-.5-.4-.6-.5l-.1-.1c0-.1 0-.2-.1-.3-.1-.2-.4-.2-.6 0-.1.1-.2.2-.2.4 0 .3.2.5.4.6 1.2 1.1 5.6 3.4 6.6 4 .9.5 2.5 1.6 3.9 1.6h.2c.9-.1 1.5-.5 1.8-1.1.4-.8.2-1.8.4-2.5.1-.3.2-.6.4-.8.2-.2.5-.3 1.1-.3h.5c.7.1 1.8.5 2.9.5.3 0 .7 0 1-.2 1.3-.6 1.9-2.1 2.7-2.9.9-1 1.8-.9 3.3-1.7.1 0 .1-.1.1-.1 0-.3-.1-.6-.2-.8-.2.3-.3.4-.4.4zM92.3 44.3l-.5-.5c-.4-.3-.8-.6-1.3-.6-.3 0-.7.2-.9.6-.1.2-.1.4-.1.6 0 .5.3.9.7 1.1.4.2.8.3 1.3.3s1.1-.2 1.4-.7c.1-.2.1-.4-.1-.5-.2 0-.3-.2-.5-.3zm-.9.7c-.3 0-.6-.1-.9-.2-.2-.1-.3-.3-.3-.5 0-.1 0-.1.1-.3l.1-.1h.1v.1c.3.5.7.7 1.1.8h.2c0 .2-.2.2-.4.2zm1.2 5.9zm0 0v.2c0 .6-.3 1.3-.3 2.2v.4c0 .2.1.3.3.3h.4c.2 0 .4-.1.4-.3 0-.2-.1-.4-.3-.5H93c0-.6.3-1.3.3-2.1v-.3c0-.2-.2-.4-.4-.4-.2.1-.3.3-.3.5zm-1.1-.2c-.2-.1-.4-.1-.5.1-.5.8-.9 2-.9 3 0 .4.1.9.2 1.3.1.2.2.3.4.3h.1c.2-.1.3-.3.2-.5-.1-.3-.2-.6-.2-1 0-.9.3-1.9.8-2.6.1-.2.1-.5-.1-.6zm-2.8 5.2h-.2c-.2 0-.3-.1-.4-.3-.1-.3-.2-.7-.1-1.1 0-.6.1-1.2.1-1.6 0-.2-.2-.4-.4-.4s-.4.2-.4.4c0 .3-.1 1-.1 1.6 0 .5 0 1 .2 1.4.1.4.6.8 1.1.8.1 0 .3 0 .4-.1.2 0 .3-.3.3-.5-.1-.1-.3-.2-.5-.2zM99 43.8c-.2 0-.4.2-.4.4s.2.4.4.4c.8 0 1.6.6 2.1 1.2.1.1.2.1.3.1.1 0 .2 0 .3-.1.2-.1.2-.4 0-.6-.6-.7-1.6-1.4-2.7-1.4zm1.2-1.5h-.3c-.2 0-.4.2-.4.4s.2.4.4.4h.2c1 0 1.7.2 2.3.9.1.1.2.1.3.1.1 0 .2 0 .3-.1.2-.1.2-.4 0-.6-.7-.8-1.7-1.1-2.8-1.1zm5 .7c-.3-.3-.7-.7-1.3-.7h-.1c-.2 0-.4.2-.4.4s.2.4.4.4h.1c.2 0 .5.1.8.4.3.3.5.7.9.9.1.1.2.1.2.1.1 0 .2-.1.3-.2.1-.2.1-.4-.1-.6-.2 0-.5-.3-.8-.7zm-1.4.1z"/><path fill="#511B2A" d="M112.8 176.8h.3c.1 0 .2-.1.2-.2.1-.3.2-.5.2-.8 0-.2 0-.4-.1-.5-.1-.3-.4-.5-.7-.7-.2-.1-.3-.1-.5-.2-.3-.1-.6-.1-.9-.1h-.3c-.3-.3-.6-.7-1-1-.9-.7-1.9-1.2-2.6-1.5-2.3-.9-4.4-1-6.7-1h-1.9c-.2 0-.4.2-.4.4s.2.4.4.4h1.9c2.3 0 4.3.1 6.4.9.6.2 1.6.8 2.4 1.4.2.2.4.3.6.5 0 0-.1 0-.1.1h-.7c-1.4-.4-2.6-.5-3.5-1.6-.1-.2-.4-.2-.6-.1-.2.1-.2.4-.1.6 1.3 1.7 3.3 1.5 4.6 2.1h.2c.1 0 .2-.1.3-.2.2 0 .3.1.5.2 0 .1.1.3.1.4 0 .4-.2.8-.6 1.2-.3-.6-.8-1-1.5-1.1h-.3c-.2-.1-.4-.2-.7-.2-.2 0-.4.1-.4.4 0 .2.1.4.4.4.6.1.6.2.7.7v.3h-.4c-1.5 0-3.4-.3-4.8-.4-.1-.4-.3-.7-.5-1l-.2-.2c-.2-.9-.5-1.8-1.1-2.6-.1-.2-.4-.2-.6-.1-.2.1-.2.4-.1.6.3.4.6 1 .8 1.6h-.1c-.2 0-.5.1-.6.3-.1.1-.1.2-.1.3-.1 0-.2-.1-.3 0-.2.1-.3.3-.2.5.1.3.3.5.4.8-.2 0-.4.1-.6.1-.8.2-1.7.3-2.4.3-.4 0-.8 0-1.2-.1.1-.1.1-.2.2-.3v-.1c0-.2-.2-.4-.4-.4h-.6c-.1-2.6-2.1-5.5-2.9-7.7 0 0 0-.1.1-.1v-.1s0-.1-.1-.2c0-.1-.1-.1-.2-.2-1-2.9-1.4-5.3-1.4-8.5s-.6-6-1.4-8.9c-.7-2.3-1.6-6-2.5-7.8 0-.1-.1-.1-.2-.2.7-1.3 1.5-2.5 2.4-3.8 2.7-3.9 5.7-7.6 7.9-12l3.6-7.5c.4-.8.8-1.9 1.3-3s1-2.1 1.4-2.5c.2-.2.1-.4 0-.6-.2-.2-.4-.1-.6 0-.6.6-1 1.6-1.5 2.7s-.9 2.2-1.3 2.9l-3.6 7.5c-2.1 4.3-5.1 8-7.8 11.9-2.1 3-3.8 6.1-5.2 9.4-1.2 3-3.1 5.4-5.8 7.2-.4-2.1-1.2-4.2-1.4-6.1-.1-.4-.1-.9-.1-1.3 0-2 .5-3.7.9-5.8.3-1.6.3-3.2.3-4.9v-2.6c.1-3.3.4-8.2 2-11.5 1.4 1 2.8 2 4.2 2.4.7.2 1.3.3 2 .3 2.8 0 5.5-1.8 8-4s4.8-4.8 6.7-6.4c3.2-2.8 6-5.6 8.8-8.5-.2.7-.5 1.3-.8 2-.4 1-1.3 1.8-1.9 2.9-.2 0-.4.2-.4.4v.5c-.1.1-.1.2-.2.4v.3c-.4 2-1.8 3.9-2.6 5.9-.8 1.9-1 4.4-1.2 6.4-.4 4.8-.9 9.4-1.6 14-.2 1.1-.2 2.3-.2 3.4 0 3 .4 5.9.8 8.8.1.7.1 1.5.1 2.2v1.1c-.1 1.9-.3 3.8-.3 5.8v1.2c.1.9.2 2 .4 3.1.4 1.8 1.1 3.4 2.6 4.3.1 0 .1.1.2.1s.3-.1.3-.2c.1-.2 0-.4-.1-.5-.8-.4-1.4-1.3-1.7-2.3-.5-1.4-.7-3.1-.8-4.5v-1.2c0-2.3.4-4.6.4-6.9 0-.8 0-1.5-.1-2.3-.1-.4-.1-.8-.2-1.2-.3-2.5-.7-5-.7-7.5 0-1.1.1-2.2.2-3.3.6-4.6 1.1-9.3 1.6-14.1.2-2 .5-4.4 1.2-6.2.8-2.1 2.4-4.2 2.7-6.7.5-1.2 1.7-2.2 2.3-3.7.5-1.3.8-2.4 1.4-3.6 0-.1.1-.2.1-.3 1.5-1.5 3-3.1 4.6-4.7 3-3 3.5-3.9 5-7.9.8-2.2 1.2-3.7 1.2-5.4 0-1.3-.2-2.6-.6-4.3-.1-.7-.2-1.6-.2-2.6V78c-.1-1.9-.2-3.7-.8-5-.2-.5-.6-.8-.9-1.1-.3-.2-.7-.4-1-.5-.7-.3-1.3-.5-1.7-.9-.6-.7-.7-1.1-.8-1.6-.1-.4-.1-.8-.2-1.5 0-.2-.1-.4-.2-.7-.8-2.6-2.1-5.8-4-8.3-.3-.4-.6-.7-.9-1.1-.3.1-.6.1-.9.2.4.4.7.9 1.1 1.3.9 1.2 1.7 2.6 2.3 4 .6 1.4 1.2 2.8 1.6 4.1.3.9.3 1.4.4 2 .1.6.3 1.2 1 2l.1.1c-.1.1-.3.2-.4.3-8.4 6.2-13.8 16.7-21.3 22.3 1.4-4.5 1.5-8.5 3.6-12l-.1-.1c1.6-2.5 2.9-5 4-6.6 2.1-3.2 6-9.8 6-14.8 0-.7-.1-1.3-.2-1.9.2-.1.4-.2.6-.2 0-.4.1-.7.1-1.1 0-.6.1-1.1.1-1.7v-1.5c.4-.8.7-1.6 1.1-2.4.8-1.4 2.4-3.5 2.5-5.6 0-.4-.1-.8-.2-1.2-.4-1-1.3-1.4-1.5-2.1-.1-.2-.1-.4-.1-.6 0-.3.1-.6.2-.9v-.1c.1-.2.1-.5.2-.7.2-.8.3-1.5.3-2.3 0-1-.2-2-.7-3l-.6-1.2c.7-.7 1.4-1.5 2.2-2.5.9-1 1.4-2 1.6-3 .1-.5.2-1.1.2-1.6 0-2.1-1-4.1-2.1-6.2 0 0 0-.1-.1-.1-.8-1.5-1.3-3.1-1.3-4.8v-.3c0-.6.2-1.4.2-2.3 0-1-.3-2.1-1.7-2.6-.1 0-.3-.3-.4-.5l-.2-.1-.2.1c-1.6 1.2-3.3 2.5-5.2 3.8-1-.2-2-.3-3-.3-2.4 0-4.7.5-7.2.6-2.3.1-4.8.3-7.2.9h-.5c-.1 0-.3.1-.3.2-2.1.6-4.1 1.6-5.7 3.1-1.5 1.4-2.9 2.9-4.5 4-1.5 1-3.4 1.5-5 2.7-2.6 1.8-5 4.2-7.2 6.3-.5.5-1.4 1-1.9 1.9-.1.1-.1.3-.2.4-.1.3-.1.7-.1 1.1 0 .6.1 1.3.1 1.8v.5c-.2 1.2-.5 2.7-1.2 3.6-.8 1.2-2.4 2.2-3.3 3.6-.7 1.2-1.1 2.3-1.1 3.4 0 1.4.6 2.7 2 3.8.8.7 1.8 1.1 2.6 1.6L57 54.4l-.2.2-.1 1.4.2.2c.1.1.3.2.5.3h.2c.5.9 1.3 1.7 2 2.4l.1.1.2-.1c.3-.2.7-.3 1-.5.2-.1.4-.2.7-.3 0 .2-.1.4-.1.6-.3 1.4-.5 2.8-.9 4.2.3-.1.6-.2.9-.2.3-1.2.5-2.4.7-3.6.1-.5.2-1 .4-1.5.1-.1.3-.2.4-.3.1.1.2.1.4.2l.9.6c.2.1.4.2.7.4 1.1.8 2.2 1.6 3.4 2.3 1.3.7 2.6 1.3 4.3 1.4h.5c4.2 0 6.7-2.1 9.8-4.6.8-.6 1.4-1.2 2-1.8-.3.8-.5 1.6-.7 2.5 0 .3-.1.5-.1.8 0 .5.1 1 .2 1.5.6 1.8 2.6 3.2 4.4 3.5.1 0 .2.1.3 0h.4c.2 0 .3.1.7.1.1 0 .3-.1.4-.2 0 0 0-.1.1-.1.7.1 1.4.2 2.1.2h.4c.4 0 .7-.1 1.1-.2.9-.2 1.8-.5 2.6-.9.1-.1.2-.1.3-.2 2.9-1.5 4.3-3.9 7.1-4.6 1.4-.4 2.3-1.1 2.9-2 0 .3 0 .6-.1.9-.1.8-.1 1.5-.2 2.3-.2.1-.3.1-.4.2.1.5.2 1 .2 1.5 0 4.7-3.8 11.3-5.8 14.4-2.6 4.1-7.2 13.2-11.5 14.8-.5.2-1.1.3-1.8.3-.8 0-1.7-.1-2.7-.4-4.5-1.3-9.9-5.3-11.9-7.8-1.7-2-2.4-4.6-3.7-6.8-1.6-2.8-4-4.9-5.5-7.5-.8-1.4-1.2-2.8-1.2-4.1 0-.6.1-1.1.2-1.6-.3 0-.6.1-.9.2-.1.5-.1 1-.1 1.5 0 1.5.4 3 1.3 4.5.6 1 1.3 1.9 2 2.8 1.2 1.5 2.6 3 3.5 4.7.8 1.3 1.4 2.9 2.1 4.4.5.9 1 1.7 1.6 2.5.2.2.3.4.5.6.7.7 1.5 1.5 2.5 2.3l-.1.1-.2.2c2.5 2.4 3.1 4 3.7 6.8L76 90.6c-6.1-5-11.1-9.5-17.7-14l.2-.1-.9-.4c-1.2-.5-1.7-1.6-1.7-3.3 0-2.3 1.1-5.5 2.7-8 .4-.7.9-1.4 1.4-1.9-.5.2-1 .3-1.4.5 0 .1-.1.1-.1.2-.2.3-.4.5-.5.8-.1.1-.1.2-.2.4-1.5 2.5-2.6 5.6-2.6 8 0 .9.1 1.7.5 2.3-.1.2-.1.3-.2.5-.1.4-.3.8-.5 1.2-1.4.4-2.8 1-3.8 2.4-.7 1-1 2.3-1.2 3.7-.8.8-1.5 1.6-2.2 2.5-1.7 2.2-3.2 4.4-4.4 6.8-.6 1.1-1.2 2.2-1.7 3.4-1.7 3.8-5.2 6.8-6.7 10.9-1.6 4.3-4.3 8.2-6.1 12.6-.8 2.1-1.9 4.1-2.8 6.3-.9 2.4-2.4 4.5-4 6.8-2.8 4.2-4.7 9.1-5.5 14-.1.8-.2 1.6-.2 2.4 0 2.1.5 3.9 1.1 6.1.6 1.9 1.2 4 1.2 6 0 .5 0 1-.1 1.6-.6 3.4-3 6.3-4.8 9.6-.8 1.5-1.4 3-1.7 4.6 0 .2.1.3.2.4 2.2 1.3 4.4 2.6 6.9 3.2.8.2 1.6.3 2.5.4h1.7c1.6 0 3.3-.1 4.9-.3.1.1.2.1.3.2.2 0 .3-.1.4-.3.7-.1 1.3-.2 2-.4 0 .2.2.3.3.3h.1c.1 0 .2 0 .2-.1.1-.1.2-.2.2-.3v-.1c.6-.1 1.2-.3 1.8-.4 1.3-.4 2.1-.9 2.6-1.6.1.1.2.1.3.1.7-.1 1.5-.1 2.2-.1 2.3 0 4.7.3 7.1.6 1.1.1 2.3.3 3.3.3 1.3.1 3.8.6 6 .6 1.1 0 2.1-.1 2.8-.5.3.6.7 1 1.2 1.2.7.4 1.6.4 2.4.4.8 0 1.6-.1 2.3-.1h.4c.3 0 .6 0 .9.1.3.6.9 1 1.6 1.1h.1c.2 0 .4-.1.4-.3 0-.2.1-.4.1-.6 1 .1 1.9.2 2.9.3 0 .4.1.7.1 1v.5c0 .2 0 .3.2.4.1 0 .1.1.2.1s.2 0 .2-.1c.3-.3.6-.7.9-1.3 0-.1.1-.1.1-.2.1 0 .1-.1.2-.2 0 0 0-.1.1-.1.6 0 1.4.1 2.1.1.1.3.2.7.3.9 0 .1.1.2.3.3h.1c.1 0 .2 0 .2-.1.5-.4.8-.8 1-1.2.3-.1.7-.1 1-.3.7-.3 1.3-.8 1.5-1.7.1-.2.1-.4.1-.6v-.1c0-.2 0-.5-.1-.7 1.7 0 3.4.1 5.1.2 3.8.2 7.6.5 11.4.5l.1.1c.8.6 1.7.8 2.7.7 1.1 0 2.3-.3 3.3-.5.2.5.3 1 .3 1.5v.2c0 .1 0 .2.1.3.1.1.2.1.2.1h.1c1.1-.3 1.6-1.3 1.6-2.3 1.3.1 3.1.4 4.7.4h.5c0 .2.1.4.1.6 0 .1.1.2.2.2.2.1.4.2.6.2h.1c.1 0 .2 0 .2-.1.4-.3.7-.8.7-1.3v-.1c.1-.1.2-.1.2-.2.2-.1.3-.3.4-.4.3-.4.5-.9.5-1.4.2.3.6.6 1 .8zm-3.6-140.6c.4.9.6 1.7.6 2.7 0 .5-.1 1.1-.2 1.7 0 .1 0 .3-.1.4 0 .2-.1.4-.2.5-.1.4-.3.8-.3 1.4 0 .2 0 .4.1.5-.8-.7-1.7-1.9-2.7-2.5-.4-.3-.9-.5-1.4-.7v-.1c.1-.2 0-.4-.2-.5-.4-.2-.9-.4-1.3-.7 2-1.2 3.5-2.2 5-3.5l.2-.2c.2.4.3.7.5 1zm-13 4.7c0-.1.1-.3.2-.3v.5c-.2 0-.2 0-.2-.2zm.1 1c-.1.2-.1.3-.3.3h-.1s-.2-.1-.3-.4c-.1-.2-.1-.4-.2-.6.1.3.4.7.9.7zM72.6 61.5c-3.7-.1-6.1-3.2-9.5-4.9l-.2-.1-.1.1c-.9.6-1.9 1.1-2.9 1.6-.7-.7-1.6-1.6-1.9-2.4l-.1-.2c4.3-4.3 8.8-8.5 13.3-12.5 3.5-3.1 6.1-3.1 10.3-4.3 2.5-.7 3.8-2 4.7-3.6.9-1.6 1.4-3.5 2.3-5.4 3.4-7.6 13-13.3 19.5-18.3 0 0 0 .1.1.1.1.1.2.2.4.3 1.1.4 1.3 1.2 1.3 2s-.2 1.6-.2 2.2v.3c0 1.9.6 3.6 1.4 5.2 1.1 2.1 2 4.1 2 6 0 1.4-.5 2.8-1.7 4.3-3.2 3.9-4.9 4.9-8.8 7.2-1.1.7-2.5.9-3.9.9-2.8 0-5.8-1.1-7.8-2.5l-.2-.1-.2.1c-2.5 1.9-3.2 3.2-3.2 4.8 0 1.3.4 2.6.5 4.8v.6c0 4.3-1.6 6.5-5.1 9.4-3.2 2.5-5.5 4.5-9.5 4.5-.2-.1-.4-.1-.5-.1zm8.6-23.3c-2.2.6-4.1 1-5.9 1.6 2.1-1.8 5.9-4.5 8.4-4.5.5 0 .9.1 1.3.3-.7 1.2-1.9 2.1-3.8 2.6zm21.6 1.2c.1.1.2.1.2.2 0-.1-.1-.1-.2-.2zm-12-1c-.1 0-.2 0-.3.1-1.1.4-1.8 1.3-2.4 2.4-.1.2-.2.4-.3.7.2-1 .9-2 2.7-3.5.1.1.3.2.4.3h-.1zm10.9-23.2l-.1.1c-1.7 1.2-3.4 2.5-5 3.8-.4-.3-.9-.5-1.5-.7-2.3-.9-4.6-1.9-7.1-2.4 1.5-.2 3-.3 4.5-.4 1.8-.1 3.5-.3 5.2-.5.7-.1 1.3-.1 2-.1.6.1 1.3.1 2 .2zm-45 36.5c-1.2-1-1.7-2.1-1.7-3.2 0-.9.3-1.9 1-3 .7-1.2 2.3-2.2 3.2-3.5.8-1.1 1.2-2.7 1.4-4v-.6c0-.6-.1-1.3-.1-1.8 0-.3 0-.6.1-.8.2-.7 1.1-1.3 1.8-2l.9-.9 1.6-1.6c1.4-1.4 2.9-2.7 4.5-3.7 1.5-1 3.3-1.5 5-2.6.3-.2.5-.4.8-.6.2-.1.3-.3.5-.4 1.2-1 2.2-2.1 3.3-3.1 1.5-1.4 3.3-2.3 5.2-2.9h.1c.1.1.3.2.4.1.2 0 .3-.2.3-.3h.1c3.3 0 6.3 1.4 9.4 2.6.4.2.8.3 1.1.5-.5.4-1 .8-1.4 1.2-2.8 2.6-5.2 5.4-6.6 8.5-.9 2-1.4 3.9-2.2 5.4 0 .1-.1.1-.1.2-.5-.3-1.1-.4-1.7-.4-3.7 0-8.8 4.3-10.3 5.9-.1.1-.1.2-.1.2-.9.5-1.7 1.1-2.7 1.9-.4.4-.9.8-1.3 1.2.1-4.2.8-8.5.8-12.8 0-.2-.2-.4-.4-.4s-.4.2-.4.4v.8c-.1 4.2-.8 8.5-.8 12.8-.2.2-.4.3-.6.5-2.9 2.7-5.8 5.4-8.7 8.2-.7-.8-1.7-1.2-2.4-1.8zm47.5 5.7c-3.2.8-4.6 3.4-7.3 4.7-1.2.6-2.5 1-3.8 1.2h-.3c-.6 0-1.3-.1-2-.2l-.1-.1c-.1-.1-.3 0-.4.1h-.2c-.4 0-.7 0-1.1.2-.9-.1-1.9-.6-2.7-1.3.1 0 .2 0 .3-.1h.4c.8 0 2.3.2 3.3.2h.7c1.4-.3 2.9-1.3 3.6-2.7.6-1.2.5-2.7.6-4 .1-1.4.2-2.6 1-3.4 1.5-1.7 4.2-1.7 6.8-2 2.6-.3 5.3-.9 6.4-4.1.1-.2.1-.4.2-.6v-.2c0-.1-.2-.2-.4-.2s-.3.1-.3.1l-.1.1c-.1.1-.1.3 0 .4v.1c-1 2.7-3.1 3.2-5.7 3.5-1.2.1-2.5.2-3.8.5 0-.2 0-.3-.2-.4-.7-.4-1.5-2.1-2.3-3.2-1-1.3-2.3-2.2-3.1-3.4-.1-.2-.4-.2-.5-.1-.2.1-.2.4-.1.5.9 1.3 2.2 2.3 3.2 3.4.7.8 1.3 2.5 2.3 3.3-1 .3-2 .8-2.8 1.6-1 1.1-1.2 2.5-1.3 3.9-.1 1.4-.1 2.8-.5 3.7-.5 1.1-1.8 2-3 2.2h-.5c-.9 0-2.4-.2-3.3-.2h-.5c-.1 0-.3 0-.5.2-.2.3-.2.4-.2.5-.4-.4-.7-.9-.8-1.3-.2-.4-.2-.9-.2-1.3 0-1.1.4-2.3.8-3.5.2-.6.5-1.1.7-1.7 0 0 0-.1.1-.1 1.1-1.7 1.7-3.6 1.7-6.1V47c0-1.2-.2-2.1-.3-2.9.1-1 .4-2 .9-2.9.5-.9 1.1-1.6 1.9-2 .1 0 .2 0 .2-.1.4 0 .8-.1 1.2-.2.1.1.2.1.4.2 1 .4 2.1.8 3.2 1.1-.1.1-.1.2-.2.3 0 0-.1-.1-.2-.1h-.1l-.1-.1c-.2 0-.4.1-.5.3v.3c0 .4.1.8.2 1.2.2.4.4.8.9.9h.3c.5 0 .9-.4 1-.8.2-.4.2-.8.2-1.2v-.5c.4 0 .9.1 1.3.1 1.1 0 2.2-.2 3.2-.6 1.5.4 3.1.8 4.3 1.6 1.1.6 2.1 2.5 3.5 3h.2c.4.5.8.8 1 1.2.1.3.2.6.2.9 0 1.6-1.5 3.8-2.3 5.2-.7 1.2-1.1 2.4-1.7 3.4-.7 1-1.4 1.7-2.8 2.1zM91.8 169h-1.1c-1.2 0-2.5-.1-3.4-.4 1.4-1.4 2.5-3.1 3.2-4.9.2 1.8.6 3.5 1.3 5.3zm-13.3-12.3c.2 0 .4-.2.4-.4 0-.1 0-.2-.1-.2 2.4-1.8 4.2-4.2 5.4-7.1.7-1.6 1.4-3.2 2.3-4.7.9 1.7 1.7 5.2 2.4 7.5.9 2.9 1.4 5.6 1.4 8.7v1.1c-.5 2.4-1.9 4.8-3.6 6.5-1.8 1.8-4.8 2.4-7.1 3.8.1-.4.1-.7.1-1.1 0-2.7-1.4-5.9-1.6-8-.1-.7-.1-1.4-.1-2.1v-1.4c0-.8 0-1.6-.1-2.4v-.2h.6zm15.3-61.2zm-16.3-7.7c-.2-.3-.5-.6-.8-1 1.4 1 2.9 2 4.5 2.7 2.2 1.1 4.4 1.8 6.3 1.8.7 0 1.4-.1 2.1-.4 2.1-.8 4.1-3 5.9-5.5-1 3.1-1.3 6.3-2.5 9.8h.1c-.7.5-1.5.9-2.2 1.3-1.4.7-2.6 1-3.8 1-2.8 0-5.2-1.8-7.6-3.9h.2c-.5-2.3-1-4.1-2.2-5.8zm9.6 10.6c1.3 0 2.7-.3 4.1-1.1 9.1-4.7 14.6-16.1 23.1-23.2 1.5.3 1.9 1.1 2 2.4 0 2.9-2.9 7.8-4.1 8.8-3.9 3.6-9.5 4.9-14.2 6.9l.3.7c4.6-2 10.3-3.3 14.4-7.1 1.4-1.3 4.3-6 4.4-9.4 0-1.4-.6-2.6-2-3 .2-.2.5-.4.7-.5.1-.1.4-.3.6-.4.4.2.8.3 1.2.5.7.3 1.2.6 1.5 1.2.6 1 .7 2.8.8 4.7 0 1.8 0 3.7.3 5.1v.1l-.1-.2c-5.1 2.1-10.3 7.7-15.8 10.2-4.1 1.8-13.5 4.5-18.4 4.5-.6 0-1.1 0-1.5-.1l-.1.8c.5.1 1 .1 1.6.1 5.1 0 14.5-2.7 18.7-4.6 5.6-2.5 10.8-8.1 15.7-10.1.3 1.3.4 2.4.4 3.5 0 1.5-.3 3-1.1 5.1-1.5 4-1.9 4.6-4.8 7.6-5 5-9.5 9.9-14.9 14.6-2 1.7-4.2 4.3-6.7 6.4l-.1.1c-2.4 2.1-4.9 3.7-7.4 3.7-.6 0-1.2-.1-1.8-.3-1.3-.4-2.7-1.4-4-2.4.1-.1.1-.2.2-.3-.2-.1-.4-.3-.6-.5-.1.1-.1.2-.2.3-1-.8-2-1.7-2.9-2.4-3.1-2.4-6.5-4-9.5-6.2-5.3-4-10.7-9.6-13.3-15.7-.5-1.2-1.2-3.1-1.7-5.2-.2-.7-.3-1.4-.5-2.1-.2-1.1-.4-2.2-.6-3.2-.1-1-.2-2.1-.2-3 0-2.1.3-3.9 1.2-5.1 1.1-1.7 3.7-2.1 5.6-2.7 6.7 4.6 11.8 9.1 18.1 14.3 3.6 2.9 6.9 7.1 11.6 7.2zM56.2 76.1c.1.1.2.3.4.4-.2.1-.4.1-.6.2 0-.2.1-.4.2-.6-.1 0-.1 0 0 0zM28.7 177.2c.2-.1.4-.1.5-.2-.1.2-.2.5-.4.7v.1c0-.2 0-.4-.1-.6zm1.2 1.6c.3-.3.6-.7.7-1.1l.3 1.2c-.4.1-.9.2-1.3.3.1-.2.2-.3.3-.4zm2.4-.8c.1.1.1.1 0 0 .1.1.1.1 0 0 .1.1 0 .1 0 0zm33.4.2c.1 0 .2 0 .3.1-.1.1-.1.2-.1.3-.1-.2-.1-.3-.2-.4zm.7 2.1c-.1 0-.2-.1-.2-.1h.3c-.1 0-.1 0-.1.1zm8.9-.4h-.7c0-.1-.1-.2-.1-.4l.1-.1c.2-.1.2-.4.1-.6l-.1-.1h.1c.1 0 .2.1.4.2.1.2.2.4.2.7.1.2 0 .3 0 .3zm-.4.9v-.1h.1c0 .1 0 .1-.1.1zm2.8-2.3c-.2.6-.5.9-1.1 1.1-.2.1-.3.1-.5.2 0-.5-.2-1-.5-1.3-.2-.2-.5-.4-.9-.4 0-.2-.1-.3-.2-.4-.2-.1-.4 0-.5.2-.1.3-.2.5-.2.8v.1c-.1.2-.2.4-.2.7 0 .1 0 .3.2.4l.1.1c-.5 0-1-.1-1.5-.1.2-.4.3-.7.5-1.1.5-1.5.7-3 .7-4.8v-.2s0-.1-.1-.1c0 0 0-.2-.4-.2-.2 0-.3.2-.4.2-.1.2 0 .2-.1.2-.1.2 0 .3.1.5-.1 1.7-.2 3-.8 4.3v-.1c-.2-.2-.4-.4-.7-.3h-.3c0-.2-.1-.4-.3-.4-.2-.1-.4 0-.5.2-.1.2-.1.4-.1.6v.9c-.7-.1-1.4-.1-2-.2v-.9c.1-1.3.6-2.8.8-4.2.1-.1.1-.2.1-.3v-.7c0-.1 0-.2-.1-.2-.1-.1-.1-.1-.2-.1-.2 0-.4.2-.4.4 0 1.1-.6 2.7-.8 4.3h-.1c-.1 0-.3-.1-.6-.2s-.6-.2-.9-.2h-.2c0-.1-.1-.2-.2-.3-.2-.1-.4 0-.5.2-.1.2-.1.5-.2.7 0-.2-.1-.4-.1-.6 0-1.4.9-3.1 1.9-4.2.2 0 .3-.1.4-.3v-.1c0-.1.1-.2.1-.4v-.1c0-.2-.1-.3-.3-.3-.1-.1-.3 0-.4.1-1.2 1.2-2.6 3.2-2.6 5.2 0 .3 0 .7.1 1 .1.2.2.5.3.7h-.4c-.7 0-1.5.1-2.3.1-.8 0-1.5-.1-2.1-.3-.3-.2-.5-.4-.7-.7-.1-.1-.1-.2-.2-.4 0-.1 0-.3-.1-.4v-.1c0-.2-.2-.4-.4-.3-.2 0-.4.2-.3.4v.1c-.6.3-1.5.4-2.6.4-2.1 0-4.6-.4-5.9-.6-3.3-.3-7.1-.9-10.5-.9-.8 0-1.5 0-2.3.1 0-.2.1-.3.1-.5 0-1.6-1.4-3.1-3-4.2-.8-.6-1.9-1.2-3-1.8v-.2c3-.9 6.6-2.6 9.7-4.8 3.4-2.5 6.2-5.7 6.4-9.5v-1.4c0-1.7-.2-3.5-1-4.9-1.2-2.1-2.9-5.6-4.8-7.3-2.3-1.9-5.7-2.1-8.4-2.1h-1.4c-.2 0-.4.2-.4.4s.2.4.4.4h1.4c2.6 0 5.9.2 7.8 1.9 1.7 1.5 3.5 4.9 4.7 7.1.7 1.2.9 2.9.9 4.5v1.3c-.2 3.4-2.8 6.5-6.1 8.9-3.3 2.4-7.3 4.1-10.3 4.9-.1 0-.2.1-.2.1-1.7-.8-3.4-1.3-4.9-1.3H24c-.2 0-.4.2-.4.4s.2.4.4.4h.1c2.6 0 6.6 2.1 8.7 3.6 1.5 1.1 2.7 2.5 2.7 3.6 0 .8-.5 1.5-2.3 2.1v-.1c0-.1.1-.1 0-.2.3-.1.6-.1.8-.3.4-.3.7-.8.7-1.4 0-.2 0-.4-.1-.6 0-.2-.2-.3-.4-.3s-.3.2-.3.4v.4c0 .1 0 .2.1.2 0 .4-.1.6-.4.7-.2.2-.6.2-1 .2h-.4c-.4-.2-.9-.5-1.4-.6 0 0 0-.1-.1-.1.5-1.1.5-2.5.5-3.5v-.5c0-.1 0-.2-.1-.3-.1-.1-.1-.1-.2-.1h-.2s-.1 0-.1.1c-.1.1-.1.2-.1.3v.4c0 .9-.1 2-.3 2.9-.1 0-.2 0-.3.1-.1.1-.2.2-.2.3-.5.1-1.1.3-1.6.4-.1-.1-.3-.1-.5 0l-.2.2c-.2 0-.4.1-.6.1-.2 0-.3 0-.4-.1-.5-.2-.7-.7-.7-1.6 0-.6.1-1.2.2-1.8.1-.3.2-.6.2-.9.2 0 .3-.1.4-.3.1-.2 0-.4-.2-.4 0-.1.1-.2.1-.3 0-.1 0-.2-.1-.3-.1-.2-.2-.3-.4-.2-.2 0-.3.1-.3.3 0 .1-.1.3-.1.4-.1.1-.1.2-.1.3 0 .3-.1.7-.2 1.2-.1.3-.2.6-.4.9-.1.2-.6.6-1 1l-.3.3c-.1-.1-.2-.3-.3-.4-.3-.2-.6-.2-1-.2-.3 0-.6 0-.9.1l-.1-.1c-.2-.1-.3 0-.5.1v-.3c0-.9.4-1.9 1-2.4 0 0 .1.1.2.1.2.1.4-.1.5-.3 0-.2.1-.3.1-.5 0-.1 0-.3-.2-.4-.1-.1-.3-.1-.4 0-1.2.6-2 2.1-2 3.6 0 .7.2 1.4.6 2 .1 1 .7 2 1.5 2.6.1 0 .1.1.2.1h.2c.1-.1.2-.2.2-.3 0-.3.2-.8.5-1.4l.3-.6h.1c.2 0 .4-.2.3-.4.1-.2.4-.5.8-.8.2-.2.4-.3.5-.5v.1c0 .9.2 1.9 1.2 2.3.2.1.5.1.7.1.3 0 .5 0 .8-.1.1.3.1.7.1 1v.1c0 .1 0 .1.1.1v.5c-1.6.2-3.2.3-4.8.3h-1.7c-2.9-.2-5.2-1.3-7.6-2.7-.4-.2-.8-.5-1.2-.7.1-.6.2-1.1.4-1.7 1.4-4.1 5.2-7.7 6-12.3.1-.6.1-1.1.1-1.7 0-2.1-.6-4.3-1.2-6.2-.6-2.1-1.1-3.9-1.1-5.9 0-.7.1-1.5.2-2.3.8-4.8 2.6-9.6 5.4-13.7 1.5-2.3 3.1-4.5 4.1-7 .8-2.1 1.9-4.1 2.8-6.3 1.7-4.3 4.4-8.2 6.1-12.6 1.4-3.8 4.9-6.8 6.7-10.8 1.6-3.6 3.5-6.8 6-10 .4-.5.9-1.1 1.4-1.6 0-.4.1-.7.1-1.1 0 .5-.1 1-.1 1.6v.8c.2 4.7 1.8 10.2 3 13 2.7 6.3 8.2 11.9 13.5 16 3 2.3 6.5 3.8 9.4 6.2.9.7 1.9 1.6 3 2.5-1.8 3.5-2 8.6-2.2 11.9v2.7c0 1.6 0 3.2-.3 4.7-.4 2-.9 3.8-.9 5.9 0 .4 0 .9.1 1.4.3 2.4 1.3 4.8 1.6 7.1.1.8.1 1.5.1 2.3v1.4c0 .7 0 1.4.1 2.2.2 2.3 1.7 5.4 1.6 7.9 0 .6-.1 1.1-.2 1.6-.1.1-.1.2-.2.3l-.3.3c-.1.1-.2.1-.3.2-.2.1-.4.1-.6.2-.1 0-.2.1-.3.2-.1-.2-.1-.4-.1-.6 0-.3.1-.5.2-.8.1-.2 0-.4-.2-.5-.2-.1-.4 0-.5.2-.2.4-.3.8-.3 1.1 0 .9.5 1.8.9 2.6s.8 1.6.8 2.3v.2c.3.5.3.6.2.7zm-54.6-2.7c0 .2-.2.6-.4 1 .2-.4.3-.8.3-1.2h.1c-.1.1-.1.1 0 .2zm-.8 1.8c-.1.1-.1.3-.2.4l-.1-.1v-.1c.1-.1.2-.1.3-.2 0 .1 0 0 0 0zm55.4-2.3c-.2-.3-.3-.6-.4-.8.1 0 .2-.1.2-.2.1-.1 1-.2 1.6-1 1.8-1.6 5.2-2.2 7.5-4.1 1.1.5 2.6.6 4 .6h1.3c.9 2.3 2.8 5.2 2.9 7.5-5.5-.1-11.1-.6-16.7-.8 0-.5-.2-.9-.4-1.2zm31.6 2.1c0-.1 0-.1 0 0l.3.3c-.1 0-.2 0-.2.1 0-.2-.1-.3-.1-.4zm-7.6-.9c.1 0 .2.1.3.2 0 .1.1.3.1.4v.2c-.2-.1-.4-.2-.4-.4v-.2c-.1-.1 0-.1 0-.2zm.5 3c0-.4-.2-.8-.3-1.2h.3c0 .1.1.2.1.2.1.1.2.2.4.2-.1.3-.3.6-.5.8zm7.4-.7c-.1 0-.1 0 0 0-.1-.1-.1-.2-.1-.2.1 0 .2 0 .3-.1-.1.1-.1.2-.2.3zm2.7-3.5c.3.1.4.3.4.5-.4-.2-.7-.5-1.1-.7.3.1.5.1.7.2z"/><path fill="#BDA214" d="M87.7 47.6V47c-.1-2.2-.5-3.5-.5-4.8 0-1.5.7-2.8 3.2-4.8l.2-.1.2.1c2.1 1.3 5.1 2.5 7.8 2.5 1.4 0 2.7-.3 3.9-.9 3.9-2.3 5.5-3.3 8.8-7.2 1.3-1.5 1.7-2.9 1.7-4.3 0-1.9-.9-3.9-2-6-.8-1.6-1.4-3.3-1.4-5.2V16c0-.7.2-1.5.2-2.2 0-.9-.2-1.6-1.3-2-.2-.1-.3-.2-.4-.3 0 0 0-.1-.1-.1-6.5 5.1-16.2 10.7-19.5 18.3-.9 1.9-1.4 3.8-2.3 5.4-.9 1.6-2.3 2.9-4.7 3.6-4.2 1.2-6.8 1.2-10.3 4.3-4.5 4-8.9 8.2-13.3 12.5l.1.2c.3.7 1.2 1.6 1.9 2.4 1-.5 2.1-.9 2.9-1.6l.1-.1.2.1c3.4 1.7 5.8 4.8 9.5 4.9h.5c4 0 6.3-2 9.5-4.5 3.5-2.8 5.1-5 5.1-9.3zm8-25.2c2.3-1.8 4.7-4.9 7.9-5.8.4-.1.8-.2 1.1-.2 2 0 3.6 1.6 4.7 3.6 1.1 2.1 1.7 4.7 1.7 6.9 0 1.5-.3 2.9-.9 3.8l-.2-.2.2.2c-2.3 3.2-7.6 8.5-12.5 8.5-.9 0-1.8-.2-2.7-.7-2.5-1.3-4.5-4.2-4.5-7 0-.5.1-1 .2-1.4.7-3.2 2.3-5.6 5-7.7zM73.8 60.6c-3 0-5.5-1.9-8.3-4l-.5-.3.6-.2c-.8-.9-1.2-1.9-1.2-3 0-2.9 2.5-6 5.7-8.5 3.3-2.5 7.3-4.3 10.7-4.3 1.7 0 3.2.5 4.3 1.6 1.1 1.1 1.7 2.9 1.7 5.4v.9h-.3.3c-.3 5.4-4.7 8.7-8.9 11.1-1.4 1-2.8 1.3-4.1 1.3z"/><path fill="#511B2A" d="M86.9 48.3h-.3.3v-1c0-2.5-.6-4.3-1.7-5.4-1.1-1.1-2.6-1.6-4.3-1.6-3.3 0-7.4 1.8-10.7 4.3-3.2 2.5-5.7 5.7-5.7 8.5 0 1.1.4 2.1 1.2 3l-.7.2.5.3c2.8 2 5.3 4 8.3 4 1.3 0 2.7-.4 4.2-1.2 4.3-2.4 8.6-5.7 8.9-11.1zM73.8 60.1c-.5 0-.9-.1-1.4-.1-.4-.1-.7-.2-1.1-.3.1-.1.2-.1.3-.2.5-.4.7-1.1.7-1.9 0-.2 0-.5-.1-.8-.3-1.7-1.3-3.3-1.9-4.6v-.1c-.7-1.7-.9-3.9-1-5.8v-.2c.4-.3.7-.6 1.1-.9 2.4-1.8 5.2-3.3 7.7-3.9-.6.6-1.2 1.3-1.7 1.9-1 1.2-1.7 2.9-1.7 4.6 0 .3 0 .7.1 1 .5 2.4 3.2 4.3 5.8 4.4 1 0 2.1-.4 2.8-1.2v1.9c0 .2.1.3.3.4-1.6 1.9-3.9 3.5-6.1 4.7-1.3.7-2.6 1.1-3.8 1.1zm-7.5-3.5l.5-.1-.4-.3c-.9-.9-1.3-1.8-1.3-2.9 0-1.8 1.2-4 3.1-6l.5-.5c.1 1 .1 2 .3 3 .2 1 .4 1.9.8 2.8.6 1.4 1.6 3 1.8 4.4 0 .2.1.5.1.7 0 .7-.2 1.1-.5 1.3-.2.2-.5.3-.8.3-1.4-.8-2.7-1.7-4.1-2.7zm18.1-3.1c0-1.3-.1-3-.2-4.8.2-.5.4-.9.4-1.4 0-.5-.1-.9-.4-1.4 0-1.3.2-2.6.4-3.8 1.1 1 1.7 2.6 1.7 5.2v.9c0 2.1-.8 3.8-1.9 5.3zm-4-6.8c.3.3.5.6.5.9 0 .3-.1.5-.5.9-.2.2-.4.2-.6.2-.1 0-.3 0-.4-.1.7-.2 1.2-.7 1.2-1.4 0-.1-.1-.3-.2-.5zm-.9.4h-.3l.1-.1c.1 0 .2 0 .2.1h.2-.2zm-.1-.9c-.3 0-.6.1-.7.3-.2.2-.2.4-.2.7 0 .2 0 .4.2.6v.1c-.2 0-.4-.1-.6-.3-.2-.3-.3-.5-.3-.8.1-.3.3-.6 1.2-.7h.1c.2 0 .4 0 .6.1h-.3zm-1.6 2.4c.5.5 1.2.9 1.9.9.4 0 .8-.1 1.1-.4.6-.4.8-1 .8-1.5-.1-1.3-1.4-2.3-2.7-2.3h-.1c-.4 0-.7.1-1 .2.1-.3.3-.5.5-.7.4-.3.9-.5 1.6-.5.9 0 1.9.3 2.6.9.4.3.7.6.9.9v2.4c-.1.2-.3.5-.5.7-.7.7-1.4 1-2.1 1-1.1 0-2.2-.7-3.1-1.6-.2-.2-.3-.4-.4-.7 0 .1.1.1.2.2.1.2.2.3.3.5zm6.1-6.5c-.1-.2-.2-.3-.4-.3-.1-.1-.4-.3-.7-.7.4.1.8.3 1.2.5-.1.2-.1.3-.1.5zm-2.2-1c.3.4.6.7.9 1 .1.1.3.3.4.3.1.1.2.2.5.2h.2c.1 0 .1-.1.2-.1-.1.8-.2 1.7-.3 2.5-.9-.9-2.3-1.4-3.6-1.4 0-.2-.2-.3-.4-.3-2.1.1-3.3 1.9-3.2 3.6 0 .9.3 1.7.9 2.4 1 1.1 2.3 1.9 3.6 1.9.9 0 1.9-.4 2.7-1.3 0 .5 0 .9.1 1.4-.2-.1-.4-.1-.5.1-.6.7-1.4 1-2.3 1-2.1 0-4.7-1.9-5-3.7-.1-.3-.1-.6-.1-.9 0-1.5.6-3 1.5-4.1.6-.7 1.3-1.5 2-2.2.1-.1.2-.3.4-.5.5-.1.9-.1 1.3-.1h.7v.2zm8.9-10.9c-.1.5-.2.9-.2 1.4 0 2.9 2 5.7 4.5 7 .9.5 1.8.7 2.7.7 4.9 0 10.2-5.4 12.5-8.5l-.2-.2.2.2c.7-.9.9-2.3.9-3.8 0-2.2-.6-4.8-1.7-6.9-1.1-2.1-2.7-3.6-4.7-3.6-.4 0-.7.1-1.1.2-3.2.9-5.5 4-7.9 5.8-2.6 2-4.2 4.4-5 7.7zM104.7 17c1.3 0 2.4.8 3.4 2.1v.1c.2.6.2 1.1.3 1.7.1.6.3 1.2.9 1.8.3.2.5.5.7.7.3 1.2.5 2.5.5 3.6 0 .9-.1 1.7-.3 2.4-.2.1-.3.1-.5.1-.3 0-.6-.1-1-.3-.5-.3-1-.8-1.6-1.4-.9-1-1.7-2.1-2.4-2.8-1.5-1.5-3.1-2.6-4.9-3.6-.5-.3-.9-.5-1.3-.8 1.6-1.4 3.2-2.9 5.1-3.4.4-.1.8-.2 1.1-.2zm4.7 4.6c-.1-.2-.2-.3-.2-.5.1.2.1.3.2.5zm.2 8.9c-.4.5-.9 1.2-1.4 1.8-.2-.3-.3-.7-.5-1l-.6-1.5c-.1-.4-.3-.8-.4-1.3.9.9 1.8 1.8 3 1.8h.1c0 .1-.1.2-.2.2zm-10.1-8.4c1.8 1 3.3 2 4.7 3.5.2.2.4.4.6.7-.1 0-.2.1-.3.2-.1.2 0 .4.1.5.3.2.5.5.7.8.7 1.1.9 2.4 1.5 3.8.2.5.4.9.7 1.3-.7.7-1.5 1.5-2.3 2.2.1-.4.1-.8.1-1.3 0-2.3-1-4.9-3.3-5.6-.5-.1-1-.2-1.5-.2-2.9 0-5.6 2-8.1 2-.2 0-.5 0-.7-.1-.1-.1-.2-.1-.3-.1h-.2l.6-1.8c.4-.2.8-.3 1.2-.3.2 0 .4 0 .6.1.2.1.4 0 .5-.1.1-.2 0-.4-.1-.5-.3-.2-.7-.3-1-.3-.2 0-.5 0-.7.1.9-1.6 2-2.9 3.6-4.2.3-.2.5-.4.8-.6.4-.4.8-.7 1.2-1.1.6.3 1.1.7 1.6 1zm-2.5 16c-.8-.1-1.6-.3-2.5-.4-.6-.4-1.1-.8-1.5-1.4 1.5 0 2.9.1 4.1.2 1.4.1 2.6.7 3.8 1.5-.5.2-.9.4-1.4.5-.9-.1-1.7-.3-2.5-.4zm-5.9-7.5c.2.1.5.1.7.1v.1c0 .1.1.2.2.3 1.4.7 2.4 1.6 3.5 2.6.1.3.3.7.5 1 .3.4.7.7 1.2 1h-.1c-1.2-.1-2.9-.3-4.5-.3h-.3c-.8-1-1.3-2.4-1.3-3.7 0-.4 0-.7.1-1.1zm.9.4zm4.2 1.9c0-1 .7-1.9 1.5-2.2-.1 0-.1.1-.2.1-.6.5-1.2 1.2-1.3 2.1.1.1.1.4.2.6l-.1-.1c-.1-.1-.1-.3-.1-.5zm1.9.5c.3 0 .7-.1.9-.3.3-.2.5-.6.5-1v-.3c.3.1.5.2.6.3.7.5.8.9.8 1.2 0 .3-.2.7-.5.9-.3.3-.8.4-1.3.4-.6 0-1.2-.3-1.7-.9-.2-.3-.3-.6-.3-.8.1.1.1.2.2.3.2.2.5.2.8.2zm0-1c.1-.1.4-.2.6-.2 0 .2-.2.3-.4.4l-.1-.1-.1-.1zm.9 3.4c-.2-.1-.3-.2-.5-.3l-.1-.1c.2.1.4.1.7.1 1.3 0 2.6-.9 2.7-2.1 0-.7-.4-1.3-1.2-1.9-.2-.2-.5-.3-.9-.4h.3c.3 0 .6 0 .8.1 1.1.4 2.2 1.8 2.2 3 0 .6-.2 1.1-.9 1.6-.3.2-.9.4-1.4.4-.6-.2-1.1-.3-1.7-.4zm1.4 1.1c.1 0 .1-.1.2-.1h.1c.7 0 1.3-.1 1.9-.5.9-.6 1.3-1.4 1.3-2.2 0-1.6-1.3-3.2-2.7-3.7-.3-.1-.7-.2-1.1-.2h-.3s-.1 0-.1-.1c-.4-.2-.8-.3-1.2-.3-1.6 0-2.8 1.3-2.9 2.8-.8-.7-1.6-1.3-2.5-1.9 2.8-.2 5.3-2 7.8-2 .4 0 .9.1 1.3.2 1.7.5 2.7 2.7 2.7 4.9 0 .8-.1 1.5-.3 2.1-.9.7-1.8 1.3-2.7 1.7-.7-.2-1.1-.4-1.5-.7z"/><path fill="#199E90" d="M116.2 71.4c.4.4 1 .6 1.7.9.3.1.7.3 1 .5-.7-.9-1.7-1.6-2.5-2.5-.5-.6-.9-1.3-1.2-2 .1.6.1 1.1.2 1.5.1.5.2.9.8 1.6zm5.3 16.8c0 1.6-.3 3.2-1.2 5.4-1.5 4-2 4.9-5 7.9-1.6 1.6-3.1 3.1-4.6 4.7.5-.4.9-.7 1.4-1.1 1.2-.9 2.3-1.9 3.4-2.9 5.1-4.6 7.1-12.6 5.6-19.4-.1-.5-.3-1-.4-1.5 0 1 .1 1.9.2 2.6.4 1.7.6 3 .6 4.3zM55.9 72.9c0 1.7.5 2.8 1.7 3.3l.9.4-.2.1c6.6 4.5 11.6 9 17.7 14l2.7 2.4c-.6-2.8-1.2-4.5-3.7-6.8l.2-.2c-.8-.8-1.6-1.6-2.3-2.5-.2-.2-.4-.4-.5-.6-.7-.8-1.2-1.7-1.6-2.5-.6-1-1.1-2.1-1.6-3.1-.9-2-2.6-3.9-4.1-6-.7-.9-1.4-1.8-2-2.8-.9-1.5-1.3-3-1.3-4.5 0-.5 0-1 .1-1.5-.1 0-.2 0-.3.1h-.2c-.3.1-.6.2-.9.2-.2 0-.3.1-.5.1-.5.6-1 1.2-1.4 1.9-1.5 2.5-2.7 5.6-2.7 8zm2.6-9.2c-.1.1-.2.3-.3.4-.1.2-.3.5-.5.8.1-.1.1-.2.2-.4.3-.3.4-.5.6-.8zm-8.6 21.7v-.6c0-.5 0-1.1.1-1.6 0 .3-.1.7-.1 1.1-.1.4-.1.8 0 1.1zm37.2 12.2c1.2 0 2.4-.3 3.8-1 .8-.4 1.5-.8 2.2-1.3H93c1.2-3.4 1.5-6.7 2.5-9.8-1.8 2.5-3.8 4.7-5.9 5.5-.6.2-1.3.4-2.1.4-1.9 0-4.2-.8-6.3-1.8-1.3-.4-2.6-1-3.7-1.8 1.3 1.8 1.7 3.5 2.2 5.9h-.2c2.4 2.1 4.8 3.9 7.6 3.9z"/><path fill="#199E90" d="M105.1 61.7c.1.3.1.5.2.8.1.8.2 1.7 0 2.6-.4 2.7-2.2 4.9-3.2 7.3-.8 1.8-1.5 3.5-2.5 5.1-2.1 3.3-4.1 6.4-6.5 9.5-2.1 2.7-4.8 3.3-8.1 3.1.9.3 1.8.4 2.7.4.7 0 1.3-.1 1.8-.3 4.4-1.7 8.9-10.8 11.5-14.8 2-3.1 5.9-9.7 5.8-14.4 0-.5-.1-1.1-.2-1.5-.7.4-1.3.8-1.8 1.3l.3.9z"/><path fill="#199E90" d="M51.8 79.7c-.8 1.2-1.2 3-1.2 5.1 0 1 .1 2 .2 3 .2.4.3.7.4 1.1.1.8.1 1.4.2 2.1.2.7.3 1.4.5 2.1.4.9 1 1.8 1.5 2.7 1.9 3.5 3.7 7.9 6.3 11 3.2 3.8 7.7 6.6 11.9 9 2.9 1.6 5.2 4.4 7.9 6.4.2.2.4.3.6.5.2.1.4.3.6.4 1.4.8 3.9 2.4 5.6 2.4 2.1 0 4.7-2.1 6.4-3.2.1-.1.3-.2.4-.3l.1-.1c2.4-2.1 4.7-4.7 6.7-6.4 5.4-4.7 9.9-9.6 14.9-14.6 3-3 3.3-3.6 4.8-7.6.8-2.1 1.1-3.6 1.1-5.1 0-1-.1-2.1-.4-3.5-4.8 2-10 7.6-15.7 10.1-4.3 1.9-13.6 4.6-18.7 4.6-.6 0-1.1 0-1.6-.1l.1-.8c.4.1.9.1 1.5.1 4.9 0 14.3-2.7 18.4-4.5 5.5-2.4 10.7-8 15.8-10.2l.1.2V84c-.3-1.4-.2-3.3-.3-5.1 0-1.8-.2-3.6-.8-4.7-.4-.7-.9-1-1.5-1.2-.4-.2-.8-.3-1.2-.5-.2.1-.4.3-.6.4-.2.2-.5.4-.7.5 1.4.5 2 1.7 2 3 0 3.4-3 8.1-4.4 9.4-4.1 3.8-9.8 5.1-14.4 7.1l-.3-.6c4.7-2 10.3-3.3 14.2-6.9 1.2-1.1 4.1-5.9 4.1-8.8 0-1.3-.5-2.2-2-2.4-8.5 7.1-13.9 18.5-23.1 23.2-1.5.7-2.9 1.1-4.1 1.1-4.7 0-8-4.2-11.6-7.1-6.2-5.1-11.3-9.7-18.1-14.3-1.8.5-4.4.9-5.6 2.6zm9.3 2.6l.8.1h-.1.1c0 3.9 4.8 9.7 7.1 13.1 2.2 3.2 5.2 7 8.5 9.1l-.4.7c-3.5-2.1-6.4-6-8.7-9.3-2.3-3.4-7.3-9.2-7.3-13.7 0 .1 0 0 0 0zm-1.4 16.2l.3-.7c2.5 1.2 5.1 2.4 7.6 3.6 1.8.8 2.7 1.2 2.8 1.3.1 0 .1.1.1.1s.1 0 .1.1c9.2 6.3 21.7 8.3 32.6 8.3v.8c-11.2 0-24.1-2.1-33.6-8.8-.1 0-.2-.1-.3-.1-.5-.2-1.2-.5-2.1-1-2.4-1.2-4.9-2.4-7.5-3.6z"/><path fill="#199E90" d="M107.3 59.2c.2.6.2 1.2.2 1.9 0 5.1-3.9 11.6-6 14.8-1.1 1.6-2.4 4.1-4 6.6l.1.1c-2.1 3.5-2.2 7.5-3.6 12 7.5-5.6 12.8-16.1 21.3-22.3.1-.1.2-.2.4-.3l-.1-.1c-.7-.8-.9-1.4-1-2-.1-.6-.1-1.2-.4-2-.4-1.3-.9-2.7-1.6-4.1-1.1-1.8-2.4-3.6-3.9-5.2l-.9.3c-.1.1-.3.2-.5.3z"/><path fill="#511B2A" d="M84.3 99.3zm-7.3 5.9l.4-.7c-3.3-2-6.2-5.8-8.5-9.1s-7.2-9.2-7.1-13.1l-.8-.1c0 4.4 5 10.2 7.3 13.5 2.3 3.4 5.3 7.3 8.7 9.5zM61.7 82.4h.2z"/><path fill="#511B2A" d="M69.4 103c.1 0 .2.1.3.1 9.5 6.7 22.3 8.8 33.6 8.8v-.8c-10.9 0-23.4-2-32.6-8.3 0-.1-.1-.1-.1-.1s0-.1-.1-.1c-.2-.1-1.1-.5-2.8-1.3-2.5-1.2-5.1-2.4-7.6-3.6l-.3.7c2.5 1.2 5.1 2.4 7.6 3.6.9.5 1.6.8 2 1zm-9.7-4.5z"/></svg>