<svg version="1.2" baseProfile="tiny" xmlns="http://www.w3.org/2000/svg" viewBox="0 0 133.4 192.5"><path fill="#F4F1EA" d="M58.6 59.4v-.5c-.1.2-.1.3-.2.5h.2zm11.1-25.5c.1.1.1.1 0 0v.3c-.1.2-.2.3-.3.4-.1 0-.1 0-.2.1-.4.6-.9 1.2-1.3 1.8-1.7 2.1-3.8 3.5-5.2 5.6 1.1-1.2 2.4-2.3 3.9-3.3 3.2-2.1 5-5.2 6.2-8.7-.2.3-.5.6-.8 1-.8.8-1.5 1.8-2.3 2.8zm4.1 37.4c-.7-.9-3.1-1.3-4.6-1.4-.5 0-1-.1-1.6-.1-1.5 0-3 .3-3.9 1-.3.2-.6.7-.8 1.3-.1.2-.2.5-.3.7.2.4.5.6 1 .8.6.3 1.4.4 2.4.4.9 0 1.9-.1 2.8-.3l.3-.3c.2-.1.5 0 .6.1 1.7-.3 3.3-.7 4.4-.9.1-.4 0-.8-.3-1.3zm5.5-43.1c.1-2.2.2-4.6.1-6.5v.4c0 .8-.1 1.7-.4 2.8-.4 1.5-.5 3.3-.7 5-.1.6-.1 1.2-.1 1.9.3-1 .7-2.1 1.1-3.4v-.2zM58 62.6c.1-.6.2-1.2.3-1.7l-.6.3c-.1.2-.2.5-.3.8.3.1.4.3.6.6z"/><path fill="#F4F1EA" d="M59.1 73.4c.2 0 .4.1.6.1.1-.2.3-.2.6-.2h.3c.3 0 .5-.1.6-.2.1-.1.1-.2.2-.3-.1-.3.1-.6.3-.7.3-.7.5-1.6 1.3-2.2 1.3-1 3-1.2 4.6-1.2h.6c0-.7-.1-1.2-.1-1.7 0-.4 0-.8.2-1.2h-.2c-.3-.1-.5-.4-.5-.7v-.2c-.7-.9-1.6-1.7-2.4-2.5-1.1-1.1-2.1-2.5-2.4-4.5-.1-.4-.1-.8-.1-1.1v-.5c0-.1-.1-.2-.1-.3v-.3c0-.6.2-1.2.6-1.6.2-.2.3-.3.5-.4.5-.6 1.1-1.1 1.8-1.4 1.6-.8 3.7-1.1 5.5-1.1h.1c1.7 0 3.8.3 5.7 1 1.9.7 3.7 1.9 4.6 3.7.2.5.4.9.5 1.4-.1-1.4.1-2.8.1-4.2 0-1-.1-1.9-.3-2.8-.5-1.9-1.8-2.4-3.8-3.8-1.6-1.2-1.8-2.2-1.8-3.5-.3-.4-.5-.9-.7-1.5-.1-.3-.1-.7-.1-1 0-1.6.9-2.9 1.2-4.1.4-1.9.3-4.1.5-6.2.2-1.6.3-3.5.8-5.1.3-1 .3-1.8.3-2.5 0-.6 0-1.2-.1-1.9-.7-.5-1.3-.9-1.9-1.5v.4c0 3-.2 5.2-1.1 7.3-1 5.1-3 10.1-7.7 13.3-3.3 2.3-5.2 4.2-6.2 8-.5 1.8-.9 3.7-1 5.5v.3c0 .7.1 1.5.1 2.4 0 .5 0 1-.2 1.4 0 .1.1.2.1.3 0 .2-.1.4-.2.5 0 1.9-.4 3.9-.9 5.8.1.2 0 .5-.2.7-.6 2.5-1.3 5-1.3 7.5v.4c.4.3.9.5 1.5.6.1-.5.1-.4.1-.2zm3.1-8.9c.1-.3.5-.5.8-.4.5.2 1 .4 1.4.7.3.2.4.6.2.9-.1.2-.3.3-.5.3-.1 0-.2 0-.4-.1-.3-.2-.7-.4-1.1-.5-.3-.2-.5-.6-.4-.9zm-.1 2.7s.1 0 0 0c.1 0 .1 0 0 0 .3-.3.7-.2.9 0 .2.3.2.7 0 .9-.2.2-.6.3-.9.3-.5 0-.9-.3-1.2-.6-.2-.2-.3-.6 0-.9.2-.2.6-.3.9 0l.3.3zm-2.5-4.1c.3-.1.7 0 .8.3.1.1.1.2.4.3.3.1.5.4.5.7-.1.3-.3.5-.6.5h-.1c-.5-.1-1-.4-1.3-1-.1-.3 0-.7.3-.8zm-.5 6.4c.1-.3.4-.5.8-.4.4.1.8.2 1.3.2h.1c.3 0 .6.4.5.7 0 .3-.3.5-.6.5-.6 0-1.1-.1-1.6-.2-.4-.1-.6-.5-.5-.8zm48.5 103s0 .1 0 0c.1.1.1.1 0 0 .2-.2.3-.5.3-.9v-.5 1c-.1.2-.2.3-.3.4zM85.4 66.3c-.6-.2-1.3-.5-1.9-.7.5 1.6 1.5 3 1.5 4.9v.4c.3-.1.5-.3.8-.4.1-1.3 0-2.7-.4-4.2zm-7.9 10.5c-1 0-2-.2-3-.5-.2-.1-.4-.3-.4-.5v-.7c0-.4 0-.8.1-1.2-.8.2-2.1.5-3.4.8.6.5 1.4 1.1 2.4 1.5 1.6.7 3.5 1.3 4.9 1.3.6 0 1.1-.1 1.3-.3.2-.2.3-.3.4-.7v-.1c-.8.3-1.5.4-2.3.4zm19 96.4v.3l.1.1s0 .1.1.1v.6c.2.1.2.3.2.6v.3c.1.2.1.4 0 .6l.1.1c.1.2 0 .4-.1.5-.1.1-.1.2-.1.2v.2c0 .1 0 .3-.1.4 1.1-.5 1.7-1.5 1.5-3.8h.1c-.6-.2-1.5-.3-1.8-.2 0-.1 0 0 0 0zM56.4 70.9c.1-1.8.5-3.5.9-5.2-.4.2-.7.5-1.1.7-.3 1.7-.4 3.3.2 4.5zm49.9 101.4c-.1 0-.2.1-.2.1-.1.2-.3.3-.5.3h-.1c-.8.3-1.7.4-2.6.4h-.4c0 .2-.1.3-.1.5 1.4.1 2.9.1 4.1-.2v-.2c-.1-.3-.1-.6-.2-.9zm-7.2 1.1h.2c0-.1-.1-.1-.1-.2 0 .1-.1.1-.1.2zm-46.5-1.6c-.4 1.4-1.2 2.7-2.4 3.7-1.3 1-3 1.7-4.8 2.1 2.5.1 4.8-.1 6.5-.9 1.5-.7 2.4-1.8 2.8-3.1-.9-.5-1.6-1.1-2.1-1.8zm26.4 4.9s.1 0 0 0l.1-.1-.1.1zm-40-22.4c0-1.6-.7-3.1-1.6-4.7.5 1.5.8 3.1.8 4.3 0 1.1 0 2.1-.1 3 .3-.4.6-.8.7-1.3.2-.4.2-.8.2-1.3zm33.8 21.6s.1 0 .1.1c0-.1 0-.1-.1-.1zM83.1 63c0 .4.1.7.1 1.1.6.2 1.1.4 1.7.6-.2-.6-.5-1.2-.8-1.7h-1zm0-1.2h.3l-.3-.6v.6zM57.4 64s.1-.1.2-.1c-.2-.2-.4-.4-.5-.7-.1.5-.3.9-.4 1.4.2-.1.4-.3.7-.6zm27.5 8.3v.3c-.1.2-.3.4-.5.4-.1.1-.1.2-.2.3-.2.4-.5.7-.8 1 .3.2.4.5.2.8-.2.5-.4 1.2-.5 2 1-1.7 1.9-3.3 2.4-5-.2 0-.4.1-.6.2zm24.2 97.3c0 .2-.1.3-.2.5.2.3.3.7.3 1.1.4-.9.3-1.9-.1-2.7 0 .2.1.5.1.8-.1 0-.1.2-.1.3zm-17.2-62.2h.7c1.6 0 3-.7 4.3-1.8-1.9.9-4 1.5-6.1 1.5.4.2.7.3 1.1.3zm-26-32.1c-1 0-1.9-.1-2.7-.5-.5-.2-.9-.5-1.2-.9-.4.3-.9.6-1.5.6-.1.1-.1.1-.2.1v.2c0 .2-.1.3-.1.5v.1c.7.4 1.6.7 2.4.9v.6h.2c.2-.1.4-.1.6-.1.5-.1 1-.3 1.5-.5.4-.3.8-.6 1-1z"/><path fill="#F4F1EA" d="M83.1 72.7c0-.1.1-.1.1-.2-.1-.2-.1-.3-.1-.5 0-.3.2-.6.5-.6h.1c.1-.3.1-.6.1-.9 0-1.6-1.2-3.2-1.7-5.4H82c-.3-.1-.5-.4-.4-.8 0-.2.2-.3.3-.4-.1-.5-.1-.9-.1-1.3v-.4c0-.5.1-1 .2-1.5-.3 0-.6-.3-.6-.6-.5.7-1.2 1.3-1.9 1.8-1.4.9-3.2 1.5-4.6 1.9-1.5.5-3.2.8-4.4 1.5-.5.3-.8.6-.9.7-.1.2-.1.4-.1.8s.1 1 .1 1.8c1.5.2 4 .4 5.3 1.9.6.7.8 1.5.8 2.2 0 .9-.2 1.7-.2 2.4v.1c.7.2 1.5.3 2.2.3 2 0 4.2-.9 5.4-2.8zM76.7 68h-.6c-.3 0-.6-.3-.6-.7 0-.3.3-.6.7-.6h.5c.5 0 1-.1 1.5-.4.3-.2.7-.1.9.2.2.3.1.7-.2.9-.8.5-1.5.6-2.2.6zm.7 2.5c-.3 0-.6-.3-.6-.6s.3-.6.6-.6h1c.3 0 .6.3.6.6s-.3.6-.6.6h-1zm3 1.9c-.3 0-.7.2-.7.3-.1.1-.3.2-.4.2-.2 0-.4-.1-.5-.2-.2-.3-.2-.7.1-.9.4-.3.8-.5 1.4-.6.3-.1.7.2.7.5s-.2.6-.6.7zm1.4-3.8c-.4.4-.9.6-1.5.6-.3 0-.6-.3-.6-.6s.3-.6.6-.7c.3 0 .6-.2.6-.2.2-.3.6-.3.9-.1.2.4.3.8 0 1zm-.1-9.1c.1 0 .2-.1.3-.1v-.8c-.1.3-.2.7-.3.9zM30.8 174.3c0 .1-.1.2-.2.3.1 0 .1 0 .2.1v-.4zM67.3 55.9c.1 0 .1 0 0 0 .1 0 .1 0 0 0 .1 0 .1 0 0 0 .1 0 .1 0 0 0zm36.4 115c-.3-.8-.3-1.6-.3-2.5 0-1.2.2-2.5.1-3.3 0-.3.3-.6.6-.6s.6.3.6.6c0 .9-.2 2.2-.2 3.3 0 .8.1 1.5.3 2 .2.4.3.7.6.8.1 0 .2-.1.3-.2-.1-.1-.2-.3-.3-.4-.2-.3-.1-.7.2-.9.3-.2.6-.1.8.1.1-.2.2-.3.3-.5l.1-.1c0-.2.1-.3.3-.4.1 0 .2-.1.2-.1-.2-.5-.3-1-.4-1.5-.1-.2-.1-.5-.2-.7-.2-.3-.5-.6-.8-1.1-.2-.3-.3-.6-.4-.9-.3-.1-.5-.2-.8-.3-1.5.1-3.3-.4-4.7-.3-1.6.1-3 .2-4.2.7-.2.1-.4.3-.7.4-.1.1-.3.1-.4.1-.4.2-.8.5-1.2.9-.3-.1-.5-.3-.8-.4 0 .1 0 .3-.1.4.1.3.1.5.1.7 0 .3 0 .3.1.3 0 0 .1.1.4.2.3.1.5.3.5.6 0 .1 0 .3-.1.4.1.1.2.2.4.2.2.1.4.3.6.4.2-.2.5-.3.8-.2.3.2.4.5.3.8 0 .1-.1.1-.1.2-.1.2-.2.4-.2.6 0 .2 0 .2.2.4l.2.2c.1.1.1.2.1.3 0 .3 0 .2.1.5h.2c.4 0 1.6.1 2.4.4-.2-.4-.3-.8-.4-.9-.2-.3-.1-.6.1-.8v-.2c-.2-.3-.3-.6-.4-.9-.2-.9-.3-1.8-.3-2.6v-.6c0-.3.3-.6.7-.6.3 0 .6.3.6.7v.6c0 .7.1 1.6.3 2.2 0 .1 0 .1.1.2.1 0 .1-.1.2-.1.6-.3 1.2-.4 1.8-.4h.4c.2 0 .4.2.5.4.2.7.4 1.4.4 2.2v.5h.2c.4 0 .8 0 1.2-.1-.1-.1-.2-.4-.3-.7zM69.4 60.6c-.1.1-.2.1-.3.2.1.1.2.3.3.4v-.6zm.2 3.8h-.1c-.1.1-.1.2-.2.3l.3-.3zm1.4-.8l-.3.3c.1 0 .2-.1.3-.1-.1-.1-.1-.2 0-.2zm9-3.8l-.1.1c.1 0 .1 0 .1-.1zm-2.5 117.3c-.3-.4-.8-.8-1.2-1.4-.2-.3-.1-.7.1-.9.3-.2.7-.1.9.1v.1l.3-.3c.3-.1.5-.1.8-.1.6 0 1.2.3 1.5.7.2.3.3.6.4.9.2 0 .4-.1.6-.1.9-.1 1.9-.2 2.8-.2-.3-.1-.5-.4-.4-.8.1-.3.4-.5.8-.4 0-.1 0-.1.1-.2.1-.2.2-.4.4-.4s.4-.1.5-.1c.6 0 1.1.3 1.4.7.2.3.3.6.3.9.7-.1 1.4-.2 2.1-.2.3 0 .6 0 1 .1-.1 0-.1-.1-.2-.1-.3-.2-.4-.6-.2-.9.2-.3.6-.4.9-.2.3.2.5.4.7.6.4.1.7.4 1 .8l.3.6c.6.2 1.2.4 1.6.4.5 0 .8-.1 1.1-.7 0-.1.1-.1.1-.2-.1-.2 0-.4.1-.6l.1-.1-.1-.1c-.2-.1-.3-.4-.3-.7 0-.1 0-.2.1-.3l-.2-.1c0-.1-.1-.1-.2-.4 0-.1 0-.2.1-.3l.1-.1c-.1-.1-.2-.4-.2-.6 0-.2 0-.3.1-.4 0 0 0-.1-.1-.1-.1-.1-.1-.1-.1-.2 0 0-.1-.1-.1-.3v-.1c-.2-.3-.3-.6-.4-.9-.1-.1-.2-.2-.3-.4v-.1c-.5-.3-1.1-.7-1.2-.7-.1 0-.2-.1-.2-.2l-.1-.1c-.1 0-.1-.1-.1-.1l-.1-.1-.1-.1s0-.1-.1-.2v-.2c-.2-.2-.4-.5-.4-.7-.1-.5-.1-.7-.2-.9-.6-.9-1.3-1.8-2-2.7-1.1-.9-2.1-1.9-2.8-3.2-.2-.3-.3-.7-.5-1.1-.4-.7-.7-1.4-.9-2.1-.5-1.6-.7-3.4-.7-5.2 0-.6 0-1.2.1-1.8-.4 0-.9 0-1.4-.1-1.3-.2-6.3-1.4-7.1-2.8-.9 1-1.8 2-2.5 3.1-1.2 1.9-1.3 4.8-1.5 7.3-.1.5-.1 1-.1 1.5 0 .9.1 1.9.1 2.8v1c-.1 1.3-.4 2.8-.4 4.1v.1c.6 1.3 2.1 2.4 2.8 3.6 1.5 2.3.9 3.6-.6 4.3.1.3.1.6.2.9.1.1.1.2.2.3.8.3 1.7.5 2.5.6.5-.1.6-.1.8-.2z"/><path fill="#F4F1EA" d="M86.4 120c3.3-4.8 8.2-8.4 11.3-13.4-1.5 1.2-3.2 2-5.2 2.1-.3 0-.6 0-.8-.1-1.8-.2-3.4-1.1-4.8-2.3-2.7-1.3-4.3-4.1-5.7-6.9-.8-1.7-1.4-4.3-1.5-7.1-1.6 2-3.9 4-6.9 4h-.6c-.3 0-.6-.3-.6-.7 0-.3.3-.6.7-.6h.5c3 0 5.3-2.5 6.8-4.8 0-4 .6-8.1 2-10.6.1-1.4.2-3 .6-4.3-.4.3-.8.5-1.2.7v.5c0 .7-.4 1.4-.9 1.7-.6.3-1.2.5-2 .5-1.6 0-3.7-.6-5.4-1.4-.6-.3-1.2-.6-1.7-.9.1 2.3.4 4.7.4 7.1 0 .9 0 1.8-.2 2.8 0 .2-.1.4-.1.6.1.1.1.2.1.3 0 .9.7 2 1.7 2.9 1 .9 2.3 1.5 3.2 1.5h.1c.3 0 .6.3.6.7 0 .3-.3.6-.6.6-1.4 0-2.8-.8-4-1.8-.8-.7-1.4-1.5-1.8-2.3-.4.6-.9 1-1.4 1.4-.2.2-.5.3-.7.4v.2c0 .7.1 1.3.1 2 0 2.4-.2 4.6-.2 6.7 0 2 .2 3.7 1 5.2s2.1 2.8 4.5 3.8c.3.1.5.5.3.8-.1.2-.3.4-.6.4-.1 0-.2 0-.2-.1-2.6-1.1-4.2-2.6-5.1-4.4-.9-1.8-1.1-3.7-1.1-5.8 0-2.1.2-4.2.2-6.4-1.6 2.5-3.5 4.8-5.1 7.3-2.2 3.5-4.3 6.9-8.5 8.6-.3.1-.7 0-.8-.3-.1-.3 0-.7.3-.8 3.8-1.5 5.7-4.6 7.9-8.1 1.8-3 4.1-5.6 5.7-8.4-.6.2-1.1.4-1.7.6h-.2c-.3 0-.5-.2-.6-.4-.1-.3.1-.7.4-.8 1.5-.5 2.8-.9 3.7-1.5.9-.6 1.5-1.4 1.7-3 .1-.8.1-1.7.1-2.6 0-2.6-.4-5.3-.4-8v-.1c-.1-.1-.3-.3-.4-.5-.7.1-1.4.2-2 .3-.3.9-.9 1.6-1.7 2.1-.6.4-1.3.6-2.1.7-.7.9-1 2.3-1.1 3.9-.2 1.7-.2 3.5-.6 5-.8 3.1-.6 6.8-1.6 10.2-1.5 5.1-4.9 7.3-8.7 7.2-1.6 0-3.2-.3-4.7-.9-5.2-1.1-10.7-4.2-12.5-8.7-.3.4-.6.9-.9 1.6-1.2 3.6-1.5 6.1-.1 9.5 1.7 4 3.7 8.3 4.4 12.6.3 1.9.8 3.7 1.2 5.6.1.3.1.5.1.8.3.1.6.3.9.4-.3.2-.6.4-.9.7 0 1 .1 2.1.5 3 .1.3.3.6.5.9.4.2.9.2 1.5.1-.3.3-.5.7-.5 1.1l.3.3c.6.3 1.4.6 2 .7 0 0-.3.2-.5.3.1.2.2.4.4.7.2.1.3.3.5.4-.2-1.2-.2-2.4-.2-3.8 0-.3.3-.6.6-.6s.6.3.6.6c0 2 .2 3.8.6 5.4.1.1.2.2.2.3 1 1.2 1.4 2.7 1.8 4.2.7 1 1.5 2 2.5 3 3.3 3.4 5.2 6.5 5.2 11.2v.9c0 .4-.1.8-.1 1.1.1.1.2.2.3.4.1 0 .2.1.3.2 1.5 2.2 3.5 4.2 5.6 5.1.1 0 .1.1.2.1.7.2 1.6.4 2.4.3.5-.1 1-.2 1.6-.5.2-.2.5-.4.6-.7-1.4-1.1-2.7-2.3-3.7-3-.3-.2-.4-.6-.2-.9.2-.3.6-.4.9-.2 1.2.8 2.5 2.1 4 3.2.1.1.2.2.4.3.2 0 .4 0 .6.2.1.1.1.2.1.3 1.1.7 2.1 1.1 3.2 1.2v-2.4c0-.5 0-1.1.1-1.7.2-2.4.2-5.4 1.7-7.8 1.9-3 4.6-5 6.4-7.7.8-1.2 1.7-2.4 2.6-3.6.2-1.1.2-2.3.3-3.3.3-5.8.7-10.2 4.1-15.3z"/><path fill="#F4F1EA" d="M48.5 150.9c-3 3-7.2.6-10.3-2.5 1.1 1.8 2 3.8 2.1 6 0 .5-.1 1.1-.2 1.6-.4 1.5-1.4 2.4-2.3 3.2-.5 1.6-1.3 3-2.7 4.6-2.3 2.7-7.8 4.6-7.8 8.8.1 0 .1.1.2.2h.1c.1-.1.3-.1.4-.2.2-.1.4-.1.5 0 .2.1.3.2.3.4v.4c.2.1.4.2.6.2.2-.2.4-.5.6-.7-.2-.3-.2-.7.1-.9.3-.2.7-.2.9.1.6.8 1 1.6 1.1 2.4h.1c.1.1.2.1.3.2.1 0 .4.1.8.2.2.1.3.2.4.3.7.2 1.5.3 2.4.3.1-.4.3-.8.6-1.2.5-.7 1-1.3 1.6-1.6.3-.2.7-.1.9.2.1.2.1.4 0 .6.4.1.8.4 1 .6.4.4.7.9.9 1.3.1.2.1.3 0 .5s-.2.3-.4.3h-.1c0 .1.1.1.1.2.7.2 1.4.2 2.2.2 2.4 0 5-.8 6.7-2.1 1.3-1.1 2-2.6 2.3-4.3-.3-.2-.3-.6-.1-.9.1-.1.2-.2.3-.2 0-.5.1-1.1.1-1.6 0-.7 0-1.3-.1-2v-.6c0-3.9 1.8-6.9 1.9-10.3v-.9c0-4.3-1.6-7-4.8-10.3-.4-.4-.7-.8-1.1-1.1.1.7.3 1.4.5 2.1.3 1.9 1.9 4.5-.1 6.5z"/><path fill="#F4F1EA" d="M38.6 174.6v1c.3-.1.5-.2.8-.3-.1-.1-.2-.3-.3-.4-.2-.2-.3-.3-.5-.3zm4.2-42.2v-.1c-.3.2-.2.2 0 .1zm57.3 37.9c.1.1.1.1.2.1.1.1.2.1.2.2.1-.1.3-.1.4-.1.3.1.5.4.5.7 0 .3-.1.6-.1.8v.4c.1-.4.1-.8.1-1.2 0-.5-.1-.9-.2-1.4-.3.2-.8.4-1.1.5zM70.3 58v.5c.1-.2.1-.4.2-.5h-.2zm-.5-1.1c.1-.2.1-.3.2-.5-.2.1-.4.1-.5.1.1.2.2.3.3.4zm3.9 4.3c0 .2-.1.4-.3.5v.1c.3-.1.5-.2.8-.3-.2-.1-.4-.2-.5-.3zm2.1-5c-.1 0-.2 0-.3-.1-.2.2-.4.3-.5.5.4-.1.8-.2 1.2-.2-.1-.1-.2-.1-.4-.2zm-3.4-1.9c-.1 0-.1-.1-.2-.1s-.2-.1-.2-.2h-.1v.4c.2 0 .3-.1.5-.1zm6.2 5.3c.3-.3.4-.5.5-.7-.1 0-.1.1-.2.1-.3.1-.7 0-.8-.4-.2-.6-.9-1-1.8-1-.6 0-1.2.2-1.6.4-.4.3-.6.6-.6 1.1 0 .5.2.7.4.9.2.2.6.3 1 .3h.2c.5 0 1-.4 1.2-.7h-.3c-.3.1-.7-.1-.7-.5-.1-.3.1-.7.5-.7.2 0 .4-.1.6-.1.3 0 .6.1.9.3.3.2.4.5.4.8 0 .1 0 .3-.1.4.1.1.2 0 .4-.2zm-10-2.1c-.3-.2-.7-.3-1.3-.3-.5 0-1.1.1-1.6.4v.1c0 .2 0 .4.1.6.2-.3.5-.4.8-.3.3.1.5.5.3.8v.2c0 .2.1.4.4.6.3.2.6.3.9.3.2 0 .4-.1.6-.2.1-.1.3-.3.3-.8v-.3c0-.6-.2-.9-.5-1.1zm10.6.4s-.1 0 0 0v.2c.1-.1.1-.2 0-.2z"/><path fill="#BE6B3E" d="M50.9 34.4c.2.1.5.3.8.3.4-.7.4-1.8.7-3-.5 1-1 1.9-1.5 2.7z"/><path fill="#BE6B3E" d="M37.6 88.6c-.9 1.4-2.2 2.7-2.2 3.8 0 .2 0 .4.1.7.2.6 1.2 1.6 2.3 2.6 1.1 1 2.2 1.9 2.9 2.5 3.1 2.8 7.2 4.9 10.8 4.9 3.3 0 6.1-1.6 7.5-6.3.9-3.1.7-6.8 1.5-10.1.3-1.3.4-3.1.5-4.8.1-1.3.4-2.6.9-3.7-.7-.1-1.3-.3-1.9-.6-.7-.4-1.2-1.2-1.2-2.2 0-.2 0-.4.1-.7-.9-.2-1.6-.5-2.3-.9-.2-.1-.3-.3-.4-.5 0-.4-.1-.8-.1-1.3v-1c-.5-1.2-.5-2.9-.2-4.6-1 .6-2.1 1.1-2.7 1.9-.1.1-.3.2-.5.2-.1 0-.3-.1-.4-.2-.3-.2-.3-.6 0-.9 1.2-1.3 2.8-1.9 4-2.7.1-.5.3-.9.4-1.4l-.9-1.2c-2 1.4-3.9 3.3-4.6 5.1-.1.3-.3.4-.6.4h-.2c-.3-.1-.5-.5-.4-.8.8-2.1 2.8-4.2 5-5.6-.5-.6-1-1.3-1.4-2-.7.1-1.5.3-2.3.3-.3 0-.6-.3-.6-.6s.2-.6.6-.7c.5 0 1.1-.1 1.6-.2-1.1-1.6-2-3.3-2.7-5-.5-1.3-.7-2.5-.7-3.7 0-1.3.2-2.5.4-4 .3-1.7.4-3.5 1.1-5.3.6-1.6 1.7-3 1.6-4.2 0-.3.3-.6.6-.6s.6.3.6.6c0 1.8-1.3 3.3-1.7 4.6-.6 1.6-.7 3.3-1 5.1-.2 1.5-.4 2.7-.4 3.8 0 1 .2 2 .6 3.2.7 1.8 1.7 3.5 2.9 5.2 1.3-.3 2.7-.6 4.2-.7-.1-1.4-.4-2.8-1.2-4.1-1.7-3-2.1-6.7-2.1-10.4 0-4.1.5-8.4.6-11.9 0-.3.3-.6.6-.6s.6.3.6.6c-.1 3.6-.6 7.8-.6 11.8 0 3.6.4 7 1.9 9.8.1.2.2.5.3.7.1-1.9.6-3.8 1.1-5.5.6-2.3 1.5-4 2.8-5.4 1.4-2.1 3.5-3.5 5.2-5.6.5-.6.9-1.2 1.3-1.8h-.3c-.1 0-.2-.1-.3-.3 0 0 0-.1-.1-.1 0-.1-.1-.1-.1-.2-.2-.2-.2-.5-.1-.7-.1-.5-.3-1-.4-1.5-1.2.6-3.3 1.5-5.1 1.6-.6 0-1.2-.1-1.7-.5-.4-.3-.6-.8-.7-1.3-.1 0-.2-.1-.3-.2-.2-.2-.2-.6 0-.9 1.2-1.2 3.2-2.6 5.3-2.6.4 0 .8.1 1.2.2.1 0 .1 0 .2.1h.5c.1.1.2.3.2.4.7.5 1.1 1.4 1.4 2.2 0 .1 0 .1.1.2.3.6.6 1.2.7 1.9-.1-.3-.2-.5-.4-.7.2.7.3 1.3.4 1.8v.2c.7-1 1.5-2 2.3-2.9.3-.3.5-.7.8-1l.6-2.1h-.2c-.3 0-.6-.3-.6-.6v-.4c0-.9 0-1.9-.2-2.8-.2-.8-.6-1.5-1.4-1.9-.4-.3-1.4-.4-2.4-.4-1.6 0-3.4.4-4 .9-.3.2-.7.2-.9-.1-.2-.3-.2-.7.1-.9 1.1-.8 3-1.2 4.8-1.2 1.1 0 2.2.1 3 .6 1.1.6 1.7 1.6 2 2.6.2.7.2 1.3.3 2 .3-1.6.5-3.2.7-4.8v-.3c0-.7-.1-1.6-.1-2.6 0-.6 0-1.2.3-1.8.2-.6.6-1.1 1.3-1.3.4-.1.7-.2 1-.2.5 0 1 .2 1.2.6.3.4.3.7.4 1.1.1.8.1 1.6.1 2.1.1.4.2.4.2.4.2.1.4.3.4.5 0 .7.1 1.2.1 1.8.4.5.8 1.1.9 2 .1 1-.1 2.3-.5 3.6.4-.7.9-1.3 1.4-1.9 1.1-1 2.4-1.7 3.7-1.9.3-.1.6-.1 1-.1 1.7 0 2.9.8 4 1.8s1.9 2.2 2.9 3.1c.2.2.2.6 0 .9-.3.2-.6.2-.9 0-1-1.1-1.9-2.2-2.8-3.1-.9-.9-1.9-1.4-3.1-1.4-.2 0-.5 0-.7.1-.9.2-2.1.8-3.1 1.6-.9.9-1.5 1.9-1.5 2.9v.4c.1.3-.2.7-.5.7h-.1c-.3 0-.6-.2-.6-.5 0-.2-.1-.4-.1-.6v-.5c-.4 1.2-.8 2.4-1.1 3.4-.1 1.5-.1 3-.4 4.5-.4 1.5-1.2 2.8-1.1 3.9 0 .2 0 .4.1.6.4 1.3 1.6 2.5 2.9 3.7 1.3 1.2 2.7 2.5 3.2 4.4.4 1.7.5 3.5.5 5.3 0 1.1 0 2.3-.1 3.4.6-.9 1.3-1.9 2.1-2.9 2.2-2.8 3.6-5.4 4.5-8.7.2-.7.5-1.3.6-1.9 0-.1.2-.9.3-1.3 0-.2 0-.2.2-.5.1 0 .1-.3.6-.3.2 0 .4.1.4.2.1.1.1.2.1.2 0 .1 0 .1.1.2v.2c0 .2-.1.3-.2.5v.2c-.1.4-.1.8-.2 1-.2.7-.5 1.3-.6 1.9-1 3.5-2.5 6.3-4.7 9.2-1.2 1.6-2.2 2.8-2.7 4 2.6.1 5 .7 7.4 1 .3 0 .6.4.5.7 0 .3-.3.5-.6.5h-.1c-2.6-.3-5-.9-7.6-1 0 .2-.1.3-.1.5l.3.6h1c1.1 0 2.3 0 3.3.2s2 .4 2.5 1.2c.2.3.1.7-.2.9-.1.1-.2.1-.3.1-.2 0-.4-.1-.5-.3 0-.1-.7-.5-1.6-.6-1.1-.6-2.3-.6-3.3-.6h-.3c.3.6.6 1.2.8 1.7 1.1.4 2.3.9 3.4 1.2.3.1.5.4.4.8-.1.3-.3.4-.6.4h-.2c-.8-.3-1.6-.6-2.5-.9.4 1.5.5 2.9.4 4.2 1.1-.7 2.1-1.6 3.1-2.7 1.6-1.8 3-4 3.9-5.7 2.2-4.1 2.4-8.6 2.4-13.2v-2.7c0-.3.3-.6.6-.6s.6.3.6.6v2.7c0 4.7-.2 9.4-2.5 13.8-.9 1.7-2.3 4-4 5.9-1.3 1.4-2.7 2.7-4.3 3.5-.5 1.7-1.3 3.3-2.4 5-.2 1.4-.3 3.2-.5 4.5-.5 2.4-1.2 4.6-1.5 6.9v1c0 3.1 1.3 7.3 2.5 10 1.3 3.1 4.1 6.7 7.3 7.7 2.1 0 4.2-.5 6.1-1.5 1.9-1.5 3.7-3.6 5.4-5.2 3.3-3 5-4.4 5.6-8.6.3-1.9.4-3.9.4-5.9 0-3.5-.3-7-.8-10.2-.7-4.4-.2-8.9-1.6-12.8-.7-1.9-1.6-3.3-2.4-4.7-.8-1.4-1.5-3-1.5-5 0-.6.1-1.3.2-2.1.3-1.4.6-2.8.6-3.9 0-1.5-.4-2.8-1.9-4.2-.8-.7-1.3-1.1-1.7-1.7-.4-.6-.5-1.4-.5-2.5v-1.1c0-.2-.1-.3 0-.5-.1-1.1-.3-2.1-.5-3.2-.7-3.6-2-6.7-3.9-10-2.6-4.6-6.1-9.1-11.1-10.9-1.8-.7-3.5-.9-5.2-.9-.7 0-1.5.1-2.2.2 0 .1-.1.2-.1.3-.2-.1-.3-.2-.5-.2-2.7.5-5.4 1.5-8.3 2.6H67c-1.6 1-3.1 2-4.4 2.9-.6.4-1.2.9-1.7 1.3-.6.7-1.1 1.4-1.6 2.3-1.8 3.1-4 6.1-5 9.3-.5 1.4-.3 3.3-1.3 4.8-1.4 1.8-3.8 2.2-5.2 3.1-1.4.9-2.4 3.2-3 5.7-.6 2.5-.9 5.2-1.1 7.1-.8 6.7.3 13.4-1.3 20.3-1.7 5.6-1.6 11.6-4.8 16.7zm47.7-61.8c1.9 0 4 1.3 4.6 3.6.1.3-.1.7-.4.8h-.2c-.3 0-.5-.2-.6-.4-.5-1.8-2.1-2.8-3.4-2.8-1.2 0-2.2.6-2.4 2.5 0 .3-.3.6-.7.6-.3 0-.6-.3-.6-.7.2-2.4 1.9-3.7 3.7-3.6zM91.9 40c-.1 0-.2.1-.3.1-.2 0-.5-.1-.6-.4-.4-.9-.5-1.8-.6-2.7-.2.1-.5.2-.7.3v.2c-.2 0-.5-.1-.7-.1h-.3c-.4 0-.9-.1-1.3-.2-1.5-.2-2.9-.4-3.8-1.2l-.6-.6c-.1 0-.3 0-.4-.1l-.1-.1c-.4.4-.8.8-1.3 1.1-.3.2-.7.1-.9-.1-.2-.3-.1-.7.1-.9.9-.7 1.8-1.6 2.7-2.4 1-.8 2.1-1.5 3.7-1.5.3 0 .6 0 .9.1 1.2.2 2.1.6 2.6 1.3.6.6.8 1.4.9 2.2.2 1.5.1 3.1.6 4.2.5.3.4.7.1.8zM61.7 26.2c.5-.7 1.3-1.5 2.3-2.1 1-.6 2.2-1.1 3.3-1.1h.4c.8.1 1.4.4 1.7.8.4.4.5 1 .6 1.4.1 1 0 1.9.3 2.5.1.3 0 .7-.3.8-.1 0-.2.1-.2.1-.2 0-.5-.1-.6-.4-.3-.8-.3-1.6-.3-2.3 0-.7-.1-1.1-.3-1.3-.1-.2-.4-.3-1-.4h-.2c-.7 0-1.7.4-2.6.9-.9.5-1.7 1.3-1.9 1.7-.2.3-.6.4-.9.2-.4-.1-.5-.5-.3-.8z"/><path fill="#BE6B3E" d="M41 70.4c1.1-6.2.2-12.3.9-18.8.2-1.9.5-4.7 1.1-7.3.2-.9.5-1.8.8-2.6-3.4 6.5-2.5 16.7-3.3 22.9-.3 2.1-.6 4.6-1.1 6.9.6-.4 1.1-.8 1.6-1.1zm7.2-33.3c.6-.3 1.1-.5 1.7-.8-.7.3-1.2.5-1.7.8zm10.9 36.3V73c-.6-.1-1.1-.3-1.5-.6v.4l1.5.6zm-2.7-13c.7-.4 1.4-.7 2-1 .1-.2.1-.4.2-.5v-.5c-.1-.1-.1-.1-.1-.2-1.1.1-2.2.3-3.3.6.4.6.8 1.1 1.2 1.6zm12.2-26.1zm-8.4 41.1c0 .5.2.8.6 1 .4.3 1 .4 1.7.4h.1v-.6c-.7-.1-1.6-.3-2.4-.8zm-2.4-14.3l-.6.3c.1.1.2.3.3.4.1-.2.2-.4.3-.7zm18.3-42.4c.6.6 1.3 1 1.9 1.5V20c-.2-.2-.4-.5-.5-.7-.1-.4-.1-.8-.2-1.1 0-.7 0-1.5-.2-1.8-.1-.2-.1-.2-.3-.2-.1 0-.3 0-.6.1s-.4.3-.5.6c-.1.3-.2.8-.2 1.3 0 .8.1 1.8.1 2.6v.5c-.2 1.7-.4 3.5-.7 5.3.9-2.1 1.1-4.2 1.1-7.3.1-.3.1-.4.1-.6zm13.6 15c0 .2-.1.5-.2.7.1.5.1 1.1.1 1.7.2-.1.4-.3.6-.5l.1-.1c-.1-.8-.2-1.4-.6-1.8zm9.5.7c.1-.5.1-1 0-1.7-.3-2.3-1.6-4.6-2.8-6.7 1.2 2.5 2.2 5.1 2.7 7.8.1.3.1.4.1.6zM77.7 11.1c1.8 0 3.7.3 5.6 1 5 1.8 8.5 6 11.1 10.3l-.3-.6c-1-2.6-1.9-3.8-3.8-5.9-2.9-3-8.8-5.4-13.5-4.9l.1-.1s-.1 0-.1.1c-.3 0-.7.1-1 .2.6-.1 1.3-.1 1.9-.1zm23.9 31.1c1.7 1.5 2.3 3.3 2.3 5.1v.7c.2-.6.4-1.2.5-1.8.7-3.4-1.5-4-3.9-5.9-.3-.2-.5-.4-.8-.6 0 .6.1.9.3 1.1.2.2.7.6 1.6 1.4zM78 46.1c2 1.5 3.3 1.9 3.8 3.8 0-.3-.1-.5-.2-.8-.3-1.4-1.5-2.6-2.8-3.8-.9-.8-1.9-1.7-2.6-2.8-.1 1.4.2 2.5 1.8 3.6zM82 57c0 .1.1.2.1.3 0-1 .1-2.1.1-3.1v-1.4c-.2 1.5-.3 2.8-.2 4.2zm-2.4 33.3l.2-.2v-.7c0-.4 0-.7.1-1.1.3-2.5 1-4.7 1.5-7 .1-.5.2-1.1.2-1.7-1.3 2.6-2 6.8-2 10.7zm7.4 16.1c-2.1-1.8-3.6-4.2-4.5-6.4-.9-2.2-1.9-5.2-2.3-8.1-.1.2-.2.3-.3.5.2 2.8.7 5.3 1.5 7.1 1.2 2.8 2.9 5.5 5.6 6.9zm16.6 9.1c-.4 1.2-.7 2.3-1.2 3.5 2.3 1.2 4.5 2.8 6.4 4.6-.3-.4-.6-.7-.9-1-1-1-3.4-2.7-5.3-3.6 1-1.8 1.8-3.8 2.5-5.7 1.4-3.9 2.5-10.9 1-14.9-.1.1-.2.2-.2.3 0 5.5-.7 11.7-2.3 16.8zm-20.3 34.9c.5.1.9.1 1.4.1.1-.9.2-1.9.4-2.7 1.4-5.2 6.5-8.5 9.3-12.5 2.2-3.1 2.9-5.5 3-8.8-.2.2-.3.5-.5.7-.1.2-.3.3-.5.3-.1 0-.2 0-.3-.1-.3-.2-.4-.6-.2-.9 1-1.6 2.8-3.2 3.8-4.8.4-.5.7-1.1.9-1.7 0-.2.1-.4.1-.6h-.1c-.3-.2-.4-.5-.3-.8.2-.3.5-.4.8-.3 0 0 .1 0 .1.1.4-1 .8-2.1 1.1-3.2 1.4-4.6 2.1-10.1 2.3-15.2-.5.5-1 .9-1.6 1.4-1.6 1.4-3.3 3.6-5.4 5.2-3.1 5-8 8.6-11.3 13.4-3.5 5-3.9 9.5-4.4 15.4l-.3 3.3c.9-1.3 1.8-2.7 2.4-4 .4-.9.6-2.3.9-3.7.2-1.4.5-2.8 1.3-3.8.2-.2.5-.3.7-.2.3.1.4.3.4.6v.5c0 .3-.2.6-.6.7-.3.7-.4 1.5-.6 2.5-.2 1.4-.4 2.9-1 4.1-1.3 2.8-3.5 5.4-5.1 7.8-1.2 1.8-2.6 3.2-4 4.6 1.1 1.2 6 2.4 7.3 2.6zM26.5 94.2c.8-4.5 2.4-9.8 5.2-13.6 2-2.8 4.7-6.4 7.6-8.9-1.3.7-2.8 1.5-3.8 2.6-1.7 1.9-2.2 3.7-4.3 5.3-2.8 2.2-4.6 5.7-5.7 9.1-1.3 4.3-.7 12.4.5 16.6v.1c-.1-1.3-.2-2.7-.2-4 0-2.4.3-4.9.7-7.2z"/><path fill="#BE6B3E" d="M41.4 131.4l-.3-.3c-.4-.4-.7-.8-1-1.2-.2-.3-.4-.6-.5-.9-.4-.9-.4-2-.5-3 0-.4 0-.7-.1-1.1 0-.3-.1-.6-.1-.8-.4-1.9-.9-3.7-1.2-5.6-.6-4.3-2.7-8.6-4.4-12.6-1.5-3.4-1.1-5.9.1-9.5.2-.7.5-1.2.9-1.6 1.8 4.5 7.3 7.6 12.5 8.7-2.5-.9-4.9-2.5-6.9-4.3-.6-.6-1.8-1.5-2.9-2.5-1.1-1-2.1-2.1-2.6-3-.2-.4-.2-.8-.2-1.2.1-1.9 1.7-3.3 2.4-4.5 2.9-4.5 2.9-10.3 4.1-15.7-2.9 2.2-5.8 6.1-8 9.1-2.6 3.6-4.1 8.7-4.9 13.1-.4 2.3-.6 4.6-.6 7 0 2.7.3 5.4.8 7.9.6 2.9 1.4 5.7 2 8.6.3 2 .2 4.2.9 5.7.3.7.7 1.1 1.1 1.7.4.6.8 1.3.8 2.3 0 1.7-.6 3.3-.6 4.9v.6c.2 1.9 1.2 3.1 1.9 5.2.6 2 1.2 4 1.9 5.8.5 1.3 1.4 2.8 2.3 4.3 3.2 3.1 7.3 5.5 10.3 2.5 1.9-1.9.3-4.5-.3-6.4-.2-.7-.4-1.4-.5-2.1-2.4-2.7-3.6-5.5-4.1-8.8-.2-.1-.3-.3-.5-.4-.6-.8-1.3-1.3-1.8-1.9z"/><path fill="#BE6B3E" d="M30.9 133.2v-.7c0-1.9.6-3.5.6-4.9 0-.8-.2-1.1-.5-1.6s-.8-1-1.3-1.9c-.1-.2-.2-.4-.2-.6-.4 1-.8 2-1 3.1-.2 1.7.9 3 1.2 4.6.6 2.5.3 4.5 1.6 6.8.9 1.7 1.9 3.5 2.9 5.2.1.1.2.3.2.4-.6-1.7-1.1-3.5-1.7-5.2-.4-1.6-1.6-2.9-1.8-5.2zm14.3 1.9c.4 1.6 1 3.1 2 4.5-.3-1.5-.8-3-1.8-4.2 0-.1-.1-.2-.2-.3zm29.4 36c-.7-1.1-2.2-2.3-2.8-3.6 0 .4 0 .9.1 1.2.3 1.6 1.4 3.2 1.8 5.2.1.5.2 1 .3 1.4 1.5-.6 2.1-1.9.6-4.2zm-2.3 2.3c-.5-1.4-1.2-2.7-1.6-4.3-.1-.5-.2-1.1-.2-1.6 0-1.5.3-3 .4-4.2v-.2c-1.4-.1-2.7-.6-3.8-1.4-1.3 1.1-2.7 1.5-4 1.5-3.5 0-6.4-2.9-8.6-5.9-.5 2.7-1.5 5-1.5 7.7v.6c0 .6.1 1.3.1 2s0 1.4-.1 2.1c3.3 2.5 6.2 4.5 10.5 5 .4 0 .9.1 1.3.1 2.5 0 5.3-.7 7.5-1.4z"/><path fill="#BE6B3E" d="M65.2 161.5c.3-.1.6-.3.9-.5-.1-.1-.2-.1-.2-.2l-.7.7zm-4 .1c-.1 0-.1-.1-.2-.1.7.3 1.4.5 2.1.5h.5c-.8 0-1.7-.2-2.4-.4zm11.4 13c-2.3.7-5.1 1.5-7.8 1.5-.5 0-1 0-1.4-.1-4.5-.5-7.5-2.5-10.6-4.8 0 .2-.1.4-.2.7.5.7 1.2 1.3 2.1 1.8 4.2 2.5 12 2.9 14.8 2.8 1.1 0 2.3-.2 3.4-.4h.1c-.2-.6-.3-1.1-.4-1.5zm-17.9-18.4h.4c-.1-.1-.2-.3-.3-.4 0 .2-.1.3-.1.4zm52.4 7.2c-.4.3-.4.4-.4.6.8-.5 1.6-1.2 2.2-2l-.1.1c-.7.6-1.3 1-1.7 1.3zm8.7-19.4c0-3.6-.8-7.2-2.6-10.4-.7-1.3-1.7-2.4-2.3-4.1-.5-1.6-.5-2.3-1.4-3.4-1.9-2.4-4.7-4.4-7.5-6 0 .1-.1.2-.1.3v.2c0 1.2.7 3 1 4.5.1.9.2 1.8.2 2.7 0 1.5-.1 2.9-.1 4.2-.1 6-2.8 12-5.7 17-.1.2-.3.3-.5.3-.1 0-.2 0-.3-.1-.3-.2-.4-.6-.2-.9 2.9-4.9 5.5-10.8 5.5-16.4 0-1.4.1-2.8.1-4.2 0-.9 0-1.7-.2-2.5-.1-.8-.5-1.9-.7-3 0 .1-.1.1-.1.2-.6.9-1.4 1.8-2.1 2.6v.2c0 4-.5 7.1-3.2 10.8-3.1 4.2-7.9 7.5-9.1 12.1-.3 1.2-.5 2.7-.5 4.2 0 1.7.2 3.5.7 4.9.8 2.6 3.5 5.1 5.4 7.9.1-.1.2-.1.3-.2.3-.2.6-.2 1-.3.6-.1 1.3-.2 1.5-.3.7-.3 1.1-.9 2-1.5 1-.6 1.6-.9 3-.9.8 0 1.3.1 1.7.3.4.2.6.4 1 .5.8.3 1.5.3 2.4.5.2 0 .5.1.7.2.2-.4.5-.8.8-1 .5-.4 1-.7 1.6-1.2 1.1-1 2.1-2 3-3.1 1.2-2.6 2.7-4.8 3.9-7.3.5-2.2.8-4.5.8-6.8z"/><path fill="#BE6B3E" d="M104.8 164.5c.1 0 .1 0 0 0 0 0-.2-.1-.3-.1-.7-.1-1.5-.2-2.6-.6-.6-.2-.9-.5-1.1-.6-.2-.1-.4-.2-1.1-.2-1.4 0-1.3.1-2.4.7-.5.3-.9.7-1.5 1.1 1.2-.5 2.6-.6 4.2-.7 1.5.1 3.3.5 4.8.4zm-10 1c-.4.1-.8.1-1.1.2-.4 0-.7.1-.8.2v.1c.3.1.5.3.8.4.3-.4.7-.7 1.1-.9zm-5.3-1.7c-1.1-1.4-2.3-2.8-3.2-4.3.1.4.3.8.5 1.1.6 1.3 1.5 2.4 2.7 3.2z"/><path fill="#FEEBBC" d="M64.8 31.7c-.9 0-1.9-.5-2.4-1.6-.3.2-.6.4-.9.7v.2c0 .5.1.7.3.9.2.1.5.2 1 .2.6 0 1.3-.1 2-.4zm2.4-3.6h-.5c.3.1.5.2.7.4-.1-.2-.2-.3-.2-.4zm.3 2.5c-.1-.1-.1-.2-.2-.3-.1.2-.3.4-.4.6l.6-.3zm-3.3-1.3c0 .2 0 .4-.1.5-.1.1-.1.2-.1.2 0 .1 0 .2.2.3.2.1.4.2.7.2h.2c.1-.5.3-.9.4-1.3h-.2c-.3-.1-.7 0-1.1.1zm5.4 3.5c-.1-.7-.4-1.3-.7-1.9.1.4.3.8.4 1.2.1.1.3.3.3.7zM85 34.7c-.2-.3-.5-.6-.6-1-.1.1-.2.2-.3.2-.1.1-.3.2-.4.3l.6.3c.3.1.6.3 1 .5-.1 0-.2-.2-.3-.3zm2-1.9c-.5 0-1 .1-1.4.3.1.2.3.6.4.9.2.2.4.3.7.4l.3-.3c.2-.3.3-.7.3-1v-.3H87zm2 2.3c-.5.4-1.1.6-1.7.6h-.6c.8.3 1.6.5 2.2.5.3 0 .6 0 .8-.1 0-.6 0-1.2-.1-1.7-.2.3-.4.5-.6.7zm-5.8.4h-.1l.6.6c.9.8 2.4 1.1 3.8 1.2-1.4-.3-2.8-1.1-3.7-1.6-.2-.1-.5-.2-.6-.2zm6.6 2.1v-.2c-.2.1-.4.1-.7.1.2 0 .5 0 .7.1z"/><path fill="#412C28" d="M79 66.7c-.2-.3-.6-.4-.9-.2-.4.2-.9.4-1.5.4h-.5c-.3 0-.6.2-.7.6 0 .3.2.6.6.7h.6c.7 0 1.4-.1 2.1-.5.4-.4.5-.7.3-1zm.1 3.2c0-.3-.3-.6-.6-.6h-1c-.3 0-.6.3-.6.6s.3.6.6.6h1c.3 0 .6-.3.6-.6zm1.1 1.3c-.5.1-1 .2-1.4.6-.3.2-.3.6-.1.9.1.1.3.2.5.2.1 0 .3 0 .4-.2.1-.1.4-.2.7-.3.3-.1.6-.4.5-.7.1-.4-.2-.6-.6-.5zm.7-3.4s-.3.2-.6.2-.6.3-.6.7c0 .3.3.6.6.6.6 0 1.1-.2 1.5-.6.2-.3.2-.7-.1-.9-.2-.3-.6-.2-.8 0zm-18.3-2.5c.4.1.8.3 1.1.5.1.1.2.1.4.1s.4-.1.5-.3c.2-.3.1-.7-.2-.9-.4-.3-.9-.5-1.4-.7-.3-.1-.7.1-.8.4-.1.4.1.8.4.9zM60.9 67c-.2.2-.2.6 0 .9.3.3.7.6 1.2.6.3 0 .6-.1.9-.3.3-.2.3-.6 0-.9-.2-.3-.6-.3-.9 0 0 0-.2 0-.4-.2-.2-.4-.6-.4-.8-.1zm-1.4 3.3c.5.2 1 .2 1.6.2.3 0 .6-.2.6-.5s-.2-.7-.5-.7h-.1c-.4 0-.8-.1-1.3-.2-.3-.1-.7.1-.8.4 0 .3.2.7.5.8zm-.2-6.4c.2.5.8.9 1.3 1h.1c.3 0 .5-.2.6-.5.1-.3-.1-.7-.5-.7-.3-.1-.3-.1-.4-.3-.1-.3-.5-.5-.8-.3-.3.1-.4.5-.3.8zm10.4-29.7v-.5c-.1-.5-.3-1.1-.4-1.8-.1-.4-.2-.8-.4-1.2 0-.1 0-.1-.1-.2-.3-.8-.7-1.6-1.4-2.2-.2-.2-.4-.3-.7-.4-.1 0-.1-.1-.2-.1-.4-.1-.8-.2-1.2-.2-2.1 0-4.1 1.4-5.3 2.6-.2.2-.2.6 0 .9.1.1.2.1.3.2.1.6.3 1 .7 1.3.5.4 1.1.5 1.7.5 1.8 0 3.9-.9 5.1-1.6.2.5.3 1 .4 1.5-.1.2-.1.5.1.7 0 0 .1.1.1.2 0 0 0 .1.1.1l.3.3h.3c.1 0 .1 0 .2-.1.3.3.4.2.4 0zM61.6 31v-.2c.3-.2.6-.5.9-.7.4 1.1 1.4 1.6 2.4 1.6-.7.2-1.4.4-2 .4-.5 0-.8-.1-1-.2-.2-.2-.3-.4-.3-.9zm5.9-.4l-.6.3c.2-.2.3-.4.4-.6.1.1.1.2.2.3zm-1.9-1.5c-.1.4-.3.8-.4 1.3H65c-.2 0-.5-.1-.7-.2-.2-.1-.2-.2-.2-.3 0 0 0-.1.1-.2.1-.2.1-.3.1-.5.4-.1.8-.2 1.1-.2 0 .1.1.1.2.1zm3 5.2zm22.9.7c-.1-.8-.4-1.5-.9-2.2-.6-.6-1.4-1.1-2.6-1.3-.3-.1-.6-.1-.9-.1-1.5 0-2.7.7-3.7 1.5s-1.8 1.7-2.7 2.4c-.3.2-.3.6-.1.9.2.3.6.3.9.1.5-.3.9-.7 1.3-1.1l.1.1c.1.1.3.1.4.1h.1c.1 0 .4.1.6.3.9.4 2.3 1.2 3.7 1.6.4.1.9.2 1.3.2h.3c.2 0 .4-.1.7-.1.2-.1.5-.2.7-.3.1.9.2 1.8.6 2.7.1.2.3.4.6.4.1 0 .2 0 .3-.1.3-.2.4-.5.3-.8-.9-1.2-.8-2.8-1-4.3zm-4.2-2c0 .3-.1.8-.3 1l-.3.3c-.2-.1-.5-.2-.7-.4-.2-.3-.3-.7-.4-.9.4-.2.9-.3 1.4-.3h.3v.3zm-3.6 1.3c.1-.1.3-.2.4-.3.1-.1.2-.2.3-.2.1.4.4.7.6 1 .1.1.2.3.3.4-.4-.2-.7-.4-1-.5-.2-.2-.4-.3-.6-.4zm6.5 1.3c-.2.3-.4.4-.6.5-.2.1-.5.1-.8.1-.6 0-1.4-.2-2.2-.5h.6c.6 0 1.2-.2 1.7-.6.2-.2.4-.4.5-.7.1-.2.2-.4.2-.7.4.4.6 1 .6 1.7.1.1.1.1 0 .2z"/><path fill="#412C28" d="M61.9 27.1c.3.2.7.1.9-.2.3-.5 1.1-1.2 1.9-1.7.9-.6 1.9-.9 2.6-.9h.2c.6.1.8.2 1 .4.2.2.3.7.3 1.3 0 .7 0 1.5.3 2.3.1.2.3.4.6.4.1 0 .2 0 .2-.1.3-.1.5-.5.3-.8-.3-.6-.2-1.5-.3-2.5-.1-.5-.2-1-.6-1.4-.4-.4-1-.7-1.7-.8h-.4c-1.1 0-2.2.5-3.3 1.1-1 .6-1.9 1.4-2.3 2.1-.1.2 0 .6.3.8zm20.2 4c.3 0 .6-.2.7-.6.2-1.9 1.2-2.5 2.5-2.5 1.4 0 2.9 1 3.4 2.7.1.3.3.4.6.4h.2c.3-.1.5-.4.4-.8-.7-2.2-2.7-3.6-4.6-3.6-1.8 0-3.5 1.3-3.7 3.7-.1.4.2.7.5.7z"/><path fill="#412C28" d="M79.3 28.4v.5c0 .2 0 .4.1.6.1.3.3.5.6.5h.1c.3-.1.6-.4.5-.7v-.4c0-1 .6-2 1.5-2.9.9-.9 2.1-1.5 3.1-1.6.3 0 .5-.1.7-.1 1.2 0 2.2.6 3.1 1.4.9.9 1.8 2 2.8 3.1.2.2.6.3.9 0 .2-.2.3-.6 0-.9-.9-1-1.8-2.2-2.9-3.1-1-1-2.3-1.8-4-1.8-.3 0-.6 0-1 .1-1.3.2-2.6.9-3.7 1.9-.6.5-1.1 1.2-1.4 1.9-.2.4-.3.8-.4 1.2v.3zm-3 147.4z"/><path fill="#412C28" d="M114.3 133c-.8-1.4-1.8-2.5-2.2-3.9-.5-1.3-.5-2.4-1.6-3.8-.5-.6-1-1.2-1.6-1.7-1.9-1.8-4.2-3.4-6.4-4.6.5-1.1.8-2.3 1.2-3.5 1.5-5.2 2.3-11.3 2.3-16.8.1-.1.2-.2.2-.3 1.5-1.7 2.5-3.5 2.9-6.4.3-1.9.4-4 .4-6.1 0-3.5-.3-7.2-.9-10.4-.7-4.1-.2-8.8-1.7-13.1-.7-2.1-1.7-3.5-2.5-4.9-.8-1.4-1.3-2.6-1.3-4.4 0-.6.1-1.2.2-1.8.2-1.2.5-2.3.5-3.5v-.7c0-1.8-.6-3.6-2.3-5.1-.8-.8-1.4-1.1-1.6-1.4-.2-.2-.3-.5-.3-1.1v-.8c0-1.6-.2-3-.5-4.3 0-.2-.1-.4-.1-.6-.5-2.8-1.5-5.3-2.7-7.8-.4-.8-.9-1.7-1.3-2.5-.2-.4-.4-.8-.7-1.1-2.6-4.3-6.1-8.5-11.1-10.3-1.9-.7-3.8-1-5.6-1-.7 0-1.3 0-2 .1-3.3.4-6.4 1.6-9.7 2.8-4.1 1.6-6.4 3.6-8.5 7.1-1.8 3.1-4 6-5.1 9.6-.1.4-.2.7-.2 1.1-.2 1.1-.3 2.2-.7 3-.1.1-.1.2-.2.3-.4.5-.9.9-1.6 1.3-.5.3-1.1.5-1.7.8-.5.2-1.1.5-1.6.8-1.3.8-2.1 2.2-2.7 3.8-.3.8-.6 1.7-.8 2.6-.6 2.6-.9 5.4-1.1 7.3-.7 6.4.1 12.6-.9 18.8-.5.3-1 .7-1.5 1.1l-.2.2c-2.9 2.4-5.6 6.1-7.6 8.9-2.8 3.8-4.3 9.1-5.2 13.6-.4 2.3-.6 4.8-.7 7.2 0 1.3.1 2.7.2 4 .1 1.4.4 2.8.7 4.2.6 2.9 1.5 5.8 2 8.6.3 1.6.2 3.6.8 5.5.1.2.1.4.2.6.4.9.9 1.4 1.3 1.9.3.5.5.8.5 1.6 0 1.4-.6 3-.6 4.9v.7c.2 2.3 1.4 3.6 1.9 5.4.5 1.7 1.1 3.5 1.7 5.2.1.2.2.5.3.7.7 1.7 1.8 3.4 2.7 5.1.9 1.6 1.6 3.2 1.6 4.7 0 .4-.1.9-.2 1.3-.1.5-.4.9-.7 1.3-.6.8-1.5 1.4-2.3 2.3-1.3 1.5-2.4 3-3.6 4.4-1.1 1.3-2.7 2.5-4.1 3.7-1.9 1.7-2.3 3.2-3.2 5.2-.1.2-.1.4 0 .6 0 .1.1.2.2.2-.4.1-.9.3-1.3.6-.7.4-1.4 1-1.5 2.1v.3c0 .2.1.3.3.4.1.1.2.1.3.1h.2c1.7-.5 2.9-1.6 4.2-1.6.3 0 .5-.2.6-.5v-.4c.3.1.6.2.9.4-.4.7-.6 1.4-.9 2.1-.1.2 0 .5.1.6.1.1.3.2.5.2h.1c1-.2 1.8-.5 2.5-1 .3-.2.6-.6.8-.9 1.2.7 2.4.8 3.6.9v.1c0 .2.1.5.3.6.1.2.1.3.2.4.1.2.3.3.4.3h.1c.2 0 .3-.1.4-.2.5-.4 1-.7 1.5-1l.3.3c1.2.5 2.5.7 3.9.7.9 0 1.8-.1 2.7-.3 1.8-.4 3.5-1.1 4.8-2.1 1.3-1 2-2.3 2.4-3.7.1-.2.1-.4.2-.7 3.1 2.4 6.2 4.4 10.6 4.8.5.1 1 .1 1.4.1 2.7 0 5.6-.7 7.8-1.5.1.4.1.9.2 1.3v.1c.1.3.1.6.3.8.3.8 1.1 1.5 2.3 1.7.2 0 .5.1.8.1.6 0 1.3-.1 1.9-.3v.4c0 .2.1.4.3.5.1.1.2.1.3.1.1 0 .2 0 .3-.1.7-.4 1.1-1 1.3-1.6.3-.1.6-.1.8-.2 1.2-.2 2.5-.2 3.8-.3.1.2.1.5.1.8v.1c0 .3.1.5.4.6.1 0 .2.1.2.1.2 0 .3-.1.4-.2.4-.4.6-.9.7-1.5.8-.1 1.5-.2 2.2-.2.3 0 .6 0 .9.1.1.1.2.1.3.2h.3c.1 0 .3.1.4.1.1.3.1.7.1 1v.3c0 .3.2.5.4.6h.2c.2 0 .4-.1.5-.3.2-.3.4-.7.4-1.1.5.2 1 .3 1.5.3.6 0 1.2-.2 1.7-.7.2.1.3.1.5 0 .1-.1.2-.1.3-.3.1-.1.1-.2.1-.4v-.2s.1-.1.1-.2c.1-.2.1-.4.1-.5 0 0 0-.1-.1-.1.1-.2.1-.4 0-.6v-.3c0-.2-.1-.4-.2-.6v-.6c0-.1 0-.1-.1-.1 0 0 0-.1-.1-.1v-.4c.3 0 1.2.1 1.7.3.1 0 .2.1.2.1.1 0 .2.1.3.1.1 0 .3-.1.4-.1.1 0 .1-.1.1-.2 0 .1.1.1.1.2.4.7 1 1.4 1.9 1.6h.1c.2 0 .4-.1.5-.3.2-.3.3-.7.5-1.1 0-.2.1-.3.1-.5h.4c.9 0 1.8-.1 2.6-.4h.1c.2 0 .4-.1.5-.3.1 0 .2-.1.2-.1.1.3.1.6.1.9v.3c0 .2 0 .3.2.5.1.1.3.2.4.2h.1c.7 0 1.3-.4 1.6-.9.3-.5.5-1.1.5-1.7v-.4c0-.4-.1-.7-.3-1.1.1-.1.2-.3.2-.5v-.4c0-.3 0-.6-.1-.8-.1-.7-.4-1.2-.7-1.6-.1-.2-.3-.4-.4-.6-.1-.5-.4-1-.7-1.5-.2-.2-.3-.4-.5-.6v-.1c0-.2.1-.3.4-.6.4-.3.9-.7 1.6-1.3l.1-.1c3-2.7 5.6-5.9 6.9-10 .8-2.6 1.3-5.3 1.3-8.1.7-3.8-.2-7.6-2.1-10.9zM43.2 51.8c.2-1.9.5-4.6 1.1-7.1.6-2.5 1.6-4.8 3-5.7 1.4-.9 3.8-1.3 5.2-3.1 1-1.5.8-3.4 1.3-4.8 1-3.2 3.1-6.2 5-9.3.5-.9 1-1.7 1.6-2.3 1.5-1.9 3.3-3.1 6.2-4.2h.1c2.9-1.1 5.6-2.2 8.3-2.6.2 0 .4-.1.7-.1.7-.1 1.5-.2 2.2-.2 1.7 0 3.4.3 5.2.9 5 1.8 8.5 6.3 11.1 10.9 1.8 3.3 3.2 6.4 3.9 10 .2 1.1.4 2.1.5 3.2V39c0 1.2.1 1.9.5 2.5.4.6 1 .9 1.7 1.7 1.5 1.3 1.9 2.6 1.9 4.2 0 1.2-.3 2.5-.6 3.9-.1.7-.2 1.4-.2 2.1 0 2 .7 3.6 1.5 5s1.8 2.8 2.4 4.7c1.4 3.9 1 8.4 1.6 12.8.5 3.2.8 6.7.8 10.2 0 2-.1 4-.4 5.9-.6 4.2-2.3 5.6-5.6 8.6-1.7 1.6-3.4 3.7-5.4 5.2-1.4 1.1-2.8 1.8-4.3 1.8h-.7c-.4 0-.7-.1-1-.2-3.2-1-6-4.6-7.3-7.7-1.1-2.7-2.5-6.9-2.5-10v-1c.2-2.3 1-4.5 1.5-6.9.3-1.3.3-3.1.5-4.5.1-.8.2-1.5.5-2 .1-.3 0-.6-.2-.8.3-.3.5-.7.8-1 .1-.1.1-.2.2-.3.2 0 .5-.2.5-.4v-.3l.6-.3c1.6-.8 3-2 4.3-3.5 1.7-1.9 3.1-4.2 4-5.9 2.4-4.4 2.5-9.1 2.5-13.8v-2.7c0-.3-.3-.6-.6-.6s-.6.3-.6.6V49c0 4.7-.2 9.1-2.4 13.2-.9 1.7-2.3 3.8-3.9 5.7-1 1.1-2 2-3.1 2.7-.3.2-.5.3-.8.4v-.4c0-1.9-1-3.3-1.5-4.9.6.2 1.2.5 1.9.7.8.3 1.6.6 2.5.9h.2c.3 0 .5-.2.6-.4.1-.3-.1-.7-.4-.8-1.1-.3-2.2-.8-3.4-1.2-.5-.2-1.1-.4-1.7-.6-.1-.4-.1-.8-.1-1.1h1.3c1 0 2.2 0 3.1.2.9.1 1.6.5 1.6.6.1.2.3.3.5.3.1 0 .2 0 .3-.1.3-.2.4-.6.2-.9-.5-.8-1.5-1-2.5-1.2-1.1-.2-2.3-.2-3.3-.2h-1.3c0-.2 0-.4.1-.6 0-.2.1-.3.1-.5 2.6.1 5 .7 7.6 1h.1c.3 0 .6-.2.6-.5s-.2-.7-.5-.7c-2.4-.3-4.8-.9-7.4-1 .6-1.3 1.5-2.5 2.7-4 2.3-2.9 3.8-5.7 4.7-9.2.2-.6.4-1.2.6-1.9.1-.2.1-.6.2-1v-.2c.1-.1.2-.3.2-.5v-.2s0-.1-.1-.2c0 0-.1-.1-.1-.2-.1-.1-.3-.2-.4-.2-.5.1-.5.3-.6.3-.1.2-.1.3-.2.5-.1.4-.2 1.2-.3 1.3-.2.6-.4 1.2-.6 1.9-.9 3.4-2.3 5.9-4.5 8.7-.8 1-1.6 2-2.1 2.9 0-1.1.1-2.2.1-3.4 0-1.8-.1-3.7-.5-5.3-.5-1.9-1.9-3.2-3.2-4.4-1.3-1.2-2.5-2.3-2.9-3.7-.1-.2-.1-.4-.1-.6 0-1.1.8-2.4 1.1-3.9.3-1.5.3-3 .4-4.5 0-.6.1-1.3.1-1.9.2-1.6.3-3.5.7-5 .3-1.1.4-2 .4-2.8v-.7c0-.5-.1-1.1-.1-1.8 0-.2-.2-.4-.4-.5 0 0-.1-.1-.2-.4-.1-.5 0-1.3-.1-2.1-.1-.4-.1-.8-.4-1.1-.3-.4-.7-.6-1.2-.6-.3 0-.6.1-1 .2-.7.2-1.1.7-1.3 1.3-.2.6-.3 1.2-.3 1.8 0 .9.1 1.9.1 2.6v.3c-.2 1.6-.4 3.2-.7 4.8 0-.7-.1-1.3-.3-2-.3-1-.9-2-2-2.6-.8-.4-1.8-.6-3-.6-1.8 0-3.7.4-4.8 1.2-.3.2-.3.6-.1.9.2.3.6.3.9.1.6-.5 2.4-1 4-.9 1 0 1.9.2 2.4.4.8.4 1.1 1.1 1.4 1.9.2.8.2 1.8.2 2.8v.4c0 .3.3.6.6.6h.2l-.6 2.1c-1.1 3.5-3 6.6-6.2 8.7-1.6 1-2.9 2.1-3.9 3.3-1.3 1.5-2.2 3.2-2.8 5.4-.4 1.8-.9 3.6-1.1 5.5-.1-.2-.2-.5-.3-.7-1.5-2.7-1.9-6.2-1.9-9.8 0-4 .5-8.2.6-11.8 0-.3-.3-.6-.6-.6s-.6.3-.6.6c-.1 3.5-.6 7.7-.6 11.9 0 3.7.4 7.3 2.1 10.4.7 1.4 1.1 2.7 1.2 4.1-1.5.1-2.9.4-4.2.7-1.1-1.7-2.1-3.4-2.9-5.2-.5-1.2-.6-2.2-.6-3.2 0-1.1.2-2.3.4-3.8.3-1.8.4-3.4 1-5.1.4-1.3 1.7-2.8 1.7-4.6 0-.3-.3-.6-.6-.6s-.6.3-.6.6c0 1.2-1.1 2.6-1.6 4.2-.6 1.8-.8 3.5-1.1 5.3-.2 1.5-.4 2.7-.4 4 0 1.1.2 2.3.7 3.7.7 1.7 1.6 3.4 2.7 5-.5.1-1.1.2-1.6.2-.3 0-.6.3-.6.7 0 .3.3.6.6.6.8-.1 1.5-.2 2.3-.3.5.7 1 1.3 1.4 2-2.2 1.5-4.1 3.5-5 5.6-.1.3 0 .7.4.8h.2c.3 0 .5-.2.6-.4.6-1.8 2.5-3.7 4.6-5.1l.9 1.2c.2.2.4.4.5.7-.1 0-.1.1-.2.1-.2.2-.5.4-.8.6-1.2.8-2.8 1.4-4 2.7-.2.3-.2.7 0 .9.1.1.3.2.4.2.2 0 .3-.1.5-.2.7-.8 1.7-1.3 2.7-1.9.4-.2.7-.4 1.1-.7-.4 1.7-.8 3.5-.9 5.2v1c0 .4 0 .8.1 1.3 0 .2.2.4.4.5.7.3 1.4.7 2.3.9 0 .2-.1.5-.1.7 0 .9.5 1.7 1.2 2.2.5.4 1.2.6 1.9.6-.5 1.1-.8 2.4-.9 3.7-.2 1.8-.2 3.6-.5 4.8-.8 3.4-.6 7-1.5 10.1-1.4 4.7-4.2 6.3-7.5 6.3-3.5 0-7.7-2.1-10.8-4.9-.7-.6-1.8-1.6-2.9-2.5-1.1-1-2-2-2.3-2.6-.1-.2-.1-.5-.1-.7-.1-1.1 1.3-2.4 2.2-3.8 3.2-5 3.1-11.1 4.3-16.5 1.9-7 .8-13.7 1.6-20.4zm36.6 24.8c0 .4-.1.5-.4.7-.3.2-.7.3-1.3.3-1.4 0-3.3-.5-4.9-1.3-1-.4-1.9-1-2.4-1.5 1.3-.3 2.5-.6 3.4-.8 0 .4-.1.8-.1 1.2v.7c0 .2.2.4.4.5 1 .3 2 .5 3 .5.8-.1 1.5-.2 2.3-.3 0-.1 0-.1 0 0zm-10.5-3.1c-.2.1-.3.2-.3.3-1 .1-2 .2-2.9.2-.9 0-1.8-.1-2.4-.4-.5-.2-.8-.5-1-.8.1-.2.2-.5.3-.7.2-.6.5-1.1.8-1.3.9-.7 2.4-1 3.9-1 .5 0 1.1 0 1.6.1 1.5.1 3.9.5 4.6 1.4.3.4.4.8.5 1.3-1 .2-2.7.6-4.4.9-.3 0-.5-.1-.7 0zm-5.8 3.3c-.2-.1-.4 0-.6.1h-.3c-.7 0-1.3-.2-1.7-.4-.4-.3-.6-.6-.6-1v-.1c0-.1 0-.3.1-.5v-.2c.1 0 .2-.1.2-.1.6 0 1.1-.2 1.5-.6.3.4.7.7 1.2.9.8.4 1.7.5 2.7.5-.2.4-.6.7-1 1-.5.1-1 .3-1.5.4zM57.6 72c0-2.4.7-4.9 1.3-7.5.2-.2.3-.5.2-.7.5-1.9.8-3.8.9-5.8.1-.1.2-.3.2-.5 0-.1 0-.2-.1-.3.1-.5.1-.9.2-1.4 0-.9-.1-1.7-.1-2.4v-.3c.1-1.8.6-3.7 1-5.5 1-3.8 2.9-5.7 6.2-8 4.6-3 6.6-8 7.6-13.1.3-1.8.6-3.6.7-5.3v-.5c0-.8-.1-1.7-.1-2.6 0-.5.1-1 .2-1.3.1-.3.3-.5.5-.6.3-.1.5-.1.6-.1.2 0 .2 0 .3.2.1.3.2 1.1.2 1.8 0 .4.1.8.2 1.1.1.3.2.5.5.7v.2c0 .7.1 1.3.1 1.9 0 .8-.1 1.5-.3 2.5-.4 1.6-.6 3.5-.8 5.1-.2 2.2-.1 4.3-.5 6.2-.2 1.2-1.1 2.5-1.2 4.1 0 .3 0 .7.1 1 .2.5.4 1 .7 1.5.7 1.1 1.7 2 2.6 2.8 1.3 1.2 2.5 2.4 2.8 3.8.1.2.1.5.2.8.2.9.2 1.8.3 2.8V54c0 1 0 2.1-.1 3.1 0-.1 0-.2-.1-.3-.1-.4-.3-.9-.5-1.4-.9-1.8-2.7-3-4.6-3.7-1.9-.7-4-1-5.7-1H71c-1.9 0-3.9.3-5.5 1.1-.7.3-1.3.8-1.8 1.4-.2.1-.4.2-.5.4-.4.4-.6.9-.6 1.6v.3c0 .1 0 .2.1.3v.5c0 .4 0 .7.1 1.1.3 2 1.3 3.3 2.4 4.5.8.9 1.7 1.6 2.4 2.5v.2c-.1.3.1.7.5.7h.2c-.2.4-.2.8-.2 1.2 0 .5 0 1 .1 1.7h-.6c-1.6 0-3.3.2-4.6 1.2-.8.6-1.1 1.5-1.3 2.2-.3.1-.4.4-.3.7-.1.1-.1.2-.2.3-.2.1-.3.2-.6.2h-.3c-.2 0-.4.1-.6.2-.2 0-.4 0-.6-.1-.5-.1-.9-.3-1.4-.6v-.4c-.1.4-.1.2-.1.1zm.9-13.7c0 .1.1.1.1.2v1c-.1 0-.1 0-.2.1-.7.3-1.3.6-2 1-.4-.5-.8-1.1-1.2-1.6 1.1-.4 2.2-.6 3.3-.7zm-.7 2.8l.6-.3c-.1.6-.2 1.2-.3 1.7-.2-.2-.4-.5-.5-.7-.1-.1-.2-.3-.3-.4 0-.1.3-.2.5-.3zm21.5-2.8s0-.1 0 0c-.1-.2-.1-.3-.2-.4 0 0 .1 0 .1-.1v.3c.1.1.1.1.1.2zm-3.7-2.2c.1 0 .2 0 .3.1.1.1.2.2.4.2-.4 0-.8.1-1.2.2.1-.2.3-.3.5-.5zm-3.7-1.9V54h.1l.2.2c.1 0 .1.1.2.1-.1 0-.3.1-.4.2-.1-.2-.1-.2-.1-.3zm1.5 7.4c.1-.1.2-.3.3-.5.2.1.3.2.5.3-.3.1-.5.2-.8.3v-.1zm4.4-2.8c-.3-.2-.6-.3-.9-.3-.2 0-.4 0-.6.1-.3.1-.6.4-.5.7.1.3.4.6.7.5h.3c-.2.3-.7.7-1.2.7h-.2c-.5 0-.8-.1-1-.3-.2-.2-.4-.5-.4-.9 0-.5.2-.8.6-1.1.4-.3 1-.4 1.6-.4.9 0 1.6.4 1.8 1 .1.3.5.5.8.4.1 0 .2-.1.2-.1-.1.2-.3.5-.5.7-.2.2-.3.3-.5.4 0-.1.1-.2.1-.4.1-.4-.1-.8-.3-1zm-8.7 0c0 .4-.2.6-.3.8-.1.1-.3.2-.6.2s-.7-.1-.9-.3c-.3-.2-.4-.4-.4-.6v-.2c.1-.3 0-.7-.3-.8-.3-.1-.6 0-.8.3 0-.2-.1-.4-.1-.6v-.1c.5-.2 1.1-.4 1.6-.4s1 .1 1.3.3c.3.2.4.5.5 1.1v.3zm.7-1.9c-.1-.1-.2-.3-.3-.4.2 0 .4-.1.5-.1 0 .2-.1.4-.2.5zm-2.4-1zm2 4.7c0 .2-.1.4-.1.6-.1-.1-.2-.3-.3-.4.2-.1.3-.1.4-.2zm.9-2.1V58h.2c0 .1-.1.3-.2.5zm-1.1 6.2c.1-.1.2-.2.2-.3h.2c-.1.1-.2.2-.4.3zm1.8-1.1v.2c-.1 0-.2.1-.3.1l.3-.3zm9-3.8c0 .1-.1.1-.1.1l.1-.1zm2-.3c-.1 0-.2 0-.3.1l.3-.9v.8zm-4.5 16c-.7 0-1.5-.1-2.2-.3v-.1c0-.7.2-1.5.2-2.4 0-.7-.2-1.5-.8-2.2-1.3-1.5-3.7-1.7-5.3-1.9 0-.8-.1-1.4-.1-1.8 0-.4 0-.6.1-.8.1-.2.3-.4.9-.7 1.2-.7 2.9-1 4.4-1.5 1.4-.4 3.1-1 4.6-1.9.8-.5 1.4-1.1 1.9-1.8 0 .3.3.6.6.6-.1.5-.1.9-.2 1.5v.4c0 .4 0 .9.1 1.3-.1.1-.3.2-.3.4-.1.3.1.7.4.8h.1c.5 2.2 1.7 3.8 1.7 5.4 0 .3 0 .6-.1.9h-.1c-.3.1-.5.3-.5.6 0 .1 0 .3.1.5 0 .1-.1.1-.1.2-1 1.9-3.2 2.8-5.4 2.8zm-46.7 99.2c-.1 0-.2.1-.3.1 0-.1.1-.1.1-.2s.1-.2.2-.3v.4zm7.8.9v-1c.2 0 .3.1.5.3.1.1.2.2.3.4-.3.1-.6.2-.8.3zm24.9-.9c-4.4-.5-7.2-2.5-10.5-5 .1-.7.1-1.4.1-2.1 0-.7 0-1.4-.1-2v-.6c0-2.7 1-5 1.5-7.6 2.2 2.9 5.1 5.8 8.6 5.9 1.3 0 2.7-.5 4-1.5 1.2.8 2.5 1.3 3.8 1.4v.2c-.1 1.2-.4 2.7-.4 4.2 0 .5 0 1.1.2 1.6.4 1.6 1.1 2.9 1.6 4.3-2.2.7-5 1.4-7.5 1.4-.4-.1-.9-.1-1.3-.2zm12.1 2.6c-.6-.1-.9-.3-1.2-.6-.1-.1-.1-.2-.2-.3-.1-.2-.2-.5-.2-.9-.1-.4-.2-.9-.3-1.4-.4-2-1.5-3.6-1.8-5.2-.1-.4-.1-.8-.1-1.2v-.1c0-1.3.3-2.8.4-4.1v-1c0-1-.1-1.9-.1-2.8 0-.5 0-1 .1-1.5.2-2.5.3-5.4 1.5-7.3.7-1.1 1.6-2.1 2.5-3.1 1.3-1.4 2.8-2.8 4-4.6 1.6-2.4 3.8-5 5.1-7.8.6-1.2.7-2.7 1-4.1.2-.9.3-1.8.6-2.5.3 0 .6-.3.6-.7v-.5c0-.3-.2-.5-.4-.6-.3-.1-.5 0-.7.2-.8 1-1 2.4-1.3 3.8-.2 1.4-.4 2.8-.9 3.7-.6 1.3-1.5 2.7-2.4 4-.9 1.2-1.8 2.4-2.6 3.6-1.8 2.7-4.5 4.7-6.4 7.7-1.5 2.4-1.5 5.4-1.7 7.8-.1.6-.1 1.1-.1 1.7v2.4c-1 0-2.1-.5-3.2-1.2 0-.1-.1-.2-.1-.3-.1-.2-.4-.2-.6-.2-.1-.1-.2-.2-.4-.3-1.5-1.1-2.8-2.4-4-3.2-.3-.2-.7-.1-.9.2-.2.3-.1.7.2.9 1 .6 2.3 1.9 3.7 3l.2.2c-.3.2-.6.4-.9.5-.5.3-1.1.4-1.6.5h-.5c-.7 0-1.4-.2-2.1-.5-2-.9-4-2.9-5.6-5.1-.1-.1-.2-.2-.3-.2h-.4v-.4c0-.4.1-.7.1-1.1v-.9c0-4.7-1.9-7.8-5.2-11.2-1-1-1.8-2-2.5-3-1-1.4-1.6-2.9-2-4.5-.4-1.6-.6-3.4-.6-5.4 0-.3-.3-.6-.6-.6s-.6.3-.6.6c0 1.4.1 2.6.2 3.8.5 3.3 1.7 6.1 4.1 8.8.3.4.7.8 1.1 1.1 3.2 3.3 4.8 5.9 4.8 10.3v.9c-.1 3.4-1.9 6.4-1.9 10.3v.6c0 .6.1 1.3.1 2 0 .5 0 1.1-.1 1.6-.1 0-.2.1-.3.2-.2.3-.2.7.1.9-.3 1.7-.9 3.2-2.3 4.3-1.7 1.3-4.3 2.1-6.7 2.1-.8 0-1.5-.1-2.2-.2 0-.1-.1-.1-.1-.2h.1c.2-.1.3-.2.4-.3.1-.2.1-.3 0-.5-.2-.5-.5-.9-.9-1.3-.3-.3-.6-.5-1-.6.1-.2.1-.4 0-.6-.2-.3-.5-.4-.9-.2-.6.3-1.1.9-1.6 1.6l-.6 1.2c-.9 0-1.7-.1-2.4-.3-.1-.1-.2-.3-.4-.3-.4-.1-.6-.1-.8-.2-.1-.1-.2-.1-.3-.2h-.1c-.1-.8-.4-1.5-1.1-2.4-.2-.3-.6-.3-.9-.1-.3.2-.3.6-.1.9-.2.2-.4.5-.6.7-.2-.1-.4-.2-.6-.2v-.4c0-.2-.2-.3-.3-.4-.2-.1-.4-.1-.5 0-.1.1-.3.1-.4.2h-.1l-.2-.2c-.1 0-.1-.1-.2-.1s-.1-.1-.2-.1c-.1-.1-.3-.1-.5-.1.7-1.6 1.1-2.7 2.5-4 1.3-1.2 3-2.4 4.2-3.8 1.3-1.4 2.4-3 3.6-4.4.3-.3.6-.6 1-.9.9-.8 1.9-1.7 2.3-3.2.1-.5.2-1.1.2-1.6 0-2.2-1-4.1-2.1-6-.9-1.5-1.8-2.9-2.3-4.3-.7-1.9-1.3-3.9-1.9-5.8-.7-2.1-1.7-3.3-1.9-5.2v-.6c0-1.6.6-3.2.6-4.9 0-1-.3-1.8-.8-2.3-.4-.6-.8-1-1.1-1.7-.7-1.5-.6-3.7-.9-5.7-.5-2.9-1.3-5.8-2-8.6-.6-2.5-.8-5.2-.8-7.9 0-2.4.2-4.8.6-7 .8-4.4 2.4-9.5 4.9-13.1 2.2-3 5.1-6.9 8-9.1-1.2 5.5-1.2 11.2-4.1 15.7-.7 1.2-2.3 2.5-2.4 4.5 0 .4.1.8.2 1.2.4 1 1.5 2 2.6 3s2.3 2 2.9 2.5c2 1.8 4.4 3.4 6.9 4.3 1.6.6 3.2.9 4.7.9 3.8 0 7.2-2.1 8.7-7.2 1-3.4.8-7.1 1.6-10.2.4-1.5.4-3.3.6-5 .2-1.5.5-2.9 1.1-3.9.7-.1 1.4-.4 2.1-.7.8-.5 1.4-1.2 1.7-2.1.7-.1 1.4-.1 2-.3.1.2.2.3.4.5v.1c0 2.7.4 5.4.4 8 0 .9 0 1.7-.1 2.6-.2 1.6-.8 2.4-1.7 3-.9.6-2.2 1-3.7 1.5-.3.1-.5.5-.4.8.1.3.3.4.6.4h.2c.6-.2 1.2-.4 1.7-.6-1.6 2.8-3.9 5.5-5.7 8.4-2.2 3.5-4.1 6.6-7.9 8.1-.3.1-.5.5-.3.8.1.3.5.5.8.3 4.2-1.7 6.3-5.1 8.5-8.6 1.5-2.5 3.5-4.8 5.1-7.3 0 2.2-.2 4.3-.2 6.4 0 2 .2 4 1.1 5.8.9 1.8 2.5 3.3 5.1 4.4.1 0 .2.1.2.1.2 0 .5-.1.6-.4.1-.3 0-.7-.3-.8-2.4-1-3.7-2.3-4.5-3.8-.8-1.5-1-3.2-1-5.2s.2-4.3.2-6.7c0-.6 0-1.3-.1-2v-.2c.3-.1.5-.3.7-.4.5-.4 1-.8 1.4-1.4.4.9 1 1.7 1.8 2.3 1.2 1 2.7 1.8 4 1.8.3 0 .6-.2.6-.6 0-.3-.2-.6-.6-.7h-.1c-.9 0-2.2-.6-3.2-1.5s-1.7-2-1.7-2.9c0-.1 0-.2-.1-.3 0-.2.1-.4.1-.6.1-.9.2-1.8.2-2.8 0-2.4-.3-4.8-.4-7.1.5.3 1.1.6 1.7.9 1.8.8 3.8 1.4 5.4 1.4.7 0 1.4-.1 2-.5.6-.3 1-1 .9-1.7v-.5c.4-.2.8-.4 1.2-.7-.4 1.3-.5 2.9-.6 4.3-.1.6-.1 1.2-.2 1.7-.4 2.2-1.2 4.5-1.5 7 0 .4-.1.7-.1 1.1v.7c-.1 0-.2.1-.2.2-1.6 2.3-3.8 4.8-6.8 4.8h-.5c-.3 0-.6.2-.7.6 0 .3.2.6.6.7h.6c3.1 0 5.3-2 6.9-4 .1-.2.2-.3.3-.5.4 2.8 1.5 5.9 2.3 8.1.9 2.2 2.5 4.7 4.5 6.4 1.4 1.2 3 2.1 4.8 2.3.3 0 .6.1.8.1 2 0 3.7-.9 5.2-2.1 2.1-1.6 3.8-3.8 5.4-5.2.6-.5 1.1-1 1.6-1.4-.1 5-.9 10.6-2.3 15.2-.3 1.1-.7 2.2-1.1 3.2 0 0-.1 0-.1-.1-.3-.2-.7 0-.8.3-.2.3 0 .7.3.8h.1c-.1.2-.1.4-.1.6-.3.6-.6 1.1-.9 1.7-1 1.6-2.8 3.1-3.8 4.8-.2.3-.1.7.2.9.1.1.2.1.3.1.2 0 .4-.1.5-.3.1-.2.3-.5.5-.7-.1 3.2-.7 5.6-3 8.8-2.8 4-7.9 7.3-9.3 12.5-.2.8-.4 1.8-.4 2.7-.1.6-.1 1.2-.1 1.8 0 1.8.2 3.7.7 5.2.2.7.5 1.4.9 2.1.9 1.5 2.1 2.9 3.2 4.3.7.9 1.5 1.8 2 2.7.2.2.1.4.2.9 0 .2.2.5.4.7v.2c0 .1 0 .1.1.2l.1.1.1.1.1.1.1.1c.1.1.1.2.2.2.1.1.7.4 1.2.7v.1c0 .2.1.3.3.4 0 .3.2.6.4.9v.1c0 .3.1.3.1.3.1.1.1.1.1.2 0 0 0 .1.1.1-.1.1-.1.3-.1.4 0 .2.1.4.2.6l-.1.1c-.1.1-.1.2-.1.3 0 .4.1.4.2.4.1.1.1.1.2.1-.1.1-.1.2-.1.3 0 .3.1.5.3.7l.1.1-.1.1c-.1.2-.2.4-.1.6-.1 0-.1.1-.1.2-.3.6-.6.7-1.1.7-.5 0-1.1-.2-1.6-.4l-.3-.6c-.2-.3-.5-.6-1-.8-.2-.2-.4-.4-.7-.6-.3-.2-.7-.1-.9.2-.2.3-.1.7.2.9.1 0 .1.1.2.1-.3 0-.7-.1-1-.1-.7 0-1.4.1-2.1.2 0-.3-.1-.6-.3-.9-.3-.4-.8-.7-1.4-.7-.2 0-.4 0-.5.1-.2 0-.4.2-.4.4 0 .1 0 .1-.1.2-.3-.1-.7.1-.8.4-.1.3.1.7.4.8-.9.1-1.9.1-2.8.2-.2 0-.4.1-.6.1-.1-.3-.2-.6-.4-.9-.3-.4-.8-.7-1.5-.7-.2 0-.5 0-.8.1-.1 0-.3.1-.3.3v-.1c-.2-.3-.6-.3-.9-.1-.3.2-.3.6-.1.9.4.6.9 1 1.2 1.4-.2 0-.3.1-.5.1-.3.1-.6.1-.9.1.7.1.5.1.3.1zm3.4-.6s0-.1.1-.1l-.1.1c.1 0 0 0 0 0zm17.4-3.2zm4.9-1v-.4c0-.2 0-.5.1-.8.1-.3-.2-.6-.5-.7-.1 0-.3 0-.4.1-.1-.1-.1-.2-.2-.2s-.1-.1-.2-.1c.3-.2.8-.3 1.2-.4.1.4.2.9.2 1.4 0 .3-.1.7-.2 1.1zm1.4-.6v-.5c0-.7-.1-1.5-.4-2.2-.1-.2-.3-.4-.5-.4h-.4c-.6 0-1.3.1-1.8.4-.1 0-.1.1-.2.1 0-.1 0-.1-.1-.2-.2-.7-.3-1.5-.3-2.2v-.6c0-.3-.2-.6-.6-.7-.3 0-.6.2-.7.6v.6c0 .8.1 1.7.3 2.6.1.3.2.6.4.9v.2c-.2.2-.3.5-.1.8.1.1.2.5.4.9-.8-.3-1.9-.4-2.4-.4h-.2c-.1-.3-.1-.2-.1-.5 0-.1 0-.2-.1-.3 0-.1-.1-.1-.2-.2-.2-.2-.2-.2-.2-.4 0-.1 0-.3.2-.6 0-.1.1-.1.1-.2.1-.3 0-.7-.3-.8-.3-.1-.6-.1-.8.2-.2-.1-.4-.3-.6-.4-.1-.1-.3-.2-.4-.2.1-.1.1-.2.1-.4 0-.3-.2-.5-.5-.6-.3-.1-.4-.1-.4-.2l-.1-.3c0-.2 0-.4-.1-.7.1-.1.1-.2.1-.4v-.1c.1-.1.4-.2.8-.2.4-.1.7-.1 1.1-.2.1 0 .3-.1.4-.1.3-.1.5-.3.7-.4.6-.4 1-.9 1.5-1.1 1.1-.6 1-.7 2.4-.7.7 0 .9.1 1.1.2.2.1.6.4 1.1.6 1 .4 1.9.4 2.6.6.1 0 .2.1.3.1.3.1.5.2.7.3.1.3.3.6.4.9.3.4.5.8.8 1.1.1.2.1.4.2.7.1.5.2 1 .4 1.5-.1 0-.2 0-.2.1-.1.1-.3.2-.3.4 0 0-.1 0-.1.1-.2.1-.3.3-.3.5-.2-.2-.6-.3-.8-.1-.3.2-.4.6-.2.9.1.1.2.3.3.4-.1.1-.2.1-.3.2-.3-.2-.5-.4-.6-.8-.2-.5-.3-1.3-.3-2 0-1.1.1-2.4.2-3.3 0-.3-.3-.6-.6-.6s-.6.3-.6.6c0 .8-.1 2.1-.1 3.3 0 .8.1 1.7.3 2.5.1.3.2.6.4.8-.4.1-.8.1-1.2.1-.1-.2-.1-.2-.2-.2zm5.2-.8v.5c0 .4-.1.8-.2 1v-.1c.1-.1.2-.2.2-.4v-1zm3-13c-.9 1.1-1.9 2.1-3 3.1-.6.5-1.1.9-1.6 1.2-.3.3-.6.6-.8 1-.2-.1-.5-.2-.7-.2-.8-.2-1.6-.2-2.4-.5l-1-.5c-.4-.2-.9-.3-1.7-.3-1.4 0-2 .3-3 .9-.9.6-1.3 1.2-2 1.5-.2.1-.9.2-1.5.3-.3.1-.6.1-1 .3-.1 0-.2.1-.3.2-1.9-2.7-4.7-5.3-5.4-7.9-.4-1.4-.7-3.1-.7-4.9 0-1.5.2-3 .5-4.2 1.2-4.6 6-7.9 9.1-12.1 2.7-3.7 3.2-6.8 3.2-10.8v-.2c.7-.8 1.5-1.7 2.1-2.6 0-.1.1-.1.1-.2.3 1.1.6 2.2.7 3 .1.8.2 1.7.2 2.5 0 1.4-.1 2.8-.1 4.2-.1 5.6-2.7 11.5-5.5 16.4-.2.3-.1.7.2.9.1.1.2.1.3.1.2 0 .4-.1.5-.3 2.9-5 5.6-11 5.7-17 0-1.3.1-2.8.1-4.2 0-.9 0-1.8-.2-2.7-.2-1.5-1-3.3-1-4.5v-.2c0-.1.1-.2.1-.3 2.8 1.5 5.6 3.6 7.5 6 .9 1.2.9 1.9 1.4 3.4.6 1.6 1.6 2.8 2.3 4.1 1.8 3.1 2.6 6.7 2.6 10.4 0 2.3-.3 4.6-1 6.8l-.3.9c-.5 2.4-1.8 4.5-3.4 6.4z"/></svg>