<svg version="1.2" baseProfile="tiny" xmlns="http://www.w3.org/2000/svg" viewBox="0 0 124.5 203"><path fill="#D5861C" d="M54.7 159.6c-.3 2.7-.7 5.4-.7 8.4h.6c.3-2.8.3-5.6.1-8.4zm-1.9-18.4c0 .1.1.2.1.3.5 0 .9-.1 1.3-.4-.1-.1-.2-.1-.3-.2-.3-.1-.7.4-1.1.3zm32.6 37.9l2.1-.6c-.7.2-1.4.3-2.1.6 0-.1 0-.1 0 0zM78 168.4l-.3-1.2c-.4-1.8-1.5-3.4-2.3-5.1.2.5.3 1 .5 1.5.4 1 1.2 2.8 2.1 4.8zm-5.4-22.6c.1-2 .2-4 .2-6v-1.4c-.2.1-.4.1-.6.2-.1 2.4.1 4.8.4 7.2zm39.2 49.9c.4-.1.9-.3 1.3-.4-.4.1-.8.2-1.3.4zm-56.1-53.6c.1 0 .1 0 0 0v-.1.1z"/><path fill="#D5861C" d="M74.5 176c-1.1-.2-3.8-.7-4.3-1.5v-.1h-.1v-.2c-.3-1.2.7-3.3.2-4.3-.2-.4-.5-.7-.8-.9-1 .2-2 .2-3 .4-1.1.6-2.4 1.3-3.6 1.5h-.5c-.3.1-.5.1-.8.1-.2 0-.5 0-.7-.1-.4-.1-.8-.2-1.1-.4-1.5-.5-2.9-1.2-4.4-1.7-.9 0-1.8.1-2.7.1v-.8h.3c0-4.4.8-8.1 1.1-12.1-.1-.6-.2-1.1-.2-1.7-.2-1.6-.1-2.9.3-4.1v-.5c0-.6 0-1.2.1-1.8.2-1.6.8-3.1 1.5-4.4h-.2c-.2 0-.3-.1-.4-.3-.1-.4-.3-.8-.5-1.3-.5.4-1.1.6-1.8.6h-.4c-.2.7-.4 1.3-.7 2-1.7 4.1-1.9 8.7-1.9 13.4.2-.1.5.1.5.3.1.2-.1.5-.3.5-2.4.7-4.4 2.3-6.9 3.3-.9.4-2.2.6-3.6.9-1.3.4-2.5.8-3.5 1.2v-.2c-.1.1-.2.2-.3.2-.1.1-.2.2-.3.2-.1 2-.2 4.1-.6 6.1-.1.4-.1.7-.2 1v2.3c.2.5.6 1.1 1.2 2.2.2.4.5.8.7 1.2 0-.2.1-.4.1-.6v-.8c.1-2.5 1-5 3.9-4.8 2.1.1 3.6 1.3 5.1 2.7 1.1.7 2.1 1.3 3 1.7 5.7 2.5 11.1 3.9 17.6 4.6 1.3.1 2.6.2 4 .2 3.8 0 7.6-.5 11.5-.9.7-.1 1.3-.2 2-.3-.4-.5-.9-.9-1.4-1.4-2.1.1-6.1-1.1-7.9-1.5zm4.2-40c.2 0 .4.1.6.1.5-1.4 1.3-2.7 2.3-3.8-.3.1-.7.3-1 .5-.7.6-1.5 2-1.9 3.2zm5.8-7.3c.1-.9.1-1.7.1-2.6v-2.4c-.2.8-.4 1.6-.5 2.4-.2 1 .1 1.8.4 2.6zm-10.9 9.4v.3l.6-.6c-.1 0-.2.1-.3.1-.1.1-.2.1-.3.2zm43.9 53.8c-1.4-1.7-2.6-3.6-4.1-5.2-.2-.2-.3-.4-.5-.5.6 1.5 1.4 3 2.1 4.7.3.9.6 1.5.6 2.2 0 .4-.1.8-.4 1.1.9-.6 1.7-1.3 2.3-2.3zm-31.7-79.5v1.3c0-.3.1-.6.1-.9v-.7c-.2-2.3-.5-4.3-.5-6.7v-.4h-.1c-.5 2.1.3 5 .5 7.4zm-34.1 27.5c0-.1.1-.2.2-.3-.1-.1-.2-.3-.3-.4 0 .2 0 .5.1.7zm31.1-49.2c-.1-.1-.1-.2-.2-.3-.4.6-.9 1.2-1.3 1.7.9-.3 1.4-.8 1.5-1.4z"/><path fill="#D5861C" d="M95.1 175.5c.1-.6.3-1.2.6-1.6-.1-.8-.2-1.6-.2-2.4-.2-3.3-.5-7.2-1.6-10.3-1-2.9-2.9-5.3-3.8-8.3-.7-.2-1.2-.5-1.7-.5-.2 0-.3-.1-.4-.3v-.2c0-.1-.1-.1-.1-.2-.1-.1-.2-.3-.2-.5s0-.3.1-.4c.1-.2.3-.3.4-.2.2 0 .3.2.3.3v.1c0 .1 0 .2.1.3 0 .1 0 .2.1.3.7.1 1.3.5 1.7.6.2 0 .3.1.4.3.8 2.9 2.8 5.4 3.9 8.5 1.1 3.3 1.4 7.1 1.6 10.5 0 .6.1 1.2.2 1.7.2-.1.5 0 .6.2.1.2 0 .5-.2.6-.1.1-.2.1-.3.2.4 2.9 1.2 5.7 1.5 8.7.1 1.3.3 2.8.3 4.2 0 .4 0 .9-.1 1.3 0 .3-.1.5-.1.8.1.1.1.2.1.3 0 .1 0 .2-.1.4l-.2.2c-.3 1-.7 2-.7 2.8 0 .2 0 .4.1.6.2.5.6 1 1.2 1.4v-.3c0-.2.3-.4.5-.3.2 0 .4.3.3.5v.4h.3c.2.1.3.2.3.4h.1c1.3.4 2.8.6 4.3.6.1-.2.2-.3.4-.3.1 0 .3.1.3.2 0 0 .1 0 .2-.1.1 0 .2 0 .2.1.8 0 1.5-.1 2-.2l1.2-.3v-.4c0-.2.2-.4.4-.4s.4.2.4.4v.2c.2 0 .3-.1.5-.1v-.2c0-.2-.1-.4-.1-.7 0-.2.2-.4.4-.4s.4.1.5.3c0 .2.1.4.1.7v.1c.8-.2 1.6-.4 2.2-.6.7-.2 1.1-.4 1.3-.6.2-.2.3-.4.3-.6 0-.4-.2-1-.5-1.9-.8-2.2-2-4.2-2.7-6.4-.3-.3-.5-.7-.7-1-1.8-3.6.2-8.7 1.4-12.3.2-.6.4-1.3.5-1.9.1-.9.1-1.7.1-2.6 0-5.1-.7-10.1-1-15.3-.2-3.1-.8-5.5-.8-8.1 0-1.6.2-3.4 1-5.3.9-2.4 1.3-4.8 1.3-7.2 0-7-3.2-14.1-5.2-20.8-1-3.3-1.9-6.7-3.1-9.9-.5-.5-.9-1-1.3-1.6-.9-1.6-1.5-3.2-2.2-4.8-.5-.5-.9-1-1.5-1.5-1.6-1.4-4.8-2.3-6.3-4.2-1.6-2.2-1.9-5.8-2.6-8.7 0 .4-.1.8-.3 1.1-.7 1.8-2.2 3-3.6 4.1-.7.8-1.6 1.7-2.5 2.6-.2.2-.4.4-.6.7-.2.3-.5.7-.7 1.1.1.1.1.2.1.3v.2c0 .2.1.4.2.7.1.6.3 1.3.6 2 .1.4.2.8.4 1.3.9 1.5 1.5 3.1 1.9 5 .2 1.1 1.1 4.4.3 5.7v.1c0 .1-.1.2-.1.3-.1.1-.2.1-.3.1-.1 0-.2.1-.3.1v.4c0 2.3.3 4.3.5 6.6v.8c0 2.3-.8 3.9-1.1 5.6 0 .3-.1.5-.1.8v.3c-.1 1.1-.1 2.1-.1 3.2v3.5c0 1.4 0 2.8-.2 4.2.3.7.4 1.4.4 2.2-.3 0-.5 0-.8-.1 0 .1-.1.2-.1.4 0 .1-.1.2-.3.3H84c-.2-.2-.8-.2-1.4-.6-1.3 1.1-2.2 2.6-2.7 4.3 0 .1-.1.2-.2.3-.1.1-.2.1-.3 0-.2-.1-.5-.2-.9-.2v.1c-.9-.1-1.5-.2-2-.1-1 .9-2 1.8-2.9 2.8v.1c0 2.6-.2 5.2-.2 7.7 0 1.3.1 2.7.3 4 .4 2.6.6 5.2 1.3 7.6.8 2.7 2.8 4.9 3.5 7.8.7 2.6 1.5 4.7 2.6 7 .6.8 1.1 1.6 1.7 2.1h.2v.1c.2.2.4.3.5.4-.1.1-.1.1-.2.1.5.5 1 1 1.5 1.6 2.3-.5 4.8-1.2 7.2-1.3.8-.2 1.6-.4 2.7-.3v.4s.1 0 .1.1c.1-.8.2-1.4.3-1.9z"/><path fill="#D5861C" d="M82.9 90l-.2.2c.1.2.1.3.1.5.1.2.3.4.4.6-.1-.3-.1-.5-.2-.8 0-.1-.1-.3-.1-.5zm-25.8 52.5c-.7 1.7-1.6 3.3-1.9 5 .8-1.6 1.6-3.2 2.1-5.1-.1 0-.1.1-.2.1zm40.4 46v-.2c0-.4.1-.9.1-1.3 0-1.4-.2-2.7-.3-4.1-.3-2.6-.9-4.9-1.3-7.4v.2c-.2.9-.3 1.9-.7 2.7 0 .1-.1.2-.2.2-.2 2.4-1.8 5-2.1 7 0 .3-.1.5-.1.7.7 1.6 2.5 2.2 4.6 2.2zm12.3 7.6zm-27.9-16.5c-3.8.4-7.7.9-11.6.9-1.3 0-2.7-.1-4-.2-.9-.1-1.7-.2-2.6-.3.7.2 1.5.4 2.2.5 5.3 1.1 10.5.6 15.7-.6 1-.2 1.9-.4 2.9-.7 0 0 0-.1-.1-.1-.8.3-1.7.4-2.5.5zm-45.7 16.8c-.5.1-1 .5-1.8.6v.2c.1.2 0 .3-.1.4v.1c0 .1-.1.2-.1.3 1.7.1 2.8-.8 3.9-1.6h-.8c-.3-.1-.6-.1-1.1 0zM19.3 187c.1.1.1.2.2.3v-.1l-.2-.2zm13.1 9.5c-.6-.4-1.1-1-1.6-1.7-.7-.9-1.3-1.9-1.7-2.5-.7-.9-1.3-1.9-1.9-2.9h-.3v.6c0 .1.1.2.2.4s0 .5-.2.6h-.2c-.1 0-.1.1-.2.1s-.2 0-.3-.1c-.1-.1-.1-.2-.1-.3v-1.2c-.5 0-1 0-1.5-.1v.1c0 .2-.1.4-.3.5h-.1c-.1 0-.2-.1-.3-.1-.1.1-.2.1-.4 0-.1 0-.2-.1-.2-.2-.2-.2-.3-.4-.4-.6-.6-.2-1.2-.4-1.7-.7 0 .1-.1.2-.1.2s-.1 0-.1.1c-.1 0-.1.1-.2.1l-.1.1c.6.7 1.2 1.3 2.1 1.7 1.7.7 3.4.3 5 1.4 2.9 2.1 1.4 5 5.8 5.9h.2c-.4-.5-.7-.9-1.1-1.3-.3 0-.3-.1-.3-.1zm-19-45.4c.1.6.1 1.1.2 1.6 1.2 5.3 4.4 8.8 7.9 12.9-1.2-4.1-2.3-7.8-3-12.2-.2-1.7-.3-3.4-.3-5.1v-3.7c0-3.8 1-5.4 2.1-8.5.4-1.1.5-2.3.5-3.5 0-.7 0-1.4-.1-2.1-.4 1.5-1.5 2.9-2.8 4.3-1.5 1.7-3.2 3.3-3.8 4.6-.2.3-.3.7-.5 1-.8 3.4-.6 6.9-.2 10.7zm22.9-61.2c.1-.5.1-1.1.1-1.7-.1.7-.1 1.3-.1 1.7zm53.9-9.6c.1-.2.1-.3.1-.5-.1.3-.2.5-.3.8.1-.1.1-.2.2-.3zm-67.7 91.1c0-.2.2-.4.4-.4h.1c-.2-1.1-.5-2.2-.8-3.3-.5-.6-.9-1.1-1.4-1.7.6 1 1 2 1.2 3 .2 1.3.3 2.9.3 4.4.1-.6.2-1.1.2-1.7v-.3zm24.6-12.5c.7-.3 1.3-.7 2-.9v-2c-.4 1.1-1.1 2.1-2 2.9zm-11-75.2c-.4.3-.7.7-1 1.1l-1.2 2.1c.7-1 1.4-1.9 2.1-2.8.1 0 .1-.2.1-.4zm15.4 59c.1-.5.3-1 .3-1.4-.1-.2-.1-.4-.2-.6.1.7 0 1.3-.1 2zM38 138.9c-.1.4-.1.9-.2 1.3-.4 3-1.8 5.5-1.8 8.4v8.5c0 1.3-.1 2.5-.3 3.7 0 .4 0 .9-.1 1.3v1c.2-.2.5-.3.8-.4.9-5.7.6-11.5.9-17.2.1-2.4.8-4.4.7-6.6zm-17.8-9.3v-.2c0-.2.1-.4.4-.5h.1c-.1-.9-.2-1.9-.4-2.8-.6 3.4-1.9 6.5-4.2 9.6-.1.1-.2.3-.3.4.5-.6 1.1-1.2 1.6-1.8 1.5-1.6 2.8-3.4 2.8-4.7zm.3 58.4l-.1-.1v.2c0-.1.1-.1.1-.1zm29.2 3.7c.5 1 .8 1.7.8 2.3v.2c.1.1.1.1.1.2.1 0 .2.1.2.2.1.2 0 .5-.2.5h-.1c0 .1-.1.1-.2.2.4 0 .9 0 1.3-.1 1.6-5.1-8.7-11.1-12-13.5-.2-.2-.5-.4-.7-.6.1.1.2.3.3.4 2.6 3.8 8.2 5.9 10.5 10.2zm-26.4-19c-.2 1.9-1.1 3.6-2.1 5.2-1.1 1.9-2.1 3.7-2.3 5.5v.4c0 1.6 1 2.8 2.4 3.6.5.3 1 .5 1.5.7 0-.1.1-.2.2-.2.2-.1.5 0 .5.2v.1c.1-.2.3-.3.5-.2.2.1.3.3.3.5v.1c.6.1 1.3.2 1.9.2h.6c-1.4-2.5-2.4-5.1-2.7-7.9-.3-3-.5-5.6-.8-8.2zm90.2-11v-1.6c0-4.1-.1-7.7-1.1-11.6-.1-.3-.1-.6-.2-.9.2 1.2.3 2.6.4 4 .3 3.4.7 6.8.9 10.1zm-63.7 33.5c-.1.1-.2.1-.3.1h.5s-.1 0-.2-.1zM92.1 77.6l-.4.4c0 .1.1.2.1.3.1-.3.2-.5.3-.7zm.3 106.4c.5-1.7 1.5-3.5 1.7-5.1-.6 1.7-1.6 3.4-1.7 5.1zm21.8-53c0 1.1-.1 2.2-.3 3.3v-.1c1.1-2.7.9-5.2.5-8.1-.7-5.8-2.5-11.3-4.5-16.8-.8-2.2-1.6-4.5-2.8-6.5-.2-.4-.5-.7-.7-1 .9 2.7 1.7 5.4 2.5 8 2 6.9 5.3 14 5.3 21.2zM28.3 96.3c-.4.9-.5 1.9-.7 3 .6-1.5 1.3-3 2-4.5-.5.5-1 .9-1.3 1.5zm71.8-4.9c-.5-.7-1.2-1.3-2.1-1.8-1.6-1-2.8-1.3-3.8-2 0 .1.1.1.1.2 1.2 1.3 4 2.3 5.8 3.6z"/><path fill="#D5861C" d="M37.1 179.3c-.1.2-.3.3-.5.3s-.4-.3-.3-.5c.1-.4.1-.7.2-1.1-.3-.7-.7-1.4-1.1-2-.2-.3-.4-.6-.5-.8v1H34v-2.7c-.1-.3-.1-.6-.2-1 0-.4.1-.9.2-1.5 0-1.6.1-3.3.2-4.9.2-1.9.5-3.7.7-5.5 0-.6.1-1.2.1-1.8v-1c0-.1 0-.5-.1-.9v-.2c-.1-.1-.2-.2-.2-.3v-.3c0-.1 0-.1.1-.3 0 0 .1-.2.4-.2h.1v-6.9c0-3.1 1.4-5.7 1.8-8.5.2-1.6.4-3.3.4-4.9-.3-1.4-.4-2.9-.2-4.4.1-.5.2-1.1.3-1.6 0-1 .1-2 .1-3 .2-4.5 1.2-8.9 1.8-13.2 0-.2.1-.4.1-.6 0-1 .1-2.1.2-3.1.3-2.1.7-3.7.2-5.5-1.1-1.3-2.1-2.8-2.6-3.9-1.4-2.8-1.9-6.3-2-9.4v-.1c0-.9.1-2.6.4-4.5-4.5 5.8-7.3 13.3-10 20.1-2.2 5.7-4.3 9.9-4.8 15.9 0 .4-.1.8-.1 1.2 0 3 .9 6.4.9 9.6 0 1.3-.1 2.6-.6 3.8-1.1 3.2-2 4.7-2.1 8.2v3.7c0 1.7.1 3.3.3 4.9.8 5 2 9.1 3.5 13.9.3.3.5.6.8 1 .1.2.1.4-.1.6-.1.1-.2.1-.3.1 1 3.9 1.1 7.7 1.5 11.8.4 4 2.4 7.7 4.9 11.2.4.6 1 1.6 1.7 2.5.7.9 1.4 1.6 2 1.8 0-.1.1-.3.1-.4.1-.2.2-.3.4-.2.2 0 .3.2.4.3v.4c.5-.1.9-.4 1.6-.6.5-.1.9-.1 1.3-.1s.8 0 1.3.1c0-.1.1-.1.1-.1.2-.1.3 0 .4.1.1 0 .1-.1.2-.1v-.1c0-.2.1-.4.4-.4.1 0 .2 0 .3.1.5-.2 1-.4 1.7-.5h.2s.1 0 .1-.1c.4-.2.9-.3 1.4-.3 1.1 0 2.5.3 3.7.5 0-.1 0-.2.1-.3.1-.2.4-.2.6 0 .1.1.5.3.8.5h.1v-.6c0-.2.1-.3.2-.4.1-.1.3-.1.5 0 .1 0 .1.1.2.1 0-.4-.2-.9-.6-1.7-2.1-3.9-7.6-6.1-10.4-10.1-.5-1.3-1-2.2-1.4-3.1z"/><path fill="#F4F1EA" d="M65.5 100.9l.2.3c-.1 0-.3.4-.5 1s-.4 1.3-.5 2.1c-.1.7-.3 1.4-.4 2 .4-1.8.7-3.7 1.6-5.5-.2.1-.3.1-.4.1zm-13.9 38.3c.1.2.2.3.3.5h.2v-1.2c0-2.5-.5-5.1-.8-7.7-.1-.6-.1-1.3-.2-1.9l-.3 2.7c-.1 2.6.4 5 .8 7.6zm-1.1-25.1c-.3-1.4-.7-2.8-1.1-4.2l.9 3.6c.1.2.1.4.2.6z"/><path fill="#F4F1EA" d="M49.2 95.2c-1.7-.9-3.2-2-4.5-3.3 0 .4.1.9.1 1.3.6 1.3 1.3 2.6 1.7 3.9.6 2.2 1 4.3 1.7 6.4 1.4 4.3 3.1 8.5 3.6 13.2.2 1.7.2 3.5.2 5.2v3.6c0 1.7 0 3.5.2 5.1.3 2.6.8 5.2.8 7.8 0 .9-.1 1.8-.2 2.7v.1c.5.1.8-.4 1.1-.2.1.1.2.1.3.2.2-.1.4-.3.5-.5.1-.1.3-.2.5-.1s.3.2.3.4v.1c0 .4.1.6.2.9 0 0 .1 0 .1.1.1-.1.3-.2.4-.2.1 0 .2 0 .3-.1.1-.2.1-.3.2-.5 1.3-3.4 1.2-7.9 1.4-11.9.2-3.3.8-6 1.6-8.8.3-2 .7-4 1.2-6.1.3-1.2.8-2.2 1.4-3.2.3-1.1.5-2.1.8-3.2.3-1 .6-4.2 1.2-6.1.2-.4.3-.8.5-1.1-.8-.1-1.7-.2-2.5-.4-2.8-.4-5.5-1.5-8.2-2.8-.7-.3-1.4-.6-2.2-.9-.7-.4-1.7-.9-2.7-1.6zm7.6 30.6c0 .2-.2.4-.4.4h-.1c-.2 0-.4-.2-.3-.5.1-.9.3-1.8.4-2.7 0-.2.2-.4.5-.3.2 0 .4.2.3.5-.1.7-.3 1.7-.4 2.6zm.2-11.2c0 .2-.1.4-.4.5-.2 0-.4-.2-.4-.4v-.6c0-.7.1-1.3.2-1.9.1-.2.3-.4.5-.3.2.1.4.3.3.5-.1.5-.2 1.1-.2 1.7v.5zm1.2 2.9c-.3.8-.6 1.7-.8 2.5-.1.2-.2.3-.4.3h-.1c-.2-.1-.3-.3-.3-.5.3-.8.6-1.7.8-2.5.1-.2.3-.3.5-.3.3 0 .4.3.3.5zm2.8-13.1c.1-.3.1-.7.1-1.2v-1.3c0-.2.2-.4.4-.4s.4.2.4.4v1.3c0 .5 0 1-.2 1.4-.1.2-.2.3-.4.3h-.1c-.1 0-.3-.3-.2-.5zm-.1 1.8c0-.2.2-.4.5-.4.2 0 .4.2.4.5-.1.6-.2 1.2-.2 1.8 0 .2-.2.4-.4.4h-.1c-.2 0-.4-.2-.4-.5 0-.6.1-1.2.2-1.8zm-1.7-3c0-.2.2-.4.4-.4s.4.2.4.4c0 .7-.1 1.4-.1 2.1 0 .2-.2.4-.4.4s-.4-.2-.4-.4c0-.7.1-1.4.1-2.1zm-.8 3.5c.2 0 .4.2.4.5-.1.6-.2 1.2-.2 1.8 0 .2-.2.4-.4.4h-.1c-.2 0-.4-.2-.4-.5.1-.6.2-1.2.2-1.8.1-.3.3-.4.5-.4zm-1.2-5.7c.1-.2.3-.3.5-.2.2.1.3.3.2.5-.1.2-.1.5-.1.8v1c0 .2-.2.4-.4.4s-.4-.2-.4-.4v-1c0-.4 0-.8.2-1.1zm-1.5 3.4c0-.2.2-.4.4-.4s.4.2.4.4c0 .8 0 1.8.4 2.1.1.2.1.4 0 .6-.1.1-.2.1-.3.1-.1 0-.2-.1-.3-.1-.6-.9-.5-1.9-.6-2.7zm-.2 27.8c0-.2.2-.4.4-.4s.4.2.4.4v2.5c0 .2-.2.4-.4.4s-.4-.2-.4-.4v-2.5zm-6.8-35.7c-.2.4-.4 1.1-.4 1.7 0 .2-.2.4-.4.4s-.4-.2-.4-.4c0-.7.2-1.5.5-2 .1-.2.4-.3.6-.2.1.1.2.3.1.5zm2.2 5c-.1.2-.2.3-.4.3h-.1c-.5-.2-.7-.6-.8-1-.1-.4-.1-.9-.1-1.2V99c0-.2.2-.4.5-.4.2 0 .4.2.4.5v.5c0 .5.1 1.1.3 1.4 0 .1.1.1.1.1.1-.1.2.2.1.4zm2.9 27.9v-.6c0-.2.2-.4.5-.4.2 0 .4.2.4.5v.5c0 .5.1.9.2 1.4.1.2 0 .5-.3.5h-.1c-.2 0-.3-.1-.4-.3-.2-.5-.3-1-.3-1.6zm.7 9c-.2 0-.4-.2-.4-.4v-1.5c0-.2.2-.4.4-.4s.4.2.4.4v1.5c0 .2-.2.4-.4.4zm.4-18.3v.3c0 .6.1 1.3.2 1.9 0 .2-.1.4-.3.5h-.1c-.2 0-.4-.1-.4-.3-.1-.7-.2-1.4-.2-2.1v-.3c0-.2.2-.4.4-.4s.4.1.4.4zm-1.4-17.2c0-.2.2-.4.4-.4s.4.2.4.4c0 .7.1 1.4.1 2.1 0 .2-.2.4-.4.4s-.4-.2-.4-.4c0-.7 0-1.4-.1-2.1zm-.6 5c0-.2.2-.4.4-.4s.4.2.4.4v1.9c0 .2-.2.4-.4.4s-.4-.2-.4-.4v-1.9zm-.4-.8c0 .4 0 1.3.1 1.5.1.2-.1.5-.3.5h-.1c-.2 0-.3-.1-.4-.3-.1-.5-.1-1.4-.1-1.8 0-.2.2-.4.4-.4.2.1.4.3.4.5zm-.6-4.1c-.1.1-.2.1-.2.1-.1 0-.3-.1-.3-.2-.3-.4-.3-.9-.3-1.4v-1c0-.2.2-.4.4-.4s.4.2.4.4v1c0 .4.1.7.2.9.1.2 0 .5-.2.6zm20.8 35.4v-.2c-.1-2.4-.2-4.9-.2-7.4v-.3c-.2 2.7-.4 5.4-.4 8.1.2-.1.4-.1.6-.2zm13.4-33.7v.2c.1 0 .2-.1.3-.1-.1 0-.2 0-.3-.1zm-7.7 32.2v-.1c-.4-.1-.9-.2-1.4-.4-.2.1-.4.3-.6.5.6-.1 1.1-.1 2 0zm6.8-6.5c-.1.7-.2 1.4-.4 2.1.3 0 .5.1.8.1 0-.9-.2-1.6-.4-2.2zm-11.4-9.3c.5-1.6 1-3.1 1.3-4.8.2-1.3.3-2.6.4-3.8-.1.4-.2.7-.2 1.1-.6 2.3-1.1 4.9-1.5 7.5zm12.8-22.5c-.4-1.9-1-3.4-1.9-5 .3 1.1.6 2.1.8 2.6.8 2.5 1.4 4.6 1.4 7.3v.8c.8-1.4 0-4.6-.3-5.7zm-3.9-8.3c0 .1-.1.1-.1.2.1.1.1.2.2.3 0-.2 0-.4-.1-.5zm2.8 28.8z"/><path fill="#F4F1EA" d="M58.9 129.5v.2l.3-3.3c-.1 1-.3 2-.3 3.1zM45.6 97.3c-.1-.2-.1-.5-.2-.7.4 1.3.4 2.7 1 3.9-.2-1.1-.5-2.2-.8-3.2zm35.6-5.1c-.4.5-.8.9-1.2 1.4-.1.3-.2.5-.3.7v.4c0 1-.2 2.3-.5 3.5v.7c-.2 2.7-1 5.3-1.9 7.8l-.3 1.2c-.7 2.8-.7 5.4-1.1 8.4-.4 3.4-2 6-2.3 9.2-.2 1.7-.2 3.5-.2 5.3 0 2.4.1 4.9.2 7.3.1 0 .2-.1.3-.1.1 0 .2-.1.3-.1.8-.8 1.7-1.6 2.6-2.3.1-.1.4-.1.5 0 .3.3.8.4 1.4.5.4-1.1 1.2-2.6 1.9-3.2.3-.3.6-.4 1-.5.3-.3.5-.5.8-.7.2-.1.4-.1.6.1.2.3.6.4 1 .5.3-1.1.4-2.3.5-3.4-.3-.8-.6-1.6-.4-2.6.1-.8.3-1.6.5-2.4v-1.1c0-1.5 0-2.9.3-4.4.3-1.7.8-3 1-4.6v-1.3c-.1-2.3-1-5.2-.6-7.5h.1v-.7c0-.1.1-.2.2-.3.1-.1.2-.1.3-.1.1 0 .2.1.3.1v-.3c0-2.5-.5-4.6-1.3-7-.3-.9-1-3.4-1.5-5.2-.1-.2-.3-.4-.4-.6-.3.4-.8.9-1.8 1.3zm-5.5 41.4c-.1.1-.2.2-.4.2-.1 0-.1 0-.2-.1-.2-.1-.4-.4-.4-.7 0-.3.1-.5.3-.7.1-.2.4-.2.6-.1.2.1.2.4.1.6-.1.1-.1.2-.1.2.2.2.2.4.1.6zm1.3-7.7c0 .2-.2.4-.4.4s-.4-.2-.4-.4c0-.9.1-1.5.2-2.3 0-.2.2-.4.5-.4.2 0 .4.2.4.5-.2.8-.3 1.4-.3 2.2zm5-27.5c0-.2.2-.4.4-.4s.4.2.4.4v1.7c0 .2-.2.4-.4.4s-.4-.2-.4-.4v-1.7zm-1.9 3.5c0-.2.2-.4.4-.4s.4.2.4.4v2.1c0 .2-.2.4-.4.4s-.4-.2-.4-.4v-2.1zm-2 10.9c-.3 0-.4-.2-.5-.4 0-.3-.1-.6-.1-.9 0-.6.1-1.2.6-1.7.2-.2.4-.2.6 0 .2.2.2.4 0 .6-.2.2-.3.6-.3 1.1 0 .3 0 .5.1.8 0 .2-.2.4-.4.5zm1.2 18.1c0 .2-.2.4-.4.4s-.4-.2-.4-.4c.1-1 .1-1.9.2-2.9 0-.2.2-.4.4-.4s.4.2.4.4c-.1 1-.1 2-.2 2.9zm.2-13.8v-1.7c0-.2.2-.4.4-.4s.4.2.4.4v1.7c0 .2-.2.4-.4.4-.2.1-.4-.1-.4-.4zm.9 7.1c-.2 0-.4-.2-.4-.4v-.2c0-.8.2-1.5.7-2.2.1-.2.4-.2.6-.1.2.1.2.4.1.6-.4.5-.5 1-.6 1.7v.1c0 .3-.2.5-.4.5zm1.4 2.4c-.1.6-.2 1-.2 1.6v.1c0 .2-.2.4-.4.4s-.4-.2-.4-.4v-.1c0-.7.1-1.2.2-1.8.1-.2.3-.4.5-.3.2.1.4.3.3.5zm1.3-11c-.1.6-.3 1.3-.4 1.9 0 .2-.2.3-.4.3h-.1c-.2-.1-.4-.3-.3-.5.1-.6.3-1.3.4-1.9.1-.2.3-.4.5-.3.2 0 .3.2.3.5zm.2-5.7c.2.1.3.4.2.6-.1.2-.2.6-.2 1.1v1.3c0 .2-.2.4-.4.4s-.4-.2-.4-.4v-1.3c0-.5 0-1 .3-1.5 0-.2.3-.3.5-.2zm-.2-5.3c0 .1 0 .1 0 0v.9c0 .6 0 1.1-.2 1.7-.1.2-.2.3-.4.3h-.1c-.2-.1-.3-.3-.2-.5.2-.4.2-.9.2-1.4v-.9c0-.2.2-.4.4-.4.1-.1.3.1.3.3zm-25.6 37c.1-.1.1-.2.1-.3-.1.1-.1.2-.1.3z"/><path fill="#D0D4D1" d="M40.5 28.7c-.9-.1-1.8-.1-2.7 0 .5-.1 1.1-.1 1.7-.1.3.1.6.1 1 .1zm51 3.5c.4-1.8.6-3.6.5-5.3v.1c-.1 1.8-.3 3.5-.5 5.2zM89.9 38c-.1 0-.1 0 0 0-.1 0 0 .1 0 .1V38zM67.5 27.1c-2.1-.4-4.3-.5-6.4-.5-3.5 0-7 .4-10.7 1 5.3 0 11.6-1.1 17.1-.5zm1.4 4.9c-4.4-1.6-9.9-.7-14.9-.7.6.3 1.1.7 1.6 1 9.1 3.1 18.9 4 28.1 6.5-.9-.6-1.9-1.2-3.3-1.8-3.7-1.6-7.8-3.7-11.5-5zm9.4-.4c-1.7-1.2-3.5-2.3-5.3-3l.6.3c1.6.9 3.2 1.8 4.7 2.7z"/><path fill="#D0D4D1" d="M57.8 15.1c-1 1.1-1.9 2.2-2.7 3.3-.5.8-1 1.6-1.5 2.5-.9 1.5-1.6 3.2-2.8 4.8-.3.4-.7.8-1.1 1.3 3.8-.7 7.6-1.1 11.3-1.1 3.9 0 7.9.5 11.9 1.9 3.9 1.4 7.3 4.4 10.7 6.7 1.5.6 3.7 1.4 5.1 2.5.4.1.8.2 1.1.3.4-3.4 1.1-6.8 1.2-10.2v-.3c0-2.4-.7-4.3-1.9-6-.4-.4-.8-.8-1.3-1.2-1.1-.9-1.9-2-2.9-3-.2-.2-.4-.4-.7-.5-.2-.2-.4-.3-.6-.5-.1-.1-.3-.2-.4-.3-.8-.5-2-1-3.2-1.5-2.8-.9-5.9-1.3-8.7-1.5-2.5-.2-4.9-.9-7.1-.9h-.5c-2.2.5-4 1.7-5.9 3.7z"/><path fill="#B7BBB8" d="M46.3 29.2l.3-.3c-1.4-.1-2.8-.2-4.3-.1.2 0 .4 0 .6.1 1.2 0 2.3.1 3.4.3zM34.5 46c0 .1 0 .1 0 0 0 .1 0 .1 0 0 0 .1 0 .1 0 0zm1.1-15.6c.8-.3 1.6-.6 2.4-.8-1.7.1-3.2.6-4.4 1.3-.6.4-1.1.9-1.5 1.6.6-.8 1.6-1.3 3.5-2.1zm17.2.8c.9.4 1.9.7 2.8 1-.5-.4-1-.7-1.6-1h-1.2zM31.9 33c-.4.8-.6 1.8-.6 3v.7c.1 1.6.5 3.1 1.2 4.6-.4-1.5-.6-3-.7-4.1-.2-2-.3-3.2.1-4.2zm0-.1z"/><path fill="#8E9290" d="M96.3 62.7c-.1.2-.1.3-.2.5 0 0-.1.1-.1.2.5-.1 1.1-.3 1.7-.5 1.9-.8 3.2-2 4-3.3-1.3 1.6-3.2 2.6-5.4 3.1zM83.7 38.8c-9.2-2.5-19-3.4-28.1-6.5-.9-.3-1.9-.7-2.8-1h-.7.1c10.8 3.6 21.8 6 33.1 8.3-.6-.2-1.1-.5-1.6-.8zm17.4 9.4c-.1-.2-.3-.4-.4-.6v.4c.1.1.2.2.4.2zm-4.2 8.4c0-.1.1-.2.1-.2s-.1.1-.1.2zm6-3.1c-.6.3-1.2.6-1.6.9-1.6 1.2-2.6 2.8-3.4 4.5-.5 1-.9 2-1.4 2.9 2.7-.7 4.9-2.2 5.8-5.1.4-1.1.6-2.2.6-3.2zM42.9 29c1.1.1 2.1.3 3.1.6l.3-.3c-1.1-.3-2.2-.4-3.4-.3zm9.6 10.1c.5 0 1-.1 1.5-.3l-1.5.3zm18.9 1.5c-.6-.3-1.3-.5-2-.7.7.3 1.3.5 1.8.6.1 0 .1.1.2.1z"/><path fill="#8E9290" d="M35.5 42.3c-.9-.3-1.8-.8-2.6-1.2l-.2-.1v-.2c.1-1 .2-2.3.6-3.2-.2-.1-.3-.3-.2-.5v-.5h.3c.9.1 1.9.2 2.8.3.2-1.3.6-2.7 1-4 0-.1 0-.2.1-.3 0-.1 0-.1.1-.2l.1-.1c0-.1.1-.2.1-.3l.6.3c1 .1 1.9.5 2.7 1 .8.3 1.5.6 2.3 1.1 1.4.9 3 1.7 4.4 2.5.3.2.7.4 1 .7 1 .3 2 .6 2.9 1.1 2.2-.6 4.6-.9 7-.9 3.2 0 6.3.4 9 .9 3.7.7 6.6 2.3 9.7 4.2.9.5 1.6 1 2.4 1.5H81c3.1 0 6.4.5 9.7 1.3 1.6-.4 3.1-.9 4.7-1.2.3-.1.6-.1.8-.2-2.5-1.5-5.5-2.5-8.1-3.1-12.4-2.5-24.3-5-36.3-9.1-3.1-1.1-8.2-2.5-12.4-2.5-.5 0-1 0-1.4.1-.8.2-1.6.5-2.4.8-1.8.8-2.9 1.3-3.4 2.1-.1.1-.1.2-.2.4v.2c-.4.9-.3 2.2-.1 4.2.1 1.1.3 2.6.7 4.1.6 1.4 1.5 2.7 2.4 3.9.2-.5.5-1.1.6-1.7 0-.5 0-1-.1-1.4z"/><path fill="#199E90" d="M88.8 36.9c-1.4-1.2-3.6-1.9-5.1-2.5 1.7 1.1 3.4 2 5.1 2.5zm-42.5-7.7l-.3.3c.1 0 .2 0 .3.1.3-.5.7-.9 1.1-1.4-.3.2-.6.5-.8.8-.1 0-.2.1-.3.2zm7.7 2c5 0 10.5-.9 14.9.7 3.7 1.3 7.9 3.4 11.5 5 1.3.6 2.3 1.2 3.3 1.8.5.3 1 .6 1.6.9l3 .6c-2.2-.9-4.4-2.4-6.4-3.4-2.9-1.5-5.9-2.7-8.9-4-4.2-1.8-8.3-2.2-12.5-2.2-2.9 0-6 .2-9.1.3.2.1.5.2.7.2h.7c.4.1.8.1 1.2.1z"/><path fill="#199E90" d="M49.5 30.1c3.8 0 7.4-.3 10.9-.3 4.3 0 8.5.4 12.8 2.2 3.1 1.3 6 2.5 9 4 2.4 1.2 5 3.1 7.4 3.8 0-.6.1-1.1.2-1.7l-.1-.1c-4.3-.9-7.8-3.9-11.4-6.5-1.6-.9-3.1-1.8-4.7-2.7l-.6-.3c-.1 0-.2-.1-.3-.1-1.8-.6-3.5-1.1-5.2-1.4-5.5-.6-11.8.5-17.1.5-.5.1-1 .2-1.6.3-.6.6-1.2 1.3-1.6 1.9.8.2 1.6.4 2.3.6v-.2z"/><path fill="#8DC3AE" d="M90.6 73.8c0-.2-.1-.4-.1-.6v.8c.1-.1.1-.1.1-.2zM45.7 85.2c2.2 2.8 5.1 5.3 7.8 7.8 2.8 2.6 5.8 3.6 8.8 3.6 4 0 8.3-1.8 12.5-3.7.1 0 .1 0 .2-.1l.3.8c-.1 0-.1 0-.2.1-4.2 1.9-8.6 3.7-12.8 3.8-3.2 0-6.4-1.1-9.3-3.8-2.6-2.5-5.6-5-7.9-7.9-1-1.3-1.4-2.4-1.5-3.5-.2-.1-.3-.1-.5-.2-1.5-.7-2.6-2.3-3.3-4 .1 7.1 3.6 13.3 10 16.6 5.4 2.8 10.2 5.4 15.4 5.4 2.4 0 4.9-.5 7.6-1.8 2.3-1.1 4.3-2.6 6-4.4v-.1l.3-1.4.3.8c1.2-1.3 2.3-2.7 3.3-4.2 1.3-1.8 1.9-3.1 3.8-4.6 1.4-1.1 2.8-2.2 3.5-3.7.1-.3.2-.5.3-.8.1-.5.1-.9.1-1.5 0-.5 0-1.1-.1-1.7-.4-.9-.6-1.7-.6-2.5h-.1c-.7 0-1.4-.1-2.1-.1-.7.6-1.4 1.2-1.9 1.6-.4 1-.9 1.9-1.5 2.8-.3.5-.7 1-1.1 1.5 1.2 1.2 2.2 2.4 3.3 3.8.1.2.1.4-.1.6-.1.1-.2.1-.3.1-.1 0-.3-.1-.3-.2-1-1.3-1.9-2.4-2.9-3.4.1.6.2 1.3.2 1.9 0 1.1-.2 2.3-1 3.2-.4.5-1 1-1.6 1.4-.6.6-1.3 1.2-2.2 1.7-.6.3-1.7.5-2.8.4-.2 0-.5.1-.7.1-1.2 0-2.2-.5-2.9-1.3-2.4.7-4.3 1.6-7.1 1.6H64c-3-.1-6.2-.9-8.6-2.2-.2-.1-.3-.4-.2-.6.1-.2.4-.3.6-.2 2.3 1.2 5.4 2 8.3 2.1h.6c2.4 0 4.1-.7 6.3-1.4-2.2-1.6-4.2-3.9-6.1-5-.2-.1-.4-.1-.6-.2l-1.4.1.4-.3c-.9-.2-1.8-.5-2.7-.7-1.5-.4-4.4-1.4-6.7-1.4-.5 0-.9 0-1.3.1-1.4 1.1-2.9 2.2-4.8 2.3h-.7c-.6 0-1.2-.1-1.8-.2-.2 0-.5 0-.7-.1-.1 1.1.2 1.8 1.1 3zM38 74.9v.9c.1-.3.3-.6.4-.9H38z"/><path fill="#8DC3AE" d="M38.7 76.3c-.5 1.3-.9 3-1.3 4.9-.1.7-.3 1.5-.4 2.2.1 0 .2 0 .2.1.2.2.2.4 0 .6-.2.2-.3.3-.4.5-.2 1.4-.3 2.6-.4 3.7 0 .6-.1 1.1-.1 1.7v.6c0 3 .6 6.4 1.9 9 .5.9 1.4 2.4 2.4 3.6.1-.8.2-1.7.3-2.5.4-3.2 1.1-6 1.1-9.2 0-.8 0-1.6-.1-2.4h.3c-2.2-3.3-3.3-7.2-3.3-11.4v-.3c0-.4.1-.8.2-1.3 0-.1-.1-.3-.1-.4-.1.1-.2.4-.3.6zm51-3.9c-.3.3-.7.5-1.1.8l-.1.1c.4 0 .8 0 1.1.1v-.2c.1-.2.1-.5.1-.8zm-3.1.9h.7c.8-.6 1.6-1.3 2.3-1.8-.5-.4-1.2-.7-2.2-.8-.2.8-.5 1.7-.8 2.6zm-6.5 11.6c-.3.6-.7 1.2-1.1 1.7.8-.5 1.1-1.1 1.1-1.7zm7.2-.2c-.1.1-.2.2-.3.2-1.3 1-2 1.9-2.8 3 .2-.2.4-.4.6-.7 1-.8 1.8-1.6 2.5-2.5zM74.5 176c1.8.4 5.8 1.6 7.9 1l-.3-.3c-2.6-.5-5.5-.5-8.1-1.2-1-.3-1.6-.5-2.1-.8-.5-.3-.8-.7-.7-1.1 0-.7.5-1.2 1-1.7.5-.6 1.1-1.2 1.5-1.8.2-.3.2-.5.2-.7 0-.6-.7-1.4-1.9-2.1l-.6-.3c-.4 2.3-.1 5.1-.7 7.6l-.7-.2v.1c.7.8 3.4 1.3 4.5 1.5zm-34.7-66.8c-.2 1-.2 2.1-.2 3.1.4-2.7.6-5.4.9-8.1-.2-.2-.3-.4-.5-.6.5 2 .1 3.6-.2 5.6zm30.4 60.6c.6 1-.5 3.1-.2 4.3.5-2.3.2-5 .7-7.5-.8-.4-1.6-.7-2.2-.9-1.2-.5-4.5-1.9-6.5-1.9-.4 0-.7.1-1 .2 1 .3 2.5.7 4 1.3 1.9.7 3.9 1.5 4.8 2.3.3.2.5.5.5.9v.4l-.4.1c-.2 0-.3.1-.5.1.3 0 .6.3.8.7zm-30.5-7.1c-.2 0-.4.1-.6.1-1.2.2-2.4.6-2.9.9v.2c1.1-.4 2.3-.8 3.5-1.2zm14.3-8.5c.1.6.2 1.1.2 1.7.1-.6.1-1.2.1-1.9v-.7c0-1.1-.1-2.2-.1-3.3-.3 1.3-.5 2.7-.2 4.2zm28.9 21.9v.1c.1.1.2.3.4.4.1 0 .1-.1.2-.1-.2-.1-.4-.2-.6-.4zm-45.5-40.9c.1-2 .1-4 .1-6-.1.5-.2 1.1-.3 1.6-.2 1.5 0 2.9.2 4.4z"/><path fill="#8DC3AE" d="M66.5 169.3l-1.2.3c-.9.3-1.8 1-2.9 1.2h.5c1.2-.1 2.5-.9 3.6-1.5zm14.6 4.6s0 .1.1.1c.3.7.8 1.3 1.4 1.9h.2c-.6-.4-1.1-1.1-1.7-2zm-22.2-4.1c-.5-.4-1-.8-1.8-1-.4-.1-.8-.1-1.3-.1h-.4c1.5.5 2.9 1.2 4.4 1.7-.3-.1-.6-.4-.9-.6zm-16.1-64.3l-.5.7c-.3-.3-.7-.6-1.1-1.1-.3 2.7-.5 5.3-.9 8-.6 4.4-1.6 8.7-1.8 13.1-.2 4.2-.1 8.4-.5 12.6.1 2.2-.6 4.3-.7 6.6-.3 5.7.1 11.5-.9 17.2.7-.3 1.6-.5 2.5-.7 1.5-.3 3.2-.6 4-.9 1.4-.6 2.7-1.4 4.1-2.1.9-.8 1.7-1.8 2-2.9.1-4.1.3-8.2 1.9-12 .2-.4.3-.9.5-1.3.1-.7.2-1.3.2-2 0-.2-.1-.4-.1-.6v-.2c0-.2 0-.5-.1-.7-.4-2.6-.9-5-.6-7.6l.3-2.7c-.1-1.1-.1-2.2-.1-3.3V122c0-1.7 0-3.5-.2-5.1-.1-.9-.2-1.8-.4-2.7-.1-.2-.1-.4-.2-.6-.4-1.2-.7-2.4-.9-3.6-.6-2-1.4-4.1-2-6.1-.4-1.1-.6-2.2-.9-3.3-.6-1.3-.6-2.6-1-3.9-.7-1.8-2.1-3.8-2.3-5.8h.4c-.3-.3-.5-.6-.8-1 0 .6.1 1.1.1 1.6 0 3.3-.7 6.1-1.1 9.3-.2 1.1-.3 2.2-.4 3.3.6.6 1.1 1.1 1.5 1.4zm36.4-7.3c-.3 1.1-.5 2.2-.7 2.9-.4 1.8-.8 3.7-1.3 5.6.9-2.5 1.7-5.1 1.9-7.8.1-.2.1-.5.1-.7zM65 100.7c-.9 0-1.7-.1-2.6-.2.8.2 1.6.3 2.5.4 0-.1 0-.1.1-.2zm-5.3 20c.4-1.2.7-2.4 1.1-3.8.5-1.8 1-3.7 1.5-5.6-.6 1-1.1 2-1.4 3.2-.5 2.2-.9 4.1-1.2 6.2z"/><path fill="#8DC3AE" d="M73.1 99.3c-.1 0-.7.8-1.2 2s-1 2.8-1.5 4.4c-.9 3.3-1.7 6.9-1.8 8.4-.2 2.1-.8 6.1-1.5 10-.7 3.8-1.3 7.4-1.8 8.5-.7 2-.7 3.9-1 6.1l-2.1 13.2c-.6 3.6-2.5 7.5-2.5 11v.8l-.8.1v-.9c0-3.8 2-7.7 2.5-11.1l2.1-13.2c.3-2.1.3-4.1 1.1-6.3.4-.9 1.1-4.6 1.7-8.4.6-3.8 1.2-7.9 1.5-9.9.2-2.3 1.9-9.3 3.4-13 .3-.7.5-1.2.8-1.6-2.3 1-4.5 1.4-6.6 1.4l.1.2h.4c-.9 1.8-1.2 3.6-1.6 5.5-.1.8-.3 1.5-.4 1.9-.8 2.9-1.4 5.9-2.3 8.8-1 3.4-1.9 6.1-2.4 9.3l-.3 3.3c-.2 3.7-.1 8-1.3 11.6v.3c.1 0 .2.1.2.2.1.2 0 .5-.2.5-.1 0-.1 0-.2.1-.5 1.9-1.3 3.5-2.1 5.1 0 .1-.1.3-.1.4-.1.5-.1 1.1-.1 1.7 0 1.2.1 2.5.1 3.8v.7c-.1 1.9-.3 3.7-.5 5.6.3 2.8.3 5.5-.1 8.3.4 0 .9-.1 1.3-.1.5 0 1 0 1.5.1.9.2 1.6.7 2.1 1.1.5.4 1 .8 1.6.9.2 0 .4.1.6.1 1.1 0 2.1-.8 3.4-1.3 1.4-.5 2.8-.5 4.1-.7-.2-.2-.5-.3-.8-.5-.7-.4-1.8-.9-2.8-1.3-2.1-.8-4.5-1.5-5.4-1.7l-.5-.1.2-.5c.4-.8 1.2-1.1 2.1-1.1 2.3 0 5.6 1.5 6.8 1.9.6.2 1.4.5 2.1.9v-.2l.8.3c0 .1-.1.2-.1.3.3.1.5.3.8.4 1.2.7 2.3 1.6 2.3 2.8 0 .4-.1.7-.3 1.1-.5.8-1.1 1.4-1.7 2-.5.5-.8 1-.8 1.1 0 .1 0 .2.4.4.3.2.9.4 1.8.7 2.2.6 4.6.7 7 1-.3-.4-.6-.8-.9-1.3-1.1-2-1.8-3.9-2.4-6.1-.9-1.9-1.7-3.7-2.2-4.8-.2-.5-.4-1-.5-1.5-.4-.9-.8-1.7-1.1-2.7-.8-2.6-1-5.2-1.4-7.8-.2-1.4-.3-2.7-.3-4.1v-1.7c-.3-2.4-.4-4.8-.4-7.2 0-2.7.1-5.4.4-8.1 0-1.7.1-3.4.2-5.1.2-1.6.6-3 1-4.4.4-2.6.9-5.1 1.4-7.6.1-.4.2-.7.2-1.1.2-1.5.3-3.1.7-4.7.5-2.2 1.1-4.5 1.5-6.7.3-1.5 1.2-4.5 1.2-6.3-1.7 1.6-3.6 3-5.8 4.1-.1 0-.1.1-.2.1l.6.6zm6.6-5.3v.4c.1-.2.2-.5.3-.7-.1 0-.2.1-.3.3zm-35.6-2.7c.1.6.4 1.2.7 1.8 0-.4-.1-.8-.1-1.3-.3-.2-.4-.3-.6-.5zm7.9 5.5c.7.3 1.4.6 2.2.9l-4.8-2.4c-.1 0-.1-.1-.2-.1 1 .7 2 1.2 2.8 1.6z"/><path fill="#511B2A" d="M45 85.7c2.3 2.9 5.2 5.4 7.9 7.9 3 2.8 6.1 3.8 9.3 3.8 4.3 0 8.6-1.8 12.8-3.8.1 0 .1 0 .2-.1l-.2-.7c-.1 0-.1 0-.2.1-4.2 1.9-8.5 3.7-12.5 3.7-3 0-5.9-1-8.8-3.6-2.7-2.5-5.5-5-7.8-7.8-.9-1.1-1.2-1.9-1.3-2.8-.3 0-.6-.1-.9-.2.1 1.1.5 2.2 1.5 3.5z"/><path fill="#D5861C" d="M38.5 60.4c-.1 0-.1-.1-.2-.1-.5 1.3-.7 2.9-.7 4.3h.1c.2-1.5.4-2.9.8-4.2zm-4.3-6c-.1-.1-.2-.2-.3-.4.2.2.3.4.5.6.6.7 2.1 1.6 3.2 2.6-.1-.3-.3-.5-.4-.8-.7-1-1.8-.9-3-2zm14.6 8.2c.5-.5 1.1-.9 1.7-1.3-1.4-.6-2.8-1.1-4.2-1.6-.2-.1-.3-.3-.3-.5.1-.2.3-.3.5-.3 1.6.5 3.2 1.1 4.8 1.8.5-.3 1-.6 1.4-.9-1.1-.1-2.2-.3-3.5-.6-3.1-.7-5.7-1.3-8-2.9-.6 1.4-1.3 2.7-1.8 4.1-.4 1.2-.7 2.5-.8 3.7 3-1.1 6.2-1.6 9.4-1.6.3 0 .6 0 .8.1zm39.5 3.9c-.1.6-.3 1.3-.4 1.9.4-.3.8-.5 1.2-.6-.2-.4-.5-.8-.8-1.3z"/><path fill="#D5861C" d="M39 59.1c.5-1.2 1-2.3 1.5-3.4-.7-.6-1.3-1.3-1.9-2.1-2.3-3.2-1.7-7-2.2-10.5v.6c0 1.2-.2 2.5-.9 3.7-.8 1.3-1.7 2.8-1.6 4.2 0 .8.2 1.4.9 2.1.8.9 2.1.8 3.1 2.3.5 1 .9 2.1 1.1 3.1zm7.8 5.6c.3-.4.7-.7 1-1.1.1-.1.2-.2.2-.3-3.3 0-6.5.6-9.5 1.7v.9c0 .8.1 1.6.2 2.4v.2c1.9-.6 4-1 6.1-1.1.7-.9 1.2-1.9 2-2.7zm31.1-.7c-.1 0-.1 0 0 0 0 .1.1.2.1.4-.1-.1-.1-.3-.1-.4zm-40 4.4c-.1-.8-.2-1.7-.2-2.5v-.5h-.1v.6c0 .9.1 1.8.3 2.7v-.3zm49.9 1.2c0 .1-.1.1-.2.1 0 .2-.1.3-.1.5.2-.2.4-.4.7-.5.2-.1.5-.2.8-.3.1 0 .3-.1.4-.1h.2c-.1-.3-.1-.5-.2-.7-.6.2-1.3.7-1.6 1z"/><path fill="#D5861C" d="M34.8 47.1c.7-1.1.8-2.1.8-3.3v-.2c-.2.6-.4 1.1-.6 1.7-.1.3-.3.6-.4.9l-.6 1.2c-1 2-1.5 3.8-.7 5.7-.2-.4-.2-.9-.2-1.3-.1-1.8.9-3.4 1.7-4.7zm23 14.2c-1.1 1.8-1.7 3.8-2.6 5.6.1 0 .2 0 .3.1.1 0 .2.1.2.2.1.1.1.2 0 .4 0 0-.1.3-.1.4v.1c0 .2-.2.4-.4.4s-.3-.1-.4-.1c-.1 0-.2 0-.2-.1-.8 1.2-1.8 2.2-3.4 2.9-2.9 1.2-5.5.7-8.4-.3-1.1 1.5-1.8 3.1-1.8 4.8 0 1 .2 2 .8 3.1 1.1 2 3 3.1 5.3 3.1h.7c.8-.1 1.6-.4 2.4-.8.5-.8 1.2-1.2 2.1-1.5.4-.3.8-.7 1.3-1 .9-.7 1.9-1.3 3-1.7.6-.8 1.6-1 2.7-1h.4c.4-.1.8-.1 1.2-.2.8-.2 1.4-.3 1.8-.5.4-.2.6-.4.7-1 0-.2.2-.3.4-.3h.1c.2-.9.4-2.4.7-4 .3-1.8.7-3.7 1-4.7h-.1c-.2.1-.4 0-.6-.1-.1-.1-.1-.2-.2-.3-.1 0-.1.1-.2.1-.2.1-.4 0-.5-.1v.3c0 .1-.1.2-.3.3-.2.1-.5.1-.7.1-.9 0-1.9-.4-2.6-1.1-.7-.6-1.3-1.5-1.3-2.5v-.1c0-.4.1-.8.2-1.2 0-.1-.1-.2-.1-.3-.7.1-1.1.5-1.4 1zm-2.5 11.5c0-.2.2-.4.5-.4.2 0 .4.2.4.5-.1.5-.3 1.1-.6 1.5-.1.1-.2.1-.3.1-.1 0-.2 0-.3-.1-.2-.1-.2-.4-.1-.6.2-.2.4-.6.4-1zm-2.2.4c.3-.1 1-.7 1.1-1.1.1-.2.3-.4.5-.3.2.1.4.3.3.5-.2.9-1.2 1.4-1.4 1.6-.1 0-.1.1-.2.1s-.3-.1-.4-.2c-.2-.2-.1-.5.1-.6zm4.3.9c0 .2-.2.4-.4.4s-.4-.2-.4-.5c.1-.6.1-1.2.2-1.9 0-.2.2-.4.5-.4.2 0 .4.2.4.5-.2.7-.3 1.3-.3 1.9zm11.9-8.8c.2.1.3.1.4.1-.2-.1-.3-.3-.3-.5-.1 0-.1 0-.2-.1-.2-.1-.3-.3-.5-.4 0 0-.1 0-.2.1 0 .1-.1.1-.1.2 0 .2.1.5.2.7.4-.1.6-.1.7-.1zm-6.4-3.1h.2c-.1 0-.2-.1-.3-.1-.1.1-.2.1-.2.2h.1c0-.1.1-.1.2-.1zm27.3 6.2c.1.2.1.5.2.7.6-.1 1.2-.3 1.7-.6h-.5c-.5.1-1 0-1.4-.1zm3.7-2.9c.3-.4.5-.9.7-1.3-1.3 1.2-2.9 2-5.3 2h-.1c.3.4.5.9.7 1.3h.2c.6 0 1.1.2 1.6.2.2 0 .4 0 .6-.1.3-.1 1-1 1.6-2.1zM49.7 54.4c-1.1-.6-1.7-1.8-1.8-3 0 .2-.1.4-.1.6 0 .9.4 1.5 1 2 .3.2.7.4 1 .5l-.1-.1zm25.7 2.8c0 1.1.4 2.3.9 3.6.2.1.3.2.5.3-.3-.8-.6-1.6-.8-2.3-.2-.7-.5-1.3-.6-2v.4zm-35.5-5.9c.3.9.7 1.7 1.4 2.4.1-.3.2-.7.2-1.1.3-1.8.3-4.2.9-6.3-.1-.4-.1-.7-.1-1.1 0-1.5.6-3.1.8-4.6-.6.2-1.1.4-1.6.7-1.2.7-1.9 1.8-2.1 3.4v.5l-.4-.3c.2 2.3.3 4.5.9 6.4zm41.9-1.1c0-.1 0-.3-.1-.4-.2.5-.6 1.1-1 1.6.5-.4.9-.7 1.1-1.2zm-42.7-17c1.6 1.1 3.8 2.6 4.7 4.6 2.2.3 4.4.7 6.6 1h.1c-1.9-.7-4.1-1.1-6-2.2-1.9-1-3.6-2.8-5.4-3.4zM37.4 37c1.8.2 3.5.5 5.3.7-.9-1.6-2.9-3-4.3-4-.1 1.1-.5 2.2-1 3.3zm5.8 7.4s0-.1.1-.1c1.1-1.7 2.5-3.1 4.1-4.1h-1.1c-.8 0-1.6.1-2.3.2-.2 1.4-.6 2.8-.8 4z"/><path fill="#D5861C" d="M48.9 40.4c-2 1-3.7 2.4-4.9 4.3-.3.5-.5 1-.7 1.5v.1c.1.2 0 .4-.2.5-.5 1.9-.5 4-.8 5.8-.1.6-.2 1.1-.4 1.6.7.6 1.6 1.2 2.7 1.6 2.7 1.1 5.6 2 8.4 2 1.3 0 2.6-.2 3.8-.6.8-.6 1.5-1.3 2.1-2.3 1.4-2.2 2.1-5.5 2.4-8 0-.2 0-.4.1-.6-1-1.2-2.4-2.3-4.1-3.2-2.5-1.3-5.5-2.3-8.4-2.7zm6.2 13.3c-.1.2-.3.3-.5.3-.9 1.1-2.2 1.6-3.5 1.6-1 0-2-.3-2.8-.9-.8-.7-1.3-1.6-1.3-2.7 0-.5.1-1.1.4-1.7.6-1.6 2.1-2.3 3.5-2.3 1.9 0 3.9 1.2 4.4 3.2.1.3.1.6.1.9 0 .5-.1 1.1-.3 1.6zM36.6 36.9c0-.1.1-.1.1-.2.5-1.2.9-2.4.9-3.2v-.3c-.1-.1-.2-.2-.2-.3-.5 1.3-.8 2.7-1 4h.2zm46 13.3v.2c-.4 1.2-1.5 1.8-2.5 2.1-1.1.4-2.2.7-2.9 1.3-.8.7-1 1.3-1 2.1s.3 1.7.6 2.7c.3.9.7 2 1.1 3.1.4.2.8.3 1.1.5h.1c-.6-.7-1-1.5-1-2.3v-.4s0-.1-.1-.1V59c0-.8.5-1.4 1.2-1.8.7-.4 1.5-.5 2.4-.5 1 0 2.1.3 3 .8.9.6 1.5 1.5 1.5 2.7.3 1.2 0 2.5-1.3 3.3 1.1.1 2.1.2 3 .2.1-.6.3-1.3.4-1.9.4-1.6.6-3.4.6-5.2 0-3.6-1-7.2-4-9-.4-.3-.8-.4-1.3-.6h-1.8c.5 1 .7 2.1.9 3.2zm3.9-2.9c-.1 0-.2 0-.3-.1 2.1 1.6 3.2 4.1 3.6 6.8 1.8-1.3 4-2.9 5.7-4.6-2.6-1.4-6.2-1.4-9-2.1zm-43.2-13c-.7-.5-1.5-.8-2.3-1.1 1.4.9 2.6 2.1 3.8 2.7 1.2.7 2.5 1.1 3.9 1.5-.3-.2-.7-.5-1-.7-1.5-.7-3-1.5-4.4-2.4zm-5.7-2c.1 0 .1-.1.2-.1h.5l-.6-.3c0 .2 0 .3-.1.4zm59.9 14.9c.5-.7 1-1.4 1.3-2.2-.3-.1-.6-.2-1.1-.2-.5 0-1.2.1-2 .3-1 .2-2 .5-3.1.8 1.6.4 3.3.9 4.9 1.3zM54 38.8c-.5.2-1 .3-1.5.3v.1c.3.1.6.1.9.2 4 .7 6 2.3 8.5 4.2.3-1.7.6-3.4.4-4.9-1.2-.1-2.4-.2-3.7-.2-1.5 0-3.1.1-4.6.3zm24.3 5.6c-.4-.3-.9-.5-1.3-.8.4.3.8.5 1.3.8zm-7.2 43.2c-.4-.6-.8-1.3-1.1-2-1.5-1.5-3.3-2.3-5.3-2.9 1.9 1 3.9 3.4 6.1 5 .1-.1.2-.1.3-.1zm16.4-21.4c-3.6-.2-5.7-.7-8.7-1.8.4 1.3.6 2.5.6 3.7v.2c.1.2.1.4.2.5 1.9-.6 3.9-1.4 6-1.4h.8c.2 0 .4.2.4.5 0 .2-.2.4-.5.4h-.7c-1.9 0-3.8.8-5.8 1.4.1.4.2.7.3 1.1.4 0 .9-.1 1.3-.2 1.2-.3 2.5-.9 3.8-1 .2 0 .4.2.4.4s-.2.4-.4.4c-1 0-2.3.7-3.7 1-.4.1-.8.1-1.2.2.2.6.5 1.2.7 1.9 1.5-.1 3.1-.1 4.7-.1.8-2.4 1.3-4.8 1.8-7.2zM69.4 83.9c-.5-1.5-1-2.9-1.7-4 0 .1 0 .2.1.2 0 .1 0 .3-.1.4-.1.1-.2.1-.3.1h-.1c-1.8-.4-3.9-.6-5.7-1.2h-.1c-.2-.1-.4-.1-.5-.2-.1 0-.3-.1-.5-.2-.1 0-.2 0-.3-.1-.1 0-.1-.1-.2-.1s-.2-.1-.3-.1h-.2c-.2 0-.3 0-.4-.2-.3-.1-.5-.2-.7-.3h-.1c-.4.2-.9.3-1.3.3h-.3c-.1 0-.2-.1-.3-.2v-.1c-.1 0-.2 0-.3-.1 0 0-.1 0-.1-.1-.1.1-.2.1-.2.2-.1.2-.3.2-.5.1-.4.2-.8.5-1.2.8-.1 0-.1.1-.2.1.6 0 1.2.1 1.8.1 0-.1.1-.2.2-.2s.2-.1.3-.1c.1 0 .2 0 .3.1.1.1.1.2.1.3 1.6.3 3.2.8 4.1 1.1 3 1.1 6.1 1.6 8.7 3.4zm16.1-9.8c-1.4 0-2.7.1-4.1.1.4 1.4.8 2.9 1 4.3 0 .3.1.5.1.8.3-.4.7-.9 1-1.3.8-1.2 1.4-2.5 2-3.9z"/><path fill="#D5861C" d="M80.1 84.9c.1-1.3-.8-2.8-2.1-3.8-1.8-1.4-5-1.1-5.4-3.8-.2-1.9 1-3.9 1.5-5.7.7-2.4 1.7-4.8.2-7.1 0-.1.1-.1.2-.1l-1.8-1.5c0 .3.1.5.1.8 0 .6-.1 1.2-.2 1.8-.2 1.3-1 2.1-2 2.1-.7 0-1.4-.4-2-1.1-.3-.4-.8-1.1-.8-1.8v-.1s0 .1-.1.1c0 .2 0 .3-.2.4-.4.3-.8.3-1.1.3-.1 0-.2 0-.2-.1-.1.2-.2.5-.2.8-.2.8-.4 1.9-.6 3.1-.4 2.3-.8 4.7-1 5.6 0 .1-.1.1-.1.2.2.6.5 1.2 1 1.3.2.1.3.3.3.4.8.4 1.5 1 2.2 1.8 1 1.2 1.6 2.9 2.3 4.7 0 .1.1.2.1.3.2 0 .4.2.4.4.2 2.1 1.7 3.3 3.7 3.5h.1c.7 0 2.8-.5 3.5-.8l.3-.3h.2c.1 0 .1 0 .3.1.1.1.2.2.2.3 0 .1 0 .2-.1.2.1-.1.3-.2.4-.2l.9-1.8zm-12.2-7.1c.2-.5.3-.9.5-1.3.1-.2.4-.3.6-.2.2.1.3.4.2.6-.2.4-.3.8-.5 1.2-.1.2-.2.3-.4.3h-.1c-.2-.2-.3-.4-.3-.6zm1.8.5c0-.5-.1-1.1-.1-1.6 0-.2.2-.4.4-.4s.4.2.4.4c0 .5.1 1.1.1 1.6 0 .2-.2.4-.4.4s-.4-.2-.4-.4zm1.1-1.1c-.1-.2 0-.5.2-.6.2-.1.5 0 .6.2.6 1.2 1.1 1.8 1.1 3.2 0 .2-.2.4-.4.4s-.4-.2-.4-.4c-.1-1.2-.4-1.6-1.1-2.8zm-6.9-.3c.2.1.4.2.6.2.4.2.7.4 1.1.6-.5-.4-1.1-.6-1.7-.8zm-.2-1c-.1-.2-.2-.3-.2-.5l-.4.4c.2 0 .4.1.6.1zm34.6-28.4c.5.1 1 .3 1.5.4v-.1c0-1-.2-1.7-.4-2.1-.3.6-.7 1.2-1.1 1.8zM39 75.6c0 .1.1.3.1.4.2.7.4 1.3.6 1.9.7 1.8 1.8 3.3 3.3 4 .2.1.3.1.5.2.3.1.6.2.9.2.2 0 .5.1.7.1-1.8-.5-3.3-1.6-4.2-3.4-.1-.3-.3-.6-.4-.9-.2 0-.4-.1-.4-.3 0-.2-.1-.3-.1-.5-.1-.1-.2-.2-.2-.3v-.4c-.5-2.1-1.2-4.2-1.7-6.4.1.8.3 1.5.3 2.3 0 .5.1 1.1.2 1.8.2.5.3.9.4 1.3z"/><path fill="#D5861C" d="M40.1 74.5c.3-1.7 1.1-3.3 2.3-4.6.4-.6 1-1.1 1.5-1.6-1.7.2-3.5.5-5.1 1.1.4 1.7.9 3.4 1.3 5.1zm49.8-19.6c0 .5.1 1.1.1 1.6 0 1.9-.3 3.7-.7 5.4-.1.6-.3 1.1-.4 1.7h.2c1.6-.1 3.8-1.6 5.6-3.7.1-.2.3-.3.4-.5.1-1.3.9-2.9 1.3-3.8.4-.8.9-1.6 1.4-2.4v-.1c0-1.3-.4-2.3-1.5-3.1h-.1c-2 1.8-4.4 3.5-6.3 4.9z"/><path fill="#F29F4C" d="M52.8 53.4c0-.1.1-.1.1-.2h-.1v.2z"/><path fill="#F29F4C" d="M49.7 54.4c-.2-.1-.3-.3-.4-.4-.4-.5-.6-1.2-.6-1.9s.2-1.4.6-1.9c.3-.4.8-.8 1.5-.9.2-.1.3-.2.5-.2.1 0 .3 0 .4.1h.2c.7 0 1.1.5 1.5 1.1.4.6.7 1.3.7 2.1 0 .7-.2 1.3-.8 1.8.4-.2.7-.6 1-1l.2-.2c.1-.3.1-.6.1-.9 0-1-.5-1.8-1.2-2.3-.7-.6-1.6-.9-2.5-.9-1.2 0-2.2.5-2.7 1.8-.1.3-.2.6-.2.8 0 1 .5 2.2 1.7 2.9zm5.7-2.3c0-.3 0-.6-.1-.9.1.3.1.6.1.9zm30.9 8.1s0 .1 0 0c0 .5-.1 1-.2 1.5-.2.7-.6 1.3-1 1.7 1.2-.7 1.5-2 1.2-3.2zm-4.6-.4c-.1-.2-.1-.3-.2-.5v.5h.2z"/><path fill="#F29F4C" d="M85.2 61.5c.1-.4.2-.8.2-1.2 0-1-.4-1.6-1.1-2.1-.5-.3-1.1-.5-1.7-.6.2.1.4.3.6.5l.1.1v.1c.5.6.9 1.4.9 2.1 0 .9-.7 1.8-2 2-.2 0-.4.1-.6.1-.4 0-.8-.1-1.1-.2.2.2.4.4.7.5.9.2 1.8.4 2.7.5.5-.2 1-.7 1.3-1.8zM82 58.8c-.1-.1-.3-.1-.4-.1l.1.1h.3zm-.5-.1c-.1 0-.1 0 0 0h-.1l-.1.1c.1 0 .2.1.2.2-.1-.2-.1-.3 0-.3z"/><path fill="#F4F1EA" d="M78.1 89.1c.9-.5 1.6-1 2.2-1.7-1.5 1-3.4 1.8-4.8 2.1h-.2c1.2.1 2.2-.1 2.8-.4zm3.2-3.6c.6-.8.8-1.7.8-2.7 0-.6-.1-1.1-.2-1.7-.1 0-.2 0-.3-.1-.2-.2-.2-.4 0-.6l.2-.2c0-.1 0-.2-.1-.3-.8-.7-1.6-1.4-2.6-2-.2-.1-.3-.4-.1-.6.1-.2.4-.3.6-.1.7.5 1.4.9 2 1.4-.2-1.4-.6-2.8-1-4.3-.5 0-1 .1-1.5.1-.2 0-.4-.2-.4-.4s.2-.4.4-.4c.4 0 .9 0 1.3-.1-.2-.6-.4-1.3-.7-1.9h-.1c-.7 0-1.3 0-2-.1-.2 0-.4-.2-.4-.4s.2-.4.4-.4h1.7c-.1-.3-.2-.6-.3-.8-.6.2-1.2.3-1.8.3l-.1.1-.1.1h-.2c-.1.1-.1.1-.2.1h-.1c-.1 0-.2 0-.3-.1-.1-.1-.3-.3-.3-.5v-.2c0-.1 0-.2.1-.3 0-.2.1-.3.3-.3.1 0 .2 0 .3.1.1 0 .1 0 .2.1.1 0 .1.1.2.2.6 0 1.2-.1 1.8-.3-.7-1.6-1.4-3.1-2.1-4.6-.3-.6-.6-1.1-.9-1.6-1.1-.8-2-1.8-2.8-3-.4-.3-.9-.6-1.4-.8-2.3-1.3-5.2-2.3-7.9-2.8-.4-.1-.8-.1-1.2-.1h-.3c-.2.2-.4.4-.7.6-2.4 2-4.6 2.9-7 3l-2.4 1.5c.1.1.1.2.2.3.1.2 0 .5-.2.6h-.2c-.1 0-.3-.1-.4-.2l-.2-.2-1.2.9c.3 0 .7 0 1 .1.2 0 .4.2.4.5 0 .2-.2.4-.5.4-.6-.1-1.2-.1-1.8-.1l-.2.2c-1.1 1.2-2 2.5-3.1 3.8.8 0 1.5.1 2.3.2.2 0 .4.3.3.5 0 .2-.3.4-.5.3-.8-.1-1.6-.2-2.5-.2h-.4c-.3.4-.7.8-1.1 1.2-.5.5-1 1-1.4 1.5 2.9.9 5.5 1.5 8.4.3 1.6-.7 2.6-1.7 3.4-2.9-.1-.1-.1-.2-.1-.3v-.6c0-.1.1-.3.2-.3.1-.1.2-.1.3 0h.1c.1 0 .1 0 .2.1h.1c.9-1.8 1.5-3.8 2.6-5.6.3-.5.7-.9 1.1-1.3 0-.5.4-.7.7-.9.2-.2.4-.4.7-.6.9-.7 2-1 3.2-1h.1c2.7 0 5.2 1.1 7.4 2.5 1.2.7 1.7 1.8 1.9 2.9l1.8 1.5c-.1 0-.2 0-.2.1 1.5 2.2.4 4.7-.2 7.1-.5 1.8-1.7 3.8-1.5 5.7.4 2.8 3.6 2.4 5.4 3.8 1.3 1 2.3 2.5 2.1 3.8-.1.6-.4 1.3-1.1 1.7-.1.1-.2.2-.4.2-.2-.4-.2-.4-.3-.4-.1 0-.1.1-.2.1-.1.1-.2.1-.4.2-.3.1-.7.2-1.2.4-.9.2-1.9.5-2.5.5h-.1c-.7 0-1.3-.2-1.9-.5.6.7 1.4 1 2.4 1 .2 0 .5 0 .7-.1 1.8-.2 4.9-1.7 6-3.1zM49.9 65.6v-.1c0-.2.2-.4.4-.4.1 0 .3.1.3.2h.3c.1 0 .2.1.3.2.1.1.1.2.1.3v.4s0 .1-.1.2v.2c0 .1 0 .1-.1.2 0 .1-.1.1-.2.2h-.4c-.4-.2-.7-.4-.7-.9 0-.3.1-.4.1-.5zm1.6 4.2c-.1.1-.2.2-.4.2s-.4-.1-.5-.2c-.1 0-.2-.1-.3-.1-.1-.1-.2-.2-.2-.3v-.1c0-.1-.1-.1-.1-.2-.1-.2 0-.5.2-.5h.3c.1-.1.2-.1.4-.1h.5c.1 0 .2.1.3.2.1.1.1.2.1.3 0 .4-.2.6-.3.8zm2.2-2.7c-.1 0-.1.1-.1.1v.1s0 .1-.1.1H53c-.1 0-.1 0-.2-.1h-.1l-.1-.1c-.1-.1-.1-.1-.1-.2v-.2c0-.1 0-.3.1-.4 0 0 0-.1.1-.1 0 0 0-.1.3-.2h.4c.2-.1.5 0 .5.3v.1l.1.1c-.1.2-.2.3-.3.5zm.2-2.6c-.1.1-.2.1-.3.1h-.1c-.1.1-.2.2-.4.2s-.3-.1-.4-.3v-.1c-.1-.1-.1-.2 0-.3 0-.2.1-.5.2-.7.1-.2.4-.3.6-.2h.1c.4.1.3.2.4.2v.8s.1 0-.1.3zm2 .1c-.2.1-.3.2-.5.3-.2 0-.2 0-.4.1h-.1c-.1 0-.3-.1-.3-.2-.1-.1-.1-.3 0-.4 0-.1 0-.2.1-.3 0-.1.1-.2.3-.3.1-.2.3-.2.5-.2.1 0 .2.1.3.3.1 0 .2.1.2.1.1.1.2.2.2.3-.1 0-.2.2-.3.3zm22.3 10.6c.1 0 .4.1.4.1.1 0 .2.1.3.2.1.1.1.3 0 .4v.2c0 .1 0 .1-.1.2v.1c0 .2-.2.4-.4.4-.1 0-.2 0-.3-.1-.1 0-.1 0-.2-.1h-.2c-.2-.1-.3-.2-.3-.4 0-.3.1-.5.1-.6 0-.2.2-.4.5-.4h.2zm-1.4.4zM75.1 73c0-.1 0-.3.1-.5 0-.2.2-.3.3-.3h.5c.1 0 .2.1.2.1l.1.1s.1.1.1.2c.1.1.1.3 0 .4-.2.3-.3.4-.4.5 0 .1 0 .1-.1.2s-.2.2-.4.2h-.2c-.2-.1-.3-.3-.2-.5V73zm2.1-.4c.1-.1.2-.1.3-.1.2 0 .2.1.2.1.1 0 .2.1.3.1.2 0 .4.1.4.3 0 .2-.1.3-.2.4v.1s0 .1-.1.2-.2.2-.3.2h-.5s-.1 0-.2-.1c-.1 0-.2-.2-.2-.3 0-.1 0-.2.1-.2-.1-.1-.1-.3-.1-.4.1-.2.2-.3.3-.3zm-1.8 3.9l-.1-.4c0-.2.1-.3.2-.5 0-.1.1-.1.2-.1 0-.1.1-.1.1-.2.1 0 .1-.1.1-.1.1-.1.3-.2.4-.2.2 0 .3.1.3.3l.1.1v.1c.1 0 .2.1.3.1.2.1.3.3.2.5-.1.2-.1.4-.2.6 0 .1-.1.2-.2.3h-.1c-.3 0-.7-.1-.9-.2-.2.1-.4 0-.4-.3zm-33-6.6c.3-.4.7-.8 1.1-1.1l.5-.5h-.1c-.5.5-1.1 1-1.5 1.6zm4.4-5.2c-.8.9-1.3 1.8-2 2.7 1-1.2 1.9-2.5 3-3.7-.4.3-.7.6-1 1zm32.6 4.1s0 .1 0 0c0 .1.1 0 .2 0-.1-.2-.1-.4-.2-.5v.5zm-2.9 1.5h-.1zm3.3-.7h-.1c.1.4.3.7.4 1.1-.1-.3-.2-.7-.3-1.1zm-1.3-2.5c-.1-.8-.3-1.8-.6-2.7-.1-.1-.1-.3-.2-.4-.2-.1-.4-.2-.7-.3-.1 0-.1-.1-.2-.1.1.2.2.3.3.5.5 1 1 2 1.4 3zm-1.9 3.3zm0 0s-.1 0 0 0c-.1 0-.1 0 0 0-.1 0-.1 0 0 0zm-4.8-12s.1 0 .1.1c-.9-1.9-1.4-3.9-1.6-5.6-1.2-.3-2-.4-2.8-.4-1.4 0-2.1.4-2.9 1.2-.5.5-1 1.1-1.7 1.8.2 0 .5 0 .7.1 2.8.3 5.8 1.5 8.2 2.8zm4.9 12zm-.1 0zm.1 0zm-.2 0zM58.9 54.9c-.6 1-1.3 1.7-2.1 2.3.1 0 .2-.1.3-.1.7-.4 1.3-.8 2-1.1 2.8-2 3.9-4 3.9-5.8 0-1.3-.6-2.6-1.6-3.9 0 .2-.1.4-.1.6-.2 2.6-1 5.9-2.4 8zm18.2-6.7c-2.5 1.1-3.9 4.1-3.9 7 0 .5 0 1 .1 1.5.3 1.8 1.5 3.1 3.1 4.2-.5-1.3-.9-2.5-.9-3.6v-.4c-.1-.3-.1-.6-.1-.9 0-1 .4-2 1.3-2.8.9-.7 2.1-1 3.1-1.4.3-.1.6-.3.9-.4.4-.5.8-1 1-1.6-.2-.9-.3-1.9-.5-2.8-1.4.2-2.7.6-4.1 1.2zm-15.2-4.6c.7.5 1.3 1 2.1 1.6 1.6 1.1 3 1.5 4.4 1.5 2.2 0 4.4-1.1 7.2-1.8.8-.2 1.7-.4 2.6-.5-.4-.3-.8-.5-1.2-.8-.1 0-.1-.1-.2-.1-1.8-1.2-3.6-2.1-5.4-2.9h-.2l-1.8-.6c-.6-.2-1.3-.4-2-.5-1.6-.3-3.3-.6-5.2-.7.3 1.4 0 3.1-.3 4.8z"/><path fill="#FFF" d="M53.1 51.8l-.2.2c0 .1.1.3 0 .5v.1c0 .2 0 .4-.1.6h.1c.2-.3.2-.6.2-.9.1-.2.1-.3 0-.5zm28.6 8c.1 0 .2.1.2.2h.2c.1 0 .2.1.2.2.1-.1.2-.2.2-.3.1-.1.2-.2.3-.2-.2-.4-.4-.7-.6-.8-.1-.1-.2-.1-.3-.2h-.2l-.1-.1h-.1v.3c0 .1.1.1.1.2v.2c0 .2 0 .3.1.5z"/><path fill="#511B2A" d="M55.4 52.1c0-.3 0-.6-.1-.9-.5-2-2.5-3.2-4.4-3.2-1.4 0-2.9.7-3.5 2.3-.3.6-.4 1.2-.4 1.7 0 1.1.5 2 1.3 2.6.8.6 1.8.9 2.8.9 1.3 0 2.6-.5 3.5-1.6.2 0 .4-.1.4-.3.3-.4.4-1 .4-1.5zm-7.5-.1c0-.2 0-.4.1-.6 0-.3.1-.5.2-.8.5-1.2 1.6-1.7 2.7-1.8.9 0 1.8.3 2.5.9.7.6 1.2 1.4 1.2 2.3 0 .3 0 .6-.1.9-.1 0-.2.1-.2.2-.3.4-.6.7-1 1 .5-.5.8-1.1.8-1.8 0-.8-.3-1.5-.7-2.1-.4-.6-.9-1-1.5-1.1h-.2c-.1-.1-.3-.1-.4-.1-.2 0-.4.1-.5.2-.6.1-1.1.4-1.5.9-.4.6-.6 1.3-.6 1.9 0 .7.2 1.4.6 1.9.1.2.3.3.4.4.1.1.1.1.2.1-.4-.1-.7-.3-1-.5-.7-.4-1-1-1-1.9zm5.3.3c0 .3-.1.6-.2.9 0 .1-.1.1-.1.2 0-.1 0-.1.1-.2.1-.2.1-.4.1-.6V52c.1-.1.1-.2.2-.2-.1.2-.1.3-.1.5zm23.5 18.1zm-.1 0zm.1 0zm0 0zm0 0zm-.2 0zm.2 0zm-.2 0zm.1 0zm-20.9-6.6c0-.1-.1-.2-.3-.3-.2-.1-.4 0-.5.2-.2.1-.3.2-.3.3 0 .1-.1.2-.1.3-.1.1-.1.3 0 .4.1.1.2.2.3.2h.1c.2-.1.2 0 .4-.1s.3-.1.5-.3c.1-.1.2-.2.2-.3 0-.1-.1-.3-.2-.3 0-.1 0-.1-.1-.1zm-.6 4.6c.3 0 .5-.1.5-.3V68c0-.1.1-.4.1-.4.1-.1.1-.3 0-.4 0-.1-.1-.2-.2-.2-.1-.1-.2-.1-.3-.1h-.1c-.1 0-.1-.1-.2-.1h-.4c-.1.1-.2.2-.2.3v.6c0 .1 0 .3.1.3.1.1.2.1.2.1.2.2.3.3.5.3zm-1.3-1.9v-.1c-.1-.2-.3-.3-.5-.3h-.4c-.3 0-.3.2-.3.2 0 .1-.1.1-.1.1-.1.1-.1.3-.1.4v.2s0 .1.1.2l.1.1h.1c.1 0 .1 0 .2.1h.5l.1-.1v-.1l.1-.1c.1-.1.2-.3.1-.5.1 0 .1-.1.1-.1zm23.1 6.3c0 .1 0 .3.1.4 0 0 0 .1-.1.2 0 .2.1.3.2.3l.2.1h.5c.1 0 .3-.1.3-.2.1-.1.1-.2.1-.2v-.1c.1-.1.2-.3.2-.4 0-.2-.2-.4-.4-.3 0 0-.1 0-.3-.1 0 0-.1-.1-.2-.1s-.2.1-.3.1l-.3.3zm-1.5 1.3h.2c.2 0 .3-.1.4-.2 0-.1.1-.1.1-.2.1-.1.3-.2.4-.5.1-.1.1-.3 0-.4 0-.1-.1-.2-.1-.2l-.1-.1c-.1 0-.2-.1-.2-.1h-.5s-.2.1-.3.3c0 .2-.1.3-.1.5 0 .3.1.4.1.5-.2 0-.1.3.1.4zm2.2 1.4c0 .1-.1.3-.1.6 0 .2.1.4.3.4h.2c.1 0 .1.1.2.1s.2.1.3.1c.2 0 .4-.2.4-.4v-.1c0-.1.1-.1.1-.2v-.2c.1-.1 0-.3 0-.4-.1-.1-.2-.2-.3-.2 0 0-.3-.1-.4-.1-.1-.1-.1-.1-.2-.1-.3.1-.5.3-.5.5zm-1.8 1.4c.3.1.6.2.9.2h.1c.1 0 .2-.1.2-.3.1-.2.1-.4.2-.6 0-.2 0-.4-.2-.5-.1 0-.2-.1-.3-.1v-.1l-.1-.1c0-.1-.2-.3-.3-.3-.2 0-.3 0-.4.2 0 0-.1 0-.1.1 0 0-.1.1-.1.2-.1 0-.1.1-.2.1-.1.1-.2.3-.2.5 0 .4.1.3.1.4 0 .2.2.3.4.3zm-24.4-8.4h-.5c-.1 0-.3 0-.4.1h-.3c-.2.1-.3.3-.2.5 0 .1 0 .1.1.2v.1c0 .1.1.2.2.3.1.1.2.1.3.1.2.1.3.2.5.2.1 0 .3-.1.4-.2.1-.2.3-.3.4-.7 0-.1 0-.2-.1-.3-.1-.2-.2-.3-.4-.3zm-.8-1.7h.4c.1 0 .2-.1.2-.2s.1-.1.1-.2v-.2c0-.1 0-.1.1-.2v-.4c0-.1 0-.2-.1-.3-.1-.1-.2-.1-.3-.2h-.3c-.1-.1-.2-.2-.3-.2-.2 0-.4.2-.4.4v.2c-.1.1-.1.2-.1.3 0 .6.3.8.7 1zm3.4-2.6c.1-.1.1-.1 0 0v-.8s0-.2-.4-.2h-.1c-.2-.1-.5 0-.6.2-.1.2-.2.5-.2.7v.4c.1.2.2.3.4.3s.3-.1.4-.2h.1c.1 0 .2 0 .3-.1.2-.3.1-.3.1-.3zm-.7 9.8c.1 0 .2 0 .2-.1.3-.2 1.2-.7 1.4-1.6.1-.2-.1-.4-.3-.5-.2-.1-.4.1-.5.3-.1.4-.8 1-1.1 1.1-.2.1-.3.4-.1.6.1.1.3.2.4.2zm1.7.4c.1.1.2.1.3.1.1 0 .2-.1.3-.1.3-.4.5-.9.6-1.5 0-.2-.1-.4-.4-.5-.2 0-.4.1-.5.4 0 .4-.2.8-.4 1-.1.2-.1.5.1.6zm2.2-2.6c-.2 0-.4.1-.5.4-.1.6-.1 1.2-.2 1.9 0 .2.1.4.4.5.2 0 .4-.2.4-.4.1-.6.1-1.2.2-1.9.1-.3-.1-.5-.3-.5zm11.5 6.3c.1-.4.3-.8.5-1.2.1-.2 0-.5-.2-.6-.2-.1-.5 0-.6.2-.2.4-.4.8-.5 1.3-.1.2 0 .5.3.5h.1c.2 0 .4-.1.4-.2zm1.5.6c.3 0 .4-.2.4-.4 0-.5-.1-1.1-.1-1.6 0-.2-.2-.4-.4-.4s-.4.2-.4.4c0 .5.1 1.1.1 1.6-.1.2.1.4.4.4zm2.1 1.7c.2 0 .4-.2.4-.4 0-1.4-.5-2.1-1.1-3.2-.1-.2-.4-.3-.6-.2-.2.1-.3.4-.2.6.7 1.3 1 1.7 1 2.9 0 .2.2.3.5.3zM50.6 101c-.2-.3-.3-.9-.3-1.4v-.5c0-.2-.1-.4-.4-.5-.2 0-.4.1-.5.4v.6c0 .4 0 .8.1 1.2.1.4.3.8.8 1h.1c.2 0 .3-.1.4-.3.2-.2.1-.5-.2-.5zm10.7 3.9h.1c.2 0 .3-.1.4-.3.1-.5.2-.9.2-1.4v-1.3c0-.2-.2-.4-.4-.4s-.4.2-.4.4v1.3c0 .4 0 .9-.1 1.2-.2.2 0 .5.2.5zm-1.8.9c.2 0 .4-.2.4-.4 0-.7.1-1.4.1-2.1 0-.2-.2-.4-.4-.4s-.4.2-.4.4c0 .7-.1 1.4-.1 2.1 0 .2.2.4.4.4zm-5.5-.4s.1 0 0 0c.2 0 .4-.2.4-.4 0-.7-.1-1.4-.1-2.1 0-.2-.2-.4-.4-.4s-.4.2-.4.4c0 .7.1 1.4.1 2.1 0 .2.2.4.4.4zm-.5-2.5zm3.1 4.3c.1 0 .2 0 .3-.1.2-.1.2-.4 0-.6-.3-.3-.3-1.3-.4-2.1 0-.2-.2-.4-.4-.4s-.4.2-.4.4c.1.7-.1 1.8.6 2.6.1.1.2.2.3.2zm1.4-.2c-.1.6-.2 1.2-.2 1.8 0 .2.1.4.4.5h.1c.2 0 .4-.2.4-.4.1-.6.2-1.2.2-1.8 0-.2-.1-.4-.4-.5-.3.1-.5.2-.5.4zm3 1.4c0 .1 0 .1 0 0 .3 0 .4-.1.5-.4.1-.6.2-1.2.2-1.8 0-.2-.1-.4-.4-.5-.2 0-.4.1-.5.4-.1.6-.2 1.2-.2 1.8 0 .3.2.5.4.5zm-9.1-7.9c0-.2-.2-.4-.4-.4s-.4.2-.4.4v1c0 .5 0 1 .3 1.4.1.1.2.2.3.2.1 0 .2 0 .2-.1.2-.1.2-.4.1-.6-.1-.2-.2-.5-.2-.9.1-.3.1-.6.1-1zm-.3 6.6c0 .4 0 1.2.1 1.8.1.2.2.3.4.3h.1c.2-.1.3-.3.3-.5-.1-.2-.1-1.1-.1-1.5 0-.2-.2-.4-.4-.4-.2-.1-.4.1-.4.3zm1.7 3.1c.2 0 .4-.2.4-.4v-1.9c0-.2-.2-.4-.4-.4s-.4.2-.4.4v1.9c0 .2.2.4.4.4zm4.1-6.7c.2 0 .4-.2.4-.4v-1c0-.4 0-.7.1-.8.1-.2 0-.5-.2-.5-.2-.1-.5 0-.5.2-.2.4-.2.8-.2 1.2v1c0 .2.2.3.4.3zM48.5 96c-.2-.1-.5 0-.6.2-.3.6-.5 1.4-.5 2 0 .2.2.4.4.4s.4-.2.4-.4c0-.6.2-1.3.4-1.7.2-.2.1-.4-.1-.5zm8.4 15.9c-.2-.1-.4.1-.5.3-.1.6-.2 1.2-.2 1.9v.6c0 .2.2.4.4.4s.4-.2.4-.5v-.5c0-.6.1-1.1.2-1.7 0-.2-.1-.4-.3-.5zm25.5-11.4c.2 0 .4-.2.4-.4v-1.7c0-.2-.2-.4-.4-.4s-.4.2-.4.4v1.7c0 .2.2.4.4.4zm-1.8 3.9c.2 0 .4-.2.4-.4v-2.1c0-.2-.2-.4-.4-.4s-.4.2-.4.4v2.1c-.1.2.1.4.4.4zm1.6.2v.9c0 .5 0 1-.2 1.4-.1.2 0 .5.2.5h.1c.2 0 .3-.1.4-.3.2-.6.2-1.2.2-1.7v-.9c0-.2-.2-.4-.4-.4-.1.1-.3.3-.3.5zm-3.1 23c-.2 0-.4.2-.4.4-.1 1-.1 1.9-.2 2.9 0 .2.2.4.4.4s.4-.2.4-.4c.1-1 .1-1.9.2-2.9 0-.2-.1-.4-.4-.4zm2.4-1.5c-.2-.1-.4.1-.5.3-.2.6-.2 1.2-.2 1.8v.1c0 .2.2.4.4.4s.4-.2.4-.4v-.1c0-.6.1-1.1.2-1.6.1-.2-.1-.4-.3-.5zm-4.7-2.9c-.2 0-.4.1-.5.4-.1.8-.2 1.5-.2 2.3 0 .2.2.4.4.4s.4-.2.4-.4c0-.8.1-1.4.2-2.3.1-.2 0-.4-.3-.4zm3.5-6.1v-1.7c0-.2-.2-.4-.4-.4s-.4.2-.4.4v1.7c0 .2.2.4.4.4.3.1.4-.1.4-.4zm2.4-2c-.2 0-.4.1-.5.3-.1.6-.3 1.3-.4 1.9-.1.2.1.4.3.5h.1c.2 0 .4-.1.4-.3.1-.6.3-1.3.4-1.9.1-.3 0-.5-.3-.5zm0-5c-.3.5-.3 1-.3 1.5v1.3c0 .2.2.4.4.4s.4-.2.4-.4v-1.3c0-.5 0-.9.2-1.1.1-.2 0-.5-.2-.6-.1-.1-.4 0-.5.2zm-27.8 26.4c0-.2-.2-.4-.4-.4s-.4.2-.4.4v1.5c0 .2.2.4.4.4s.4-.2.4-.4v-1.5zm1.1-1.4c.2 0 .4-.2.4-.4v-2.5c0-.2-.2-.4-.4-.4s-.4.2-.4.4v2.5c-.1.2.1.4.4.4zm-1.5-3.8h.1c.2-.1.3-.3.3-.5-.1-.4-.2-.9-.2-1.4v-.5c0-.2-.1-.4-.4-.5-.2 0-.4.1-.5.4v.6c0 .6.1 1.1.3 1.6.1.2.2.3.4.3zm2.3-8.7c-.2 0-.4.1-.5.3-.1.9-.3 1.8-.4 2.7 0 .2.1.4.3.5h.1c.2 0 .4-.1.4-.4.1-.9.3-1.8.4-2.7.1-.2 0-.4-.3-.4zm-2.7-2.6v.3c0 .7.1 1.4.2 2.1 0 .2.2.3.4.3h.1c.2 0 .4-.3.3-.5-.1-.6-.2-1.3-.2-1.9v-.3c0-.2-.2-.4-.4-.4s-.4.2-.4.4zm3.9-3c-.2-.1-.5 0-.5.3-.3.8-.6 1.7-.8 2.5-.1.2 0 .5.3.5h.1c.2 0 .3-.1.4-.3.3-.8.6-1.7.8-2.5 0-.2-.1-.5-.3-.5zm20.8-6.6c.2-.2.2-.4 0-.6-.2-.2-.4-.2-.6 0-.5.5-.6 1.1-.6 1.7 0 .3 0 .6.1.9 0 .2.2.4.4.4s.4-.2.4-.5-.1-.6-.1-.8c0-.5.1-.9.4-1.1zm2 13.4v-.1c0-.6.2-1.1.6-1.7.1-.2.1-.4-.1-.6-.2-.1-.4-.1-.6.1-.5.6-.7 1.4-.7 2.2v.2c0 .2.2.4.4.4.2-.1.4-.3.4-.5zm-5.2 9.3s0-.1.1-.2c.1-.2.1-.4-.1-.6-.2-.1-.4-.1-.6.1-.1.2-.3.4-.3.7 0 .3.2.6.4.7.1 0 .1.1.2.1s.3-.1.4-.2c.1-.3.1-.5-.1-.6z"/><path fill="#199E90" d="M36.6 42h.2v.2c.8 3.9-.1 7.9 2.2 11.1 2.7 3.6 6 4.3 10.3 5.3 1.7.4 3.1.6 4.4.6 2.6 0 4.7-.8 7.2-2.9 1.5-1.3 2.3-2.4 3.2-3.2.9-.8 1.8-1.3 3.3-1.3.8 0 1.8.1 3.1.4h.2v.2c.4 3.9 2.6 9.2 6.5 10.7 4.1 1.6 6 2.3 10.4 2.5-.1-.1-.1-.2-.2-.2-.1-.2-.1-.4.1-.6.2-.1.4-.1.6.1.2.3.4.5.6.8h.5c4.8 0 6.3-3.1 8.1-7 .8-1.8 1.9-3.5 3.6-4.8 1.1-.8 3-1.4 3-3 0-.2 0-.5-.1-.7V50c0-.2 0-.3.1-.4-6.8-1.6-15.2-4.7-22.7-4.7-1.9 0-3.6.2-5.3.6-2.7.7-4.9 1.8-7.4 1.8-1.5 0-3-.4-4.7-1.6C60 43 58.3 40.9 53.4 40c-6.3-1.1-12.7-2-19.1-2.8l-.1.2c-.4.7-.6 2-.7 3.1 1 .6 2 1.2 3.1 1.5zm40.2 5.7c2.1-1 4.1-1.4 6.1-1.4 1.2 0 2.4.2 3.7.5 3 .7 7.1.7 10 2.7 1.3.9 1.8 2.2 1.8 3.6 0 2.4-1.4 5.1-3.2 7.3-1.8 2.2-4.1 3.8-6 3.9h-1.1c-2.6 0-6.1-.4-9.2-1.5-3.1-1.1-5.7-3-6.2-5.9-.1-.5-.1-1.1-.1-1.6-.1-3.1 1.4-6.4 4.2-7.6zM39 44.1c.2-1.5 1.1-2.6 2.3-3.3 1.3-.8 3.1-1.1 5.1-1.1 3.6 0 7.9 1.2 11.3 3.1 3.4 1.9 6 4.5 6 7.5 0 2.1-1.3 4.2-4.2 6.3-2 1.4-4.2 2-6.5 2-2.9 0-5.9-.9-8.6-2-2.9-1.1-4.3-2.9-5.1-5-.8-2.1-.8-4.6-.9-7.2v-.6l.6.3z"/><path fill="#511B2A" d="M39.4 51.5c.8 2.1 2.2 3.9 5.1 5 2.7 1.1 5.7 2 8.6 2 2.2 0 4.4-.5 6.5-2 2.9-2.1 4.2-4.2 4.2-6.3 0-3-2.6-5.6-6-7.5-3.4-1.9-7.7-3.1-11.3-3.1-2 0-3.7.3-5.1 1.1-1.2.7-2 1.8-2.3 3.3l-.6-.4v.6c0 2.7.1 5.1.9 7.3zm.1-6.9c.1-1.6.9-2.6 2.1-3.4.5-.3 1-.5 1.6-.7-.2 1.4-.8 3-.8 4.6 0 .4 0 .7.1 1.1-.6 2.1-.6 4.5-.9 6.3-.1.4-.1.7-.2 1.1-.6-.7-1-1.5-1.4-2.4-.7-1.8-.8-4-.9-6.4l.4.3v-.5zm7.9-4.4c-1.6 1-3 2.3-4.1 4.1 0 0 0 .1-.1.1.2-1.2.6-2.6.8-4 .7-.1 1.5-.2 2.3-.2h1.1zm10 3c1.6.9 3.1 2 4.1 3.2 1 1.2 1.6 2.5 1.6 3.9 0 1.8-1.1 3.8-3.9 5.8-.7.3-1.4.7-2 1.1-.1 0-.2.1-.3.1-1.2.4-2.5.6-3.8.6-2.8 0-5.7-.9-8.4-2-1.1-.5-2-1-2.7-1.6.2-.5.3-1 .4-1.6.3-1.8.3-3.9.8-5.8.2-.1.3-.3.2-.5v-.1c.2-.5.4-1.1.7-1.5 1.2-2 2.9-3.4 4.9-4.3 2.8.3 5.8 1.3 8.4 2.7zm21.5 19.5c3.1 1.1 6.6 1.5 9.2 1.5h1.1c1.9-.1 4.2-1.8 6-3.9 1.8-2.2 3.2-4.9 3.2-7.3 0-1.4-.5-2.7-1.8-3.6-2.9-2-7-1.9-10-2.7-1.3-.3-2.5-.5-3.7-.5-2 0-4 .5-6.1 1.4-2.8 1.3-4.3 4.5-4.3 7.6 0 .5 0 1.1.1 1.6.6 3 3.3 4.8 6.3 5.9zm17.4-12.8c1.1.8 1.5 1.8 1.5 3.1v.1c-.5.8-1 1.6-1.4 2.4-.4 1-1.2 2.5-1.3 3.8-.1.2-.3.3-.4.5-1.8 2.1-4 3.7-5.6 3.7h-.2c.1-.6.2-1.1.4-1.7.4-1.6.7-3.5.7-5.4 0-.5 0-1.1-.1-1.6 1.9-1.3 4.3-3 6.4-4.9zm.7 6.4c0 .1-.1.2-.1.2s.1-.1.1-.2zM89.7 54c-.4-2.6-1.4-5.1-3.6-6.8.1 0 .2 0 .3.1 2.8.7 6.4.7 9 2.1-1.7 1.7-3.8 3.2-5.7 4.6zm-6.8-7.2h.9c.5.2.9.4 1.3.6 3 1.9 4 5.4 4 9 0 1.8-.3 3.6-.6 5.2-.1.6-.3 1.3-.4 1.9-.9 0-1.9-.1-3-.2.4-.4.8-1 1-1.7.2-.5.2-1 .2-1.4v-.1c0-1.2-.7-2.1-1.5-2.7-.9-.6-2-.8-3-.8-.9 0-1.7.2-2.4.5-.7.4-1.2 1-1.2 1.8v.4c0 .1 0 .1.1.1v.4c0 .8.4 1.6 1 2.3h-.1c-.4-.1-.8-.3-1.1-.5-.4-1.1-.8-2.2-1.1-3.1-.3-1-.6-1.9-.6-2.7 0-.8.2-1.5 1-2.1.7-.6 1.8-.9 2.9-1.3 1-.4 2.1-.9 2.5-2.1v-.2l-.6-3.3c.1.1.4 0 .7 0zm-1.8 16c-.2-.2-.5-.3-.7-.5.3.1.7.2 1.1.2.2 0 .4 0 .6-.1 1.4-.2 2.1-1.1 2-2 0-.8-.4-1.6-.9-2.1v-.1l-.1-.1c-.2-.2-.4-.4-.6-.5.6.1 1.2.3 1.7.6.7.5 1.1 1.1 1.1 2.1 0 .3-.1.7-.2 1.2-.4 1.1-.9 1.6-1.5 1.8-.7-.1-1.6-.3-2.5-.5zm.4-3.3V59c0-.1 0-.1-.1-.2 0-.1-.1-.1-.2-.2l.1-.1h.2c.1 0 .2.1.4.1.1 0 .2.1.3.2.2.1.4.4.6.8-.1 0-.3.1-.3.2-.1.1-.1.2-.2.3 0-.1-.1-.2-.2-.2h-.2c0-.1-.1-.2-.2-.2h-.2v-.2zm.2-9.7c0 .1 0 .3.1.4-.2.5-.6.8-1.1 1.1-.3.1-.6.3-.9.4-1 .4-2.2.7-3.1 1.4-1 .8-1.4 1.8-1.3 2.8 0 .3 0 .6.1.9.1.7.3 1.3.6 2 .2.7.5 1.5.8 2.3-.2-.1-.3-.2-.5-.3-1.6-1-2.8-2.4-3.1-4.2-.1-.5-.1-1-.1-1.5 0-2.9 1.4-5.9 3.9-7 1.4-.6 2.8-1 4.1-1.2.2 1 .4 1.9.5 2.9z"/><path fill="#511B2A" d="M115 190.9c-.7-1.7-1.5-3.2-2.1-4.7-.7-1.6-1.2-3.1-1.2-5 0-.5 0-1 .1-1.5.6-4.2 1.8-8.2 1.8-12.8 0-1.8-.1-3.5-.2-5.3-.2-3.4-.6-6.7-.8-10.1-.1-1.5-.3-2.8-.4-4-.2-1.4-.4-2.7-.4-4 0-1.6.2-3.1.9-5 .5-1.4.9-2.8 1.1-4.2.2-1.1.3-2.2.3-3.3 0-7.3-3.3-14.4-5.2-21.1-.8-2.7-1.5-5.4-2.5-8-.5-1.6-1.1-3.2-1.9-4.7-1-2.2-2.2-3.9-4-5.4-.2-.1-.3-.3-.5-.4-1.9-1.3-4.7-2.3-5.7-3.7 0-.1-.1-.1-.1-.2-1.5-2.1-1.7-6.1-2.6-9.2 0-.1-.1-.2-.1-.3-.1-.5-.3-1-.5-1.5v-.7c0-.4 0-.8.1-1.1.1-.7.7-1.1.7-2.1 0-.4-.1-.8-.4-1.2l-.1-.1.1-.6h-.1c-.2 0-.3 0-.5.1-.1-.1-.3-.2-.4-.2 0-.5-.1-.9-.2-1.3-.1-.2-.1-.5-.2-.7.4 0 .9.2 1.4.2h.5c.2 0 .3-.1.5-.2.7-.4 1.4-1.4 2-2.4.6-1 1.1-2 1.4-2.6 0-.1.1-.1.1-.2.1-.2.2-.3.2-.5 2.1-.5 4.1-1.5 5.4-3.2.6-.7 1-1.5 1.3-2.5.4-1.2.6-2.4.6-3.5V53c.5-.5.8-1.1.8-1.9 0-.3 0-.6-.1-.9l-.3.1.3-.1c0-.1.1-.4.1-.6l.1-.3-.3-.1c-.6-.2-1.3-.3-2-.5-.5-.8-1.1-1.6-1.8-2.3-.1-.5-.3-1-.6-1.4-.1-.1-.1-.2-.2-.2 0-.1-.1-.2-.2-.2h-.1c-.5-.3-1-.4-1.6-.4-2.3-1.5-4.9-2.6-7.4-3.3h.2c.1-2.8.6-5.6 1-8.5.2-1.7.4-3.4.5-5.2v-.3c0-5.3-3.3-8.3-7.1-11.3-3.7-3-8.9-3.6-13.4-3.9-2.4-.1-4.7-.9-7.1-.9-1.6 0-3.1.3-4.6 1.4-3.2 2.2-4.8 5.4-6.7 8.5-1 1.6-1.6 3.2-2.7 4.7-.7 1-1.8 2-2.8 3-.4.5-.8.9-1.1 1.4-.1 0-.2 0-.3-.1-1-.2-2.1-.4-3.1-.6-.2 0-.4 0-.6-.1-.6-.1-1.3-.1-1.9-.2h-1c-.6 0-1.1 0-1.7.1-1.7.2-3.3.6-4.6 1.5-1.7 1.1-2.7 3-2.7 5.8v.8c.2 3.5 2 6.6 4 9.2v.1c.1-.3.3-.6.4-.9-.9-1.2-1.8-2.5-2.4-3.9-.7-1.4-1.1-3-1.2-4.6v-.7c0-1.2.2-2.2.6-3V33c.1-.1.1-.2.2-.4.4-.6.9-1.2 1.5-1.6 1.1-.8 2.7-1.2 4.4-1.3.5 0 .9-.1 1.4-.1 4.3 0 9.3 1.4 12.4 2.5 11.9 4 23.9 6.5 36.3 9.1 2.6.5 5.6 1.6 8.1 3.1-.3 0-.5.1-.8.2-1.5.3-3.1.8-4.7 1.2-3.2-.7-6.5-1.3-9.7-1.3h-1.4l-2.4-1.5c-3.1-1.9-6-3.5-9.7-4.2-2.7-.5-5.8-.9-9-.9-2.4 0-4.8.2-7 .9-.9-.4-1.9-.8-2.9-1.1-1.4-.4-2.8-.8-3.9-1.5-1.2-.7-2.4-1.9-3.8-2.7-.8-.5-1.7-.9-2.7-1h-.5c-.1 0-.2 0-.2.1l-.1.1c0 .1-.1.1-.1.2-.1.1-.1.2-.1.3 0 .1.1.2.2.3v.3c0 .8-.4 2-.9 3.2 0 .1-.1.1-.1.2h-.2c-.9-.1-1.9-.2-2.8-.3H33v.5c0 .2.1.4.2.5-.4 1-.5 2.2-.6 3.2v.2l.2.1c.8.4 1.7.9 2.6 1.2V44c0 1.2-.1 2.2-.8 3.3C34 48.4 33 50 33 51.7c0 .4.1.9.2 1.3s.3.7.6 1c.1.1.2.2.3.4 1.2 1.1 2.3 1 3 2.1.1.2.3.5.4.8.4.9.6 1.9.8 2.8 0 .1 0 .1.1.2 0 .1.1.1.2.1-.4 1.3-.7 2.7-.8 4.1h-.1c-.4.2-.9.4-1.3.6-.2.1-.3.4-.2.6.1.1.2.2.4.2h.2c.3-.1.6-.3.9-.4h.1v.5c0 .8.1 1.7.2 2.5 0 .1 0 .2.1.3-.9.3-1.7.7-2.5 1.1-.2.1-.3.4-.2.6.1.1.2.2.4.2h.2c.7-.4 1.5-.7 2.3-1 0 .2.1.5.1.7.5 2.2 1.2 4.3 1.7 6.4v.4c0 .2.1.3.2.3 0 .2.1.3.1.5s.2.3.4.3c.1.3.2.6.4.9.9 1.8 2.4 2.9 4.2 3.4.6.1 1.2.2 1.8.2h.7c1.9-.2 3.4-1.3 4.8-2.3.4-.1.8-.1 1.3-.1 2.3 0 5.2.9 6.7 1.4.9.3 1.8.5 2.7.7l-.4.3 1.4-.1c.2.1.4.1.6.2 2 .6 3.8 1.4 5.3 2.9.3.7.7 1.4 1.1 2-.1 0-.2.1-.3.1-2.2.7-3.9 1.4-6.3 1.4h-.6c-2.9-.1-6-.9-8.3-2.1-.2-.1-.5 0-.6.2-.1.2 0 .5.2.6 2.5 1.3 5.6 2.1 8.6 2.2h.6c2.8 0 4.7-.9 7.1-1.6.7.8 1.7 1.3 2.9 1.3.2 0 .4 0 .7-.1h.2c1.4-.2 3.3-1.1 4.8-2.1.6-.4 1.2-.9 1.6-1.4.8-1 1-2.1 1-3.2 0-.6-.1-1.3-.2-1.9 1 1 1.9 2.2 2.9 3.4.1.1.2.2.3.2.1 0 .2 0 .3-.1.2-.1.2-.4.1-.6-1.1-1.4-2.1-2.7-3.3-3.8.4-.5.8-1 1.1-1.5.6-.9 1.1-1.8 1.5-2.8.5-.4 1.2-1 1.9-1.6.7 0 1.4 0 2.1.1h.1c.1.8.2 1.6.6 2.5 0 .6.1 1.1.1 1.7 0 .5 0 1-.1 1.5 0 .2-.1.3-.1.5 0 .1-.1.2-.1.3-.7 1.5-2.1 2.6-3.5 3.7-1.9 1.5-2.6 2.8-3.8 4.6-1 1.5-2.1 2.9-3.3 4.2l-.3-.8-.3 1.4v.1c-1.7 1.8-3.7 3.2-6 4.4-2.7 1.3-5.2 1.8-7.6 1.8-5.2 0-10-2.6-15.4-5.4-6.4-3.3-9.8-9.6-10-16.6-.3-.6-.5-1.3-.6-1.9-.1.4-.2.9-.2 1.3v.3c0 4.2 1.1 8.1 3.3 11.4h-.3c.1.8.1 1.6.1 2.4 0 3.2-.7 6-1.1 9.2-.1.8-.2 1.7-.3 2.5-1-1.3-2-2.7-2.4-3.6-1.3-2.6-1.8-6-1.9-9v-.6c0-.4.1-1 .1-1.7.1-1 .2-2.3.4-3.7.1-.2.3-.4.4-.5.2-.2.1-.4 0-.6-.1-.1-.1-.1-.2-.1.1-.7.2-1.5.4-2.2.4-1.8.8-3.6 1.3-4.9.1-.3.2-.5.3-.7l-.3-1.2c-.1.1-.2.3-.3.5-.2.3-.3.6-.4.9-.7 1.7-1.3 4.2-1.7 6.7-.1.4-.1.9-.2 1.3 0 .2 0 .3-.1.5-.8.9-1.5 1.8-2.1 2.8-1.7 2.4-3.1 5.1-4.4 7.8-.7 1.5-1.4 3-2 4.5-.9 2.1-1.7 4.3-2.5 6.3-2.2 5.6-4.4 10-4.9 16.2 0 .4-.1.9-.1 1.3 0 1 .1 2 .2 3 .1.9.2 1.9.4 2.8h-.1c-.2 0-.4.2-.4.5v.2c0 1.3-1.2 3.1-2.7 4.8-.5.6-1.1 1.2-1.6 1.8-.9 1-1.8 2-2.3 2.9-1.1 2-1.4 4.5-1.4 7 0 1.4.1 2.9.2 4.1.7 7.1 4.4 11.3 8.4 15.9.5.5.9 1.1 1.4 1.7.3 1.1.6 2.2.8 3.3h-.1c-.2 0-.4.2-.4.4v.3c0 .6-.1 1.2-.2 1.7-.3 1.4-1 2.7-1.8 4-1 1.9-2.2 3.8-2.4 5.9v.5c0 1.3.5 2.3 1.3 3.2l.2.2v.1c-.2.3-.3.7-.4 1-.1.2 0 .4.1.5.1.1.3.1.4 0 0 .1 0 .1.1.2s.2.2.3.2h.1c.1 0 .2 0 .3-.1 0 0 .1-.1.3-.2l.1-.1c.1 0 .2-.1.2-.1s.1 0 .1-.1c0 0 .1-.1.1-.2.5.3 1.1.5 1.7.7.1.2.2.4.4.6 0 .1.1.2.2.2h.4c.1.1.2.1.3.1h.1c.2 0 .4-.3.3-.5v-.1c.5.1 1 .1 1.5.1v1.2c0 .1 0 .2.1.3.1.1.2.1.3.1.1 0 .2 0 .2-.1h.2c.2-.1.3-.3.2-.6-.1-.2-.2-.3-.2-.4v-.6h.3c.6 1 1.2 1.9 1.9 2.9.4.6 1 1.5 1.7 2.5.5.6 1 1.2 1.6 1.7 0 .1.1.1.1.1.4.4.8.8 1.1 1.3.1.1.2.2.3.2h.1c.1 0 .1 0 .2-.1s.1-.2.1-.3v-.1c.1-.1.2-.3.1-.4v-.2c.8-.1 1.3-.5 1.8-.6.4-.1.8-.1 1.1-.1h.8c.2 0 .5 0 .7.1.1.3.3.6.7.8.1 0 .1.1.2.1s.2 0 .2-.1c.1-.1.2-.2.2-.3.1 0 .1.1.2.1.2 0 .3-.1.4-.3h.4c.1 0 .2-.1.2-.2h.4c.1 0 .2-.1.3-.2.1-.1.1-.2.1-.3v-.3c0-.3.1-.4.3-.5.2-.1.5-.2 1-.2 1.4 0 3.4.6 5 .6l.3.3c.1.1.2.2.3.2h.1c.2-.1.3-.2.3-.4v-.1h.1c.1 0 .2-.1.2-.1.1.1.1.1.2.1h.3c.1 0 .2-.1.2-.2h.1c.2-.1.3-.3.2-.5 0-.1-.1-.2-.2-.2 0-.1-.1-.1-.1-.2v-.2c0-.6-.2-1.3-.8-2.3-2.4-4.3-7.9-6.4-10.4-10.2-.1-.1-.2-.3-.3-.4-.7-1-1.2-2.1-1.7-3.2.4-2 .8-4 1.5-5.9.4-.1.8-.2 1.2-.2 2.7 0 5.8 2.7 8.4 3.8 5 2.2 9.8 3.6 15.3 4.3.8.1 1.7.2 2.6.3 1.4.1 2.7.2 4 .2 3.9 0 7.7-.5 11.6-.9.8-.1 1.7-.2 2.5-.4 0 0 0 .1.1.1.3.3.5.7.7 1.1l.7-.4-.6-.9-.1-.1c.7-.2 1.4-.3 2.2-.5 1.9-.4 3.8-.8 5.6-.8h1.1v.4c0 .3 0 .5-.1.8-.2 1.6-1.2 3.4-1.7 5.1-.1.5-.3.9-.3 1.3-.1.5-.1 1-.1 1.4 0 .8.1 1.4.5 1.9.4.6 1 .8 1.7.9v.5c0 .1 0 .2.1.3.1.1.2.1.3.1h.1c.1.1.2.2.4.2s.3-.1.4-.3c0-.2.2-.3.5-.6l.1-.1h1v.1l.1.1c-.3.9-.7 1.9-.7 2.9 0 .3 0 .6.1.8.3 1 1.1 1.6 2 2.1 0 .1 0 .3.1.4 0 .1-.1.2 0 .3v.4c0 .2.2.3.4.3.1 0 .2-.1.3-.1.2 0 .3-.1.3-.3 0-.1.1-.3.1-.5.9.3 2 .5 3 .5.1.3.2.5.3.8.2.3.5.5.9.5h.2c.2 0 .3-.1.4-.3.1 0 .1.1.2.1.2 0 .4-.2.4-.4 0-.1.1-.3.2-.5v-.1c.9 0 1.7-.1 2.3-.3.4-.1.8-.2 1.3-.3.2.4.6.8 1.1 1h.3c.1-.1.2-.1.2-.3 0-.2.1-.3.1-.5 0 0 0 .1.1.1.1.1.3.2.4.2.2 0 .3-.1.3-.3.1-.2.1-.5.2-.7v-.1c.5-.1.9-.2 1.3-.4.1 0 .2-.1.3-.1.7-.2 1.3-.5 1.6-.8l.1-.1c.3-.3.5-.7.4-1.1.1-1.3-.1-2-.5-2.9zM90.6 73.2v-1.3c.1-.1.2-.1.3-.2.2.4.3.6.3.8 0 .4-.2.7-.5 1.3 0 .1-.1.1-.1.2v-.8zm-.9-3c-.3-.1-.5-.2-.6-.3-.1-.1-.1-.3-.2-.4-.3.1-.5.2-.8.3.1.2.2.4.3.5.3.5.9.6 1.3.8v.3s-.1 0-.1.1c-.7.5-1.5 1.2-2.3 1.8h-.7c.3-.9.5-1.8.8-2.7 0-.1.1-.3.1-.4 0-.2.1-.3.1-.5.1 0 .1-.1.2-.1.3-.4 1-.9 1.6-1.1.1.2.2.5.2.7.1.4.1.7.1 1zm-29 10.5c-1-.3-2.5-.7-4.1-1.1 0-.1 0-.2-.1-.3-.1-.1-.2-.1-.3-.1-.1 0-.2 0-.3.1-.1 0-.2.1-.2.2-.6-.1-1.2-.1-1.8-.1.1 0 .1-.1.2-.1.4-.3.8-.5 1.2-.8.2.1.4 0 .5-.1.1-.1.1-.2.2-.2 0 0 .1 0 .1.1.1 0 .2 0 .3.1v.1c.1.1.2.2.3.2h.3c.5 0 .9-.1 1.3-.3h.1c.2.1.5.2.7.3.1.1.3.2.4.2h.2c.1 0 .2.1.3.1.1.1.1.1.2.1s.2.1.3.1c.2.1.3.1.5.2s.4.1.5.2h.1c1.9.5 3.9.8 5.7 1.2h.1c.1 0 .2 0 .3-.1.1-.1.2-.2.1-.4 0-.1 0-.2-.1-.2.6 1.1 1.1 2.6 1.7 4-2.6-2-5.7-2.5-8.7-3.4zm3.8-3.6c-.2-.1-.4-.2-.6-.2.6.2 1.1.5 1.6.8-.3-.2-.6-.4-1-.6zm-.8-1.2c-.2-.1-.4-.1-.7-.2.2-.1.3-.2.4-.4.2.3.2.5.3.6zm11 12.8c-1 0-1.7-.4-2.4-1 .6.3 1.2.4 1.9.5h.1c.6 0 1.6-.2 2.5-.5.4-.1.9-.3 1.2-.4.2-.1.3-.1.4-.2.1 0 .1-.1.2-.1l.2-.2s0-.1.1-.2c0-.1-.1-.3-.2-.3-.2-.1-.2-.1-.3-.1h-.2c-.2 0-.3.1-.3.3-.8.3-2.8.8-3.5.8h-.1c-2.1-.2-3.5-1.4-3.7-3.5 0-.2-.2-.4-.4-.4 0-.1-.1-.2-.1-.3-.6-1.7-1.2-3.5-2.3-4.7-.7-.8-1.4-1.4-2.2-1.8 0-.2-.1-.4-.3-.4-.5-.2-.8-.7-1-1.3 0 0 .1-.1.1-.2.2-.9.6-3.3 1-5.6.2-1.1.4-2.2.6-3.1.1-.3.2-.6.2-.8.1 0 .1.1.2.1.3 0 .7 0 1.1-.3.1-.1.2-.3.2-.4 0 0 0-.1.1-.1v.1c0 .8.5 1.5.8 1.8.6.7 1.3 1.1 2 1.1 1 0 1.8-.8 2-2.1.1-.6.2-1.2.2-1.8 0-.3 0-.5-.1-.8-.1-1.1-.7-2.2-1.9-2.9-2.2-1.4-4.7-2.4-7.4-2.5h-.1c-1.1 0-2.3.3-3.2 1-.2.2-.5.4-.7.6-.3.2-.7.4-.7.9 0 .1 0 .2.1.3-.1.4-.2.7-.2 1.2v.1c0 .9.6 1.8 1.3 2.5.7.6 1.7 1.1 2.6 1.1.2 0 .5 0 .7-.1.1 0 .2-.1.3-.3v-.3c.1.2.3.2.5.1.1 0 .1-.1.2-.1 0 .1.1.2.2.3.1.2.4.3.6.1h.1c-.4 1-.7 2.9-1 4.7-.3 1.5-.5 3-.7 4h-.1c-.2 0-.4.1-.4.3-.1.6-.3.8-.7 1-.4.2-1 .3-1.8.5-.4 0-.8.1-1.2.2h-.4c-1.1 0-2.2.2-2.7 1-1.1.5-2.1 1.1-3 1.7-.4.3-.9.6-1.3 1-.9.2-1.6.7-2.1 1.5-.8.4-1.5.7-2.4.8h-.7c-2.3 0-4.2-1.1-5.3-3.1-.5-1-.8-2.1-.8-3.1 0-1.7.7-3.4 1.8-4.8.4-.5.9-1 1.4-1.5.4-.4.8-.8 1.1-1.2h.4c.9 0 1.7.1 2.5.2.2 0 .4-.1.5-.3 0-.2-.1-.4-.3-.5-.7-.1-1.5-.2-2.3-.2 1-1.3 2-2.6 3.1-3.8l.2-.2c.6 0 1.2.1 1.8.1.2 0 .4-.1.5-.4 0-.2-.1-.4-.4-.5-.3 0-.7-.1-1-.1l1.2-.9.2.2c.1.1.2.2.4.2h.2c.2-.1.3-.4.2-.6-.1-.1-.1-.2-.2-.3l2.4-1.5c2.5-.1 4.7-1 7-3 .2-.2.5-.4.7-.6h.3c.4 0 .8 0 1.2.1 2.7.5 5.6 1.6 7.9 2.8.5.3 1 .6 1.4.8.8 1.2 1.7 2.2 2.8 3 .3.5.6 1 .9 1.6.7 1.4 1.4 3 2.1 4.6-.6.2-1.2.3-1.8.3 0-.1-.1-.1-.2-.2l-.2-.1c-.1-.1-.2-.1-.3-.1-.2 0-.3.2-.3.3-.1.1-.1.2-.1.3v.2c0 .2.1.4.3.5.1.1.2.1.3.1h.1c.1 0 .2-.1.2-.1h.2s.1 0 .1-.1c0 0 .1 0 .1-.1l1.8-.3c.1.3.2.6.3.8h-1.7c-.2 0-.4.2-.4.4s.2.4.4.4c.6 0 1.3.1 2 .1h.1c.2.6.5 1.2.7 1.9-.4 0-.9 0-1.3.1-.2 0-.4.2-.4.4s.2.4.4.4c.5 0 1-.1 1.5-.1.5 1.5.8 2.9 1 4.3-.6-.5-1.2-1-2-1.4-.2-.1-.5-.1-.6.1-.1.2-.1.5.1.6 1 .6 1.8 1.3 2.6 2 0 .1 0 .2.1.3l-.2.2c-.2.2-.1.4 0 .6.1.1.2.1.3.1.1.6.2 1.1.2 1.7 0 1-.2 1.9-.8 2.7-1.1 1.4-4.1 2.9-5.9 3.2 0 .7-.2.7-.4.7zM62.8 62.1c.1 0 .2.1.3.1h-.2c-.1 0-.2 0-.3.1h-.1c.1-.1.2-.1.3-.2zm5.9 2.3c.1 0 .1 0 .2-.1.2.2.3.3.5.4 0 0 .1.1.2.1-.1.2.1.4.3.5-.1 0-.3 0-.4-.1-.2-.1-.3 0-.5.1-.1-.3-.3-.5-.2-.7-.1-.1-.1-.1-.1-.2zM34.1 37.5l.1-.2c6.5.7 12.8 1.6 19.1 2.7 4.9.8 6.6 3 10.4 5.7 1.7 1.2 3.2 1.6 4.7 1.6 2.4 0 4.7-1.1 7.4-1.8 1.7-.4 3.5-.6 5.3-.6 7.5 0 15.9 3.1 22.7 4.7 0 .1-.1.3-.1.4v.2c.1.3.1.5.1.7 0 1.5-1.9 2.2-3 3-1.7 1.3-2.7 3-3.6 4.8-1.8 3.9-3.3 7-8.1 7h-.5c-.2-.3-.4-.5-.6-.8-.1-.2-.4-.2-.6-.1-.2.1-.2.4-.1.6.1.1.1.2.2.2-4.3-.2-6.3-.9-10.4-2.5-3.9-1.4-6.1-6.8-6.5-10.7v-.2h-.2c-1.3-.3-2.3-.4-3.1-.4-1.5 0-2.4.5-3.3 1.3-.9.8-1.7 1.9-3.2 3.2-2.5 2.1-4.6 2.9-7.2 2.9-1.3 0-2.8-.2-4.4-.6-4.3-1-7.6-1.7-10.3-5.3-2.3-3.2-1.4-7.2-2.2-11.1V42h-.2c-1.1-.3-2.2-.8-3.2-1.4.2-1.1.4-2.4.8-3.1zm28.2 1.1c1.8.2 3.6.4 5.2.7.7.1 1.3.3 2 .5s1.4.4 2 .7c1.9.8 3.6 1.7 5.4 2.9.1 0 .1.1.2.1.4.3.9.6 1.3.8h-.1c-.9.1-1.7.3-2.6.5-2.8.7-5 1.8-7.2 1.8-1.4 0-2.8-.4-4.4-1.5-.8-.5-1.5-1.1-2.1-1.6-2.5-1.9-4.5-3.5-8.5-4.2-.3-.1-.6-.1-.9-.2V39l1.5-.3c1.5-.2 3.1-.4 4.6-.4 1.2.2 2.4.2 3.6.3zm37.1 7c.3.4.4 1.1.4 2.1v.1c-.5-.1-1-.3-1.5-.4.4-.5.8-1.1 1.1-1.8zm1.2 2.1c.2.2.3.4.4.6-.1 0-.3-.1-.4-.1v-.5zm-3-2.9c.5 0 .8.1 1.1.2-.3.8-.7 1.5-1.3 2.2-1.6-.4-3.3-.9-4.9-1.3 1.1-.3 2.1-.6 3.1-.8.8-.2 1.5-.3 2-.3zm-9.7 23.6c.1-.6.3-1.3.4-1.9.3.4.5.8.8 1.3l-1.2.6zm-7.5 3.1c.4 0 .8-.1 1.2-.2 1.3-.3 2.6-1 3.7-1 .2 0 .4-.2.4-.4s-.2-.4-.4-.4c-1.3.1-2.6.8-3.8 1-.4.1-.9.1-1.3.2-.1-.4-.3-.7-.4-1.1h.1c2-.6 3.8-1.4 5.8-1.4h.7c.2 0 .4-.1.5-.4 0-.2-.1-.4-.4-.5h-.8c-2.1 0-4.1.8-6 1.4-.1 0-.1 0-.2.1V68c0-1.2-.3-2.4-.6-3.7 3 1.1 5.1 1.7 8.7 1.8-.5 2.4-1 4.8-1.8 7-1.6 0-3.1.1-4.7.1-.2-.4-.4-1-.7-1.7zM64.6 53.6c.8-.8 1.5-1.2 2.9-1.2.7 0 1.6.1 2.8.4.2 1.8.7 3.8 1.6 5.6 0 0-.1 0-.1-.1-2.4-1.3-5.4-2.4-8.2-2.9-.3 0-.5-.1-.7-.1.7-.7 1.2-1.3 1.7-1.7zm12.5 10.1c.2.1.5.2.7.3h.1c0 .1.1.3.1.4.3.9.5 1.8.6 2.7-.5-1-.9-2-1.4-2.9-.1-.2-.2-.4-.3-.5h.2zm-.6 6.6zm5.9 8.2c-.2-1.4-.6-2.8-1-4.3 1.4-.1 2.7-.1 4.1-.1-.5 1.4-1.2 2.7-2 3.9-.3.4-.6.9-1 1.3-.1-.3-.1-.5-.1-.8zm7.7-10.9h-.2c-.2-.5-.5-.9-.7-1.3h.1c2.4 0 4.1-.8 5.3-2-.2.4-.5.8-.7 1.3-.6 1-1.3 1.9-1.7 2.1-.2.1-.4.1-.6.1-.4 0-.9-.2-1.5-.2zm6.4-5.8c.5-.9 1-1.9 1.4-2.9.8-1.8 1.8-3.4 3.4-4.5.4-.3 1-.6 1.6-1v.1c0 1-.2 2.1-.6 3.2-.9 2.9-3.1 4.4-5.8 5.1zM60.1 12.7c1.2-.8 2.4-1.1 3.7-1.2h.5c2.2 0 4.6.7 7.1.9 2.8.2 5.9.5 8.7 1.5 1.3.4 2.5 1 3.6 1.8.2.1.4.3.6.5.2.2.4.4.7.5 1.7 1.4 3.1 2.7 4.2 4.2 1.2 1.7 1.9 3.5 1.9 6v.3c-.1 3.4-.7 6.8-1.2 10.2-.4-.1-.8-.2-1.1-.3-1.8-.5-3.4-1.5-5.1-2.5-3.5-2.3-6.8-5.3-10.7-6.7-4-1.4-8-2-11.9-1.9-3.7 0-7.4.5-11.3 1.1.4-.4.8-.8 1.1-1.3 1.2-1.6 1.8-3.2 2.8-4.8.5-.8 1-1.7 1.5-2.5 1.3-2.3 2.8-4.3 4.9-5.8zM48.9 27.9c.5-.1 1.1-.2 1.6-.3 3.7-.6 7.2-1 10.7-1 2.1 0 4.3.2 6.4.5 1.7.3 3.5.7 5.2 1.4.1 0 .2.1.3.1 1.9.7 3.6 1.8 5.3 3 3.6 2.5 7.1 5.6 11.4 6.5h.1v.1c-.1.6-.1 1.1-.2 1.7-2.4-.7-5-2.6-7.4-3.8-3-1.5-5.9-2.7-9-4-4.4-1.8-8.6-2.2-12.8-2.2-3.6 0-7.1.3-10.9.3v.3c-.7-.2-1.5-.4-2.3-.6.4-.7 1-1.3 1.6-2zm3.3 3.3h-.1c-.2-.1-.5-.2-.7-.2 3.2-.1 6.2-.3 9.1-.3 4.2 0 8.3.4 12.5 2.2 3.1 1.3 6 2.5 8.9 4 2 1 4.2 2.5 6.4 3.4l-3-.6C74 37.3 63 34.9 52.2 31.2zm-1.8 7.7c-2.3-.3-4.5-.7-6.7-1-.8-2-3.1-3.6-4.7-4.6 1.8.6 3.5 2.4 5.3 3.5 2 1 4.2 1.3 6.1 2.1zm-7.7-1.2c-1.8-.2-3.5-.5-5.3-.7.4-1.1.9-2.2 1-3.2 1.5 1 3.5 2.4 4.3 3.9zm-7.9 16.1c-.7-.7-.9-1.3-.9-2.1 0-1.4.9-2.9 1.6-4.2.8-1.3.9-2.5.9-3.7v-.6c.5 3.5-.2 7.3 2.2 10.5.6.8 1.3 1.5 1.9 2.1-.5 1.1-1 2.2-1.5 3.4-.2-1-.6-2.2-1.1-3.1-1-1.5-2.3-1.5-3.1-2.3zm4.6 6.6c.5-1.5 1.2-2.7 1.8-4.1 2.3 1.7 5 2.2 8 2.9 1.3.3 2.4.5 3.5.6-.5.3-1 .6-1.4.9-1.6-.7-3.1-1.3-4.8-1.8-.2-.1-.5.1-.5.3-.1.2.1.5.3.5 1.4.5 2.8 1 4.2 1.6-.6.4-1.1.9-1.7 1.3H48c-3.3 0-6.5.5-9.4 1.6.1-1.3.4-2.6.8-3.8zm-.7 7.9c-.1-.8-.2-1.6-.2-2.4V65c3-1.1 6.2-1.7 9.5-1.7-.1.1-.2.2-.2.3-1.1 1.2-2 2.5-3 3.7-2 .1-4.1.5-6.1 1.1v-.1zm.1 1c1.6-.5 3.4-.9 5.1-1.1h.1l-.5.5-1.1 1.1c-1.2 1.4-2 2.9-2.3 4.6-.4-1.6-.9-3.3-1.3-5.1zm49.8 4c.4-.4.8-.6 1.1-.9v1c-.4 0-.7-.1-1.1-.1zm-3.8 23.2c.8 2.4 1.3 4.5 1.3 7v.3c-.1 0-.2-.1-.3-.1-.1 0-.2 0-.3.1-.1.1-.2.2-.2.3v1.1c0 2.4.4 4.4.5 6.7v.7c0 .3 0 .6-.1.9-.2 1.6-.8 2.9-1 4.6-.2 1.5-.3 2.9-.3 4.4v3.5c0 .9 0 1.7-.1 2.6-.1 1.2-.2 2.3-.5 3.4-.4-.1-.8-.2-1-.5-.1-.2-.4-.2-.6-.1-.3.2-.6.5-.8.7-1.1 1.1-1.8 2.4-2.3 3.8-.2-.1-.4-.1-.6-.1-.6-.1-1.1-.2-1.4-.5-.1-.1-.4-.1-.5 0-.9.7-1.8 1.5-2.6 2.3l-.6.6v-.4c-.1-2.4-.2-4.8-.2-7.3 0-1.8.1-3.6.2-5.3.3-3.2 1.8-5.8 2.3-9.2.4-3 .4-5.6 1.1-8.4l.3-1.2c.4-1.8.9-3.7 1.3-5.6.1-.7.4-1.8.7-2.9.3-1.2.5-2.5.5-3.5v-.8c.1-.1.2-.3.4-.4.4-.5.8-.9 1.2-1.4.5-.6.9-1.1 1.3-1.7 0-.1.1-.1.1-.2l.2-.2c0 .1.1.3.1.5.1.2.1.5.2.8.6 2.1 1.3 4.6 1.7 5.5zm-5.9-1.8c0 1.8-.9 4.7-1.2 6.3-.4 2.2-1 4.5-1.5 6.7-.4 1.6-.6 3.1-.7 4.7-.1 1.3-.2 2.5-.4 3.8-.2 1.7-.7 3.2-1.3 4.8-.4 1.4-.9 2.8-1 4.4-.2 1.7-.2 3.4-.2 5.1v.3c0 2.5.1 5 .2 7.4v1.6c0 2-.1 4-.2 6v1.7c0 1.4.1 2.7.3 4.1.4 2.6.6 5.2 1.4 7.8.3 1 .7 1.8 1.1 2.7.9 1.7 1.9 3.3 2.3 5.1l.3 1.2c.6 2.1 1.4 4 2.4 6.1.2.5.5.9.9 1.3-2.4-.4-4.8-.4-7-1-.9-.2-1.5-.5-1.8-.7-.3-.2-.4-.3-.4-.4 0-.2.3-.6.8-1.1.5-.5 1.2-1.2 1.7-2 .2-.4.3-.7.3-1.1 0-1.2-1.1-2.1-2.3-2.8-.3-.1-.5-.3-.8-.4 0-.1 0-.2.1-.3l-.8-.3v.2c-.8-.3-1.5-.6-2.1-.9-1.2-.4-4.5-1.9-6.8-1.9-.9 0-1.8.2-2.1 1.1l-.2.5.5.1c.9.2 3.3.9 5.4 1.7 1.1.4 2.1.9 2.8 1.3.3.2.6.4.8.5-1.3.2-2.7.2-4.1.7-1.4.5-2.3 1.3-3.4 1.3-.2 0-.4 0-.6-.1-.6-.1-1.1-.5-1.6-.9s-1.2-.9-2.1-1.1c-.5-.1-1-.1-1.5-.1-.4 0-.9 0-1.3.1h-.6c0-2.9.4-5.6.7-8.4.2-1.8.4-3.6.5-5.6v-.7c0-1.3-.1-2.6-.1-3.8 0-.6 0-1.1.1-1.7 0-.1 0-.3.1-.4.3-1.7 1.1-3.3 1.9-5 .1 0 .2 0 .2-.1.1 0 .1 0 .2-.1.2-.1.3-.3.2-.5 0-.1-.1-.2-.2-.2 0-.1.1-.2.1-.3 1.2-3.5 1.2-7.8 1.3-11.6v-.2c.1-1.1.2-2.1.3-3 .5-3.2 1.4-5.9 2.4-9.3.9-2.9 1.5-5.9 2.3-8.8.1-.4.2-1.1.4-1.9.1-.6.2-1.3.4-2 .2-.8.3-1.5.5-2.1.2-.6.4-1 .5-1l-.2-.3-.1-.2c2.1 0 4.3-.5 6.6-1.4-.3.4-.5 1-.8 1.6-1.5 3.7-3.1 10.7-3.4 13-.2 2-.8 6.1-1.5 9.9-.6 3.8-1.4 7.4-1.7 8.4-.8 2.2-.7 4.2-1.1 6.3L61.7 152c-.5 3.5-2.5 7.3-2.5 11.1v.9l.8-.1v-.8c0-3.5 1.9-7.3 2.5-11l2.1-13.2c.3-2.2.3-4.2 1-6.1.4-1.1 1.1-4.7 1.8-8.5s1.3-7.9 1.5-10c.1-1.4.9-5.1 1.8-8.4.5-1.7 1-3.2 1.5-4.4.5-1.2 1-2 1.2-2l-.2-.4c.1 0 .1-.1.2-.1 1.9-1.2 3.8-2.6 5.5-4.3zm-24.7 3c2.7 1.3 5.4 2.4 8.2 2.8.9.1 1.7.2 2.6.2l-.1.1c-.2.3-.4.7-.5 1.1-.6 1.9-1 5.2-1.2 6.1-.3 1.1-.5 2.1-.8 3.2-.5 1.9-.9 3.8-1.5 5.6-.4 1.3-.8 2.5-1.1 3.8-.8 2.8-1.5 5.5-1.6 8.8-.2 3.9-.1 8.4-1.4 11.9-.1.2-.1.3-.2.5-.1 0-.2 0-.3.1-.1 0-.3.1-.4.2h-.1v-.1c-.1-.3-.2-.6-.2-.9v-.1c0-.2-.1-.4-.3-.4-.2-.1-.4 0-.5.1-.2.2-.3.4-.5.5-.4.3-.8.4-1.3.4-.1-.1-.1-.2-.1-.3v-.1c.1-.9.2-1.8.2-2.7 0-2.6-.5-5.2-.8-7.8-.2-1.7-.2-3.4-.2-5.1V122c0-1.8 0-3.5-.2-5.2-.5-4.7-2.2-8.9-3.6-13.2-.7-2.1-1.1-4.3-1.7-6.4-.4-1.3-1.1-2.7-1.7-3.9-.3-.6-.5-1.2-.7-1.8l.5.5c1.3 1.3 2.8 2.4 4.5 3.3.1 0 .1.1.2.1 1.6.7 3.2 1.6 4.8 2.3zm-12.5 3c.4-3.2 1.1-6 1.1-9.3 0-.5 0-1.1-.1-1.6.2.3.5.6.8 1h-.4c.2 2 1.6 4 2.3 5.8.1.2.2.5.2.7.3 1.1.5 2.1.8 3.2.3 1.1.5 2.2.9 3.3.7 2 1.4 4.1 2 6.1.4 1.4.8 2.8 1.1 4.2.2.9.3 1.8.4 2.7.2 1.7.2 3.4.2 5.1v3.6c0 1.1 0 2.2.1 3.3 0 .6.1 1.3.2 1.9.3 2.6.8 5.2.8 7.7v1.2h-.2c-.1 0-.2.1-.2.3v.2c0 .2 0 .4.1.6 0 .2.1.4.2.6-.1.5-.2 1-.3 1.4-.1.4-.3.9-.5 1.3-1.6 3.8-1.9 7.9-1.9 12v2c-.7.3-1.4.6-2 .9-1.4.7-2.7 1.5-4.1 2.1-.9.4-2.5.6-4 .9-.9.2-1.8.4-2.5.7-.3.1-.5.3-.8.4v-1c0-.4 0-.9.1-1.3.1-1.2.3-2.4.3-3.7v-8.5c0-2.9 1.3-5.4 1.8-8.4.1-.4.1-.9.2-1.3.5-4.2.3-8.4.5-12.6.2-4.5 1.2-8.8 1.8-13.1.4-2.7.6-5.3.9-8l1.1 1.1.5-.7c-.4-.3-.9-.9-1.5-1.5-.1-1.1 0-2.2.1-3.3zM13 146c0-2 .2-4 .8-5.6.1-.4.3-.7.5-1 .7-1.2 2.3-2.9 3.8-4.6 1.2-1.4 2.4-2.8 2.8-4.3.1.7.1 1.4.1 2.1 0 1.2-.1 2.4-.5 3.5-1.1 3.1-2.1 4.8-2.1 8.5v3.7c0 1.7.1 3.4.3 5.1.7 4.4 1.7 8.2 3 12.2-3.5-4.1-6.7-7.6-7.9-12.9-.2-.9-.3-1.8-.4-2.7-.3-1.2-.4-2.6-.4-4zm7.5 42l-.1.1v-.2l.1.1zm5.7.7c-.6 0-1.2-.1-1.9-.2v-.1c.1-.2-.1-.4-.3-.5-.2-.1-.4 0-.5.2v-.1c-.1-.2-.3-.3-.5-.2-.1 0-.2.1-.2.2-.5-.2-1-.4-1.5-.7-1.4-.8-2.4-2-2.4-3.6v-.4c.2-1.8 1.3-3.7 2.3-5.5.9-1.6 1.8-3.3 2.1-5.2.4 2.6.5 5.3.8 8.1.3 2.8 1.3 5.4 2.7 7.9-.2.1-.4.1-.6.1zm22.8 3.4c.4.8.6 1.3.6 1.7-.1-.1-.1-.1-.2-.1-.1-.1-.3-.1-.5 0-.1.1-.2.2-.2.4v.6h-.1c-.4-.2-.7-.3-.8-.5-.2-.1-.4-.1-.6 0-.1.1-.1.2-.1.3-1.2-.2-2.6-.5-3.7-.5-.5 0-1 .1-1.4.3 0 0-.1 0-.1.1-.4.2-.6.7-.6 1.2h-.9c-.1-.2-.2-.4-.2-.5 0-.1-.1-.1-.1-.2-.1-.1-.2-.1-.3-.1-.2 0-.4.2-.4.4v.3h-.1l-.1-.1c-.1-.1-.3-.1-.4-.1-.1 0-.1.1-.1.1-.5 0-.9-.1-1.3-.1s-.8 0-1.3.1c-.7.1-1.2.5-1.6.6v-.4c0-.2-.2-.3-.4-.3s-.4.1-.4.2c-.1.1-.1.3-.1.4-.6-.2-1.3-.9-2-1.8s-1.2-1.8-1.7-2.5c-2.5-3.4-4.5-7.1-4.9-11.2-.4-4.1-.5-7.9-1.5-11.8.1 0 .2 0 .3-.1.2-.1.2-.4.1-.6-.3-.3-.5-.7-.8-1-1.5-4.8-2.8-9-3.5-13.9-.2-1.6-.3-3.3-.3-4.9v-3.7c0-3.6 1-5.1 2.1-8.2.4-1.2.6-2.5.6-3.8 0-3.2-.9-6.6-.9-9.6 0-.4 0-.8.1-1.2.5-6 2.6-10.3 4.8-15.9 2.7-6.8 5.5-14.3 10-20.1-.3 2-.4 3.7-.4 4.5v.1c0 3.1.6 6.6 2 9.4.5 1 1.6 2.5 2.6 3.9.1.2.3.4.5.6-.3 2.7-.5 5.4-.9 8.1 0 .2-.1.4-.1.6-.6 4.3-1.6 8.7-1.8 13.2-.1 1-.1 2-.1 3 0 2-.1 4-.1 6-.1 1.6-.2 3.3-.4 4.9-.4 2.8-1.8 5.4-1.8 8.5v6.9h-.1c-.3 0-.3.2-.4.2-.1.2-.1.2-.1.3v.3c0 .1.1.3.2.3v.2c0 .4.1.8.1.9v1c0 .6 0 1.2-.1 1.8-.2 1.8-.5 3.6-.7 5.5-.2 1.6-.2 3.2-.2 4.9-.1.6-.2 1-.2 1.5 0 .4.1.7.2 1v2.7h.8v-1c.2.3.3.5.5.8.4.6.8 1.3 1.1 2-.1.4-.1.7-.2 1.1 0 .2.1.4.3.5.2 0 .4-.1.5-.3.4.9.9 1.8 1.5 2.7 2.7 4.3 8.2 6.5 10.3 10.4zm32.8-13.3c-3.8.4-7.6.9-11.5.9-1.3 0-2.6-.1-4-.2-6.5-.7-11.9-2.1-17.6-4.6-.9-.4-1.9-1-3-1.7C44 172.1 42 171 40 171c-.6 0-1.1.1-1.7.3-.1 0-.2.1-.2.2-.5 1.5-1 3-1.3 4.5 0 .2-.1.4-.1.6-.2-.4-.4-.8-.7-1.2-.7-1-1.1-1.6-1.2-2.2v-2.3c.1-.3.1-.6.2-1 .4-2 .5-4.1.6-6.1.1 0 .3-.1.3-.2s.1-.1.3-.2c.5-.3 1.7-.7 2.9-.9.2 0 .4-.1.6-.1 1.3-.3 2.7-.5 3.6-.9 2.5-1 4.5-2.6 6.9-3.3.2-.1.4-.3.3-.5-.1-.2-.3-.4-.5-.3 0-4.7.2-9.3 1.9-13.4.3-.7.5-1.3.7-2h.4c.7 0 1.3-.2 1.8-.6.1.5.4.9.5 1.3 0 .2.2.3.4.3h.2c-.6 1.4-1.3 2.8-1.5 4.4-.1.6-.1 1.2-.1 1.8v.5c0 1.1.1 2.2.1 3.3v.7c0 .6-.1 1.3-.1 1.9-.3 4-1.1 7.8-1.1 12.1h-.3v.8c.8 0 1.8-.1 2.7-.1h.4c.5 0 .9 0 1.3.1.7.2 1.2.5 1.8 1 .3.2.5.4.9.6.3.2.7.3 1.1.4.3.1.5.1.7.1.3 0 .6 0 .8-.1 1.1-.3 1.9-.9 2.9-1.2l1.2-.3c.9-.2 1.9-.2 3-.4.2 0 .3-.1.5-.1l.4-.1v-.4c0-.4-.2-.6-.5-.9-.9-.8-2.8-1.6-4.8-2.3-1.5-.6-3-1-4-1.3.2-.1.5-.2 1-.2 2 0 5.3 1.4 6.5 1.9.6.2 1.4.6 2.2.9-.5 2.5-.2 5.2-.7 7.5v.2h.1l.7.2c.6-2.5.3-5.2.7-7.6l.6.3c1.2.7 1.9 1.5 1.9 2.1 0 .2-.1.4-.2.7-.4.7-1 1.3-1.5 1.8-.5.6-1 1-1 1.7 0 .5.3.8.7 1.1.5.3 1.1.5 2.1.8 2.7.7 5.5.7 8.1 1.2l.3.3 1.4 1.4c-1.1.8-1.7.9-2.4 1zm12.8-1.8c-.5-.1-1-.1-1.5-.1H92c-2.4.2-4.9.8-7.2 1.3-.5-.6-1-1.1-1.5-1.6-.1-.1-.2-.3-.4-.4v-.2h-.4c-.6-.6-1.1-1.2-1.4-1.9 0 0 0-.1-.1-.1-1.2-2.3-2-4.4-2.6-7-.8-2.9-2.7-5.2-3.5-7.8-.8-2.4-1-5-1.3-7.6-.2-1.3-.3-2.6-.3-4 0-2.5.2-5.1.2-7.7v-.1c.9-1 1.9-1.9 2.9-2.8.2-.2.4-.3.6-.5.5.3 1 .4 1.4.4.3.1.7.1.9.2h.3c.1-.1.2-.1.2-.3.5-1.7 1.4-3.2 2.7-4.3.6.4 1.2.4 1.4.6.1.1.3.1.4 0 .1 0 .2-.2.3-.3 0-.1.1-.2.1-.4.2-.7.3-1.4.4-2.1.2-1.4.2-2.8.2-4.2v-3.5c0-1.1 0-2.1.1-3.2v-.3c0-.3.1-.5.1-.8.3-1.8 1.1-3.4 1.1-5.6v-.8c-.2-2.3-.5-4.3-.5-6.6v-.6c.1 0 .2 0 .3.1.1 0 .2 0 .3-.1.1-.1.1-.2.1-.3v-.9c0-2.6-.6-4.8-1.4-7.3-.2-.5-.5-1.5-.8-2.6-.1-.4-.2-.8-.4-1.3-.2-.8-.4-1.5-.6-2-.1-.3-.1-.5-.2-.7v-.2c0-.1 0-.2-.1-.3.3-.4.5-.8.7-1.1.8-1.2 1.4-2 2.8-3 .1-.1.2-.2.3-.2 1.4-1.1 2.9-2.3 3.6-4.1.1-.4.2-.8.3-1.1.6 3 1 6.5 2.6 8.7 1.5 1.9 4.7 2.8 6.3 4.2.6.5 1.1 1 1.5 1.5.9 1.1 1.7 2.2 2.3 3.6.4.9.8 1.8 1.1 2.8 1.2 3.2 2.1 6.6 3.1 9.9 2 6.8 5.2 13.8 5.2 20.8 0 2.4-.4 4.8-1.3 7.2-.8 2-1 3.7-1 5.3 0 2.6.6 5 .8 8.1.3 5.2 1 10.2 1 15.3 0 .9 0 1.8-.1 2.6-.3 3.4-1.2 6.6-1.7 10.1-.1.5-.1 1.1-.1 1.6 0 1.3.2 2.5.6 3.6.7 2.2 1.9 4.2 2.7 6.4.3.9.5 1.5.5 1.9 0 .3-.1.4-.3.6-.2.2-.7.4-1.3.6-.7.2-1.4.4-2.2.6v-.1c0-.2 0-.4-.1-.7 0-.2-.2-.4-.5-.3-.2 0-.4.2-.4.4s0 .5.1.7v.2c-.2 0-.3.1-.5.1v-.2c0-.2-.2-.4-.4-.4s-.4.2-.4.4v.4l-1.2.3c-.5.1-1.2.2-2 .2-.1-.1-.2-.1-.2-.1-.1 0-.2 0-.2.1-.1-.1-.2-.2-.3-.2-.2 0-.3.1-.4.3-1.4 0-3-.2-4.3-.6h-.1c0-.2-.1-.3-.3-.4h-.3v-.4c0-.2-.1-.4-.3-.5-.2 0-.4.1-.5.3v.3c-.6-.4-1-.8-1.2-1.4-.1-.2-.1-.4-.1-.6 0-.8.4-1.8.7-2.8.1 0 .2-.1.2-.2.1-.1.1-.2.1-.4 0-.1 0-.2-.1-.3.1-.3.1-.5.1-.8 0-.5.1-.9.1-1.3 0-1.4-.2-2.8-.3-4.2-.3-3.1-1.1-5.8-1.5-8.7.1-.1.2-.2.3-.2.2-.1.3-.4.2-.6-.1-.2-.4-.3-.6-.2-.1-.6-.1-1.1-.2-1.7-.2-3.4-.5-7.2-1.6-10.5-1.1-3.1-3.1-5.6-3.9-8.5 0-.2-.2-.3-.4-.3-.4 0-1-.4-1.7-.6 0-.1 0-.2-.1-.3 0-.1-.1-.2-.1-.3v-.1c0-.2-.2-.3-.3-.3-.2 0-.4.1-.4.2-.1.1-.1.3-.1.4 0 .2.1.4.2.5 0 .1.1.1.1.2v.2c0 .2.2.3.4.3.5 0 1 .4 1.7.5.9 3 2.9 5.4 3.8 8.3 1 3.1 1.4 6.9 1.6 10.3 0 .8.1 1.6.2 2.4-.3.5-.5 1.1-.6 1.6-.1.5-.2 1.1-.3 1.6.1 0 .1 0 0 0zm.4 11.8v-.3c0-.2-.2-.4-.4-.4s-.4.2-.4.4v.2h-.1c-.4-.1-.7-.3-.9-.5-.2-.3-.3-.7-.3-1.4v-.6c0-.2 0-.5.1-.7.3-2 1.9-4.6 2.1-7 .1 0 .2-.1.2-.2.4-.8.5-1.8.7-2.7v-.2c.4 2.5 1.1 4.9 1.3 7.4.1 1.3.3 2.7.3 4.1 0 .4 0 .9-.1 1.3v.2c0 .1-.1.3-.1.4-.9.1-1.7.1-2.4 0zm8.8 8.3s-.1-.2-.1-.3h.3c-.1.1-.1.2-.2.3zm6.2-1v.1l-.1-.1h.1z"/></svg>