<svg version="1.2" baseProfile="tiny" xmlns="http://www.w3.org/2000/svg" viewBox="0 0 112.1 185"><path fill="#F4F1EA" d="M23.8 177zM43.9 59.8c0-.4.1-.8.1-1.2-.1.4-.3.9-.5 1.4.1-.1.3-.1.4-.2zM65.5 143c.3-.4.5-.7.6-1.1-.3.5-.6.9-.9 1.3-.1.2-.2.3-.3.5.2-.3.4-.5.6-.7zM42.7 64.5c.1-.1.2-.1.4-.1-.3-.3-.5-.7-.8-1-.2.6-.4 1.3-.6 1.9.3-.3.7-.6 1-.8zm21.8-42.9c-.1-.1-.1-.2-.2-.2v1c0 .8-.1 1.7-.4 2.8-.2.9-.4 1.9-.5 3 .3-.1.7-.2 1-.4.2-2.2.3-4.4.1-6.2zm4 129.1c-1.4-.2-6.7-1.5-7.2-3-.9 1-1.8 2-2.5 3.2-1.3 2-1.3 4.9-1.6 7.4-.1.5-.1 1-.1 1.6 0 .9.1 1.9.1 2.8v1c-.1 1.2-.3 2.5-.3 3.7v.1c.5 1.4 2.2 2.7 3 4 1.5 2.4.8 3.7-.8 4.4.1.3.1.6.3.9 0 .1.1.1.1.2 1.2.4 2.4.7 3.5.8h.2c0-.1-.1-.1-.1-.2-.3-.4-.8-.8-1.3-1.4-.1-.2-.1-.4.1-.6.2-.1.4-.1.6.1.1.1.2.2.3.4v-.2c0-.1.1-.2.3-.3.3-.1.5-.1.7-.1.5 0 1 .3 1.3.6.2.3.3.7.4 1.1.3-.1.5-.1.8-.2 1.2-.2 2.4-.2 3.5-.3-.2-.2-.4-.3-.7-.4-.2-.1-.3-.3-.3-.5.1-.2.3-.3.5-.3.1 0 .2.1.3.1 0-.1 0-.3.1-.4 0-.1.2-.2.3-.3.2 0 .3-.1.5-.1.5 0 1 .2 1.2.6.2.3.3.7.3 1 .8-.1 1.6-.2 2.3-.2.4 0 .7 0 1.1.1 0-.1.1-.2.2-.3l-.3-.3c-.2-.1-.2-.4-.1-.6.1-.2.4-.2.6-.1.3.2.5.4.7.6.4.1.7.4.9.7.1.2.2.4.3.7.6.3 1.3.5 1.8.5s.9-.2 1.3-.8c.1-.1.1-.2.2-.2-.1-.2-.1-.4 0-.5l.2-.2c-.1 0-.1-.1-.2-.1 0 0 0-.1-.1-.1-.2-.1-.3-.3-.2-.5 0-.1 0-.2.1-.3 0-.1.1-.1.1-.2-.1 0-.1 0-.2-.1l-.1-.1s-.1 0-.1-.3v-.2s.1-.2.3-.2c-.1-.1-.2-.4-.2-.7 0-.1 0-.2.1-.3v-.3l-.1-.1c-.1-.1-.1-.1-.1-.2 0 0-.1-.1-.1-.2v-.1c-.2-.3-.4-.6-.4-1-.1-.1-.2-.2-.2-.3v-.2c-.5-.3-1.2-.7-1.3-.8-.1 0-.1-.1-.2-.2l-.1-.1c-.1 0-.1-.1-.1-.1s-.1 0-.1-.1v-.1l-.1-.1v-.3c-.2-.2-.4-.4-.4-.7-.1-.4 0-.7-.2-1-.4-.7-1-1.4-1.5-2.1-1.4-1-2.7-2.2-3.4-3.7-.3-.6-.6-1.3-.8-2.1-.2-.4-.3-.7-.4-1.1-.5-1.5-.7-3.4-.7-5.2 0-.6 0-1.2.1-1.8-1-.1-1.5-.1-2.1-.1zM59.6 28.5c.4.1.8.1 1.2.1.6 0 1.2-.1 1.8-.2.1-1.1.3-2.3.6-3.4s.3-1.8.3-2.6c0-.5 0-1.1-.1-1.7-.5-.4-1.1-.7-1.6-1.2h-.6c0 3.4-.3 5.7-1.5 8 0 .4 0 .7-.1 1zM24.4 154.6c0-1.9-1-3.8-2-5.6.6 1.8 1.1 3.7 1.1 5.2 0 1.3 0 2.4-.2 3.4.4-.5.8-1 .9-1.6.1-.5.2-.9.2-1.4zM49.6 40.2c1.1-.4 2.1-.9 3.1-1.7 2.5-2.1 3.5-4 3.5-5.7v-.3c-1 1.3-2 2.8-3.1 4.1-1.1 1.4-2.4 2.5-3.5 3.6z"/><path fill="#F4F1EA" d="M74.1 176.9h-.4c.5 0 1 0 1.5.1-.4-.1-.7-.1-1.1-.1zm17.5-4.6c-.2.1-.3.2-.5.3-.1.1-.2.2-.4.2h-.1c-.8.3-1.7.4-2.6.4h-.6c-.1.2-.1.5-.2.7 1.6.1 3.2.1 4.5-.2v-.2c.1-.5 0-.8-.1-1.2z"/><path fill="#F4F1EA" d="M83.7 171.5c-.1-.2-.1-.5.1-.6 0-.1 0-.2.1-.3-.6-1-.7-2.4-.7-3.5v-.6c0-.2.2-.4.4-.4s.4.2.4.4v.6c0 .9.1 2 .4 2.8.1-.1.3-.2.4-.2.5-.3 1.2-.4 1.7-.4h.4c.2 0 .3.1.3.3.2.7.3 1.4.3 2.1v.7h.4c.5 0 1.1-.1 1.6-.2-.3-.3-.5-.6-.6-1-.3-.7-.3-1.6-.3-2.4 0-1.2.2-2.5.2-3.3 0-.2.2-.4.4-.4s.4.2.4.4c0 .9-.2 2.1-.2 3.3 0 .8.1 1.5.3 2.1.2.5.4.8.8 1 .2-.1.4-.2.5-.3h.1c-.1-.2-.3-.4-.4-.6-.1-.2-.1-.4.1-.6.2-.1.5-.1.6.1.1.1.2.3.3.4v-.2c0-.2.1-.5.3-.7l.1-.1v-.1c0-.1.1-.2.2-.3.1-.1.2-.1.3 0 .1 0 .1.1.2.1-.4-.8-.6-1.7-.8-2.5-.2-.3-.5-.6-.8-1.1l-.3-.6c-.4-.2-.7-.4-1.1-.5-1.5.1-3.3-.4-4.7-.3-2.7.2-4.6.4-6.5 2.1-.3-.2-.7-.3-1-.5v.1c0 .1 0 .3-.1.4.2.4.1.8.2 1 .1.2 0 .2.6.4.2 0 .3.2.3.4s-.1.3-.2.4c.1.1.3.2.6.4s.6.4.8.5c0 0 0-.1.1-.1.1-.2.4-.3.6-.2.2.1.3.3.2.5 0 .1-.1.1-.1.2-.1.3-.2.5-.2.7 0 .2.1.4.3.5.1 0 .1.1.1.1.1.1.1.2.1.2 0 .3 0 .3.1.6v.3c.1-.1.2-.1.3-.1h.1c.4 0 1.8.2 2.5.5.2.1.3.3.2.6-.1.1-.2.2-.4.2h-.2c-.3-.2-1.8-.4-2.1-.4h-.1c0 .1 0 .2-.1.3v.5l.1.1.1.1v.5c0 .1 0 .1-.1.2.1 0 .1 0 .2.1s.2.2.1.4c0 .1 0 .2-.1.3.1.2.1.4-.1.5.1 0 .1.1.1.2v.4c-.2.3-.1.2-.2.4v.2c0 .2-.1.4-.3.4-.2.1-.3 0-.5-.1l-.3.3c1.7-.1 3-1.1 2.6-4.1h1.5c-.1-.1-.1-.2-.2-.3 0-1.2-.2-2-.4-2.3zM28 132.7c0-.1 0-.1 0 0-.3.1-.2.1 0 0z"/><path fill="#F4F1EA" d="M19.5 95c-.3.4-.6.9-.9 1.6-1.2 3.6-1.5 6.1-.1 9.5 1.7 4 3.7 8.3 4.4 12.6.3 1.9.8 3.7 1.2 5.6.1.3.1.5.1.8.3.1.6.3.9.4-.3.2-.6.4-.9.7 0 1 .1 2.1.5 3 .1.3.3.6.5.9.4.2.9.2 1.5.1-.3.3-.5.7-.5 1.1l.3.3c.6.3 1.4.6 2 .7 0 0-.3.2-.5.3.1.2.2.4.4.7.2.2.5.4.7.7-.2-1.2-.3-2.6-.3-4 0-.2.2-.4.4-.4s.4.2.4.4c0 1.9.1 3.5.5 5.1.2.2.4.4.5.6 1.1 1.4 1.5 3 1.9 4.7.6.9 1.3 1.7 2.2 2.6 3.3 3.4 5.2 6.4 5.1 11v.9c0 .3 0 .6-.1.9 1.7 2 3.4 4.9 6.6 6 1.5.5 4 .7 4.6-1.1-1.4-1.1-2.7-2.3-3.7-2.9-.2-.1-.2-.4-.1-.6.1-.2.4-.2.6-.1 1.3.9 2.8 2.3 4.4 3.5.2-.1.3 0 .4.1.1.1.1.2.1.3 1.2.8 2.3 1.3 3.5 1.3h.1v-2.6c0-.5 0-1.1.1-1.6.2-2.4.2-5.4 1.7-7.7 1.9-2.9 4.6-4.9 6.4-7.7.7-1.1 1.5-2.1 2.3-3.2.2-1.3.3-2.6.4-3.8.6-5.9 1-10.3 4.4-15.4 3.4-4.9 8.5-8.6 11.6-13.9-1.6 1.3-3.4 2.4-5.5 2.4-.3 0-.5 0-.8-.1-1.5-.2-2.8-.9-4.1-1.8-3.1-1.2-4.9-4.1-6.4-7.2-.9-1.8-1.4-4.5-1.5-7.4-1.6 2.1-3.8 4.1-6.9 4.2h-.6c-.2 0-.4-.2-.4-.5 0-.2.2-.4.5-.4h.5c3 0 5.3-2.4 6.9-4.7-.1-4.3.6-8.7 2.1-11.3 0-.1.1-.1.1-.2.1-1.6.3-3.3.8-4.5-.6.5-1.2.9-1.9 1.1 0 .2.1.4.1.6 0 .7-.3 1.3-.9 1.6-.5.3-1.2.4-1.9.4-1.6 0-3.6-.6-5.3-1.4-.7-.3-1.4-.7-2-1.1 0 2.4.4 4.9.4 7.5 0 .9 0 1.8-.2 2.7 0 .2-.1.5-.1.7.1.1.1.2.1.3 0 1 .8 2.2 1.8 3.1 1 .9 2.4 1.5 3.4 1.5h.1c.2 0 .4.2.4.4s-.2.4-.4.4c-1.3 0-2.7-.7-3.9-1.7-.9-.7-1.6-1.7-1.9-2.6-.4.7-.9 1.3-1.5 1.7-.3.2-.6.4-.9.5.1.1.1.2.1.3 0 .7.1 1.3.1 1.9 0 2.3-.2 4.6-.2 6.7 0 4 .8 7.1 5.6 9.2.2.1.3.3.2.5-.1.2-.2.3-.4.3h-.2c-5.2-2.2-6.1-5.9-6.1-9.9 0-2.1.2-4.4.2-6.7v-.5c-1.7 2.7-3.8 5.2-5.4 7.9-2.2 3.5-4.3 6.8-8.4 8.5-.2.1-.5 0-.5-.2-.1-.2 0-.5.2-.5 3.8-1.6 5.8-4.7 8-8.2 1.9-3.1 4.4-5.9 6-8.9-.7.3-1.5.5-2.2.8h-.1c-.2 0-.3-.1-.4-.3-.1-.2 0-.5.3-.5 1.5-.5 2.8-.9 3.8-1.5s1.6-1.5 1.8-3.1c.1-.9.2-1.7.2-2.6 0-2.6-.4-5.3-.4-8v-.1c-.2-.2-.4-.4-.5-.6-.8.1-1.5.2-2.3.3-.5 1.7-2.1 2.6-3.7 2.9-1.5 2.1-1.1 6.2-1.8 9-.8 3.2-.6 6.9-1.6 10.2-1.5 5-4.8 7.1-8.5 7.1-1.1 0-2.1-.2-3.2-.5-5.9-.8-12.3-4.1-14.3-9.1zM58 176.2c.1.1.2.1.4.2 0-.1 0-.2-.1-.3-.1 0-.2.1-.3.1z"/><path fill="#F4F1EA" d="M23.4 173c.2-.1.5 0 .6.2s0 .5-.2.6c0 0-.1 0-.1.1 1.1.1 1.8 1.1 2.1 1.9 0 .1.1.2 0 .3 0 .1-.1.2-.2.2-.2.1-.4.1-.6.2h.1c.2 0 .4.2.4.4.7.2 1.5.3 2.4.3 2.5 0 5.1-.8 6.8-2.2 1.4-1.1 2.1-2.8 2.4-4.5l-.1-.1c-.2-.1-.2-.4-.1-.6l.1-.1c0-.5.1-1 .2-1.6v-.2c0-.7 0-1.3-.1-2v-.6c0-3.9 1.7-6.8 1.9-10.3v-.9c0-4.4-1.6-7.1-4.9-10.4-.5-.5-.9-.9-1.3-1.4.2.9.3 1.7.6 2.5.6 1.9 2.2 4.5.3 6.4-3.2 3.2-7.7.2-10.9-3.1 1.2 2 2.4 4.2 2.4 6.5 0 .5-.1 1-.2 1.6-.3 1.3-1.2 2.1-2 2.9-.4 1.7-1.3 3.2-2.8 5-2.4 2.7-8.1 4.7-7.8 9 .1.1.1.1.1.2s0 .1-.1.2c0 .1 0 .2.1.3 2.1.6 5.2 1.6 8.5 2.4 0-.1.1-.2.2-.2.3-1.2 1.3-2.5 2.2-3z"/><path fill="#F4F1EA" d="M37.6 171.8c-.4 1.4-1.1 2.8-2.4 3.8-1.5 1.2-3.5 1.9-5.5 2.2 2.9.2 5.5 0 7.4-.9 1.5-.7 2.4-1.8 2.8-3.1-1.1-.5-1.8-1.2-2.3-2zm56.5-1.9c0 .2-.1.3-.3.4.3.4.4 1 .4 1.5.8-1.4.3-3-.6-4.3.3.5.5 1.2.5 2v.4zm-27.2 7.6c-.1 0-.1 0 0 0-.1 0-.1 0 0 0zM47.8 42.7h-.2c-.2.3-.3.6-.5.9.3-.4.5-.7.7-.9zm-5.2 19.7c.2.3.5.6.7.9.2-.9.4-1.7.5-2.5-.3.1-.5.2-.8.3-.1.4-.3.8-.4 1.3zm25.4.7c0 .5.1 1 .1 1.5.7.2 1.3.5 2 .7-.3-.7-.6-1.5-1-2.2H68zm0-.9h.7c-.2-.4-.4-.7-.5-1.1-.1.4-.1.8-.2 1.1zm2.5 4.1c-.7-.3-1.4-.6-2.1-.8.5 1.8 1.6 3.3 1.6 5.2 0 .3 0 .5-.1.8.3-.1.7-.3 1-.5.2-1.4.1-2.9-.4-4.7z"/><path fill="#F4F1EA" d="M68.6 72.8c-.1-.2-.2-.3-.2-.5s.1-.4.3-.4c.1 0 .2 0 .2-.1.1-.4.2-.7.2-1.1 0-1.7-1.2-3.4-1.7-5.5-.1 0-.1 0-.2-.1-.2-.1-.3-.3-.3-.5s.2-.3.3-.3c-.1-.5-.1-1-.1-1.5v-.4c0-.5.1-1 .2-1.5v-.2h-.2c-.2 0-.4-.2-.4-.4s.2-.4.4-.4h.2V59c-.6-2.3 0-4.5-.2-7.1-.2-3.4-1.6-3.6-4.1-5.5-1.7-1.3-1.9-2.4-1.8-3.9-.2-.4-.4-.7-.5-1.2-.1-.3-.1-.6-.1-.9 0-1.5.9-2.8 1.2-4.1.1-.6.2-1.3.3-2h-.9c-1.6 0-2.4.4-3.2 1.2-.8.8-1.6 2-3.1 3.5-1.9 2-3.7 3-5.8 3.5-1.4 1.5-2.4 3.1-3 5.5-.2.7-.4 1.5-.5 2.2-.2 1.3-.3 2.7-.5 4 0 .6.1 1.3.1 2 0 .5 0 1-.2 1.5 0 .1.1.1.1.2 0 .2-.1.3-.2.4 0 2-.4 4-.9 5.9.1.2.1.4-.1.5-.6 2.5-1.3 5.1-1.3 7.6v.3c.4.3 1 .6 1.7.7v.6c.2.1.4.1.7.1.1-.2.2-.2.4-.2h.3c.6 0 .8-.2 1.1-.7-.1-.2.1-.5.3-.5.3-.7.5-1.6 1.3-2.2 1.2-1 2.9-1.2 4.5-1.2h.8v-.1c0-.7-.1-1.3-.1-1.8 0-.4.1-.8.3-1.2-.1 0-.1-.1-.1-.1s0-.1-.1-.1-.1.1-.2.1h-.1c-.2-.1-.4-.3-.3-.5v-.4c-1.7-2.1-4.2-3.5-4.8-6.9-.1-.4-.1-.8-.1-1.1v-.6c-.1-.3-.2-.4-.2-.5v-.3c0-.8.5-1.4 1.1-1.8.5-.6 1.1-1 1.8-1.4 1.6-.8 3.6-1.1 5.5-1.1h.1c3.3 0 8.3 1.2 10.1 4.6.4.8.6 1.5.6 2.2 0 1.7-1.1 2.9-2.5 3.8-1.4.9-3.1 1.5-4.5 1.9-1.5.5-3.2.8-4.5 1.5-1.1.7-1.1.9-1.1 1.7 0 .4.1 1 .1 1.8 0 .1 0 .1-.1.2h.1c1.5.2 4.1.4 5.3 1.8.6.7.7 1.4.7 2.1 0 .8-.2 1.7-.2 2.4v.2c.8.2 1.6.3 2.4.3 2.3 0 4.5-.9 5.8-2.9-.2 0-.1-.1-.1-.2zm-23.7-9.3c.2-.1.5 0 .5.2.1.2.2.3.5.4.2.1.4.3.3.5 0 .2-.2.3-.4.3h-.1c-.5-.1-.9-.4-1.1-.9 0-.1.1-.4.3-.5zm1.4 7.1c-.6 0-1.1-.1-1.6-.2-.2-.1-.3-.3-.3-.5.1-.2.3-.3.5-.3.4.1.8.2 1.3.2h.1c.2 0 .4.3.3.5.1.1-.1.3-.3.3zm1.8-2.4c-.2.2-.5.3-.7.3-.4 0-.8-.2-1.1-.5-.2-.2-.2-.4 0-.6.2-.2.4-.2.6 0 .2.2.4.3.5.3.1 0 .1 0 .2-.1.2-.2.4-.1.6 0s0 .4-.1.6zm0-3.6c.5.2.9.4 1.4.7.2.1.2.4.1.6-.1.1-.2.2-.3.2-.1 0-.2 0-.2-.1-.3-.2-.7-.4-1.1-.6-.2-.1-.3-.3-.3-.5 0-.3.2-.4.4-.3zm13.7 3.5h-.5c-.2 0-.4-.2-.4-.5 0-.2.2-.4.5-.4h.5c.6 0 1.1-.1 1.6-.4.2-.1.5-.1.6.1.1.2 0 .5-.1.6-.8.5-1.5.6-2.2.6zm1.8 2.5h-1c-.2 0-.4-.2-.4-.4s.2-.4.4-.4h1c.2 0 .4.2.4.4s-.1.4-.4.4zm2 1.9c-.3 0-.7.2-.8.3-.1.1-.2.1-.3.1-.1 0-.2 0-.3-.1-.1-.2-.1-.4 0-.6.3-.3.8-.4 1.2-.5.2 0 .4.1.5.3 0 .2-.1.4-.3.5zm1.3-3.7c-.3.4-.8.5-1.3.6-.2 0-.4-.2-.4-.4s.2-.4.4-.4c.3 0 .7-.2.7-.3.1-.2.4-.2.6 0 .1 0 .1.3 0 .5z"/><path fill="#F4F1EA" d="M61.7 53.8c-.3 0-.5-.1-.8-.1.1.1.3.1.4.2.1 0 .2.1.3.1 0 0 0-.1.1-.2zm2.5 122.5c-.1-.2-.3-.3-.6-.3h-.2v.1c.2.1.3.1.4.2.2.1.3.4.1.6l-.2.2c0 .1.1.1.1.2.2-.1.4-.1.6-.2.1-.3 0-.6-.2-.8zM58.7 55.2c.1-.1.3-.2.4-.3-.1 0-.3-.1-.4-.1.1.1.1.2 0 .4zM55.8 53c0-.1-.1-.2-.1-.3-.5 0-1 .1-1.4.2.6 0 1 0 1.5.1zm2.2 6c-.1.2-.2.4-.2.6 0 0 0 .1-.1.1.1.2.1.4.1.5.1-.4.1-.8.2-1.2zm12.8 117.4h.2c0-.3-.1-.5-.2-.7-.1-.2-.2-.2-.5-.2h-.1c.1 0 .2.1.5.3.2.1.3.3.1.6 0-.1 0 0 0 0zM59.1 56.3c.2-.2.4-.3.6-.5 0 0-.1 0-.1-.1h-.1c-.1.1-.3.2-.4.3v.3zM51 59.1c0-.2 0-.4.1-.6.1-.2.3-.3.5-.2.2.1.3.3.2.5 0 .1-.1.2-.1.2 0 .2.2.5.5.7.3.2.7.4 1.1.4.5 0 1-.2 1.1-1.1v-.3c0-.6-.2-1-.5-1.2-.3-.2-.8-.4-1.4-.4-.6 0-1.3.2-1.8.4v.2c0 .5.1 1.1.4 1.6-.1 0-.1-.1-.1-.2zm-.2-4.9c-.2 0-.4.1-.6.2-.2.1-.4.2-.5.2-.1.1-.1.2-.2.3.4-.3.8-.5 1.3-.7zm-.9 2.3v-.3c-.2.1-.2.2-.2.5 0 .1 0 .3.1.5l.2-.2c0-.1 0-.2.1-.2-.2 0-.2-.1-.2-.3zm.4-1.1c-.1 0-.1 0 0 0-.1 0-.1 0 0 0-.1 0 0 0 0 0zm7.1-1.1c-.1 0-.2-.1-.2-.2-.7 0-1.6-.1-2.5-.1-.7.1-1.6.4-2.4.8-.5.2-.8.5-1.1.8.1 0 .3-.1.4-.1h.1c1.5-.7 2.8-1.2 4.7-1.3.2 0 .4.2.4.4s-.1.4-.3.5c-.8.1-1.5.5-2.2.9 1.1-.2 2.6-1 3.8-1.3-.2-.2-.4-.3-.7-.4zm24.1 119.6zM62.1 57c-.3-.2-.7-.5-1-.7-.1 0-.3-.1-.4-.1-.5.4-1 .9-1.4 1.3.6-.4 1.4-.6 2.1-.6.2 0 .5 0 .7.1zm-5.4 3.2zm7.8-4.4zm1.5 1.3l-.1.1c.1.5.2 1.1.2 1.7.1-.2.1-.5.1-.7 0-.3-.1-.7-.2-1.1zm-10.9 7.7c.4-.2.8-.4 1.3-.6 0-.1 0-.2.1-.3.4-.5.8-1.1 1-1.6-.7.7-1.4 1.4-2 2.1-.1.1-.2.2-.4.1h-.2c-.1 0-.2-.1-.2-.1-.1.2-.3.4-.4.6.1.1.1.2.2.3 0-.2.3-.4.6-.5zm-2.7-11.7c0-.1 0-.1.1-.2s.2-.2.4-.3c-.6.1-1.1.3-1.6.6.4 0 .7-.1 1.1-.1zm-3.5 17.8c-.5.4-.8 1.2-1.1 2 0 .1 0 .1-.1.2.2.5.6.8 1.1 1 .6.3 1.5.4 2.5.4.9 0 2-.1 3-.3 0-.1.1-.2.3-.3.2-.1.4 0 .5.2 1.9-.3 3.6-.8 4.6-1V73c0-.6-.1-1.1-.5-1.6-.8-1-3.2-1.4-4.7-1.5-.5 0-1-.1-1.6-.1-1.5.1-3.1.3-4 1.1zm13.8 5.9c-1 0-2-.2-2.9-.5-.2 0-.3-.2-.3-.3v-.6c0-.5.1-1 .1-1.4-.9.2-2.4.6-4.1.9.6.6 1.6 1.3 2.8 1.8 1.6.8 3.6 1.3 5 1.3.6 0 1.1-.1 1.5-.3.3-.2.4-.4.5-.9v-.3c-1 .2-1.8.3-2.6.3zm1.6-21.3c-.1-.2-.3-.4-.4-.5-.5-.4-1-.6-1.4-.6h-.1c.6.3 1.3.7 1.9 1.1 0 .1 0 .1.1.1l-.1-.1zm11.1 52c.5.2 1.1.4 1.7.5h.7c2 0 3.7-1.1 5.3-2.5-2.3 1.3-5.1 2.1-7.7 2zm-5.6-35c.1.1.1.2 0 .4s-.2.3-.4.3h-.1c-.1.1-.2.3-.2.4-.3.5-.6.9-1 1.3h.2c.2.1.3.3.2.5-.3.6-.4 1.5-.5 2.5 1.2-2 2.2-3.8 2.7-5.8-.3.1-.6.2-.9.4zM58.9 52.8c.5.2 1 .4 1.4.6v-.2c0-.1 0-.1.1-.2-.5 0-1-.1-1.5-.2zM22.7 175.5v-.7c-.1.2-.3.4-.4.7h.4zM58.9 61.2l-.3-.3v.5c0 .2-.1.3-.2.4 0 .2-.1.4-.2.6.6-.3 1.3-.4 1.9-.6-.5-.1-.9-.3-1.2-.6z"/><path fill="#F4F1EA" d="M52.5 56.4h.3v-.1c0-.1 0-.3.1-.4.1-.1.3-.2.4-.3-.6.3-1.3.6-2 1 .4-.2.8-.2 1.2-.2zm4.3 4.7c0 .3-.1.5-.1.7.1-.1.1-.2.2-.2-.1-.2-.1-.3-.1-.5zm-33.2 115c.5-.1.9-.3 1.3-.4-.3-.6-.8-1-1.3-1 0 .3-.1.6-.1.9 0 .1 0 .3.1.5zM63.9 60c.6-.6.8-1.1.8-1.6 0-.3-.1-.6-.2-.9v.1c0 .1-.1.3-.2.4-.1.1-.2.1-.3.1.1.2.2.3.3.5.1.2 0 .5-.2.5-.2.1-.5 0-.5-.2-.3-.7-1.1-1.1-2-1.1-.6 0-1.2.2-1.7.5-.4.3-.7.7-.7 1.3 0 1 .6 1.4 1.6 1.5h.3c.4 0 .8-.2 1-.5.3-.2.4-.5.4-.6h-.2c-.1 0-.2 0-.4.1-.2 0-.4-.1-.5-.3 0-.2.1-.4.3-.5.2 0 .4-.1.6-.1.3 0 .5.1.8.2.2.2.3.4.3.7 0 .4-.2.7-.5 1 .2-.4.6-.7 1-1.1z"/><path fill="#F4F1EA" d="M64 61.3c.6-.4 1.1-.8 1.4-1.2-.1 0-.1-.1-.2-.2v-.5c-.2.4-.4.8-.8 1.2-1.3 1.3-2.8 1.7-4.1 2-1.1.3-2 .5-2.8 1.1.7-.2 1.5-.4 2.1-.6 1.5-.4 3.2-1 4.4-1.8zM41.7 71.6c.1-2.1.6-4.1 1-6.1-.4.3-.9.6-1.4.9-.3 2-.3 3.9.4 5.2zm12.5-8.2h-.1v.3c0-.1 0-.2.1-.3zm1.5-2.5s0-.1 0 0c-.1 0-.1.1-.1.2.1-.1.1-.2.1-.2zm25.7 113zM44.5 74.7c0 .1 0 .1 0 0 0 .1 0 .1 0 0zm37 99.2zM54.6 62.1c.1-.5.2-1 .2-1.4v-.4c-.2.3-.6.5-.9.6.3.4.5.8.7 1.3v-.1zm1.1-4c-.1 0-.3 0-.4-.1-.1-.1-.2-.2-.1-.4.1-.6.3-1 .7-1.3-.6.2-1.2.4-1.7.4.1.1.2.1.3.2.5.4.9 1.1.9 1.9v.4c0 .2 0 .3-.1.4h.1c.1 0 .2 0 .2.1.1-.7.3-1.2.6-1.8-.2.1-.4.1-.5.2zM85.3 171c.1.1.2.3.2.4.1-.2.3-.3.5-.2.2 0 .4.3.3.5 0 .3-.1.6-.1.8 0 .5.1.7.3.8h.1c.1-.5.2-1.1.2-1.7 0-.5-.1-1.1-.2-1.6-.4 0-1 .1-1.4.3-.1.1-.3.1-.3.2.1.3.3.4.4.5zm7.7 2c.2-.3.3-.7.3-1.1 0-.5-.1-1-.4-1.3 0 .3-.1.5-.1.8v1c0 .1-.1.3-.2.3 0 .2.1.4.1.6l.3-.3zM53.2 63.3v-.4c-.1-.1-.3-.1-.4-.2.1.1.3.3.4.6zm-.7-2.3c.2.1.3.3.2.5v.1c.2.1.3.2.5.3 0-.3-.1-.5-.1-.7v-.1c-.3 0-.6-.1-.9-.3.1.1.2.2.3.2zm-4 13.9c-.5-.2-.9-.5-1.3-1-.3.4-.8.7-1.5.7h-.1c-.1.1-.2.2-.3.2h-.1c.1.1.1.2 0 .3 0 .2-.1.4-.1.5.7.5 1.8.8 2.7 1 0 .3 0 .5-.1.8h.3c.1-.1.3-.2.5-.1 1.2-.2 2.4-.9 2.8-2h-.1c-1 .1-1.9-.1-2.7-.4zm36.4 97v-.2c-.1-.1-.2-.1-.3-.2.1.2.2.4.3.7v-.3zM46 86.8c.3-1.2.3-2.6.4-4.1 0 .2-.1.3-.1.5l-.3 3.6zM50.3 60l.1.1c-.1-.1-.2-.3-.3-.4-.5-.6-.9-1.3-1.1-2v.1c.1.9.4 1.6.8 2.3.2-.2.4-.2.5-.1z"/><path fill="#BE6B3E" d="M35.9 49.6c0 1 .2 2 .7 3.3.7 1.8 1.8 3.6 3 5.3 1.4-.3 2.9-.7 4.5-.8-.1-1.5-.4-2.9-1.2-4.4-1.6-3-2-6.6-2-10.3v-.8c-1.2-.2-2.4-.5-3.5-.9-.5 1.5-.6 3.1-.9 4.7-.4 1.6-.6 2.8-.6 3.9zM32.4 38c-.2.1-.3.2-.5.3.2 0 .4-.1.5-.3 0 .1 0 0 0 0zm-7.9 34.1c.6-.5 1.2-.9 1.7-1.3h.1c1.1-6.2.2-12.5 1-18.9.2-1.9.5-4.6 1.1-7.3.4-1.6.9-3.2 1.7-4.4-4.7 6.3-3.5 17.9-4.5 24.7-.3 2.1-.6 4.7-1.1 6.9.1.2.1.2 0 .3zm28.2-47.8H52c.7.4 1.4.9 2.1 1.3 0-.4-.1-.7-.3-.9-.2-.1-.5-.3-1.1-.4zM34.5 37.1c.5-.2 1-.5 1.5-.8-.6.2-1.1.4-1.6.6-.1.1 0 .2.1.2zm2.6-2c.5-1 .5-2.4.8-3.8-.6 1.1-1.1 2.2-1.8 3.4.2.2.6.3 1 .4z"/><path fill="#BE6B3E" d="M48.4 25.2c-1.3-.5-2.6-.9-4-1.1-.2.1-.4.2-.5.2l-.6.3.1.1c-.4.3-.9.6-1.3.8l.1.2c-.3.1-.6.3-.9.5-1 1.7-1.9 3.3-2.4 5.1-.5 1.4-.3 3.3-1.3 4.7-.6.8-1.5 1.3-2.4 1.8.6.5 1.2.9 2.1 1.3.5-1 1-1.9 1-2.8 0-.2.2-.4.4-.4s.4.2.4.4c0 1.1-.6 2.2-1.1 3.1.1 0 .1.1.2.1.9.3 1.7.5 2.6.8.1-3.2.5-6.4.5-9.2 0-.2.2-.4.4-.4s.4.2.4.4c0 2.9-.4 6.1-.5 9.4 1.4.3 2.8.5 4.1.5 1.3 0 2.6-.2 3.9-.6 1.1-1.2 2.4-2.2 3.5-3.6 1.1-1.3 2.1-2.8 3.1-4.1-.1-2.5-2.3-4.7-5.4-6.3-.5-.2-1-.5-1.5-.7-.7.5-1.3 1-1.6 1.5-.1.2-.4.3-.6.1-.2-.1-.3-.4-.1-.6.3-.6.8-1.1 1.4-1.5zm2.1 3.1c.2 0 .5 0 .7.1.4 0 .8-.1 1.1 0 .9 1.5 2.1 2.9 2.5 4.7-.1-.5-.3-.7-.6-.9.2.7.4 1.5.5 2v.2c0 .1-.1.2-.2.2h-.3c-.1 0-.2-.1-.2-.2v-.1c0-.1-.1-.1-.1-.2-.2-.1-.2-.4-.1-.6-.1-.5-.3-1.1-.5-1.7h-.5c-1.2.6-3.2 1.4-4.8 1.5-.6 0-1.2-.1-1.6-.5-.4-.3-.6-.8-.7-1.4-.1 0-.2 0-.3-.1-.2-.2-.2-.4 0-.6 1.2-1 3.1-2.4 5.1-2.4zm6-8.9c1.1-.2 2.2-.4 3.3-.5v-.2c-1.1.1-2.2.4-3.3.7zm-7.1 2.8c-.5.2-1 .3-1.5.5 1.1.3 2.1.6 3 1.1.5-.2 1-.3 1.5-.3h.4c.7.1 1.3.3 1.6.7.3.4.5.9.5 1.3v.7c.6.4 1.1.7 1.8 1.1.7.4 1.4.7 2 .9.6-2.3.9-4.6 1.1-6.9v-.4c0-.4 0-.8-.1-1.3-2.5.3-4.9.8-7.4 1.5.5-.1.9-.1 1.4-.1 1.1 0 2.1.2 2.9.6 2.1 1.2 2.1 3.7 2.1 5.5v.4c0 .2-.2.4-.4.4s-.4-.2-.4-.4v-.4c0-1.9-.1-4-1.7-4.8-.5-.3-1.4-.5-2.5-.5-1.6 0-3.5.4-4.1 1-.2.1-.4.1-.6-.1-.1-.2-.1-.4.1-.6.1.1.2.1.3.1zm4.5 12.2v.1-.1zm-9.6 38.9c-.7-.1-1.3-.4-1.7-.7v.7c.6.3 1.1.5 1.6.7 0-.3 0-.5.1-.7zm1-25.5c.4-1.7 1-3 1.9-4.2.1-.3.3-.6.5-.9h-1c-1.1 0-2.3-.1-3.7-.3-.5-.1-.9-.1-1.4-.2v.7c0 3.6.4 7.1 1.9 9.9.3.6.5 1.1.7 1.7v-.8c.1-2.2.6-4.1 1.1-5.9zM43.5 60c.2-.5.4-1 .5-1.4-.1-.1-.2-.2-.2-.3-1.3.1-2.5.4-3.8.7.5.7 1 1.3 1.5 2 .6-.4 1.3-.7 2-1zm17.2-39v.4c-.2 2-.5 4.1-.9 6.1 1.2-2.3 1.5-4.6 1.5-8h-.6V21zM45.1 53.5v.7c.2-1.3.3-2.7.5-4-.3 1.1-.5 2.2-.5 3.3z"/><path fill="#BE6B3E" d="M44.4 97.2c1-3.2.8-6.8 1.6-10.2 0-.1 0-.2.1-.2.1-1.2.2-2.4.4-3.6 0-.2.1-.3.1-.5.1-1.6.4-3.2 1.1-4.5-.8 0-1.5-.2-2.1-.6-.6-.4-1.1-1.1-1.1-2 0-.2 0-.5.1-.7v-.2c-.9-.1-1.7-.5-2.4-.9-.1-.1-.2-.2-.2-.3 0-.4-.1-.8-.1-1.3v-.7c-.8-1.3-.7-3.2-.3-5.2-1.1.6-2.2 1.2-2.9 2-.1.1-.2.1-.3.1-.1 0-.2 0-.3-.1-.2-.2-.2-.4 0-.6 1.1-1.2 2.6-1.8 3.8-2.6.2-.7.4-1.3.6-1.9-.3-.4-.6-.8-1-1.2-2.1 1.4-4.1 3.4-4.8 5.3-.1.2-.2.3-.4.3h-.1c-.2-.1-.3-.3-.2-.5.8-2.1 2.8-4.2 5.1-5.7-.6-.7-1.1-1.5-1.7-2.2-.8.2-1.6.3-2.4.3-.2 0-.4-.2-.4-.4s.2-.4.4-.4c.6 0 1.3-.1 1.9-.3-1.1-1.7-2.1-3.4-2.8-5.2-.5-1.3-.7-2.5-.7-3.6 0-1.3.2-2.5.4-3.9.2-1.6.4-3.2.9-4.9-1.2-.5-2.3-1.2-3.4-2.2-.2.1-.5.3-.7.4-1.5 1-2.5 3.3-3.1 5.8-.6 2.5-.9 5.3-1.1 7.2-.8 6.8.3 13.4-1.3 20.3-1.2 5.4-1.1 11.4-4.3 16.4-.9 1.3-2.3 2.7-2.2 3.9 0 .2 0 .5.2.8.3.6 1.2 1.7 2.3 2.7 1.1 1 2.2 1.9 2.9 2.5 3.1 2.9 7.3 5 10.9 5 3.2 0 6.1-1.7 7.5-6.4z"/><path fill="#BE6B3E" d="M45.2 75.6c0 .6.3 1 .7 1.4.5.3 1.1.5 1.8.5h.1c0-.3.1-.5.1-.8-.9-.3-2-.6-2.7-1.1zM42 61.7c.2.2.4.5.6.7.2-.4.3-.9.5-1.3-.4.2-.8.3-1.1.6zm34.1-15.2c-1 3.5-2.4 6.2-4.7 9.1-1.3 1.7-2.3 2.9-2.9 4.4 2.7.1 5.2.7 7.6 1 .2 0 .4.2.4.5 0 .2-.2.4-.4.4H76c-2.6-.4-5.1-1-7.8-1 0 .1-.1.2-.1.3.2.4.3.7.5 1.1h.9c1.1 0 2.2 0 3.3.2 1 .2 1.9.4 2.4 1.1.1.2.1.5-.1.6-.1 0-.1.1-.2.1s-.3-.1-.4-.2c-.1-.2-.8-.6-1.8-.7-1-.1-2.1-.2-3.2-.2h-.4c.4.7.7 1.5 1 2.2 1.1.4 2.2.8 3.2 1.2.2.1.3.3.3.5-.1.2-.2.3-.4.3h-.1c-.9-.3-1.7-.6-2.6-.9.5 1.8.6 3.3.5 4.7 3-1.8 5.7-5.8 7.2-8.5 2.2-4.2 2.4-8.7 2.4-13.3v-2.3c-1.7 0-3-.2-4.4-.4-.1-.3-.1-.2-.1-.2zm7.3-9.3c.1 0 .2 0 .3-.1V37c-.1.1-.2.2-.3.2zm-9.7-4.1zm1.9 2.8c0-.1.1-.1.1-.1v-.4c-.2-.8-.4-1.4-1-1.9 0 .3 0 .5-.1.7.2.7.2 1.5.2 2.3.3 0 .6-.2.8-.6zm9.1 3.8c0 .8.1 1.1.3 1.4.2.3.6.6 1.3 1.2.3-.2.5-.5.8-.7-.4-.3-.9-.6-1.4-1-.4-.4-.7-.6-1-.9zm-13.9-20c-2.1-1.1-4.6-1.6-7.2-1.5v.4c2.6 0 5.2.5 7.7 1.5 0-.1-.2-.1-.3-.2l-.2-.2zm-.6 4.7c-1.4.2-3.1 1.3-4 2.7.7-.3 1.4-.6 2.2-.8 1.7-.6 3.4-.9 5.3-1-.8-.6-1.6-.9-2.6-.9h-.9z"/><path fill="#BE6B3E" d="M77.1 27.8l.6.6c.2.2.2.4 0 .6-.2.2-.4.2-.6 0-.4-.4-.7-.8-1.1-1.2-1 0-1.9.2-2.8.4.8.6 1.4 1.4 1.7 2.4.1.2-.1.5-.3.5-.2.1-.5-.1-.5-.3-.3-1.1-1-1.9-1.9-2.3-.7.3-1.4.6-2.2 1-2 1.1-3.2 3.4-3.4 5.8 1.6-1.4 3-3.3 5.6-3.3.3 0 .6 0 .9.1 2.4.4 3.2 1.8 3.4 3.2.2 1.5.1 3.1.6 4.2.1.2 0 .5-.2.6h-.2c-.2 0-.3-.1-.4-.2-.4-1-.5-2-.6-3-.3.2-.6.4-.9.5 0 .1 0 .3.1.4-2-.3-4.7-.3-6.1-1.5l-.7-.7v-.1H68c-.1-.1-.2-.1-.2-.2-.4.4-.8.8-1.3 1.1 0 .6.1 1.3.2 1.9.8 3.5 5 5.1 9.3 5.7.1-.3.1-.6.2-.9 0-.2 0-.2.1-.4 0 0 .1-.2.4-.2.3 0 .4.2.4.3v.3c0 .1-.1.3-.2.3 0 .1 0 .2-.1.3 0 .1-.1.3-.1.4 1.1.1 2.3.2 3.3.2 1.1 0 2.1-.1 2.9-.2.8-.1 1.7-.5 2.6-1.2-.6-.5-1-.8-1.3-1.3-.4-.6-.5-1.2-.5-2.4v-.6c-.1-.2-.2-.4-.2-.6-.2 0-.4.1-.7.1-.3 0-.6 0-.9-.1l.2-.6v-.2c-.2-3.5-.8-6.5-2.3-9.1-.2 0-.3 0-.5-.1-.7-.1-1.5-.2-2.2-.2zm11.2 16.9c.4.9.6 1.9.6 2.8 0 .5 0 1.1-.1 1.6.3-.9.6-1.7.8-2.7.3-1.3.1-2.2-.3-2.9-.4.5-.7.9-1 1.2zm2 14.8c-.6-1.3-1.4-2.5-1.9-3.9.2.8.6 1.6 1.1 2.4.2.5.5 1 .8 1.5zM93.9 78c-.1-1.5-.3-3-.6-4.5l.3 2.4c.2.7.3 1.4.3 2.1z"/><path fill="#BE6B3E" d="M83.1 105.4c1.6-1.4 3.1-3.2 4.5-4.5 3.3-3 5.1-4.5 5.7-8.7.3-1.9.4-3.9.4-5.9 0-3.5-.3-7-.9-10.2-.7-4.3-.2-8.9-1.6-12.9-.7-1.9-1.6-3.3-2.5-4.8-.8-1.4-1.5-2.9-1.5-4.9 0-.6.1-1.3.2-2 .3-1.4.6-2.8.6-4 0-.8-.1-1.5-.4-2.2-1.1.8-2.5 1.4-4.5 1.5-.6 0-1.2 0-1.8.1v2.3c0 4.7-.2 9.4-2.5 13.7-1.6 2.9-4.5 7.4-8.1 9.2-.5 2-1.5 3.8-2.7 5.8-.2 1.4-.2 2.9-.5 4.1-.5 2.3-1.2 4.6-1.5 6.9v1c0 3.1 1.4 7.4 2.5 10.1 1.2 3 3.8 6.4 6.8 7.6 2.7 0 5.5-.8 7.8-2.2zM64.6 44.9c1.3 1.2 2.7 2.5 3.1 4.3.4 1.6.5 3.5.5 5.3 0 1.4-.1 2.8-.1 4.2.6-1.2 1.5-2.3 2.5-3.6 2.2-2.8 3.6-5.4 4.6-8.8v-.1c-1.3-.3-2.6-.7-4.3-1.2-4.2-1.3-6.8-6.5-7.5-10.5-.2 0-.4-.1-.5-.1-.1.7-.1 1.4-.3 2.1-.3 1.4-1.2 2.7-1.2 3.9 0 .2 0 .5.1.7.6 1.4 1.8 2.6 3.1 3.8z"/><path fill="#BE6B3E" d="M72.9 107c-2.3-1.7-4.1-4.4-5.1-6.8-.9-2.3-2-5.5-2.4-8.5-.2.2-.3.5-.5.7.2 2.9.7 5.6 1.5 7.4 1.5 3 3.4 6 6.5 7.2zm-9.5-86.8c-.2-.2-.4-.4-.5-.7h-1.1c.5.4 1.1.8 1.6 1.2v-.5zm-.3 26.2c2.4 1.8 3.8 2.1 4.1 5.5.2 2.6-.4 4.8.2 7.1 0-1.4.1-3 .1-4.5 0-1.8-.1-3.5-.5-5.1-.4-1.5-1.6-2.7-2.9-3.9-1-.9-2-1.9-2.7-3-.1 1.5 0 2.6 1.7 3.9zm.8-26.9l.1.1c.1.1.2.2.3.4 0 .6.1 1 .1 1.5.1.1.1.2.2.2.4.5.8 1.1.9 2 .2 1.1-.2 2.6-.6 4.1.1 0 .1 0 .2-.1.9-2.1 3.2-3.6 5.1-4 .3-.1.6-.1.9-.1 1.6 0 2.8.7 3.8 1.7h1c.6 0 1.3 0 1.9.1-.5-.5-1.1-1-1.7-1.5-3.8-3.1-7.9-4.3-12.2-4.4zm.9 71.5c0-.1.1-.1.1-.2.1-.1.2-.2.3-.2v-.9c0-.4 0-.7.1-1.1.3-2.5 1-4.7 1.5-7 .1-.6.2-1.4.3-2.2 0 .1-.1.1-.1.2-1.5 2.7-2.2 7.1-2.2 11.4zm-4.2-72.5v.3c.7-.1 1.5-.1 2.2-.1v-.3c-.7-.1-1.5 0-2.2.1zm26.8 100.9c2.6 1.4 5.3 3.3 7.4 5.5-.5-.7-1-1.4-1.6-2.1-1-1-3.4-2.7-5.3-3.6 1-1.8 1.8-3.8 2.5-5.7 1.4-3.9 2.5-11 1-14.9l-.5.4c0 5.5-.8 11.6-2.3 16.7-.3 1.3-.7 2.5-1.2 3.7z"/><path fill="#BE6B3E" d="M67.2 135.7c-.1 1.2-.2 2.5-.4 3.8 1-1.5 2-2.9 2.7-4.4.5-1 .7-2.4.9-3.8.2-1.4.5-2.8 1.2-3.7.1-.1.3-.2.5-.1s.3.2.3.4v.5c0 .2-.2.4-.4.4h-.1c-.3.7-.5 1.6-.7 2.6-.2 1.4-.4 2.9-1 4-1 2.2-2.7 4.4-4.2 6.4-.2.4-.4.8-.6 1.1-.1.2-.4.4-.6.7-1.1 1.5-2.3 2.8-3.5 4 .5 1.5 5.8 2.8 7.2 3 .6.1 1.1.1 1.6 0 .1-.9.2-1.8.4-2.6 1.4-5.1 6.4-8.4 9.3-12.5 2.4-3.4 3-5.9 3-9.5-.3.4-.7.8-.9 1.2-.1.1-.2.2-.4.2-.1 0-.1 0-.2-.1-.2-.1-.3-.4-.1-.6 1-1.6 2.8-3.2 3.8-4.8.4-.6.7-1.1 1-1.7 0-.3.1-.5.2-.8-.1 0-.1-.1-.2-.1-.2-.1-.3-.4-.2-.6.1-.2.4-.3.6-.2.1.1.2.1.3.2.5-1.1.8-2.3 1.2-3.5 1.4-4.8 2.2-10.5 2.3-15.7-.6.6-1.2 1.2-1.9 1.8-1.5 1.3-3.1 3.3-4.9 4.9-3.1 5.3-8.2 9-11.6 13.9-3.6 5.2-4 9.7-4.6 15.6zM11.9 94.5c.8-4.5 2.3-9.7 5.1-13.5 1.9-2.7 4.4-6.1 7.2-8.5H24l.6-.6c-1.4.8-2.9 1.5-3.9 2.7-1.7 1.9-2.2 3.7-4.3 5.3-2.8 2.2-4.6 5.7-5.7 9.1-1.3 4.3-.7 12.4.5 16.6.1.4.2.8.4 1.2-.2-1.7-.3-3.4-.3-5.1-.1-2.4.1-4.9.6-7.2zm6.3 44.4c-.6-1.9-1.7-3.2-1.9-5.4v-.7c0-1.8.6-3.4.6-4.9 0-.8-.2-1.2-.6-1.7-.3-.5-.8-1-1.2-1.8-.1-.3-.2-.5-.3-.8-.4 1.2-.9 2.2-1.1 3.5-.2 1.7.9 3 1.2 4.6.6 2.5.3 4.5 1.6 6.8.9 1.7 1.9 3.5 2.9 5.2.2.4.5.8.8 1.2 0 0 0-.1-.1-.1-.7-2-1.3-4-1.9-5.9z"/><path fill="#BE6B3E" d="M33.7 151.2c1.9-1.9.3-4.5-.3-6.4-.3-.8-.4-1.6-.6-2.5-2.2-2.6-3.3-5.1-3.8-8.2-.2-.2-.5-.4-.7-.7-.6-.6-1.2-1.1-1.8-1.7l-.3-.3c-.4-.4-.7-.8-1-1.2-.2-.3-.4-.6-.5-.9-.4-.9-.4-2-.5-3 0-.4 0-.7-.1-1.1 0-.3-.1-.6-.1-.8-.4-1.9-.9-3.7-1.2-5.6-.6-4.3-2.7-8.6-4.4-12.6-1.5-3.4-1.1-5.9.1-9.5.2-.7.5-1.2.9-1.6 2 5 8.4 8.2 14 9-3-.8-5.9-2.6-8.3-4.7-.6-.6-1.8-1.5-2.9-2.5-1.1-1-2.1-2-2.5-3-.2-.4-.2-.7-.2-1.1 0-1.8 1.6-3.2 2.4-4.4 3-4.7 2.9-10.6 4.2-16.1v-.2c-3.1 2.2-6.2 6.4-8.5 9.5-2.6 3.6-4.2 8.7-5 13.2-.4 2.3-.6 4.7-.6 7.1 0 2.7.3 5.4.8 8 .3 1.1.5 2.3.8 3.4.8 2.4 1.4 4.9 1.4 7.4.1 1.3.2 2.5.7 3.5.3.7.8 1.2 1.2 1.7.4.5.7 1.2.7 2.2 0 1.6-.6 3.2-.6 4.9v.6c.2 1.9 1.2 3.2 1.9 5.2.6 2 1.2 4 1.9 5.9.4 1.2 1.2 2.4 1.9 3.6 3.3 3.1 7.8 6 11 2.9z"/><path fill="#BE6B3E" d="M30.1 135.1c.4 1.9 1.2 3.7 2.4 5.4-.3-1.7-.8-3.4-1.9-4.7-.1-.3-.3-.5-.5-.7zm29.7 36.3c-.8-1.3-2.5-2.6-3-4v-.1.4c0 .5 0 1 .1 1.4.3 1.6 1.4 3.2 1.8 5.2l.3 1.5c1.6-.7 2.3-2 .8-4.4z"/><path fill="#BE6B3E" d="M46.4 161.9c-3.2-1-4.9-3.9-6.6-6-.4 3.3-1.8 6-1.8 9.4v.6c0 .6.1 1.3.1 2s0 1.5-.1 2.2c3.3 2.6 6.3 4.6 10.7 5.1.4 0 .9.1 1.3.1 2.6 0 5.4-.7 7.7-1.5h.1c-.4-1.5-1.3-2.9-1.7-4.5-.1-.5-.2-1-.2-1.6 0-1.4.3-3 .4-4.2v-.4c-1.4 0-2.8-.6-4.1-1.5-1.3 1.1-2.7 1.6-4 1.6-3.4 0-6.4-3-8.5-6-.1-.2-.1-.4.1-.6.2-.1.4-.1.6.1 2.1 2.9 5 5.6 7.8 5.6 1.1 0 2.2-.4 3.3-1.2-.2-.1-.4-.3-.5-.4-.6 1.9-3.1 1.7-4.6 1.2zm-9.3 7.7c0-.5.1-1 .1-1.5-.2.6-.2 1.1-.2 1.6 0 0 .1 0 .1-.1zm19.2-7.2s0-.1 0 0c0-.1 0 0 0 0z"/><path fill="#BE6B3E" d="M58 174.6c-.1 0-.1 0 0 0-2.3.8-5.2 1.5-8 1.5-.5 0-1 0-1.4-.1-4.6-.5-7.6-2.6-10.8-5-.1.3-.1.5-.2.8.5.8 1.3 1.5 2.2 2 4.2 2.5 12 2.9 14.8 2.8 1.1 0 2.3-.2 3.4-.4.1 0 .2-.1.3-.1-.2-.5-.2-1-.3-1.5zm42.5-24.7c.4-1.9.7-3.8.7-5.7 0-3.7-.8-7.3-2.6-10.5-.8-1.3-1.7-2.5-2.3-4-.5-1.5-.5-2.3-1.5-3.5-2-2.5-4.9-4.5-7.7-6.1-.1.2-.2.3-.2.5v.2c0 1.3.7 3.1 1 4.6.1.9.2 1.8.2 2.7 0 1.4-.1 2.9-.1 4.2-.1 5.9-2.8 12-5.7 16.9-.1.1-.2.2-.4.2-.1 0-.1 0-.2-.1-.2-.1-.3-.4-.1-.6 2.9-4.9 5.5-10.8 5.6-16.5 0-1.4.1-2.8.1-4.2 0-.9 0-1.7-.2-2.6-.1-1-.6-2.3-.9-3.6-.1.2-.2.4-.4.6-.6.9-1.4 1.8-2.1 2.6 0 .1.1.1.1.2 0 4-.5 7-3.2 10.7-3 4.2-7.9 7.5-9.1 12.2-.3 1.3-.5 2.8-.5 4.3 0 1.7.2 3.5.7 4.9.8 2.7 3.7 5.3 5.6 8.1.1-.2.2-.3.4-.4.3-.2.6-.2.9-.3.6-.1 1.3-.2 1.6-.3.7-.3 1.2-1 2-1.5 1-.6 1.5-.9 2.9-.8.8 0 1.2.1 1.6.3.4.2.6.4 1 .5.8.3 1.6.4 2.4.5.3.1.6.1.9.3.1-.5.4-.8.8-1.1.4-.4 1-.7 1.6-1.2.9-.8 1.8-1.7 2.6-2.6.1-.1.1-.3.2-.4 1.2-2.9 3.1-5.4 4.3-8.5zm-2.3-18.3l-.9-1.8c-.1-.1-.1-.3-.2-.4v.1c.2.7.6 1.4 1.1 2.1zm-6 31.9c-.4.3-.5.5-.5.8v.1c1.2-.6 2.1-1.7 2.9-2.9-.2.2-.5.5-.8.7-.7.6-1.3 1-1.6 1.3z"/><path fill="#BE6B3E" d="M85.3 164.5c1.4-.1 3.2.4 4.7.3h.5c-.2-.1-.5-.2-.8-.2-.7-.1-1.5-.2-2.5-.5-.6-.2-.9-.5-1.1-.6-.3-.1-.5-.2-1.2-.2-1.4 0-1.4.1-2.5.7-.7.4-1.1 1.1-2.1 1.5-.4.2-.9.2-1.4.3-.5.1-.9.1-1 .2l-.1.1c.3.2.7.3 1 .5 1.9-1.7 3.8-1.9 6.5-2.1zm-10 .1c-1.5-1.9-3.2-3.8-4.2-5.8.2.8.5 1.5.8 2.1.8 1.5 2 2.7 3.4 3.7z"/><path fill="#FEEBBC" d="M49.1 30.3c0 .1.1.3.3.4.2.1.5.2.8.2.2 0 .3 0 .4-.1.1-.5.3-1 .4-1.4 0-.1.1-.2.2-.2-.2 0-.4-.1-.6-.1-.5 0-1 .1-1.4.3.1.1.2.3.1.5-.2.2-.2.3-.2.4zm4.1 1.5c-.1.1-.3.1-.4.2h.5c-.1-.1-.1-.2-.1-.2z"/><path fill="#FEEBBC" d="M50 31.8c-.9 0-1.8-.5-2.2-1.5v-.2c-.5.3-.9.6-1.3 1v.3c0 .6.2.9.4 1 .2.2.6.3 1.1.3 1.5 0 3.9-1.1 4.9-1.6-.1-.3-.3-.7-.5-.9-.2 1-1.3 1.6-2.4 1.6zm3.8-.8c.1.4.3.8.4 1.1.3.2.5.4.6.9-.4-1.8-1.6-3.2-2.5-4.7h-1.1c.1 0 .3 0 .4.1 1.2.4 1.8 1.5 2.2 2.6zm19.3 3.9c.1-.1.3-.1.4-.2v-.1c0-.1-.1-.2-.1-.3-.1.1-.2.3-.3.6zm-4.2 1.4c1.4 1.2 4.1 1.2 6.1 1.5 0-.1-.1-.3-.1-.4-.3.1-.6.1-.8.1-1.1 0-2.3-.5-3.4-1-1-.5-1.9-1-2.2-1.1h-.3v.1l.7.8zm4.6-3.3l.2.2v-.1s-.1-.1-.2-.1zm-1.3-.2c-.6 0-1.2.1-1.7.4.1.2.3.7.5 1.2.3.3.6.4.9.5.2-.1.3-.2.4-.4.2-.3.3-.8.3-1.1v-.2c0-.1 0-.2.1-.3-.2-.1-.4-.1-.5-.1z"/><path fill="#FEEBBC" d="M69.4 35c.4.2.9.5 1.4.7 1 .5 2.3 1 3.2 1 .3 0 .6 0 .8-.1 0-.8 0-1.6-.2-2.3-.1.4-.3.7-.6.9-.4.4-1 .6-1.5.6-.2 0-.4 0-.5-.1h-.5c-.4 0-.6-.2-.8-.4-.1-.2-.3-.3-.4-.5-.3-.3-.5-.7-.7-1.2-.4.3-.8.7-1.3 1 .5.1.7.3 1.1.4z"/><path fill="#511B2A" d="M64 67c-.1-.2-.4-.3-.6-.1-.5.3-1 .4-1.6.4h-.5c-.2 0-.4.1-.5.4 0 .2.1.4.4.5h.5c.7 0 1.4-.1 2-.5.3-.2.4-.5.3-.7zm-.4 2.8h-1c-.2 0-.4.2-.4.4s.2.4.4.4h1c.2 0 .4-.2.4-.4 0-.3-.1-.4-.4-.4zm1.8 1.8c-.5.1-.9.2-1.2.5-.2.1-.2.4 0 .6.1.1.2.1.3.1.1 0 .2 0 .3-.1.1-.1.5-.3.8-.3.2 0 .4-.2.3-.5 0-.1-.2-.3-.5-.3zm.8-3.4c-.1.1-.4.3-.7.3-.2 0-.4.2-.4.4s.2.4.4.4c.5 0 1-.2 1.3-.6.2-.2.1-.4 0-.6-.2-.1-.4 0-.6.1zm-18.6-3.4c-.1.2 0 .5.3.5.4.1.8.3 1.1.6.1 0 .2.1.2.1.1 0 .3-.1.3-.2.1-.2.1-.4-.1-.6-.4-.3-.9-.5-1.4-.7-.1 0-.3.1-.4.3zm-.1 2.8c-.1.1-.1.1-.2.1s-.3-.1-.5-.3c-.2-.2-.4-.2-.6 0-.2.2-.2.4 0 .6.3.3.7.5 1.1.5.3 0 .5-.1.7-.3.2-.2.2-.4 0-.6s-.3-.2-.5 0zm-1.1 2.2c-.1 0-.1 0 0 0-.1 0-.1 0 0 0-.6 0-1-.1-1.4-.2-.2-.1-.5.1-.5.3-.1.2.1.5.3.5.5.2 1 .2 1.6.2.2 0 .4-.1.4-.4 0-.2-.2-.4-.4-.4zm-1.7-5.7c.2.5.6.8 1.1.9h.1c.2 0 .4-.1.4-.3.1-.2-.1-.4-.3-.5-.3-.1-.5-.2-.5-.4-.1-.2-.3-.3-.5-.2-.3 0-.4.3-.3.5zm.7-32.6c.1.1.2.1.3.1.1.6.3 1.1.7 1.4.4.4 1 .5 1.6.5 1.6 0 3.6-.8 4.8-1.5.1-.1.3-.1.4-.2 0 .1 0 .1.1.2.2.6.3 1.2.5 1.7-.1.2-.1.4.1.6 0 0 .1.1.1.2v.1l.2.2h.3c.1 0 .2-.1.2-.2v-.2c-.2-.6-.3-1.3-.5-2-.1-.4-.2-.8-.4-1.1-.4-1.1-1-2.2-2.2-2.5-.1 0-.3-.1-.4-.1-.2 0-.5-.1-.7-.1-2 0-4 1.4-5.1 2.6-.2-.2-.2.1 0 .3zm8.5 2.9s0 .1 0 0c0 .1 0 0 0 0zm-1-3.4c-1 .5-3.4 1.6-4.9 1.6-.5 0-.9-.1-1.1-.3-.2-.2-.4-.5-.4-1V31c.4-.3.8-.7 1.3-1v.2c.4 1 1.3 1.5 2.2 1.5 1.1 0 2.2-.6 2.4-1.7.2.3.4.6.5 1zm-3.8-1.6c.5-.2 1-.3 1.4-.3.2 0 .4 0 .6.1-.1.1-.2.1-.2.2-.1.4-.3.9-.4 1.4-.1 0-.3.1-.4.1-.3 0-.6-.1-.8-.2-.2-.1-.3-.3-.3-.4 0-.1 0-.2.1-.3.2-.2.1-.4 0-.6z"/><path fill="#511B2A" d="M99.3 133.4c-.4-.6-.8-1.2-1.1-1.8-.4-.7-.8-1.4-1.1-2.1v-.1c-.5-1.3-.5-2.3-1.6-3.7-.2-.3-.5-.6-.7-.8-2-2.3-4.7-4.1-7.4-5.5.5-1.2.9-2.4 1.2-3.6 1.5-5.1 2.3-11.2 2.3-16.7V99c1.7-1.7 2.7-3.5 3.2-6.6.3-1.9.4-4 .4-6 0-2.8-.2-5.6-.6-8.3l-.3-2.1-.3-2.4c-.3-3.5-.2-7.2-1.4-10.6-.5-1.3-1.1-2.4-1.7-3.4-.3-.5-.6-1-.8-1.4-.5-.8-.8-1.6-1.1-2.4-.2-.6-.3-1.3-.3-2.1 0-.6.1-1.2.2-1.9.2-.9.3-1.7.4-2.5.1-.6.1-1.1.1-1.6 0-1-.2-1.9-.6-2.8.4-.4.7-.7 1-1.2 1-1.4 1.6-3 2.3-4.8.7-1.8 1.6-3.5 3.1-4.8.8-.7 2.9-1.5 3-3.5 0-.3-.1-.7-.2-1.1 0-.1.1-.4.1-.6v-.3h-.2c-1.8-.3-3.7-.7-5.7-1.1.1-.8.2-1.6.2-2.3 0-1.3-.2-2.5-.5-3.7-.7-2-2.1-3.5-3.4-5-1-1.1-1.8-2.3-2.3-3.6-.3-1-.5-1.9-.8-2.7-.3-.8-.8-1.6-1.8-2.4-.4-.3-.8-.5-1.2-.8-1.4-.8-3-1.3-4.5-1.8-4.6-1.4-9.8-1.5-14.7-1.5h-1.6c-5.5 0-10.4 1-15.2 3.5-1.9 1-4.5 2.4-6 4.2-1.8 2.2-2.8 5.5-4 7.9l-.1.1v.5c0 .4-.1.9-.2 1.5-3.3-.2-6.5-.4-9.8-.6h-.3v.4c0 .2.1.4.3.6h.1c-.3 1-.4 2.3-.4 3.3v.2l.2.1c1.1.5 2.2 1 3.5 1.2 1 3.6.3 7.7 3 11 .1.2.3.3.4.5v.1c-.2.1-.3.2-.5.3-.7.5-1.3 1.1-1.7 1.9-.8 1.2-1.3 2.8-1.7 4.4-.6 2.6-.9 5.4-1.1 7.3-.7 6.4.2 12.7-1 18.9h-.1c-.6.4-1.2.8-1.7 1.3-.1.1-.3.2-.4.3-2.7 2.4-5.2 5.8-7.2 8.5-2.7 3.8-4.3 9-5.1 13.5-.4 2.3-.6 4.8-.6 7.2 0 1.7.1 3.4.3 5.1.1 1 .3 2 .5 3 .6 2.9 1.5 5.8 2 8.6.3 1.5.2 3.5.7 5.2.1.3.2.5.3.8.4.8.9 1.4 1.2 1.8.3.5.6.9.6 1.7 0 1.4-.6 3-.6 4.9v.7c.2 2.2 1.3 3.5 1.9 5.4.6 2 1.2 4 1.9 5.9 0 0 0 .1.1.1.5 1.4 1.4 2.7 2.2 4.1 1.1 1.9 2.1 3.7 2 5.6 0 .5-.1.9-.2 1.4-.2.6-.5 1.1-.9 1.6-.6.7-1.4 1.3-2.1 2.1-1.3 1.4-2.3 3-3.6 4.4-1.2 1.3-2.8 2.5-4.1 3.7-1.9 1.7-2.2 3.2-3.2 5.2-.1.1-.1.3 0 .4.1.1.2.2.3.2.4.1.9.2 1.4.3h.1c.2 0 .3-.1.3-.2s.1-.1.1-.2 0-.2-.1-.2c-.1-.1-.2-.2-.3-.1H12c-.2 0-.5-.1-.7-.1.8-1.8 1.2-3 2.8-4.4 1.3-1.2 3-2.4 4.2-3.8 1.3-1.4 2.3-3 3.6-4.4l1.2-1.2c.8-.8 1.7-1.6 2-2.9.1-.5.2-1.1.2-1.6 0-2.4-1.2-4.5-2.4-6.5-.7-1.3-1.5-2.5-1.9-3.6-.7-1.9-1.3-3.9-1.9-5.9-.6-2.1-1.7-3.3-1.9-5.2v-.6c0-1.6.6-3.2.6-4.9 0-1-.3-1.6-.7-2.2-.4-.5-.8-1-1.2-1.7-.5-1-.6-2.2-.7-3.5-.1-.8-.1-1.5-.3-2.3-.3-1.7-.7-3.4-1.2-5.2-.3-1.1-.6-2.3-.8-3.4-.6-2.5-.8-5.3-.8-8 0-2.4.2-4.8.6-7.1.8-4.4 2.4-9.6 5-13.2 2.3-3.1 5.3-7.3 8.5-9.5v.2C25 77.8 25 83.8 22 88.4c-.7 1.2-2.3 2.5-2.4 4.4 0 .4.1.7.2 1.1.4.9 1.4 2 2.5 3s2.3 2 2.9 2.5c2.4 2.2 5.3 4 8.3 4.7 1.1.3 2.2.5 3.2.5 3.7 0 7-2 8.5-7.1 1-3.3.8-7 1.6-10.2.6-2.8.3-7 1.8-9 1.6-.2 3.3-1.2 3.7-2.9.8-.1 1.5-.2 2.3-.3.1.2.3.4.5.6v.1c0 2.6.4 5.3.4 8 0 .9 0 1.8-.2 2.6-.2 1.6-.9 2.5-1.8 3.1-1 .6-2.3 1-3.8 1.5-.2.1-.3.3-.3.5.1.2.2.3.4.3h.1c.8-.3 1.5-.5 2.2-.8-1.7 3-4.1 5.8-6 8.9-2.2 3.5-4.2 6.6-8 8.2-.2.1-.3.3-.2.5.1.2.3.3.5.2 4.1-1.7 6.2-5 8.4-8.5 1.7-2.7 3.8-5.2 5.4-7.9v.5c0 2.3-.2 4.5-.2 6.7 0 4 .9 7.8 6.1 9.9h.2c.2 0 .3-.1.4-.3.1-.2 0-.5-.2-.5-4.8-2.1-5.6-5.2-5.6-9.2 0-2.1.2-4.3.2-6.7 0-.6 0-1.3-.1-1.9 0-.1-.1-.2-.1-.3.3-.2.6-.3.9-.5.6-.4 1.2-1 1.5-1.7.3 1 1 1.9 1.9 2.6 1.2 1 2.6 1.7 3.9 1.7.2 0 .4-.2.4-.4s-.2-.4-.4-.4H61c-1 0-2.3-.6-3.4-1.5s-1.8-2.1-1.8-3.1c0-.1 0-.2-.1-.3.1-.2.1-.5.1-.7.1-.9.2-1.8.2-2.7 0-2.5-.3-5-.4-7.5.6.4 1.3.8 2 1.1 1.7.8 3.7 1.4 5.3 1.4.7 0 1.4-.1 1.9-.4.5-.3.9-.9.9-1.6 0-.2 0-.4-.1-.6.7-.3 1.3-.7 1.9-1.1-.5 1.2-.6 2.9-.8 4.5-.1.8-.1 1.5-.3 2.2-.4 2.3-1.2 4.5-1.5 7 0 .3-.1.7-.1 1.1v.9c-.1 0-.2.1-.3.2 0 .1-.1.1-.1.2-1.6 2.3-3.8 4.7-6.9 4.7H57c-.2 0-.4.2-.5.4 0 .2.2.4.4.5h.6c3.1 0 5.3-2.1 6.9-4.2.2-.2.3-.5.5-.7.4 3 1.5 6.2 2.4 8.5 1 2.4 2.8 5.1 5.1 6.8 1.2.9 2.6 1.6 4.1 1.8.3 0 .6.1.8.1 2.1 0 3.9-1 5.5-2.4 1.9-1.6 3.4-3.5 4.9-4.9.7-.6 1.4-1.2 1.9-1.8-.1 5.2-.8 10.9-2.3 15.7-.4 1.2-.7 2.4-1.2 3.5-.1-.1-.2-.1-.3-.2-.2-.1-.5 0-.6.2-.1.2 0 .5.2.6.1 0 .1.1.2.1-.1.2-.2.5-.2.8-.3.6-.6 1.1-1 1.7-1 1.6-2.8 3.2-3.8 4.8-.1.2-.1.5.1.6.1 0 .1.1.2.1s.3-.1.4-.2c.2-.4.5-.8.9-1.2-.1 3.6-.6 6.1-3 9.5-2.8 4-7.9 7.3-9.3 12.5-.2.8-.4 1.7-.4 2.6-.1.6-.1 1.2-.1 1.8 0 1.8.2 3.6.7 5.2.1.4.3.7.4 1.1 1 2.1 2.7 3.9 4.2 5.8.6.7 1.1 1.4 1.5 2.1.2.3.2.6.2 1 0 .2.2.5.4.7v.3c0 .1.1.1.1.1v.1l.1.1.1.1.1.1c0 .1.1.1.2.2s.8.5 1.3.8v.2c0 .1.1.2.2.3 0 .4.1.7.4 1v.1c0 .2.1.2.1.2 0 .1.1.1.1.2l.1.1v.3c-.1.1-.1.2-.1.3 0 .3.2.5.2.7-.2 0-.2.2-.3.2v.2c0 .2.1.3.1.3l.1.1c.1 0 .1.1.2.1 0 .1-.1.1-.1.2-.1.1-.1.2-.1.3 0 .2.1.4.2.5 0 0 0 .1.1.1 0 .1.1.1.2.1l-.2.2c-.1.2-.1.4 0 .5-.1 0-.2.1-.2.2-.4.6-.7.8-1.3.8-.5 0-1.2-.2-1.8-.5-.1-.2-.2-.5-.3-.7-.2-.3-.5-.6-.9-.7-.2-.2-.4-.4-.7-.6-.2-.1-.5-.1-.6.1-.1.2-.1.5.1.6l.3.3c-.1.1-.1.2-.2.3-.4-.1-.7-.1-1.1-.1-.8 0-1.5.1-2.3.2 0-.4-.1-.7-.3-1-.2-.4-.7-.6-1.2-.6-.2 0-.3 0-.5.1-.1 0-.3.1-.3.3-.1.2-.1.3-.1.4-.1 0-.2-.1-.3-.1-.2-.1-.5.1-.5.3-.1.2.1.5.3.5.2.1.5.2.7.4-1.2.1-2.4.1-3.5.3-.3 0-.5.1-.8.2 0-.4-.1-.8-.4-1.1-.3-.4-.7-.6-1.3-.6-.2 0-.5 0-.7.1-.1 0-.2.1-.3.3v.2c-.1-.1-.2-.2-.3-.4-.1-.2-.4-.2-.6-.1-.2.1-.2.4-.1.6.4.6.9 1 1.3 1.4 0 .1.1.1.1.2h-.2c-.5.1-1 .2-1.5.2h-.6c-.8-.2-1.2-.5-1.4-1 0 0-.1-.1-.1-.2-.1-.2-.2-.5-.3-.9-.1-.4-.2-.9-.3-1.5-.4-2-1.5-3.6-1.8-5.2-.1-.4-.1-.9-.1-1.4v-.4c0-1.2.3-2.6.3-3.7v-1c0-1-.1-1.9-.1-2.8 0-.5 0-1 .1-1.6.2-2.5.3-5.4 1.6-7.4.7-1.1 1.6-2.2 2.5-3.2 1.2-1.3 2.4-2.5 3.5-4 .1-.2.2-.3.3-.5.3-.4.6-.9.9-1.3 1.5-2 3.1-4.2 4.2-6.4.5-1.2.7-2.6 1-4 .2-1 .4-1.9.7-2.6h.1c.2 0 .4-.2.4-.4v-.5c0-.2-.1-.3-.3-.4-.2-.1-.4 0-.5.1-.7 1-1 2.3-1.2 3.7-.2 1.4-.4 2.8-.9 3.8-.7 1.5-1.7 3-2.7 4.4-.8 1.1-1.6 2.2-2.3 3.2-1.9 2.8-4.6 4.7-6.4 7.7-1.5 2.3-1.4 5.3-1.7 7.7-.1.5-.1 1.1-.1 1.6v2.6c-1.2 0-2.4-.5-3.5-1.3 0-.1 0-.2-.1-.3-.1-.1-.3-.2-.4-.1-1.6-1.2-3.2-2.6-4.4-3.5-.2-.1-.5-.1-.6.1-.1.2-.1.4.1.6 1 .7 2.2 1.9 3.7 2.9.2.1.4.3.5.4-1.1.9-2.2 1.2-3.3 1.2-2.9 0-5.8-2.7-7.8-5.6-.1-.2-.4-.2-.6-.1-.2.1-.2.4-.1.6 2.2 3 5.1 5.9 8.5 6 1.3 0 2.7-.5 4-1.6 1.3.8 2.6 1.4 4.1 1.5v.4c-.1 1.2-.4 2.7-.4 4.2 0 .5 0 1.1.2 1.6.4 1.6 1.2 3 1.7 4.5h-.1c-2.2.7-5.1 1.5-7.7 1.5-.5 0-.9 0-1.3-.1-4.5-.5-7.4-2.6-10.7-5.1.1-.8.1-1.5.1-2.2 0-.7 0-1.4-.1-2v-.6c0-3.3 1.4-6 1.8-9.4 0-.3.1-.6.1-.9v-.9c0-4.6-1.8-7.7-5.1-11-.9-.9-1.6-1.8-2.2-2.6-1.2-1.7-2-3.4-2.4-5.4-.3-1.5-.5-3.2-.5-5.1 0-.2-.2-.4-.4-.4s-.4.2-.4.4c0 1.4.1 2.8.3 4 .5 3.1 1.6 5.6 3.8 8.2.4.5.8.9 1.3 1.4 3.3 3.3 4.9 6 4.9 10.4v.9c-.2 3.5-1.9 6.4-1.9 10.3v.6c0 .6.1 1.3.1 2v.2c0 .5 0 1-.1 1.5h-.2c-.1 0-.1.1-.1.1-.1.2-.1.4.1.6l.1.1c-.3 1.8-.9 3.4-2.4 4.5-1.7 1.4-4.4 2.2-6.8 2.2-.8 0-1.6-.1-2.4-.3 0-.2-.2-.4-.4-.4h-.1c.2-.1.4-.1.6-.2.1 0 .2-.1.2-.2v-.3c-.4-.8-1-1.8-2.1-1.9 0 0 .1 0 .1-.1.2-.1.3-.4.2-.6s-.4-.3-.6-.2c-.9.5-1.8 1.8-2.2 3.1-.1.1-.1.2-.2.2-.1.2-.2.4-.2.7 0 .2.1.3.2.4h.1c0 .2.1.3.2.5.1.1.2.2.3.2h.1c.1 0 .2 0 .3-.1.6-.5 1.1-.8 1.7-1.1 0 .1.1.2.1.2 0 .1.1.1.2.2 1.1.5 2.4.7 3.8.7.6 0 1.2 0 1.8-.1 2.1-.3 4.1-1 5.5-2.2 1.3-1 2-2.4 2.4-3.8.1-.3.1-.5.2-.8 3.2 2.4 6.3 4.5 10.8 5 .5.1.9.1 1.4.1 2.8 0 5.7-.8 7.9-1.5h.1l.3 1.5c0 .1 0 .2.1.3.1.2.1.4.2.6.3.8 1 1.4 2.1 1.6.2 0 .5.1.7.1.7 0 1.4-.2 2-.3 0 .2.1.3.1.5v.1c0 .1.1.3.2.4.1 0 .1.1.2.1h.2c.7-.3 1-1 1.2-1.6.3-.1.7-.2.9-.2.2 0 .4-.1.6-.1 1.1-.1 2.2-.1 3.3-.2.1.3.2.6.2 1v.1c0 .2.1.3.3.4h.2c.1 0 .2 0 .3-.1.4-.4.6-1 .7-1.6.8-.1 1.4-.2 2-.2h.4c.3 0 .7 0 1 .1.1.1.1.1.2.1h.2c.2 0 .3.1.5.2h.1c.1.4.1.8.1 1.2v.3c0 .2.1.3.3.4h.1c.1 0 .3-.1.3-.2.3-.4.4-.8.4-1.2.5.2 1.1.4 1.7.4.5 0 1-.1 1.4-.5l.3-.3c.1.1.3.2.5.1s.3-.2.3-.4v-.2c0-.2 0-.1.2-.4.1-.1.1-.2 0-.4 0-.1-.1-.1-.1-.2.2-.1.2-.4.1-.5 0-.1.1-.2.1-.3 0-.1 0-.3-.1-.4-.1 0-.1-.1-.2-.1 0 0 .1-.1.1-.2v-.5c0-.1 0-.1-.1-.1 0 0-.1 0-.1-.1v-.5c.1-.1.1-.2.1-.3h.1c.3 0 1.7.2 2.1.4h.2c.2 0 .3-.1.4-.2.1-.2 0-.5-.2-.6-.7-.3-2.1-.4-2.5-.5h-.1c-.1 0-.2.1-.3.1v-.3c-.1-.3-.1-.3-.1-.6 0-.1 0-.2-.1-.2 0-.1-.1-.1-.1-.1-.3-.2-.3-.3-.3-.5s.1-.4.2-.7c0-.1.1-.1.1-.2.1-.2 0-.4-.2-.5-.2-.1-.4 0-.6.2 0 0 0 .1-.1.1-.2-.1-.6-.3-.8-.5-.3-.2-.5-.3-.6-.4.1-.1.2-.2.2-.4s-.1-.3-.3-.4c-.6-.2-.5-.2-.6-.4 0-.2 0-.5-.2-1 .1-.1.1-.2.1-.4v-.1c0-.1 0-.1.1-.1.2-.1.6-.2 1-.2.5-.1.9-.1 1.4-.3 1-.5 1.5-1.2 2.1-1.5 1.1-.6 1.1-.7 2.5-.7.7 0 .9.1 1.2.2.3.1.6.4 1.1.6 1 .4 1.8.4 2.5.5.3.1.5.1.8.2.1.1.3.1.4.2 0 .1.1.2.1.3l.3.6c.3.4.5.8.8 1.1.2.8.3 1.7.8 2.5-.1 0-.1-.1-.2-.1h-.3c-.1.1-.2.2-.2.3v.1s-.1 0-.1.1c-.2.2-.3.5-.3.7v.2c-.1-.1-.2-.3-.3-.4-.1-.2-.4-.2-.6-.1-.2.1-.2.4-.1.6.1.2.3.4.4.6h-.1c-.2.1-.3.2-.5.3-.4-.2-.6-.5-.8-1-.2-.6-.3-1.3-.3-2.1 0-1.2.1-2.4.2-3.3 0-.2-.2-.4-.4-.4s-.4.2-.4.4c0 .8-.1 2.1-.2 3.3 0 .8.1 1.7.3 2.4.1.4.3.7.6 1-.5.1-1.1.2-1.6.2h-.4v-.7c0-.7-.1-1.4-.3-2.1-.1-.1-.2-.3-.3-.3h-.4c-.6 0-1.2.1-1.7.4-.1.1-.3.1-.4.2-.3-.8-.5-1.8-.4-2.8v-.6c0-.2-.2-.4-.4-.4s-.4.2-.4.4v.6c0 1.1.1 2.5.7 3.5 0 .1-.1.2-.1.3-.2.1-.3.4-.1.6.2.3.4 1.1.8 1.8.1.1.1.2.2.3.4.6.9 1.2 1.7 1.4h.1c.1 0 .3-.1.4-.2.2-.3.3-.6.4-1 .1-.2.1-.4.2-.7h.6c.9 0 1.8-.1 2.6-.4h.1c.1 0 .3-.1.4-.2.2-.1.3-.2.5-.3.1.4.2.8.2 1.2v.3c0 .1 0 .2.1.3.1.1.2.1.3.1.6 0 1.1-.3 1.4-.8.3-.5.4-1 .4-1.6 0-.5-.1-1.1-.4-1.5.2-.1.3-.2.3-.4v-.4c0-.9-.2-1.5-.5-2-.1-.1-.1-.2-.2-.3-.1-.2-.3-.4-.5-.6-.2-.5-.4-1-.7-1.5-.2-.2-.4-.4-.5-.6v-.2c0-.3.1-.5.5-.8.4-.3 1-.7 1.6-1.3.3-.2.5-.5.8-.7 2.7-2.6 5-5.6 6.2-9.3.8-2.6 1.3-5.3 1.3-8 .8-3.3 0-7.1-1.9-10.4zM80.5 49.1c0 4.7-.2 9.2-2.4 13.3-1.4 2.8-4.1 6.8-7.1 8.6-.3.2-.7.4-1 .5 0-.3.1-.5.1-.8 0-1.9-1.1-3.5-1.6-5.2.7.2 1.4.5 2.1.8.9.3 1.7.7 2.6.9h.1c.2 0 .3-.1.4-.3.1-.2-.1-.5-.3-.5-1-.3-2.1-.7-3.2-1.2-.6-.2-1.3-.5-2-.7-.1-.5-.1-1-.1-1.5h1.5c1 0 2.2 0 3.2.2 1 .1 1.7.4 1.8.7.1.1.2.2.4.2.1 0 .2 0 .2-.1.2-.1.3-.4.1-.6-.5-.7-1.4-.9-2.4-1.1-1-.2-2.2-.2-3.3-.2H68c0-.4.1-.8.1-1.1 0-.1 0-.2.1-.3 2.7.1 5.2.7 7.8 1h.1c.2 0 .4-.2.4-.4s-.1-.4-.4-.5c-2.5-.3-5-.9-7.6-1 .6-1.4 1.5-2.7 2.9-4.4 2.3-2.9 3.8-5.6 4.7-9.1v-.1c1.3.3 2.7.4 4.4.4v2.5zm-36.3 5.2c-.2-.6-.4-1.1-.7-1.7-1.5-2.8-1.9-6.2-1.9-9.9V42c.5.1.9.1 1.4.2 1.3.2 2.5.3 3.7.3h1.2c-.2.3-.5.6-.7.9-.8 1.2-1.4 2.5-1.9 4.2-.5 1.8-1 3.8-1.1 5.7v1zm-.9 9c-.2-.3-.5-.6-.7-.9-.2-.2-.4-.5-.6-.7.3-.2.7-.4 1-.6.3-.1.5-.2.8-.3-.1.8-.3 1.6-.5 2.5zM32.4 37.2c-2.6-3-1.9-7.1-3-10.9v-.2h-.2c-1.1-.2-2.2-.7-3.3-1.2.1-1.1.1-2.4.5-3.2l.1-.2c6.5.3 12.9.8 19.2 1.5 4.9.5 6.7 2.5 10.7 4.9 1.6 1 3 1.3 4.3 1.3 2.6 0 4.9-1.4 7.7-2.3 2.3-.8 4.7-1.1 7.3-1.1 7 0 14.7 2.2 20.9 3.2v.6c.1.3.2.6.2.9 0 1.4-1.8 2.2-2.8 3-1.6 1.4-2.5 3.1-3.2 5-1.6 4.1-2.9 7.3-7.8 7.6-.8 0-1.5.1-2.2.1-3.8 0-5.8-.6-9.7-1.8-3.9-1.2-6.5-6.3-7.2-10.2V34h-.2c-1-.2-1.9-.2-2.6-.2-1.7 0-2.7.5-3.6 1.4-.9.9-1.6 2.1-3.1 3.5-2.6 2.5-4.9 3.4-7.9 3.4-1.1 0-2.3-.1-3.6-.3-4.2-.7-7.6-1.2-10.5-4.6zm30.9-22c3.7-.4 7.5-1.3 11.1-1.3 1.7 0 3.3.2 4.9.7 3.6 1.1 7.4 3.3 8.6 6.9.4 1.3.7 2.9.7 4.6v.8c-3.1-.6-6.4-1.2-9.6-1.5-.7-.8-1.5-1.5-2.4-2.3-1.7-1.3-3.4-2.3-5.2-3-2.5-1-5.1-1.4-7.7-1.5v-.4h-.8v.3c-.7 0-1.5 0-2.2.1v-.3c-.3 0-.6.1-.8.1v.2c-1.1.1-2.2.3-3.3.5-3.5.7-6.9 1.8-10.2 3-.1 0-.3 0-.4-.1-.2 0-.4 0-.7-.1 2.6-1.8 5.2-3.7 7.9-4.7 3.1-.9 6.6-1.6 10.1-2zm-14.2 7.7c.1.2.4.2.6.1.7-.6 2.5-1 4.1-1 1 0 2 .2 2.5.5 1.6.9 1.7 2.9 1.7 4.8v.4c0 .2.2.4.4.4s.4-.2.4-.4v-.4c0-1.9 0-4.3-2.1-5.5-.7-.4-1.8-.6-2.9-.6-.5 0-.9 0-1.4.1 2.5-.7 4.9-1.3 7.4-1.5 0 .5.1.9.1 1.3v.4c-.2 2.3-.5 4.7-1.1 6.9-.6-.2-1.3-.5-2-.9-.6-.4-1.2-.8-1.8-1.1v-.7c-.1-.5-.2-.9-.5-1.3s-.9-.6-1.6-.7h-.4c-.5 0-1 .1-1.5.3-.9-.4-1.9-.8-3-1.1.5-.2 1-.3 1.5-.5-.1 0-.2.1-.2.1-.3-.1-.3.2-.2.4zm12.7-3.4h1.1c.1.3.2.5.5.7v.5c0 .7.1 1.2.1 1.7 0 .8-.1 1.5-.3 2.6-.3 1.1-.4 2.2-.6 3.4-.6.1-1.2.2-1.8.2-.4 0-.8 0-1.2-.1.1-.3.1-.6.2-.9.4-2 .7-4.1.9-6.1v-.4c0-.4 0-.9-.1-1.4h.6c.3-.2.5-.2.6-.2zm16 5.8c-.6 0-1.3-.1-1.9-.1h-1c-1-1-2.3-1.7-3.8-1.7-.3 0-.6 0-.9.1-1.9.3-4.2 1.9-5.1 4-.1 0-.1 0-.2.1-.1 0-.2.1-.3.1-.4.1-.7.3-1 .4.1-1 .3-2 .5-3 .3-1.1.4-1.9.4-2.8v-1c0-.4-.1-.9-.1-1.5 0-.2-.1-.3-.3-.4 0 0-.1 0-.1-.1 4.3.1 8.5 1.3 12.2 4.3.5.6 1.1 1.1 1.6 1.6zm-4.2 0c-1.8.1-3.6.4-5.3 1-.8.3-1.5.5-2.2.8 1-1.4 2.7-2.5 4-2.7.3 0 .5-.1.8-.1 1.1.1 1.9.4 2.7 1zm-19.5.3c-.7-.5-1.4-.9-2.1-1.3h.7c.6.1.9.3 1.1.5.2.2.3.5.3.8zM40.7 42v.8c0 3.7.4 7.3 2 10.3.8 1.5 1.1 2.9 1.2 4.4-1.6.1-3.1.5-4.5.8-1.2-1.7-2.2-3.5-3-5.3-.5-1.2-.7-2.2-.7-3.3 0-1.2.2-2.3.4-3.8.2-1.6.4-3.1.9-4.7 1.3.3 2.5.6 3.7.8zm3.1 16.3c0 .1.1.2.2.3 0 .4 0 .8-.1 1.2-.2.1-.3.1-.5.2-.6.3-1.3.6-2 1-.5-.7-1-1.3-1.5-2 1.4-.3 2.6-.6 3.9-.7zm18.9-21.8l.3-2.1c.2 0 .3 0 .5.1.7 4 3.3 9.1 7.5 10.5 1.7.5 3 .9 4.3 1.2v.1c-.9 3.4-2.3 6-4.6 8.8-1 1.3-1.9 2.4-2.5 3.6 0-1.3.1-2.8.1-4.2 0-1.8-.1-3.6-.5-5.3-.5-1.8-1.8-3.1-3.1-4.3-1.3-1.2-2.6-2.4-3-3.8-.1-.2-.1-.5-.1-.7 0-1.2.8-2.4 1.1-3.9zm34.7-7l-.3.1.3-.1zm-57-17.6c1.1-1.3 2.8-2.4 4.5-3.3.4-.2.9-.5 1.3-.7 4.7-2.5 9.4-3.4 14.8-3.4h3.4c3.5 0 7.1.2 10.4.8.8.2 1.6.3 2.3.6 1.9.6 3.9 1.3 5.4 2.4.9.7 1.2 1.3 1.5 2 .3.7.4 1.6.8 2.7 1.2 3.5 4.7 5.5 5.6 8.6.2.7.4 1.4.4 2.2 0 .4.1.8.1 1.3 0 .7-.1 1.5-.2 2.2-.1 0-.2 0-.3-.1-.4-.1-.7-.1-1.1-.2v-.9c0-1.7-.3-3.5-.7-4.9-1.3-4-5.4-6.2-9.1-7.4-1.7-.5-3.4-.7-5.2-.7-3.8 0-7.6.9-11.2 1.3-3.5.4-7.1 1-10.4 2.3-3.1 1.2-6.1 3.4-8.8 5.4-2.5-.2-5-.5-7.5-.7.1-.5.2-1.1.2-1.5v-.4c.9-1.8 1.6-4 2.6-5.8l1.2-1.8zM22.9 96.1c-1.1-1-2.1-2-2.3-2.7-.1-.3-.2-.5-.2-.8 0-1.3 1.4-2.6 2.2-3.9 3.1-5 3-11 4.3-16.4 1.6-6.9.5-13.6 1.3-20.3.2-1.9.5-4.6 1.1-7.2.6-2.5 1.6-4.8 3.1-5.8.2-.1.4-.3.7-.4 1.1 1 2.2 1.7 3.4 2.2-.5 1.6-.7 3.2-.9 4.9-.2 1.5-.4 2.7-.4 3.9 0 1.1.2 2.3.7 3.6.7 1.8 1.7 3.5 2.8 5.2-.6.1-1.3.2-1.9.3-.2 0-.4.2-.4.4s.2.4.4.4l2.4-.3c.5.8 1.1 1.5 1.7 2.2-2.2 1.5-4.3 3.5-5.1 5.7-.1.2 0 .5.2.5h.1c.2 0 .3-.1.4-.3.7-1.9 2.7-3.9 4.8-5.3.3.4.6.8 1 1.2.3.3.5.7.8 1-.1 0-.3 0-.4.1-.3.3-.6.5-1 .8-1.2.8-2.7 1.4-3.8 2.6-.2.2-.1.4 0 .6.1.1.2.1.3.1.1 0 .2 0 .3-.1.7-.8 1.8-1.4 2.9-2 .5-.3.9-.6 1.4-.9-.5 2-1 4-1 6.1v.7c0 .4 0 .8.1 1.3 0 .1.1.3.2.3.8.4 1.5.8 2.4.9h.1v.2c-.1.2-.1.5-.1.7 0 .9.4 1.6 1.1 2 .6.4 1.3.6 2.1.6-.7 1.3-1 2.9-1.1 4.5-.1 1.5-.2 2.9-.4 4.1 0 .1 0 .2-.1.2-.8 3.3-.6 7-1.5 10.2-1.4 4.8-4.3 6.5-7.7 6.5-3.6 0-7.8-2.1-10.9-5-.9-.7-2-1.6-3.1-2.6zm25.7-18.8c-.2-.1-.4-.1-.5.1h-.4c-.7 0-1.4-.2-1.8-.5-.5-.3-.7-.7-.7-1.3 0-.2 0-.3.1-.5v-.3h.1c.1 0 .2-.1.3-.2h.1c.7 0 1.2-.3 1.5-.7.3.4.8.8 1.3 1 .8.4 1.8.5 2.8.5h.1c-.5 1-1.7 1.7-2.9 1.9zm.4-19.5s0-.1 0 0c.2.6.6 1.3 1.1 1.9.1.2.2.3.3.4l-.1-.1c-.1-.1-.3-.1-.5 0-.3-.6-.6-1.3-.8-2.2zm6.5 1.9c-.1 0-.1-.1-.2-.1h-.1c0-.1.1-.3.1-.4v-.4c0-.8-.3-1.5-.9-1.9-.1-.1-.2-.1-.3-.2.6 0 1.1-.2 1.7-.4-.3.3-.6.7-.7 1.3 0 .1 0 .3.1.4.1.1.2.1.4.1s.3-.1.5-.2c-.2.5-.5 1.1-.6 1.8zm.2 1.2c0 .1 0 .1-.1.2.1-.1.1-.2.1-.2 0-.1 0 0 0 0zm-1.8.1c.4-.1.7-.3.9-.6v.4c0 .5-.1.9-.2 1.4v.1c-.1-.5-.4-1-.7-1.3zm.3 2.4c0 .1-.1.1-.1.2v-.3c0 .1 0 .1.1.1zm-1-.1c-.1-.2-.3-.4-.4-.6.1.1.3.1.4.2v.4zm-.2-2.1c.1.2.1.5.1.7-.2-.1-.3-.2-.5-.3v-.1c.1-.2 0-.4-.2-.5-.1 0-.2-.1-.4-.3l.9.3c.1.1.1.1.1.2zm-.1-5.3c-.1.1-.2.2-.1.4v.1h-.3c-.4 0-.9.1-1.3.2l2-1c0 .1-.2.2-.3.3zm-3.2 1.3c0-.2-.1-.3-.1-.5 0-.3 0-.4.2-.5v.3c0 .1.1.2.1.3 0 .1 0 .2-.1.2.1.1 0 .2-.1.2zm.5-2.9c.2-.1.4-.1.6-.2-.5.2-.9.5-1.3.7.1-.1.1-.2.2-.3.1 0 .3-.1.5-.2zm.1 1.1s-.1 0 0 0c-.1 0-.1 0 0 0-.1 0-.1 0 0 0zm.4 2.2c.5-.3 1.2-.4 1.8-.4.6 0 1.1.1 1.4.4.3.3.5.6.5 1.2v.3c-.1.9-.5 1.1-1.1 1.1-.4 0-.8-.1-1.1-.4-.3-.2-.5-.5-.5-.7 0-.1 0-.2.1-.2.1-.2 0-.5-.2-.5-.2-.1-.5 0-.5.2-.1.2-.1.4-.1.6v.3c-.2-.5-.4-1.1-.4-1.6.1-.2.1-.2.1-.3zm3.6-1.7c.7-.5 1.4-.8 2.2-.9.2 0 .4-.2.3-.5 0-.2-.2-.4-.4-.4-2 0-3.3.5-4.7 1.3h-.1c-.2 0-.3.1-.4.1.3-.3.7-.6 1.1-.8.8-.4 1.7-.7 2.4-.8.9 0 1.7.1 2.5.1 0 .1.1.2.2.2.2.1.5.2.7.3-1.2.4-2.6 1.2-3.8 1.4zm2.4 4.3zm-.9-7.5c0 .1 0 .2.1.3-.5 0-.9 0-1.4-.1.3-.1.8-.2 1.3-.2zm3 2.1c.1 0 .3.1.4.1-.2.1-.3.2-.4.3v-.4zm2.1-1.1c.3 0 .6 0 .8.1-.1.1-.1.1-.1.2-.1 0-.2-.1-.3-.1-.2 0-.3-.1-.4-.2zm-1.4 2.1s.1 0 .1.1c-.2.2-.4.3-.6.5v-.3c.2-.2.3-.3.5-.3 0-.1 0 0 0 0zm-1.7 3.8c.1-.2.1-.4.2-.6 0 .4-.1.8-.1 1.3 0-.2-.1-.4-.1-.5-.1-.1-.1-.2 0-.2zm2.9-3.4c.1 0 .3.1.4.1.3.2.7.5 1 .7-.2 0-.5-.1-.7-.1-.8 0-1.5.2-2.1.6.4-.4.9-.9 1.4-1.3zm1.7-1.8h.1c.4 0 .9.2 1.4.6.1.2.3.3.4.5 0 0 0 .1.1.1l-.1-.1c-.6-.4-1.3-.8-1.9-1.1zm-2.1-1c-.5-.2-1-.4-1.4-.6l1.5.3c0 .1-.1.1-.1.2v.1zm-1.9 8.4c.1-.1.2-.2.2-.4v-.5l.3.3c.3.3.7.5 1.2.6-.6.2-1.3.3-1.9.6.1-.2.1-.4.2-.6zm4.4-2.5c-.2-.2-.5-.2-.8-.2-.2 0-.4 0-.6.1-.2 0-.4.3-.3.5 0 .2.3.4.5.3.2 0 .3-.1.4-.1h.2c0 .1-.1.4-.4.6-.3.2-.6.4-1 .5h-.3c-1 0-1.5-.5-1.6-1.5 0-.6.3-1 .7-1.3.4-.3 1.1-.5 1.7-.5 1 0 1.8.4 2 1.1.1.2.3.3.5.2.2-.1.3-.3.2-.5-.1-.2-.2-.3-.3-.5.1 0 .2 0 .3-.1.1-.1.2-.2.2-.4v-.1c.2.3.2.6.2.9 0 .5-.2 1-.8 1.6-.4.4-.8.7-1.2.9.3-.3.5-.6.5-1 .2-.1.1-.4-.1-.5zm1.7-3.5zm-7.7 5.3c0 .2.1.4.1.5-.1.1-.1.2-.2.2 0-.2 0-.5.1-.7zm3.6 1.5c1.3-.3 2.8-.7 4.1-2 .4-.4.6-.8.8-1.2v.5c0 .1.1.2.2.2-.4.5-.8.9-1.4 1.2-1.3.8-2.9 1.4-4.3 1.8-.6.2-1.4.4-2.1.6.7-.6 1.7-.9 2.7-1.1zm5.7-3.7c0-.6-.1-1.2-.2-1.7.1 0 .1-.1.1-.1.1.4.2.8.2 1.1 0 .2 0 .5-.1.7zM52.5 53s-.1.1-.1.2c-.4 0-.7.1-1.1.1.5-.2 1-.4 1.6-.6-.2 0-.3.1-.4.3zm2.1 11.4c.1.1.1.1.2.1h.2c.1 0 .3 0 .4-.1.6-.7 1.3-1.4 2-2.1-.2.5-.6 1-1 1.6-.1.1-.1.2-.1.3-.4.2-.9.4-1.3.6-.3.2-.5.3-.7.5-.1-.1-.1-.2-.2-.3.2-.2.3-.4.5-.6zm-.2 5.6c1.5.1 3.9.5 4.7 1.5.4.5.5 1 .5 1.6v.1c-1 .2-2.8.6-4.6 1-.1-.2-.3-.2-.5-.2-.1 0-.2.2-.3.3-1 .2-2.1.3-3 .3-1 0-1.8-.1-2.5-.4-.5-.2-.9-.6-1.1-1 0-.1 0-.1.1-.2.3-.8.6-1.6 1.1-2 1-.8 2.5-1 4-1 .6-.1 1.1-.1 1.6 0zm10.8 6.8c0 .4-.2.7-.5.9-.3.2-.8.3-1.5.3-1.4 0-3.3-.5-5-1.3-1.2-.5-2.2-1.2-2.8-1.8 1.6-.3 3.1-.7 4.1-.9-.1.5-.1.9-.1 1.4v.6c0 .2.1.3.3.3.9.3 1.9.5 2.9.5.8 0 1.6-.1 2.4-.3.1.1.2.2.2.3zm-2.5-.8c-.8 0-1.6-.1-2.4-.3v-.2c0-.7.2-1.5.2-2.4 0-.7-.2-1.4-.7-2.1-1.2-1.4-3.8-1.7-5.3-1.8h-.1c0-.1.1-.1.1-.2 0-.8-.1-1.3-.1-1.8 0-.8.1-1 1.1-1.7 1.3-.8 3-1.1 4.5-1.5 1.4-.4 3.1-1 4.5-1.9 1.4-.9 2.5-2.1 2.5-3.8 0-.7-.2-1.4-.6-2.2-1.8-3.4-6.7-4.6-10.1-4.6h-.1c-1.9 0-3.9.3-5.5 1.1-.7.3-1.3.8-1.8 1.4-.6.4-1.1 1-1.1 1.8v.3c0 .1.1.2.1.2v.6c0 .4 0 .7.1 1.1.6 3.4 3.1 4.8 4.8 6.9v.4c-.1.2.1.4.3.5h.1c.1 0 .2 0 .2-.1 0 0 0 .1.1.1 0 .1.1.1.1.1-.2.4-.3.8-.3 1.2 0 .5.1 1 .1 1.8v.1h-.8c-1.6 0-3.3.2-4.5 1.2-.8.6-1 1.5-1.3 2.2-.2.1-.3.3-.3.5-.2.5-.5.7-1.1.7h-.3c-.2 0-.3.1-.4.2-.2 0-.5 0-.7-.1-.5-.1-1.1-.4-1.6-.7v-1c0-2.5.7-5 1.3-7.6.2-.1.2-.3.1-.5.5-2 .9-3.9.9-5.9.1-.1.2-.2.2-.4 0-.1 0-.2-.1-.2.1-.5.2-1 .2-1.5 0-.7-.1-1.4-.1-2v-.7c.1-1.1.3-2.2.5-3.3.2-.7.4-1.5.5-2.2.6-2.4 1.6-4.1 3-5.5 2-.4 3.9-1.5 5.8-3.3 1.5-1.5 2.3-2.7 3.1-3.5.8-.8 1.6-1.2 3.2-1.2h.9c0 .7-.1 1.3-.3 2-.3 1.2-1.2 2.5-1.2 4.1 0 .3 0 .6.1.9.1.4.3.8.5 1.2.7 1.2 1.7 2.1 2.7 3 1.3 1.2 2.5 2.4 2.9 3.9.4 1.5.5 3.3.5 5.1 0 1.5-.1 3-.1 4.5v.9h-.2c-.2 0-.4.2-.4.4s.2.4.4.4h.2v.2c-.1.5-.2 1-.2 1.5v.4c0 .5 0 1 .1 1.5-.2 0-.3.1-.3.3-.1.2.1.5.3.5.1 0 .1 0 .2.1.5 2.2 1.7 3.8 1.7 5.5 0 .3 0 .7-.2 1.1-.1 0-.2 0-.2.1-.2 0-.3.2-.3.4 0 .1 0 .3.1.4-.1.1-.1.2-.2.3-.8 2.2-3 3.1-5.3 3.1zM77 107.9c-.6-.1-1.1-.2-1.7-.5-3-1.3-5.6-4.7-6.8-7.6-1.1-2.7-2.5-6.9-2.5-10.1v-1c.2-2.3 1-4.6 1.5-6.9.2-1.2.3-2.7.5-4.1.1-1 .3-1.9.5-2.5.1-.2 0-.5-.2-.5h-.2c.4-.4.7-.8 1-1.3.1-.1.2-.3.2-.4h.1c.2 0 .3-.1.4-.3v-.4c.3-.1.6-.3.9-.4 3.6-1.8 6.5-6.2 8.1-9.2 2.3-4.4 2.5-9 2.5-13.7v-2.3c.6 0 1.1 0 1.8-.1 1.9-.1 3.4-.6 4.5-1.5.3.7.4 1.5.4 2.2 0 1.2-.3 2.5-.6 4-.1.7-.2 1.4-.2 2 0 2 .7 3.5 1.5 4.9.8 1.4 1.8 2.8 2.5 4.8 1.4 4 1 8.5 1.6 12.9.5 3.2.9 6.8.9 10.2 0 2-.1 4-.4 5.9-.6 4.3-2.4 5.7-5.7 8.7-1.4 1.3-2.9 3.1-4.5 4.5s-3.4 2.6-5.3 2.5c-.3.3-.5.3-.8.2zm-53.4 66.7c.5 0 .9.4 1.3 1-.4.1-.8.3-1.2.4h-.1v-.6c-.1-.1 0-.5 0-.8zm-.9.2v.7h-.4c.1-.2.3-.5.4-.7zm48 1c-.2-.1-.4-.2-.5-.3h.1c.3 0 .4.1.4.3.2.1.2.3.3.6h-.2c.2-.3.1-.5-.1-.6zm-7 1.3c.1 0 .2-.1.2-.2.1-.2.1-.5-.1-.6-.1-.1-.3-.2-.4-.2v-.1h.2c.3 0 .5.1.6.3.1.2.2.5.2.8-.2.1-.4.1-.6.2 0-.1 0-.1-.1-.2zm.5 1zm17.3-4.2zm0 0zm-.1 0zm3.9-3.5c.4-.2 1-.3 1.4-.3.1.5.2 1 .2 1.6 0 .6-.1 1.1-.2 1.7h-.1c-.2-.1-.3-.3-.3-.8 0-.2 0-.5.1-.8 0-.2-.1-.4-.3-.5-.2 0-.4.1-.5.2 0-.2-.1-.3-.2-.4-.1-.1-.3-.2-.4-.3 0-.3.1-.3.3-.4zm-.4 1.3v.5c-.1-.2-.2-.5-.3-.7.1 0 .2.1.3.2zm1 2.2c0-.1 0-.1 0 0 .1 0 .1.1.2.1h.2v.1c-.1 0-.2-.1-.4-.2zm6.8-.6c0-.2 0-.4-.1-.6.1-.1.2-.2.2-.3v-1c0-.3.1-.5.1-.8.2.3.4.8.4 1.3 0 .4-.1.8-.3 1.1l-.3.3zm3.1-14.3c-.8.9-1.7 1.8-2.6 2.6-.6.5-1.1.9-1.6 1.2-.4.3-.7.7-.8 1.1l-.9-.3c-.8-.2-1.6-.2-2.4-.5-.5-.2-.7-.4-1-.5-.4-.2-.8-.3-1.6-.3-1.4 0-1.9.2-2.9.8-.9.5-1.3 1.2-2 1.5-.3.1-1 .2-1.6.3-.3.1-.6.1-.9.3-.1.1-.3.2-.4.4-1.9-2.8-4.8-5.4-5.6-8.1-.4-1.4-.7-3.2-.7-4.9 0-1.5.2-3 .5-4.3 1.2-4.7 6.1-8 9.1-12.2 2.7-3.7 3.2-6.6 3.2-10.7 0-.1 0-.2-.1-.2.7-.8 1.5-1.7 2.1-2.6.1-.2.2-.4.4-.6.2 1.3.7 2.5.9 3.6.1.8.2 1.7.2 2.6 0 1.4-.1 2.9-.1 4.2-.1 5.7-2.7 11.6-5.6 16.5-.1.2-.1.5.1.6.1 0 .1.1.2.1s.3-.1.4-.2c2.9-4.9 5.6-11 5.7-16.9 0-1.3.1-2.8.1-4.2 0-.9 0-1.8-.2-2.7-.2-1.5-1-3.3-1-4.6v-.2c.1-.2.2-.3.2-.5 2.9 1.6 5.8 3.6 7.7 6.1 1 1.2.9 2 1.5 3.5.6 1.6 1.5 2.7 2.3 4 1.8 3.1 2.6 6.8 2.6 10.5 0 1.9-.2 3.8-.7 5.7-.2.7-.3 1.4-.6 2.1-.6 2.5-2 4.8-3.9 6.8z"/><path fill="#BDA214" d="M39.2 13.8c-1 1.8-1.8 4-2.6 5.8v.4c0 .5-.1 1-.2 1.5 2.5.2 5 .4 7.5.7 2.8-2 5.8-4.2 8.8-5.4 3.3-1.3 6.9-2 10.4-2.3 3.7-.4 7.4-1.3 11.2-1.3 1.7 0 3.4.2 5.2.7 3.7 1.2 7.8 3.4 9.1 7.4.5 1.4.7 3.1.7 4.9v.9c.4.1.7.1 1.1.2.3-1.1.4-2.3.4-3.4-.1-.8-.2-1.5-.4-2.2-.9-3.1-4.4-5.1-5.6-8.6-.4-1.1-.5-2-.8-2.7-.3-.7-.6-1.3-1.5-2C81 7.2 78.9 6.5 77 5.9c-.8-.2-1.5-.4-2.3-.6-1.9-.2-3.9-.3-5.8-.5-1.5-.1-3-.3-4.6-.4h-3.4c-5.4 0-10.1.9-14.8 3.4-.4.2-.8.5-1.3.7-2.1 1.5-4 3.2-5.6 5.3zm50.3 16.3c-.1 0-.1-.1-.2-.2s-.3-.1-.4-.2c-.2.6-.4 1.2-.7 1.7-.5.9-1.4 2.2-2.3 3.5-.2.2-.4.5-.6.7 1.8-1.4 3.2-3.3 4.2-5.5z"/><path fill="#BDA214" d="M84.7 10c.3.8.4 1.7.8 2.7.4 1.3 1.3 2.5 2.3 3.6-.4-.7-.8-1.4-1-2.2-.4-1.4-.1-3.6-.8-4.9-.7-1.2-2.7-1.8-3.8-2.3-.2.1-.3 0-.5 0 .4.2.8.5 1.2.8 1.1.7 1.6 1.5 1.8 2.3zM44.4 24h-.1c-.4.1-.8.3-1.2.4l.1.1.6-.3c.2 0 .4-.1.6-.2zm8.6-6.5c-2.7 1-5.3 2.9-7.9 4.7.2 0 .4 0 .7.1.1 0 .3 0 .4.1 3.3-1.2 6.8-2.3 10.2-3 1.1-.3 2.2-.5 3.3-.7.3 0 .6-.1.8-.1.7-.1 1.5-.2 2.2-.2h.8c2.6-.1 5 .4 7.2 1.5.1 0 .2.1.2.1.1.1.2.1.4.2 1.8.7 3.5 1.7 5.2 3 .9.7 1.7 1.5 2.4 2.3 3.2.2 6.4.8 9.6 1.5v-.8c0-1.7-.3-3.3-.7-4.6-1.2-3.6-5-5.8-8.6-6.9-1.6-.5-3.3-.7-4.9-.7-3.6 0-7.4.9-11.1 1.3-3.4.3-6.9 1-10.2 2.2zm27.9 10.7c1.3 2.5 1.8 5.2 2 8.3.7-.4 1.5-1.2 2.3-2.2.9-1.2 1.8-2.5 2.3-3.4.3-.5.5-1 .7-1.6-2.2-.8-4.9-.9-7.3-1.1zm-39.1-4.5c-.6-.1-1.2-.1-1.8-.1-1.5 0-2.9.2-4.1.6v.1c0 .2 0 .4.1.5.1.2.3.4.5.6.5.4 1.2.6 1.9.6.9-.2 1.8-.8 2.6-1.2l-.1-.3c.2-.1.4-.1.6-.2l-.2-.3c.2-.1.3-.2.5-.3z"/><path fill="#199E90" d="M97.1 29.6zM43 41.8c1.3.2 2.5.3 3.6.3 3 0 5.2-.9 7.9-3.4 1.5-1.4 2.3-2.6 3.1-3.5.9-.9 1.9-1.4 3.6-1.4.7 0 1.6.1 2.6.2h.2v.2c.6 3.9 3.2 9 7.2 10.2 3.9 1.2 5.9 1.8 9.7 1.8.7 0 1.4 0 2.2-.1 5-.2 6.3-3.5 7.8-7.6.7-1.9 1.6-3.6 3.2-5 1-.8 2.8-1.6 2.8-3 0-.3-.1-.5-.2-.9V29c-6.3-1.1-14-3.2-20.9-3.2-2.6 0-5.1.3-7.3 1.1-2.8.9-5.1 2.3-7.7 2.3-1.3 0-2.8-.4-4.3-1.3-4-2.4-5.8-4.4-10.7-4.9-6.4-.7-12.8-1.1-19.2-1.5l-.1.2c-.4.8-.4 2.1-.5 3.2 1.1.5 2.2 1 3.3 1.2h.2v.2c1.1 3.9.4 7.9 3 10.9 2.8 3.4 6.2 3.9 10.5 4.6zm33.6-14.7c.9 0 1.9.1 2.8.3 3.1.5 7.1.2 10.1 2 1.4.9 2 2.3 2 3.9 0 2.3-1.2 5-2.9 7.2s-3.7 3.9-5.6 4.1c-.8.1-1.9.2-3 .2-5.2 0-12.6-1.3-14-6.4-.2-.7-.3-1.5-.3-2.2 0-2.9 1.3-5.8 3.8-7.2 2.6-1.3 4.7-1.9 7.1-1.9zm-44 8.2c-.9-2.1-1.1-4.5-1.4-7.1l-.1-.6.6.4c.2-1.7 1.1-2.9 2.5-3.7 1.5-.9 3.6-1.3 5.8-1.3 3.6 0 7.8 1 11.1 2.7 3.3 1.7 5.7 4.2 5.7 7.1 0 2-1.1 4.1-3.8 6.2-2.2 1.8-4.7 2.4-7.3 2.4-2.6 0-5.3-.7-7.7-1.5-2.9-.9-4.5-2.5-5.4-4.6z"/><path fill="#511B2A" d="M69.7 29c-2.5 1.4-3.8 4.3-3.8 7.2 0 .8.1 1.5.3 2.2 1.4 5.2 8.8 6.4 14 6.4 1.1 0 2.1-.1 3-.2 1.9-.2 3.9-1.9 5.6-4.1 1.7-2.2 2.9-4.9 2.9-7.2 0-1.6-.6-3-2-3.9-3-1.8-7.1-1.5-10.1-2-1-.2-1.9-.3-2.8-.3-2.6 0-4.7.6-7.1 1.9zm18.6 11.2c-.4.5-.8 1-1.2 1.4-.2.3-.5.5-.8.7-.7-.6-1.1-.9-1.3-1.2-.2-.3-.3-.7-.3-1.4v-.6c0-.5 0-.9-.1-1.3 1-.4 1.9-1.2 2.8-2.1 1.2-1.4 2.3-3 2.9-4.2.1-.1.1-.2.2-.4.4.6.6 1.4.6 2.3-.1 2-1.2 4.7-2.8 6.8zm1.2-9.2c-.6 1.1-1.6 2.7-2.7 4-.7.8-1.5 1.4-2.2 1.8 0-.1 0-.3-.1-.4.3-.2.5-.5.8-.8.2-.2.4-.5.6-.7 1-1.2 1.8-2.6 2.3-3.5.3-.5.5-1.1.7-1.7.1.1.3.1.4.2.1 0 .1.1.2.2l.3.3-.3.6zm-6.1 6.2c.1-.1.2-.1.3-.2h.1v.1h-.1c-.2.1-.2.1-.3.1zm4.1-6.2c-.5.8-1.3 2.2-2.3 3.4-.8 1-1.6 1.8-2.3 2.2-.2-3.1-.8-5.8-2-8.3 2.4.3 5.1.3 7.3 1.2-.2.5-.5 1-.7 1.5zm-5.4 6.1v.2l-.1.7c.3.1.6.1.9.1.2 0 .5 0 .7-.1h.2v1.3c0 1.2.1 1.9.5 2.4.3.5.7.8 1.3 1.3-.9.7-1.8 1.1-2.6 1.2-.8.1-1.8.2-2.9.2-1 0-2.2-.1-3.3-.2 0-.1.1-.3.1-.4 0-.1 0-.2.1-.3.1-.1.2-.2.2-.3v-.3s-.1-.2-.4-.3c-.3 0-.3.2-.4.2-.1.2-.1.2-.1.4-.1.2-.1.6-.2.9-4.2-.6-8.4-2.2-9.3-5.7-.2-.6-.2-1.2-.2-1.9.5-.4.9-.7 1.3-1.1 0 .1.1.2.2.2h.4c.3.1 1.2.6 2.2 1.1 1 .5 2.2 1 3.4 1 .3 0 .6 0 .8-.1.3-.1.6-.3.9-.5.1 1 .1 2 .6 3 .1.2.2.2.4.2h.2c.2-.1.3-.3.2-.6-.6-1.2-.4-2.8-.6-4.2-.2-1.5-1-2.9-3.4-3.2-.4-.3-.7-.3-1-.3-2.6 0-4 1.9-5.6 3.3.2-2.4 1.4-4.7 3.4-5.8.7-.4 1.5-.7 2.2-1 .8.5 1.6 1.3 1.9 2.3.1.2.3.3.5.3.2-.1.3-.3.3-.5-.3-1-.9-1.8-1.7-2.4.9-.3 1.9-.4 2.8-.4.3.4.7.8 1.1 1.2.2.2.4.2.6 0 .2-.2.2-.4 0-.6l-.6-.6c.7 0 1.5.1 2.2.2.2 0 .3.1.5.1 1.6 2.6 2.1 5.5 2.3 9zm-12.4-3.5c.1.5.4.9.7 1.2.1.2.2.3.4.5s.4.4.8.4h.5c.2 0 .4.1.5.1.5 0 1.1-.2 1.5-.6.3-.2.5-.6.6-.9.1-.2.1-.5.1-.7.6.5.8 1.1 1 1.9v.4c-.1 0-.1.1-.1.1-.2.3-.5.5-.8.6-.2.1-.5.1-.8.1-1 0-2.2-.5-3.2-1-.5-.3-1-.5-1.4-.7-.4-.2-.6-.3-.9-.3.3-.4.7-.8 1.1-1.1zm3.8 1c-.1.1-.2.2-.4.2.1-.2.2-.4.3-.7 0 .2 0 .3.1.5-.1 0-.1 0 0 0zm-.9-1.3c0 .4-.1.8-.3 1.1-.1.2-.3.3-.4.4-.3-.1-.6-.3-.9-.5-.3-.4-.5-1-.5-1.2.5-.2 1-.4 1.7-.4h.5c0 .1-.1.2-.1.3v.3zm1.1-.2v.1l-.2-.2c.1 0 .2.1.2.1zM38 40c2.5.8 5.1 1.5 7.7 1.5 2.6 0 5.1-.6 7.3-2.4 2.6-2.1 3.8-4.2 3.8-6.2 0-2.9-2.5-5.4-5.7-7.1C47.7 24 43.6 23 39.9 23c-2.2 0-4.3.4-5.8 1.3-1.4.8-2.3 2-2.5 3.7l-.6-.4.1.6c.3 2.6.5 5.1 1.4 7.1 1 2.1 2.6 3.7 5.5 4.7zm-6.2-11.3l.4.3v-.5c0-1.7.8-2.9 2.2-3.7l.6-.3c0 .6.2 1.3.7 1.7.5.5 1.2.7 1.8.7.6 0 1.3-.2 1.9-.5l.3.4c-.7 1.3-1.4 2.7-1.8 4.2 0 .1 0 .2-.1.3-.3 1.4-.4 2.8-.8 3.8-.1.2-.2.3-.2.4-.2.3-.5.6-.9.8-.4.3-.9.5-1.5.8l-.2-.2c-.5-.6-.8-1.2-1.1-1.9-.7-1.7-1-3.9-1.3-6.3zm15.3-1.6c.2.1.5.1.6-.1.2-.4.8-1 1.6-1.5.5.2 1 .4 1.5.7 3.1 1.6 5.3 3.8 5.4 6.3v.3c0 1.7-1 3.7-3.5 5.7-1 .8-2 1.3-3.1 1.7-1.2.4-2.5.6-3.9.6s-2.7-.2-4.1-.5c.1-3.3.5-6.5.5-9.4 0-.2-.2-.4-.4-.4s-.4.2-.4.4c0 2.8-.4 6-.5 9.2-.9-.2-1.8-.5-2.6-.8-.1 0-.1-.1-.2-.1.5-1 1-2 1.1-3.1 0-.2-.2-.4-.4-.4s-.4.2-.4.4c0 .9-.5 1.8-1 2.8-.8-.4-1.5-.8-2.1-1.3.9-.4 1.8-.9 2.4-1.8 1-1.4.8-3.3 1.3-4.7.5-1.8 1.4-3.4 2.4-5.1.3-.2.6-.4.9-.5H42c.4-.2.9-.5 1.3-.8l-.1-.1-.1-.1c.4-.1.8-.3 1.2-.4h.1c1.3.3 2.7.7 4 1.1-.6.5-1.1 1-1.3 1.4-.2.2-.2.4 0 .5zm-5.7-2.9c-.2.1-.4.1-.6.2l.1.3c-.8.4-1.8 1-2.6 1.2-.3.1-.6.1-.8.1-.5 0-.9-.1-1.2-.5-.2-.2-.3-.5-.4-.8 0-.2-.1-.3-.1-.5v-.1c1.2-.4 2.6-.6 4.1-.6.6 0 1.2 0 1.8.1-.2.1-.3.2-.5.3l.2.3z"/></svg>