<svg version="1.2" baseProfile="tiny" xmlns="http://www.w3.org/2000/svg" viewBox="0 0 681.8 698.5"><g fill="#FFF"><path d="M11.5 179.1c2.5-1.1 2.7-4 4.4-5.7 1.5-.1 2.7-.7 3.5-1.9 7.8-11.9 7.8-11.9 20.5-9.4-.8 3.4 3.6 7.9-1.3 10.3-8.6 4.2-7.5 10.8-5.7 18.1 1.1 4.7 3.9 6.3 8.3 5.5 4.7-.9 8.6-2.9 10-7.9.7-2.4 1.5-4.5 4.5-4.6 3-.1 4.2 2 5.1 4.2 1.8 4.8 4.8 8 10.1 9.1 2.9.6 4.6 2.6 5.2 6 .9 5.4 2.5 10.4 6.9 14.4 5.8 5.2 5.3 7.8-1.3 11.8-1.8 1.1-3.8 1.9-5.7 2.9-3 1.6-4.2 3.4-3.4 7.4 3.4 15.5 9 21.3 24.9 22.5 6.3.5 7.7 1.4 3.6 6.8-4 5.3-3.7 11 .4 16.3v12.8c-9.6-6.2-13.4-18-22.9-24.3-5-14.1-9.7-28.3-17.1-41.5-.2-5.5-.1-10.6 4.2-15.2 3.4-3.8 1.4-10.6-3.1-14.4-4.6-3.8-7.2-.5-10.2 2.4-1.8 1.8-3.5 4.4-5.8 5.1-3.5 1.2-7.8 5.2-10.9-.6-4.1-7.6-11.2-11.5-17.8-16.5-.1 10.4 2.5 19.9 5.1 29.3-.8.4-1.6.8-2.3 1.2-3-7.3-5.4-14.8-6.5-22.7-.5-3.9.3-8.1-2.6-11.4-.1-3.3-.1-6.7-.1-10zM248.7 19c5.7 2.3 11.5 4.7 17.2 7 0 2.1-1.1 3.6-2.5 4.7-5 4-6.8 9.2-6.1 15.4-6.8 5-12.8 1.9-19-1.6-1.5-.9-3.6-.8-5.4-1.2-3.3-.2-3.9 2.9-5.6 4.7-.7.8-1.5 2.1-2.9 1.3s-1.7-2.4-1-3.7c.6-1.2 1.7-2.2 2.8-3.1 4.7-4.1 3.7-9-2.1-11.5-2.3-1-5.4.5-7-2.4 3.3-5.4 9.6-6.5 14.4-9.6h17.2zm-88.6 341.6c15.1-13.9 29-29.2 46-41 7.3-5.1 14.6-10.6 23.8-12 6.9 6.7 6.3 10.3-2.5 13.2-3.6 1.2-5.5 3.5-5.7 7.3-.1 2.4-.2 4.8-.4 7.7-9.3-6.6-10.5-6.7-18.9-.4-2.6 2-5.3 4.2-7.2 6.9-4.6 6.8-2.3 14.3-.3 21.2 1.7 5.6 6.7 1.3 9.9 1.3 18.1.1 31.4-11.4 33.6-29.1.8-6 .8-12.2-.6-18.4-1-4.4-.6-9.1 5-10.9.8 1.5 2 3.4 3.8 2.3 8.9-5.5 19.5-5.8 28.7-10.4 8.9-4.5 18.6-5.8 27.1.3 6.4 4.6 10.6 3.3 15-2.1 7.5 3.3 14.9 3.8 22.6.3 3.8-1.8 8-2.9 12.1-4 8.8-2.4 11.4-.9 14.4 7.5.7 2 1.4 4.1 2.7 5.7 1.9 2.2 4.2 5.9 5.7-.7.9-3.9 4.7-5.6 8.2-7.2 3.2-1.5 7.1-.6 10-2.9 14.7-2.1 23.6 6.9 31.3 17.2 3.7 5 7.3 9.2 13.8 10.1 3.3.5 4.4 3.1 5.3 6 1.6 5 5.2 8.5 10.5 8 6.5-.6 10.2 2.7 13.4 7.3.4 3.8 3.3 5.4 6 7.3 3 2 5.8 4.2 5.4 8.4-10.4 8.8-10.4 8.8-16.6 2.3-.1-.1-.8.2-1.7.4 2.7 5.6 3 11.1-1.7 15.9-.5-.5-1-.9-1.5-1.4.1-2.6-.2-5.2.9-7.7.7-1.8 1.3-4.8-.1-5.3-7.5-2.8-12-10.9-20.8-11.3-.1-3 .1-6.2-.5-9.1-.5-2.5-1.7-5-5-5.1-3.9-.1-4.5 2.7-4.6 5.7-13.2-.3-15.4 1.7-17 14.8-.4 3.3-1.2 6.6-1.9 10.3-9.8-8-9.8-8-18.1-8-1 .5-1.9.9-2.9 1.4.1-10.8.1-10.8 12.4-7.9 0-3.4-2.9-6-2.4-9.5 1-6.3-3.3-8.3-8.2-9.4-3.2-.7-6.5-.2-9.4-2.5-2.1-1.6-3.9 0-5 2.2-3.5 6.8-1.5 17.4 4.2 23 1.2 1.1 1.8 2.7 2.8 4.1-3.9.6-7.2 3.4-11.5 3-2.9-.3-7.4-1.6-6.9 4.1.4 4.8 3.7 6.3 8.1 5.6 2.4-.4 5-2.5 6.6 1.2 1.7 3.8-1.7 4.9-3.6 6.8-2.7 2.7-7.7 3-8.3 7.9-17.8 3.1-28.4 16.8-28.6 37.1-.5 0-.9.1-1.4.1-6.3 1.4-12.5 1.8-18.9.2-3.5-.9-7.6-.9-11.1 1.2-.9 0-1.8-.1-2.8-.1-1.4-4.3-4.2-7.3-8.7-8.5-.4-1.3-.9-2.7-1.3-4-.6-1.7-2.6-3.7-.7-5.1 1.9-1.4 3.1 1.5 4.8 2 2 3.3 5.3 6.4 8.5 3.1 5.6-5.9 12.3-6.8 19.6-8.2 10.8-2 13.5-7.6 13.4-23.6 5.1 2.2 10.2 1.5 15.2-.2 6.8-2.3 8.8-13.3 3.4-18.5-3.8-6.8-5.2-13.5-3.4-21.6 1.2-5.7-4.8-8.6-9.1-11.5-3.6-2.5-6.2-.6-8.6 2-3.2 3.5-5.4 2.8-7.4-1.3-1.3-2.7-3.1-5.1-3.2-8.4-.2-3.8-2.4-7.1-4.7-10.2-.9-1.3-1.9-3.1-3.8-2.5-1.8.5-.7 2.5-1.4 3.6-5.1 8.6-9.5 17.9-20.8 20.2-2.3.5-1.8 2.4-1.9 4-11.7 1.9-12.8 1.1-15.9-10.8-.9-3.4-.9-7-2-10.5-.8 7.6-4.5 13.3-9.8 18.5-6.9 6.8-15.3 11.2-23.1 16.6-3.3 2.3-3.7 3.8-.7 6.2 0 1-.1 2.1-.1 3.1-6.1 1.3-11.7 3.6-17.1 6.8-10.4-.1-19.6 2.2-24.4 12.9-6.6 4.4-13.3 8.8-19.9 13.2-4.2 1.1-8.5 3.2-12.7 3.2-8.1.1-12.4-6.3-13.1-17.7 3.4-7 6.6-13.8 5.7-21.7zm-5.7 331.3c-16.9-.4-31.7-6.5-45.8-15.5-23.1-14.8-34-36.3-37.3-62.9-3.5-28.2 3.3-55.1 7.9-82.4 1.7-10.3 3.9-20.4 5.5-30.7 2.7-18 12.6-32.4 22.4-47 3.5 3.5 5.9-.8 8.7-1.4h1.4c2.4 8.4 4.6 16.8.5 25.4-1.3 2.7-.4 6 .2 9 1.4 7.1 4.1 14.1.8 21.4-6 9.7-6.6 21.8-13.8 31.1-1.5 1.9-.9 5.1.3 7.6 2.3 4.8 2.9 10 3.4 15.1.3 2.4.9 4.6 2.9 6.3 0 2.4.1 4.7.1 7.1-.1 5.4.1 10.9-2.9 15.8-1.5 5.7-2.6 11.5-4.6 16.9-1.8 4.9-.1 8.2 3.4 11 2.4 1.9 5.4 3.2 7.3 5.4 4 4.4 7.7 6.1 12.3 1v2.8c-4.2 13.9 1 25.3 9.3 35.9 1.1-6.7 2.1-13.2 3.4-19.6.3-1.4.7-3.7 2.7-3.6 1.7.1 2.6 1.9 3.1 3.5 1.1 3.5 2.3 7.8 6.3 7.8 9.8.1 7 6.5 6 11.3-1.9 9.5-3.8 18.9-3.5 28.7zm56.9-503.8c-11.7-11.1-18-25.2-20.6-40.6-3.9-22.5-6.3-45.2-6.2-68 0-10.7 2.7-19.7 12.7-25.1 7 17.7 17.2 33.9 25.7 50.8 2 4 6.3 5.3 10.5 2.9 3.3-1.9 5.7-1.2 8.2 1.1.3 5.9 5.4 10.2 5.5 15.9.1 8.5 4.8 14 10.6 19.2 1.7 1.5 3.8 3.9 6 2.3 2.1-1.6-.4-3.8-1-5.7-3.6-10 2.9-20.5 13.5-21.9 12.2-1.6 18.3-6.4 19.8-15.7 1.5-3.1 4.3-3.1 7.2-2.9 2.5 3.9 3.1 8.3 3 12.9-.1 2.6.9 5.4 3.5 6.5 2.4 1 3.6-1.7 5.1-3 1.3-1.1 2.6-2 4.3-2.1 3.4 2.2 3.8 5.7 4.2 9.3.7 5.4 1.6 11.1 8.6 12.1l-.1.1c0 8.1-.2 16.2 0 24.2.1 6.1 1.7 11.6 6.2 16.1-.2.9-.5 1.8-.7 2.7-6.1-.5-10.5-4-14.1-8.6-6.6-8.4-11.1-18.2-18-26.4-2.7-3.2-4.9-6-9.3-4.7-4.8 1.4-7.7 4.6-8.4 9.6-.6 4.7 1.1 8.8 2.8 13.1 3.8 9.7 6.7 19.7 9 31.9-7.5-6.7-14.7-9.7-22.3-11.4-1.6-.4-4.4-1.8-4 1.5.6 5.1-1.7 8-5.7 10.5-2.4 1.5-3.5 4-2.1 6.8 1.3 2.6 3.6 3.9 6.5 3.4 1.9-.3 3.7-.8 5.5-1.5 5.7-2.2 10.3-2.1 12.2 5 .7 2.5 2.9 5.1 5.1 3.3 4.8-3.8 8.8-1.3 13 .5-7.1 9.1-15.2 13.6-26.2 6.3-1.5-1-3.5-1.4-5.4-1.8-8-2.1-13.3-7.1-15.6-15.1-1.1-3.9-3.2-7.1-6.6-8.9-3.6-1.9-6.4-4-4.2-8.2 2.2-4.2 5.3-1 8-.1 4 1.2 9.5 2.2 11.3-1.2 2.7-5.2 5.5-11.1 4.1-17.5-.1-.4-.4-.9-.7-1.2-3.4-3.3-13.5-4.4-18-2-1 .5-2 1.4-3.5-.1 2.8-8 .2-15-4.7-21.6-1.7-2.3-3.2-4.8-4.1-7.4-1.5-4-3.3-8.7-7.9-7.3-4.6 1.4-7.2 6.2-6.2 11.6.5 2.8 1.3 5.5 1.2 8.4-.1 2.4.2 5.1-2.8 5.9-2.6.7-4.5-.8-6-2.9-3.5-5-5.3-10.6-5.5-16.6-.2-5.5 0-11-.2-16.4-.1-1.9-.7-3.9-2.8-4.7-2.2-.8-3.3 1.3-4.8 2.3-1.9 1.2-1.7 4.6-5 4.6-.4-7.2.5-14.4-1.6-21.3-.5-1.8 1.3-5-2-5.1-2.3-.1-3 2.9-3.4 4.9-.4 1.8-.3 3.8-.3 5.7v30c.7 9.6 4.4 18.3 7.9 27.2 3.4 8.9 8.7 17.9 8.8 28.4zm280.8 5.6c-.8 3.2-1.7 6.3-2.5 9.5-.9.2-2.2.1-2.7.7-9.4 10.3-21.4 17.4-32.3 25.9-5.2 4-10.4 7.9-17.6 8.2-3.3.1-7.8-.9-9.8 3.6-13.7-.9-25.9-5.5-35.8-15.1-5.7-5.6-11.3-11.3-17.5-16.4-6.5-5.4-11.1-12.2-12.3-20.9 2.1-2.4 1.8-5.7 2.8-8.5 3.6-9.9 7.7-19.2 18.7-23.1 6.2.5 12.4 1 18.5 1.6 4.2 8 9.2 15.5 15 22.4 14.6 17.3 29.8 19.6 41.6-2.6.1-.2.2-.4.4-.6 3.7-6.2 8.6-9.3 15.9-6.3 7 4.6 13.8 9.4 19.3 15.9-.6 1.8-1.1 3.7-1.7 5.7z"/><path d="M264.3 647.5c-5.4 1.1-9.5 4.4-12.5 8.8-11.6 16.4-29.4 21.4-47.4 26 2.6-9.9 7.7-17.3 18.8-18.7 2.5-.3 3.9-1.6 4-4.1.4-11.1.7-22.1-6.9-33.7.1 7.6-1.7 13-8.3 13.3-6 .3-10.2 2.1-12 9.9-1.3-3.8-2.4-5.7-2.6-7.7-.4-2.9-.4-6.8-3.8-6.6-3.2.2-1.8 4.3-2.1 6.7-.1.7 0 1.4 0 2.1-1.2-.1-2.7.1-3.4-.5-5.6-4.7-6.6-.4-7.4 3.8-.4 2.1-.5 4.2-.6 6.3-.1 2-.7 4.4-2.8 4.3-6.1-.5-5.2 4-5.6 7.4-.4 3 0 6.2-.2 9.2-.1 2.1-1.3 3.6-3.6 3.5-1.9-.1-3.4-1.4-3.2-3.2 1-8.9-5.2-17.2-1.9-26.5 1.4-3.9.2-8.1-3.1-11.7-3.1-3.4-6.1-7.6-2.4-12.6 8.5 1.2 10.2 8.4 12.6 14.7 1.1 2.9 1.6 6.1 5.3 4.9 3.8-1.2 4.3-4.7 2.8-8.2-1.3-3.1-2.9-6-4.3-9-.8-1.8-.9-3.7.5-5.3 1.4-1.7 3.3-1.5 5.2-1 8.4 2.1 8.4 2.1 6.7-6.6-.2-1.1-.1-2.4-.1-3.5 1.4 0 2.7.1 4.1.1.4 6 3.1 11 6.3 16.7 2.4-4.1 4.6-7.4 5.3-11.4 2.2-1 4.5-1.8 6-3.9 7.6-.1 15.2-.1 22.7-.4 7.2-.3 14.1-1.4 18-8.8 2.4-4.6 6.7-7.1 11.2-9.4 8.7-4.7 16.5-10.1 20.5-19.7 1.6-3.7 5-4.8 8.7-4.9 6.6 2.4 8.5 7.6 8.5 14 0 3.1-.6 6.5 4.3 6.1 9.6 4 10.2 5.4 7.2 17.1-2.1 1.9-4.3 3.6-6.3 5.6-1.3 1.3-3.6 2.4-3 4.4.7 2.3 3.2 1.2 5 1.4 4.8.5 9.4-.5 13.7-2.6 4.3-2.1 8.8-3.4 13.6-3.3 1.4 0 2.8 0 4.1.1.6 1.3 1.8 1.5 3 1.7-1.3 4.1-5.1 4.7-8.4 5.5-7.1 1.7-14.3 3.2-21.5 4.4-18.3 2.7-32.3 12.6-44.7 25.3zm14.5-58.4c-7 8.8-9.3 17.2-8.5 26.4.3 3.1-.3 8.6 3.5 8.5 4.3 0 7.9-4 9-8.8.6-2.5-.1-5.1-.6-7.7-1.1-5.5-4.1-10.6-3.4-18.4zm-38.7 66.4c-2.1-12.4-2.3-23.4-5.6-34.6-7.2 10.4-5.7 20 5.6 34.6zm400.2-332.1c-21.1 17.8-45.6 27.2-72.9 30.2-4.8.5-8.2-.9-11.3-4.4-1.5-1.7-3-3.8-5.8-3.5-4.6-7.5-13-12.6-14.5-22.1.3-4.7-1.4-9.1-3.6-12.8-6.5-11.2-5.3-22.4-2.4-34.3 2-8.2 6.7-15.1 9.2-23 4.4-.7 5.8-4.7 8.4-7.5 5.4-2.4 11.1-4.3 14.5-9.7 4.6-.6 5.5-6.3 9.8-7.3 3.3.1 6.5-.3 9.9-1 3.5-.7 7.7-1.9 10.3 2.3-.6 11.8.3 23.5 2.7 35.2 2.5 12.1 2.6 12.5 14.4 10.7 2.9 17.9 1.6 19.6-12.3 25-6.8 2.6-9.3.6-10.5-5.8-1-5.8-1.6-12.1-10.5-6.7-2.5 1.5-6.5.8-9.8-.4-3.5-1.2-7.1-.9-10.6-.4-2.8.4-5.4 1.5-6.3 4.9-3.7 14.7 5.5 37.1 18.6 45 4.4 2.7 8.4 3.4 13.3.6 5.3-3.1 11.7-7.5 17.1-5.5 11.6 4.2 17.8-2.2 24.4-9.2 2.9-3 3.2-5.3-1.5-6.4-5-1.2-5.6-4.2-3.9-8.5 2-5.1 3.6-10.3 5.6-15.3 1.2-2.9 1.1-7.9 4.9-7.8 4.6.2 5.8 5 6.8 8.9.9 3.6 1.4 7.4 1.8 11.2.2 1.9.8 3.2 2.8 3.4.1.9.1 1.8.2 2.8 0 3.8-1 7.8 1.2 11.4zm-34.4 270.1c1.6 12.8-3.4 23.6-9.9 34.1-5.4 8.7-10.7 17.4-15.3 26.5-4.4 8.5-11.2 12.6-20.2 13.8-9 1.3-17.7 3.3-25.9 7.3-8.6.6-17.2-.7-25.7 1-4.6-1.9-9.6-2.1-14.5-2.6-17.6-1.6-27.6-11.4-25.4-25.9.9-6 3-12 5.2-17.7 4.6-11.9 2-22.4-8.3-30.9-.5-2.8-1-5.6-1.5-8.5 4.3-.4 6.4 2.4 8.4 5.5 1.5 2.3 2.9 4.4 5.9 4.5 1.5 6.1 2.7 12.3 4.5 18.3 2.8 9.1 2.7 17.7.5 27.1-2.8 11.7-.9 15.6 11.5 14.6 1.7-.1 3.3 0 5-.1 8.7.1 17.3 1 25.7 3.1 1.3.3 3.2 1.6 3.8.1 3.1-8.5 10.4-5.3 16.2-6.1 5.2.6 9.9-.6 11.1-6.1.9-4.5 3.7-7.5 6-10.9 7-.1 13 1.3 17.2-8.4 6.8-15.5 11.1-30.6 7.1-47.3-1-3.9-1.4-7.6-.3-11.8 1.4-5.2 0-9.6-6.8-9.7 0-1 0-1.9-.1-2.9 2.9-3 1-6.7 1.4-10.1V542c.9-12.2-.1-24.1-5.6-35.4-2.3-4.7-3.7-9.7-5-14.8-2.7-10.4-5.5-20.8-13.2-28.8-4.9-5-7.3-10.9-9.1-17.4-.8-2.8.3-7-4.1-8.2V436c-1.8-9.5-4.5-18.4-14.3-22.9.2-4.3-2.7-7.5-4.2-11.2-1-2.2-2.7-3.3-5.1-2.9-3 .5-3.4 2.8-3.5 5.3-.2 2.5 1 5.3-1.4 7.4-.9-.5-1.9-1-2.8-1.5.3-11.5-4.3-23.5 3.6-34.2 12.1 16.2 24.3 32.3 36.4 48.5 2.3 15.4 10.4 28.1 19.2 40.5.8 2.2 1.5 4.5 2.3 6.7 1.6 7.9 2.9 16 9.8 21.6.2 2.1.2 4.3.6 6.4 3.4 15.8 7 31.5 7.4 47.7.1 5.9.3 12.1 3.4 17.3 5.2 9.3 8.1 18.9 10 28.8zm-221.4 22.8c-4.9 1.3-9.5-.5-14.1-1.6-1.2-3.5-4.2-3.8-7.3-4-.2-3.1-2.6-5-4-7.4-4.3-7-4.3-13.8.2-20.6 9.9-14.7 9.9-14.7 9.5-32 2.2-.3 5.2 1 5.7-2.8 7.8-3.3 16.8-2.8 24.4-7 3.4.6 7-3.1 10-.4 5.1 4.4 11.2 3.8 17 4.7-.7 15.2 7.3 25.6 18.8 34.1-.6 4.2 1 6.4 5.4 6 1.5 1.4 2.9 2.7 4.4 4.1-4.8 6-7.3 1.9-10.2-2.9-1.9 4.9-4.3 4.9-7.7 1.5-5.8-5.6-8.7-4.7-12.3 2.8-1.5 3.2-1.3 6.5-1.3 9.7 0 3.6.3 7.1-5.3 4.9-2.4-1-3.9.7-4.7 3-1.4 4.4-3 8.9-4.4 13.3-1.4-.2-2.8-.5-4.3-.7-5.2-7.9-6.3-16.3-2.9-25.3.6-1.7.1-3.8 0-5.7-.1-1.5-.7-2.9-2.5-3-1.6-.1-1.5 1.5-1.9 2.5-2.5 5.7-5.7 10.9-9.2 16-2 3.3-3.8 6.7-3.3 10.8zm8.5-54.9c.1 5.2 1.4 9.2 2.7 13.3.5 1.5.5 3.8 2.6 3.5 1.9-.3 1.9-2.4 1.9-4.1-.2-5.5-.1-10.4 4.5-14.9 3.5-3.4-.2-6-3.3-8.2-3.9-2.9-4.8 0-6.2 2.5-1.5 2.8-2.5 5.6-2.2 7.9zm115.5-396.6c-.5 1.4-1 2.8-1.4 4.2-3.1.2-4.3 3.6-7 4.4-3.4-2.6-4.9-6.4-7-9.9-2.6-6.4-4.1-13-4.3-20 0-2.4 0-5.7-3.2-5.1-3.4.5-6-.8-8.9-1.6-2.2-.6-4.1 0-4.6 2.1-2.4 9.3-5.7 1.6-6.7-.1-4.1-7.1-5.5-15-5.2-23.2.6-12.3-4.2-22.1-14-29.5-4.5-3.4-9.4-6.4-13.9-9.8-5.1-3.9-8.6-3.3-10.7 2.9-9.1-11.5-8.3-14.4 5.2-19.1 1.1-.4 2.2-.7 3.3-1 5 .9 8.5-2.1 12.4-5.2 1.1 3.7 1.7 6.9 3 9.9 1.4 3.2 3.4 7.2 7.5 6.3 3.9-.9 6.1-4.3 5.7-8.7-.2-2.1-.1-4.3 0-6.4 0-1.6-.2-3.7 2-4 2.3-.3 3.4 1.3 3.7 3.5.2 1.4.1 2.9.3 4.3.8 6.1 6.1 7.5 10.4 8.1 4.3.5 1.2-4.5 2.6-6.6.5-.8.7-1.8 1-2.7 1-3.7 3.3-5.4 7.2-5.5 3.9-.1 5.6 1.9 6.8 5.1 1 2.6 2.2 5.3 3.3 7.9-11.9.2-16.2 5.3-14.5 16.9.3 2 0 3.8-.9 5.5-.9 1.9 1 5.7-2.6 5.6-3-.1-1.6-3.4-2-5.3-.3-1.7-.6-3.6-2.8-3.3-1.9.3-1.3 2.2-1.4 3.5-.9 8.2 1.9 15.9 2.7 23.9.4 4.6 2.7 6.8 6.5 8.3 4.3 1.7 4.5-2.9 7.1-5.2 1.1 5.2 2.2 9.7 2.9 14.3.9 5.3 4.2 6.5 8.8 5.6 7.8-1.6 7.3-9.1 9.8-14.3 2.1-4.2-.9-6.7-3.7-9-5.8-4.8-5.8-5.9.9-9.7 4.7-2.6 5.7-5.8 3.1-10.5-1.8-3.3-4.2-6.4-4-10.5 1.7-.1 3.4.1 4.5-1.6 2.1 2.1 3 5.7 6.9 5.9 2.6 16 .3 31.7-1.8 47.5-1.2 8.6-1.6 17.4-5.5 25.4-2.7.5-3-3.5-5.6-3.2-4.3 7.6-3.7 9.1 4.1 9.9zm-41.1 178.7c-3.3-4.7-6.9-8-13.4-7.3-5.3.5-8.9-3.1-10.5-8-1-2.9-2.1-5.5-5.3-6-6.5-.9-10-5.1-13.8-10.1-7.7-10.3-16.6-19.3-31.3-17.2-7.2-7.7-16.3-8.1-25.8-6.4-2.4.4-4.5 2.1-7.3-.1-5.7-4.5-12.2-4.4-18.8-2.2-5.2 1.7-10.4 3.5-15.9 2.9-5.4-.6-8.1 1.7-7.9 7.2-4.3 5.4-8.5 6.7-15 2.1-8.5-6.1-18.1-4.8-27.1-.3-9.2 4.6-19.8 5-28.7 10.4-1.8 1.1-2.9-.8-3.8-2.3-.4-3.3 1.8-4.8 4.4-5.6 6.9-2.2 12.6-6.6 18.5-10.5 2.6-1.7 5.4-3.8 8.4-3.6 9.2.6 17.5-3.7 26.5-4.3 1.7-.1 3.4-.1 3.9-2.3 37.4-13.2 73.8-12.4 108.5 8.6 4.5 2.7 9 5.3 13.9 6.9 2.7 4.7 6.5 7.3 12.2 6 4.8 4.3 7.7 10.6 14 13.4-.1 3.7 2.8 5.4 5.1 7.3 4 3.3 8.8 5.7 12.6 9.1 6.1 5.4 12.9 10.4 16.5 19.8-7.5-2.9-12.2-9.4-19.9-7.5zM211.3 188.1c-.1-10.6-5.3-19.5-9-29-3.4-8.9-7.2-17.6-7.9-27.2 1.1-.9 2.2-1.7 3.3-2.7 1.4-1.2 2.5-3.3 4.7-2.7 3 .7 1.6 3.5 2 5.4 2.3 11 5.9 21.5 11.5 31.2 2.3 4.1 5.4 9.9 11.1 8.3 6.3-1.7 7.4 1.5 8.9 5.9 1.9 5.6 1.7 12.7 10 13.8 1.2.2 1.3 1.9 1.3 3.1-.4 6.3 2.9 11.3 7 15 5.8 5.2 11.1 11.1 17.2 16 8.1 6.6 16.2 6.7 25 1.3 3.4-2.1 7-4.1 10.7-5.7 11.8-5.2 20.6-13.2 24.5-25.9 1.8 4.7 1.1 9.8 1.8 14.7-8.6 7.1-17.1 14.3-25.8 21.3-15.1 12.2-32.1 12.3-47 2.1-18.4-12.5-35.4-27.2-49.3-44.9zm30.2-78.9c-2.4-2.4-4.9-3.1-8.2-1.1-4.2 2.5-8.4 1.2-10.5-2.9-8.5-17-18.7-33.1-25.7-50.8 6.2-8.9 12.1-18 19.9-25.7 1.6 2.9 4.7 1.4 7 2.4 5.8 2.5 6.7 7.5 2.1 11.5-1 .9-2.1 1.9-2.8 3.1-.7 1.3-.4 2.8 1 3.7 1.4.8 2.2-.4 2.9-1.3 1.6-1.8 2.2-4.9 5.6-4.7 2.8 4.4 6.6 7.6 11.8 8.3 3.7.5 6.2 2.3 6.2 5.6-.1 3.9-3.9 4.1-6.9 4.6-1.8.4-3.8.3-5.5 1-9 3.3-10.4 7.3-5.8 15.7 2.2 3.9 5 7.6 6.4 11.8 2.3 7.1 3.5 14.9 14.1 10.3.2-.1.5 0 .7.1 4.2 3.9 5.6.2 7.9-2.5 4.9-5.8 9.4-4.8 12.6 2.3-1.3 5.9-5 10.6-7.9 15.7-3.6 6.2-9.1 7.1-14.6 2.4-3.5-3.1-6-7.2-10.3-9.5z"/><path d="M333.4 209.6c-.7-4.9 0-9.9-1.8-14.7 0-.9.1-1.9 0-2.8-.2-2.9.8-7-3.8-6.8-4 .2-3.1 4-3.3 6.7-1 10.7-7.5 16.8-17.1 20.1-4.3-1.7-8.2-4.3-13-.5-2.2 1.8-4.5-.8-5.1-3.3-1.9-7.1-6.5-7.2-12.2-5-1.8.7-3.6 1.2-5.5 1.5-2.9.5-5.2-.8-6.5-3.4-1.4-2.8-.4-5.3 2.1-6.8 4-2.5 6.2-5.4 5.7-10.5-.4-3.3 2.4-1.9 4-1.5 7.7 1.8 14.8 4.7 22.3 11.4-2.3-12.1-5.2-22.1-9-31.9-1.7-4.2-3.4-8.4-2.8-13.1.7-5 3.7-8.2 8.4-9.6 4.4-1.3 6.6 1.5 9.3 4.7 6.9 8.2 11.4 18.1 18 26.4 3.6 4.6 8 8.1 14.1 8.6-1.6 6.8-1.1 13.6-1 20.5-.1 3.5-.3 7.1-2.8 10zM430.2 59c-1.1.3-2.2.6-3.3 1-13.5 4.7-14.3 7.6-5.2 19.1 9.6 1.4 11.2 7.7 10 15.9-.3 2.3-.1 4.6-.1 7-4.1-.4-8.2-2.5-12 1.3-4 4-4.2 10-7.6 14.3-.9 1.2.4 2.8 2.1 2.8 6.1 0 7.7 4.2 9 9.1 1.7 6.4 5.6 7.8 11.1 4.5 1.4-.9 2.6-2.1 4.4-2.1-.5 3.3-.9 6.7-1.4 10-4.8-.5-9.5.7-14.2 1.5-1.1-4.9-.4-10.7-7.2-13.5v13.5c-5.9-1.2-4.8 4.7-7.2 7.1l-1.4-1.4c1.3-8.5-3.6-14.3-8.7-20 .6-5.8-.5-11.2-3.1-16.5-1.5-3.2-3.3-6.6-2.5-10.1 1.6-6.8-2.3-6.6-6.9-6.3-2.6.1-5.2 0-7.5 1.5h-1.3c3.9-12.8 11.9-22.5 22.7-30.1.7 2.2-1.6 5.5 1.9 6.5 1.4.4 2.8-1.5 3.4-3.1 1-2.7.2-4.5-2.8-5 5.1-5.7 9.6-12.2 17.8-14 1.2-.1 2.4-.1 3.5-.2 3.7-.4 7.6-5.6 10.8-1 3.1 4-4.4 4.4-4.3 8.2zm-155.8 41.6c-3.2-7.2-7.8-8.1-12.6-2.3-2.3 2.7-3.7 6.4-7.9 2.5-.1-.1-.5-.2-.7-.1-10.6 4.6-11.8-3.1-14.1-10.3-1.4-4.2-4.2-7.9-6.4-11.8-4.7-8.4-3.3-12.4 5.8-15.7 1.7-.6 3.7-.6 5.5-1 3-.6 6.8-.8 6.9-4.6 0-3.3-2.5-5.1-6.2-5.6-5.2-.7-9-3.9-11.8-8.3 1.8.4 3.9.3 5.4 1.2 6.1 3.6 12.1 6.6 19 1.6.5 3.3 1 6.7 1.4 10-5.6 6.6-5.5 14.7-.1 20.7 4.3 4.8 10 5.6 15.8 6.4 3.5 3.2 5.3-1.3 7.9-1.9 2.7 2.9 1.9 6.3 2.1 9.5.1 1.5-.8 3.7 1.1 4.4 2.2.9 3.4-1.4 4.4-2.7 3.3-4.4 4-9.9 2.8-14.8-1.9-7.8.3-14.3 4.6-20.4 7.8 7.3 12.5 16.6 16.6 26.2 7.2 17.1 12.6 34.7 17.8 52.5-7.1-1-7.9-6.6-8.6-12.1-.5-3.6-.9-7.1-4.2-9.3-1.6-4 3.9-9.7-2.7-12.5-4.2-1.7-8.3-5-13.2-1.8-2.9-.2-5.7-.2-7.2 2.9-2.8-.7-5.9 2.9-8.1.6-3.9-4-8.6-3.3-13.3-3.3zm-117.2 523c-3.7 5-.7 9.3 2.4 12.6 3.3 3.6 4.5 7.8 3.1 11.7-3.3 9.3 2.9 17.6 1.9 26.5-.2 1.7 1.3 3.1 3.2 3.2 2.3.1 3.5-1.4 3.6-3.5.2-3.1-.2-6.2.2-9.2.4-3.4-.4-7.8 5.6-7.4 2.1.2 2.7-2.2 2.8-4.3.1-2.1.2-4.3.6-6.3.8-4.3 1.8-8.5 7.4-3.8.8.6 2.3.4 3.4.5.3 2.1.5 4.2 1 6.3 2.4 11.6 7.7 22.4 9.3 34.2-15.3 5.6-31 8.8-47.4 7.9-.3-9.8 1.6-19.3 3.6-28.8 1-4.8 3.8-11.2-6-11.3-4 0-5.2-4.4-6.3-7.8-.5-1.6-1.3-3.5-3.1-3.5-2-.1-2.4 2.3-2.7 3.6-1.3 6.4-2.2 12.9-3.4 19.6-8.3-10.6-13.6-22-9.3-35.9 8.6-.6 17.6-.5 19.9-11.7.5-2.5 2.4-2.5 4.4-2.6 3.7 2.4 4.8 6.2 5.8 10zM78.6 273.4c9.5 6.3 13.3 18 22.9 24.3.9 1.4 1.9 2.9 2.8 4.3 1.5 3.4 4.6 2.8 7.4 2.9 3.6 0 7.1-.2 10.4 1.8 13.4 7.9 26.1 3.5 38.3-3.1 2.5-1.3 5.2-3.6 5.4-7.1.5 0 .9 0 1.4-.1 7.5.2 7.8.8 4.9 7.4-1.6 3.6-4.4 5.5-8 6.2-6.5 1.3-12.7 3.5-18.9 5.8-14 5.3-28.2 7.8-42.4.5-9.5-6.1-18.6-12.9-29.8-15.8-8.7-9.1-18.8-17-26.1-27.5-1.8-2.5-3.9-4.7-4.2-8 1-6.5-1.7-13.1.2-19.6 1.1-3.7 3.9-6.3 7.3-7 4-.7 3.6 3.5 4.5 5.8 5 12.4 10.6 23.9 23.9 29.2zm513.2-42.9c-2.6-4.2-6.8-3-10.3-2.3-3.3.6-6.5 1-9.9 1 2.9-9.3 9.9-13.3 19.1-14.6-1.5-4.8-5.1-7.7-8.2-10.9-3.7-3.9-6.1-4.2-7.1 2-.9 5.5-3.8 8.5-9.2 4.2-5-3.9-7.1-.9-9.2 3.1-2.3 4.3-2.1 9.2-2.9 13.8-1.6 9.5-1.8 9.4 7.7 9.7-3.4 5.3-9.1 7.3-14.5 9.7v-5.5c-.5-9 1.2-18.1-1.4-27 4.6-9.7 13.9-14.6 21.2-21.6 1.4-.2 2.9 0 4.1-.5 11.8-4.8 20.3.1 27.5 9.2.5 1 1 1.9 1.4 2.9-2.4 2-4.9 3.9-5.5 7.1-.8 4.4.6 8.3 4.4 10.5 2.9 1.7 6.8 2.2 9-1.2 2.6-4.1 6.1-8.1 5-13.7 3.8.4 5.5 3.4 7.3 6.1 2.8 4.1 5.3 8.5 9.8 11 .5 2.4.9 4.7 1.4 7.1-4.2-.1-2.1 6.3-7 6.2.1-3.9.5-8.7-5.8-7.6-4 .7-4.3 3.8-4.3 6.9.1 3.5 2.1 5.5 5.6 5.9.7 4.4-1 8.6-1.5 12.9-4.6-.6-5.5 2.3-6.1 6-.2 1.5-.9 3.6-3 3.3-1.5-.2-1.9-1.8-2.3-3.3-.9-3.7-1.6-7.5-3-10.9-2.7-7.2-3.7-15.9-12.3-19.5zM118.6 507.8c3.4-7.2.6-14.3-.8-21.4-.6-3.1-1.5-6.3-.2-9 4.1-8.7 1.9-17-.5-25.4 5.4-12.7 9.9-25.8 18.2-37 3.9-5.3 3.9-10.2 1.9-15.8 0-.5 0-1-.1-1.5 2.3-1.3 4.2-3.4 7.2-3 .5.5 1.1 1 1.4 1.6 2.3 5.8 4 11.4 12.5 6.4 2.6-1.5 6.6 1.8 7.4 5.8.9 4.5-2 5.1-5.5 4.8-2.1 0-4.3-.1-6.4 0-14.4 1.1-25 16.7-20.8 30.5 1 3.2 2.9 5.6 6.1 6.3 3 .6 3.7-2.5 5-4.3 3.7-5.6 6.4-11.6 9-17.8 1.2-2.9 1.5-6.7 5.5-7.6-.7 7.1-3.3 13.7-5.7 20.4-4.7 12.8-12.1 24.7-14 38.5-1.4 10.5-2.5 21.1-6 31.2-4.4-2.2-9.6-.6-14.2-2.7z"/><path d="M630.3 223.4c-4.6-2.5-7-6.9-9.8-11-1.9-2.8-3.6-5.7-7.3-6.1-3.4-5.1-8.6-1.9-12.9-2.8-.5-1-1-1.9-1.4-2.9h8.6c12.9-.3 21.4-9.5 31.4-15.4 4.1-.5 7.8 0 10.3 3.8-1.8.4-3.7.9-5.5 1.3-4.5.9-9.4 1.6-10.3 7.1-.9 5.7 1.9 10.2 5.8 14.4 1.9-2.7-.2-4.6-.2-6.6-.1-2.8.3-6 3.7-5.8 8.1.5 8.2-4.4 7.7-10.1 1.4.1 2.8.1 4.2.2.5 6.5 3.2 12.4 6.7 17.7 2.3 3.5 5 7.7 10.3 7.7 1.9 18.8 2.9 37.5-3.8 55.7-4.2-9.6-9.8-18.6-12.6-29-4.3-15.8-8.1-18.2-24.9-18.2zm-325.8 56.5c-.5 2.2-2.2 2.1-3.9 2.3-8.9.6-17.3 5-26.5 4.3-3.1-.2-5.8 1.9-8.4 3.6-5.9 3.9-11.6 8.3-18.5 10.5-2.6.8-4.7 2.4-4.4 5.6-5.6 1.8-6 6.5-5 10.9 1.4 6.2 1.3 12.4.6 18.4-2.3 17.7-15.6 29.2-33.6 29.1-3.2 0-8.3 4.3-9.9-1.3-2.1-6.9-4.3-14.3.3-21.2 1.8-2.7 4.5-4.9 7.2-6.9 8.4-6.2 9.6-6.2 18.9.4.1-2.9.2-5.3.4-7.7.2-3.8 2.2-6 5.7-7.3 8.8-3 9.5-6.6 2.5-13.2 11.8-7.8 23.4-16.2 35.6-23.3 11.7-6.6 25.7-5 39-4.2zM466 599.2c10.2 8.5 12.9 19 8.3 30.9-2.2 5.7-4.3 11.7-5.2 17.7-2.2 14.5 7.7 24.3 25.4 25.9 4.9.4 9.8.7 14.5 2.6-2.4 4-8.2-.9-10.2 3.9-5.2 1.2-10.6 1.4-15.4-.9-15.3-7.4-30.9-14.5-43.2-26.8-.9-5.3-2.9-10.6.2-15.9 6.4-2.7 9.5-9.1 14.8-12.9 8.4-6 12-13.8 7.8-24 .9-.2 1.9-.4 3-.5z"/><path d="M462.8 599.6c4.2 10.2.7 17.9-7.8 24-5.4 3.8-8.5 10.2-14.8 12.9.3-3.6-.3-7-4.4-7.7-5.1-.9-9.3-2.1-11.1-7.9-.6-2.1-3.7-1.9-5.7-.9-2.3 1.2-4.4 2.7-6.6 4.1-1.7 0-2.8-1.2-3.9-2.3 1.5-4.4 3-8.8 4.4-13.3.8-2.4 2.3-4 4.7-3 5.6 2.2 5.3-1.3 5.3-4.9 0-3.3-.2-6.5 1.3-9.7 3.6-7.5 6.5-8.4 12.3-2.8 3.4 3.3 5.8 3.4 7.7-1.5 2.9 4.7 5.4 8.9 10.2 2.9 6.4.4 4.4 7.7 8.4 10.1zm-64.1-470.5c5 5.7 10 11.5 8.7 20-8.8 0-17.3-2.2-25.8-4-1.8-.4-4-1-5.1 1.1-1.1 2.2.8 3.4 2.1 4.8 1.8 2 5.2 2.9 4.6 6.6-11 3.9-15.1 13.2-18.7 23.1-1 2.8-.7 6-2.8 8.5-5.7-15.4-4-30.9-.9-46.5.9-4.6 2.6-9 3.9-13.5 7.7-1.7 10.9-7 11.2-14.3.2-4 .9-7.9 2.9-11.4 4.4 3.5 6.2 8.8 9.6 12.9 3.4 4.1 4.9 10 10.3 12.7zM297.4 57.3c-4.3 6.2-6.5 12.6-4.6 20.4 1.2 5 .6 10.4-2.8 14.8-1 1.4-2.2 3.6-4.4 2.7-1.9-.7-1-2.9-1.1-4.4-.2-3.2.6-6.6-2.1-9.5-2.6.6-4.4 5.1-7.9 1.9-2-10.9-10-18.4-15.8-27.1-.5-3.3-1-6.7-1.4-10-.7-6.2 1-11.4 6.1-15.4 1.5-1.2 2.6-2.7 2.5-4.7 6-.9 10.3 1.5 14 6.3 4.4 5.7 11.3 9.4 14.5 16.4 1.2 2.8 3.1 5.4 3 8.6zM430.2 59c-.1-3.8 7.4-4.2 4.6-8.2-3.2-4.5-7.1.6-10.8 1-1.2.1-2.4.1-3.5.2 7.5-9.2 18.1-11.6 29.1-12.6 8.5-.8 17-.9 25.5-1.2 12.9-.5 22.4 5 28.1 16.6 2.7 5.5 4.9 11.3 7.2 17V79c-1.1 1.7-2.8 1.5-4.5 1.6-4.1-4.8-6.8-10.4-10-15.8-1.1-2.6-2.2-5.2-3.3-7.9-1.2-3.1-3-5.2-6.8-5.1-3.9.1-6.2 1.8-7.2 5.5-.2.9-.5 1.9-1 2.7-1.4 2.1 1.7 7.1-2.6 6.6s-9.6-2-10.4-8.1c-.2-1.4-.1-2.9-.3-4.3-.3-2.1-1.4-3.8-3.7-3.5-2.2.3-1.9 2.4-2 4 0 2.1-.1 4.3 0 6.4.3 4.4-1.8 7.9-5.7 8.7-4.1.9-6.1-3.1-7.5-6.3-1.3-3-1.9-6.3-3-9.9-3.8 3.2-7.3 6.3-12.2 5.4zm188.6 195.9c.4-4.3 2.2-8.5 1.5-12.9.2-4.4-.1-8.7-1.3-12.8 6.3-1 5.8 3.7 5.8 7.6 4.9.1 2.8-6.3 7-6.2 4.9 8.4 8.4 16.9 3.3 26.6-.7 1.4-.3 3 .9 3.9 5.3 3.9 5.7 9.1 4.5 15.1-1 4.8.3 9.6 5.3 11.1 4.5 1.3 6.1-3.3 8.2-6.4 5.3-7.8 5.3-7.8 10.8-.2-3.6 9.1-4.6 19.3-11.2 27.2-5.1.3-8.9 5.3-14.5 4.1-.1-.9-.1-1.8-.2-2.8 1-7.4-1.5-14.5-1.5-21.9.1-11.3-7.7-15.7-17.1-9.9-3.9 2.4-6.1 2.2-7.1-2.5 5.4-5.7 3.3-13.5 5.6-20zm-515.9 61.4c14.2 7.2 28.3 4.8 42.4-.5 6.2-2.3 12.4-4.5 18.9-5.8 3.6-.7 6.4-2.6 8-6.2 2.9-6.6 2.6-7.2-4.9-7.4 1.8-7.4 6.8-12.9 11.4-18.6 3.8-2.3 6.7-5.9 7-10.1 1.1-16.6-.4-32.9-7-48.5 0-3.4-.5-6.9 1.4-10 2.1 0 4.2.1 6.3.1-.1 9.2 2.1 17.9 5.5 26.3 7.2 18 5.6 35.4-3.6 52.2-4.1 7.5-8.6 14.8-12.8 22.2-1.2 2.1-2.8 4.1-5 4.9-22.1 7.6-44.3 14.4-67.5 4.2-.1-1-.1-1.9-.1-2.8z"/><path d="M664.6 280.6c-5.5-7.6-5.5-7.6-10.8.2-2.1 3-3.7 7.7-8.2 6.4-4.9-1.5-6.2-6.3-5.3-11.1 1.2-6 .8-11.1-4.5-15.1-1.2-.9-1.6-2.5-.9-3.9 5.1-9.7 1.6-18.2-3.3-26.6-.5-2.4-.9-4.7-1.4-7.1 16.8 0 20.5 2.4 24.7 18.3 2.7 10.4 8.4 19.3 12.6 29-.3 3.5-1.2 6.8-2.9 9.9zm-586-7.2c-13.3-5.3-19-16.8-23.8-29.1-.9-2.3-.5-6.6-4.5-5.8-3.5.7-6.3 3.2-7.3 7-1.9 6.5.8 13.1-.2 19.6-9.8-10.6-17.5-22.5-21.8-36.4-.6-1.8-1-3.6-.4-5.5.8-.4 1.6-.8 2.3-1.2 1 1.3 2.1 2.5 3.1 3.8 2.9 3.6 4.5 3.5 6.5-1.2 4.3-10.3 5.3-10.2 12-.9.5.8 1.3 1.4 1.7 2.3 3.2 7.1 7.7 10.5 15.3 6 7.4 13.1 12.1 27.3 17.1 41.4zM28.8 153.5c4.3-16.3 15.8-26 31.6-28.1 29.3-4 55.8 2.9 76.4 25.8.6.7 1.1 1.5 1.6 2.3-3.2-.7-6.7 3.5-9.6-1-7.2-10.9-18.4-15.5-30.5-17.2-9.7-1.4-19.8-1.4-28.3 5.1-2 .1-3.5 1.1-4.4 2.9-3.8 0-7.9.8-11.3-.3-7.3-2.4-11.9.5-15.8 6-3.2 1.4-6.4 3-9.7 4.5zm173 530.6c-1.6-11.8-6.9-22.6-9.3-34.2-.4-2.1-.7-4.2-1-6.3 0-.7-.1-1.4 0-2.1.3-2.4-1.1-6.5 2.1-6.7 3.4-.2 3.4 3.7 3.8 6.6.3 2 1.3 3.9 2.6 7.7 1.7-7.8 6-9.6 12-9.9 6.6-.3 8.4-5.7 8.3-13.3 7.6 11.5 7.4 22.6 6.9 33.7-.1 2.5-1.5 3.8-4 4.1-11.1 1.4-16.2 8.8-18.8 18.7-.4 1.2-1.5 1.4-2.6 1.7zm265.6-340.6c7.7-1.9 12.4 4.7 20 7.4-3.6-9.3-10.4-14.3-16.5-19.8-3.9-3.4-8.6-5.8-12.6-9.1-2.3-1.8-5.2-3.6-5.1-7.3 13.6 5.3 24.3 14.7 34.2 25 10.9 11.3 20.4 23.8 29.4 36.6-7.9 10.7-3.3 22.7-3.6 34.2h-2.9c.9-7.2-1.1-14.1-1.6-21.2-.7-10.7-16.5-31.2-29.8-30.3.4-4.2-2.5-6.4-5.4-8.4-2.8-1.7-5.7-3.4-6.1-7.1zM180.1 209.1c-1.9 3.1-1.4 6.6-1.4 10h-1.4c-.1-3.7-3.4-4.1-5.6-5.8-4.9-3.7-10.5-7.2-7.8-14.9.5-1.4.1-3.8-1.4-3-6.5 3.5-14.7 1.9-20.7 6.9-1.4 1.1-2.4 4.5-5 2.3-1.9-1.6-1-4-.1-6 .9-1.9 1.5-4.1 2.9-5.6 7.6-8.3 9.3-17.7 6.2-28.3 2.1.2 4 1.9 6.2 1.1 5.2 7.2 10.5 14.3 17.9 19.6 3.6 2.6 6.5 6.1 7.7 10.7-2.4.8-6.2-1.4-7.3 2.4-1 3.6 2.1 5.2 4.7 6.9 1.9 1 3.4 2.4 5.1 3.7zm425.8 384.4c-2-10-4.8-19.6-10.1-28.4-3.1-5.2-3.3-11.5-3.4-17.3-.4-16.3-4-32-7.4-47.7-.5-2.1-.4-4.2-.6-6.4 3.5 0 5.1 2.4 5.8 5.2 5.5 22 15.3 42.8 19 65.4.4 2.4.9 4.6-.1 6.9-2.1 4.7-2.2 9.5-1 14.6.6 2.7.4 5.7-2.2 7.7zM363 610.7c3 .2 6.1.5 7.3 4-20.4.5-38.6 9.1-57.3 15.9-13.8 5-26.3 13.4-40.9 16.5-2.6.5-5.1 1-7.7.4 12.4-12.7 26.4-22.6 44.6-25.4 7.2-1.1 14.4-2.7 21.5-4.4 3.3-.8 7.1-1.4 8.4-5.5 5.5.4 10.4-1.9 15.6-3 2.6 1.9 5.6 1.6 8.5 1.5z"/><path d="M28.8 153.5c3.2-1.5 6.5-3.1 9.7-4.6 19.5-.1 20.8 15.7 24.9 29.2 1.3-6.3 4.9-10.2 9.5-13.4 3.6 3.4 3.6 8.1 4 12.4.3 2.8-3 6.3.3 8.4 3 1.9 4.4-2.9 7.1-3.4.5-.1.9-.2 1.4-.3 0 1.2.2 2.4 0 3.5-.8 3.5-3.4 5.7-6.6 6.8-3.4 1.2-3.2-2.7-4.9-4-2.9-2.4-5.1-7.2-8.8-6.6-10 1.6-12.6-6.4-14.6-12.1-2.2-6.4-4.9-8.5-11-7.4-12.7-2.5-12.7-2.5-20.5 9.4-.8 1.3-2 1.9-3.5 1.9-1.1-5.4 2-9 5.5-12.4 2.6-2.3 5-4.9 7.5-7.4zm507 170.1c1.6 9.5 9.9 14.6 14.5 22.1-2.3 3.1-5 1.9-7.6.6-22.7-11.4-37.7-46.4-30.7-71.2.2-.6.9-1.1 1.3-1.6 1.9 1 2.4 2.6 2.7 4.6 1.4 9.1 3.8 18.1 7.4 26.5 2.9 7 4.9 14.9 12.4 19zM152 165.8c-2.3.8-4.1-1-6.2-1.1-3-4.7-7.1-7.4-12.9-7.1-1.9.1-3.7-.3-5.2-1.6-7.6-7-16-6.9-24.8-2.6-3.3-2.2-6.6-3.8-10.7-4.6-7.8-1.5-16.5-1.2-22.2-8.4 8.6-6.5 18.7-6.5 28.3-5.1 12.1 1.7 23.3 6.3 30.5 17.2 3 4.5 6.5.3 9.6 1 5.8 2.7 11.4 5.8 13.6 12.3z"/><path d="M535.8 323.6c-7.5-4.1-9.5-12-12.4-19-3.6-8.4-5.9-17.4-7.4-26.5-.3-2-.8-3.7-2.7-4.6.4-1.5.7-2.9 1.1-4.4 2.7.1 3.1-2.4 4.3-3.9 3.4-4.1 4.3-9.8 8.6-13.3 3.9.5 7.8 1.1 11.7 1.6-2.5 7.9-7.2 14.7-9.2 23-2.8 11.9-4.1 23.1 2.4 34.3 2.1 3.7 3.9 8.1 3.6 12.8zm71.7-123.1h-8.6c-7.1-9.1-15.6-14-27.5-9.2-1.2.5-2.8.4-4.1.5 5.6-8.7 14.6-12.1 23.8-15 4-1.3 8.1-2.4 12.1-3.6 1.9 2.2 4.7 2.2 7.1 3.2.4 1.1.7 2.2 1.4 3.2 3.6 5.8 5.9 11.2-2.4 15.2-2.6 1.2-1.7 3.7-1.8 5.7zm46.9-11c-1.4-.1-2.8-.1-4.2-.2-.3-.2-.7-.3-1.1-.4-2.5-3.8-6.2-4.3-10.3-3.8-.5-.6-1-1.1-1.5-1.7-1-3.8-1.9-7.6-2.9-11.4 16.9-6.6 29.3 5.8 32.8 18.6-4.2-.3-8.3-2.4-12.8-1.1zm-316.6-13.1c-4.5-4.4-6.1-10-6.2-16.1-.1-8.1 0-16.1 0-24.2 11 7.3 12.9 18.7 13.6 30.4.3 4.7-2 8.8-7.4 9.9zm89.4 65.1c2-4.5 6.5-3.5 9.8-3.6 7.2-.3 12.5-4.2 17.6-8.2 10.9-8.4 22.9-15.5 32.3-25.9.5-.6 1.8-.5 2.7-.7.3 3.2-1.6 5.3-3.6 7.3-8.7 8.8-17.9 17-28.6 23.3-9.2 5.6-19 9.6-30.2 7.8zM412.5 624c2.2-1.4 4.3-2.9 6.6-4.1 2-1 5-1.3 5.7.9 1.7 5.8 6 7 11.1 7.9 4 .7 4.7 4.1 4.4 7.7-3 5.3-1 10.6-.2 15.9-2.7-.1-4.7-1.8-5.6-3.9-4.7-10.5-13.6-17.2-22-24.4zm-28-7.7c-.5-4.1 1.3-7.5 3.4-10.6 3.5-5.1 6.7-10.3 9.2-16 .4-1 .3-2.6 1.9-2.5 1.7.1 2.3 1.5 2.5 3 .2 1.9.6 4 0 5.7-3.4 9-2.3 17.3 2.9 25.3-6.6-1.8-13.3-3.3-19.9-4.9zM137.3 399.2c2.1 5.6 2.1 10.5-1.9 15.8-8.2 11.2-12.8 24.3-18.2 37h-1.4c-.2-2.7-2-4.3-4.2-5.6 6.1-10.6 12.1-21.2 18.2-31.9 3-4.9 5.9-9.8 7.5-15.3z"/><path d="M654.4 189.5c4.5-1.3 8.6.9 12.9 1.2 2.3 7.9 4.1 16 4.1 24.3-5.3 0-8-4.2-10.3-7.7-3.5-5.4-6.1-11.3-6.7-17.8zm-82.1 275.9c-8.8-12.4-16.9-25-19.2-40.5 9 9.4 16.2 19.8 19.1 32.8.6 2.6 1.4 5.1.1 7.7zM634.6 172c1 3.8 1.9 7.6 2.9 11.4-4.7.7-8-2.1-11.1-4.8-5-4.3-10.2-5.1-16.1-2.2-2.4-1-5.2-1-7.1-3.2 10.3-3.8 20.7-6.4 31.4-1.2zm-107.3 79.9c-4.3 3.5-5.2 9.2-8.6 13.3-1.3 1.5-1.6 4-4.3 3.9-.2-10.4 5.2-18.8 10.4-27.1 2.9-4.5 6.3-8.7 9.5-13l.4.4c-1 7.9-6.3 14.5-7.4 22.5zM144.4 394.8c-3-.5-5 1.6-7.2 3 4-10.5 11.5-18.9 16.9-28.5 1.7-3 3.9-5.8 5.9-8.7 1 7.9-2.2 14.7-5.8 21.4-5.8 2.3-9.4 6.3-9.8 12.8zm354.2 285.3c2.1-4.8 7.8.1 10.2-3.9 8.5-1.7 17.2-.4 25.7-1-1.5 3.5-3.9 6.2-7.9 5.8-9.2-.7-18.7 2.1-28-.9zM378.7 103.3c-2 3.5-2.7 7.4-2.9 11.4-.4 7.3-3.5 12.7-11.2 14.3 1.6-11.6 7.8-21.3 12.8-31.4h1.3c.1 1.9 0 3.8 0 5.7zM546 213.5c2.6 8.9.9 18 1.4 27-2.8-1.3-3.9-3.6-4.7-6.4-1.1-3.9-3.7-5.8-7.9-4.7l-.4-.4c3.3-5.6 7.2-10.8 11.6-15.5zM102.9 316.3v2.6c-11.7-3.3-21.8-9.2-29.9-18.4 11.3 3 20.4 9.7 29.9 15.8zm77.2-107.2c-1.6-1.3-3.2-2.7-5-3.8-2.6-1.7-5.7-3.2-4.7-6.9 1-3.8 4.8-1.5 7.3-2.4 4.8 3.1 10.3 5.8 8.8 13.2-2.2 0-4.3-.1-6.4-.1zM500 173.3c2.8-.8 3.9-4.2 7-4.4-1.3 7.1-2.2 14.4-7.4 20.2-2 2.3-4 4.7-7.6 4.6.6-2 1.1-3.9 1.7-5.9 7.6-2.4 4.3-9.6 6.3-14.5zm139 138.6c5.6 1.2 9.3-3.9 14.5-4.1-2.5 6.8-7.3 11.7-13.2 15.6-2.2-3.6-1.2-7.6-1.3-11.5zm-54.6 181.8c-6.9-5.6-8.2-13.6-9.8-21.6 9.4 4.4 10.3 12.7 9.8 21.6zm-75.9-328.9c-7.8-.8-8.4-2.2-4.3-10.2 2.6-.3 2.9 3.7 5.6 3.2.6 2.5-.2 4.7-1.3 7zm-69.4 136.5c-5.7 1.4-9.4-1.3-12.2-6 5.5-.8 10.7-1.1 12.2 6zM510.4 79v-7.2c4.2 3.3 8.5 6.7 6.8 13.1-3.8-.2-4.7-3.8-6.8-5.9zM111.7 446.4c2.2 1.3 3.9 2.9 4.2 5.6-2.9.6-5.2 4.9-8.7 1.4.8-2.7 2.2-5.2 4.5-7zM402.6 66c3.1.5 3.8 2.4 2.8 5-.6 1.6-2 3.5-3.4 3.1-3.6-1-1.2-4.3-1.9-6.5.5-1.2 1.5-1.5 2.5-1.6zM39.9 162.1c6.1-1.1 8.8.9 11 7.4 2 5.8 4.6 13.7 14.6 12.1 3.7-.6 5.9 4.3 8.8 6.6 1.6 1.4 1.5 5.3 4.9 4 3.2-1.1 5.8-3.3 6.6-6.8.3-1.1 0-2.4 0-3.5 0-1.9.1-3.7.1-5.6 2.6-.1 4.9-.3 6.1 3.2 1.1 3.3.7 5.5-2 7.4-1.7 1.1-3.3 2.4-2.5 4.6 1.6 4.5 1.5 9.7 4.5 14.4 3.9-5.4 2.8-11.9 6.4-17.4 3.2 10.5 2.7 21.4 6.9 32.3 4.4-8.1 12.1-8.2 17.9-11.6 4.4-2.6 6.3-1 8.2 3.1 1.9 4.2 3.7 8.4-1.4 11-5.1 2.6-3.8 5.3-1 8.1 8.7 8.6 7.9 17.9 2.6 27.7-7.2 2-14.3 4.5-22.1 2.9-2.1-.4-4.2.6-2.6 3.2 3 4.7 1.1 8.6-1.1 12.6-1.1 2-2.2 4.1-.2 6.3 2.6-.9 2.6-3.5 4-5 1.5-1.6 3.5-1.6 4 .3 2.1 6.8 9 9.6 12.3 15.4-4.3 2.4-7.3-.2-10.4-2.6-2.2-1.7-3.5-4.5-6.8-4.6l-.6-.3.6.3c-.4 1.7 1 4.4-1.5 4.9s-2.6-2.1-2.9-4c-.2-1.8-1.2-3-2.9-3.8-4.1-5.3-4.4-11-.4-16.3 4.1-5.4 2.7-6.3-3.6-6.8-15.9-1.2-21.5-7-24.9-22.5-.9-4 .3-5.8 3.4-7.4 1.9-1 3.9-1.8 5.7-2.9 6.6-4 7.1-6.6 1.3-11.8-4.5-4-6.1-9-6.9-14.4-.6-3.4-2.3-5.3-5.2-6-5.2-1.1-8.2-4.3-10.1-9.1-.9-2.3-2.1-4.3-5.1-4.2-3 .1-3.9 2.2-4.5 4.6-1.4 5.1-5.3 7.1-10 7.9-4.4.8-7.2-.8-8.3-5.5-1.7-7.3-2.9-14 5.7-18.1 5-2.2.6-6.7 1.4-10.1zm76.2 94.2c4.7-.2 6.3-2.4 4.7-7-.8-2.2-2-4.3-3.1-6.4-.8-1.5-.2-4.3-2.8-4.2-1.9.1-2.1 2.3-2.9 3.7-.9 1.6-1.9 3.3-2.5 5.1-1.7 5 1.3 9 6.6 8.8z"/><path d="M61.5 232c-7.7 4.6-12.2 1.1-15.3-6-.4-.8-1.1-1.5-1.7-2.3-6.7-9.3-7.7-9.4-12 .9-2 4.7-3.6 4.8-6.5 1.2-1-1.3-2.1-2.5-3.1-3.8-2.6-9.4-5.2-18.8-5.1-29.3 6.7 4.9 13.8 8.9 17.8 16.5 3.1 5.8 7.4 1.8 10.9.6 2.2-.8 3.9-3.3 5.8-5.1 2.9-2.9 5.6-6.2 10.2-2.4 4.5 3.8 6.6 10.7 3.1 14.4-4.2 4.6-4.3 9.7-4.1 15.3zm47.1 55.7c3.3 0 4.6 2.9 6.8 4.6 3.1 2.4 6.1 5 10.4 2.6 5.4.7 7.8-2.2 8.6-7 .5 0 .9-.1 1.4-.1 7.5-1.1 11.7 6.5 18.6 7.1-9 11.2-17.7 13.2-31.1 6.5-6.7-3.3-12.8-4.2-19 .6-.9-1.4-1.9-2.9-2.8-4.3v-12.8c1.7.7 2.6 1.9 2.9 3.8.2 1.9.3 4.4 2.9 4 2.4-.6 1-3.3 1.3-5zm370.2 71.5c13.3-.9 29.1 19.6 29.8 30.3.5 7.1 2.5 14 1.6 21.2-.4 6.8.5 12.9 4.9 18.7 6.6 8.7 16.5 14.8 19.8 26.9 1.8-3.9 1.9-6.8 2.7-9.4 1.3-4 .9-9.5 6.9-10.5v1.4c.1 7.5-.8 15.1 1.5 22.5 1.6 5.2 5.6 9.2 7.3 14.5 4.9 15.7 11.5 30.9 14 47.4-4-1-7.2-4-11.4-4.3-1.8-2.2-.8-6.8-4.9-6.9-4.3-.1-3.4 4.4-4.9 6.8-.4.6-.3 1.4-.6 2-1.2 2.3-3.2 2.7-5.4 2.1-2.2-.7-2.9-2.2-1.9-4.4 1.1-2.4.2-4.6-.9-6.7 0-1.8-.8-3.3-2.2-4.3-3.8-2.8-3.6-5.8-1.5-9.9 6.2-12.1 0-32.5-12.1-39-3.5-1.9-8.8-5.2-12.3-2.3-4.4 3.6-.5 8.4 1.7 12.2 3.9 6.6 4 13.4 2.2 20.4-.8.4-2.2.8-2.3 1.3-1 7.7-5.5 13.3-10.6 18.7h-2.9c-.7-3.2-1.9-6.3-1.4-9.6.7-4.7-1.4-7.6-5.7-9-.8-5.3-2.2-10.6 5-13 1.9-.6 2.3-2.8 1.1-4.9-3.9-6.5-4.8-14.3-9.3-20.7-3.5-5.1-3.7-11.4 1.2-15.5 7.6-6.4 8.2-14.4 7.7-23.2-.1-1.8.8-4.1-1.5-5.1-2.2-1-3.3 1.1-4.8 2.2-12.6 9.2-12.4 22.3-10.1 35.4 3 17.2 2.3 19.3-14 24.7-1.6.5-3.2 1-4.7 1.6-4.1 1.6-6.3 4.8-7.6 8.8-.9 2.7 1.6 7.9-3.7 7.5-4.4-.3-6.6-3.9-6.6-8.7 0-2.5-.8-5.1-1.3-7.6 14.4-2.3 20.2-9.4 11.4-21.2-3.7-5-6.7-12.7-15.7-10.3-5-1.8-2.8-4.5-.8-7 2.3-2.8 5.3-4.5 8.5-1.5 1.9 1.7 3.2 4.1 4.9 6 4.1 4.7 10.1 4.7 15.9.2 4.7-3.7 2.8-7.5.1-11.1-2.1-2.8-3.1-5.8-3-9.3 0-2.2-.5-4.6-2.7-5.4-3-1.1-3.3 2-4.3 3.6-1.2 2-2.8 3.9-5.1 2.4-3.2-2.2 1-2.7 1.5-4 1.2-3.1.7-6.3-2-7.5-3.5-1.6-4.4 1.5-4.5 4.3-.1 2.3-1.1 3.4-3.4 3.6-3 .3-6 1-9.1 1.3-1.8.2-4.1.8-5.3-1-1.4-2.1-1.2-4.7-.1-6.8.8-1.6 2.3-3 3.7-4.2 4.3-3.8 5.2-8.3 4.5-13.9-1.5-11.2-2.2-22.5-3.2-33.8 1.4-1 2.9-2 4.3-3 8.7.4 13.3 8.5 20.8 11.3 1.4.5.8 3.5.1 5.3-1.1 2.5-.8 5.1-.9 7.7-3.8.6-8.6-2-11.1 2.6-2.1 3.9-5.5 8.3-.1 12.7 4.3 3.5 9.7 2.6 14.1-2.4 1.7 0 3.4-.2 5 .2 2.8.6 5.9 1.9 6.4-2.6.5-4.1-1.3-6.9-5.6-7.5-1.9-.2-3.8-.1-5.7-.1l-1.4-1.4c4.7-4.8 4.4-10.3 1.7-15.9.9-.2 1.5-.6 1.7-.4 6.2 6.3 6.2 6.3 16.6-2.5zm-181.5 54.3c-1.7-.5-2.9-3.4-4.8-2s.1 3.4.7 5.1c.4 1.3.9 2.7 1.3 4-3 3.8-4.5 8.2-5.9 12.7-1.6 5.1-5 9.6-10.1 9.7-7.2.2-7.3 3.9-6.9 9-.5 2.8-1.5 5.6-1.3 8.3.5 6.4-1.7 9.7-8.4 10.4-6 .6-7.2 4-3.6 8.6 2.5 3.2 4.5 6.7 3 10.4-1.8 4.4-6.3 2.3-9.5 2.1-6.7-.4-10.3 2.3-11.8 8.6-.6 2.5-1.8 4.9-2.7 7.3-8.1 5.5-15.4 11.4-16.5 22.5-.4 4.5-4.7 6.1-9.2 6.1-6.2.1-7.3-3.8-7.3-8.9 0-1.9-.6-4.2-2.5-4.6-2.5-.5-3.5 1.8-4.4 3.8-1.8 4-1.9 8.3-1.5 12.5 1 9.4 4.9 11.6 13.6 7.7 1-.5 2.3-.4 3.5-.5 3.8 2.3 6.5 5.5 8.4 9.5 4.7 9.7-1.8 31.6-11.3 36.7-3.8 2-10.2 2.7-11.2-1.8-1.7-7-5.5-14.8-.1-22.2 1.9-2.6 2.1-5.3.4-8-1.8-2.9-4.7-2.9-7.6-2.7-3.4.3-4.2 2.5-4.2 5.5 0 2.1-.9 3.6-2.9 4.5.1-13.4-5.2-23.4-19.1-28.6 8.9-4 12.8-9.6 12-18.4-.4-4.9-.2-9.9 0-14.9.3-10.4 1-11.1 11.4-11 2.5 6.8 7.3 9.8 14.6 10.1 18.3.6 24.7-13.1 32-25.9 4.5-7.8-3.4-11.6-5.8-17.2-.4-.9-.5-1.8-.8-2.7 7.2-4.2 6.1-12.3 8.4-18.7 1.1-3.1 2.7-6.3 5.9-6.2 3 .1 2.3 4.1 3.7 7.2.8-4.1 3.4-6.4 6.2-6.2 9.3.6 10.3-6.6 12.9-12.4 2-4.6-1-8.7-2.1-12.9-.7-2.8-3.7-2.3-6.1-1.8-1.3.3-1.4-.9-1.9-1.6-3.6-5.8-7.6-11.5-4.2-18.8.6-4.6 4.2-5.1 7.8-5.7 6.5-1.1 11.4 2.2 16 6 9 7.4 10.6 7.1 16.2-3.2 5.1 1 5.6 5 5.7 9 .1 6.6 0 13.1 0 19.6z"/><path d="M271.6 452.1c-.5-5.1-.3-8.9 6.9-9 5.2-.1 8.6-4.7 10.1-9.7 1.4-4.5 2.9-8.9 5.9-12.7 4.4 1.2 7.3 4.1 8.7 8.5-13.3 3.4-13 14.4-7.2 24.6 1.4 2.4 2.5 1.7 4.5.6 10.9-6 12.8-14.2 5.5-25.1 3.5-2.1 7.6-2.1 11.1-1.2 6.4 1.6 12.6 1.2 18.9-.2-3.7 4.1-7.7 7.2-13.9 6.1-3.9-.7-6.2 1.3-6.1 5.7.1 7.2 5.5 10.4 12.2 7 7.8-3.9 10.3-10.6 9.2-18.9.2-20.3 10.8-34 28.6-37.1 3.7 6.4 9.1 5 14.3 2.8 3.9-1.7 6.2-1.4 7.4 3.1.9 3.4 2.8 6.1 7 5.5 6.5-.9 9-5.7 10.8-11 1.7-5-.1-9.5-4.8-11.3-9.1-3.6-10-11-10.5-19 8.3 0 8.3 0 18.1 8 .7-3.7 1.5-7 1.9-10.3 1.7-13.1 3.9-15.1 17-14.8 1.8 3.9 2 8.6 5.8 11.4 1 11.3 1.7 22.6 3.2 33.8.8 5.7-.2 10.1-4.5 13.9-1.4 1.3-2.9 2.6-3.7 4.2-1.1 2.1-1.3 4.8.1 6.8 1.2 1.8 3.5 1.2 5.3 1 3-.3 6-1 9.1-1.3 2.4-.2 3.3-1.3 3.4-3.6.2-2.8 1.1-5.9 4.5-4.3 2.6 1.2 3.2 4.4 2 7.5-.5 1.4-4.7 1.8-1.5 4 2.2 1.6 3.8-.4 5.1-2.4 1-1.7 1.3-4.7 4.3-3.6 2.2.8 2.8 3.2 2.7 5.4-.1 3.5 1 6.5 3 9.3 2.7 3.7 4.6 7.5-.1 11.1-5.8 4.5-11.8 4.5-15.9-.2-1.7-2-3-4.3-4.9-6-3.3-2.9-6.2-1.3-8.5 1.5-2 2.4-4.3 5.2.8 7v4.3c-2.3 2.8-9-1.1-8.5 5.7-5.4-.9-4.5-4.2-3.2-8 2.3-6.5 3-13 2-20-.9-6.5-2.7-4.4-5.8-1.6-1.7 1.5-2.9 5-6.3 2.7-2.9-2.1-2.7-4.3-.8-7.3 1.9-3 2.4-7-1.9-8.2-3.4-.9-7.8-2.4-8.7 4.5-1.1 8.7-7.7 13.4-15.4 16.5-6.5-8.2-7.7-17.8-6.1-28.4-8.8 3.3-9.8 10.5-10.3 18.5-1.4-1.2-2.1-1.6-2.3-2.1-.5-1-1-2.2-1.2-3.3-1.5-8.3-1.5-8.3-8.9-4.6-1.9 1-3.9 1.8-5.7 2.9-2.8 1.8-6 3.7-5.3 7.7.7 3.8 2.3 7.3 7 7.9.9 1.9 2.4 3 4.4 2.8 7.3-.9 7 2.4 4.4 7.4-.4.8-.2 1.8-.3 2.8-5.8 1.1-8.2-3.9-11.8-6.6-6-4.4-6.4-4.3-8.5 2.9-3.2 10.9-9.4 19.6-21.1 21.7-5.6 1-9.1 2.9-11.4 7.7-5-1.3-10.3-1.8-14.1-6-1.8-2-4-.6-5.9.3-3.9-1.1-6.6 2.3-10 2.9-1.8-.8-2.7-2.3-2.9-4.3-.6-4.3-3.2-6-7.2-5.9zm138.6-65.9c.4 1.7-1 4.4 1.7 5.4 2.3.8 3.3-1.2 4.3-2.9 1.5-2.6 3.6-2.1 6.2-1.5 4.5 1 5.6-1.4 4.1-5.4-1.7-4.5-5-6.4-9.6-5.3-4.8 1.1-7.1 4.5-6.7 9.7zm-265.8 8.6c.3-6.5 3.9-10.6 9.8-12.8.7 11.4 5 17.8 13.1 17.7 4.2 0 8.5-2.1 12.7-3.2v6.9c0 9.7-5 17.7-9.5 25.7-7.7 13.6-2.5 28 12.3 33-1.9 9-5.9 17.6-4.3 27.2-1.4 5-5.2 8.2-8.4 12-5.5 6.5-11.8 13.4-7.6 22.8 3.4 7.5-.1 11.6-5.3 15.6-1.8 1.4-3.9 2.6-5.9 3.8-1.4-.4-2.9-.9-4.3-1.3 0-3 2.3-4.6 4.2-6.3 5.7-5 4.8-11.6 4-17.9-.5-4.2-6.1-6-7.9-2.9-2.9 5.1-8 6.5-12.5 8.7-3.7 1.8-5.4 4.1-5 8.3.6 6.2-.3 12.2-3.6 17.7-1.9 3.2-2.2 6.7.8 9.6-.1 1.4-.2 2.9-.2 4.3-4.1.5-6 3.6-7.5 6.9-1.6 3.6-4.1 5-7.9 4.4 0-2.4-.1-4.7-.1-7.1 2-1.9 2.1-4.6 3-7 4.4-12.1 6.8-25.1 14.4-35.8 3.3-4.6 4.5-9.1 4-14.4 3.5-10.1 4.6-20.7 6-31.2 1.8-13.8 9.3-25.7 14-38.5 2.4-6.7 5-13.2 5.7-20.4.5-2.4 1.1-4.7 1.6-7.1 3.5.3 6.4-.3 5.5-4.8-.8-4-4.8-7.4-7.4-5.8-8.5 4.9-10.2-.6-12.5-6.4 0-.7-.7-1.1-1.2-1.7zm9.8 65.3c-.7-.1-1.4-.2-2.1-.2-2.8 9.8-6.3 19.4-7.6 29.7-.4 2.9.8 5.2 4.2 5.4 2.6.1 5.4-.3 5.4-3.2.3-10.7.1-21.2.1-31.7zm87.4-99.5c-3.1-2.4-2.7-3.9.7-6.2 7.8-5.4 16.2-9.8 23.1-16.6 5.3-5.2 9-10.9 9.8-18.5 1.1 3.5 1.1 7 2 10.5 3.2 11.8 4.2 12.7 15.9 10.8.2 2.1.9 3.8 3.2 4 2.4.2 2.1-1.9 2.7-3.4 1.2-2.8 3.6-3.9 6.4-2.9 3.3 1.2 6.6 1.1 9.9.8 6.6-.7 11.5 2.4 16 6.2 3.9 3.3 5 6.7-.4 10.1-3.8 2.4-7.3 5.5-6.3 11-3.6 2.7-7.7.7-11.5 1.4-9.8-4.2-20.2-6-30.4-8.8-3.9-1.1-7.8-1.8-10.9.5-4.4 3.2-7.6 5.8-11.8-.6-1.7-2.6-6.2-1.3-9.4-.5-3.1.7-6.1 1.5-9 2.2z"/><path d="M313 367.8c3.8-.7 7.9 1.3 11.5-1.4 10.9-.3 10.9-.3 15.6 11.4.3 2.5-.1 4.9-1.4 7.1 0 16-2.7 21.6-13.4 23.6-7.3 1.4-14 2.3-19.6 8.2-3.1 3.3-6.4.2-8.5-3.1 0-6.5.1-13.1 0-19.6-.1-4.1-.5-8.1-5.7-9v-2.8L290 375c2-3.9 4.2-4.5 8.2-1.8 5.5 3.5 11.4 1 14.8-5.4z"/><path d="M313 367.8c-3.5 6.4-9.3 8.9-14.7 5.2-4-2.7-6.2-2.1-8.2 1.8-4-.6-2.4-3.9-2.9-6.2-.6-2.8-2.2-4.7-5.1-5.1-2.7-.4-5.9-.1-6.9 2.4-1.5 4.2-1.9 9 .3 13 2.1 3.8 6.4 4.4 10.6 4.1 1.8-.1 3.7-.7 5.5-1.1v2.8c-5.6 10.3-7.2 10.6-16.2 3.2-4.6-3.8-9.5-7.1-16-6-3.6.6-7.2 1.1-7.8 5.7-6-.1-9.3 1.4-7.5 8.8 1.9 7.6-3.5 11.4-9.6 14.1 0-2.4-.1-4.8-.1-7.2-.3-2.4 1-5.1-1.4-7.1.1-1.8.1-3.7.2-5.5 8-3.1 9.9-9.6 9.9-17.3.7-3.5-1.7-6.4-1.6-9.8 0-1 .1-2.1.1-3.1 3-.8 5.9-1.5 8.9-2.2 3.3-.8 7.8-2.1 9.4.5 4.2 6.4 7.4 3.8 11.8.6 3.1-2.3 7-1.5 10.9-.5 10.2 2.9 20.7 4.7 30.4 8.9zm27.1 10c-4.7-11.6-4.7-11.6-15.6-11.4-1-5.4 2.5-8.5 6.3-11 5.4-3.5 4.3-6.8.4-10.1-4.6-3.9-9.5-7-16-6.2-3.2.4-6.6.4-9.9-.8-2.7-1-5.2.1-6.4 2.9-.6 1.5-.3 3.6-2.7 3.4-2.3-.2-3-2-3.2-4 .1-1.6-.3-3.6 1.9-4 11.3-2.2 15.8-11.5 20.8-20.2.6-1.1-.4-3.1 1.4-3.6 2-.6 2.9 1.3 3.8 2.5 2.2 3.1 4.4 6.4 4.7 10.2.2 3.3 1.9 5.7 3.2 8.4 2 4.1 4.2 4.9 7.4 1.3 2.4-2.6 5-4.5 8.6-2 4.3 2.9 10.3 5.8 9.1 11.5-1.7 8-.4 14.8 3.4 21.6-3.2 5.5-5.2.8-7.4-1-2-1.5-3.4-4.3-6.5-2.6-3.1 1.8-3.7 4.7-2.9 7.9.5 2.5 2.3 4.9-.4 7.2zm50.1-17.2c.5 8 1.4 15.5 10.5 19 4.7 1.8 6.5 6.4 4.8 11.3-1.8 5.3-4.4 10.1-10.8 11-4.3.6-6.1-2.1-7-5.5-1.2-4.5-3.5-4.8-7.4-3.1-5.2 2.2-10.6 3.6-14.3-2.8.7-4.9 5.6-5.2 8.3-7.9 1.8-1.8 5.2-3 3.6-6.8-1.6-3.7-4.2-1.6-6.6-1.2-4.4.7-7.6-.8-8.1-5.6-.5-5.7 4.1-4.3 6.9-4.1 4.3.4 7.6-2.4 11.5-3h5.7c1-.3 1.9-.8 2.9-1.3zm-72.9-64.3c-.2-5.5 2.4-7.8 7.9-7.2 5.6.6 10.8-1.3 15.9-2.9 6.7-2.2 13.2-2.3 18.8 2.2 2.7 2.2 4.8.6 7.3.1 9.5-1.7 18.6-1.3 25.8 6.4-2.9 2.4-6.8 1.4-10 2.9-3.5 1.7-7.4 3.3-8.2 7.2-1.5 6.6-3.8 2.9-5.7.7-1.3-1.5-2-3.7-2.7-5.7-3-8.4-5.6-9.9-14.4-7.5-4.1 1.1-8.3 2.3-12.1 4-7.6 3.6-15.1 3.1-22.6-.2z"/><path d="M387.3 362h-5.7c-.9-1.4-1.6-3-2.8-4.1-5.8-5.6-7.8-16.2-4.2-23 1.1-2.2 2.9-3.8 5-2.2 2.9 2.3 6.3 1.7 9.4 2.5 4.9 1.2 9.2 3.1 8.2 9.4-.5 3.4 2.4 6 2.4 9.5-12.2-2.8-12.2-2.8-12.3 7.9zM200 383.4c4.8-10.7 14-13 24.4-12.9.6 3 .9 6.1 1.8 9 1.1 3.4.1 5-3.3 5.4-6.1.7-7.9 4.5-7.2 10-3.7.6-4.1 3.5-4.3 6.4-.4 5.4-3.1 5.7-7.2 3.6.7-7.6-1.2-14.6-4.2-21.5z"/><path d="M215.8 394.9c-.7-5.5 1-9.3 7.2-10 3.4-.4 4.4-2 3.3-5.4-1-2.9-1.3-6-1.8-9 5.3-3.2 11-5.5 17.1-6.8-.1 3.4 2.3 6.3 1.6 9.8-12.3 6.3-13.4 8.3-9.9 17.3-.1 1.8-.1 3.7-.2 5.5-5.5 2.4-10.2 7.5-17.1 5.8-.1-2.4-.2-4.8-.2-7.2zm124.3-17.1c2.7-2.3.9-4.6.3-7.1-.8-3.2-.2-6.2 2.9-7.9 3.1-1.8 4.6 1 6.5 2.6 2.2 1.8 4.2 6.5 7.4 1 5.4 5.1 3.4 16.2-3.4 18.5-5 1.7-10.1 2.3-15.2.2 1.5-2.4 1.8-4.8 1.5-7.3zm-34.2 51.4c7.3 10.8 5.5 19.1-5.5 25.1-2 1.1-3.1 1.8-4.5-.6-5.8-10.2-6.1-21.2 7.2-24.6.9 0 1.8.1 2.8.1zM200 383.4c3 6.9 4.9 14 4.4 21.5-4.2 2.4-7.8 1.8-9.7-2.9-1.1-2.7-2.2-5.8-5.5-5.3-3.4.5-5.6 3.1-6.2 6.8h-2.9v-6.9c6.6-4.4 13.3-8.8 19.9-13.2zm137.3 44.3c1.1 8.3-1.5 15-9.2 18.9-6.7 3.4-12.1.2-12.2-7-.1-4.3 2.1-6.4 6.1-5.7 6.2 1.1 10.2-2.1 13.9-6.1.5-.1.9-.1 1.4-.1zm121.5-49.9l1.4 1.4v10c-4.4 5-9.8 5.9-14.1 2.4-5.3-4.3-2-8.7.1-12.7 2.4-4.6 7.3-1.9 11.1-2.6l1.5 1.5zM433 355c-3.8-2.9-4-7.6-5.8-11.4.1-3.1.6-5.8 4.6-5.7 3.3.1 4.5 2.6 5 5.1.6 3 .4 6.1.5 9.1-1.4.9-2.8 1.9-4.3 2.9zM111.6 574.9c3.8.6 6.3-.7 7.9-4.4 1.4-3.2 3.3-6.4 7.5-6.9.1 6.1.2 12.3.4 18.4-2.8 5.7-3 10.3 4.4 12.5 1.7.5 4.3 2.2 4.3 3.2-.3 11.1 6.8 12.7 15.4 12.9v2.8c-1.9 0-3.9 0-4.4 2.6-2.3 11.2-11.3 11.1-19.9 11.7v-2.8c-.2-2.7.5-5.1 1.5-7.6 2-4.9 0-8-4.9-6.5-8.6 2.8-9.7-1.6-11.5-8.4-1-3.9 2-9.5-3.7-11.9 3.1-4.7 3-10.2 3-15.6zm21.3-64.3c.5 5.3-.7 9.7-4 14.4-7.6 10.7-10 23.7-14.4 35.8-.9 2.4-1 5.1-3 7-2-1.6-2.6-3.8-2.9-6.3-.6-5.2-1.2-10.3-3.4-15.1-1.2-2.5-1.8-5.6-.3-7.6 7.2-9.3 7.8-21.4 13.8-31.1 4.5 2.2 9.7.6 14.2 2.9z"/><path d="M108.7 590.7c5.7 2.4 2.7 8 3.7 11.9 1.7 6.8 2.9 11.2 11.5 8.4 4.9-1.6 6.9 1.5 4.9 6.5-1 2.5-1.7 4.9-1.5 7.6-4.6 5.1-8.3 3.4-12.3-1-2-2.2-5-3.5-7.3-5.4-3.6-2.9-5.3-6.1-3.4-11 1.8-5.6 2.9-11.4 4.4-17zM307.3 212c9.6-3.4 16.2-9.4 17.1-20.1.2-2.7-.7-6.5 3.3-6.7 4.6-.2 3.7 3.9 3.8 6.8.1.9 0 1.9 0 2.8-3.9 12.6-12.7 20.6-24.5 25.9-3.7 1.6-7.2 3.6-10.7 5.7-8.8 5.4-16.9 5.3-25-1.3-6.1-4.9-11.3-10.8-17.2-16-4.1-3.7-7.4-8.7-7-15 .1-1.2 0-2.9-1.3-3.1-8.3-1.1-8.2-8.1-10-13.8-1.4-4.3-2.6-7.6-8.9-5.9-5.8 1.6-8.8-4.2-11.1-8.3-5.6-9.7-9.2-20.3-11.5-31.2-.4-1.9.9-4.7-2-5.4-2.1-.5-3.3 1.5-4.7 2.7l-3.3 2.7v-30c0-1.9-.1-3.9.3-5.7.5-2 1.2-5 3.4-4.9 3.3.1 1.4 3.3 2 5.1 2.1 6.9 1.1 14.1 1.6 21.3 3.3 0 3.1-3.4 5-4.6 1.5-1 2.6-3.1 4.8-2.3 2 .8 2.7 2.8 2.8 4.7.2 5.5 0 11 .2 16.4.2 6.1 2 11.6 5.5 16.6 1.5 2.1 3.4 3.6 6 2.9 3-.8 2.7-3.5 2.8-5.9.2-2.9-.7-5.6-1.2-8.4-1-5.4 1.6-10.1 6.2-11.6 4.7-1.4 6.5 3.3 7.9 7.3 1 2.6 2.4 5.2 4.1 7.4 4.9 6.6 7.5 13.7 4.7 21.6 1.4 1.5 2.5.6 3.5.1 4.5-2.4 14.6-1.3 18 2 .3.3.6.8.7 1.2 1.3 6.4-1.4 12.4-4.1 17.5-1.8 3.5-7.3 2.4-11.3 1.2-2.7-.8-5.8-4.1-8 .1-2.2 4.2.6 6.3 4.2 8.2 3.5 1.8 5.6 5.1 6.6 8.9 2.2 8 7.5 13 15.6 15.1 1.8.5 3.8.8 5.4 1.8 11.1 7.8 19.2 3.3 26.3-5.8z"/><path d="M274.4 100.6c4.7 0 9.3-.7 13.3 3.3 2.3 2.3 5.3-1.3 8.1-.6-1.5 9.3-7.6 14.1-19.8 15.7-10.6 1.4-17.1 11.9-13.5 21.9.7 1.9 3.2 4.1 1 5.7-2.2 1.6-4.3-.8-6-2.3-5.8-5.1-10.5-10.7-10.6-19.2-.1-5.7-5.2-10.1-5.5-15.9 4.3 2.3 6.8 6.4 10.4 9.5 5.5 4.7 11 3.9 14.6-2.4 3.1-5.1 6.7-9.8 8-15.7zm28.6-.2c4.9-3.2 9.1 0 13.2 1.8 6.6 2.8 1.1 8.5 2.7 12.5-1.7.1-3.1 1-4.3 2.1-1.5 1.3-2.7 4-5.1 3-2.5-1.1-3.5-3.9-3.5-6.5.1-4.6-.5-8.9-3-12.9zm120.1 43c4.7-.7 9.4-1.9 14.3-1.5 2.1 4.9 5.3 9.4 4.4 15.4-.6 3.6-2.7 5.4-5.6 6.7-3 1.4-2.6-1.6-3.7-2.9-2.5-3-4-2.3-5.4 1.2-2.8 7.1 4.5 23.4 12.1 26 2.9 1 5.4-.4 5.2-3.8-.2-2.8-1.8-5.8 1.8-7.4 4-1.8 3.7 3.7 6.4 4.2.4.1.8-.3 1.4-.5-.1-.6-.1-1.3-.2-2-3-14.6-6.1-29.1.3-43.9 2.9-6.6-4.6-15-12.5-15.8-7-3.6-8.7-10.3-9.9-17.2 0-2.3-.2-4.7.1-7 1.1-8.2-.5-14.5-10-15.9 2.1-6.2 5.6-6.8 10.7-2.9 4.5 3.5 9.4 6.4 13.9 9.8 9.8 7.4 14.5 17.2 14 29.5-.4 8.2 1 16.1 5.2 23.2 1 1.7 4.3 9.4 6.7.1.5-2.1 2.4-2.7 4.6-2.1 2.9.8 5.5 2.2 8.9 1.6 3.2-.5 3.2 2.8 3.2 5.1.1 6.9 1.6 13.6 4.3 20-7 1-11.6 7.2-18.5 8.5-7.3-3-12.2.1-15.9 6.3-.1.2-.2.4-.4.6-11.8 22.2-27 19.9-41.6 2.6-5.8-6.9-10.8-14.4-15-22.4 3.1-2.3 6.4-4.3 7.1-8.6 2.3-2.4 1.2-8.3 7.2-7.1 1.1 2.6.3 7.4 3.1 7.5 4.1.3 1.5-5 3.5-7.1-.1.1.1-.1.3-.2z"/><path d="M474.5 171.9c6.9-1.3 11.5-7.5 18.5-8.5 2 3.5 3.6 7.3 7 9.9-2.1 4.8 1.3 12-6.2 14.5-5.4-6.5-12.2-11.3-19.3-15.9zm-65.8-21.4c-.7 4.3-4 6.3-7.1 8.6-6.2-.5-12.4-1-18.5-1.6.6-3.7-2.8-4.5-4.6-6.6-1.2-1.4-3.2-2.7-2.1-4.8 1.1-2.1 3.3-1.4 5.1-1.1 8.5 1.8 17 4 25.8 4 .5.6 1 1 1.4 1.5zM184.4 567.9c1.9-.9 2.9-2.4 2.9-4.5 0-2.9.8-5.2 4.2-5.5 2.9-.2 5.8-.1 7.6 2.7 1.7 2.7 1.5 5.3-.4 8-5.3 7.3-1.5 15.1.1 22.2 1.1 4.5 7.4 3.8 11.2 1.8 9.5-5 16-27 11.3-36.7-1.9-4-4.6-7.1-8.4-9.5-.4-3.3-.9-6.7-1.3-10 4.5 0 8.8-1.7 9.2-6.1 1.1-11 8.3-16.9 16.5-22.5.1 8-5.9 13.2-8.8 19.9-1.6 3.8-1.4 8 2.3 9.1 3.4.9 3.1-3.6 3.8-6.2 2.1-7.7 3.8-8.5 11-5 1.5.7 3 1.5 4.5 2.2 1.4 6.2 2.9 12.4 4.3 18.6-1.9 4.8-1.9 9.5 0 14.3-5.7 8-9.4 16.8-11.9 26.3-1.4 5.1-4 8.2-10.4 5.5-11.7-4.9-25.2 5.5-24.6 18.5-1.5 2.1-3.8 2.9-6 3.9-2.8-4-7.2-4.7-11.6-5.3-1.4 0-2.7-.1-4.1-.1-2.9-.6-5.8-1.3-8.6-1.9-2.8-2.8-6.3-3-9.9-2.4-13.5 2.3-28.6-7-33-20.3 6.5 1.2 11.1 6.3 17.1 8.5 6.5 3.1 11.8 2.2 15.7-4.2 6.6.8 4.3-7.2 8.6-8.6 5 .4 6.3-3 7.1-7 .5-1.9-.5-4.2 1.6-5.7z"/><path d="M207.5 611.1c-.6-13 12.9-23.4 24.6-18.5 6.4 2.6 9-.4 10.4-5.5 2.5-9.5 6.2-18.3 11.9-26.3 3-.2 4.8-2.1 5.8-4.6 2.2-5.7 5.2-8.3 11.8-5.8 3.9 1.5 6.9-.5 6.8-5.4-.1-4.5.3-9-.1-13.5-.5-6.6.9-12.6 4.5-18.2 2.5-3.9 5.6-5.6 9.9-2.7-.6 5.8.9 11.1 3.7 16.2 2.3 4.3 4.1 9 5.5 13.7 2.2 7.5.7 14.2-5.2 20-2.6 2.6-7.3 2.7-8.2 7.2-3.8.2-7.2 1.2-8.7 4.9-4 9.6-11.9 15.1-20.5 19.7-4.4 2.4-8.7 4.8-11.2 9.4-3.9 7.4-10.8 8.5-18 8.8-7.8.5-15.4.5-23 .6zm87-58.4c-.5-2.5-.6-6.3-3.8-6.5-2.4-.2-2 3.3-1.9 5.3.1 2.6.4 5.8 3.7 5.9 2.5.1 1.7-2.8 2-4.7z"/><path d="M288.7 567.8c.9-4.4 5.6-4.6 8.2-7.2 5.9-5.8 7.4-12.4 5.2-20-1.4-4.7-3.1-9.4-5.5-13.7-2.8-5.2-4.3-10.4-3.7-16.2h8.5c4.2 0 7 1.8 7.1 6.1.1 5.2.5 10.3-.6 15.5-1.9 9 .4 18.2-2.7 29.1 4.1-3.9 4.9-6.8 6.2-9.6 1.4-3.1 1.5-7.1 5.8-8.1 2.1 5.9 4.2 11.8 7.2 19.9 1.3-6 4.7-7.2 7.9-8.8 9.6-4.8 9.6-5 8-15.9-1.1-7.2 2.3-10.4 9.3-9 1.6.3 3.2.6 4.9.9.5 0 .9.1 1.4.1 1.7 6.8 5.3 6.6 10 2.9 2.9 4.8 1.8 11.9 8.6 14.3-.5 3.8-3.5 2.5-5.7 2.8-3-.4-4.9 1.2-6.8 3.2-1.5 1.5-2.8 3.2-5 3.8-11.9 3.3-11.9 3.3-9.6 15.1v.7c-4.3.2-6.7 3.7-10 5.7-7.5.5-14.3-3.1-21.4-4.3-1-4.6-6.2-4.9-8.4-8.1-.8-1.2-.4-3.9-2.4-3.7-2.4.3-3.2 3-3.3 5-.3 6.6-.2 13.2-.3 19.8-4.9.4-4.3-3.1-4.3-6.1-.1-6.7-2-11.8-8.6-14.2z"/><path d="M315.9 575c7.2 1.3 13.9 4.8 21.4 4.3-3 7.1-1.1 14.2 0 21.3-8.7.7-9.4 1.9-5.6 9.9-4.8-.1-9.3 1.2-13.6 3.3-4.3 2.1-8.9 3.1-13.7 2.6-1.7-.2-4.3.9-5-1.4-.6-2 1.7-3.2 3-4.4 2-2 4.2-3.7 6.3-5.6 11.9-.9 15.3-6 11.5-17.4-1.3-4.2-2.8-8.4-4.3-12.6zm-138.6 32.6c2.9.6 5.8 1.3 8.6 1.9 0 1.2-.1 2.4.1 3.5 1.7 8.7 1.7 8.7-6.7 6.6-1.9-.5-3.8-.6-5.2 1-1.4 1.6-1.3 3.5-.5 5.3 1.4 3 3 5.9 4.3 9 1.5 3.5 1 7-2.8 8.2-3.7 1.2-4.2-2-5.3-4.9-2.4-6.3-4.1-13.5-12.6-14.7-1.1-3.8-2.2-7.6-5.7-10v-2.8c2.4.8 4.9 1.3 7.3 2.3 9 3.6 12.6 2.6 18.5-5.4z"/><path d="M315.9 575c1.5 4.2 3 8.4 4.4 12.7 3.8 11.3.3 16.5-11.5 17.4 3.1-11.7 2.5-13.1-7.2-17.1.1-6.6-.1-13.2.3-19.8.1-1.9.9-4.7 3.3-5 2-.2 1.6 2.5 2.4 3.7 2.1 3.2 7.3 3.5 8.3 8.1zm-37.1 14.1c-.8 7.8 2.3 12.9 3.4 18.4.5 2.6 1.1 5.2.6 7.7-1.1 4.8-4.7 8.7-9 8.8-3.8 0-3.3-5.4-3.5-8.5-.8-9.2 1.6-17.6 8.5-26.4zm-38.7 66.4c-11.3-14.6-12.8-24.2-5.6-34.6 3.4 11.2 3.5 22.2 5.6 34.6zm114.4-46.2c-5.2 1.1-10.1 3.4-15.6 3-1.2-.2-2.4-.4-3-1.7.3-3.5 3.5-6.1 2.9-9.9h5.7c2.5 3.8 9.3 2.6 10 8.6zm-164.5.4c4.4.6 8.7 1.3 11.6 5.3-.7 4-2.9 7.3-5.3 11.4-3.3-5.7-5.9-10.8-6.3-16.7z"/><path d="M338.7 600.7c.6 3.7-2.6 6.4-2.9 9.9-1.4 0-2.8 0-4.1-.1-3.8-7.9-3.1-9.1 5.6-9.9.5.1 1 .1 1.4.1zm274.4-325.8c1 4.7 3.2 4.9 7.1 2.5 9.4-5.8 17.2-1.3 17.1 9.9 0 7.4 2.4 14.5 1.5 21.9-2.1-.2-2.6-1.5-2.8-3.4-.4-3.7-.9-7.5-1.8-11.2-1-3.9-2.2-8.8-6.8-8.9-3.9-.1-3.8 4.8-4.9 7.8-2 5.1-3.6 10.3-5.6 15.3-1.7 4.3-1.1 7.3 3.9 8.5 4.7 1.1 4.4 3.4 1.5 6.4-6.6 7-12.8 13.4-24.4 9.2-5.5-2-11.9 2.4-17.1 5.5-4.8 2.9-8.9 2.1-13.3-.6-13.1-7.9-22.3-30.2-18.6-45 .9-3.4 3.5-4.5 6.3-4.9 3.5-.5 7.1-.8 10.6.4 3.3 1.1 7.3 1.9 9.8.4 8.8-5.4 9.4.9 10.5 6.7 1.2 6.4 3.7 8.4 10.5 5.8 14-5.4 15.2-7.1 12.3-25 1-1.6 2.7-1.3 4.2-1.3zm-51.3-38.5c-9.5-.3-9.3-.2-7.7-9.7.8-4.6.6-9.5 2.9-13.8 2.1-3.9 4.3-7 9.2-3.1 5.4 4.3 8.3 1.3 9.2-4.2 1.1-6.2 3.4-5.9 7.1-2 3.1 3.2 6.6 6.1 8.2 10.9-9.2 1.3-16.2 5.3-19.1 14.6-4.2 1-5.1 6.6-9.8 7.3z"/><path d="M613.1 274.9c-1.6.1-3.3-.2-4.3 1.4-11.8 1.9-11.9 1.5-14.4-10.7-2.4-11.7-3.3-23.3-2.7-35.2 8.6 3.6 9.6 12.3 12.6 19.5 1.5 3.5 2.1 7.2 3 10.9.4 1.5.7 3.1 2.3 3.3 2.2.3 2.8-1.8 3-3.3.6-3.6 1.5-6.6 6.1-6-2.2 6.6-.1 14.4-5.6 20.1zm-78.3-45.5c4.2-1 6.8.9 7.9 4.7.8 2.8 2 5.2 4.7 6.4v5.5c-2.6 2.8-4 6.8-8.4 7.5-3.9-.5-7.8-1.1-11.7-1.6 1.1-8 6.4-14.6 7.5-22.5zm-34.6 278.4c5-5.4 9.6-11 10.6-18.7.1-.5 1.5-.9 2.3-1.3-.3 16.1 4.9 31.5 6 47.4.3 4.1 3.1 1.5 4.3.1 4-4.5 7.6-4 11.2.3 1.1 1.3 2.5 2.2 4.3 2.2 0 4-.3 8.1.1 12.1.5 6.6-2.7 9.7-8.7 10.7-1.8.3-4.2-.1-3.8 2.8.3 2.3 2.3 2.6 4.3 2.9 8.9 1.5 15 9.7 13.9 18.6-.3 2.1-1 3.8-3.3 4-2.3.2-3.5-1.3-3.7-3.5-.2-2.1-.1-4.3-.1-6.4 0-2.2-.1-4.6-2.8-5.1-3.5-.6-2.6 2.4-3 4.3-.3 1.5-.7 2.9-2.4 3.1-1.9.2-2.2-1.6-2.8-2.7-1.7-3.6-3.1-7.4-4.9-11-.9-1.7-2.4-3.6-4.2-.8-2.4 3.9-4.8 7.9-.8 12.3 6.6 7.2 9.2 17.2 16.6 23.9 2 1.8 1.7 4.4 1 6.7-.5 1.5-1 3.4-3.1 3.5-1.9.1-1.9-1.7-2.6-2.9-.9-1.7-2.4-4.2-4-3.3-7.8 4.2-5.1-2.1-5.7-5.2-.4-1.9-.6-4.1-2.7-4.6-2.2-.5-3.3 1.6-4.2 3.2-3.4 6.5-3.3 13.1.2 19.6.7 1.3 2.9 2.5 1.4 4.2-1.2 1.4-3.1.4-4.7.1-8.3-1.7-10.5-.4-11.2 7.9-.3 4-1.8 6.6-4.4 9.2-5.8 5.8-5.6 7.8 1.3 12.6 2.5 1.7 5.6 2.9 5.8 6.6-1.7 0-3.3-.1-5 .1-12.3 1-14.2-2.9-11.5-14.6 2.2-9.5 2.3-18.1-.5-27.1-1.8-6-3-12.2-4.5-18.3-1.3-8.2-4.6-15.7-7.4-23.7-2.5 1.7-4.5 3-6.5 4.2-6.1 3.6-6.1 4.5-.4 9.5.5 2.8 1 5.6 1.5 8.5-1.1.1-2.1.3-3.2.4-4-2.4-2.1-9.6-8.3-10.2-1.5-1.4-2.9-2.7-4.4-4.1 5.1-7.1 10.5-13.9 12.2-22.9 1.5-7.8.4-15.6.7-23.3.1-2.9 1-5.1 3.6-6.4 2.8-1.4 4.8.1 6.9 2 2.9 2.5 4.9 5.6 6.7 8.9 1.3 2.2 2.7 4.2 3 7 1 8.2 2.7 16.3 2.7 24.5 0 1.6-.2 3.7 2.2 3.7 1.9 0 2-1.7 2.1-3.1.3-4.5 3.4-3.9 6.2-3.2 4 1.1 6.2-.5 4.7-4-4.1-9.4-.6-18.7-.8-28-.1-2.9.8-5.2 4.1-5.5 4.3-.4 4.8-3.3 4.3-6.7-1.3-7.5-2.7-14.9-8.6-20.5z"/><path d="M500.3 660.7c-.2-3.7-3.3-4.9-5.8-6.6-6.9-4.8-7.1-6.8-1.3-12.6 2.6-2.6 4.1-5.3 4.4-9.2.7-8.3 2.9-9.7 11.2-7.9 1.6.3 3.5 1.3 4.7-.1 1.5-1.8-.7-2.9-1.4-4.2-3.5-6.5-3.6-13.1-.2-19.6.9-1.6 2-3.7 4.2-3.2 2.1.5 2.3 2.8 2.7 4.6.6 3.1-2.1 9.5 5.7 5.2 1.6-.9 3.2 1.6 4 3.3.6 1.2.7 3 2.6 2.9 2-.1 2.6-2 3.1-3.5.7-2.3 1-4.9-1-6.7-7.4-6.7-10-16.7-16.6-23.9-4-4.4-1.6-8.5.8-12.3 1.7-2.8 3.3-.9 4.2.8 1.8 3.6 3.2 7.4 4.9 11 .6 1.2.9 3 2.8 2.7 1.7-.2 2.1-1.6 2.4-3.1.3-1.9-.6-4.9 3-4.3 2.7.5 2.8 2.9 2.8 5.1 0 2.1 0 4.3.1 6.4.2 2.1 1.4 3.6 3.7 3.5 2.3-.2 3-1.9 3.3-4 1.1-8.9-4.9-17.1-13.9-18.6-2-.3-4-.6-4.3-2.9-.4-3 2-2.6 3.8-2.8 6.1-1 9.3-4.1 8.7-10.7-.3-4-.1-8.1-.1-12.1v-1.4c.7.1 1.5.1 2 .4 7.1 4.4 7.5 4.2 10.5-4.1 1-2.8.4-6.8 4.6-7.8.5 7.7 3.9 15 1.7 23.1-1.3 4.7 2.4 6.9 6.6 4.8 5.9-3 6.3-.2 6.1 4.5-.2 2.8-.2 5.7 0 8.6.4 5.5.1 10.3-5.9 13.2-3.6 1.7-2.6 4.9-1.1 8 2.4 4.9 2.3 5 1 8.5-3-5.5-3-5.5-6.7-.2-1.5 2.1-2.9 4.4-4.8 6.2-5.2 4.9-7.2 10.7-7 17.9.4 12.8.1 25.6.1 38.3-5.9.8-13.1-2.4-16.2 6.1-.6 1.6-2.5.3-3.8-.1-8.4-2.2-17-3.1-25.6-3.2z"/><path d="M546 657.8c0-12.8.2-25.6-.1-38.3-.2-7.2 1.9-13 7-17.9 1.9-1.8 3.3-4.1 4.8-6.2 3.7-5.3 3.7-5.3 6.7.2 1.3-3.5 1.4-3.6-1-8.5-1.5-3.1-2.6-6.3 1.1-8 6-2.9 6.3-7.7 5.9-13.2-.2-2.8-.2-5.7 0-8.6.3-4.7-.2-7.5-6.1-4.5-4.2 2.1-7.8-.1-6.6-4.8 2.2-8.1-1.2-15.4-1.7-23.1v-7.1c4.2.3 7.4 3.3 11.4 4.3v5.7c-4.4 2.8-2.7 6.7-1.9 10.5.8 3.7 3.3 4 6.3 3.7 3.3 0 6.6.1 9.9.1v8.4c-4.9 2.7-6.2 6-1.4 10.1 0 1 0 1.9.1 2.9-1.4 1-1.7 2.4-1.2 3.8 2.7 8.3-.1 16.5-1 24.5-2 17.1-9.2 32.8-14.9 48.8-2.3 3.4-5.1 6.4-6 10.9-1.4 5.6-6.1 6.9-11.3 6.3z"/><path d="M567.4 527.8v-5.7c-2.6-16.4-9.1-31.6-14-47.4-1.7-5.3-5.6-9.3-7.3-14.5-2.3-7.4-1.5-15-1.5-22.5 4.4 1.2 3.3 5.4 4.1 8.2 1.8 6.5 4.2 12.3 9.1 17.4 7.7 7.9 10.5 18.4 13.2 28.8 1.3 5.1 2.7 10.1 5 14.8 5.5 11.2 6.5 23.1 5.6 35.4-3.3 0-6.6-.1-9.9-.1-1.6-4.8-1.6-10-4.3-14.4zm-4.3 112.9c5.7-16.1 12.8-31.8 14.9-48.8 1-8.1 3.7-16.2 1-24.5-.4-1.4-.1-2.9 1.2-3.8 6.8 0 8.2 4.5 6.8 9.7-1.1 4.2-.6 7.9.3 11.8 4.1 16.7-.3 31.8-7.1 47.3-4.1 9.6-10.1 8.3-17.1 8.3zm-18.5-204.4c-6 1-5.6 6.5-6.9 10.5-.8 2.6-.9 5.6-2.7 9.4-3.4-12.1-13.2-18.2-19.8-26.9-4.4-5.8-5.3-11.9-4.9-18.7h2.9c.9.5 1.9 1 2.8 1.5.6 2 .9 4.1 1.8 6 1.1 2.3 2.7 4.8 5.4 4.8 2.8 0 3.2-3 4-5.1.6-1.8 1.2-3.5 3.1-4.3 9.7 4.5 12.5 13.3 14.3 22.8z"/><path d="M530.3 413.5c-1.9.8-2.5 2.5-3.1 4.3-.7 2.1-1.2 5.1-4 5.1s-4.3-2.6-5.4-4.8c-.9-1.8-1.2-4-1.8-6 2.4-2.1 1.3-4.9 1.4-7.4.2-2.6.5-4.8 3.5-5.3 2.4-.4 4.1.7 5.1 2.9 1.6 3.6 4.5 6.8 4.3 11.2zm-65.8 177.2c-5.8-5-5.7-5.9.4-9.5 2-1.2 3.9-2.6 6.5-4.2 2.8 8 6.1 15.5 7.4 23.7-3-.1-4.4-2.3-5.9-4.5-1.9-3-4.1-5.9-8.4-5.5zm115.7-30c-4.7-4.1-3.5-7.3 1.4-10.1-.4 3.4 1.5 7.1-1.4 10.1zm-205.7-12.8c-6.8-2.4-5.7-9.6-8.6-14.3v-19.1c0-9.8 3.8-14 13.4-15.3 3.1-.4 6.8-.1 8-4.2h2.8c.8 4.9 4.7 5.4 8.6 5.7 5 1.1 2.3 5.5 3.3 8.3 1.7 4.7 3.7 7.6 9.5 7.6 5.9-.1 6-4.3 7.1-8 .6-2.1-.5-5.7 2.8-5.5 2.8.1 1.4 3.4 1.6 5.4.2 2.2.5 4.4 3.1 4.9 2.7.5 3.5-1.8 4.6-3.6 4-7.1 3.3-12.7-2.4-18.7-2.8-2.9-5.4-5.9-8.2-8.8 1.2-2 2.3-4.1 3.8-5.9 2.4-2.9 2.8-6 .5-9-2-2.6-4.8-5.6-8.1-4.7-3.8 1.1-1.2 5.3-2 8.1-4.7 2.2-8.4 2.5-8.6-4.3.6-.7 1.1-1.5 1.7-2.2 1.7-1.7 5.4-1.3 5.1-4.9-.4-4.3-4.9-.7-6.6-3 1.1-1.8 1.9-3.5 3-4.9 2-2.6 3.9-5.6 7.9-4.7 4 .9 5.8 3.7 5.9 7.7.1 4.7 3.5 5.6 7.1 6.3 1.4 5.2 5.7 2 8.6 2.9 0 2.8-.4 5.7 2.9 7.2.4 2.5 1.3 5.1 1.3 7.6 0 4.8 2.2 8.4 6.6 8.7 5.3.4 2.8-4.7 3.7-7.5 1.3-4 3.4-7.3 7.6-8.8 1.5-.6 3.1-1 4.7-1.6 16.3-5.4 17-7.5 14-24.7-2.3-13.1-2.5-26.3 10.1-35.4 1.5-1.1 2.6-3.2 4.8-2.2 2.2 1 1.3 3.3 1.5 5.1.6 8.7-.1 16.8-7.7 23.2-4.9 4.1-4.8 10.4-1.2 15.5 4.4 6.4 5.3 14.2 9.3 20.7 1.2 2 .8 4.2-1.1 4.9-7.2 2.4-5.7 7.8-5 13l-.6.3c-5.6 3.5-5.9 9.3-6.5 14.9-.4 3.5-1.9 6.4-5.7 5.8-3.6-.6-2.6-3.6-1.9-6.3.7-2.7 1.4-5.8-.9-8.6-2.7 2.7-.4 6-2.2 8.5-5.3-1.7-4.4-6.4-5.4-10.4-.7-2.9-.8-8.5-4.5-7.8-4.8.9-1.4 5.3-1 8.3.9 5.9-.5 11.1-5.6 14.4-4.9 3.1-7.1-1.7-10-4.2-1.3-1.1-2.6-2.6-4.3-1.5-1.9 1.2-.7 2.9-.3 4.4 1.7 7 1 13.2-6.7 16.4h-5.7c-4.4-5.1-9.6-4.7-15.4-2.8-6.3 2.1-12.4 3.2-17.1-3.5-3-4.3-15.5-9.9-17.6-8.3-3.3 2.5-1.1 14.9 3.6 20.3.3.4.7.6 1 1 3.8 5.5 10.2 7.3 15.5 10.6-7.3 4.2-16.3 3.7-24.1 7z"/><path d="M398.9 540.9c-5.3-3.3-11.7-5.1-15.5-10.6-.3-.4-.7-.7-1-1-4.7-5.4-6.9-17.8-3.6-20.3 2.1-1.6 14.6 4 17.6 8.3 4.7 6.7 10.8 5.7 17.1 3.5 5.8-1.9 11-2.3 15.4 2.8-9.2 11.7-9.2 11.7-2.9 20v1.6c-5.8-.9-12-.4-17-4.7-3.2-2.7-6.7 1-10.1.4zm81.3 2.7c-1.8-3.3-3.8-6.4-6.7-8.9-2.1-1.9-4.1-3.3-6.9-2-2.6 1.3-3.5 3.5-3.6 6.4-.3 7.8.8 15.6-.7 23.3-1.7 8.9-7.1 15.8-12.2 22.9-4.4.4-6.1-1.8-5.4-6 4.8-5.4 1.5-12.7 4.3-18.6 6.6-2.9 8.3-9.1 9.6-15.1 1.6-7.3-3.4-12.8-11.2-13.4 6.1-10.8 17.2-9.7 27.2-11.4.2 1.2.7 2.7 1.9 2.6 7.4-.7 6.8 4.2 6.7 9-.2 3.9-.9 7.7-3 11.2zm-125.7 65.7c-.7-5.9-7.4-4.8-10-8.5.9-.7 1.8-1.5 2.7-2.1 8-4.7 8.1-19.3.2-25.1l-.1-.1v-.7c-2.2-11.8-2.3-11.8 9.6-15.1 2.2-.6 3.6-2.3 5-3.8 1.9-2 3.8-3.6 6.8-3.2.4 17.3.4 17.2-9.5 32-4.5 6.8-4.6 13.6-.2 20.6 1.5 2.4 3.8 4.3 4 7.4-2.9.1-5.9.4-8.5-1.4z"/><path d="M448.9 560.7c-2.8 5.9.5 13.2-4.3 18.6-11.4-8.5-19.4-18.9-18.8-34.1v-1.6c5.2 1.7 9.8 5.5 15.7 4 4.2 3.5 5.6 8.4 7.4 13.1zm-55.9.7c-.3-2.3.7-5.2 2.2-7.9 1.4-2.5 2.3-5.4 6.2-2.5 3 2.3 6.8 4.8 3.3 8.2-4.6 4.5-4.7 9.4-4.5 14.9.1 1.7.1 3.8-1.9 4.1-2.1.3-2.2-2-2.6-3.5-1.3-4.1-2.6-8.1-2.7-13.3zM496 64.8c3.2 5.3 5.9 11 10 15.8-.2 4.1 2.2 7.2 4 10.5 2.6 4.8 1.6 7.9-3.1 10.5-6.8 3.8-6.8 4.9-.9 9.7 2.8 2.3 5.8 4.8 3.7 9-2.6 5.2-2 12.7-9.8 14.3-4.6.9-7.9-.3-8.8-5.6-.8-4.5-1.9-9-2.9-14.3-2.7 2.3-2.8 7-7.1 5.2-3.8-1.5-6-3.7-6.5-8.3-.8-8-3.5-15.7-2.7-23.9.1-1.3-.5-3.3 1.4-3.5 2.2-.3 2.5 1.7 2.8 3.3.4 1.9-1 5.2 2 5.3 3.7.1 1.7-3.7 2.6-5.6.8-1.7 1.2-3.5.9-5.5-1.9-11.6 2.5-16.7 14.4-16.9zm-54.5 54.4c7.9.7 15.4 9.2 12.5 15.8-6.5 14.8-3.3 29.2-.3 43.9.1.7.1 1.3.2 2-.6.2-1 .6-1.4.5-2.7-.5-2.4-6-6.4-4.2-3.6 1.6-2 4.6-1.8 7.4.2 3.4-2.3 4.8-5.2 3.8-7.6-2.5-14.9-18.8-12.1-26 1.4-3.5 2.9-4.2 5.4-1.2 1.1 1.2.6 4.2 3.7 2.9 2.9-1.3 5-3.1 5.6-6.7.9-5.9-2.4-10.4-4.4-15.4.5-3.3.9-6.7 1.4-10 2-4.1 3.5-8.2 2.8-12.8z"/><path d="M441.5 119.2c.6 4.6-.8 8.7-2.8 12.7-1.8 0-3 1.3-4.4 2.1-5.5 3.3-9.4 1.9-11.1-4.5-1.3-4.9-2.9-9.1-9-9.1-1.7 0-3.1-1.6-2.1-2.8 3.4-4.4 3.6-10.3 7.6-14.3 3.7-3.8 7.9-1.7 12-1.3 1.1 6.9 2.8 13.6 9.8 17.2zm-62.8-15.9v-5.7c2.3-1.4 4.9-1.4 7.5-1.5 4.6-.2 8.5-.4 6.9 6.3-.9 3.5.9 7 2.5 10.1 2.6 5.2 3.6 10.7 3.1 16.5-5.4-2.7-6.9-8.6-10.4-12.9-3.4-4-5.2-9.3-9.6-12.8zm44.4 40.1l-.5.5c-2.1 2.1.6 7.4-3.5 7.1-2.9-.2-2-5-3.1-7.5V130c6.7 2.7 6 8.5 7.1 13.4zM258.7 56.2c5.8 8.7 13.7 16.2 15.8 27.1-5.8-.8-11.5-1.6-15.8-6.4-5.5-6-5.6-14.1 0-20.7zM154.4 294.9c-6.9-.7-11-8.2-18.6-7.1 3.2-9.7 4.9-10.6 14.4-7.1 1.3.5 3.1 1.8 3.7.1 3.4-8.3 15.2-12 11.9-24.4 4.7 3.7 7.8 7.5 12.7 8.5-2.5 4.3-1.1 8.6 0 12.9-4.7 5.7-9.6 11.2-11.4 18.6-.5 0-.9.1-1.4.1-3.6-1.4-7.4-2-11.3-1.6z"/><path d="M154.4 294.9c3.9-.4 7.7.2 11.5 1.5-.3 3.5-2.9 5.8-5.4 7.1-12.2 6.6-24.9 11-38.3 3.1-3.3-2-6.8-1.7-10.4-1.8-2.8 0-5.9.5-7.4-2.9 6.2-4.8 12.3-4 19-.6 13.3 6.8 22 4.8 31-6.4zm445.9-91.5c4.3.9 9.5-2.3 12.9 2.8 1.1 5.5-2.3 9.6-5 13.7-2.2 3.4-6.1 2.8-9 1.2-3.8-2.2-5.2-6.1-4.4-10.5.6-3.3 3.1-5.2 5.5-7.2zm18.6 25.7c1.3 4.2 1.6 8.5 1.3 12.8-3.5-.4-5.6-2.4-5.6-5.9 0-3.1.4-6.2 4.3-6.9zM160.2 413.5c-.5 2.4-1.1 4.7-1.6 7.1-4.1.9-4.3 4.7-5.5 7.6-2.6 6.1-5.3 12.2-9 17.8-1.2 1.9-1.9 5-5 4.3-3.2-.7-5.1-3.1-6.1-6.3-4.2-13.8 6.3-29.4 20.8-30.5 2.1-.1 4.2 0 6.4 0zm450-237.1c5.9-2.9 11.1-2.1 16.1 2.2 3.1 2.7 6.4 5.6 11.1 4.8.5.6 1 1.1 1.5 1.7-10.1 5.9-18.6 15.1-31.4 15.4.2-2-.7-4.5 1.8-5.7 8.3-3.9 6-9.4 2.4-15.2-.7-.9-1-2.1-1.5-3.2zm39 12.5c.4.1.7.2 1.1.4.5 5.7.4 10.6-7.7 10.1-3.4-.2-3.7 3-3.7 5.8 0 2 2.1 3.9.2 6.6-3.9-4.2-6.8-8.7-5.8-14.4.9-5.5 5.8-6.2 10.3-7.1 1.9-.5 3.7-1 5.6-1.4zm-470.5 88.8c-1.1-4.3-2.6-8.6 0-12.9 1.1-15.3-2.4-30.4-1.3-45.6h1.4c6.5 15.5 8.1 31.9 7 48.5-.4 4.1-3.3 7.7-7.1 10zM85.8 176.3c0 1.9-.1 3.7-.1 5.6-.5.1-.9.2-1.4.3-2.7.6-4.1 5.3-7.1 3.4-3.3-2.1 0-5.6-.3-8.4-.4-4.3-.5-9-4-12.4 1.3-8.4-2.7-15-7.2-21.5.9-1.8 2.3-2.8 4.4-2.9 5.7 7.2 14.4 6.9 22.2 8.4 4.1.8 7.5 2.4 10.7 4.6v2.9c-2.1 4.5-2.3 9.4-2.9 14.3-2.4 0-3.9-1.5-5.1-3.3-1.4-2.1-2.5-5.6-5.5-4.5-3.1 1.1-3.6 4.7-3.6 7.9-.1 1.8-.1 3.7-.1 5.6z"/><path d="M65.6 143.3c4.5 6.5 8.5 13.1 7.2 21.5-4.6 3.2-8.2 7.1-9.5 13.4-4.1-13.5-5.4-29.4-24.9-29.2 4-5.4 8.6-8.4 15.8-6 3.6 1.1 7.7.2 11.4.3zm37.3 12.9v-2.9c8.8-4.2 17.2-4.4 24.8 2.6 1.5 1.4 3.3 1.7 5.2 1.6 5.8-.3 9.9 2.4 12.9 7.1 3.1 10.6 1.4 20-6.2 28.3-1.4 1.5-2 3.7-2.9 5.6-.9 2-1.8 4.4.1 6 2.6 2.2 3.6-1.1 5-2.3 6-4.9 14.2-3.3 20.7-6.9 1.5-.8 1.9 1.6 1.4 3-2.7 7.8 2.9 11.2 7.8 14.9 2.2 1.6 5.5 2.1 5.6 5.8-1.1 15.3 2.4 30.4 1.3 45.6-4.9-1-7.9-4.8-12.7-8.5 3.3 12.4-8.5 16.1-11.9 24.4-.7 1.7-2.5.4-3.7-.1-9.5-3.5-11.2-2.6-14.4 7.1-.5.1-.9.1-1.4.1-4.7-9.2-7.7-18.6-2.9-28.7 5.3-9.8 6.1-19.2-2.6-27.7-2.8-2.8-4.1-5.5 1-8.1 5.1-2.6 3.3-6.8 1.4-11-1.9-4.1-3.8-5.7-8.2-3.1-5.8 3.4-13.5 3.5-17.9 11.6-4.2-11-3.8-21.9-6.9-32.3-3.5 5.5-2.5 12-6.4 17.4-3-4.7-2.8-9.9-4.5-14.4-.8-2.1.8-3.4 2.5-4.6 2.7-1.8 3.1-4.1 2-7.4-1.2-3.5-3.5-3.3-6.1-3.2 0-1.9-.1-3.8-.1-5.7 0-3.2.5-6.8 3.6-7.9 3-1.1 4.1 2.4 5.5 4.5 1.2 1.8 2.7 3.3 5.1 3.3.6 2.5-1.5 6.8 2.7 6.9 6.7.1 9 3.8 10.7 9.2.6 2 2.6 3.4 3.8.3 5.2-13.6 6.5-28-14.3-30.5zm33 15.4c-.5-3.4 1.1-9-3.9-9.1-4.8 0-6.2 5.2-6.2 9.7 0 4 .1 9.4 5.2 9.2 4.9-.2 4.6-5.6 4.9-9.8z"/><path d="M131.5 259.2c-4.8 10.2-1.8 19.5 2.9 28.7-.8 4.9-3.2 7.7-8.6 7-3.3-5.8-10.2-8.5-12.3-15.4-.6-1.9-2.6-1.8-4-.3s-1.4 4.1-4 5c-2-2.2-.9-4.3.2-6.3 2.2-4.1 4.1-8 1.1-12.6-1.7-2.6.4-3.6 2.6-3.2 7.8 1.6 14.9-1 22.1-2.9zm-15.4-2.9c-5.3.2-8.4-3.8-6.6-8.7.6-1.8 1.5-3.5 2.5-5.1.8-1.4 1-3.7 2.9-3.7 2.6-.1 2.1 2.7 2.8 4.2 1.1 2.1 2.3 4.2 3.1 6.4 1.6 4.4 0 6.7-4.7 6.9zm-7.5 31.4l-.6-.3.6.3zm430.2 248.7v1.4c-1.8 0-3.2-.9-4.3-2.2-3.6-4.3-7.2-4.8-11.2-.3-1.2 1.4-4 3.9-4.3-.1-1.1-15.9-6.3-31.3-6-47.4 1.8-7.1 1.7-13.9-2.2-20.4-2.2-3.8-6.1-8.5-1.7-12.2 3.6-2.9 8.8.4 12.3 2.3 12.1 6.5 18.3 26.8 12.1 39-2.1 4-2.2 7 1.5 9.9 1.4 1 2.2 2.5 2.2 4.3-4.7 1.8-4.5 9-10.5 9.4-.2 0-.6 1.7-.4 2.4.5 1.5 1.6 1.9 3.3 1.9 9.8.3 9.8.3 9.1 9.1.1 1 .1 2 .1 2.9zm-64.3-15.7c-9.9 1.7-21.1.6-27.2 11.4-.9.5-1.9 1-2.8 1.5-2.2-4.5-8.1-5.3-10-10 7.7-3.2 8.3-9.4 6.7-16.4-.4-1.6-1.6-3.3.3-4.4 1.8-1.1 3.1.4 4.3 1.5 2.9 2.5 5.1 7.2 10 4.2 5.2-3.3 6.5-8.5 5.6-14.4-.4-2.9-3.8-7.4 1-8.3 3.7-.7 3.8 4.9 4.5 7.8 1 4 .1 8.7 5.4 10.4 1.8-2.5-.5-5.8 2.2-8.5 2.4 2.8 1.6 5.8.9 8.6-.7 2.7-1.7 5.7 1.9 6.3 3.8.6 5.3-2.3 5.7-5.8.6-5.7.9-11.5 6.5-14.9l.6-.3c4.4 1.4 6.5 4.3 5.7 9-.5 3.3.7 6.4 1.4 9.6-1.6 2.5-1.6 5.4-1.4 8.2.3 4.7-.8 5.8-6.3 5.7-4.9-.4-9.8-5.1-15-1.2z"/><path d="M474.5 520.7c5.2-3.9 10.1.8 15.1 1 5.6.2 6.6-1 6.3-5.7-.2-2.8-.2-5.6 1.4-8.2h2.9c5.8 5.6 7.2 13 8.4 20.5.5 3.4 0 6.3-4.3 6.7-3.4.3-4.2 2.6-4.1 5.5.3 9.3-3.3 18.6.8 28 1.6 3.6-.7 5.2-4.7 4-2.7-.8-5.9-1.4-6.2 3.2-.1 1.4-.2 3.1-2.1 3.1-2.4-.1-2.2-2.1-2.2-3.7 0-8.3-1.7-16.4-2.7-24.5-.4-2.8-1.8-4.8-3-7 2.1-3.5 2.8-7.3 2.9-11.3.1-4.8.7-9.8-6.7-9-1.1.1-1.6-1.4-1.8-2.6zm-32.9-50c-3.2-1.5-2.8-4.4-2.9-7.2 1-6.8 5.3-13.8-1.4-20v-4.3c9-2.4 11.9 5.3 15.7 10.3 8.8 11.8 3 18.9-11.4 21.2zm97.2 65.7c0-.9-.1-1.9 0-2.8.7-8.8.7-8.9-9.1-9.1-1.6 0-2.8-.4-3.3-1.9-.2-.7.2-2.4.4-2.4 6-.4 5.9-7.6 10.5-9.4 1.1 2.1 2 4.3.9 6.7-1 2.2-.3 3.8 1.9 4.4 2.2.7 4.2.2 5.4-2.1.3-.6.3-1.4.6-2 1.4-2.4.6-6.8 4.9-6.8 4.2.1 3.1 4.6 4.9 6.9v7.1c-4.2 1-3.6 5-4.6 7.8-3 8.3-3.4 8.5-10.5 4.1-.5-.4-1.3-.4-2-.5zm-78.6-147.2v-10c1.9 0 3.8-.2 5.7.1 4.4.5 6.1 3.3 5.6 7.5-.5 4.6-3.5 3.2-6.4 2.6-1.5-.4-3.2-.2-4.9-.2zM301.5 510.6H293c-4.3-3-7.4-1.3-9.9 2.7-3.5 5.6-5 11.6-4.5 18.2.3 4.5 0 9 .1 13.5.1 4.9-2.8 6.9-6.8 5.4-6.5-2.5-9.6 0-11.8 5.8-.9 2.5-2.8 4.4-5.8 4.6-1.9-4.8-1.9-9.5 0-14.3 4.8.1 7.2-2.3 7.1-7.1 6.2-5.4 4.2-12 2.9-18.6 2.7-4.8 4.7-9.8 5.6-15.2.6-4 .1-7.8-4.7-9-4.1-1-13.2 5.1-13.7 8.9-1.4 10.9.9 14.5 10 15.3-1.9 3.8-3.9 7.6-5.8 11.4-1.9-1.4-3.8-2.9-5.7-4.3-1.5-.7-3-1.5-4.5-2.2-7.2-3.5-8.9-2.7-11 5-.7 2.6-.5 7.1-3.8 6.2-3.7-1-4-5.2-2.3-9.1 2.8-6.7 8.9-11.9 8.8-19.9.9-2.4 2.1-4.8 2.7-7.3 1.5-6.3 5.1-9 11.8-8.6 3.1.2 7.7 2.3 9.5-2.1 1.5-3.7-.5-7.3-3-10.4-3.6-4.6-2.4-7.9 3.6-8.6 6.7-.7 8.9-4 8.4-10.4-.2-2.7.8-5.6 1.3-8.3 4-.1 6.6 1.6 7.1 5.7.2 2 1.1 3.4 2.9 4.3-1 1.9-2 3.9-.6 6 3.5 5.2 3.7 11 3.4 17-.1 2.5.2 5.1 3.3 5.4 2.7.3 4-1.9 5.2-4.1 1.7-3.1.6-7 3-9.9l2.9 2.9c.3 3.1 2.4 5 4.3 7.1 3.4 4.9 7.9 2.8 12.2 1.9 7-1.5 9.2.6 8.2 7.6-.6 4.2-.7 8.4-1.5 12.6-2.6 14-.6 15.7 13.2 12.8 3.2-.7 6.7-1 9.9-.3 5.1 1 9.4 3.6 9.5 9.7-1.6-.3-3.2-.5-4.9-.9-7-1.5-10.4 1.8-9.3 9 1.7 10.9 1.6 11.1-8 15.9-3.2 1.6-6.6 2.8-7.9 8.8-2.9-8.1-5-14-7.2-19.9-1.3-4.4-1.4-8.6-.4-13.2 1.1-4.9 1.5-10.4-1.7-15.2-3.6-5.3-7.2-10.6-10.7-15.9-1.5-2.3-4-4.9-6.1-3.3-2.2 1.6-1.6 5.3.2 7.8 1.6 1.9 3.5 3.7 3 6.6zm-117.1 57.3c-2 1.6-1.1 3.9-1.5 5.9-.8 3.9-2 7.4-7.1 7 .8-2.2 1.8-4.4 2.5-6.6 1.3-4.2 3.5-8.3-.7-12.5-4.3-4.3-7.3-.5-10.8.8-6 2.3-11.7-.7-12.2-7.1-.2-2.7-1.5-4.3-3-6.1v-5.7c2-1.3 4.1-2.4 5.9-3.8 5.1-4 8.6-8 5.3-15.6-4.2-9.3 2.1-16.2 7.6-22.8 3.2-3.8 7.1-7 8.4-12 5.1-2.5 6.5-7.6 8.6-12.3 3.8-8.5 6.1-17.9 12.8-24.9 3.1 6.1 6.9 12 2.3 19.2-1.4 2.1.9 3.6 2.9 3.6 3.6.1 6.3 2 4.5 5-2.5 4 .5 11.7-6.8 12.1-5.1.3-9.7 1.6-14.3 3.1-10.4-.1-11.1.6-11.4 11-.1 5-.4 10 0 14.9.7 8.7-3.1 14.4-12 18.4 13.7 4.9 19 15 19 28.4z"/><path d="M188.7 495c4.7-1.5 9.3-2.8 14.3-3.1 7.2-.4 4.3-8.1 6.8-12.1 1.9-3-.9-4.9-4.5-5-2 0-4.3-1.5-2.9-3.6 4.7-7.2.8-13.1-2.3-19.2 0-2 1-3.5 2.8-4.3 2.2 1.6 2.9 4.3 4 6.5 2.6 5.4 6.9 6 11.8 4.1 5.4-2 7-5.9 4.7-11.3s-2.5-10.9-.4-16.5c5.4 2.4 7.7 6.6 7.1 12.5-.5 5.4-1 10.7-1.4 16.1.3.9.4 1.8.8 2.7 2.4 5.6 10.2 9.5 5.8 17.2-7.3 12.7-13.7 26.5-32 25.9-7.3-.1-12.1-3.2-14.6-9.9z"/><path d="M228.7 459.2c.5-5.4.9-10.7 1.4-16.1.5-5.8-1.7-10-7.1-12.5-.2-2.3-1-4.3-2.9-5.8-.1-5.1 2.5-7.9 7.3-9.6 2.5-.9 6.4-.7 7-4.7 6.1-2.7 11.6-6.5 9.6-14.1-1.9-7.3 1.5-8.8 7.5-8.8-3.4 7.3.5 13 4.2 18.8.5.8.5 1.9 1.9 1.6 2.4-.5 5.4-1 6.1 1.8 1 4.2 4 8.3 2.1 12.9-2.5 5.8-3.6 13.1-12.9 12.4-2.8-.2-5.5 2.1-6.2 6.2-1.4-3.1-.7-7.1-3.7-7.2-3.2-.1-4.8 3.1-5.9 6.2-2.3 6.7-1.2 14.7-8.4 18.9zm-17.1 77.2c.4 3.3.9 6.7 1.3 10-1.2.2-2.4.1-3.5.5-8.6 3.8-12.6 1.6-13.6-7.7-.4-4.2-.3-8.5 1.5-12.5.9-1.9 1.9-4.3 4.4-3.8 2 .4 2.6 2.8 2.5 4.6 0 5.1 1.2 9 7.4 8.9zM390.2 495h-2.8c-2.7 0-4.4-1.9-5.7-3.8-2.8-4.2-5.1-4.4-7.7.2-.9 1.6-2.1 4.2-4.9 2.3-5.1-3.4-6-10.5-1.7-15.2 1.7-1.8 3-3.6 2.9-6.2-.7-12.1 2.1-24 1.5-36.1-.5-11.4-4.4-14.1-15.8-9.9-4.6-.6-6.3-4.1-7-7.9-.7-3.9 2.6-5.8 5.3-7.7 1.8-1.2 3.8-2 5.7-2.9 7.4-3.7 7.4-3.7 8.9 4.6.2 1.1.7 2.3 1.2 3.3.3.5.9.9 2.3 2.1.5-7.9 1.5-15.2 10.3-18.5-1.6 10.6-.4 20.1 6.1 28.4-2.5 3.8-3.3 7 1 10.5 6.8 5.6 4.6 21-2.3 25.3-.2-2.1 0-4.5-2.6-5.2-1.3-.4-2.2.6-2.8 1.7-3.6 6.9-6.9 13.9-4.5 22.1.4 1.5.7 3.5 2.8 3.6 2 .1 2.5-1.9 3.2-3.3 1.7-3.3.2-7.7 3.7-10.3 1.9.6.9 4.2 3.6 3.6 2-.5 2.6-2.7 3.1-4.4.5-1.5.2-3.3.7-4.9.9-2.7 1.9-5.9 4.9-6.4 2.7-.4 2 3.2 3.3 4.7.9 1 1.7 1.5 2.9 1.7.2 6.8 3.9 6.5 8.6 4.3.2 4.7-.7 9.9 5.7 11.4 2.7 2.9 5.4 5.9 8.2 8.8 5.7 6 6.4 11.6 2.4 18.7-1.1 1.9-1.9 4.1-4.6 3.6-2.7-.5-2.9-2.6-3.1-4.9-.2-1.9 1.2-5.2-1.6-5.4-3.3-.2-2.1 3.4-2.8 5.5-1.1 3.7-1.2 7.9-7.1 8-5.7.1-7.8-2.8-9.5-7.6-1-2.8 1.7-7.2-3.3-8.3.1-3.6-.1-7.4-3.5-9.2-2.5-1.2-3.8 1.8-5 3.7z"/><path d="M355.9 426.4c11.4-4.2 15.3-1.5 15.8 9.9.5 12.1-2.2 24-1.5 36.1.1 2.6-1.2 4.4-2.9 6.2-4.3 4.6-3.4 11.8 1.7 15.2 2.8 1.8 4-.7 4.9-2.3 2.6-4.6 4.8-4.4 7.7-.2 1.3 1.9 3 3.7 5.7 3.8-1.2 4.1-5 3.8-8 4.2-9.6 1.3-13.4 5.5-13.4 15.3v19.1c-4.7 3.8-8.3 3.9-10-2.9 5.2-10.6 4.1-14.8-5.5-22.2-11.7-8.9-14-22.4-6-35.1 3.9-5.5 6.5-11.9 13.2-15.3 8.1-4.1 9.9-10.1 6.9-19 .1-.9-.1-2 .3-2.8 2.6-4.9 2.9-8.3-4.4-7.4-2.1.4-3.6-.8-4.5-2.6zm31.5 37.1c6.9-4.3 9.1-19.6 2.3-25.3-4.3-3.6-3.5-6.8-1-10.5 7.7-3.1 14.3-7.8 15.4-16.5.9-6.8 5.3-5.4 8.7-4.5 4.3 1.2 3.8 5.2 1.9 8.2-1.9 3-2.1 5.2.8 7.3 3.3 2.4 4.6-1.1 6.3-2.7 3-2.8 4.8-4.8 5.8 1.6 1 7 .2 13.5-2 20-1.3 3.8-2.2 7.1 3.2 8 4.6 3.3 1.4 7.5 1.4 11.4-3.6-.7-7-1.6-7.1-6.3-.1-4-1.9-6.8-5.9-7.7-4-.9-5.9 2.2-7.9 4.7-1.1 1.5-2 3.1-3 4.9 1.7 2.3 6.2-1.3 6.6 3 .3 3.6-3.4 3.3-5.1 4.9-.7.6-1.2 1.4-1.7 2.2-1.2-.2-2.1-.7-2.9-1.7-1.3-1.5-.6-5.2-3.3-4.7-3 .5-4.1 3.7-4.9 6.4-.5 1.5-.2 3.3-.7 4.9-.6 1.8-1.1 4-3.1 4.4-2.6.6-1.7-3-3.6-3.6-.3-2.7-.2-5.5-.2-8.4z"/><path d="M364.4 439.3c3 8.9 1.2 14.8-6.9 19-6.7 3.4-9.3 9.8-13.2 15.3-1.8 0-3.2-.9-4-2.5-1.2-2.3-2.9-4.3-5.6-2.4-2.1 1.5-3.5 3.9-2.3 6.8.6 1.5 1.2 3.1 1.6 4.7.7 2.9-1.1 4.5-3.3 5.6-2.2 1.1-4.3.6-5.3-1.9-2.3-5.8-6.3-5-11.2-3.6-4.2 1.3-7.3 4.5-11.3 6-1.9-2.1-4-4.1-4.3-7.1 4.7-4.4 10.5-7.8 12.8-14.3 2.3-4.8 5.8-6.7 11.4-7.7 11.6-2 17.8-10.8 21.1-21.7 2.1-7.2 2.5-7.3 8.5-2.9 3.9 2.8 6.3 7.7 12 6.7zm-68.5 37.1c-2.4 2.9-1.3 6.8-3 9.9-1.2 2.2-2.5 4.3-5.2 4.1-3.1-.3-3.4-2.9-3.3-5.4.3-6 .1-11.8-3.4-17-1.4-2.1-.4-4.1.6-6 3.5-.5 6.1-4 10-2.9-1.1 6.5 2 11.8 4.3 17.3z"/><path d="M295.9 476.4c-2.2-5.5-5.3-10.8-4.3-17.2 1.9-.9 4.1-2.3 5.9-.3 3.8 4.2 9.1 4.7 14.1 6-2.3 6.5-8.1 9.9-12.8 14.3-1-.9-2-1.9-2.9-2.8zm134.2-15.8c0-3.9 3.2-8.1-1.4-11.4-.4-6.8 6.3-2.9 8.5-5.7 6.7 6.2 2.4 13.3 1.4 20-2.7-.9-7 2.3-8.5-2.9zm-19.9-74.4c-.4-5.3 1.9-8.6 6.7-9.7 4.5-1.1 7.9.9 9.6 5.3 1.5 4 .3 6.4-4.1 5.4-2.6-.6-4.6-1.1-6.2 1.5-1 1.7-2 3.7-4.3 2.9-2.7-1-1.3-3.7-1.7-5.4zm-230.1 17.3h2.9c2 4.4 8.1 5.1 9.4 10.3.6 2.4 1.2 4.7-.4 6.8-1.7 2.3-3.3.6-4.8-.4-1.1-.7-2.2-.5-3.1.5-1 1.2-1.3 2.7-.3 3.9 3.9 4.6 1.8 8.9-.7 13.1-3.4 5.7-3.7 9.4 4.6 8.9 2-.1 2.5 2 3.9 2.8-2.9 4.3-7.7 7.3-8.6 12.9-14.8-5-20-19.4-12.3-33 4.4-8.2 9.4-16.1 9.4-25.8zm-52.9 155.9c-3-3-2.8-6.5-.8-9.6 3.4-5.5 4.3-11.5 3.6-17.7-.4-4.2 1.3-6.5 5-8.3 4.5-2.2 9.6-3.6 12.5-8.7 1.8-3.1 7.3-1.3 7.9 2.9.8 6.2 1.7 12.8-4 17.9-1.9 1.7-4.2 3.3-4.2 6.3-1 .5-1.9.9-2.9 1.4-8.9 1.7-13 8.8-17.1 15.8z"/><path d="M183 462.1c.9-5.6 5.7-8.6 8.6-12.9 2-1.9 1.8-4.8 3-6.9 3-5 3.1-12 9.7-14.5 1.1 6.3-2 12.3-1.3 18.6 0 .5-.1.9-.1 1.4-1.8.8-2.8 2.3-2.8 4.3-6.7 7.1-9 16.4-12.8 24.9-2.1 4.7-3.4 9.8-8.6 12.3-1.6-9.5 2.4-18.2 4.3-27.2zm-55.8 97.3c4.1-7 8.2-14.1 17.1-15.9.1 2.9 2 4.5 4.3 5.8-1.8 2.6-5 2.5-7.5 3.8-2.4 1.2-5.9 2.9-4.9 5.3 3.4 8.9-2.2 16.7-1.9 25.2l-1.5 1.5c-1.9-.8-3.1-3-5.5-2.9-.1-6.1-.2-12.3-.4-18.4.2-1.5.3-3 .3-4.4zm27-99.3c0 10.5.2 21-.1 31.6-.1 3-2.9 3.4-5.4 3.2-3.4-.2-4.6-2.4-4.2-5.4 1.3-10.2 4.8-19.9 7.6-29.7l2.1.3z"/><path d="M148.7 549.3c-2.3-1.3-4.2-2.8-4.3-5.8 1-.5 1.9-.9 2.9-1.4 1.4.4 2.9.9 4.3 1.3v5.7c-1.1.1-2 .1-2.9.2zm142.9-167.2c-1.8.4-3.6 1-5.5 1.1-4.1.3-8.5-.3-10.6-4.1-2.2-4-1.8-8.8-.3-13 .9-2.5 4.2-2.8 6.9-2.4 2.9.4 4.5 2.3 5.1 5.1.5 2.3-1.1 5.6 2.9 6.2.5 2.3 1 4.7 1.5 7.1zm-75.7 20c6.9 1.7 11.6-3.4 17.1-5.8 2.3 2 1.1 4.7 1.4 7.1-2.6.1-3.9 2.2-5.7 3.6-3.8 2.9-7.4 6.4-12.6 6.6-.1-3.8-.2-7.7-.2-11.5z"/><path d="M216 413.6c5.2-.2 8.8-3.7 12.6-6.6 1.8-1.4 3.1-3.5 5.7-3.6 0 2.4.1 4.8.1 7.2-.7 4-4.5 3.8-7 4.7-4.8 1.7-7.4 4.5-7.3 9.6h-5.8c.6-3.8 1.2-7.5 1.7-11.3zm17.2-22.8c-3.5-9-2.4-11 9.9-17.3 0 7.7-2 14.2-9.9 17.3z"/><path d="M216 413.6c-.6 3.8-1.2 7.5-1.7 11.3-.4.1-.9.1-1.3.1-3.5-1-7.8-4.6-8.7 2.7-6.6 2.6-6.7 9.5-9.7 14.5-1.3 2.1-1.1 5-3 6.9-1.4-.8-2-2.9-3.9-2.8-8.3.5-8-3.2-4.6-8.9 2.5-4.1 4.6-8.4.7-13.1-1-1.2-.7-2.7.3-3.9.9-1 2-1.3 3.1-.5 1.6 1 3.1 2.7 4.8.4 1.6-2.1 1-4.4.4-6.8-1.3-5.2-7.4-5.8-9.4-10.3.6-3.6 2.8-6.3 6.2-6.8 3.3-.5 4.4 2.6 5.5 5.3 1.9 4.7 5.5 5.3 9.7 2.9 4.1 2.2 6.8 1.8 7.2-3.6.2-2.9.6-5.8 4.3-6.4v7.2c0 4.1.1 8 .1 11.8zm-88.6 168.5c2.4-.1 3.6 2.1 5.5 2.9h1.5c4.4 13.3 19.6 22.5 33 20.3 3.6-.6 7.1-.4 9.9 2.4-5.9 7.9-9.4 8.9-18.4 5.4-2.4-.9-4.9-1.5-7.3-2.3-8.6-.1-15.7-1.8-15.4-12.9 0-1.1-2.6-2.8-4.3-3.2-7.6-2.3-7.3-6.9-4.5-12.6z"/><path d="M148.7 549.3c.9 0 1.9-.1 2.8-.1 1.6 1.7 2.8 3.4 3 6.1.6 6.4 6.3 9.4 12.2 7.1 3.5-1.3 6.6-5.1 10.8-.8 4.2 4.2 2 8.3.7 12.5-.7 2.2-1.6 4.4-2.5 6.6-4.3 1.4-2 9.4-8.6 8.6-.2-2.8-1-7.6-3.4-6.2-4.5 2.7-11.3 3.4-12.4 10.4-6-2.2-10.6-7.3-17.1-8.5v-1.4c-.3-8.4 5.2-16.3 1.9-25.2-.9-2.5 2.6-4.1 4.9-5.3 2.7-1.3 5.8-1.2 7.7-3.8z"/><path d="M151.5 593.5c1.1-6.9 7.9-7.7 12.4-10.4 2.3-1.4 3.2 3.4 3.4 6.2-4 6.4-9.3 7.4-15.8 4.2zm98.6-65.7c1.9 1.4 3.8 2.9 5.7 4.3.9 3.2 2.2 6.1 5.7 7.2.1 4.8-2.3 7.2-7.1 7.1-1.4-6.2-2.8-12.4-4.3-18.6zm44.4 24.9c-.3 2 .5 4.8-2.1 4.7-3.3-.1-3.5-3.3-3.7-5.9-.1-2-.5-5.5 1.9-5.3 3.3.1 3.4 3.9 3.9 6.5zm8.5-66.3c4-1.5 7.1-4.7 11.3-6 4.8-1.5 8.8-2.2 11.2 3.6 1 2.5 3.1 3 5.3 1.9 2.2-1.1 4-2.8 3.3-5.6-.4-1.6-.9-3.2-1.6-4.7-1.2-3 .1-5.3 2.3-6.8 2.6-1.9 4.3.1 5.6 2.4.9 1.6 2.2 2.4 4 2.5-8 12.7-5.7 26.2 6 35.1 9.6 7.3 10.7 11.5 5.5 22.2-.5 0-.9 0-1.4-.1-.2-6.2-4.5-8.7-9.5-9.7-3.1-.6-6.7-.3-9.9.3-13.8 2.9-15.8 1.3-13.2-12.8.8-4.2.9-8.4 1.5-12.6 1.1-7.1-1.2-9.1-8.2-7.6-4.3.6-8.8 2.7-12.2-2.1zm-1.5 24.2c.5-3-1.5-4.8-3-6.9-1.8-2.4-2.4-6.1-.2-7.8 2.2-1.6 4.6 1 6.1 3.3 3.5 5.3 7.1 10.6 10.7 15.9 3.2 4.8 2.8 10.2 1.7 15.2-1 4.6-.9 8.8.4 13.2-4.3 1-4.4 5.1-5.8 8.1-1.2 2.7-2 5.7-6.2 9.6 3.1-10.9.8-20.1 2.7-29.1 1.1-5.2.6-10.3.6-15.5.1-4.2-2.8-6-7-6zm37.2 90.1c-.5 0-.9 0-1.4-.1-1.1-7.1-3-14.2 0-21.3 3.3-2 5.7-5.6 10-5.7l.1.1c-1.9 9-3.8 18.1-5.7 27.1-1-.1-2-.1-3-.1z"/><path d="M341.6 600.7c1.9-9 3.8-18.1 5.7-27.1 7.9 5.7 7.8 20.3-.2 25.1-1 .6-1.8 1.4-2.7 2.1-.9-.1-1.8-.1-2.8-.1zm225.8-72.9c2.7 4.4 2.7 9.6 4.3 14.3-3 .2-5.5 0-6.3-3.7-.8-3.9-2.4-7.7 2-10.6zm-132.9-4.3c1.9 4.8 7.8 5.5 10 10-.7 3.9-3.6 2.9-6 2.5-1.9-.3-4.1-2.3-5.2.9-.8 2.6.9 4.3 2.8 5.8s5.1 1.5 5.5 4.8c-6 1.5-10.6-2.3-15.7-4-6.4-8.4-6.4-8.4 2.9-20h5.7zm-14.3-41.4c-6.4-1.5-5.5-6.8-5.7-11.4.7-2.7-1.8-7 2-8.1 3.3-1 6.1 2 8.1 4.7 2.3 3 1.9 6-.5 9-1.6 1.7-2.7 3.8-3.9 5.8zm-30 12.9c1.2-1.9 2.5-4.9 5.1-3.5 3.4 1.8 3.6 5.6 3.5 9.2-3.9-.3-7.8-.8-8.6-5.7z"/><path d="M441.7 547.6c-.4-3.2-3.6-3.3-5.5-4.8s-3.7-3.2-2.8-5.8c1-3.2 3.3-1.2 5.2-.9 2.4.3 5.3 1.4 6-2.5.9-.5 1.9-1 2.8-1.5 7.9.6 12.8 6.1 11.2 13.4-1.3 6-3 12.3-9.6 15.1-1.9-4.6-3.3-9.5-7.3-13zM102.9 156.2c20.8 2.5 19.5 16.9 14.2 30.7-1.2 3.1-3.2 1.6-3.8-.3-1.7-5.4-4-9.1-10.7-9.2-4.2-.1-2-4.4-2.7-6.9.7-4.8.9-9.8 3-14.3zm33 15.4c-.2 4.1.1 9.5-4.8 9.8-5.1.3-5.2-5.1-5.2-9.2 0-4.5 1.4-9.7 6.2-9.7 4.9.1 3.3 5.7 3.8 9.1zm125.7 349.1c-9.1-.8-11.5-4.4-10-15.3.5-3.8 9.6-9.9 13.7-8.9 4.8 1.1 5.3 5 4.7 9-.9 5.4-2.9 10.4-5.6 15.2h-2.8zm0 0h2.8c1.4 6.6 3.4 13.2-2.9 18.6-3.6-1.1-4.9-4-5.7-7.2 2-3.8 3.9-7.6 5.8-11.4zM213 425c.4 0 .9-.1 1.3-.1h5.8c1.9 1.5 2.7 3.5 2.9 5.8-2.1 5.5-1.9 11 .4 16.5 2.3 5.4.7 9.2-4.7 11.3-4.9 1.9-9.2 1.3-11.8-4.1-1.1-2.3-1.8-4.9-4-6.5 0-.5.1-.9.1-1.4 5.9-6.1 6.9-14.3 10-21.5zm174.4 38.5c-.1 2.8-.1 5.7-.2 8.5-3.5 2.6-2.1 7-3.7 10.3-.7 1.4-1.2 3.4-3.2 3.3-2-.1-2.3-2.2-2.8-3.6-2.4-8.1.9-15.1 4.5-22.1.6-1.1 1.5-2 2.8-1.7 2.7.9 2.5 3.3 2.6 5.3z"/><path d="M213 425c-3.1 7.2-4.1 15.4-10 21.4-.7-6.3 2.4-12.3 1.3-18.6.9-7.4 5.2-3.8 8.7-2.8zm-78.6 158.6v1.4h-1.5c.5-.5 1-1 1.5-1.4z"/></g></svg>